<?xml version="1.0" encoding="UTF-8" standalone="no"?>
<svg
   xmlns:dc="http://purl.org/dc/elements/1.1/"
   xmlns:cc="http://creativecommons.org/ns#"
   xmlns:rdf="http://www.w3.org/1999/02/22-rdf-syntax-ns#"
   xmlns:svg="http://www.w3.org/2000/svg"
   xmlns="http://www.w3.org/2000/svg"
   xmlns:sodipodi="http://sodipodi.sourceforge.net/DTD/sodipodi-0.dtd"
   xmlns:inkscape="http://www.inkscape.org/namespaces/inkscape"
   width="210mm"
   height="297mm"
   viewBox="0 0 210 297"
   version="1.1"
   id="svg1416"
   inkscape:version="1.0.2-2 (e86c870879, 2021-01-15)"
   sodipodi:docname="JRSF.svg">
  <defs
     id="defs1410">
    <filter
       inkscape:collect="always"
       style="color-interpolation-filters:sRGB"
       id="filter2069"
       x="-9.8897693e-07"
       width="1.000002"
       y="-1.5255048e-06"
       height="1.0000031">
      <feGaussianBlur
         inkscape:collect="always"
         stdDeviation="3.0097551e-05"
         id="feGaussianBlur2071" />
    </filter>
    <filter
       inkscape:collect="always"
       style="color-interpolation-filters:sRGB"
       id="filter2069-5"
       x="-9.8897692e-07"
       width="1.000002"
       y="-1.5255048e-06"
       height="1.0000031">
      <feGaussianBlur
         inkscape:collect="always"
         stdDeviation="3.0097551e-05"
         id="feGaussianBlur2071-4" />
    </filter>
  </defs>
  <sodipodi:namedview
     id="base"
     pagecolor="#ffffff"
     bordercolor="#666666"
     borderopacity="1.0"
     inkscape:pageopacity="0.0"
     inkscape:pageshadow="2"
     inkscape:zoom="0.7"
     inkscape:cx="378.16262"
     inkscape:cy="270.41866"
     inkscape:document-units="mm"
     inkscape:current-layer="layer1"
     inkscape:document-rotation="0"
     showgrid="false"
     inkscape:window-width="1128"
     inkscape:window-height="704"
     inkscape:window-x="0"
     inkscape:window-y="0"
     inkscape:window-maximized="0" />
  <metadata
     id="metadata1413">
    <rdf:RDF>
      <cc:Work
         rdf:about="">
        <dc:format>image/svg+xml</dc:format>
        <dc:type
           rdf:resource="http://purl.org/dc/dcmitype/StillImage" />
        <dc:title></dc:title>
      </cc:Work>
    </rdf:RDF>
  </metadata>
  <g
     inkscape:label="Layer 1"
     inkscape:groupmode="layer"
     id="layer1">
    <path
       id="path2121"
       style="font-style:normal;font-variant:normal;font-weight:bold;font-stretch:normal;font-size:16.9333px;line-height:1.25;font-family:'Palatino Linotype';-inkscape-font-specification:'Palatino Linotype Bold';font-variant-ligatures:historical-ligatures;font-variant-caps:normal;font-variant-numeric:normal;font-variant-east-asian:normal;text-align:center;text-anchor:middle;fill:#000000;fill-opacity:1;stroke:none;stroke-width:0.265;stroke-miterlimit:4;stroke-dasharray:none;filter:url(#filter2069-5)"
       d="m 119.81428,38.747362 -0.10748,0.942577 q -0.0331,0.314192 -0.0744,0.826821 l -0.0496,0.661457 -0.0827,0.09095 h -0.47956 l -0.0827,-0.08268 q -0.0165,-1.116209 -0.13229,-1.273305 -0.19017,-0.256314 -2.30683,-0.256314 -0.339,0 -1.0666,0.04961 -0.0909,0.843358 -0.0909,3.026166 v 1.116209 l 0.93431,0.0248 q 0.42168,0.0083 1.56269,-0.03307 0.22324,-0.0083 0.29766,-0.124024 0.12402,-0.198437 0.14882,-1.091404 l 0.0827,-0.08268 h 0.51262 l 0.0827,0.08268 q -0.0331,0.92604 -0.0331,1.694984 0,0.835089 0.0331,1.827275 l -0.0827,0.07441 h -0.55397 l -0.0827,-0.08268 q 0,-0.868163 -0.0744,-1.01699 -0.14056,-0.289388 -0.85163,-0.347265 -0.48782,-0.04134 -0.95911,-0.04134 -0.57051,0 -1.01699,0.0248 v 1.967835 q 0,1.959566 0.10749,2.563146 0.0413,0.239778 0.28112,0.305924 0.0579,0.01654 1.18235,0.08268 l 0.0827,0.08268 v 0.55397 l -0.0909,0.08268 -3.32382,-0.04961 q -0.71107,-0.0083 -1.96783,0.04961 l -0.0827,-0.07441 v -0.562238 l 0.0827,-0.08268 q 0.84335,-0.04961 0.96738,-0.08268 0.23977,-0.06615 0.28112,-0.305924 0.10748,-0.60358 0.10748,-2.563146 v -4.373885 q 0,-1.959566 -0.10748,-2.563146 -0.0413,-0.239778 -0.28112,-0.305924 -0.12403,-0.03307 -0.96738,-0.08268 l -0.0827,-0.08268 v -0.56224 l 0.0827,-0.07441 q 0.79374,0.04961 2.54661,0.04961 1.13274,0 5.57277,-0.04961 z m -9.69861,7.780389 q 0,1.364255 -0.77721,2.40605 -0.678,0.917771 -1.77767,1.364255 -1.00872,0.41341 -2.40605,0.41341 -1.73632,0 -3.4065,-0.793748 l -0.0992,-0.181901 q 0.23151,-0.950844 0.23151,-2.703705 l 0.0827,-0.08268 h 0.52917 l 0.0744,0.08268 v 0.190169 q 0,0.46302 0.0992,1.223695 0.29765,0.529166 1.0666,0.909504 0.80202,0.396874 1.67018,0.396874 1.6371,0 2.26549,-1.141014 0.32246,-0.587043 0.32246,-1.215427 0,-1.058331 -0.8847,-1.513083 -0.43822,-0.223242 -1.41387,-0.372069 -2.20761,-0.338997 -2.90214,-0.851626 -1.05006,-0.777212 -1.05006,-2.40605 0,-1.694984 1.14101,-2.703706 1.20716,-1.058331 3.3569,-1.058331 1.93476,0 3.12538,0.620116 l 0.0579,0.198437 q -0.19844,0.983917 -0.23978,2.364709 l -0.091,0.08268 h -0.5209 l -0.0827,-0.08268 q -0.0248,-0.992186 -0.0827,-1.289841 -0.25632,-0.388606 -0.89297,-0.661457 -0.67799,-0.28112 -1.41386,-0.28112 -1.10794,0 -1.75286,0.587043 -0.60358,0.553971 -0.60358,1.430401 0,0.950845 0.68626,1.397328 0.44648,0.289388 2.10839,0.55397 0.17364,0.02481 0.96738,0.165365 0.48783,0.08268 0.90124,0.239778 0.83509,0.314192 1.25677,0.959113 0.45475,0.702798 0.45475,1.752861 z m -9.69861,3.786841 -0.0827,0.08268 q -0.0579,0 -0.31419,-0.0083 -1.132741,-0.04134 -1.413861,-0.04134 -0.42168,0 -1.33945,0.04961 -0.0331,-0.198437 -0.3142,-0.661457 l -2.05051,-3.42304 -0.91777,-1.397328 q -0.17364,-0.256314 -0.48783,-0.504361 l 0.091,-0.281119 q 0.19017,0.0083 0.28112,0.0083 0.81029,0 1.27331,-0.256314 0.42167,-0.23151 0.77721,-0.810285 0.35553,-0.578775 0.35553,-1.380792 0,-1.397328 -1.04179,-1.885152 -0.4961,-0.23151 -1.44694,-0.23151 -0.41341,0 -0.79375,0.06615 -0.08268,0.810285 -0.08268,2.761583 v 4.324276 q 0,1.967835 0.107487,2.563146 0.04134,0.239778 0.281113,0.305924 0.12403,0.03307 0.96738,0.08268 l 0.0827,0.08268 v 0.55397 l -0.0744,0.08268 q -0.82682,-0.04961 -2.546605,-0.04961 -1.777665,0 -2.546609,0.04961 l -0.08268,-0.07441 v -0.562238 l 0.08268,-0.08268 q 0.843358,-0.04961 0.967381,-0.08268 0.239778,-0.06615 0.281119,-0.305924 0.107487,-0.595311 0.107487,-2.563146 V 42.35231 q 0,-1.967834 -0.107487,-2.563146 -0.04134,-0.239778 -0.281119,-0.305924 -0.124023,-0.03307 -0.967381,-0.08268 l -0.08268,-0.08268 v -0.562249 l 0.08268,-0.07441 q 0.810285,0.04961 2.546609,0.04961 1.008722,0 1.637105,-0.02481 1.2485,-0.04961 1.86862,-0.04961 1.4304,0 2.10012,0.256315 0.90124,0.347265 1.20716,1.174086 0.14883,0.405142 0.14883,0.959113 0,2.248953 -2.53007,3.19153 0.41341,0.69453 0.87643,1.405596 l 1.2733,1.959566 q 1.12448,1.736325 1.49655,1.976103 0.19017,0.124023 0.529161,0.124023 l 0.0827,0.08268 z m -12.311375,-10.988455 -0.08268,0.07441 q -0.843358,0.04961 -0.967381,0.08268 -0.239778,0.06615 -0.281119,0.305924 -0.107487,0.60358 -0.107487,2.563146 v 6.151551 q 0,1.66191 -0.355533,2.58795 -0.405142,1.058331 -1.455205,1.976103 -1.149282,1.008722 -2.199345,1.008722 -0.347265,0 -0.677993,-0.124023 0.04134,-0.620116 0.04134,-1.529619 l 0.190169,-0.115755 q 0.669725,0.603579 1.182354,0.603579 0.711066,0 0.793748,-0.752407 0.107487,-0.975649 0.107487,-2.926948 v -6.879153 q 0,-1.959566 -0.107487,-2.563146 -0.04134,-0.239778 -0.281119,-0.305924 -0.05788,-0.01654 -1.15755,-0.08268 l -0.08268,-0.08268 v -0.562236 l 0.08268,-0.07441 q 1.141014,0.04961 2.728511,0.04961 1.80247,0 2.546609,-0.04961 l 0.08268,0.07441 z"
       transform="matrix(1.5,0,0,1.5,-50.448306,-27.677632)" />
    <path
       id="path2145"
       style="font-style:normal;font-variant:normal;font-weight:bold;font-stretch:normal;font-size:16.9333px;line-height:1.25;font-family:'Palatino Linotype';-inkscape-font-specification:'Palatino Linotype Bold';font-variant-ligatures:historical-ligatures;font-variant-caps:normal;font-variant-numeric:normal;font-variant-east-asian:normal;text-align:center;text-anchor:middle;fill:#000000;fill-opacity:1;stroke:none;stroke-width:0.265;stroke-miterlimit:4;stroke-dasharray:none;filter:url(#filter2069-5)"
       d="m 161.12641,71.481217 -0.0827,0.09095 q -0.9095,-0.05788 -1.53789,-0.05788 -0.57877,0 -1.68671,0.05788 l -0.0827,-0.08268 q 0.14882,-1.843811 0.14882,-2.844265 v -1.620571 q 0,-2.017444 -1.4552,-2.017444 -0.76068,0 -1.19062,0.520897 -0.36381,0.438215 -0.36381,0.884699 v 1.546156 q 0,2.141467 0.10749,2.629291 0.0661,0.289388 0.95911,0.305924 l 0.0827,0.08268 v 0.504361 l -0.0827,0.08268 q -0.70279,-0.04961 -2.10012,-0.04961 -1.48001,0 -2.25722,0.05788 l -0.0827,-0.08268 v -0.504361 l 0.0827,-0.08268 q 0.79374,-0.0248 0.98391,-0.124023 0.16537,-0.07441 0.1819,-0.396874 0.0579,-1.074868 0.0579,-2.306831 v -1.182355 q 0,-1.653642 -0.12402,-1.901689 -0.0827,-0.165364 -0.35554,-0.206705 -0.0992,-0.01654 -0.71933,-0.04134 l -0.0827,-0.08268 v -0.46302 l 0.0827,-0.09095 q 1.48828,-0.140559 3.13365,-0.686261 l 0.1819,0.107486 -0.0165,1.38906 1.42213,-1.190622 q 0.5457,-0.223242 1.19889,-0.223242 1.31465,0 1.96783,0.793748 0.52917,0.644921 0.52917,1.893421 0,0.14056 -0.0331,1.149282 -0.0331,1.008722 -0.0331,1.438669 0,1.2485 0.0413,1.595765 0.0413,0.338996 0.19016,0.429947 0.14883,0.09095 0.8599,0.107487 l 0.0744,0.08268 z m -10.66599,-4.06796 q 0,2.926947 -1.96784,3.960473 -0.95911,0.504361 -2.19107,0.504361 -1.90169,0 -2.90215,-1.099672 -0.99218,-1.099672 -0.99218,-3.150189 0,-2.835997 1.93476,-3.778573 0.95084,-0.46302 2.20761,-0.46302 2.63756,0 3.49746,1.827275 0.41341,0.87643 0.41341,2.199345 z m -2.2903,0.677993 q 0,-2.058785 -0.45475,-2.943484 -0.44648,-0.892967 -1.37252,-0.892967 -1.64538,0 -1.64538,2.968289 0,3.811646 1.84381,3.811646 1.14929,0 1.46348,-1.265037 0.16536,-0.661457 0.16536,-1.678447 z m -1.65364,4.067961 z m 0,-9.061962 z m -5.47356,4.316008 q 0,2.926947 -1.96783,3.960473 -0.95912,0.504361 -2.19108,0.504361 -1.90169,0 -2.90214,-1.099672 -0.99219,-1.099672 -0.99219,-3.150189 0,-2.835997 1.93476,-3.778573 0.95085,-0.46302 2.20762,-0.46302 2.63756,0 3.49745,1.827275 0.41341,0.87643 0.41341,2.199345 z m -2.29029,0.677993 q 0,-2.058785 -0.45476,-2.943484 -0.44648,-0.892967 -1.37252,-0.892967 -1.64537,0 -1.64537,2.968289 0,3.811646 1.84381,3.811646 1.14928,0 1.46347,-1.265037 0.16537,-0.661457 0.16537,-1.678447 z m -1.65365,4.067961 z m 0,-9.061962 z m -4.96919,8.987548 q 0,1.810738 -1.35599,2.885606 -1.34772,1.074868 -3.53053,1.074868 -1.71152,0 -2.71197,-0.644921 -0.99218,-0.636652 -0.99218,-1.719788 0,-0.727603 0.32246,-1.099672 0.0331,-0.04134 0.87643,-0.545702 0.40514,-0.239779 0.59531,-0.338997 -1.14102,-0.198437 -1.14102,-1.099673 0,-0.479556 0.33073,-0.975649 0.0248,-0.03307 0.44649,-0.330728 0.19843,-0.14056 0.70279,-0.504361 -1.78593,-0.644921 -1.78593,-2.389514 0,-1.347718 1.00872,-2.166271 1.00872,-0.826822 2.68717,-0.826822 1.62057,0 2.53834,0.719335 0.5209,0.0248 0.66973,0.01654 0.40514,-0.01654 1.22369,-0.04134 l 0.0992,0.09095 -0.0909,0.851626 -0.091,0.08268 h -1.22369 q 0.10748,0.396874 0.10748,0.810284 0,1.967835 -1.90995,2.68717 -0.8599,0.32246 -1.69499,0.32246 -0.28112,0 -0.7276,-0.04134 -0.5209,0.281119 -0.5209,0.735871 0,0.421679 0.60358,0.479556 0.34727,0.03307 1.15755,0.03307 0.25632,0 0.89297,-0.02481 0.63665,-0.0248 0.94257,-0.0248 1.86862,0 2.32337,0.826821 0.24805,0.446483 0.24805,1.15755 z m -3.39824,-5.779481 q 0,-2.08359 -1.39733,-2.08359 -1.37252,0 -1.37252,1.802471 0,2.133199 1.4304,2.133199 1.33945,0 1.33945,-1.85208 z m 1.50482,6.722057 q 0,-0.901235 -0.62839,-1.132745 -0.26458,-0.09922 -1.05833,-0.107487 l -1.57096,-0.01654 q -0.26458,0 -0.7276,0.01654 -1.13275,0.702798 -1.13275,1.612302 0,0.835089 0.66973,1.306377 0.66972,0.479557 1.7942,0.479557 1.20716,0 1.92649,-0.587043 0.72761,-0.578775 0.72761,-1.570961 z m -8.95448,-12.327905 q 0,0.529165 -0.37207,0.909503 -0.37207,0.37207 -0.89297,0.37207 -0.52916,0 -0.90123,-0.37207 -0.37207,-0.380338 -0.37207,-0.909503 0,-0.545702 0.37207,-0.917772 0.38034,-0.37207 0.90123,-0.37207 0.51263,0 0.8847,0.37207 0.38034,0.37207 0.38034,0.917772 z m 1.14101,10.790017 -0.0827,0.08268 q -0.78548,-0.05788 -2.26549,-0.05788 -1.48001,0 -2.25722,0.05788 l -0.0827,-0.08268 v -0.504361 l 0.0827,-0.08268 q 0.79375,-0.0248 0.98392,-0.124023 0.16536,-0.07441 0.1819,-0.396874 0.0579,-1.074868 0.0579,-2.306831 v -1.182355 q 0,-1.604033 -0.12402,-1.901689 -0.0661,-0.165364 -0.35553,-0.206705 -0.0992,-0.01654 -0.71934,-0.04134 l -0.0827,-0.08268 v -0.46302 l 0.0827,-0.09095 q 1.5875,-0.140559 3.1998,-0.686261 l 0.17363,0.107486 q -0.10748,1.504815 -0.10748,2.538342 v 2.63756 q 0,0.603579 0.0579,1.678447 0.0165,0.32246 0.1819,0.396874 0.19017,0.09922 0.98391,0.124023 l 0.0909,0.08268 z m -2.34817,0.669726 z m -3.69589,-5.399143 q 0,1.496546 -0.71107,2.58795 -0.30592,0.471288 -0.55397,0.661457 -0.24804,0.190169 -1.05006,0.752408 -0.17363,0.124023 -0.93431,0.661457 -0.39687,0.281119 -0.90123,0.388606 -0.3142,0.06615 -0.7028,0.06615 -0.97565,0 -2.07532,-0.686261 l -0.76895,0.620116 -0.37207,-0.132292 q 0.1571,-2.629291 0.1571,-4.58059 v -3.249407 q 0,-0.429947 -0.0413,-2.000908 -0.008,-0.438215 -0.0413,-0.78548 -0.0413,-0.429947 -0.43822,-0.504361 -0.0909,-0.01654 -0.68626,-0.04134 l -0.0827,-0.09095 v -0.454752 l 0.0827,-0.09095 q 1.57923,-0.165365 3.1998,-0.686262 l 0.1819,0.09922 q -0.10749,3.092312 -0.10749,4.787296 v 0.87643 l 1.00046,-0.835089 q 0.74413,-0.620116 1.71152,-0.620116 2.0009,0 2.76985,1.587497 0.3638,0.752407 0.3638,1.670179 z m -2.12493,0.92604 q 0,-1.215428 -0.56224,-1.94303 -0.55397,-0.727603 -1.49655,-0.727603 -0.5457,0 -1.05006,0.289387 -0.42168,0.239778 -0.61185,0.55397 v 3.902597 q 0.62012,0.917772 1.71152,0.917772 0.97565,0 1.50482,-0.843358 0.50436,-0.802017 0.50436,-2.149735 z m -7.73078,3.778573 -0.091,0.09095 q -0.69453,-0.04134 -1.59576,-0.04134 -0.7028,0 -1.34772,0.04134 l -0.0744,-0.09095 0.0744,-1.107941 -1.60404,1.223696 q -0.19017,0.140559 -0.5457,0.173632 -0.14056,0.01654 -0.33073,0.01654 -0.91777,0 -1.413861,-0.553971 -0.48783,-0.55397 -0.48783,-1.529619 0,-1.289841 0.81856,-1.827275 0.884701,-0.587043 3.563601,-1.058331 0,-1.314646 -0.69453,-1.76113 -0.42168,-0.272851 -1.00873,-0.272851 -0.64492,0 -1.01699,0.264583 l -0.31419,0.768944 -0.10748,0.05788 -0.421681,-0.09922 -0.0579,-0.115755 0.0413,-0.975649 q 1.364261,-1.008722 2.050521,-1.141014 0.28938,-0.05788 0.7524,-0.05788 1.62884,0 2.32337,0.851626 0.50436,0.620116 0.50436,1.901689 0,0.314192 -0.0248,1.008722 -0.0413,1.15755 -0.0413,1.546156 0,1.2485 0.0413,1.595765 0.0413,0.338996 0.19017,0.429947 0.15709,0.09095 0.73587,0.107487 l 0.0827,0.09095 z m -3.03443,-1.926494 v -2.03398 q -1.36426,0.297656 -1.84382,0.64492 -0.47128,0.338997 -0.47128,1.041795 0,1.124477 0.98391,1.124477 0.83509,0 1.33119,-0.777212 z m -0.66146,-6.440938 z m 0,9.061962 z m -3.282481,-11.691253 -0.0827,0.07441 q -0.38861,0.01654 -0.44649,0.0248 -0.27285,0.04961 -0.40514,0.190169 -0.13229,0.132292 -0.23151,0.413411 -0.19844,0.545702 -0.73587,2.447391 -0.27285,0.959112 -0.76894,2.877338 l -0.74414,2.860802 q -0.46302,1.769397 -0.5209,2.26549 h -1.26504 l -0.42168,-1.141014 Q 92.87229,67.653027 91.987591,65.420609 l -0.471288,-1.182354 q -0.157096,-0.405143 -0.32246,-0.859894 l -2.158004,5.118023 q -0.32246,0.760676 -0.901235,2.215881 l -0.363802,0.909504 h -1.207159 l -2.042248,-9.48364 q -0.157096,-0.727603 -0.23151,-0.950845 -0.165364,-0.520897 -0.471288,-0.587043 -0.14056,-0.03307 -0.644921,-0.06615 l -0.08268,-0.07441 v -0.520897 l 0.09095,-0.09095 q 1.463474,0.04961 2.215881,0.04961 0.892967,0 2.612756,-0.04961 l 0.09095,0.08268 v 0.529165 l -0.08268,0.07441 q -0.562239,0.02481 -0.636653,0.03307 -0.314192,0.03307 -0.41341,0.132292 -0.09922,0.09095 -0.09922,0.297655 0,0.190169 0.157096,1.033527 l 0.28112,1.513083 q 0.124023,0.653189 0.438215,2.108394 l 0.487824,2.240686 1.041795,-2.505269 q 0.314192,-0.744139 0.942577,-2.240685 l 0.975649,-2.364709 q 0.272851,-0.653189 0.429947,-1.083136 h 0.760675 q 0.843351,2.381245 3.141921,8.086312 l 1.46347,-5.862163 q 0.16537,-0.702798 0.16537,-0.87643 0,-0.37207 -0.38861,-0.429947 -0.14056,-0.02481 -0.8847,-0.07441 l -0.0827,-0.08268 v -0.520897 l 0.091,-0.09095 q 1.42213,0.05788 1.65364,0.04961 l 1.91823,-0.04961 0.0827,0.08268 z m -21.662718,6.407865 q 0,0.140559 -0.0083,0.421679 l -0.09095,0.115755 q -1.091404,0.297655 -2.893874,0.297655 -0.322461,0 -0.975649,0.01654 -0.653189,0.0083 -0.983918,0.0083 0.04961,1.215427 0.752408,2.009176 0.735871,0.851625 1.918225,0.851625 0.793748,0 1.885153,-0.545702 l 0.198437,0.239779 -0.363802,0.818553 q -1.207159,0.768943 -2.621023,0.768943 -1.860348,0 -2.893875,-1.050063 -1.025258,-1.050063 -1.025258,-2.993093 0,-2.306831 1.099672,-3.158457 1.521351,-1.174086 2.885607,-1.174086 1.48001,0 2.290295,0.851626 0.826821,0.87643 0.826821,2.521805 z m -2.158004,-0.214974 q 0,-2.232417 -1.38906,-2.232417 -1.463473,0 -1.463473,2.215881 v 0.1819 q 0.479556,0.07441 1.703252,0.07441 0.636652,0 1.141013,-0.07441 0.0083,-0.115755 0.0083,-0.165364 z m -1.000454,5.498362 z m 0,-9.061962 z m -4.886515,8.392236 -0.08268,0.08268 q -0.553971,-0.03307 -1.347719,-0.03307 -0.735871,0 -1.455206,0.03307 -0.46302,-0.843358 -2.240685,-2.802925 -0.934308,-1.033526 -1.190623,-1.215427 l 0.05788,2.827729 q 0.01654,0.32246 0.181901,0.396874 0.190169,0.09922 0.983917,0.124023 l 0.09095,0.08268 v 0.504361 l -0.08268,0.08268 q -0.785481,-0.05788 -2.265491,-0.05788 -1.48001,0 -2.257222,0.05788 l -0.08268,-0.08268 v -0.504361 l 0.08268,-0.08268 q 0.793749,-0.0248 0.983918,-0.124023 0.165364,-0.07441 0.1819,-0.396874 0.05788,-1.074868 0.05788,-3.762037 v -2.769851 q 0,-1.736325 -0.05788,-2.811193 -0.01654,-0.305924 -0.1819,-0.396874 -0.165365,-0.09922 -0.959113,-0.124023 l -0.08268,-0.09095 v -0.454752 l 0.08268,-0.09095 q 1.595765,-0.173633 3.199798,-0.686262 l 0.173633,0.09922 q 0,0.223242 -0.02481,0.818554 -0.08268,1.976102 -0.08268,4.373884 v 2.703706 l 0.818553,-0.669725 q 0.537434,-0.438216 1.504815,-1.463474 l 0.859894,-0.909504 q 0.239778,-0.256314 0.380338,-0.446483 0.702798,0.02481 1.141013,0.02481 0.55397,0 1.000454,-0.02481 l 0.08268,0.08268 v 0.496093 l -0.08268,0.08268 -0.60358,0.03307 q -0.363801,0.01654 -0.752407,0.289387 -0.148828,0.107487 -0.628384,0.496093 l -0.69453,0.570507 -0.248046,0.23151 -0.702799,0.628384 1.769398,2.067053 q 1.686715,1.967835 2.025712,2.133199 0.173633,0.08268 0.363802,0.08268 l 0.08268,0.09095 z m -10.558507,-0.0248 -0.09095,0.09095 q -0.69453,-0.04134 -1.595765,-0.04134 -0.702798,0 -1.347718,0.04134 l -0.07441,-0.09095 0.07441,-1.107941 -1.604034,1.223696 q -0.190169,0.140559 -0.545702,0.173632 -0.140559,0.01654 -0.330728,0.01654 -0.917772,0 -1.413865,-0.553971 -0.487824,-0.55397 -0.487824,-1.529619 0,-1.289841 0.818553,-1.827275 0.884699,-0.587043 3.5636,-1.058331 0,-1.314646 -0.69453,-1.76113 -0.421679,-0.272851 -1.008722,-0.272851 -0.644921,0 -1.01699,0.264583 l -0.314193,0.768944 -0.107486,0.05788 -0.421679,-0.09922 -0.05788,-0.115755 0.04134,-0.975649 q 1.364256,-1.008722 2.050517,-1.141014 0.289388,-0.05788 0.752408,-0.05788 1.628838,0 2.323367,0.851626 0.504361,0.620116 0.504361,1.901689 0,0.314192 -0.0248,1.008722 -0.04134,1.15755 -0.04134,1.546156 0,1.2485 0.04134,1.595765 0.04134,0.338996 0.190169,0.429947 0.157096,0.09095 0.735871,0.107487 l 0.08268,0.09095 z m -3.034434,-1.926494 v -2.03398 q -1.364256,0.297656 -1.843812,0.64492 -0.471288,0.338997 -0.471288,1.041795 0,1.124477 0.983917,1.124477 0.83509,0 1.331183,-0.777212 z M 55.58267,63.097253 Z m 0,9.061962 z m -5.010537,-3.406504 q -0.181901,1.207159 -0.181901,2.72851 l -0.08268,0.08268 -6.010991,-0.04961 q -1.504814,0 -2.12493,0.04961 l -0.08268,-0.08268 v -0.23151 l 0.04134,-0.09922 q 0.611847,-0.388606 0.661457,-0.487825 0.07441,-0.148828 0.09095,-1.099672 l 0.0248,-1.85208 V 63.51893 q 0,-1.967834 -0.107487,-2.563146 -0.04134,-0.239778 -0.281119,-0.305924 -0.124024,-0.03307 -0.967381,-0.08268 l -0.08268,-0.08268 v -0.562238 l 0.08268,-0.07441 q 0.851626,0.04961 2.497,0.04961 1.703252,0 2.587951,-0.04961 l 0.08268,0.07441 v 0.570506 l -0.08268,0.07441 q -0.843358,0.04961 -0.967381,0.08268 -0.239779,0.06615 -0.28112,0.305924 -0.107486,0.595312 -0.107486,2.563146 v 4.944392 q 0,1.083135 0.04134,2.100126 h 1.124477 q 2.414318,0 2.96002,-0.190169 0.09095,-0.03307 0.132291,-0.09095 0.08268,-0.115755 0.157096,-0.496092 l 0.198437,-1.025259 0.08268,-0.09095 h 0.504361 z" />
    <path
       id="path2159"
       style="font-style:normal;font-variant:normal;font-weight:bold;font-stretch:normal;font-size:16.9333px;line-height:1.25;font-family:'Palatino Linotype';-inkscape-font-specification:'Palatino Linotype Bold';font-variant-ligatures:historical-ligatures;font-variant-caps:normal;font-variant-numeric:normal;font-variant-east-asian:normal;text-align:center;text-anchor:middle;fill:#000000;fill-opacity:1;stroke:none;stroke-width:0.265;stroke-miterlimit:4;stroke-dasharray:none;filter:url(#filter2069-5)"
       d="m 130.63324,85.556072 q 0,2.926949 -1.96784,3.960469 -0.95911,0.50437 -2.19107,0.50437 -1.90169,0 -2.90214,-1.09968 -0.99219,-1.099669 -0.99219,-3.150186 0,-2.835997 1.93476,-3.778573 0.95085,-0.46302 2.20761,-0.46302 2.63756,0 3.49746,1.827275 0.41341,0.87643 0.41341,2.199345 z m -2.2903,0.677993 q 0,-2.058785 -0.45475,-2.943484 -0.44648,-0.892967 -1.37252,-0.892967 -1.64538,0 -1.64538,2.968289 0,3.811648 1.84382,3.811648 1.14928,0 1.46347,-1.26504 0.16536,-0.661456 0.16536,-1.678446 z m -1.65364,4.067956 z m 0,-9.061957 z m -6.40786,-2.397781 q 0,0.529165 -0.37207,0.909503 -0.37207,0.37207 -0.89297,0.37207 -0.52916,0 -0.90123,-0.37207 -0.37207,-0.380338 -0.37207,-0.909503 0,-0.545702 0.37207,-0.917772 0.38033,-0.37207 0.90123,-0.37207 0.51263,0 0.8847,0.37207 0.38034,0.37207 0.38034,0.917772 z m 1.14101,10.790018 -0.0827,0.0827 q -0.78548,-0.0579 -2.26549,-0.0579 -1.48001,0 -2.25722,0.0579 l -0.0827,-0.0827 v -0.50436 l 0.0827,-0.0827 q 0.79375,-0.0248 0.98391,-0.12403 0.16537,-0.0744 0.1819,-0.39687 0.0579,-1.074869 0.0579,-2.306832 v -1.182355 q 0,-1.604033 -0.12402,-1.901689 -0.0661,-0.165364 -0.35553,-0.206705 -0.0992,-0.01654 -0.71934,-0.04134 l -0.0827,-0.08268 v -0.46302 l 0.0827,-0.09095 q 1.5875,-0.140559 3.1998,-0.686261 l 0.17363,0.107486 q -0.10748,1.504815 -0.10748,2.538342 v 2.63756 q 0,0.603579 0.0579,1.678444 0.0165,0.32246 0.1819,0.39687 0.19017,0.0992 0.98392,0.12403 l 0.0909,0.0827 z m -2.34817,0.66972 z m -2.836,-8.63201 -0.0579,1.471742 q -0.008,0.363802 -0.0331,0.826822 l -0.34727,0.107486 q -0.3886,-0.562238 -1.07486,-0.562238 -0.62012,0 -1.02526,0.496093 -0.24805,0.305924 -0.24805,0.901235 v 1.934762 q 0,0.603579 0.0579,1.678448 0.0165,0.30592 0.17363,0.39687 0.1571,0.091 1.14928,0.12403 l 0.0827,0.0744 v 0.50436 l -0.0827,0.0827 q -1.21542,-0.0496 -2.41431,-0.0496 -1.48001,0 -2.25723,0.0579 l -0.0827,-0.0827 v -0.50436 l 0.0827,-0.0827 q 0.79375,-0.0248 0.98392,-0.12403 0.16537,-0.0744 0.1819,-0.39687 0.0579,-1.074869 0.0579,-2.306832 v -1.182355 q 0,-1.653642 -0.12402,-1.901689 -0.0827,-0.165364 -0.35554,-0.206705 -0.0992,-0.01654 -0.71933,-0.04134 l -0.0827,-0.08268 v -0.46302 l 0.0827,-0.09095 q 1.48828,-0.140559 3.13365,-0.686261 l 0.1819,0.107486 -0.0165,1.62057 q 0.51262,-0.595311 1.24023,-1.38906 0.33899,-0.330728 0.92604,-0.330728 0.34726,0 0.58704,0.09922 z m -6.96184,7.93748 -0.091,0.091 q -0.69453,-0.0413 -1.59576,-0.0413 -0.7028,0 -1.34772,0.0413 l -0.0744,-0.091 0.0744,-1.10794 -1.60403,1.2237 q -0.19017,0.14056 -0.5457,0.17363 -0.14056,0.0165 -0.33073,0.0165 -0.91777,0 -1.41387,-0.55397 -0.48782,-0.55397 -0.48782,-1.529621 0,-1.289841 0.81855,-1.827275 0.8847,-0.587043 3.5636,-1.058331 0,-1.314646 -0.69453,-1.76113 -0.42168,-0.272851 -1.00872,-0.272851 -0.64492,0 -1.01699,0.264583 l -0.31419,0.768944 -0.10749,0.05788 -0.42168,-0.09922 -0.0579,-0.115755 0.0413,-0.975649 q 1.36426,-1.008722 2.05052,-1.141014 0.28939,-0.05788 0.75241,-0.05788 1.62884,0 2.32337,0.851626 0.50436,0.620116 0.50436,1.901689 0,0.314192 -0.0248,1.008722 -0.0413,1.15755 -0.0413,1.546156 0,1.248506 0.0413,1.595766 0.0413,0.339 0.19017,0.42995 0.1571,0.091 0.73587,0.10748 l 0.0827,0.091 z m -3.03443,-1.926489 v -2.03398 q -1.36425,0.297656 -1.84381,0.64492 -0.47129,0.338997 -0.47129,1.041795 0,1.124474 0.98392,1.124474 0.83509,0 1.33118,-0.777209 z m -0.66146,-6.440938 z m 0,9.061957 z m -4.51444,-1.72805 q -0.0579,0.0661 -0.35553,0.34726 -0.48783,0.46302 -0.835091,0.84336 -0.40515,0.13229 -0.81856,0.13229 -1.14928,0 -1.67844,-0.66972 -0.22325,-0.28939 -0.29766,-0.66973 -0.0827,-0.45475 -0.0744,-1.190621 l 0.0248,-1.976103 v -2.067053 h -0.22324 l -0.43822,0.01654 h -0.33899 l -0.0909,-0.07441 V 83.05081 l 0.0661,-0.124023 q 0.14883,-0.09922 0.46302,-0.297656 0.37207,-0.23151 0.56224,-0.388606 v -1.124484 q 0,-0.702798 -0.0661,-1.488278 0.62011,-0.198437 1.00045,-0.347265 0.3886,-0.157096 1.0914,-0.504361 l 0.21498,0.165364 q -0.0992,1.025259 -0.14056,1.835543 l -0.0744,1.430401 h 0.27285 q 0.901241,0 1.554431,-0.05788 l 0.0909,0.09095 -0.11576,0.967381 -0.0827,0.08268 H 99.056939 V 86.0935 q 0,1.347719 0.0331,1.587497 0.0413,0.347274 0.28938,0.562244 0.25632,0.21497 0.686271,0.21497 0.33899,0 0.81855,-0.1819 z m -5.862161,1.05006 -0.0827,0.091 q -0.9095,-0.0579 -1.53788,-0.0579 -0.578778,0 -1.686718,0.0579 l -0.08268,-0.0827 q 0.148828,-1.843812 0.148828,-2.844266 v -1.620569 q 0,-2.017444 -1.455205,-2.017444 -0.760676,0 -1.190623,0.520897 -0.363801,0.438215 -0.363801,0.884699 v 1.546156 q 0,2.141467 0.107487,2.629287 0.06615,0.28939 0.959112,0.30593 l 0.08268,0.0827 v 0.50436 l -0.08268,0.0827 q -0.702798,-0.0496 -2.100126,-0.0496 -1.48001,0 -2.257222,0.0579 l -0.08268,-0.0827 v -0.50436 l 0.08268,-0.0827 q 0.793748,-0.0248 0.983917,-0.12403 0.165365,-0.0744 0.181901,-0.39687 0.05788,-1.074869 0.05788,-2.306832 v -1.182355 q 0,-1.653642 -0.124024,-1.901689 -0.08268,-0.165364 -0.355533,-0.206705 -0.09922,-0.01654 -0.719334,-0.04134 l -0.08268,-0.08268 V 82.3398 l 0.08268,-0.09095 q 1.488278,-0.140559 3.133652,-0.686261 l 0.181901,0.107486 -0.01654,1.38906 1.422132,-1.190622 q 0.545702,-0.223242 1.198891,-0.223242 1.314646,0 1.967835,0.793748 0.52916,0.644921 0.52916,1.893421 0,0.14056 -0.0331,1.149282 -0.0331,1.008722 -0.0331,1.438669 0,1.2485 0.0413,1.59576 0.0413,0.339 0.19017,0.42995 0.14883,0.091 0.85989,0.10748 l 0.0744,0.0827 z M 84.438733,83.546896 q 0,3.05097 -1.777666,4.787295 -1.728056,1.68672 -4.721149,1.68672 -2.827729,0 -4.440031,-1.5875 -1.612301,-1.595766 -1.612301,-4.431763 0,-3.977011 3.034434,-5.50663 1.380791,-0.69453 3.398235,-0.69453 2.885607,0 4.48964,1.513083 1.628838,1.537887 1.628838,4.233325 z m -2.54661,0.429947 q 0,-2.397782 -0.967381,-3.803378 -0.959112,-1.413864 -2.81946,-1.413864 -2.455659,0 -3.257676,2.207612 -0.413411,1.132746 -0.413411,2.538342 0,2.554878 0.942577,4.034888 0.975649,1.529618 2.918679,1.529618 2.35644,0 3.166725,-2.323367 0.429947,-1.231964 0.429947,-2.769851 z m -3.778573,6.325178 z m 0,-12.782652 z" />
    <path
       id="path2167"
       style="font-style:normal;font-variant:normal;font-weight:bold;font-stretch:normal;font-size:16.9333px;line-height:1.25;font-family:'Palatino Linotype';-inkscape-font-specification:'Palatino Linotype Bold';font-variant-ligatures:historical-ligatures;font-variant-caps:normal;font-variant-numeric:normal;font-variant-east-asian:normal;text-align:center;text-anchor:middle;fill:#000000;fill-opacity:1;stroke:none;stroke-width:0.265;stroke-miterlimit:4;stroke-dasharray:none;filter:url(#filter2069-5)"
       d="m 117.49091,107.25777 q 0,2.19108 -0.78548,3.62975 -0.82682,1.51308 -2.19107,2.40605 -1.4056,0.91777 -3.08405,0.91777 l -0.65318,-0.53743 0.19843,-0.32246 q 0.24805,0.0909 0.61185,0.0909 1.28984,0 2.25722,-0.95912 0.38861,-0.38033 0.71934,-1.02525 0.52916,-1.01699 0.7276,-2.96829 -1.23196,1.13274 -1.37252,1.14928 -0.54571,0.19844 -1.17409,0.19844 -1.09967,0 -1.7942,-0.81029 -0.74414,-0.86816 -0.74414,-2.37298 0,-2.41431 1.69498,-3.57186 0.80202,-0.54571 1.97611,-0.54571 2.21588,0 3.15019,2.05879 0.46301,1.01699 0.46301,2.66236 z m -2.158,-0.85162 q 0,-1.52962 -0.44648,-2.26549 -0.44649,-0.73587 -1.21543,-0.73587 -0.95084,0 -1.28984,1.03352 -0.1819,0.55397 -0.1819,1.30638 0,1.28157 0.47129,1.96784 0.44648,0.64492 1.20716,0.64492 0.97565,0 1.30637,-0.86817 0.14883,-0.39687 0.14883,-1.08313 z m -6.4492,3.44784 q 0,1.78594 -1.3808,3.05097 -1.41386,1.30638 -3.47265,1.30638 -0.88469,0 -1.90168,-0.38861 -0.0496,-0.47128 -0.52917,-2.3151 l 0.0496,-0.11575 0.39687,-0.14056 0.11576,0.0496 q 0.82682,1.90996 2.65409,1.90996 1.29811,0 1.82728,-1.13275 0.23978,-0.51263 0.23978,-1.19062 0,-1.10794 -0.59531,-1.74459 -0.59531,-0.64492 -1.64538,-0.64492 -0.94257,0 -1.89342,0.69453 l -0.32246,-0.18191 q 0.10749,-1.59576 0.10749,-2.60448 v -1.14102 q 0,-1.22369 -0.12403,-2.57141 l 0.10749,-0.0827 q 2.00091,0.091 3.36516,0.091 0.8847,0 2.51354,-0.091 l 0.0744,0.13229 q -0.0992,0.81855 -0.0992,1.18235 0,0.20671 0.0248,0.57051 l -0.0827,0.10749 q -1.01699,-0.0496 -2.43912,-0.0496 -1.71152,0 -2.4474,0.0661 l -0.0661,2.70371 q 1.20716,-0.57051 2.24068,-0.57051 1.51309,0 2.39779,0.84336 0.8847,0.84336 0.8847,2.25722 z m -8.3261,-2.59622 q 0,2.19108 -0.785481,3.62975 -0.82682,1.51308 -2.19107,2.40605 -1.4056,0.91777 -3.08405,0.91777 l -0.65318,-0.53743 0.19843,-0.32246 q 0.24805,0.0909 0.61185,0.0909 1.28984,0 2.25722,-0.95912 0.38861,-0.38033 0.71934,-1.02525 0.52916,-1.01699 0.7276,-2.96829 -1.23196,1.13274 -1.37252,1.14928 -0.54571,0.19844 -1.17409,0.19844 -1.09967,0 -1.7942,-0.81029 -0.74414,-0.86816 -0.74414,-2.37298 0,-2.41431 1.69498,-3.57186 0.80202,-0.54571 1.97611,-0.54571 2.21588,0 3.150191,2.05879 0.46301,1.01699 0.46301,2.66236 z m -2.158001,-0.85162 q 0,-1.52962 -0.44648,-2.26549 -0.44649,-0.73587 -1.21543,-0.73587 -0.95084,0 -1.28984,1.03352 -0.1819,0.55397 -0.1819,1.30638 0,1.28157 0.47129,1.96784 0.44648,0.64492 1.20716,0.64492 0.97565,0 1.30637,-0.86817 0.14883,-0.39687 0.14883,-1.08313 z m -6.399595,7.41658 -0.09095,0.0992 q -1.15755,-0.0744 -2.827729,-0.0744 -1.628837,0 -3.431308,0.0744 l -0.09095,-0.091 v -0.50436 l 0.09922,-0.0827 q 0.421679,-0.0496 0.818553,-0.0827 0.711067,-0.0579 0.909504,-0.14056 0.140559,-0.0662 0.239778,-0.30593 0.157096,-0.3886 0.157096,-3.14192 v -2.05878 q 0,-0.92604 -0.03307,-2.34817 l -0.01654,-0.62012 q 0,-0.41341 -0.173633,-0.41341 -0.07441,0 -0.487824,0.19017 -1.132745,0.5209 -1.94303,0.91777 l -0.09922,-0.0579 q -0.04961,-0.47129 -0.173632,-1.05006 l 0.0083,-0.0661 q 2.282027,-0.64492 5.101487,-1.72805 l 0.173633,0.12402 q -0.03307,0.48782 -0.09095,1.44694 -0.0248,0.3638 -0.04961,1.9513 l -0.02481,3.2494 q 0,3.48919 0.115755,3.7455 0.08268,0.19017 0.248047,0.23151 0.297655,0.0827 1.554424,0.14883 l 0.107487,0.0827 z"
       transform="matrix(1.1,0,0,1.1,-10.11736,-14.985211)" />
    <text
       xml:space="preserve"
       style="font-style:normal;font-variant:normal;font-weight:bold;font-stretch:normal;font-size:16.93333333px;line-height:1.25;font-family:'Palatino Linotype';-inkscape-font-specification:'Palatino Linotype Bold';font-variant-ligatures:historical-ligatures;font-variant-caps:normal;font-variant-numeric:normal;font-variant-east-asian:normal;fill:#000000;fill-opacity:1;stroke:none;stroke-width:0.265;filter:url(#filter2069);text-anchor:middle;text-align:center;stroke-miterlimit:4;stroke-dasharray:none;"
       x="109.847"
       y="190.5"
       id="text1985"><tspan
         sodipodi:role="line"
         id="tspan1983"
         x="73.327377"
         y="190.5"
         style="font-style:normal;font-variant:normal;font-weight:bold;font-stretch:normal;font-family:'Palatino Linotype';-inkscape-font-specification:'Palatino Linotype Bold';font-variant-ligatures:historical-ligatures;font-variant-caps:normal;font-variant-numeric:normal;font-variant-east-asian:normal;stroke-width:0.265;text-anchor:middle;text-align:center;stroke-miterlimit:4;stroke-dasharray:none;font-size:16.93333333px;">JRSF</tspan><tspan
         sodipodi:role="line"
         x="73.327377"
         y="203.72913"
         style="font-style:normal;font-variant:normal;font-weight:bold;font-stretch:normal;font-family:'Palatino Linotype';-inkscape-font-specification:'Palatino Linotype Bold';font-variant-ligatures:historical-ligatures;font-variant-caps:normal;font-variant-numeric:normal;font-variant-east-asian:normal;stroke-width:0.265;text-anchor:middle;text-align:center;stroke-miterlimit:4;stroke-dasharray:none;font-size:16.93333333px;"
         id="tspan1987">Lake Wabigoon</tspan><tspan
         sodipodi:role="line"
         x="73.327377"
         y="216.95825"
         style="font-style:normal;font-variant:normal;font-weight:bold;font-stretch:normal;font-family:'Palatino Linotype';-inkscape-font-specification:'Palatino Linotype Bold';font-variant-ligatures:historical-ligatures;font-variant-caps:normal;font-variant-numeric:normal;font-variant-east-asian:normal;stroke-width:0.265;text-anchor:middle;text-align:center;stroke-miterlimit:4;stroke-dasharray:none;font-size:16.93333333px;"
         id="tspan1989">Ontario</tspan><tspan
         sodipodi:role="line"
         x="73.327377"
         y="230.18738"
         style="font-style:normal;font-variant:normal;font-weight:bold;font-stretch:normal;font-family:'Palatino Linotype';-inkscape-font-specification:'Palatino Linotype Bold';font-variant-ligatures:historical-ligatures;font-variant-caps:normal;font-variant-numeric:normal;font-variant-east-asian:normal;stroke-width:0.265;text-anchor:middle;text-align:center;stroke-miterlimit:4;stroke-dasharray:none;font-size:16.93333333px;"
         id="tspan1991">1959</tspan></text>
  </g>
</svg>
