<?xml version="1.0" encoding="UTF-8" standalone="no"?>
<svg
   xmlns:dc="http://purl.org/dc/elements/1.1/"
   xmlns:cc="http://creativecommons.org/ns#"
   xmlns:rdf="http://www.w3.org/1999/02/22-rdf-syntax-ns#"
   xmlns:svg="http://www.w3.org/2000/svg"
   xmlns="http://www.w3.org/2000/svg"
   xmlns:sodipodi="http://sodipodi.sourceforge.net/DTD/sodipodi-0.dtd"
   xmlns:inkscape="http://www.inkscape.org/namespaces/inkscape"
   width="210mm"
   height="297mm"
   viewBox="0 0 210 297"
   version="1.1"
   id="svg8"
   sodipodi:docname="framed_fern.svg"
   inkscape:version="1.0.2-2 (e86c870879, 2021-01-15)">
  <defs
     id="defs2" />
  <sodipodi:namedview
     id="base"
     pagecolor="#ffffff"
     bordercolor="#666666"
     borderopacity="1.0"
     inkscape:pageopacity="0.0"
     inkscape:pageshadow="2"
     inkscape:zoom="0.24748737"
     inkscape:cx="-10.152136"
     inkscape:cy="649.84339"
     inkscape:document-units="mm"
     inkscape:current-layer="layer1"
     inkscape:document-rotation="0"
     showgrid="false"
     showguides="false"
     inkscape:window-width="995"
     inkscape:window-height="580"
     inkscape:window-x="41"
     inkscape:window-y="51"
     inkscape:window-maximized="0" />
  <metadata
     id="metadata5">
    <rdf:RDF>
      <cc:Work
         rdf:about="">
        <dc:format>image/svg+xml</dc:format>
        <dc:type
           rdf:resource="http://purl.org/dc/dcmitype/StillImage" />
        <dc:title></dc:title>
      </cc:Work>
    </rdf:RDF>
  </metadata>
  <g
     inkscape:label="Layer 1"
     inkscape:groupmode="layer"
     id="layer1">
    <path
       id="rect835-4"
       style="fill:none;fill-opacity:1;stroke:#000000;stroke-width:1.8897638;stroke-linecap:round;stroke-linejoin:round;stroke-miterlimit:4;stroke-dasharray:none"
       d="M 60.957031 198.09961 L 60.957031 861.07227 L 723.92969 861.07227 L 723.92969 198.09961 L 60.957031 198.09961 z M 77.193359 214.33789 L 707.69141 214.33789 L 707.69141 225.04883 C 706.74542 225.94777 705.01461 227.77313 703.53711 229.45508 C 699.55572 233.98738 696.7893 236.38587 692.13281 239.33789 C 689.96321 240.71332 688.08888 242.26006 687.9668 242.77539 C 687.83455 243.33382 687.09716 243.3249 686.14453 242.75391 C 684.98399 242.05826 683.93174 242.28281 682.30469 243.57617 C 680.62745 244.90942 679.76276 245.08206 678.86523 244.25781 C 677.94968 243.417 677.06905 243.65945 675.14648 245.28711 C 673.38481 246.77847 671.79767 247.29052 669.86523 246.99023 C 668.20277 246.73194 666.35957 247.17675 665.23633 248.10742 C 663.62731 249.44051 663.34183 249.44904 663.16797 248.1582 C 663.05708 247.33452 662.24675 246.4892 661.36914 246.28125 C 659.32498 245.79691 654.44723 248.53619 653.86719 250.49414 C 653.54128 251.59396 653.39786 251.439 653.33398 249.91211 C 653.28591 248.76548 652.95526 247.78163 652.59961 247.72656 C 652.24399 247.67126 651.24454 247.45752 650.37695 247.25195 C 649.50936 247.04639 647.53478 247.65852 645.99023 248.61133 C 643.26387 250.29324 643.18062 250.28848 643.13867 248.47266 C 643.10496 247.01476 642.45629 246.46923 640.19141 246 C 638.59338 245.66888 637.21344 245.70486 637.125 246.07812 C 637.03656 246.45118 636.43897 246.63214 635.79883 246.48047 C 635.15877 246.3288 634.09187 247.3837 633.42773 248.82422 C 632.22025 251.44336 632.22025 251.44262 631.16992 248.41406 C 629.88004 244.69467 627.49086 244.33191 622.51367 247.09961 C 619.10114 248.99723 619.10082 248.99662 618.68359 245.4375 C 618.45304 243.48 618.35826 241.39786 618.46484 240.80859 C 618.70178 239.5262 618.55401 239.47035 616.41797 240.04102 C 615.50657 240.28453 613.39974 240.69108 611.73633 240.94336 C 610.07288 241.19565 608.33821 242.02323 607.88281 242.7832 C 607.42727 243.54316 606.79316 243.90295 606.47266 243.58203 C 606.1523 243.26113 605.42281 244.0203 604.84961 245.26953 C 603.70755 247.75947 600.93766 247.88772 601.52148 245.42383 C 601.71583 244.60362 601.43909 243.22701 600.90625 242.36328 C 600.37345 241.49954 600.04583 240.33702 600.17773 239.78125 C 600.35979 239.01288 600.07805 238.93842 599.00391 239.4707 C 598.22695 239.85567 597.27897 240.03995 596.89648 239.87891 C 594.91775 239.04559 592.13928 240.24019 589.2832 243.15039 C 587.53026 244.93649 586.00817 246.76243 585.90234 247.20898 C 585.79652 247.65548 585.32884 247.9306 584.86328 247.82031 C 584.39791 247.71004 583.74672 248.76165 583.41602 250.1582 C 582.82323 252.66004 581.53509 253.26099 580.89453 251.33398 C 580.71421 250.79159 580.09616 250.5043 579.52148 250.69531 C 578.82087 250.92827 578.83644 250.34793 579.57031 248.93359 C 580.24715 247.62928 580.31631 246.74309 579.75195 246.60938 C 579.25041 246.49051 579.15949 246.07417 579.55078 245.68359 C 580.56899 244.66717 580.72141 238.71424 579.7207 239.04688 C 579.26115 239.19962 578.87241 238.28188 578.85352 237.00586 C 578.82536 234.88152 578.6746 234.76573 577.06641 235.65039 C 576.1004 236.18178 574.88886 236.51822 574.375 236.39648 C 573.86114 236.27472 573.02015 236.87924 572.50391 237.74023 C 571.98785 238.60126 571.20951 239.22202 570.77539 239.11914 C 570.34116 239.01626 569.75461 239.90638 569.47266 241.09766 C 569.1904 242.28893 568.68731 242.99057 568.35547 242.6582 C 567.73098 242.03268 564.61575 248.59561 561.62305 256.83984 C 560.67813 259.44296 559.61914 261.50472 559.26953 261.42188 C 558.91962 261.33897 558.53828 261.9096 558.42188 262.68945 C 558.30539 263.46936 557.63788 264.16868 556.9375 264.24219 C 556.17332 264.32246 555.98431 264.05582 556.46484 263.57617 C 556.90535 263.13647 557.19353 261.03971 557.10547 258.91797 C 557.01741 256.79623 557.20155 253.55974 557.51562 251.72461 C 558.16604 247.92212 557.44251 244.20236 555.56836 241.70703 C 554.37255 240.11483 554.04454 240.14224 550.86523 242.10352 C 548.985 243.26341 546.8785 245.40879 546.18359 246.87109 C 545.48911 248.33346 544.3676 249.95723 543.69141 250.48047 C 542.93841 251.06329 541.53463 255.32054 540.07422 261.46875 C 538.76091 266.98804 537.46227 271.44936 537.1875 271.38477 C 536.50375 271.22394 535.67673 266.78016 536.04297 265.23438 C 536.2067 264.54342 535.82039 263.623 535.18555 263.18945 C 534.55062 262.75604 534.24753 261.49095 534.51172 260.37695 C 534.77553 259.26296 534.61009 258.26068 534.14453 258.15039 C 533.67908 258.04012 533.43407 257.37993 533.59961 256.68164 C 533.76504 255.98336 533.32916 255.27484 532.63086 255.10938 C 531.92568 254.94226 531.53873 254.05765 531.76172 253.11719 C 531.98233 252.18615 531.78193 251.33294 531.31641 251.22266 C 530.85096 251.11239 530.61168 250.42489 530.78516 249.69336 C 531.13786 248.20472 529.70604 245.47892 528.41016 245.17188 C 527.94569 245.06179 527.58695 244.32344 527.61719 243.53125 C 527.70189 241.19597 522.24638 247.70783 521.14453 251.25781 C 520.16548 254.41213 519.62248 262.56105 520.0332 267.92578 C 520.1546 269.51537 520.00505 270.96875 519.70117 271.15625 C 518.50283 271.89545 517.64026 268.74182 517.71094 263.88281 C 517.7939 258.19203 516.85689 253.16008 515.66211 252.87695 C 515.23049 252.77474 514.97501 252.28835 515.0918 251.79492 C 515.20874 251.30146 514.41466 248.90329 513.32812 246.4668 C 511.13997 241.55998 510.69697 241.58062 506.95898 246.75586 C 505.34206 248.99459 504.28258 252.05446 502.86719 258.56445 C 501.49643 264.86938 500.57617 267.56454 499.61133 268.10938 C 498.53416 268.71769 498.44844 268.5875 499.17773 267.45508 C 499.67799 266.67764 499.87445 265.23449 499.61328 264.24805 C 499.35212 263.26161 499.39365 260.63534 499.70508 258.41211 C 500.51832 252.60818 500.47207 249.2787 499.57617 249.06641 C 499.14735 248.96482 498.92033 248.35615 499.07227 247.71484 C 499.22424 247.07359 498.89107 245.9403 498.33008 245.19531 C 497.76912 244.45031 497.22951 244.17255 497.13086 244.57812 C 497.03244 244.98374 495.52229 246.26259 493.77539 247.41992 C 492.02846 248.57721 490.5047 249.92522 490.38867 250.41602 C 490.27241 250.90661 489.79556 251.21771 489.33008 251.10742 C 488.8647 250.99715 488.32147 251.5937 488.12305 252.43164 C 487.92451 253.26957 487.26158 254.26358 486.65039 254.64062 C 486.03917 255.01765 485.14796 256.65529 484.66992 258.28125 C 484.19196 259.90722 483.59219 261.03061 483.33594 260.77734 C 482.51843 259.96865 480.69925 264.39289 479.61914 269.82227 C 479.04322 272.71528 478.22396 275.43113 477.79688 275.85742 C 477.36975 276.28376 476.42847 279.72064 475.70703 283.49609 C 474.98541 287.27152 473.95915 290.78653 473.42578 291.30664 C 472.77109 291.94499 472.63061 291.49468 472.99609 289.92188 C 473.29248 288.63998 473.15302 287.50091 472.6875 287.39062 C 472.22194 287.28035 471.94609 286.74695 472.07422 286.20508 C 472.44847 284.62564 471.04823 278.06233 470.29883 277.88477 C 469.92314 277.79573 469.7949 276.96228 470.01562 276.03125 C 470.23624 275.10022 470.03587 274.24701 469.57031 274.13672 C 469.10233 274.02646 468.90428 273.17517 469.125 272.24414 C 469.34561 271.31311 469.14517 270.46185 468.67969 270.35156 C 468.21167 270.24129 468.01365 269.38806 468.23438 268.45703 C 468.45499 267.52601 468.15995 266.75302 467.57812 266.73828 C 466.9963 266.72333 466.53176 266.00538 466.54688 265.14453 C 466.56196 264.28366 465.59814 261.88675 464.4043 259.81836 C 463.21042 257.74996 462.33376 255.63899 462.45508 255.12695 C 462.57636 254.61495 461.47878 254.99725 460.01758 255.97656 C 458.55645 256.95593 457.18173 258.51363 456.96289 259.4375 C 456.74398 260.36138 456.08109 261.27823 455.49023 261.47461 C 454.76691 261.71484 454.74323 261.28744 455.41406 260.16797 C 455.96209 259.25296 456.04605 258.41829 455.59961 258.3125 C 455.15317 258.20672 454.77293 257.14294 454.75781 255.94922 C 454.71087 252.40726 448.43399 250.1588 447.66406 253.4082 C 447.49859 254.10645 447.038 254.35285 446.64062 253.95508 C 446.2434 253.55711 445.73301 254.01608 445.50586 254.97461 C 445.27879 255.93314 444.79889 256.64769 444.43945 256.5625 C 443.74614 256.39822 440.18446 262.52403 438.95898 265.99023 C 438.5579 267.12432 437.84051 268.56458 437.36523 269.18945 C 436.88951 269.81418 435.87804 273.19402 435.11719 276.70117 C 434.35633 280.20828 432.78809 286.2739 431.63477 290.17969 C 430.48125 294.08548 429.16468 300.20966 428.70898 303.78906 C 428.25325 307.36853 427.47537 312.78935 426.97852 315.83594 C 425.90324 322.43126 425.10158 329.59467 425.19531 331.7793 C 425.24233 332.86843 424.92569 333.12281 424.16797 332.60547 C 423.56578 332.1944 422.92436 329.4303 422.74219 326.46289 C 422.5599 323.49549 422.14938 321.00581 421.82812 320.92969 C 421.50611 320.8537 421.49956 319.5529 421.8125 318.03906 C 422.12597 316.52537 422.00929 315.05693 421.55469 314.77539 C 421.10039 314.49388 421.03724 312.96161 421.41406 311.37109 C 421.79062 309.78057 421.76144 308.39882 421.34766 308.30078 C 420.93399 308.20276 420.66011 306.73103 420.74023 305.0293 C 420.82062 303.32756 420.42927 301.823 419.86914 301.6875 C 418.7227 301.40949 416.96975 296.17605 417.40625 294.33398 C 417.56272 293.67341 417.30935 293.04193 416.84375 292.93164 C 416.37838 292.82138 416.09339 292.32469 416.21094 291.82812 C 416.32859 291.33155 415.81019 289.499 415.05859 287.75586 C 414.30703 286.01273 413.69302 283.47348 413.69336 282.11133 C 413.69427 279.21305 411.10653 272.21364 409.64453 271.16016 C 408.19898 270.11848 406.10721 271.67067 404.13672 275.24805 C 402.25062 278.67263 398.31471 294.13609 399.0332 295.30078 C 399.28303 295.7064 399.39287 297.01587 399.27344 298.20898 C 399.15589 299.40216 399.09451 303.46596 399.14062 307.24023 C 399.18704 311.01449 398.97046 314.35621 398.66016 314.66602 C 398.35008 314.9758 398.34746 316.76309 398.65625 318.63867 C 399.33634 322.76542 399.40498 322.47031 397.86523 322.10547 C 396.98608 321.89718 396.80439 320.92161 397.27539 318.93359 C 397.67799 317.23495 397.5604 316.19394 396.98633 316.38477 C 396.43618 316.56772 396.23827 315.76944 396.5293 314.54102 C 396.8114 313.34976 396.66084 312.28607 396.19531 312.17578 C 395.72986 312.06551 395.53173 311.20151 395.75586 310.25586 C 395.97991 309.31017 395.67898 308.20375 395.08594 307.79883 C 394.49282 307.39394 393.92513 306.36784 393.82422 305.51758 C 393.52885 303.02324 392.17422 299.07479 391.92969 299.99023 C 391.72525 300.75232 390.76256 298.16434 389.93945 294.64453 C 389.76265 293.88864 388.84597 291.95652 387.9043 290.34961 C 386.22305 287.48102 383.90549 286.76882 382 288.53516 C 380.69455 289.74529 378.35732 301.10087 378.45898 305.73828 C 378.51322 308.2094 378.21255 313.77068 377.79102 318.0957 C 377.36945 322.42068 376.89992 327.33711 376.74609 329.02148 C 376.59264 330.70593 376.77389 332.73556 377.14844 333.5332 C 377.6733 334.65076 377.62116 334.7807 376.92188 334.09766 C 375.76636 332.96904 375.72151 333.23741 376.38867 337.29102 C 376.69066 339.12773 376.73502 341.48948 376.48633 342.53906 C 376.03581 344.44049 376.03133 344.4396 375.22852 342.41992 C 374.78537 341.30509 374.40952 339.31613 374.39062 338 C 374.37313 336.68387 374.01862 335.52615 373.60352 335.42773 C 373.18852 335.32941 373.02928 334.48772 373.25 333.55664 C 373.47069 332.62564 373.35382 331.79339 372.99023 331.70703 C 372.62634 331.62079 372.23076 329.75864 372.11133 327.56836 C 371.99197 325.37806 371.35004 322.62814 370.68359 321.45703 C 370.01704 320.28591 369.61646 318.7179 369.79297 317.97266 C 369.96959 317.22717 369.76911 316.73102 369.34766 316.87109 C 368.92624 317.01117 368.11838 315.89359 367.55273 314.38672 C 366.24207 310.89497 363.81054 308.30924 363.02734 309.57422 C 362.72094 310.069 361.77481 310.90202 360.92578 311.42578 C 360.07675 311.94956 359.52826 312.81763 359.70703 313.35547 C 359.88584 313.893 359.62751 314.23833 359.13281 314.12109 C 357.86059 313.81965 354.45137 331.41905 354.16602 339.76172 C 354.04091 343.41951 354.11622 350.03345 354.33203 354.45898 C 354.54784 358.88443 354.5866 364.11475 354.41992 366.08203 C 354.25287 368.04928 354.23163 370.00144 354.37109 370.42188 C 354.51018 370.84223 354.52285 372.26327 354.40039 373.57812 C 354.27793 374.8931 354.08365 375.41769 353.96875 374.74414 C 353.85397 374.07055 352.97671 372.98651 352.01758 372.33594 C 350.09629 371.03313 349.82628 366.92466 351.53516 364.99219 C 352.72537 363.64622 352.87048 360.01488 351.74414 359.74805 C 351.33561 359.65065 351.14192 358.95533 351.32031 358.20312 C 351.99791 355.34346 349.35571 336.94308 347.94727 334.71289 C 347.76468 334.42385 347.44622 332.53694 347.24023 330.52148 C 347.0341 328.506 346.34306 325.47789 345.70508 323.79102 C 344.53259 320.69081 343.59556 320.59138 341.43945 323.33789 C 340.07837 325.07167 337.71028 327.31265 336.84961 327.68164 C 336.42464 327.86386 335.70576 329.20008 335.25195 330.65234 C 334.79799 332.1046 334.1537 333.2305 333.82031 333.15234 C 333.17733 333.00189 330.18599 348.0877 330.60742 349.35547 C 330.74375 349.76554 330.46167 352.77426 329.97852 356.04102 C 329.49538 359.30789 329.36561 363.15085 329.69141 364.58008 C 330.01735 366.00938 329.94129 367.09745 329.52148 366.99805 C 328.61106 366.78231 329.27053 371.20802 330.52344 373.7168 C 331.19397 375.05917 331.14806 375.42789 330.33008 375.23438 C 329.5612 375.0522 329.42877 375.34367 329.875 376.24414 C 330.22004 376.94041 330.46134 377.80381 330.4082 378.16211 C 330.15159 379.93274 330.37995 383.93297 330.83398 385.63281 C 331.11444 386.68246 331.3389 387.74179 331.33398 387.98633 C 331.27499 390.71175 331.93694 399.65879 332.29297 400.94141 C 332.86497 403.00132 332.75701 403.52056 331.80469 403.29492 C 331.39566 403.19801 330.85889 401.8637 330.61133 400.33008 C 330.36377 398.79646 329.86837 397.47371 329.50977 397.38867 C 329.15118 397.30371 328.86152 396.12807 328.86719 394.77734 C 328.88191 391.15943 327.11519 384.29057 326.24414 384.58008 C 325.82984 384.7178 325.51216 383.57598 325.53711 382.04297 C 325.56363 380.43021 324.96678 378.92906 324.12305 378.48047 C 323.31111 378.04907 322.68517 376.55836 322.70898 375.11719 C 322.73241 373.69352 322.34953 372.66327 321.85938 372.82617 C 321.36924 372.98903 321.05795 372.74162 321.16797 372.27734 C 321.27797 371.8131 320.52255 369.91076 319.48828 368.05078 C 318.454 366.19088 317.67799 364.37342 317.76367 364.01172 C 317.8494 363.64975 317.58674 363.37211 317.18164 363.40234 C 316.7765 363.42922 315.17253 361.44044 313.61719 358.98242 C 312.0618 356.52433 310.45088 354.43383 310.03711 354.33594 C 309.32426 354.16699 307.73531 351.66075 304.70117 345.91992 C 303.95856 344.51488 302.38034 342.2587 301.19336 340.90625 C 299.0352 338.44733 299.03559 338.44815 297.04883 341.71289 C 295.95614 343.50842 294.9913 345.46272 294.9043 346.05664 C 294.81724 346.65046 294.42499 347.05955 294.0332 346.9668 C 292.4085 346.58185 293.00457 352.29134 295.75781 363.4668 C 298.56936 374.87863 300.20838 383.22257 299.8125 384.11719 C 299.70895 384.3511 300.81329 387.73228 302.26758 391.63086 C 303.72194 395.52952 304.56614 398.3719 304.14258 397.94727 C 303.34487 397.14824 303.46989 397.75224 305.03516 402.22656 C 305.48531 403.51326 305.80509 405.1176 305.74609 405.79297 C 305.68722 406.46833 306.07871 408.21057 306.61523 409.66406 C 307.1517 411.11763 307.55172 412.83296 307.50391 413.47461 C 307.4561 414.11626 307.54858 415.34508 307.70898 416.20508 C 307.86924 417.06507 308.02117 417.97447 308.04688 418.22656 C 308.27053 420.45588 308.79142 422.64787 309.39844 423.91016 C 309.79881 424.74241 309.97716 426.00243 309.79102 426.71094 C 308.86144 430.28047 312.96719 435.99393 319.06836 439.61914 C 323.75285 442.40254 323.81459 442.64816 320.05273 443.57422 C 318.14724 444.0433 316.51688 444.72953 316.42969 445.09766 C 316.19328 446.09541 308.56613 447.92874 307.80859 447.16992 C 307.44939 446.80977 307.43249 445.33738 307.77344 443.89844 C 308.40811 441.21981 306.49114 431.2662 305.28516 430.98047 C 304.91683 430.8932 304.75152 430.24742 304.91797 429.54492 C 305.08442 428.84242 304.43517 426.90862 303.47656 425.24805 C 300.54659 420.17233 299.73932 418.31607 299.58984 416.31836 C 299.51097 415.2638 299.09041 414.31569 298.65625 414.21289 C 298.22204 414.11001 297.9893 413.51117 298.13867 412.88086 C 298.28801 412.25059 297.70221 410.4808 296.83594 408.94922 C 295.9697 407.41775 295.33601 405.84796 295.42773 405.46094 C 295.51947 405.07376 294.19444 403.07074 292.48242 401.00977 C 290.77043 398.94886 289.28425 396.63879 289.18164 395.87695 C 289.00099 394.53685 282.06846 385.17563 280.42969 384.05859 C 279.98514 383.75555 279.04023 382.52625 278.32812 381.32617 C 277.61605 380.12598 274.95275 377.35835 272.41016 375.17578 C 267.83978 371.25225 267.77948 371.22822 267.21289 373.05078 C 265.50168 378.55428 265.26825 380.11037 265.85547 382.05078 C 266.2104 383.22383 266.40211 384.59386 266.2832 385.0957 C 266.16428 385.59762 267.03564 388.71466 268.21875 392.02148 C 269.40181 395.32838 270.26537 398.4766 270.13672 399.01953 C 270.00807 399.5625 270.49675 401.28867 271.22266 402.85547 C 271.94848 404.42235 272.10678 405.26957 271.57617 404.73828 C 270.35455 403.5147 272.17799 408.86412 273.61133 410.70898 C 274.1817 411.44304 274.34445 411.98581 273.97266 411.91211 C 272.54478 411.63382 280.67052 434.98066 282.12109 435.32422 C 282.5725 435.43114 282.78198 435.78308 282.58594 436.10547 C 281.94397 437.15977 284.78477 444.83917 288.03125 450.82617 C 289.53092 453.59188 289.60738 454.97587 288.24219 454.65234 C 287.7768 454.54206 287.508 453.97509 287.64648 453.39062 C 287.78499 452.80608 286.76545 450.85491 285.38086 449.05469 C 282.08236 444.76576 277.28885 436.74032 277.49805 435.85742 C 277.58858 435.47535 277.06621 435.02038 276.33789 434.84766 C 275.60956 434.67508 274.33419 433.18637 273.50391 431.53906 C 272.67363 429.89168 271.43181 428.62067 270.74414 428.71289 C 270.05643 428.80545 267.88353 427.02538 265.91406 424.75781 C 263.94458 422.49025 262.26426 420.92106 262.18164 421.26953 C 262.09904 421.61812 261.50641 421.15347 260.86328 420.23633 C 259.51574 418.31463 253.95104 414.13803 253.28516 414.54883 C 253.03885 414.70077 251.70062 413.58501 250.31055 412.06836 C 248.92045 410.55186 246.79667 409.0385 245.5918 408.70703 C 229.70003 404.33287 226.92065 403.80751 226.86328 405.16406 C 226.83113 405.92186 229.32883 409.15903 232.41406 412.35742 C 238.27254 418.43082 250.98104 435.48185 250.06836 436.04492 C 249.77866 436.22362 250.4657 437.26021 251.5957 438.34766 C 252.72566 439.43506 254.86161 443.59967 256.3418 447.60352 C 257.82203 451.6074 259.36263 454.96102 259.76562 455.05664 C 260.16905 455.15222 260.21582 455.51311 259.87109 455.85742 C 259.52633 456.20162 260.77448 459.15035 262.64453 462.41016 C 264.51458 465.67007 265.95666 468.46254 265.84766 468.61523 C 265.73851 468.76812 266.66485 470.09389 267.9082 471.5625 C 269.15147 473.03107 269.91971 474.38638 269.61523 474.57422 C 269.31076 474.76206 270.06658 476.27031 271.29297 477.92578 C 272.51935 479.58125 273.29713 481.40695 273.02148 481.98242 C 272.74576 482.55785 273.35069 483.90697 274.36719 484.98047 C 275.44395 486.11758 275.82672 487.17175 275.28516 487.50586 C 274.74364 487.83993 273.05752 486.07116 271.24414 483.26758 C 269.53208 480.62062 267.47455 478.4075 266.67383 478.35156 C 265.87318 478.2957 265.4278 477.79535 265.68359 477.23828 C 266.2812 475.93763 263.18893 470.17181 261.70508 469.82031 C 261.08378 469.6731 260.67283 469.14328 260.79102 468.64453 C 261.02009 467.67769 259.18482 464.30679 258.31836 464.10156 C 258.0335 464.03406 256.53228 462.36988 254.98047 460.4043 C 253.42873 458.43879 251.73759 456.73145 251.22266 456.60938 C 250.70755 456.48733 250.40986 455.86645 250.56055 455.23047 C 250.71124 454.59441 249.39049 452.27558 247.62695 450.07812 C 245.86342 447.88063 244.06319 445.18245 243.625 444.08008 C 243.18683 442.97782 242.45649 442.19843 242.00195 442.34961 C 241.5475 442.50064 240.62196 441.4292 239.94531 439.96875 C 239.26864 438.50845 238.65028 437.58291 238.57227 437.91211 C 238.49422 438.2415 237.65257 437.53284 236.70117 436.33594 C 235.707 435.08522 234.21067 434.17472 233.18359 434.20117 C 232.18806 434.22419 231.49633 433.8234 231.62109 433.29688 C 231.74424 432.77715 231.31351 432.22609 230.66406 432.07227 C 230.01466 431.91836 228.81072 430.63426 227.98828 429.21875 C 227.16584 427.80328 226.06622 426.53545 225.54297 426.4043 C 225.01999 426.27186 224.25308 425.48032 223.83984 424.64648 C 223.18514 423.3252 215.57815 418.29657 214.88477 418.72656 C 214.74332 418.81429 214.85535 420.25514 215.13477 421.92773 C 215.41424 423.60025 215.62052 425.25794 215.5918 425.61133 C 215.56322 425.96479 215.98507 427.06344 216.5293 428.05273 C 217.07336 429.04206 217.24285 429.78483 216.90625 429.70508 C 216.56963 429.62533 216.8205 430.85341 217.46289 432.43359 C 218.10524 434.01378 218.49625 435.87335 218.33203 436.56641 C 218.16783 437.25938 218.57476 438.19663 219.23633 438.64844 C 219.89827 439.1002 220.15581 439.75101 219.81055 440.0957 C 219.46531 440.44036 220.38611 442.45467 221.85547 444.57227 C 223.32481 446.68997 224.46641 448.72733 224.39648 449.09961 C 224.32524 449.47144 225.18518 451.40024 226.30664 453.38672 C 227.4281 455.3732 228.25741 457.26569 228.15234 457.59375 C 228.0457 457.92125 228.41695 459.08302 228.97852 460.17383 C 229.5398 461.26456 229.77862 462.29388 229.50781 462.46094 C 229.23687 462.62807 229.84731 463.81122 230.86523 465.0918 C 231.88305 466.3723 232.41563 467.3506 232.04883 467.26367 C 231.68204 467.17674 232.08067 468.07435 232.93359 469.25977 C 233.78647 470.44518 234.8068 471.49258 235.20117 471.58594 C 235.59534 471.67933 235.78262 472.32716 235.61719 473.02539 C 235.45173 473.7237 235.6235 474.36626 235.99805 474.45508 C 236.83033 474.65226 245.52857 488.32967 244.71094 488.1543 C 244.39103 488.086 244.60531 488.51797 245.1875 489.11328 C 245.76955 489.70863 246.00525 490.34397 245.71094 490.52539 C 245.41679 490.70692 243.85212 489.04986 242.23242 486.84375 C 240.61274 484.63768 239.05752 482.77702 238.77734 482.70898 C 238.28712 482.59008 233.02388 476.52413 232.38672 475.34375 C 232.2159 475.02725 230.37909 473.43501 228.30664 471.80664 C 226.23419 470.17834 223.42241 467.43394 222.05664 465.70703 C 220.69091 463.98001 219.32211 462.72118 219.01562 462.91016 C 218.70944 463.09906 217.1386 462.29347 215.52539 461.12109 C 210.57386 457.52268 206.62374 455.86837 206.17773 457.20508 C 205.96626 457.84023 205.60969 458.81956 205.38477 459.38086 C 205.16011 459.94219 205.21886 460.96156 205.51562 461.64648 C 205.81223 462.33133 205.77254 462.82383 205.42773 462.74219 C 205.08275 462.6604 205.50269 464.16802 206.35938 466.0918 C 207.21613 468.01561 207.60935 469.53004 207.23242 469.45898 C 206.85569 469.3871 207.37081 470.098 208.37695 471.03906 C 209.38317 471.98013 209.8798 472.68767 209.48047 472.61133 C 208.88067 472.49537 214.32008 483.94277 215.71875 485.74023 C 215.95328 486.04169 220.00925 492.18301 224.73242 499.38672 C 229.45557 506.59038 234.98422 514.46316 237.01953 516.88281 C 241.06783 521.69574 244.4135 526.97884 243.69531 527.42188 C 243.44468 527.57653 244.12149 529.06346 245.19727 530.72656 C 246.27307 532.38971 247.03742 534.23721 246.89648 534.83203 C 246.75555 535.42682 247.38988 536.56748 248.30664 537.36719 C 249.22335 538.16697 250.11241 539.20557 250.2832 539.67578 C 250.45389 540.14599 252.72263 541.41654 255.32422 542.49805 C 257.92581 543.57963 260.19489 544.69051 260.36523 544.9668 C 260.53569 545.24316 259.26482 545.69852 257.54297 545.98047 C 254.75987 546.43575 254.21689 546.27719 252.64062 544.54492 C 251.6654 543.4732 250.31094 542.65475 249.63086 542.72656 C 248.17486 542.88016 245.13558 540.37465 243.14844 537.38281 C 241.50491 534.90836 232.92689 524.68213 230.90039 522.78125 C 230.13677 522.06507 228.96227 520.68088 228.29102 519.70508 C 227.61967 518.72928 226.61239 517.82092 226.05078 517.6875 C 225.48917 517.55442 224.312 516.71329 223.43555 515.81641 C 221.2154 513.54457 216.66903 511.49814 216.39648 512.64844 C 216.27743 513.15119 215.20101 513.32996 214.00586 513.04688 C 212.23194 512.62655 212.00251 512.24999 212.75391 510.99609 C 213.2602 510.15137 213.46888 508.6921 213.21875 507.75391 C 212.81196 506.22792 201.80742 487.91573 199.52148 484.96094 C 198.01433 483.01286 193.43531 481.2346 192.70508 482.31445 C 191.19302 484.55065 189.74393 490.96805 190.16992 493.54297 C 190.76428 497.13537 191.06142 499.73828 191.0293 501.06641 C 191.01525 501.64762 191.68602 503.65561 192.51953 505.52734 C 193.35312 507.39919 193.9616 509.23558 193.87305 509.60938 C 193.72065 510.25254 197.63923 518.94324 198.61523 520.12695 C 198.86715 520.43245 199.94999 521.69445 201.02148 522.93164 C 202.09297 524.16883 204.40301 527.33157 206.1543 529.95898 C 211.43433 537.8805 216.28775 543.9627 217.60156 544.30664 C 217.95282 544.39845 218.9139 545.63324 219.73633 547.04883 C 220.55877 548.4643 221.74479 549.74209 222.37109 549.89062 C 222.9974 550.03901 223.70103 550.7088 223.93555 551.37891 C 224.45563 552.86573 230.93683 560.85948 231.78516 561.06055 C 232.11996 561.13984 232.41167 561.97935 232.43359 562.92578 C 232.49738 565.68261 236.86748 568.88662 242.25 570.12109 C 247.63973 571.35719 247.73368 572.22108 242.70898 574.36914 C 240.00145 575.52666 239.31655 575.49308 237.16992 574.08789 C 235.82252 573.20579 234.07504 572.33124 233.28711 572.14453 C 232.49917 571.95786 231.2724 571.31566 230.56055 570.7168 C 229.84872 570.11804 227.75676 568.35702 225.91211 566.80469 C 224.06744 565.25244 221.54955 563.14023 220.31836 562.11133 C 219.08719 561.08239 217.08125 559.05604 215.85938 557.60742 C 214.63757 556.15877 213.09927 554.84555 212.44141 554.68945 C 211.7836 554.53359 210.26469 553.61427 209.06641 552.64648 C 204.56487 549.01084 201.45407 546.88463 197.80859 544.95117 C 195.74222 543.8553 193.72922 542.30936 193.33594 541.51562 C 192.94261 540.72189 191.05819 538.8808 189.14844 537.42383 C 187.23868 535.96682 183.81174 533.30388 181.5332 531.50781 C 179.25467 529.71182 177.26642 528.37371 177.11523 528.5332 C 176.96392 528.69285 176.44443 527.82483 175.95898 526.60352 C 175.47348 525.38231 174.54524 524.25734 173.89648 524.10352 C 173.24773 523.94984 172.52822 523.26548 172.29688 522.58203 C 171.88486 521.36442 167.55166 517.90053 163.95703 515.91602 C 162.24769 514.97227 162.1045 515.13068 161.48047 518.63086 C 160.78586 522.52823 162.05593 529.2639 163.69727 530.38672 C 164.22609 530.74853 164.5529 531.49041 164.42383 532.03516 C 164.14215 533.22397 166.15287 536.75021 172.68359 546.51953 C 176.85677 552.7621 180.67513 557.20769 188.40039 564.82227 C 197.02198 573.3205 201.01372 577.01232 201.77734 577.19336 C 202.27952 577.31234 202.74985 577.72544 202.82227 578.11133 C 203.02507 579.19155 208.99112 584.26683 210.4707 584.61719 C 211.19312 584.78836 211.69825 585.28947 211.59375 585.73047 C 211.36555 586.69361 218.43422 592.76134 220.29883 593.20312 C 221.02185 593.37445 222.30704 594.74042 223.1543 596.23828 C 224.60974 598.81176 225.02058 599.00919 230.61914 599.84961 C 237.32067 600.85572 237.67868 602.04798 231.85938 603.98242 C 229.26021 604.84623 228.26768 604.77838 226.55273 603.61523 C 225.3928 602.82819 223.72701 602.23892 222.84961 602.30469 C 221.97225 602.37034 219.68751 601.62197 217.77344 600.64258 C 213.27604 598.34122 213.25107 598.32562 209.75195 595.67383 C 208.11553 594.43361 206.01133 593.12632 205.07617 592.76953 C 202.72237 591.87178 198.75669 589.74607 197.87891 588.91016 C 197.47772 588.52827 196.65192 588.01482 196.04297 587.76953 C 194.07015 586.97504 186.3953 581.44047 181.14648 577.02734 C 178.3308 574.65996 174.86847 572.29162 173.45312 571.76562 C 170.70859 570.74553 167.69674 568.46785 166.31641 566.36719 C 165.14638 564.58665 161.00604 562.53044 156.94531 561.71289 C 154.15245 561.15061 153.40565 561.34402 152.83203 562.7793 C 152.17742 564.41708 153.34135 568.57595 155.61523 572.72852 C 158.90319 578.73298 170.53933 594.82144 171.8125 595.12305 C 172.65047 595.32159 173.41898 596.10685 173.52148 596.86914 C 173.74129 598.50243 189.15999 611.15709 190.41992 610.73828 C 190.89401 610.58075 191.32318 610.84161 191.375 611.31836 C 191.42693 611.79522 192.3849 612.56637 193.50391 613.03125 C 194.62285 613.49621 197.06003 615.10145 198.91797 616.59766 C 200.77591 618.0939 203.66615 619.89812 205.3418 620.60742 C 207.01749 621.31665 208.31389 622.2108 208.22266 622.5957 C 208.13144 622.98065 209.33179 623.86101 210.88867 624.55273 C 213.96605 625.91998 214.21567 626.70893 211.93359 627.83984 C 210.23972 628.6792 204.72093 626.79618 199.63477 623.64258 C 194.36304 620.37393 186.52216 617.26161 179.58984 615.68555 C 176.02662 614.87544 168.78849 612.93616 163.50391 611.37695 C 150.71438 607.60079 150.2346 607.48658 139.80859 605.74414 C 127.99759 603.77017 127.50276 603.75062 126.91602 605.22656 C 126.2537 606.89262 128.53107 610.94968 131.35352 613.13281 C 132.60006 614.09689 134.20117 615.37966 134.91211 615.98242 C 135.623 616.58511 136.97279 617.26019 137.91016 617.48242 C 138.84752 617.70451 139.5224 618.26686 139.41211 618.73242 C 139.30185 619.19776 140.17674 619.80663 141.35547 620.08594 C 142.53421 620.36524 144.63885 621.42174 146.03125 622.43359 C 147.42368 623.44552 150.07791 624.91527 151.93164 625.69922 C 153.78537 626.48302 155.22449 627.45403 155.12891 627.85742 C 155.0333 628.26096 156.22826 629.15593 157.78516 629.84766 C 159.3421 630.53931 160.55445 631.36895 160.47852 631.68945 C 160.40256 632.00999 162.59342 633.37204 165.34766 634.7168 C 170.68355 637.32206 171.18813 637.52999 178.11719 639.99609 C 180.58058 640.87283 183.11901 642.04402 183.75781 642.59961 C 184.39661 643.1552 186.95131 644.369 189.43555 645.29688 C 195.45467 647.54475 206.29789 653.36061 206.0918 654.23047 C 206.00145 654.61175 205.13024 655.41479 204.15625 656.01562 C 202.69683 656.9158 201.58427 656.79789 197.83398 655.34375 C 190.93675 652.66928 185.24499 651.04036 161.36914 644.91016 C 149.31918 641.81627 138.16513 638.80422 136.58398 638.21484 C 131.32732 636.25535 104.49301 630.30807 104.3125 631.0625 C 104.1353 631.80351 106.3905 635.93734 107.05859 636.0957 C 107.60305 636.22474 108.53016 637.32372 110.58594 640.2832 C 111.09693 641.01889 111.92655 641.71808 112.43164 641.83789 C 112.93673 641.95751 113.93166 642.54962 114.64258 643.15234 C 117.65086 645.70284 120.25678 647.42708 129.76172 653.1582 C 135.28021 656.48562 140.05623 659.04614 140.375 658.84961 C 140.69373 658.65311 141.4965 658.97149 142.1582 659.55664 C 144.43667 661.57139 162.17407 668.78999 169.23828 670.57812 C 180.40347 673.4037 182.61661 674.07632 182.49219 674.60156 C 182.42815 674.8718 183.80138 675.44214 185.54297 675.87305 C 190.46945 677.08798 198.79016 681.26876 198.52344 682.39453 C 198.25729 683.51777 192.59826 683.34956 190.0918 682.14453 C 189.20907 681.72009 187.04651 680.85517 185.28711 680.2207 C 183.5277 679.58635 181.93498 678.66827 181.74805 678.17969 C 181.56103 677.69118 180.65428 677.07763 179.73242 676.81836 C 178.81065 676.55867 177.25499 675.93839 176.27734 675.43945 C 175.29966 674.94056 174.23937 674.79309 173.91992 675.11133 C 173.6007 675.42998 170.02616 674.98285 165.97656 674.11719 C 161.92693 673.25145 156.97722 672.45418 154.97656 672.3457 C 152.97606 672.23674 150.32053 671.81134 149.07617 671.40039 C 147.83181 670.98956 146.53368 670.93372 146.19141 671.27539 C 145.55748 671.90823 139.94896 670.28374 132.72461 667.37305 C 128.06979 665.49772 113.30639 662.12142 109.95508 662.16602 C 108.69345 662.18272 107.53282 662.73287 107.37695 663.39062 C 107.03705 664.82522 110.62522 669.12176 112.54297 669.57617 C 113.29209 669.75366 114.4802 670.41827 115.18359 671.05273 C 115.88698 671.68724 117.83628 673.19761 119.51562 674.41016 C 121.19493 675.62267 124.15302 677.97351 126.08789 679.63477 C 132.7627 685.36547 140.40413 689.58464 146.88867 691.12109 C 150.24001 691.91513 154.48506 693.53242 156.32227 694.71484 C 158.20278 695.92505 163.89808 698.06077 169.35547 699.59961 C 174.68725 701.10299 181.09858 703.22383 183.60156 704.31445 C 186.10447 705.40564 188.83062 706.2072 189.66016 706.0957 C 190.4958 705.98322 191.07025 706.311 190.94727 706.83008 C 190.82515 707.34549 192.0846 708.08825 193.74805 708.48242 C 196.16782 709.05578 196.64732 709.48139 196.14062 710.60742 C 194.72521 713.75237 190.48598 713.4452 164.71484 708.32617 C 157.46097 706.88534 151.02444 705.95432 150.41211 706.25781 C 149.73104 706.59532 147.16495 705.80685 143.80273 704.22852 C 140.77947 702.80927 136.16401 701.14699 133.54492 700.54102 C 130.92642 699.93217 127.89871 698.92645 126.81641 698.30664 C 124.44018 696.94563 108.66199 693.10656 107.75195 693.66797 C 106.4904 694.44625 108.51249 700.80277 110.14453 701.18945 C 111.02251 701.39748 111.6513 701.9485 111.54102 702.41406 C 111.43076 702.8794 111.87103 703.38561 112.51953 703.53906 C 113.16799 703.6927 113.78215 704.44132 113.88477 705.20312 C 113.98728 705.96489 114.84342 706.77197 115.78906 706.99609 C 116.7347 707.22014 117.41888 707.78451 117.30859 708.25 C 117.19833 708.71541 117.47882 709.18368 117.93164 709.29102 C 118.38442 709.39832 120.5486 710.87741 122.74023 712.57812 C 128.67119 717.18083 140.04577 724.33633 140.74609 723.9043 C 141.08261 723.69654 141.75253 724.01902 142.23633 724.62109 C 142.72012 725.22329 145.18677 726.31623 147.7168 727.05078 C 155.43967 729.29435 178.18891 734.56577 184.57812 735.5918 C 191.86021 736.76118 196.00033 738.31978 195.6582 739.76367 C 195.43682 740.69778 193.96168 740.9102 188.25391 740.83008 C 186.91748 740.81137 163.91194 737.29627 161.51172 736.74219 C 160.81242 736.58118 159.62087 736.51312 158.86523 736.58984 C 153.54352 737.12903 132.59507 732.22611 115.67188 726.48047 C 112.26126 725.32091 109.68991 725.31317 109.41797 726.46094 C 109.02608 728.1149 112.58756 733.94763 114.22656 734.33594 C 114.9405 734.50511 115.43451 735.02463 115.32422 735.49023 C 115.21395 735.95557 115.6943 736.47118 116.39258 736.63672 C 117.09086 736.80215 117.59554 737.22304 117.51367 737.57227 C 117.23379 738.77038 125.15214 744.9416 129.39258 746.83008 C 131.72467 747.86869 134.36321 749.46686 135.25586 750.38086 C 137.18303 752.35415 139.73612 753.56762 147.51172 756.20898 C 154.16837 758.47028 156.35626 758.9891 160.63086 759.31641 C 162.32099 759.44582 168.32475 760.42847 173.9707 761.5 C 179.61668 762.57161 186.25097 763.80472 188.71484 764.24023 C 191.85231 764.79484 193.24507 765.40185 193.36133 766.26562 C 193.79503 769.48873 187.20754 771.87754 180.66406 770.87109 C 178.77303 770.58007 176.76071 770.49695 176.19336 770.68555 C 175.08414 771.05783 172.34181 771.06281 165.83984 770.71094 C 163.58084 770.58867 160.50157 770.79619 158.99609 771.17188 C 156.59561 771.77089 149.5673 771.87602 149.0625 771.32031 C 148.96089 771.20851 147.70766 771.40594 146.27734 771.75781 C 144.84703 772.1098 140.38319 771.8678 136.35742 771.2207 C 116.60517 768.04556 114.5597 768.10534 117.45508 771.77148 C 118.40058 772.96869 119.54419 774.43817 119.99609 775.03711 C 120.44802 775.63598 121.04775 776.18115 121.33008 776.24805 C 121.6123 776.31494 123.70371 777.81782 125.97656 779.58789 C 128.24945 781.35784 131.80141 783.65505 133.87109 784.69336 C 138.5224 787.0268 157.63863 792.16765 160.37109 791.82031 C 165.30036 791.19336 168.96104 791.15563 171.73047 791.70117 C 173.37448 792.02523 178.41733 792.57781 182.93555 792.92969 C 191.04495 793.56079 193.47293 794.25603 193.09766 795.83984 C 192.74851 797.31341 182.40084 803.23241 180.82617 802.85938 C 179.97656 802.65793 177.90638 802.8155 176.22656 803.20898 C 172.73314 804.02725 167.09548 804.33265 156.23242 804.29297 C 152.05698 804.27747 146.99548 804.41958 144.98438 804.60742 C 141.80722 804.90393 133.36534 804.81571 129.37891 804.44531 C 127.54074 804.2744 117.66507 804.86871 114.86914 805.31836 C 109.5465 806.17661 108.70908 806.25269 106.01172 806.14648 C 104.45868 806.08537 100.28573 806.72832 96.736328 807.57422 C 93.186928 808.42008 89.850262 809.00993 89.322266 808.88672 C 88.79433 808.76313 87.977064 809.38419 87.507812 810.26758 C 86.363746 812.4207 86.432028 813.00604 87.886719 813.5625 C 99.715279 818.08512 112.12941 821.45902 116.42969 821.32031 C 118.15709 821.26453 124.74941 822.30093 131.08008 823.62305 C 143.22385 826.15945 147.25685 826.77385 150.93555 826.64648 C 152.17484 826.6034 154.36958 826.6845 155.81055 826.82812 C 157.2515 826.97171 159.41595 827.17215 160.62109 827.27344 C 161.82624 827.3748 164.97475 827.66392 167.61914 827.91602 C 170.26351 828.16811 173.17757 828.18235 174.09375 827.94727 C 175.46861 827.59422 175.67164 827.88672 175.25977 829.625 C 174.7307 831.85791 172.18614 832.63939 160.80078 834.0625 C 158.01416 834.41086 155.24591 834.91978 154.65039 835.19531 C 154.05491 835.47088 152.80238 835.66506 151.86719 835.625 C 150.93189 835.58531 149.54513 835.62974 148.78516 835.72461 C 147.23175 835.91888 140.0302 836.07457 138.00391 835.95703 C 137.27643 835.9147 136.05121 835.98673 135.2832 836.11523 C 134.51513 836.24438 131.64714 836.47054 128.9082 836.61719 C 126.16931 836.7641 123.27259 837.04981 122.4707 837.25391 C 121.6688 837.45724 119.62848 837.57736 117.9375 837.51953 C 110.57317 837.26725 97.076677 838.87741 96.814453 840.04102 C 96.624984 840.87771 98.704576 842.71256 102.03906 844.83789 L 77.193359 844.83789 L 77.193359 214.33789 z M 707.69141 230.99609 L 707.69141 844.83789 L 294.04688 844.83789 C 301.37545 840.97918 307.90717 836.54362 310.63867 833.49805 C 314.70785 828.96088 314.15023 827.81028 308.01562 828.07031 C 305.73098 828.16707 302.12272 828.09214 299.99805 827.9043 C 297.87338 827.71623 293.19386 828.23519 289.59766 829.05859 C 286.00154 829.88208 280.99559 830.49066 278.47266 830.41016 C 272.13985 830.20776 264.02653 828.76003 263.69922 827.77539 C 263.321 826.63756 268.7951 824.92132 282.77344 821.79297 C 292.29296 819.66249 296.31262 818.23415 302.29688 814.85352 C 306.44143 812.51221 311.92156 809.73852 314.47656 808.69141 C 319.31186 806.70984 320.67655 805.50881 320.40234 803.4707 C 320.18495 801.8553 315.15411 798.02497 314.33008 798.84766 C 313.9718 799.20558 313.37945 799.19984 313.01367 798.83398 C 311.95689 797.77526 301.54054 797.64143 298.42383 798.64648 C 296.86451 799.1492 295.38273 799.35366 295.13086 799.10156 C 294.87935 798.84958 293.3556 799.32692 291.74414 800.16016 C 290.13271 800.99335 287.78756 801.65744 286.5332 801.63477 C 285.27892 801.61587 281.83316 801.62809 278.875 801.66211 C 275.91681 801.69726 273.09396 801.71843 272.60352 801.71484 C 272.1131 801.70955 270.89316 801.76495 269.89258 801.83789 C 265.99718 802.12196 261.58241 801.37499 261.25 800.375 C 260.82534 799.09737 263.35543 798.06513 272.91016 795.62109 C 276.99894 794.57522 282.69456 792.49008 285.56641 790.98828 C 288.43825 789.48649 292.06819 787.97429 293.63281 787.62695 C 301.60074 785.85878 316.27236 773.98454 317.64453 768.19336 C 317.93668 766.96033 319.0998 765.44231 320.23047 764.82031 C 322.30766 763.67765 323.67344 761.0402 321.87891 761.63672 C 321.34541 761.81398 320.99804 761.58077 321.10742 761.11914 C 321.29233 760.33874 319.44807 758.87027 316.5957 757.5293 C 313.15898 755.91347 303.98963 752.66439 303.09375 752.74414 C 302.52725 752.79482 299.98333 752.56181 297.43945 752.22656 C 294.8956 751.89132 292.11734 751.81475 291.26758 752.05664 C 290.34497 752.31947 288.97119 751.98717 287.85547 751.23047 C 286.82784 750.53341 284.65666 749.90094 283.03125 749.82422 C 280.86372 749.72179 279.77898 749.20109 278.96094 747.875 C 277.9044 746.16227 277.93852 746.02866 279.61523 745.32227 C 281.43223 744.55676 289.48237 743.20783 297.11133 742.39062 C 299.47826 742.13698 302.88942 741.32301 304.69141 740.58203 C 306.49344 739.84105 310.23974 738.51778 313.01562 737.64062 C 320.65599 735.22619 324.51062 731.25257 322.19531 728.17773 C 320.79764 726.32172 310.86055 724.82693 307.85547 726.02148 C 306.59802 726.52152 304.15591 726.59701 302.42773 726.1875 C 300.69953 725.7792 298.1722 725.58881 296.8125 725.76758 C 294.72671 726.04159 286.43973 724.6641 282.87891 723.45117 C 282.31022 723.25743 282.02548 722.33531 282.24609 721.4043 C 282.55711 720.0917 283.21225 719.84658 285.16211 720.30859 C 287.76564 720.92549 294.65307 719.90987 303.71484 717.57227 C 306.59496 716.82932 312.01128 715.51074 315.75 714.64258 C 323.57033 712.82659 330.07034 709.4451 330.16797 707.14258 C 330.20809 706.1969 329.19787 705.10102 327.60352 704.36133 C 324.46635 702.90583 316.20091 701.46325 312.39062 701.70703 C 310.89295 701.80379 308.48044 701.80171 307.0293 701.70117 C 305.57814 701.60064 302.96927 701.57297 301.23242 701.64062 C 299.4956 701.70824 295.92772 701.49036 293.30273 701.15625 C 290.67771 700.82233 286.9417 700.55175 285.00195 700.55273 C 281.15648 700.55485 280.16152 700.02345 280.59375 698.19922 C 280.96623 696.62712 283.3336 696.08513 288.15625 696.46875 C 290.32777 696.64151 295.16934 696.13396 298.91602 695.33984 C 302.66274 694.54561 305.87672 693.92957 306.05859 693.97266 C 307.01327 694.19882 318.0696 690.2104 320.64844 688.70898 C 325.7586 685.73382 329.18774 680.68158 326.52539 680.05078 C 325.17909 679.73179 323.18608 676.89809 323.46875 675.70508 C 323.56894 675.28222 325.43248 674.50135 327.60938 673.9707 C 331.62413 672.99203 340.53554 667.80933 340.9082 666.23633 C 341.02019 665.7637 342.33821 663.90882 343.83789 662.11328 C 347.42549 657.81777 346.6695 656.86542 340.04297 657.33594 C 337.12895 657.54268 333.10024 657.56996 331.08984 657.39648 C 324.97796 656.8686 324.03912 656.90603 319.90039 657.85938 C 317.70508 658.36523 315.63117 658.63303 315.29102 658.45312 C 314.95081 658.27322 311.85957 658.11655 308.42188 658.09766 C 304.98418 658.08133 298.4034 657.41302 293.79883 656.61523 C 286.77782 655.3983 285.47379 654.96404 285.7207 653.92188 C 286.10968 652.28031 286.78719 652.11615 291.43164 652.53711 C 293.58738 652.73262 299.43548 652.63187 304.42773 652.3125 C 309.42004 651.99313 315.48053 651.88323 317.89453 652.07031 C 324.06139 652.54725 327.35774 652.43196 329.61133 651.66211 C 330.68123 651.29625 335.05121 651.17242 339.32227 651.38672 C 347.92545 651.81827 351.23575 651.41923 352.33008 649.81641 C 353.13364 648.63946 351.77446 647.46759 341.99414 640.90625 C 333.83618 635.43334 331.86886 634.62186 326.16992 634.36523 C 322.62976 634.20589 321.26406 633.85297 320.99023 633.0293 C 320.7853 632.41603 319.7692 631.92862 318.73047 631.95508 C 317.6916 631.97912 316.70961 631.60292 316.54883 631.11914 C 316.3881 630.63574 317.40034 630.51109 318.79688 630.8418 C 320.19342 631.17258 321.66027 631.11797 322.05859 630.7207 C 322.45665 630.32487 323.42832 630.14563 324.21875 630.31836 C 329.3615 631.46083 343.15527 626.57527 343.92188 623.33984 C 344.57124 620.59927 338.95574 617.73392 325.71094 614.04688 C 308.98635 609.3911 309.1957 609.46225 309.59961 608.5625 C 310.15564 607.32452 313.99526 607.56268 327.27148 609.6582 C 338.21883 611.38632 344.5282 611.44391 347.11914 609.83984 C 347.40725 609.66149 348.92057 609.21622 350.48242 608.84961 C 352.04427 608.48292 354.40426 607.53002 355.72656 606.73242 C 357.04883 605.93479 359.57343 605.0438 361.33594 604.75391 C 363.09833 604.46383 364.62899 603.85555 364.73633 603.40234 C 365.15355 601.64146 358.81263 598.86125 349.14648 596.56836 C 343.67709 595.27028 339.27446 593.90227 339.36328 593.52734 C 339.4521 593.1526 338.2912 592.53545 336.7832 592.15625 C 333.87175 591.4245 326.84309 587.9055 326.19531 586.85547 C 325.69182 586.03928 319.04619 585.96622 315.71875 586.74023 C 314.28778 587.0731 313.19834 587.00578 313.29688 586.58984 C 313.50174 585.7252 283.08122 578.94266 278.80078 578.89844 C 274.96197 578.85898 274.38083 576.77635 278.10156 576.39258 C 279.65127 576.23274 280.98115 575.83474 281.05859 575.50781 C 281.13601 575.18111 283.97271 575.47142 287.36133 576.15234 C 290.74999 576.83209 293.79763 577.12626 294.13477 576.80273 C 294.47179 576.47902 298.07 576.92771 302.13086 577.80078 C 306.19178 578.67381 310.6687 579.33334 312.07812 579.26758 C 313.48757 579.20197 318.04829 580.02153 322.21289 581.08789 C 326.37739 582.15451 333.13649 583.30759 337.23438 583.65039 C 341.33225 583.99304 344.99667 584.33558 345.375 584.41797 C 345.75371 584.49707 345.9081 584.09481 345.71875 583.52539 C 345.52947 582.95638 345.87223 582.68288 346.48047 582.91797 C 348.83122 583.82744 352.5501 584.28067 352.13477 583.60742 C 351.65099 582.8234 357.73373 581.99393 360.07031 582.5293 C 360.88665 582.71533 361.6414 582.50685 361.74609 582.06445 C 361.85094 581.62187 364.28233 581.54285 367.15039 581.88867 C 370.01833 582.23431 372.44502 582.18484 372.54102 581.7793 C 372.63702 581.37451 373.66629 581.26902 374.83008 581.54492 C 375.99387 581.82049 377.02711 581.70738 377.125 581.29492 C 377.22278 580.88341 379.07676 580.69516 381.24609 580.87695 C 383.81897 581.0931 385.2903 580.78462 385.47852 579.99023 C 385.65256 579.25497 386.60819 578.97108 387.88477 579.27344 C 389.0486 579.54912 390.09119 579.39322 390.20117 578.92773 C 390.31142 578.46225 390.9989 578.223 391.73047 578.39648 C 392.46196 578.56978 393.66719 578.35309 394.4082 577.91406 C 395.14914 577.47507 397.07944 576.42395 398.69727 575.57812 C 401.63883 574.04031 401.6394 574.041 396.67578 572.35352 C 390.12393 570.12613 366.65554 564.87349 364.77148 565.21289 C 363.85279 565.37836 363.38977 565.06474 363.55078 564.38477 C 363.69338 563.78288 364.6246 563.3921 365.61914 563.51758 C 371.492 564.25916 374.83199 564.28098 374.59766 563.57617 C 374.45063 563.13359 375.54664 563.09627 377.0332 563.49414 C 378.51992 563.89144 379.96521 563.84753 380.24414 563.39648 C 380.52337 562.94521 381.4097 562.92692 382.21289 563.35352 C 383.01604 563.77841 384.02615 563.77376 384.45898 563.3418 C 384.89159 562.91165 385.9851 562.73139 386.88867 562.94531 C 387.79221 563.15942 388.66649 562.76276 388.83203 562.06445 C 388.9975 561.36619 389.71769 560.93457 390.43164 561.10352 C 391.14563 561.27273 393.1164 560.53211 394.8125 559.45898 C 396.50856 558.38586 397.67283 557.45563 397.39844 557.39062 C 397.12431 557.32565 397.43262 556.87129 398.08398 556.38086 C 399.00124 555.69015 398.70433 555.13542 396.76562 553.91992 C 394.19003 552.30538 391.37653 551.31938 384.41211 549.5918 C 382.20641 549.04456 380.45528 548.37293 380.51953 548.10156 C 380.63356 547.61911 375.07252 545.67737 368.75391 543.99219 C 367.01975 543.52976 365.65778 542.91369 365.72656 542.62305 C 365.87971 541.97679 364.87837 541.66821 351.4375 538.21875 C 345.57296 536.71359 341.04057 535.21566 341.36523 534.89062 C 341.68997 534.56581 338.14224 533.66775 333.48242 532.89453 C 323.52852 531.24348 318.47263 529.93897 318.05273 528.91211 C 317.61109 527.83249 312.95029 527.08301 310.57812 527.71094 C 307.97706 528.39945 306.26772 525.97903 308.55469 524.8457 C 309.30912 524.47191 310.05729 524.3787 310.21875 524.64062 C 310.3802 524.90217 312.72138 525.05001 315.42188 524.96875 C 319.30493 524.85204 321.5294 525.29645 326.05273 527.0918 C 329.19848 528.34051 332.72748 529.57402 333.89453 529.83594 C 335.06196 530.09646 344.9342 532.56966 355.83398 535.33008 C 375.84186 540.39771 386.01017 542.45559 385.29297 541.29297 C 384.78319 540.46737 397.70576 540.48952 398.53125 541.31641 C 398.87795 541.66639 399.48508 541.67421 399.87891 541.33594 C 400.27288 540.99756 402.22901 540.32337 404.22656 539.83789 C 407.85865 538.95533 407.85849 538.95493 404.37305 536.12305 C 402.45603 534.56565 398.92869 532.33834 396.53516 531.17383 C 394.14166 530.00936 392.27031 528.69386 392.375 528.25195 C 392.47977 527.8096 391.55534 527.45962 390.32227 527.47852 C 389.0644 527.49541 388.16818 527.14287 388.2793 526.67383 C 388.38815 526.21439 387.81309 525.92555 387 526.03516 C 386.18699 526.14457 385.35694 525.7393 385.15625 525.13477 C 384.95525 524.53019 381.879 523.14087 378.32031 522.04492 C 374.76158 520.9492 371.22497 519.49985 370.46094 518.82422 C 369.69687 518.14859 368.11832 517.2841 366.95312 516.9043 C 365.78793 516.5243 364.91503 515.87185 365.01367 515.45508 C 365.11224 515.03907 364.03099 514.59662 362.61133 514.47266 C 361.19162 514.34903 360.31515 513.96377 360.66211 513.61719 C 361.80564 512.47554 386.07315 521.59526 389.14844 524.32227 C 390.02895 525.10312 394.58391 526.67628 399.36523 527.8457 C 406.201 529.52 408.34076 529.74415 409.66602 528.92773 C 411.19824 527.98384 411.07005 527.53999 408.13672 523.64844 C 406.3755 521.31171 404.55983 518.80904 404.10156 518.08594 C 403.64333 517.36276 402.66907 516.62856 401.9375 516.45508 C 401.20593 516.28175 400.69823 515.75853 400.80859 515.29297 C 400.91884 514.82763 400.42575 514.30957 399.71289 514.14062 C 398.99996 513.97172 398.33327 513.2091 398.23047 512.44727 C 398.12797 511.68554 397.51369 510.93665 396.86523 510.7832 C 396.21678 510.62957 395.1509 509.6357 394.49609 508.57422 C 393.84133 507.51274 391.65479 505.70054 389.63867 504.54688 C 387.62252 503.39314 386.0341 502.19626 386.10742 501.88672 C 386.31737 501.00068 390.6749 501.423 390.98633 502.35938 C 391.14004 502.82146 392.51286 503.49415 394.03711 503.85547 C 395.56139 504.21664 397.00049 504.82469 397.23633 505.20703 C 397.75333 506.0451 405.28004 511.10171 407.00781 511.77148 C 407.68329 512.03333 408.90346 512.8208 409.7207 513.52148 C 411.90489 515.39409 421.70128 517.10132 426.25977 516.4043 C 430.21572 515.79935 430.21567 515.79991 426.94336 512.44531 C 425.14359 510.60022 423.11174 508.95864 422.42969 508.79688 C 421.74752 508.63526 421.28026 508.12181 421.39062 507.65625 C 421.50087 507.19095 421.10463 506.69371 420.50977 506.55273 C 419.91498 506.41183 418.95746 505.37968 418.38086 504.25977 C 417.80429 503.13985 416.7976 502.09794 416.14453 501.94336 C 415.4915 501.78866 414.87429 501.03911 414.77148 500.27734 C 414.66898 499.51554 413.85086 498.71789 412.95508 498.50586 C 412.05922 498.29356 411.24343 497.49614 411.14062 496.73438 C 411.03812 495.97265 410.18005 495.16749 409.23438 494.94336 C 408.28877 494.71927 407.59509 494.19632 407.69336 493.78125 C 407.79174 493.36622 406.9774 492.56205 405.88281 491.99414 C 404.78826 491.42627 403.97286 490.6171 404.07227 490.19727 C 404.17167 489.77766 403.17147 488.91334 401.84766 488.27539 C 400.5238 487.63778 399.52333 486.76634 399.625 486.33789 C 399.72648 485.90952 399.14227 485.39657 398.32812 485.20117 C 397.5142 485.00528 395.89324 484.01722 394.72461 483.00586 C 393.55598 481.99453 392.0708 481.04332 391.42578 480.89062 C 390.78099 480.73778 390.34194 480.2354 390.45117 479.77539 C 390.56017 479.31542 389.19917 478.34105 387.42578 477.60938 C 385.65239 476.87789 384.37876 475.88423 384.5957 475.40234 C 384.81295 474.92045 382.33694 472.99945 379.0918 471.13281 C 375.84662 469.26622 373.57901 467.79941 374.05273 467.875 C 374.52691 467.94968 374.49511 467.58042 373.98242 467.05469 C 373.46973 466.52892 370.70765 465.45587 367.84375 464.66992 C 364.97981 463.88404 362.59481 462.86491 362.54492 462.4043 C 362.49533 461.94387 361.20814 461.01304 359.68359 460.33594 C 358.15908 459.65861 356.98786 458.78507 357.08008 458.39453 C 357.1726 458.00395 355.05261 456.89487 352.36914 455.92969 C 347.88598 454.31696 347.57633 454.0451 348.54688 452.58594 C 349.4834 451.17818 350.26219 451.16809 355.42578 452.5 C 358.62859 453.32613 362.61506 454.57841 364.28516 455.28125 C 365.95541 455.98337 367.4461 456.48568 367.59766 456.39648 C 367.7488 456.30721 368.62982 456.90506 369.55664 457.72461 C 370.48349 458.5442 372.239 459.62788 373.45703 460.13086 C 374.67498 460.63418 377.47438 461.926 379.67773 463.00195 C 381.88109 464.07787 384.60171 465.32515 385.72461 465.77344 C 391.56424 468.10488 399.86765 472.70387 401.1582 474.32227 C 401.54916 474.81251 404.87109 476.91811 408.54102 479.00195 C 412.2109 481.0858 416.95901 483.91509 419.0918 485.28906 C 424.7527 488.93638 437.6082 491.81096 441.07422 490.20508 C 443.59807 489.03581 443.5998 489.03581 439.26562 484.97656 C 436.88184 482.74396 435.02289 480.48105 435.13477 479.94727 C 435.2466 479.41345 433.74319 478.0641 431.79492 476.94922 C 429.84661 475.83437 428.36677 474.44135 428.50586 473.85352 C 428.64513 473.2658 427.86416 472.32186 426.76953 471.75391 C 425.6749 471.18607 424.84408 470.44537 424.92383 470.10938 C 425.00354 469.773 424.14912 468.708 423.02539 467.74414 C 420.66319 465.71778 418.06236 462.17249 419.12305 462.42383 C 419.51922 462.51771 421.47042 464.27936 423.45898 466.33984 C 425.44747 468.40033 427.46931 470.20145 427.95312 470.33789 C 428.43656 470.47637 430.15267 471.59314 431.76562 472.82031 C 434.80811 475.1352 437.71157 476.1263 441.16602 476.02539 C 443.17997 475.96654 443.17901 475.96602 442.05664 473.20508 C 441.43941 471.68662 441.02724 470.0529 441.14062 469.57422 C 441.25405 469.09554 440.63682 468.27769 439.76953 467.75781 C 438.90198 467.23794 438.4789 466.52854 438.82812 466.17969 C 439.1775 465.83091 438.76151 464.92379 437.90234 464.16406 C 437.04318 463.40434 436.5761 462.63542 436.86523 462.45703 C 437.3212 462.17572 434.63732 457.64872 428.29883 448.00586 C 427.36528 446.58563 426.14564 445.31392 425.58789 445.18164 C 425.03022 445.04951 424.48952 444.31844 424.38672 443.55664 C 424.28414 442.79484 423.82039 442.08302 423.35547 441.97266 C 422.89066 441.86252 421.6035 440.55206 420.49609 439.06055 C 419.38877 437.56899 417.91851 436.21443 417.22852 436.05078 C 416.53856 435.88728 416.24962 435.47776 416.58789 435.14062 C 416.92593 434.80319 416.30658 433.75098 415.21094 432.80273 C 414.11525 431.85449 412.69829 430.25126 412.0625 429.24023 C 411.42671 428.22917 410.33495 427.26711 409.63672 427.10156 C 408.93841 426.93613 408.44779 426.4657 408.54492 426.05664 C 408.64183 425.64762 407.60267 424.51235 406.23633 423.53516 C 404.86995 422.558 403.36521 421.14772 402.89258 420.40039 C 402.06543 419.09279 400.4496 418.29355 398.14844 418.05469 C 397.54882 417.99233 397.1523 417.54449 397.26758 417.05859 C 397.38274 416.57251 396.52508 415.94778 395.36133 415.67188 C 394.1975 415.39616 393.326 414.82624 393.42578 414.4043 C 393.52579 413.98201 392.7992 413.65506 391.81055 413.67773 C 390.82182 413.70052 390.10373 413.33653 390.21484 412.86719 C 390.32604 412.39781 389.56187 411.56836 388.51562 411.02539 C 387.46926 410.48254 386.5209 409.36484 386.41016 408.54102 C 386.23705 407.25446 386.63662 407.23986 389.24219 408.43555 C 390.91051 409.20113 392.91909 410.05052 393.70508 410.32227 C 394.49111 410.59379 395.33397 411.13955 395.57812 411.53516 C 395.82221 411.93065 396.89584 412.46162 397.96484 412.71484 C 400.29674 413.26737 409.79989 419.83577 417.86914 426.47266 C 418.70971 427.16401 419.98916 427.96313 420.71094 428.25 C 421.43279 428.5369 422.43679 429.3173 422.94336 429.98242 C 424.14185 431.55599 436.18948 441.42518 436.30664 440.92969 C 436.35604 440.72113 437.20046 441.40114 438.18359 442.43945 C 439.1668 443.47776 440.04393 444.02595 440.13086 443.6582 C 440.2179 443.2908 441.02885 444.11133 441.93359 445.48047 C 442.83837 446.84953 443.6523 447.65377 443.74414 447.26758 C 443.83561 446.88154 444.44101 447.29478 445.08984 448.1875 C 446.43127 450.03293 448.44138 451.48132 451.39062 452.72656 C 452.50793 453.1984 454.21326 453.96923 455.17969 454.44141 C 456.85976 455.26206 456.90618 455.18652 456.27148 452.68164 C 455.90646 451.24073 455.708 449.63094 455.83008 449.10547 C 455.95155 448.57989 455.59395 447.54415 455.03711 446.80469 C 454.48035 446.06515 454.27828 445.20962 454.58594 444.90234 C 454.89378 444.59507 454.68957 443.73751 454.13281 442.99805 C 453.57613 442.25854 453.22463 441.20813 453.35352 440.66406 C 453.4824 440.12 452.38669 437.89798 450.91797 435.72656 C 449.44917 433.55507 448.54871 431.83708 448.91797 431.90625 C 449.28681 431.97598 448.66825 430.82525 447.54297 429.34961 C 446.06699 427.41415 445.89189 426.75805 446.91406 426.99805 C 447.69351 427.1803 449.23841 428.5495 450.3457 430.04102 C 451.45307 431.53253 452.92284 432.88713 453.61328 433.05078 C 454.30373 433.2144 455.20701 434.03161 455.62109 434.86719 C 456.03518 435.70273 457.09075 436.55655 457.96484 436.76367 C 458.8389 436.97079 459.46842 437.49553 459.36523 437.92969 C 459.26239 438.3638 459.97658 439.17296 460.95117 439.72852 C 461.92584 440.28392 464.12459 441.8512 465.83789 443.21289 C 470.83669 447.18574 475.23587 449.09188 478.90039 448.87305 C 480.27119 448.79156 480.92232 448.57885 480.34961 448.40234 C 479.77724 448.22448 479.43766 447.53918 479.59375 446.88086 C 479.94075 445.41641 475.80789 438.31004 474.41797 437.98047 C 473.86654 437.84981 473.73233 437.54664 474.12109 437.30664 C 474.50963 437.06706 473.94071 435.93016 472.85742 434.7793 C 471.77417 433.62847 471.22256 432.76136 471.63086 432.85547 C 472.03928 432.94901 471.23455 431.34765 469.8418 429.29688 C 468.44904 427.24607 466.81245 425.45064 466.20508 425.30664 C 465.59786 425.16275 465.23151 424.49614 465.39062 423.82422 C 465.54982 423.15241 465.04549 421.88947 464.27148 421.01953 C 463.5008 420.14956 463.13697 419.27006 463.4707 419.06445 C 463.80428 418.8587 463.41483 418.10407 462.60352 417.38672 C 460.83337 415.82139 457.07394 409.87387 457.28711 408.97461 C 457.3703 408.6236 456.60747 407.60122 455.5918 406.70312 C 454.57594 405.80507 453.98153 404.92411 454.26953 404.74609 C 455.06943 404.25264 452.87658 400.69481 451.58398 400.38867 C 450.95825 400.24033 450.57437 399.57915 450.73047 398.91992 C 450.88668 398.26062 450.01691 396.96332 448.79688 396.03711 C 447.57684 395.11082 446.77897 394.1523 447.02539 393.90625 C 447.27174 393.66028 446.28097 392.63115 444.82227 391.61914 C 443.36352 390.60706 442.2376 389.48765 442.32227 389.13086 C 442.40678 388.77411 441.36173 387.58766 440 386.49609 C 438.6382 385.40453 436.55076 383.08086 435.35938 381.33203 C 434.16807 379.58317 432.81392 378.06349 432.34961 377.95312 C 431.88548 377.84314 431.8331 377.42587 432.23438 377.02539 C 433.34163 375.91999 436.45473 377.60274 442.39062 382.51758 C 445.34731 384.96565 448.07063 387.04122 448.44141 387.12891 C 448.81199 387.21674 450.63503 388.46882 452.49414 389.91211 C 454.35314 391.35562 456.24893 392.41366 456.70508 392.26172 C 457.16138 392.11008 457.87026 392.66469 458.28125 393.49414 C 458.69227 394.3236 459.46167 395.10304 459.99023 395.22852 C 460.51884 395.35373 462.52991 396.84667 464.45898 398.54492 C 466.38813 400.24291 468.02673 401.37299 468.10156 401.05664 C 468.17647 400.74045 468.77839 401.26654 469.4375 402.22461 C 470.09665 403.18272 471.40734 404.27757 472.34961 404.6582 C 473.29196 405.03907 474.54926 405.99854 475.14453 406.78906 C 475.75629 407.60147 477.27945 408.27194 478.64844 408.33203 C 479.98065 408.39042 481.99631 409.23344 483.12695 410.20508 C 484.25749 411.17736 485.23987 411.72827 485.31055 411.42969 C 485.38122 411.13141 486.16448 411.64616 487.05078 412.57422 C 489.36124 414.99357 492.52765 416.44971 500.15039 418.59766 C 504.91955 419.94147 507.73717 420.29972 509.91406 419.8418 C 512.97408 419.19799 512.97388 419.19812 510.46484 415.13086 C 509.08482 412.89387 507.51734 410.96098 506.98242 410.83398 C 506.44754 410.70726 505.92702 409.98048 505.82422 409.21875 C 505.72168 408.45695 505.20428 407.72288 504.67383 407.58984 C 502.93026 407.15191 501.70993 405.33356 502.57812 404.4668 C 503.20553 403.84045 503.72934 404.05367 504.56836 405.27344 C 506.45003 408.00861 516.15742 413.90021 520.46094 414.91992 C 522.67423 415.44407 524.53775 415.64618 524.60352 415.36914 C 524.99776 413.70528 520.85189 405.8546 518.46289 403.74219 C 517.60811 402.98602 517.20313 402.07346 517.56445 401.71289 C 517.92551 401.35247 517.20749 400.18567 515.96875 399.12109 C 514.72993 398.05648 513.7967 396.83992 513.89648 396.41797 C 513.99657 395.99572 513.29995 395.18399 512.34766 394.61328 C 511.39533 394.04246 510.12088 392.50557 509.51562 391.19922 C 508.91041 389.8929 507.87155 388.69629 507.20703 388.53906 C 506.54244 388.38161 506.08596 387.88728 506.19141 387.44141 C 506.29708 386.9955 504.87427 385.18709 503.0293 383.42383 C 501.18428 381.66053 498.7547 378.75667 497.63086 376.96875 C 495.21835 373.13087 492.87244 370.84888 490.81445 370.33203 C 487.66992 369.54547 482.95992 365.05581 482.92969 362.81641 C 482.91355 361.5983 482.19497 359.53246 481.33203 358.22656 C 480.46898 356.92074 479.99104 355.62306 480.27148 355.34375 C 480.55159 355.06403 480.04497 354.18259 479.14453 353.38477 C 478.2441 352.58696 477.29973 350.94447 477.04688 349.73438 C 476.60036 347.59999 476.66319 347.57585 479.13281 348.93164 C 482.13005 350.57704 491.28322 358.41191 493.23633 361.00391 C 495.97834 364.64272 501.14698 370.04625 501.61133 369.75977 C 501.87393 369.59778 502.91045 370.86268 503.91406 372.57031 C 504.91772 374.27798 506.07299 375.75443 506.48242 375.85156 C 506.8919 375.94855 508.29804 377.33582 509.60742 378.93359 C 510.91691 380.53116 512.06113 381.53723 512.14844 381.16797 C 512.23586 380.79882 513.02444 381.58357 513.90234 382.91211 C 514.78029 384.24054 515.91019 385.19049 516.41211 385.02344 C 516.91396 384.85657 517.82682 385.63465 518.44141 386.75195 C 519.056 387.86933 520.17638 388.93023 520.93164 389.10938 C 521.68698 389.28834 522.93918 390.11185 523.71289 390.93945 C 524.4866 391.76702 526.71052 393.37185 528.6543 394.50586 C 530.59807 395.63987 532.50499 396.92609 532.89258 397.36523 C 534.03978 398.66547 540.29875 401.0374 542.20703 400.89453 C 543.41845 400.80397 543.95992 400.20845 543.92969 398.99609 C 543.90724 398.0246 543.55379 397.15025 543.14258 397.05273 C 542.73227 396.95518 542.53223 396.29297 542.70117 395.58008 C 542.87008 394.86718 542.49177 393.92978 541.85938 393.49805 C 541.22691 393.06631 541.00026 392.42086 541.35742 392.06445 C 541.71444 391.70797 541.10013 390.80163 539.99023 390.04883 C 538.88041 389.29602 538.28167 388.3704 538.66016 387.99219 C 539.03894 387.61405 538.58569 386.65324 537.6543 385.85742 C 536.05756 384.49324 534.87917 382.92593 531.48047 377.65234 C 530.69104 376.42736 529.24725 374.94983 528.27148 374.36914 C 527.29595 373.78842 526.79871 373.01341 527.16797 372.64453 C 527.53825 372.27554 527.53427 371.89848 527.1582 371.80664 C 526.7821 371.71518 525.33923 369.9668 523.95312 367.91992 C 522.5671 365.87304 521.05106 364.10646 520.58398 363.99609 C 520.11721 363.88539 520.01298 363.51714 520.35352 363.17773 C 520.69375 362.83803 519.14551 360.56286 516.91211 358.12109 C 514.67871 355.67933 512.44062 353.05089 511.93945 352.28125 C 511.43821 351.51164 510.2722 350.08388 509.34766 349.10742 C 508.42311 348.13097 507.97235 347.02506 508.34766 346.65039 C 508.72296 346.27571 507.9588 345.24553 506.64844 344.36133 C 505.33808 343.47716 504.3381 342.45032 504.42578 342.08008 C 504.5135 341.70981 503.62777 340.46262 502.45898 339.30859 C 501.02881 337.89659 500.64403 336.90184 501.2793 336.26758 C 501.99824 335.55007 502.58567 335.64578 503.74609 336.67188 C 504.58409 337.41277 506.17021 338.23332 507.27148 338.49414 C 508.37276 338.75507 509.55526 339.396 509.89844 339.91797 C 510.24181 340.44008 512.41813 342.20692 514.73438 343.84375 C 517.05066 345.48051 519.96852 347.59629 521.21875 348.54492 C 522.46894 349.49348 524.0113 350.62298 524.64648 351.05469 C 525.2816 351.48654 526.90101 352.91861 528.24414 354.23828 C 530.55385 356.50774 535.51448 360.04707 538.39062 361.47656 C 539.11055 361.83437 540.31782 362.67763 541.07422 363.35156 C 542.76159 364.85495 545.24725 366.5694 546.34766 366.98828 C 546.79867 367.15987 548.58529 368.10594 550.31836 369.0918 C 553.85656 371.10424 559.74172 372.73378 559.96094 371.76172 C 560.20971 370.66902 558.27943 366.20503 556.06641 362.75391 C 554.89967 360.9344 554.02472 359.11348 554.12109 358.70703 C 554.2174 358.30054 553.44633 357.30798 552.4082 356.50195 C 551.37004 355.69593 550.61803 354.62864 550.73633 354.12891 C 550.8547 353.62921 549.90378 352.55181 548.62305 351.73438 C 547.34232 350.91697 546.55437 349.98849 546.87109 349.67188 C 547.18786 349.35562 546.55247 348.63482 545.46094 348.06836 C 544.36937 347.50204 543.60978 346.47456 543.77344 345.78516 C 543.93679 345.09575 543.31248 344.35206 542.38672 344.13281 C 541.46107 343.91346 540.06369 342.87782 539.28125 341.83203 C 538.49877 340.78621 537.0478 338.83312 536.05469 337.49219 C 535.06169 336.15129 533.74992 334.936 533.14062 334.79102 C 532.53129 334.64604 532.33462 334.2275 532.70312 333.85938 C 533.10103 333.46189 534.24449 333.71211 535.51562 334.47461 C 540.03753 337.18718 544.48591 340.27634 547.25195 342.62695 C 548.83455 343.97194 550.59419 345.18332 551.16406 345.31836 C 551.73386 345.45339 553.61391 346.71588 555.3418 348.12305 C 561.83359 353.41037 574.7353 359.33949 576.875 358.01953 C 577.72607 357.49448 575.40274 351.08648 574.25781 350.80078 C 573.76107 350.67698 572.32745 349.08592 571.07227 347.26562 C 569.81712 345.44537 567.99169 343.40467 567.01562 342.73047 C 566.04002 342.05645 565.56595 341.17931 565.96484 340.78125 C 566.36358 340.38301 565.89503 339.8693 564.92188 339.63867 C 563.94876 339.40812 563.07294 338.63332 562.97656 337.91797 C 562.88034 337.20269 561.7957 335.89149 560.56641 335.00391 C 559.33708 334.11629 558.41068 333.05552 558.50781 332.64648 C 558.60468 332.23769 557.73219 331.6781 556.56836 331.40234 C 555.40461 331.1266 554.51873 330.61527 554.59961 330.26562 C 554.68064 329.91607 553.15193 328.48376 551.20312 327.08398 C 547.54556 324.45694 543.82453 319.16195 544.28125 317.23438 C 544.42408 316.63156 543.87917 315.39534 543.07031 314.48633 C 541.72582 312.97547 542.01529 312.96575 546.44531 314.38867 C 549.11041 315.24473 552.16586 316.49985 553.23438 317.17773 C 554.30289 317.85566 555.74348 318.5645 556.43555 318.75586 C 560.4683 319.86256 571.43471 325.12476 575.29883 327.80664 C 582.76317 332.98727 589.08228 335.74185 592.6582 335.37305 C 594.20724 335.21325 595.5186 334.89662 595.57227 334.66992 C 595.62601 334.443 594.55957 332.71959 593.20117 330.8418 C 591.8427 328.96401 590.19112 326.59681 589.53125 325.58008 C 588.87142 324.56335 587.74801 323.59274 587.03516 323.42383 C 586.32222 323.25491 585.65554 322.4942 585.55273 321.73242 C 585.4502 320.97064 584.83599 320.222 584.1875 320.06836 C 583.53905 319.91471 583.13612 319.24725 583.29297 318.58594 C 583.44967 317.92468 582.52342 316.87478 581.23438 316.25391 C 579.94537 315.63307 578.13421 313.99688 577.20898 312.61719 C 576.28376 311.23755 574.72309 309.62699 573.74219 309.03906 C 572.14983 308.08457 570.41498 305.48194 570.60547 304.33398 C 570.64481 304.09704 574.07713 304.83992 578.23242 305.98242 C 583.33909 307.38633 587.37119 307.97872 590.67578 307.8125 C 593.36469 307.67719 596.36405 307.75513 597.33984 307.98633 C 598.3156 308.21753 599.20447 308.02608 599.31445 307.56055 C 599.42474 307.09517 600.46293 306.9385 601.62109 307.21289 C 602.98244 307.53545 605.13582 306.78216 607.71289 305.08203 C 609.90524 303.63571 612.17569 302.56604 612.75781 302.70312 C 613.3399 302.84027 613.90526 302.57096 614.01562 302.10547 C 614.12587 301.64006 614.70202 301.37469 615.29688 301.51562 C 615.89166 301.65656 617.19676 301.17544 618.19531 300.44727 C 619.92671 299.18474 619.89625 298.92882 617.53711 294.92773 C 616.17652 292.62017 614.67031 290.63885 614.19141 290.52539 C 613.7125 290.41192 613.12886 289.77171 612.89453 289.10156 C 612.40357 287.69794 610.40748 285.56699 607.71094 283.57227 C 604.71071 281.35288 607.64452 281.07091 615.16797 282.85352 C 621.99123 284.47023 630.7296 284.38639 631.12891 282.70117 C 631.46132 281.29818 626.52919 274.67861 624.85547 274.28125 C 622.45895 273.71229 623.72041 271.5148 626.375 271.63477 C 627.71273 271.69522 630.90592 272.22648 633.4707 272.81445 C 638.91557 274.0634 642.96123 274.26069 643.19141 273.28906 C 643.28079 272.91191 641.76081 271.69106 639.8125 270.57617 C 637.86423 269.46129 636.32858 268.30067 636.40039 267.99805 C 636.47213 267.6955 638.00485 267.58718 639.80859 267.75586 C 641.61234 267.92454 645.54801 267.74201 648.55273 267.35156 C 653.44881 266.71538 653.88586 266.49123 652.76758 265.18164 C 651.62159 263.83964 651.7738 263.6789 654.64258 263.21289 C 656.36064 262.93378 658.92214 262.69285 660.33398 262.67773 C 661.74579 262.66247 666.16467 260.98823 670.1543 258.95703 C 674.14389 256.92583 678.46134 255.06521 679.74805 254.82227 C 682.0364 254.39022 691.7682 249.07821 692.04297 248.11133 C 692.11928 247.84248 694.09557 246.33165 696.43555 244.75586 C 698.77553 243.18007 700.84215 241.25214 701.02734 240.4707 C 701.2125 239.68927 702.25702 238.55803 703.34961 237.95703 C 704.44235 237.35606 705.26296 236.31312 705.17188 235.63867 C 705.08117 234.96431 705.69806 233.63977 706.54297 232.69531 C 706.94816 232.24237 707.35267 231.6274 707.69141 230.99609 z "
       transform="scale(0.26458333)" />
  </g>
</svg>
