<?xml version="1.0" encoding="UTF-8" standalone="no"?>
<!-- Created with Inkscape (http://www.inkscape.org/) -->

<svg
   width="210mm"
   height="297mm"
   viewBox="0 0 210 297"
   version="1.1"
   id="svg2396"
   inkscape:version="1.1.2 (0a00cf5339, 2022-02-04)"
   sodipodi:docname="swordfern_20230413_165705743.svg"
   xmlns:inkscape="http://www.inkscape.org/namespaces/inkscape"
   xmlns:sodipodi="http://sodipodi.sourceforge.net/DTD/sodipodi-0.dtd"
   xmlns="http://www.w3.org/2000/svg"
   xmlns:svg="http://www.w3.org/2000/svg">
  <sodipodi:namedview
     id="namedview2398"
     pagecolor="#ffffff"
     bordercolor="#666666"
     borderopacity="1.0"
     inkscape:pageshadow="2"
     inkscape:pageopacity="0.0"
     inkscape:pagecheckerboard="0"
     inkscape:document-units="mm"
     showgrid="false"
     inkscape:zoom="0.28913703"
     inkscape:cx="12.104987"
     inkscape:cy="309.54181"
     inkscape:window-width="1128"
     inkscape:window-height="684"
     inkscape:window-x="0"
     inkscape:window-y="0"
     inkscape:window-maximized="1"
     inkscape:current-layer="layer1" />
  <defs
     id="defs2393" />
  <g
     inkscape:label="Layer 1"
     inkscape:groupmode="layer"
     id="layer1">
    <path
       style="fill:none;stroke:#000000;stroke-width:0.3;stroke-linecap:round;stroke-linejoin:round;stroke-miterlimit:4;stroke-dasharray:none;stroke-opacity:1"
       d="m 95.972271,277.12425 c 0.582941,-0.63295 1.142485,-1.40332 1.341743,-2.30222 0.19808,-0.46849 -0.01258,-1.09417 0.450267,-1.08885 0.32372,-0.84641 0.333276,-1.763 -0.198459,-2.5234 -0.06949,-0.31219 -0.698157,-1.32106 -0.43947,-1.31908 0.214601,0.43571 0.933984,1.8568 0.927199,0.56171 0.243292,-0.63637 -1.009787,-1.72707 -0.276989,-1.89725 0.635631,-0.0431 0.758488,1.88576 1.246225,0.68154 -0.02612,-0.91096 0.736672,-1.59866 0.306619,-2.53403 -0.04128,-0.43655 -0.457212,-1.41869 -0.293424,-1.53825 0.289797,0.24044 0.719791,1.75982 0.759244,0.69893 0.07626,-0.17369 -0.161351,-1.45308 0.12368,-0.84357 0.264454,0.70903 0.293724,0.009 0.384524,-0.39539 0.18431,-0.93707 0.42877,-1.85407 0.69208,-2.76867 0.15758,-0.93879 0.26595,-1.87494 0.009,-2.8163 -8.8e-4,-0.60792 -0.63808,-1.62582 -0.40147,-1.9117 0.33253,0.5809 0.59796,1.72637 1.25631,1.80168 0.26886,-0.99269 0.74265,-2.11552 0.14363,-3.08262 -0.51719,-0.37422 -0.0895,-1.90743 0.3283,-0.94514 -0.0643,0.42322 0.0653,1.83385 0.33336,0.7066 0.15533,-0.89173 -0.10382,-1.87399 0.39888,-2.68475 -0.11334,0.37647 -0.0676,1.20881 0.15922,0.3535 0.39765,-1.16732 0.33661,-2.44775 0.84616,-3.57768 0.25471,-0.69126 -0.28207,0.02 -0.54995,0.15851 -0.62379,0.47561 -1.42526,0.58788 -2.02914,1.0919 -0.24327,-0.54409 -0.83976,-0.62619 -1.31933,-0.33452 -0.820001,0.16028 -1.631212,0.68066 -2.475002,0.49975 0.103927,-0.12626 0.79396,-0.42316 0.0968,-0.37961 -0.816342,0.19876 -2.083816,0.86579 -2.733991,0.49486 -0.613377,-0.31981 -1.69325,0.50885 -2.525002,0.45086 -0.531824,0.17286 0.276585,-0.72486 -0.537486,-0.24298 -0.879328,0.1873 -1.767801,0.38305 -2.666132,0.43396 1.055882,-0.6985 -0.600678,0.0421 -1.086064,-0.0739 -0.762453,0.15717 -1.314556,-0.14966 -1.879793,-0.24079 -0.523006,-0.0308 -1.891706,0.63367 -1.482064,-0.23935 -0.994702,0.0361 -1.989911,0.30867 -2.990711,0.25096 1.058745,-0.68578 -0.81736,-0.59074 -1.276485,-0.63708 -0.446222,-0.15774 -0.612348,-0.64683 -1.269303,-0.45832 -0.446462,-0.0327 -1.412517,-0.0645 -0.655232,-0.4633 -0.424783,-0.30166 -1.755661,-0.26966 -1.71458,-0.73562 1.047358,-0.17978 -1.172797,-0.44458 -0.971618,-1.12575 -0.276431,-0.3269 -1.93333,-1.47187 -0.713728,-1.22438 0.848715,-0.0622 0.523652,-1.05634 1.489607,-0.88884 0.478904,-0.51756 1.326241,-0.397 1.684875,-0.88429 0.976102,0.23135 1.107517,-0.78405 2.063204,-0.71219 0.731709,-0.22826 1.317523,-0.62011 2.18296,-0.47728 0.691476,-0.75608 1.890533,-0.0488 2.657816,-0.73764 -0.134151,-0.46275 1.263072,0.0381 1.580582,-0.36249 0.602211,0.26056 0.301015,-0.63258 1.059413,-0.37365 0.763317,0.11431 1.471809,-0.13191 1.939748,-0.60343 0.774959,-0.0717 2.02273,-0.0697 2.180654,-0.63958 0.877423,-0.0895 1.677187,0.33075 2.361306,-0.32613 1.08008,0.26681 1.889144,-0.42768 2.91505,-0.55114 0.903495,0.0219 1.367495,-0.7908 0.573099,-1.34558 0.233089,0.15825 1.152124,0.59315 1.682274,0.20144 0.587801,-0.0807 1.262701,0.3022 1.139101,-0.61131 0.57785,0.55309 0.31611,-1.21066 0.89591,-1.23289 0.3254,-0.63602 0.63884,-1.77678 -0.24318,-1.69754 -0.8459,-0.057 -1.886731,0.24876 -2.620637,-0.0192 0.674138,-0.20845 -0.985987,-0.0256 -1.19823,-0.0516 -0.324984,0.0442 -2.127011,0.16961 -1.015017,-0.21248 -1.005853,-0.12187 -2.047609,0.0828 -3.068365,0.0452 1.206843,-0.49722 -0.739125,-0.2393 -1.194171,-0.27373 -0.687145,0.0577 -1.448695,0.20044 -0.584311,-0.37196 -0.394947,-0.0509 -1.026212,-0.003 -1.490773,-0.10025 -0.95441,-0.0734 -1.540182,-0.64654 -2.502566,-0.6898 -0.728457,-0.18795 0.648809,-0.18989 -0.115786,-0.40801 -0.636514,-0.23476 -1.519208,-0.33775 -1.323995,-0.90845 -0.417014,-0.11625 -1.746654,-0.97697 -0.760663,-0.79891 -0.342534,-0.50593 -0.877339,-0.68551 -0.800172,-1.09536 0.01547,-0.20457 -1.095774,-0.99531 -0.58221,-0.80155 0.736406,0.44995 1.473332,-0.0711 2.172656,-0.33913 0.58646,-0.20044 -0.785381,-0.85389 0.143805,-0.55947 0.632021,0.31611 0.995495,-0.21363 1.317332,-0.40799 0.534621,0.12463 0.935809,0.0123 0.944793,-0.23781 0.982303,0.0992 1.875583,-0.31053 2.836955,-0.41392 0.716882,-0.50947 1.806046,-0.11067 2.524723,-0.66826 1.072461,0.21935 1.777041,-0.63748 2.87043,-0.33608 0.843375,-0.37877 1.870536,0.0143 2.738194,-0.31965 0.726068,0.039 1.712838,0.32024 1.916588,-0.34718 0.77667,-0.0205 1.94358,0.52153 2.34126,-0.29894 0.38671,0.15637 0.96641,-0.79918 0.53756,-0.91849 -0.70363,-0.35624 -1.53569,-0.53495 -2.1418,-1.0177 -0.0605,-0.33797 -1.47409,-0.21398 -2.03121,-0.44521 -0.376696,-0.0581 -0.659602,0.004 -0.27195,-0.25882 -0.929832,-0.10511 -1.934828,0.32582 -2.86154,-0.0276 0.444228,-0.22659 -1.065353,-0.0629 -1.354443,-0.16057 -1.125117,-0.20777 -2.264537,-0.32775 -3.401228,-0.46111 -0.0286,-0.45517 -1.447465,-0.39767 -2.101254,-0.49691 -0.259595,-0.58921 -1.955438,-0.26414 -1.81217,-0.79053 -0.06693,-0.36558 -1.590353,-0.21555 -2.063833,-0.70912 0.181757,-0.13623 1.289364,0.13952 0.351085,-0.19512 -0.44085,-0.1446 -1.626382,-0.47527 -1.073034,-0.67764 -0.90211,-0.24038 -1.158521,-1.14484 -1.668238,-1.86884 -0.500901,-0.45416 -0.163461,-0.42341 0.347164,-0.46765 0.571217,-0.26573 1.128237,-0.60219 1.42323,-0.97765 0.507622,0.17797 1.244485,0.0516 0.84751,-0.54447 0.587508,0.27926 1.341805,0.34266 1.473616,-0.0737 0.916821,0.28892 1.856459,0.0793 2.766536,0.0442 0.538945,-0.33421 1.653484,0.4056 1.976071,-0.23538 0.80427,-0.25712 1.620141,0.51333 2.262831,-0.18923 0.827045,0.20104 1.563981,-0.0998 2.244309,-0.11595 0.914778,0.30444 1.839669,0.0234 2.725388,0.34711 0.92847,0.0324 2.14403,0.41741 2.89111,0.30022 0.64205,0.29444 0.16138,-0.71521 0.69455,-0.24066 0.55089,0.0378 1.3793,0.37968 1.75626,0.20699 -0.89992,-0.53468 -1.81063,-1.17786 -2.77679,-1.55089 -1.6673,-0.34196 -3.272246,-1.01035 -4.996896,-1.04038 -0.410598,0.0684 -0.463566,-0.26517 -0.08887,-0.24697 -1.799587,-0.0554 -3.619005,-0.0488 -5.393897,-0.37903 -0.504694,-0.15519 0.590688,-0.11347 -0.105689,-0.20112 -0.532794,-0.11392 -1.950818,-0.15291 -1.866562,-0.32667 0.64143,-0.26334 -0.938473,-0.23371 -1.159931,-0.3696 -0.455678,-0.10008 -0.906667,-0.22 -1.359853,-0.3306 0.353496,-0.0324 1.186871,-0.12229 0.324068,-0.17344 -0.496579,-0.0312 -1.946023,-0.31572 -1.49268,-0.60508 -0.295831,-0.27484 -1.615866,-0.26324 -1.440813,-0.55901 1.090526,0.0125 -0.892309,-0.57291 -1.136448,-0.89699 0.824051,-0.23756 -0.8774,-0.69301 -0.833668,-1.29363 -0.268513,-0.44892 -1.482911,-0.99337 -0.346562,-0.62658 0.652522,0.27528 1.149045,-0.42835 1.392458,-0.68898 0.694533,0.0126 1.047978,-0.6181 1.839716,-0.50585 0.06301,-0.92736 1.559489,0.34795 1.522987,-0.71003 0.892071,0.45603 1.679177,-0.11664 2.571939,0.17844 0.471732,-0.0258 0.479605,-0.51097 1.030336,-0.13425 0.72467,0.36478 0.819169,-0.48968 1.570694,0.0134 0.909871,0.37721 1.492889,-0.34995 2.401997,0.11326 0.702515,0.11045 1.118974,-0.39885 1.882537,1.3e-4 0.876735,-0.0245 1.690384,-0.17506 2.579814,0.15809 0.57573,-0.26274 1.40365,0.002 2.21528,0.18288 0.8496,0.002 1.80171,0.59977 2.60833,0.36706 0.0361,-0.54895 0.95577,0.30217 1.40983,0.10899 0.41871,0.44021 1.88047,0.26669 1.46551,-0.37943 -1.10322,-0.31286 -2.29323,-0.5797 -3.17962,-1.35244 -0.97322,-0.35252 -2.02635,-0.46263 -3.01728,-0.76422 -0.59972,-0.42303 -1.610835,-0.0857 -2.363436,-0.28287 0.89264,-0.426 -0.826668,-0.25847 -1.18456,-0.31101 -1.000943,0.11425 -1.901022,-0.32605 -2.89192,-0.26343 -0.717047,-0.12428 -1.392293,-0.23876 -2.283689,-0.22579 -0.634324,-0.0387 -0.1447,-0.40795 -0.887478,-0.17668 -0.947125,0.17176 -1.830037,-0.17703 -2.747915,-0.23782 -0.483363,0.0648 -0.708603,-0.21838 -0.126253,-0.31575 -0.738484,-0.22456 -1.770478,-0.20629 -1.968307,-0.7228 -0.762104,-0.0407 -1.111209,-0.76038 -1.745849,-1.0341 0.282582,-0.3376 -0.727547,-0.44392 -0.612138,-0.97977 -0.30135,-0.44934 -1.048228,-1.02059 0.0023,-0.85261 0.727713,-0.36602 1.247368,-0.9402 2.028655,-1.03927 0.274177,-0.49319 2.16805,0.07 1.243234,-0.68749 0.654971,0.0668 1.698848,0.49154 1.77076,-0.12602 0.449771,0.10954 1.332556,0.63714 1.361711,0.0973 0.549333,0.18872 2.071031,0.24447 1.171313,-0.20024 0.634851,-0.14026 2.000423,0.3414 2.18159,-0.26061 -0.730793,-0.64803 1.346673,0.25896 1.846577,0.0454 0.828372,0.15323 -0.204995,-0.52838 0.53887,-0.33377 0.801826,0.0951 1.636418,0.26076 2.125905,-0.0662 0.390472,-0.0665 1.568836,0.7375 1.27094,0.0362 0.770966,0.31917 1.679666,0.38928 2.487536,0.60371 0.57455,-0.11353 1.59223,0.0479 2.30172,0.005 -1.08459,-0.54601 0.95536,0.15464 1.30362,0.18448 0.6565,0.23153 1.31132,0.0565 1.62661,-0.53589 0.48643,0.19563 0.7683,-0.87814 -0.0287,-0.6929 -1.18307,-0.38845 -2.20999,-1.14417 -3.37982,-1.5392 0.99039,-0.11362 -0.72557,-0.48454 -1.01226,-0.48517 -0.96472,-0.26137 -1.80624,-0.82261 -2.83365,-0.90075 -1.097387,-0.38139 -2.283543,-0.35045 -3.382402,-0.69994 -0.96705,-0.33078 -2.095697,-0.0842 -3.043174,-0.24815 0.676674,-0.26314 -0.897,-0.13792 -1.134569,-0.1504 -0.86517,-9.9e-4 -1.657304,-0.29505 -2.545406,-0.23608 -0.538194,-0.0568 -0.324473,-0.59008 -1.035491,-0.39036 -0.905779,0.0619 -1.411561,-0.58207 -2.310174,-0.61343 -0.36723,-0.0876 -0.797711,-0.22319 -0.234861,-0.28065 -0.860221,-0.20828 -1.244234,-0.82081 -1.805692,-1.42185 -0.421703,-0.14961 -0.489767,-0.23622 -0.22575,-0.46732 -0.10912,-0.2956 -0.957075,-0.82254 -0.829716,-0.91111 0.549593,0.30763 1.910731,-0.055 1.787289,-0.55065 0.851777,-0.12605 1.564347,-0.50681 2.445225,-0.56709 -0.485121,-0.91931 1.57162,0.29003 1.572976,-0.61303 0.587228,0.27077 1.611396,0.12077 1.633075,-0.1325 0.409222,-0.0112 1.992343,0.55039 1.373244,-0.24656 0.804527,0.28934 1.788567,0.36671 2.452496,0.0275 0.51663,-0.008 1.834338,0.49581 1.520973,-0.18712 0.788933,-0.12101 1.794844,0.83607 2.305703,0.16659 0.666959,-0.002 1.957434,0.72062 2.280274,0.35239 0.18662,-0.3117 1.43003,0.57385 2.03556,0.54398 0.34095,-0.28718 1.53194,0.3736 2.21725,0.2927 0.41079,0.0497 0.92,0.12296 0.26366,-0.12322 -0.71836,-0.31539 -1.31173,-0.89349 -2.13756,-0.91743 -0.5805,-0.11732 -1.85333,-0.24935 -2.0382,-0.42785 0.93423,-0.14367 -1.07304,-0.22057 -1.41807,-0.25806 -1.043036,-0.1936 -2.126286,-0.20994 -3.155905,-0.42195 -0.653518,-0.26583 -1.860903,-0.0792 -2.718341,-0.26667 0.153166,-0.15866 0.729062,-0.29559 0.0081,-0.26377 -1.352494,-0.002 -2.669541,-0.40794 -4.02772,-0.34789 -0.566832,0.0216 -0.03028,-0.27786 -0.770342,-0.18586 -0.923681,0.0768 -1.602086,-0.38809 -2.483485,-0.49776 -0.417456,-0.36282 -1.45235,-0.40595 -1.666288,-0.6287 0.479276,-0.61379 -1.457418,-0.3394 -1.088299,-1.04173 -0.226295,-0.39891 -1.308879,-0.53444 -0.49622,-0.66712 -0.265306,-0.36163 -0.541712,-1.11247 -0.503723,-1.34254 0.879838,0.0301 1.537433,-0.55395 2.365517,-0.6646 0.744542,-0.12553 1.614228,-0.18106 2.258645,-0.39673 -0.393794,-0.57761 1.259643,0.48085 1.540202,-0.18715 0.489983,-0.13717 1.836928,0.52309 1.189983,-0.39139 0.783211,0.32436 1.637684,0.48593 2.175934,0.13011 0.461923,0.037 1.774003,0.38316 1.328663,-0.20246 0.752736,0.12787 1.85582,0.58545 2.448693,0.21659 -0.416638,-0.33568 -0.742052,-0.56491 0.0065,-0.25394 0.735086,0.28359 1.748833,0.5823 2.19582,0.21405 0.824417,0.32598 1.700431,0.14899 2.542121,0.28257 0.54849,0.0886 0.96806,0.43329 1.31339,0.14183 0.38336,0.17689 1.75261,0.67782 1.61828,0.12492 -0.82449,-0.55768 0.68692,0.31646 0.99789,0.15102 0.84287,0.14657 1.61894,-0.0165 2.29931,-0.2263 0.71263,-0.37717 -0.32238,-0.27608 -0.60461,-0.43471 -1.09637,-0.29949 -2.14739,-0.76014 -3.13684,-1.3025 -1.26026,-0.25399 -2.45197,-0.87782 -3.769023,-0.76527 -0.721267,-0.10422 -1.07452,-0.4653 -1.990324,-0.31832 -0.972047,0.0651 -1.64167,-0.30118 -2.531293,-0.26272 -0.651007,-0.005 -1.309601,-0.017 -1.942591,-0.1842 0.914095,-0.18469 -0.860509,-0.18616 -1.094647,-0.19641 -0.42016,0.001 -1.702332,0.0978 -0.922148,-0.26185 -0.819861,-0.0279 -1.895247,-0.0717 -2.322378,-0.35044 -0.613909,-0.10032 -1.576032,-0.0976 -1.570056,-0.48738 -0.279103,-0.21869 -1.883655,-0.18697 -1.096449,-0.56366 -0.80128,-0.31913 -1.347512,-0.92983 -1.9059,-1.53063 0.05172,-0.36529 -1.157992,-0.81513 -0.38647,-0.66872 0.704991,0.2236 1.120217,-0.32617 1.628439,-0.64243 0.851149,-0.0519 1.340645,-0.6754 2.246167,-0.6448 0.86673,-0.19882 1.734838,-0.29468 2.587622,-0.41094 0.03447,-0.50998 1.290712,0.12837 1.798526,-0.0377 0.65521,0.11088 -0.535427,-0.70151 0.269633,-0.31248 0.616535,0.19578 1.283095,0.36281 1.675855,-0.0136 0.776767,0.0614 1.742286,0.27695 2.185296,-0.0413 0.587109,0.0604 1.591811,0.46642 1.798032,-0.12325 0.718776,0.0569 1.651019,0.41564 2.230929,0.25765 -0.33982,-0.7232 1.33192,0.3615 1.71735,0.13183 0.35576,-0.22603 1.28453,0.3012 1.3909,-0.10813 -1.07042,-0.25206 -2.15998,-0.4758 -3.1657,-0.9202 -0.566854,-0.18977 -1.740193,-0.1207 -1.675301,-0.55107 -0.905524,-0.25144 -2.153924,-0.26704 -2.900913,-0.37849 0.585368,-0.0615 0.720849,-0.34854 0.04419,-0.18903 -0.608145,-9.3e-4 -1.566346,0.0898 -1.977376,-0.1865 0.573853,-0.31769 -0.91365,-0.0931 -1.165062,-0.17255 -0.491825,-0.0851 -1.532098,0.0351 -1.701861,-0.32463 0.403332,-0.1484 -1.020514,-0.14629 -1.285194,-0.26359 -0.792382,-0.079 -0.633136,-0.52616 -1.511958,-0.45492 -0.910202,-0.17106 -1.480168,-0.35006 -2.125206,-0.8951 -0.449898,-0.4191 -1.149543,-0.28827 -1.134336,-0.79433 -0.792566,-0.3937 -1.059825,-1.13294 -1.499637,-1.80662 -0.317141,-0.2835 -0.551403,-0.52836 0.0364,-0.38995 0.781305,0.16155 1.359295,-0.43493 2.118346,-0.49795 0.505628,-0.16084 1.000229,-0.21431 1.550563,-0.0821 -0.454834,-1.03623 0.988026,0.12334 1.389632,-0.43752 0.517064,-0.21311 2.063708,0.50564 1.731531,-0.32292 0.692719,0.17823 1.970177,0.79278 1.753714,0.0508 0.549798,0.20213 1.620187,0.95589 1.964548,0.51387 0.0076,-0.47939 1.239853,0.33869 1.701619,0.26401 0.745255,-0.35809 1.606434,0.13589 2.396776,0.29258 0.08672,-0.37019 -0.407152,-0.83565 0.235332,-0.40391 0.842727,0.58282 1.688021,0.5085 2.607221,0.63688 0.92273,0.34214 1.38485,0.0411 2.26719,0.298 0.91665,0.42232 1.73414,-0.11044 2.59456,0.44781 0.81411,0.25024 1.64742,0.28618 2.44567,0.40263 0.34908,-0.55057 -1.24253,-0.46015 -1.62197,-0.70565 -1.21943,-0.19414 -2.27293,-0.88003 -3.44879,-1.19949 1.02265,-0.33778 -0.92419,-0.58892 -1.23763,-0.90995 -0.76611,-0.89651 -1.97544,-0.72156 -3.018282,-0.89093 -0.98965,-0.37724 -2.067153,-0.35972 -3.088702,-0.57565 0.899592,-0.44872 -1.250932,-0.004 -1.64351,-0.34311 -0.406747,-0.12365 -0.985353,0.16915 -0.670123,-0.34677 -1.094797,0.0148 -2.18762,-0.0888 -3.267066,-0.29546 -0.528743,-0.0139 -1.269107,-0.10703 -0.682408,-0.41761 -0.836242,-0.20717 -1.705103,-0.08 -2.260759,-0.73486 -0.467737,-0.19539 -1.770234,-0.40608 -1.078513,-0.68058 -0.325669,-0.28697 -1.808293,-0.6619 -1.121302,-0.80323 -0.823613,-0.49523 -1.29229,-1.29494 -1.732148,-2.12881 -0.368664,-0.4541 -0.398857,-0.76525 0.241914,-0.45358 0.446138,-0.0345 1.521262,-0.38382 1.496984,-0.51242 -0.921277,-0.18958 -1.6258,-0.70036 -2.359581,-1.28097 -0.667069,-0.46085 0.804675,-0.12926 0.89257,-0.71015 0.724348,-0.47615 1.477772,-0.82665 2.281619,-1.08734 0.161993,-0.37156 1.380336,-0.32829 1.875386,-0.74352 0.64486,0.0535 0.904144,-0.67215 1.696098,-0.39452 0.674503,-0.40755 1.711451,-0.26094 2.32213,-0.62608 0.157041,-0.50008 1.585825,-0.0303 2.191995,-0.27157 0.884431,-0.0238 1.615456,-0.1385 2.463205,-0.19173 0.972916,0.21052 1.840782,-0.2924 2.791419,0.0159 0.249903,0.0739 1.175354,0.16572 0.719254,-0.2713 0.66989,-0.0246 1.72859,0.57521 2.16999,0.19707 0.41894,-0.27219 1.57843,0.36788 2.21431,0.25249 -0.1073,-0.58087 0.66632,0.29969 0.78393,-0.41785 0.42906,0.51876 0.87403,-0.12749 0.11432,-0.14421 -1.13053,-0.26609 -2.17467,-0.78007 -3.25993,-1.17144 -0.78317,-0.11402 -0.072,-0.11223 -0.0271,-0.37847 -0.8982,-0.49593 -2.05261,-0.54005 -2.915273,-1.14876 -0.839901,-0.31329 -1.931986,-0.20231 -2.652579,-0.63573 -0.849083,-0.14507 -1.830245,-0.0914 -2.617965,-0.0653 0.419382,-0.56928 -1.125234,-0.11323 -1.486851,-0.25988 -1.042382,0.0232 -1.972164,-0.48239 -3.016942,-0.43443 -0.882471,-0.2386 -1.808341,-0.28792 -2.70007,-0.46516 -0.08996,-0.59464 -1.462551,0.10952 -1.657798,-0.59102 -0.494431,-0.41517 -1.493245,0.27168 -1.270843,-0.57005 -0.841405,-0.0696 -1.551776,-0.60705 -2.134622,-1.14645 -0.603355,-0.40176 0.02142,-0.43397 -0.607843,-0.9237 -0.811601,-0.71292 1.082625,0.16205 1.372876,-0.58905 0.838439,-0.20083 1.666514,-0.37958 2.468062,-0.59322 0.895043,0.17427 1.689313,-0.21497 2.583716,-0.19176 0.409201,-0.64217 1.343003,0.10584 2.072401,-0.14374 0.261817,-0.49894 2.085802,0.70958 1.683958,-0.21753 0.02922,-0.16648 0.991149,0.47836 1.430375,0.25591 0.867264,0.006 1.714133,0.23577 2.614332,0.30631 0.876956,-0.32115 1.800697,0.073 2.744077,0.12178 0.121609,-0.50078 1.829102,0.89318 1.946059,0.21059 -0.675108,-0.53109 -1.187853,-0.9587 -2.126299,-1.05655 -0.965711,-0.43097 -2.034434,-0.43022 -3.030794,-0.73336 -1.771883,-0.53337 -3.676412,-0.45359 -5.452353,-0.97438 -0.752777,-0.61416 -1.870522,-0.17591 -2.623558,-0.74974 -0.875726,-0.0594 -1.814683,-0.18088 -2.500681,-0.70355 -0.406562,-0.0428 -1.887473,-0.5353 -1.557621,-0.63923 -0.395731,-0.51494 -1.644392,-0.68881 -1.475874,-1.24238 -0.870753,-0.44062 -1.155139,-1.40268 -1.835892,-2.05151 -0.368038,-0.25993 -0.836375,-0.56228 -0.06883,-0.38733 -0.184381,-0.3485 -0.572415,-1.42362 -0.570057,-1.45626 0.38543,0.48539 1.875336,0.34144 0.796096,-0.22831 -0.482761,-0.2202 -1.614814,-1.62256 -0.441339,-1.22379 0.885142,-0.39477 1.795546,-0.58685 2.774607,-0.68524 0.346786,-0.61451 1.28115,-0.22018 1.937317,-0.56836 0.983962,0.0917 1.793291,-0.33669 2.629302,-0.40288 0.757218,0.27897 0.648313,-0.64809 1.382058,-0.22359 0.554357,-0.0211 1.742886,0.35023 1.933402,-0.0891 -0.498075,-0.35867 0.983231,0.22461 1.366248,0.20221 0.91024,0.0356 1.840051,-0.0804 2.729978,0.23275 0.09013,-0.62969 1.356995,0.15532 1.919114,0.16451 0.681997,-0.241 1.516035,0.0544 2.257343,0.16154 1.026187,0.062 2.070825,0.16341 3.092325,0.026 0.25245,-0.16922 1.21525,0.19658 0.5607,-0.26891 -1.5229,-0.52182 -3.119449,-0.85542 -4.547676,-1.63053 -0.979018,-0.36762 -2.039613,-0.43096 -3.044781,-0.71589 -0.859171,-0.22456 -1.848271,-0.0734 -2.610757,-0.56011 -1.118592,0.0977 -2.253479,-0.11881 -3.346392,-0.33441 -0.918993,-0.0506 -1.844661,-0.0366 -2.736242,-0.27031 -1.069205,0.042 -2.070611,-0.3251 -3.134789,-0.31118 -0.657599,-0.34545 -1.745339,-0.15782 -2.214434,-0.65383 -0.606169,-0.28025 -1.453972,-0.58121 -2.101485,-0.99814 -0.75201,-0.34333 -1.273106,-0.99166 -1.581215,-1.73781 -0.610479,-0.59657 0.825291,0.0648 1.100554,-0.31059 0.714236,-0.35801 1.472539,-0.44908 2.26198,-0.53192 0.820507,-0.17809 1.73743,-0.24986 2.607568,-0.31553 0.57364,-0.45078 1.66976,0.27719 2.002422,-0.3426 0.865176,0.20628 1.568756,-0.0399 2.246346,-0.07 1.166701,0.0724 2.360795,-0.0854 3.486059,0.31245 0.763698,0.27481 0.809093,-0.31157 1.591724,0.0532 0.605441,0.16248 1.286651,0.58117 1.593122,0.25913 0.904225,0.4734 1.892142,0.2039 2.810007,0.59821 0.334149,0.15577 1.834048,0.48001 0.806958,7.5e-4 -1.004092,-0.3279 -1.856689,-1.03616 -2.932603,-1.14263 -1.210195,-0.30347 -2.408285,-0.6114 -3.655676,-0.73662 -0.945274,-0.43463 -2.057706,0.0501 -3.004211,-0.40924 -0.885691,-0.2772 -1.927762,0.0444 -2.790151,-0.44064 -1.053637,-0.001 -1.893871,-0.57328 -2.936646,-0.58076 -0.532787,-0.38016 -1.453306,-0.29122 -2.024013,-0.71935 -0.634528,-0.12283 -1.658369,-0.79599 -1.830087,-1.26882 -0.05437,-0.36204 -1.340654,-0.57877 -0.452374,-0.54429 0.85285,-0.0916 1.518172,-0.76444 2.407426,-0.80194 1.015506,-0.17616 1.98689,-0.64016 3.01887,-0.64959 0.884748,-0.12038 1.838724,0.006 2.705979,-0.19233 0.759404,0.11638 1.516201,0.0499 2.23951,-0.0378 0.838447,0.30236 1.587237,0.10314 2.362227,0.32906 0.878513,0.26714 1.630041,-0.0225 2.476674,0.27665 0.882649,0.41305 1.425628,0.15357 2.241526,0.49152 0.441618,0.2148 1.077498,0.2647 1.235343,0.0324 0.736119,0.43907 1.547523,0.37899 2.310018,0.50542 0.664738,0.15828 1.472154,-0.72772 0.431675,-0.78732 -2.100683,-0.51152 -4.291969,-0.67549 -6.30406,-1.51791 -0.911633,-0.36226 -1.976503,-0.20921 -2.842146,-0.67174 -1.0854,-0.0483 -2.170391,-0.0951 -3.222905,-0.38847 -0.973815,0.058 -1.928769,-0.086 -2.864716,-0.18537 -0.908789,0.18852 -1.804385,0.0395 -2.693924,-0.0654 -1.025504,-0.0852 -2.047721,-0.1311 -3.04554,-0.31273 -0.766768,-0.26659 -1.71491,-0.44596 -2.541548,-0.72239 -0.504854,-0.48368 -1.259531,-0.67075 -1.772266,-1.24032 -0.303124,-0.28504 -1.049442,-0.56787 -0.204087,-0.59922 0.963022,-0.51929 2.061333,-0.67618 3.106988,-0.94092 0.968762,0.0159 1.907949,-0.20214 2.780147,-0.44087 0.950302,-0.0564 1.934326,0.006 2.858721,-0.22843 0.11183,-0.56467 1.787326,0.40066 1.791968,-0.36491 0.677831,0.16331 1.50474,0.22442 2.246685,0.13376 0.931795,0.24646 1.924303,-0.0123 2.787842,0.22089 0.983534,0.31506 1.980244,-0.12703 2.953677,0.19866 0.898831,-0.1105 1.769872,0.0507 2.740172,0.17449 0.729512,0.0921 1.150781,-0.1216 1.827714,0.10194 0.40434,-0.32496 -1.10394,-0.32722 -1.376853,-0.47765 -1.952251,-0.34602 -3.940948,-0.65448 -5.747438,-1.51327 -1.060062,-0.2486 -2.114907,-0.57044 -3.19692,-0.70759 -1.034565,-0.14419 -1.926133,-0.592802 -3.021249,-0.47546 -0.952382,-0.181165 -1.913693,-0.168991 -2.87807,-0.175869 -1.298114,-0.306942 -2.706574,-0.02999 -3.981081,-0.482955 -0.895055,-0.294257 -1.946718,-0.436656 -2.656391,-1.113127 -0.669036,-0.288311 -0.879483,-1.125498 -1.632103,-1.467864 0.77065,0.308521 1.703341,-0.42242 2.632528,-0.415389 0.488126,-0.332584 0.950965,-0.511018 1.657963,-0.456519 0.381042,-0.740078 1.385227,0.148912 1.9933,-0.460135 0.707684,-0.05747 1.6545,0.09061 1.984665,-0.303948 0.862782,0.276032 1.690695,-0.108316 2.546696,0.04242 0.901979,0.09239 1.825202,0.02998 2.711717,0.233316 0.416083,0.176442 0.670754,-0.535787 1.213506,-0.06941 0.41468,0.171832 1.527219,0.711392 1.565715,0.145596 -0.896617,-0.55471 -2.031901,-0.537777 -3.046018,-0.736053 -1.582934,-0.259471 -3.183546,-0.200381 -4.778304,-0.149606 -0.889583,-0.286038 -1.81565,0.0053 -2.729124,-0.11856 -0.978462,-0.0368 -1.920111,-0.01501 -2.883913,-0.14376 -0.872923,0.03011 -1.623249,-0.418452 -2.5039,-0.503787 -0.802008,-0.376529 -1.647367,-0.607983 -2.408591,-1.037038 -0.43355,-0.240927 -1.32926,-1.018008 -1.130776,-1.30755 0.900404,-0.275233 1.821037,-0.502429 2.72153,-0.757031 0.914474,-0.225163 1.879465,-0.13388 2.740877,-0.399146 0.889102,-0.03066 1.674392,-0.287387 2.581629,-0.237467 0.678566,-0.439749 1.722867,-0.036 2.379847,-0.381527 0.964354,0.12208 1.875996,-0.116585 2.82984,-0.09418 0.576118,-0.134817 1.563752,0.465405 1.713169,-0.187737 1.198202,0.537341 2.571194,0.2653 3.813666,0.622535 0.858398,-0.11252 2.082225,0.401914 2.720133,0.06375 -1.134788,-0.340164 -2.331419,-0.515831 -3.452476,-0.931355 -0.963644,-0.378698 -1.903364,-0.79861 -2.937129,-0.938395 -1.7564,-0.619235 -3.627248,-0.741084 -5.452681,-1.020602 -0.960867,-0.259505 -1.968689,-0.256177 -2.923558,-0.53296 -0.928022,-0.09835 -1.752646,-0.50167 -2.66488,-0.707118 -1.009587,-0.105029 -1.90748,-0.583062 -2.787141,-1.018752 -0.27738,-0.384471 -1.289381,-1.191695 -0.199172,-1.028716 0.571838,-0.352232 1.204025,-0.545495 1.830396,-0.763479 0.873257,-0.02451 1.793555,-0.203767 2.596209,-0.488991 1.127766,-0.275914 2.305894,-0.217012 3.450861,-0.330285 0.474652,-0.353596 1.502702,0.08842 2.13312,0.186828 0.681306,-0.30344 1.566253,0.334625 2.248141,0.138253 0.772773,-0.153894 1.584185,0.645024 2.210444,0.226391 0.579499,0.329567 1.776743,0.859829 1.834792,0.370067 0.912942,0.431726 2.037867,0.693636 2.999691,0.268644 -0.481222,-0.652079 -1.73066,-0.578956 -2.530563,-0.873632 -1.291266,-0.255608 -2.531342,-0.692657 -3.768753,-1.126773 -1.406488,-0.403112 -2.873147,-0.475333 -4.312598,-0.681747 -1.324444,-0.381523 -2.733324,-0.193035 -4.087689,-0.331125 -0.786222,-0.247455 -1.653743,-0.172079 -2.468506,-0.329122 -1.23718,-0.11584 -2.565561,-0.308248 -3.603319,-1.023452 -0.506796,-0.360767 -0.894692,-0.331064 -0.15385,-0.596965 0.538612,-0.472178 1.147718,-0.708082 1.791848,-0.94791 0.92892,-0.251338 1.863362,-0.635309 2.730068,-0.893341 0.875055,0.115306 1.531073,-0.480138 2.484646,-0.320984 1.422559,-0.110783 2.86763,0.06276 4.276662,-0.125624 0.800188,-0.04172 1.799596,0.691597 2.483125,0.220549 0.828163,0.405858 1.700369,0.472878 2.585438,0.538833 0.810325,0.340775 1.568242,0.08898 2.30732,-0.02211 -0.477046,-0.617091 -1.70381,-0.532519 -2.464253,-0.892808 C 83.043201,75.896036 81.782008,75.528491 80.70636,74.804755 79.703911,74.434931 78.621891,74.277809 77.693301,73.71922 76.849986,73.429213 75.896432,73.435213 75.147498,72.896926 74.146877,72.7027 73.267824,72.215871 72.297606,71.972174 71.463444,71.636567 70.73401,71.150005 69.94163,70.729997 c -0.912351,-0.316018 -1.630548,-0.999098 -2.333739,-1.525245 -0.52623,-0.342028 -1.111039,-1.563074 0.04242,-1.160392 0.700835,-0.364976 1.382767,-0.101766 2.190981,-0.203953 0.737132,0.274253 0.769143,-0.395216 1.473068,0.04079 0.63748,-0.04332 1.055656,-0.01599 1.828103,0.219842 0.535685,-0.394489 1.325676,0.288336 2.067391,0.173688 0.904329,-0.04041 1.805117,0.408671 2.725436,0.46843 0.982289,0.191762 1.906174,0.594969 2.586268,1.338751 0.307121,-0.152551 -1.103878,-1.52595 -0.01732,-0.893024 0.490962,0.212401 0.891839,0.761448 1.318357,0.250175 0.632252,0.546107 1.594729,1.116917 2.423748,0.671784 -0.451529,-0.637023 -1.472261,-0.913332 -2.246902,-0.891539 -0.891776,-0.282376 -1.796427,-0.629284 -2.648637,-1.043347 -0.804068,-0.515767 -1.618053,-0.974544 -2.510808,-1.320733 -0.695972,-0.509845 -1.450995,-0.848596 -2.262241,-1.164854 -0.644352,-0.562288 -1.513859,-0.706504 -2.20343,-1.223458 -0.743007,-0.533097 -1.714404,-0.68842 -2.384548,-1.371542 -0.701185,-0.439895 -1.350925,-0.975776 -1.95752,-1.527579 -0.593175,-0.737773 -1.100877,-1.522816 -1.382328,-2.465172 0.05021,-1.154457 -1.219908,-1.049018 -1.708371,-1.793154 -0.453453,-0.361318 -1.553526,-1.374213 -0.305669,-1.294332 0.80292,-0.191765 1.48767,-0.299004 2.308409,-0.328515 0.851869,0.20599 1.578753,-0.147274 2.440537,0.04293 0.860259,-0.02873 1.738275,-0.0734 2.591264,0.0053 0.800839,0.185025 1.482222,-0.07755 2.278321,0.250769 0.792413,-0.174625 1.826859,0.502432 2.467615,-8.55e-4 0.862111,0.10107 1.825648,0.554131 2.666461,-0.0054 0.450597,0.165733 0.693951,-0.852407 1.029567,-0.268791 0.39978,0.349018 0.739465,0.788582 1.200209,1.051433 0.795791,-0.788119 -0.525383,-1.863427 -1.379074,-1.646283 -0.978972,-0.56087 -2.098531,-0.828571 -3.150171,-1.211194 -1.923276,-0.413696 -3.660288,-1.413364 -5.581776,-1.844331 -1.210265,-0.337679 -2.415978,-0.693742 -3.560811,-1.214586 -0.880262,-0.377174 -1.753915,-0.850768 -2.50606,-1.451182 -1.156862,-0.768805 0.563205,-0.99872 1.148828,-1.196559 0.870983,-0.09118 1.729779,-0.218241 2.621991,-0.15164 0.816099,-0.166658 1.635642,0.04254 2.459149,0.136245 1.060128,0.317337 2.180719,0.324388 3.225184,0.709589 0.779945,-0.01345 1.644551,0.466452 2.474909,0.266726 0.463372,-0.01141 0.812183,-0.469607 0.919901,-0.581098 0.418896,0.541108 1.05527,1.045465 1.686346,1.166856 -0.310339,-0.894433 -0.89022,-1.790893 -1.857027,-2.095323 -2.308711,-0.987708 -4.84322,-1.236934 -7.198581,-2.089333 -0.879055,-0.0984 -1.660144,-0.513328 -2.530906,-0.660546 -1.394125,-0.416566 -2.808864,-1.090552 -3.706473,-2.274605 -0.77861,-1.001741 1.230071,-0.442876 1.748784,-0.815901 1.828289,-0.08758 3.654974,0.114546 5.476433,0.227445 0.861873,-0.329879 1.837908,0.30584 2.730976,0.0024 0.415271,-0.533315 1.000286,0.680673 1.542347,0.803735 1.2115,0.861448 1.564586,2.365148 2.387236,3.523665 -0.386531,-1.578938 -0.950871,-3.149477 -1.808089,-4.540672 -0.910895,-1.407183 -2.681807,-1.622992 -4.157594,-2.059293 -1.351308,-0.335642 -2.658256,-0.821152 -3.936454,-1.359505 -0.81246,-0.320156 -1.584414,-0.759694 -2.324342,-1.224437 -0.57649,-0.497964 -1.231154,-0.949539 -1.564783,-1.659396 1.194254,-0.296192 2.449896,-0.594874 3.663941,-0.225752 1.020818,0.0718 2.024648,0.281791 3.038095,0.375409 0.919508,-0.28759 1.846149,0.306945 2.52567,0.92486 0.649474,0.606432 0.891087,1.569225 1.410008,2.213359 -0.278047,-1.171038 -0.673779,-2.362509 -1.353462,-3.368544 -1.098831,-1.276514 -2.869113,-1.584914 -4.36908,-2.173926 -1.433056,-0.490265 -2.843771,-1.176785 -3.836018,-2.358265 -0.341448,-0.471837 -1.416437,-1.324605 -1.132155,-1.746514 0.549436,0.414707 1.052838,-0.141306 1.187191,-0.274393 0.879596,0.586783 2.029449,0.441378 3.042941,0.623341 0.759463,-0.547822 1.737279,0.364579 2.330256,0.884429 0.281458,0.350769 1.119316,1.558363 0.663775,0.386064 -0.618729,-1.301771 -1.557084,-2.612295 -2.989579,-3.066339 -1.165486,-0.600763 -2.556527,-0.84082 -3.461575,-1.86927 -0.452374,-0.434144 -1.067855,-1.164622 -1.090315,-1.635347 0.573895,0.341592 0.606465,-0.286709 1.237432,0.01552 0.290337,-0.442213 1.103335,0.395749 1.155811,-0.243636 0.484429,0.125723 1.486714,0.94039 1.726086,0.524213 -0.691625,-1.297653 -2.056486,-1.969474 -3.243655,-2.722028 -0.45253,-0.36134 -1.427968,-1.198599 -0.992883,-1.700201 0.573628,0.159477 0.975573,-0.359994 1.519166,-0.271744 -0.483967,-1.087855 -1.852946,-1.641992 -2.010838,-2.906438 0.192337,-0.155605 1.121823,-0.02939 0.573832,-0.622459 -0.512595,-0.662124 -0.664294,-1.447432 -0.403863,-2.106941 -0.196337,-0.810626 -0.195336,-1.708308 0.265357,-2.388491 0.07745,-1.331899 1.464791,-0.325986 1.725036,0.376172 0.697517,0.505518 1.267844,1.184551 1.617349,1.994073 0.272956,0.715808 0.794619,-0.195577 0.974742,0.577448 0.640887,0.599857 -0.159123,1.868812 0.291062,2.283541 0.684347,-0.124116 1.553921,-0.860679 1.419729,0.365454 0.208942,1.105574 -0.537286,2.127405 -0.391427,3.23673 0.414536,-0.148116 0.777612,-0.71505 1.207736,-0.78464 0.434116,-0.192753 1.124047,-0.346329 1.396263,-0.809994 0.16593,0.950955 0.569302,1.983477 0.113741,2.926677 -0.725091,1.370551 -1.434987,2.891221 -1.094615,4.482812 0.06007,0.215381 0.300313,1.371458 0.348044,0.625665 0.09414,-0.69423 0.338422,-1.36806 0.584923,-2.003589 0.643943,0.181707 0.594446,-0.752943 1.1899,-0.796425 0.44183,-0.674871 1.19187,-0.793236 1.637877,-1.246554 0.195932,-0.500685 0.305714,0.271796 0.455079,0.459303 0.577194,0.665086 0.601696,1.476627 0.452552,2.323691 -0.140561,1.759288 -1.772255,2.835967 -2.280619,4.457374 -0.574145,1.387582 0.198276,2.845775 0.747838,4.11336 0.172674,0.445981 0.631411,1.183487 0.28944,0.274445 -0.416102,-1.017708 -0.608595,-2.177373 -0.272906,-3.235088 0.94845,-0.10097 1.344917,-1.041369 2.030432,-1.567969 0.545616,-0.26421 0.712633,-1.016682 1.288327,-0.969713 0.35663,-0.460742 1.027779,-0.742974 1.384281,-1.10149 0.33967,0.867869 1.02241,1.603111 0.742485,2.661832 0.01463,2.0349 -1.344233,3.680917 -2.546379,5.185213 -0.604836,0.791588 -1.244933,1.716212 -1.00104,2.76889 0.09184,0.516156 0.153788,1.44424 0.532131,1.65068 0.225508,-0.532335 -0.20471,-1.832845 0.251233,-1.971344 0.8053,0.414389 1.184523,-1.03223 1.866591,-1.347178 0.318135,-0.801198 0.991981,-1.03248 1.348498,-1.783062 0.533037,-0.07755 0.506984,-0.886355 1.013479,-1.051933 0.169715,-0.652152 1.013477,-0.958153 1.248592,-1.468299 0.567713,0.778366 1.391744,1.494969 1.236484,2.587614 0.116731,0.946482 -0.16704,1.835986 -0.435165,2.715151 -0.449667,0.845073 -0.576504,1.819726 -1.164632,2.60092 -0.633599,1.020503 -1.389482,1.953024 -2.121272,2.900149 -0.470934,0.575267 -1.058922,2.263995 -0.570157,2.498207 0.203233,-0.637373 -0.166243,-1.971668 0.916802,-1.401934 0.691682,-0.102674 1.364592,-0.562577 1.56205,-1.354626 0.864123,0.153585 1.000868,-1.051505 1.799071,-1.033605 0.469388,-0.838472 1.530161,-1.162315 1.839922,-2.074147 0.119394,-0.281067 0.329271,0.346885 0.598757,-0.183347 0.468774,-0.129421 1.139444,-0.79834 1.4624,-0.674292 0.631915,0.659885 0.891274,1.538096 0.86798,2.41498 -0.161028,0.882245 -0.491006,1.72516 -0.911614,2.50125 -0.378103,0.910848 -1.193188,1.558164 -1.625353,2.454646 -0.981231,1.308079 -2.224173,2.388812 -3.24838,3.658562 -0.924721,0.634259 -1.043687,1.935686 -0.794607,2.953355 0.356895,1.520707 0.838845,3.036987 1.572298,4.414449 0.164582,0.788903 0.04804,-0.820636 -0.06523,-1.032818 -0.288569,-1.596311 -1.032208,-3.142518 -0.776082,-4.800517 0.243378,-0.484941 0.19603,-1.323751 0.905579,-0.82568 1.046452,0.363292 1.566491,-0.667155 2.386773,-1.015109 0.662127,-0.669998 1.583475,-0.903104 2.176185,-1.645757 0.737655,-0.339747 1.427508,-0.726016 2.042417,-1.190535 0.6316,-0.221034 1.377012,-0.656039 1.97321,-1.182979 0.556658,0.246192 1.712026,-0.826284 1.627972,0.31107 0.452981,0.301643 0.109498,0.70678 0.2787,1.097015 0.254211,0.842697 -0.667436,1.554121 -0.943209,2.339327 -0.467673,0.699536 -0.99428,1.322554 -1.614936,1.891825 -0.659873,0.741033 -1.477077,1.389547 -2.088499,2.204853 -1.514181,1.523533 -3.565795,2.56011 -4.620646,4.499392 0.937998,0.17747 1.765931,-0.07846 2.25855,-0.924505 0.918928,-0.340982 1.291686,-1.279851 2.04279,-1.832919 0.513581,-0.648434 1.384578,-1.055497 1.525146,-1.96411 0.605736,0.65345 0.871088,-1.016286 1.568564,-1.032739 0.304386,-0.392589 0.68119,-0.605139 0.986656,-0.640522 0.444625,-0.694783 1.214756,-0.897827 1.774709,-1.338223 0.371646,-0.388012 0.995196,-0.548234 1.451987,-0.617102 0.170159,0.847624 0.691371,1.657037 0.346538,2.501948 0.477431,0.268772 -0.562694,1.096299 -0.189836,1.587095 -0.370861,0.976309 -0.889523,1.812622 -1.361633,2.715968 -0.564536,0.706604 -1.175436,1.401854 -1.619396,2.187514 -0.634671,0.782053 -1.281529,1.55874 -1.843085,2.400377 -0.542301,0.694493 -1.190272,1.276127 -1.821414,1.880871 -0.364252,0.872941 -1.394144,1.066435 -1.836559,1.845411 -0.614108,0.354447 -0.0025,0.593497 0.373405,0.238028 0.758992,-0.143804 0.982457,-1.456942 1.659568,-1.258024 0.386265,-0.451519 0.901827,-1.082297 1.284449,-1.264581 0.607243,-0.589892 1.2025,-1.125409 1.743823,-1.777739 0.541633,0.09536 0.90642,-0.714316 1.38791,-1.031437 0.45804,-0.118968 0.731284,-0.870718 1.055209,-0.6238 0.33335,-0.17606 0.490607,-0.901508 0.769183,-0.443603 0.342821,-0.595399 0.900234,-0.619151 1.289404,-1.113846 0.27135,0.504823 0.908481,-0.769107 0.889921,-0.148823 0.384783,-0.320303 0.617883,-0.533684 0.661167,0.128053 0.338022,0.386643 0.70519,0.5461 0.63203,1.136976 0.37857,0.192799 0.0603,0.931059 0.31272,1.177357 -0.49568,0.884953 -0.36262,2.068077 -1.265249,2.705087 -0.459524,0.720949 -1.13703,1.275167 -1.531862,2.039884 -0.79417,0.693365 -0.956212,1.747458 -1.826022,2.38327 -0.617725,0.84226 -1.16738,1.742281 -1.903301,2.504183 -0.616227,0.82724 -1.451663,1.41845 -2.1924,2.117842 -0.62265,0.25628 -0.898904,1.381566 -0.06148,0.779344 0.700616,0.04961 0.957448,-1.28075 1.638745,-1.24204 0.50027,0.225802 0.792915,-1.09841 1.271671,-1.12688 0.69076,0.110931 0.829064,-1.441052 1.573911,-1.387109 0.440245,-0.106657 0.784213,-1.087816 1.482403,-1.114267 0.545887,-0.56359 1.270198,-0.477048 1.869959,-1.008836 0.49721,0.159821 0.847543,-0.634253 1.355063,-0.460841 0.51238,-0.667929 1.3934,-0.696885 2.11657,-1.003357 0.82053,-0.607874 0.88867,1.082951 0.98877,1.624293 -0.0271,0.972042 -0.43653,1.928228 -1.04799,2.648553 -0.0504,0.791936 -1.08297,1.278522 -1.50821,2.005613 -0.80851,0.624104 -1.2929,1.567165 -2.110566,2.262408 -0.757279,0.796691 -1.194401,1.822275 -1.951777,2.623876 -0.34121,0.162186 -0.885438,1.336573 -0.257954,0.629625 0.516564,-0.349509 0.846665,-1.078179 1.4764,-1.254334 0.506231,-0.490312 0.710437,-1.078386 1.250347,-1.142567 0.35855,-0.260989 0.92037,-1.354426 1.11889,-0.852096 0.63674,-0.577122 1.18006,-0.980538 1.85314,-1.424729 0.39946,-0.614518 1.08025,-0.565734 1.38784,-1.249032 0.56413,-0.170421 1.18067,-0.385446 1.65251,-0.628073 -0.0672,0.771036 0.82808,0.970399 0.74918,1.721928 0.4314,0.253585 0.0825,1.085964 0.28505,1.519788 -0.18603,0.813198 -0.35023,1.63715 -0.6849,2.327626 -0.53712,0.681539 -1.09319,1.346272 -1.61367,2.032253 -0.56992,0.587049 -1.41405,0.836038 -1.70144,1.617166 -0.71326,0.683296 -1.21037,1.563647 -2.0167,2.160168 -0.72656,0.457339 -0.11594,0.98272 -0.78374,1.618734 -0.469544,0.384678 -0.343749,1.501568 0.13332,0.556732 0.25614,-0.998461 1.35931,-0.968987 1.59059,-1.837193 0.3219,-0.707385 1.01437,-0.542431 1.46772,-1.282104 0.43148,-0.587678 1.20315,-0.382219 1.51872,-1.108388 0.65652,-0.104029 0.87923,-1.088256 1.67541,-0.954636 0.57413,-0.324967 1.02548,-1.002617 1.66492,-0.814207 0.3728,-0.447019 0.75395,-0.19318 1.1725,-0.591242 0.24126,0.488103 0.91283,-0.510865 0.88197,0.326002 0.52425,0.656901 0.91994,1.392595 0.77373,2.149118 -0.11319,0.757894 -0.20352,1.387787 -0.73802,2.019342 0.67212,-0.04443 -1.34299,1.311371 -0.5613,1.21516 -0.81177,0.62276 -1.53006,1.263278 -2.18075,2.06113 -0.61577,0.651715 -1.29126,1.291558 -1.97044,1.927179 -0.51246,0.669936 -1.46039,1.28987 -1.72247,1.991937 0.38739,-0.03293 -0.67102,0.927226 -0.8632,1.200021 -1.06679,1.169157 -2.22042,2.253438 -3.351644,3.358973 0.599314,0.145026 0.957884,-0.28522 1.417794,-0.393226 0.0785,-0.437945 0.73412,-1.2641 1.03733,-0.794214 0.66771,-0.371278 0.96582,-1.702824 1.68029,-1.45096 0.62606,-0.863009 1.50445,-1.331412 2.20001,-2.105919 0.54717,-0.417856 1.11842,-0.437506 1.55672,-1.161479 0.27268,-0.277343 0.59239,-0.589997 0.69402,-0.250075 0.58717,-0.375619 1.18001,-0.802517 1.86381,-1.011478 0.52851,-0.25649 1.0608,-0.281169 1.55442,-0.664451 0.51721,0.388654 1.3368,-0.76446 1.97286,-0.493263 0.58857,0.05089 1.23599,-0.702745 1.23719,0.276207 0.36795,0.762833 0.35553,1.597251 0.12479,2.307276 0.45776,0.233111 -0.645,0.855075 -0.29621,1.264307 -0.29221,0.310236 -0.84073,0.697888 -0.48408,0.995155 -0.6727,0.220299 -1.74635,1.343607 -0.4835,1.011184 0.21693,-0.278955 0.45109,-0.545067 0.56218,-0.212009 0.3742,-0.359098 0.7435,-0.512486 0.8616,-0.208226 0.35527,-0.227818 0.72038,-0.144675 1.05543,-0.407459 0.27485,0.893598 0.59688,1.819198 0.45785,2.780178 -0.26378,0.509545 0.47195,0.802123 -0.15915,1.229727 0.21777,0.55102 -0.33841,0.879357 -0.58592,1.387381 0.36502,0.390059 -1.43209,1.157996 -0.97881,1.396839 -0.72061,0.487821 -1.18279,1.160138 -1.57208,1.830971 -0.82658,0.505427 -1.33152,1.232916 -1.93247,1.959586 -0.2788,0.41709 -1.12481,0.70749 -0.80478,1.11999 -0.33921,0.66989 -1.70122,1.51972 -1.62127,1.92789 0.59239,-0.6208 -0.18661,0.96406 0.37881,0.25978 0.50051,-0.28247 0.97564,-1.49189 1.3792,-1.43499 0.53946,0.18785 1.10563,-1.01022 1.86027,-0.94283 0.52966,-0.54544 0.96101,-0.77782 1.56204,-0.88349 0.5289,-0.4129 1.21936,-0.38207 1.80667,-0.839432 0.79995,-0.187562 1.46353,-0.437548 2.15381,-0.565774 0.56815,-0.03051 1.1558,-0.769282 1.36213,0.104461 0.50926,0.379847 0.70796,1.209395 0.729,1.691525 -0.27114,0.40694 0.473,0.34304 -0.0829,0.77144 -0.0719,0.49474 0.242,0.70027 -0.39349,1.05148 -0.20291,0.6943 -1.27536,0.96362 -1.23508,1.66728 0.57908,-0.4692 0.90657,-0.0806 1.56395,-0.46966 -0.11174,0.49176 0.84677,0.0306 1.04441,0.16505 0.5268,-0.0641 -0.11695,1.199 0.1209,1.6432 -0.14424,0.67738 -0.28109,1.22678 -0.55997,1.82856 0.85279,0.081 -1.43185,1.41522 -0.44798,1.3335 -0.30027,0.50468 -1.09393,0.70564 -1.13046,1.26739 -0.90152,0.73333 -1.7264,1.56561 -2.70254,2.20696 -0.43736,0.78684 -1.15573,1.41406 -1.83934,2.03534 0.94365,-0.27326 -0.48472,0.55559 -0.80367,0.89033 -0.59268,0.40404 -1.09882,1.41619 -1.23825,1.86273 0.4835,-0.32546 0.90129,-1.60654 1.44422,-1.14662 0.51243,-0.59477 1.14333,-1.18997 1.81933,-1.59274 0.60978,-0.55898 1.07085,-0.93702 1.75692,-1.04523 0.62785,-0.87241 1.64908,-0.48531 2.25111,-1.3438 0.38787,0.50757 0.98732,-0.65137 1.6052,-0.47203 0.59775,-0.69715 1.17023,-0.36555 1.89137,-0.71716 0.76761,0.0359 1.62771,-0.61956 2.40742,-0.49867 0.0875,0.7211 0.67599,1.08743 0.47919,1.71464 0.19223,0.71446 -0.22706,1.50689 -0.44672,2.09269 0.53044,0.17609 -0.87407,0.82367 -0.80346,1.33244 -0.37684,0.27289 -1.62209,1.02601 -0.85652,0.96456 -0.96536,0.43068 -1.61277,1.20647 -2.46626,1.75857 -0.41532,0.29349 -1.1672,0.41522 -0.99295,0.88627 -1.12664,0.3073 -1.84494,1.36177 -2.89513,1.83851 -0.7821,0.48914 -1.40366,1.17573 -2.24895,1.61225 -0.27353,0.20379 -1.19952,0.65898 -0.38119,0.4388 0.68962,-0.20155 -0.35137,0.53619 -0.41906,0.78959 -0.44993,0.17103 -0.46176,1.19316 -0.0543,0.65827 0.0881,-0.82201 1.29281,-0.86627 1.28186,-1.46659 0.571,0.12039 1.0115,-1.41162 1.46978,-1.03732 0.46368,0.18549 0.95387,-0.93399 1.52964,-1.27309 0.18116,0.79653 1.04572,-0.7368 1.5525,-0.9403 0.65254,0.44859 1.13725,-1.29303 1.62032,-0.81203 0.73867,-0.49149 1.40706,-0.71815 2.1651,-1.14525 0.80289,0.25903 1.59378,-0.59243 2.44185,-0.47741 0.51101,-0.16725 1.08733,0.0706 1.56321,-0.30937 -0.0268,0.75625 0.75481,1.23344 0.47568,1.93571 0.2399,0.378 0.18014,0.67203 -0.0901,1.15511 0.61056,0.49904 -0.9429,1.03632 -0.39865,1.37123 -0.34457,0.29348 -1.40823,0.85761 -0.87657,1.07236 -0.35862,0.24181 -2.00947,1.05955 -0.72862,0.94579 -0.56778,0.56106 -1.68905,0.62131 -1.95636,1.39894 -0.2727,0.56543 -1.48961,0.76304 -1.49779,1.2308 0.86316,0.079 -0.74129,0.3059 -0.96032,0.64823 -0.25301,0.22437 -1.2446,0.53184 -1.18296,0.64161 0.34625,0.0115 0.88707,-0.009 0.26226,0.15947 -1.41916,0.51487 -2.32717,1.80975 -3.61964,2.53939 -0.80409,0.45036 -0.33389,0.6232 0.25147,0.22714 0.11655,-0.0185 -1.01304,0.84539 -1.22959,1.18495 -0.76517,0.93516 -1.91106,1.40116 -2.78392,2.20676 0.63853,0.22503 0.80362,-1.08801 1.17692,-0.30943 0.5119,0.24162 0.94151,-0.74312 1.38965,-1.03817 0.19467,-0.47944 0.47454,0.61019 0.76912,-0.19085 0.30037,-0.66112 1.06581,-0.99169 1.5554,-1.06709 0.4072,-0.78385 1.21514,-1.01025 1.83028,-1.24513 0.29093,-0.24243 1.25803,-1.41334 0.9048,-0.47738 0.63911,-0.18371 1.20661,-0.66128 1.80881,-1.08044 0.41038,0.94367 1.35732,-0.83507 1.81223,-0.0888 0.50622,-0.22029 0.90536,-0.60397 1.43545,-0.47004 0.68244,-0.75106 1.75774,-0.35613 2.53818,-0.88536 0.56749,0.37873 1.79492,-0.78148 1.74362,0.25758 -0.0247,0.64017 0.59296,0.73798 0.18474,1.40598 0.54144,0.18695 -0.60122,0.96353 0.0562,1.1155 -0.23527,0.31745 -0.82307,0.71296 -0.45319,0.96221 -0.20739,0.28732 -1.37676,0.78114 -0.67147,0.97522 -0.63557,0.47811 -1.47153,0.80026 -1.67034,1.30445 -0.9127,0.33858 -1.47152,1.11384 -2.36319,1.48428 -0.48293,0.12237 -1.53249,0.68342 -0.40911,0.39673 -0.53486,0.46137 -1.74883,0.6756 -2.29627,1.33056 -0.68597,0.53479 -1.57758,0.86115 -2.06855,1.61276 -0.45078,0.52586 -1.75923,0.79096 -1.76162,1.37019 0.98491,-0.3114 -0.49583,0.58331 -0.69138,0.93994 -0.7724,0.62146 0.62879,0.57613 0.83562,0.003 0.72406,-0.55896 1.55283,-0.45996 2.17222,-1.29961 0.58535,-0.43105 1.24721,-0.3862 1.76257,-0.99349 0.35128,-0.46482 0.71459,-0.30653 1.10089,-0.37637 0.3049,-0.22419 1.0227,-1.17671 1.10187,-0.46869 0.73707,-0.15923 1.44069,-0.80377 2.13686,-0.58468 0.71635,-0.4714 1.53458,-0.1722 2.23169,-0.74102 0.82845,0.14397 1.66069,-0.0614 2.53517,-0.29889 0.53126,-0.22294 0.86134,0.355 1.49471,-0.18727 0.51823,-0.27382 -0.29603,0.6641 0.17741,0.81916 0.085,0.77162 0.35209,1.54677 -0.27448,2.21039 0.60276,0.3319 -1.29721,1.06772 -0.16537,1.03584 -0.62007,0.25671 -1.45936,0.55431 -1.43424,1.02956 -0.75754,0.33244 -1.47705,0.67221 -1.75424,1.10639 -0.28679,0.29107 -1.69149,0.62025 -1.38145,0.7311 0.64332,0.13331 -0.81542,0.44531 -1.02832,0.57049 -0.95986,0.28766 -1.70873,0.99949 -2.68692,1.3104 -0.75584,0.31357 -0.26257,0.17207 0.006,0.25475 -0.93816,0.44659 -1.87402,0.83829 -2.64103,1.55515 -0.45317,0.44925 -1.95781,0.94821 -1.92585,1.25114 0.57497,-0.26626 1.17692,-0.63306 1.62097,-0.49568 0.7056,-0.24463 1.1679,-1.07593 1.95492,-1.25003 -0.60555,0.83821 0.99918,-0.0965 1.38746,-0.17267 0.43216,-0.1714 0.95723,-0.71355 1.07423,-0.0368 0.65867,0.16448 1.60932,-1.11685 1.69946,-0.26207 0.53527,0.0309 1.53345,-0.91324 1.68043,-0.68538 -0.37951,0.88884 1.26521,-0.4057 1.56634,-0.18167 0.41793,0.4536 1.67167,-0.72944 1.83466,-0.0997 0.80692,-0.42412 1.53504,-0.29273 2.47788,-0.44137 0.69726,-0.34382 1.53388,0.1891 2.11844,-0.55827 -0.53675,0.86162 0.0257,1.75734 -0.56405,2.65639 0.34514,0.43665 -0.66642,0.78517 -0.48413,1.02715 0.56193,0.13294 0.39876,0.27193 -0.0606,0.44271 -0.26578,0.31175 -1.57821,0.81008 -0.60611,1.0171 -0.7161,0.11317 -1.55665,0.32046 -1.76523,0.86298 -0.45138,0.43975 -1.67765,0.44406 -1.81306,0.85033 0.40225,0.12283 -1.14246,0.4644 -1.46778,0.56442 -0.69899,0.0407 -0.63094,0.53287 -1.4645,0.55345 -1.28508,0.26272 -2.41268,0.99043 -3.6792,1.29814 0.56237,0.21054 -0.99522,0.49153 -1.2405,0.73254 -0.86586,0.55867 -1.72808,1.14056 -2.68069,1.55654 -0.94903,0.4131 0.14409,0.35604 0.29588,0.31263 -1.23454,0.60176 -2.23096,1.60307 -3.50907,2.13624 -0.51946,0.37911 -1.77225,0.58115 -1.88425,1.09692 0.8577,0.21823 1.84761,-0.58933 2.51801,-0.54383 0.62465,0.13677 1.49578,-0.51926 2.21127,-0.7087 0.38655,-0.32535 0.43508,0.33107 0.75593,-0.14886 0.62175,0.0713 1.28744,-0.81822 2.03852,-0.60361 0.67398,-0.508 1.45399,-0.62819 2.11976,-0.67507 0.47478,0.0136 1.60295,-0.88135 1.66879,-0.52477 0.20367,0.56674 1.68668,-0.70677 1.84525,-0.29717 0.28279,0.0506 1.37043,-0.33314 1.86934,-0.84389 0.47483,-0.70436 -0.26731,0.90562 0.53621,0.32902 0.90848,-0.62358 1.56283,-0.008 2.46043,-0.58587 0.4453,0.22859 1.08961,0.32113 1.72595,0.0256 0.17941,0.58817 1.15291,0.28062 1.55318,0.43877 -0.58716,0.47853 0.94762,0.6796 0.44096,0.95048 0.35489,0.46949 0.89851,0.58335 0.53094,1.26735 0.92475,0.22366 -0.65816,0.6181 -0.71632,1.12737 -0.37933,0.21959 -1.24122,0.35283 -0.69906,0.69723 -0.39243,0.30975 -1.58432,0.42991 -1.50768,0.85158 0.44264,0.11237 -0.96297,0.20014 -1.20158,0.34922 -0.85725,0.26122 -1.67563,0.6512 -2.57454,0.75797 -0.84233,0.43842 -1.78232,0.61095 -2.64335,1.00691 -0.74185,0.41479 -1.602,0.48669 -2.41225,0.67142 0.42815,0.55018 -1.17835,0.5441 -1.59566,0.93483 -0.48338,0.13735 -1.6121,0.78155 -0.44899,0.53364 0.61197,-0.17047 1.50127,-0.98925 1.91168,-0.5689 0.81527,0.0362 1.71164,-1.06089 2.45102,-0.47016 0.51382,-0.24216 1.97716,-0.89474 2.16628,-0.50926 -0.8767,0.36008 0.68132,0.10172 0.94201,-0.1585 0.41707,-0.13843 1.03299,-0.40797 1.20921,-0.0251 0.56261,-0.0256 1.34399,-1.12175 1.48951,-0.31414 0.64345,-0.24075 1.21541,-0.63174 1.79635,-0.23134 0.53605,-0.23289 0.96839,-0.48913 1.37768,-0.13286 0.79721,-0.19354 1.61501,-0.12186 2.46221,-0.17154 0.42316,0.56397 1.39572,-0.95234 0.98988,0.16218 -0.0434,0.38307 -0.57571,1.04825 0.005,1.12126 -0.40815,0.50393 -0.50511,1.03066 0.27641,0.86005 -0.43649,0.20374 -1.50948,1.1054 -0.44784,1.07257 -0.24071,0.35849 -1.62091,0.54728 -1.21868,1.16524 -0.62126,0.30457 -1.18579,0.66414 -1.32758,1.01003 -0.3705,0.39748 -1.8079,0.47191 -1.68741,0.84546 0.87926,0.11606 -0.79906,0.36797 -1.1393,0.50044 -0.22997,0.21424 -1.7333,0.0611 -1.12006,0.29498 0.6681,0.3168 -0.89459,0.19873 -1.12613,0.34576 -0.98325,0.12441 -1.86695,0.6102 -2.84869,0.73452 -0.82013,0.19643 -1.6912,0.66667 -2.32346,0.76712 -0.65873,0.164 -1.59062,0.65114 -2.39921,0.95124 -0.8329,0.46077 -1.84027,0.54963 -2.61312,1.09964 -0.33861,0.20146 -1.50241,0.93214 -0.42726,0.6667 0.56624,-0.20508 1.61827,-0.94146 1.93249,-0.76995 0.34476,0.45807 1.20263,-0.3993 1.86082,-0.51102 0.70535,-0.10449 1.26878,0.0854 1.95117,-0.32065 0.54769,-0.27874 1.07654,-0.11045 1.20726,0.15604 0.52053,-0.57039 1.35839,-0.58373 1.9871,-0.97451 0.13662,0.86415 1.39179,-0.44804 1.98766,-0.36922 0.48558,0.76321 1.49481,-0.47098 2.20604,-0.54847 -0.38797,0.17046 -0.6113,0.85004 -0.01,0.40475 0.39015,-0.16392 1.3905,-0.72229 1.51377,-0.49844 0.0791,0.47901 1.35502,-0.0398 1.41357,-0.16877 0.72709,-0.51932 -0.26807,0.57082 0.49425,0.33148 0.56351,-0.0956 1.02721,-0.47 1.38598,-0.0575 0.75147,-0.10835 1.35443,0.25044 2.10829,0.32235 0.45439,-0.0353 1.13797,-0.43478 0.55736,0.26816 -0.25538,0.57544 0.21746,1.17797 -0.49461,1.75083 -0.48142,0.31304 0.70195,0.17702 -0.0344,0.56723 -0.35418,0.20264 -1.1773,0.72601 -0.34661,0.86635 -0.48297,0.38986 -1.56577,0.38042 -1.25991,1.05768 -0.36434,0.30039 -1.65214,0.41547 -1.52575,0.75252 0.47599,-0.0448 -0.84424,0.48913 -1.0862,0.58036 -0.89617,0.38525 -1.77101,0.8823 -2.76564,0.95808 -0.1355,0.23502 1.09549,0.23547 0.1943,0.31432 -0.95355,0.18687 -1.7845,0.69522 -2.63441,1.12823 -0.48149,0.35714 -1.91808,0.0416 -1.88162,0.4061 0.4914,-0.0429 0.78263,0.28357 0.0874,0.25952 -0.80303,0.28674 -1.97248,0.25809 -2.56935,0.60433 0.72185,0.39744 -0.8856,0.11511 -1.1613,0.3693 -1.07191,0.21411 -2.09359,0.58598 -3.04391,1.13509 -0.54004,0.21578 -2.06834,0.84906 -1.69141,1.32281 0.56993,-0.29612 1.6334,-1.03456 2.04975,-0.72821 0.5121,0.14523 1.80799,-0.99439 2.29711,-0.6746 0.30313,0.40336 1.16056,-0.45555 1.82455,-0.43326 0.95268,0.28179 1.75191,-0.39982 2.64944,-0.69751 0.22941,0.0585 -0.48493,0.75996 0.14381,0.32923 0.29939,0.40214 1.62005,-0.64187 1.95654,-0.22599 0.23199,0.61483 1.71724,-1.10275 1.60992,-0.17534 0.55692,-0.35819 1.13242,-0.91024 1.60591,-0.53886 0.30397,-0.0982 1.21382,-0.80033 1.06762,-0.0916 0.57814,-0.12956 1.18519,-0.82009 1.39354,-0.17338 0.89492,-0.38704 1.78701,0.15161 2.71516,-0.0382 0.38547,-0.15163 0.8313,-0.31395 0.3656,0.20261 -0.34013,0.31393 -0.24512,1.11599 -0.2454,1.35222 0.84805,-0.38328 -1.05538,1.21227 -0.14294,1.2808 -0.17936,0.45773 -1.35721,1.10616 -0.5821,1.31367 -0.20763,0.55557 -1.73492,0.86324 -1.36608,1.35362 0.11605,0.42128 -1.3924,0.78275 -1.79383,1.269 -1.27808,0.69968 -2.68954,1.09532 -4.01504,1.68181 -1.66355,0.78448 -3.48474,1.13824 -5.25589,1.59526 -1.24807,0.43016 -2.5856,0.61117 -3.75247,1.26728 -0.85121,0.36805 -1.73079,0.70344 -2.39645,1.37839 -1.53085,1.09283 -3.40638,1.53494 -5.22981,1.85203 -0.64194,0.36506 0.57842,0.77894 0.85951,0.77197 0.64016,0.10987 1.58168,-0.24584 2.24245,-0.48337 0.13257,0.61822 1.15396,-0.44894 1.73689,-0.25684 0.67182,-0.12613 0.96806,0.49339 1.72019,-0.0689 0.66427,-0.27927 1.24541,-0.48735 1.7149,-0.21486 0.67107,-0.18641 1.1257,-0.89692 1.70069,-0.76885 0.67905,-0.35037 1.37761,-1.04664 1.97552,-0.55124 0.67513,-0.0581 1.66353,-1.27402 1.98396,-0.41431 0.6647,0.0718 1.45561,-0.83202 1.89426,-0.66055 0.28517,0.48296 1.04839,-0.18428 1.5133,-0.28856 0.56981,-0.53966 0.49267,0.74653 1.08594,0.15553 0.3556,-0.0729 1.28875,-0.70522 1.01304,0.0851 0.71787,-0.23561 1.36853,-0.35398 1.92236,-0.11792 0.89813,-0.18223 1.611,0.67594 2.57052,0.48291 0.28853,0.0239 -0.67657,0.74979 -0.1227,0.99813 -0.28852,0.32519 -0.62161,0.80778 -0.0907,0.85453 -0.20029,0.3042 -1.65776,1.31676 -0.51619,0.87183 0.67352,-0.39127 -0.41441,0.58198 -0.66528,0.63724 -0.48338,0.11222 -1.24216,0.79609 -0.26572,0.5194 0.33703,0.0308 -0.94167,0.66465 -1.25379,0.7114 -0.98476,0.28207 -0.12355,0.39594 0.10796,0.36124 -0.70674,0.56085 -1.59033,0.83845 -2.39211,1.18781 0.59793,0.72333 -1.12153,0.60559 -1.56004,0.93115 -0.43529,0.0344 -0.69749,0.1239 -0.46803,0.5038 -0.80004,0.44594 -1.7482,0.49981 -2.54886,0.90049 -0.9319,0.26839 -1.84121,0.63961 -2.78724,0.83464 -0.88978,0.18418 -1.81079,0.28844 -2.66602,0.58471 -1.0497,0.53672 -2.25727,0.72909 -3.21801,1.44443 -1.62861,0.91383 -3.46506,1.37796 -5.3106,1.57928 -0.86238,0.0462 0.54921,1.29598 0.39795,0.69089 0.52158,0.80089 1.64242,0.15269 2.46813,0.14386 0.4696,-0.10771 0.92791,0.54877 1.50683,0.0993 0.88358,-0.2229 1.71283,0.21497 2.53415,-0.18955 0.5159,0.0584 1.51149,-0.62762 1.36108,-0.0278 0.86266,-0.002 1.67085,-0.52044 2.55998,-0.53232 0.36001,0.79038 1.50334,-0.28819 2.22546,-0.21873 0.28015,-0.0471 -0.3511,0.66095 0.37978,0.49283 0.87135,0.0981 1.96913,-0.37391 2.59282,0.18393 0.42664,0.11671 1.66309,-0.50348 1.57744,-0.12239 -0.28288,0.52599 1.14036,0.0225 1.46024,-0.13554 0.80586,-0.70871 -0.19892,0.8574 0.73127,0.38191 0.531,0.0425 1.44586,-0.66133 1.5235,-0.08 0.74265,0.52795 1.86212,-0.37975 2.22899,0.31608 0.64464,0.0605 1.38325,-0.4653 1.58157,0.30839 1.00658,-0.14272 1.30242,0.7972 2.24352,0.91133 0.85359,-0.22786 -0.49926,0.71925 0.11304,0.76466 0.59666,0.16628 -1.22859,0.81767 -0.24003,0.94029 -0.21784,0.36338 -0.94333,0.59156 -1.08673,0.85219 0.47644,0.13763 0.67123,0.29595 0.0678,0.40491 -0.40329,0.0635 -1.91467,0.33366 -0.7171,0.37737 0.14994,0.32811 -1.25133,0.59992 -1.72617,0.73394 -0.94887,0.59693 -2.04877,0.55034 -3.02842,1.14727 -1.05769,0.55846 -2.26067,0.6066 -3.42451,0.69914 -0.27081,0.45538 -0.75611,-0.23372 -1.11773,0.37662 -0.92277,0.20493 -1.90351,0.0815 -2.84486,0.22853 -0.88423,0.0246 -1.70146,0.33939 -2.58653,0.3265 -1.22321,0.0502 -2.44256,0.16645 -3.64657,0.3764 -1.05414,-0.14963 -1.93715,0.33059 -2.84703,0.77205 -1.71643,0.77544 -3.61511,0.73209 -5.45038,0.88348 -0.28759,0.5475 0.82478,0.3681 0.88085,0.96817 0.70404,0.14661 1.83466,-0.43794 2.28098,-0.0632 0.10454,0.42011 0.70264,-0.18247 0.97475,0.23911 0.82163,0.0985 1.76663,-0.174 2.43465,0.30529 0.66537,0.1429 1.69727,-0.51839 2.27911,0.0521 0.7257,0.30887 1.96267,-0.49426 2.4862,0.0935 0.26846,0.56055 2.13293,-0.17049 2.06526,0.34085 0.47073,0.45501 1.66994,0.0352 2.39793,0.25409 0.67182,0.75929 2.09243,-0.076 2.55902,0.83444 0.77076,0.0419 1.60345,-0.14354 2.04839,0.46496 0.47667,0.19914 2.20575,-0.58337 1.54303,0.29189 0.46675,0.24119 1.69724,-0.13292 1.74329,0.19293 -0.22466,0.59123 0.97138,0.21451 1.41727,0.25998 0.62149,-0.12788 0.22161,0.13756 -0.0709,0.36167 -0.12956,0.39337 1.19586,0.43791 1.57128,0.6612 -0.90308,0.76806 1.42564,0.86959 1.2164,1.16829 -0.31214,0.17788 -1.18737,0.27804 -0.75758,0.70883 -0.57003,0.16744 -1.34405,0.76026 -0.31886,0.66166 -0.26224,0.19107 -1.19321,0.56007 -1.67524,0.78952 -0.31981,0.27358 -1.80153,0.14944 -1.54621,0.46205 0.94398,-0.0954 0.12621,0.26589 -0.34079,0.36897 -0.81708,0.17988 -1.26175,0.8594 -2.24357,0.64987 -0.47068,0.0439 -1.55306,-0.18712 -0.88584,0.30369 -0.83127,-8.5e-4 -1.70342,-0.22399 -2.52871,0.0212 -2.93712,0.19661 -5.88977,0.22111 -8.83098,0.10526 -1.13802,-0.26781 -2.28907,0.18522 -3.45182,0.13208 -0.90302,0.22025 -1.78088,0.59573 -2.72257,0.69079 -0.76842,0.27953 -2.0623,-0.0753 -2.50377,0.3986 0.13748,1.19164 1.65952,0.70651 2.49278,0.91394 0.29295,0.92551 1.35137,0.43493 2.08271,0.51931 0.60876,-0.0957 0.0568,0.47341 0.72623,0.43926 0.90845,0.1553 1.87491,-0.14966 2.75891,0.22691 0.86497,0.18269 1.82429,-0.10499 2.40174,0.52689 0.74189,0.20137 1.84175,-0.11556 2.38345,0.15688 -0.30122,0.48428 1.13604,0.5751 1.61083,0.68462 0.79154,-0.16342 0.72775,0.6367 1.50552,0.40055 0.91029,0.32787 1.46581,1.25863 2.48105,1.39319 0.58231,-0.37234 1.42308,0.7179 2.06817,0.2192 0.94218,-0.37928 2.07414,0.34539 1.71431,1.39925 -0.26367,0.46178 0.48606,0.83072 -0.24036,1.20518 0.52927,0.57507 -0.95661,0.99216 -1.23372,1.67017 -0.98685,0.69433 -2.05009,1.53184 -3.3317,1.45756 -0.69585,-0.0558 0.19162,0.24928 -0.57426,0.29386 -1.30584,0.23384 -2.62099,0.43988 -3.94144,0.57206 -1.44639,0.0988 -2.94046,0.23421 -4.33449,-0.26464 -1.04225,-0.0599 -2.10079,-0.0549 -3.14678,-0.16747 -1.24437,-0.0471 -2.5039,-0.27911 -3.74253,-0.0934 -1.20012,0.4624 -2.53879,0.27364 -3.78848,0.15755 -1.2824,-0.40064 -2.70005,-0.58782 -3.73691,-1.53346 -0.60055,-0.55393 -1.59407,-1.79306 -2.2447,-0.62849 -0.39998,1.04566 -0.5331,2.17583 -0.85292,3.2493 -0.48524,2.12112 -1.05913,4.22815 -1.41098,6.37583 0.14239,0.97761 0.91662,0.28397 0.76073,-0.38256 0.21905,-1.31447 1.36224,-2.16081 2.15762,-3.13599 0.61748,-0.79877 1.503,-1.32214 2.09506,-2.11985 0.68269,-0.63541 1.60156,-0.93955 2.46976,-1.17788 0.61142,0.2618 1.8731,-0.72075 1.68447,0.55103 0.22494,0.80956 0.71856,1.36325 0.44775,2.29641 0.76673,-0.28813 -0.22642,1.63031 0.49566,1.31345 -0.0317,0.78648 0.13129,1.40271 0.92811,1.73668 0.47685,0.52267 1.26794,0.58203 0.95751,1.41198 0.48119,0.80338 1.62226,1.11496 2.01304,2.0486 0.58218,0.40068 1.56345,0.68495 1.37657,1.46018 0.68007,0.62597 1.34874,1.19659 1.95195,1.90457 0.5832,0.45649 1.10203,0.92155 1.18345,1.46671 0.49507,0.74614 1.31949,1.41158 1.30256,2.24158 0.90579,0.43315 0.6505,1.71588 1.56933,2.23578 0.20413,0.74916 0.56235,1.44626 1.16105,2.00351 -0.62039,0.53366 1.48251,1.20544 0.49642,1.48598 0.28864,0.44147 1.27725,1.02274 0.62526,1.18488 0.32858,0.66066 0.4943,1.37369 0.57221,1.96794 0.93141,0.73599 -0.64856,0.37922 -1.03756,0.83382 -0.45018,0.43274 -1.64539,-0.019 -1.7464,0.48733 0.69386,0.90739 -1.11114,-0.20137 -1.47592,-0.0101 -0.26374,0.30786 0.77525,1.24568 0.16322,0.89838 -0.50155,-0.40186 -1.39416,-0.82731 -1.80906,-1.03611 0.26928,0.68104 -0.11572,0.88024 -0.63614,0.31277 -0.36697,-0.2784 -1.43183,-1.38123 -0.75941,-0.33539 0.62258,0.87437 -0.77314,-0.36877 -1.01003,-0.61078 -0.67584,-0.62522 -1.66145,-0.78496 -2.28612,-1.4821 -0.0486,-0.40586 -0.69031,-1.28389 -0.34877,-0.36057 0.0532,0.46721 -0.88763,-0.58529 -1.14253,-0.75284 -0.83269,-0.74824 -1.61891,-1.54956 -2.35678,-2.38848 -0.78156,-0.29104 -1.22918,-1.10563 -1.73589,-1.73514 -0.34748,-0.53581 -0.73987,-1.53614 -0.7507,-0.63456 -0.76312,-0.76194 -1.53396,-1.52048 -2.22676,-2.34621 -0.0818,0.6686 -0.74018,-0.72268 -0.68592,-0.26239 0.0546,0.35337 0.33646,1.10562 -0.18617,0.45174 -1.17667,-1.23897 -2.37755,-2.5075 -3.03106,-4.11609 -0.58915,-1.13496 -0.71426,-2.42647 -0.7228,-3.68393 -0.20441,-0.96092 -1.11099,-0.4751 -0.96424,0.32971 -0.0622,0.47326 0.10088,1.64776 -0.49688,1.12725 0.13803,0.4903 0.95055,0.8631 0.041,0.61534 -0.4076,0.22859 0.0576,1.07824 -0.47642,1.01507 -0.15229,1.02108 -0.75513,1.98064 -0.68497,3.02339 0.48213,-0.2747 0.81667,-1.25616 1.10861,-1.39793 -0.20113,1.00551 -1.20303,1.54562 -1.54697,2.46462 0.15512,0.64767 -0.74139,1.54906 -0.19622,1.72409 -0.24688,1.07659 -0.81059,2.04361 -1.04637,3.1266 -0.39977,1.55898 -0.89781,3.11803 -1.06572,4.71818 0.75545,-0.55406 -0.2035,0.57647 -0.34421,0.91044 -0.26835,1.12952 -0.72871,2.24044 -0.78237,3.42013 -0.3268,0.90205 -0.6069,1.83551 -0.9051,2.76922 -0.54008,1.89016 -1.15795,3.76957 -1.424576,5.72216 -0.157287,0.37433 -0.335509,0.99169 -0.853999,0.84391 -1.000108,-0.0299 -2.020309,0.0811 -3.003988,-0.0861 -8.64e-4,0.006 -0.08356,-0.0998 -0.04316,-0.10643 z m 2.540983,-6.4208 c 0.17286,-1.04368 -0.655811,0.33911 -0.11184,0.48081 0.08956,-0.14478 0.09549,-0.31756 0.11184,-0.48081 z m 29.526516,-8.98959 c -0.47967,-0.92294 -0.30959,0.61503 0,0 z m -25.82334,-6.70902 c -0.37462,-0.35592 -0.41948,0.34535 0,0 z m 5.25594,-7.3466 c -0.1743,0.11084 0.10376,0.53172 0,0 z m -0.42878,-9.0752 c 0.24159,-0.9405 0.37978,-1.88751 0.60347,-2.8231 -0.0209,-0.21757 0.24062,-1.1335 -0.0893,-0.61114 -0.568,0.82667 -1.60552,1.00422 -2.44867,1.39837 0.41095,0.31927 0.7316,1.25859 0.89307,1.93754 0.26753,0.6539 0.2837,1.61679 0.59649,2.10249 0.21266,-0.64905 0.28536,-1.34021 0.44494,-2.00416 z m 16.81577,-1.16418 c -0.58894,-0.41995 0.14029,0.36886 0,0 z m -21.47622,-1.35022 c -0.33715,0.0816 0.0921,1.08948 0.0315,0.24003 l -2.6e-4,-0.1087 -0.0311,-0.13133 z m 8.72442,-2.71778 c -0.0181,-0.4039 -0.29222,-1.22035 -0.35222,-0.32735 -0.19192,0.41853 -0.0484,1.99288 0.43701,1.00705 -0.003,-0.22881 -0.0492,-0.4548 -0.0848,-0.6797 z m 0.7882,-4.5045 c 0.37554,-1.19191 0.85139,-2.38176 1.56951,-3.40639 1.18419,-1.0081 -1.20853,-1.06249 -1.1888,0.0412 -0.53244,1.00774 -0.55722,2.19514 -0.80462,3.29379 -0.11972,0.67202 -0.21498,1.34828 -0.26306,2.02937 0.26569,-0.63925 0.47718,-1.29885 0.68697,-1.95793 z m -2.86788,-0.0431 c 0.10826,-1.17457 0.30436,-2.34806 0.3324,-3.52582 -0.27742,-0.79092 -1.52917,0.19121 -1.92393,0.22767 0.67559,1.17852 1.03782,2.48622 1.40179,3.78301 0.10346,0.32972 0.17423,-0.42313 0.18974,-0.48486 z m 9.27523,-2.92396 c -0.56887,-0.48022 -0.5653,0.82807 0,0 z m -13.19265,-0.47709 c -0.30132,-0.38827 0.0997,0.47768 0,0 z m 30.62648,-0.95898 c -0.42797,-0.0979 -0.20617,0.19199 0,0 z m -22.9324,-0.55278 c 0.3399,-0.87645 -0.48473,-1.935 -0.10264,-2.90835 0.32188,-1.5751 0.61492,-3.18409 1.19913,-4.68317 0.0956,-0.99355 1.00318,-1.6278 1.29796,-2.46133 -1.066,-0.24925 -1.9138,0.67728 -1.83014,1.70599 -0.43926,2.728 -0.83886,5.46901 -1.02137,8.22751 -0.0449,0.38397 0.27064,0.35518 0.45706,0.11935 z m -2.29527,-5.21963 c 0.0467,-0.74931 0.40812,-2.54868 -0.85323,-2.21146 -0.23835,0.83631 0.54984,1.77635 0.63057,2.68323 0.14906,0.54397 0.19393,-0.35948 0.22266,-0.47177 z m 3.61914,-6.94834 c -0.0538,-1.9166 0.47148,-3.7752 0.83916,-5.63868 0.33572,-0.88285 0.39053,-1.85013 0.95439,-2.64198 -0.22708,-0.5511 -1.50682,0.35651 -1.54456,0.98236 -0.35941,2.11008 -0.44197,4.2603 -0.63357,6.39125 0.0671,0.8417 -0.39186,1.9852 0.18676,2.64227 0.29695,-0.49065 0.14659,-1.17474 0.19782,-1.73522 z m 25.41853,-1.03757 c -0.42797,-0.0979 -0.20617,0.19199 0,0 z m -28.01855,-1.20606 c -0.009,-0.96947 0.13971,-1.94033 0.0614,-2.90761 -0.21168,-0.65052 -2.29825,-0.27779 -1.32397,0.51657 0.59744,1.05463 0.78655,2.26006 1.0348,3.42604 0.24853,0.0285 0.18343,-0.78532 0.22773,-1.035 z m 30.12923,0.0906 c -0.17652,-0.38009 0.84478,0.35507 0.39252,-0.25364 -0.2844,-0.52084 -1.14894,-0.60439 -1.57693,-0.54165 -0.29301,0.60863 1.01942,1.35135 1.18378,0.79598 z m -26.95285,-6.75809 c -0.59363,-0.49883 0.57359,0.0417 0.26627,-0.61244 -0.001,-1.63239 -0.008,-3.27306 0.31994,-4.87992 0.23934,-0.69891 -0.0372,-1.78952 0.46985,-2.26004 -0.0695,-0.75272 0.16214,-1.71377 0.67249,-2.09812 -1.07614,-0.1979 -1.90479,0.98886 -1.73919,2.00434 -0.0754,2.59303 -0.29465,5.18509 -0.27337,7.77875 0.0107,0.11645 0.27724,0.282 0.28401,0.0674 z m -2.4216,-4.23332 c 0.0384,-0.86345 0.15727,-2.43764 -1.12411,-2.32657 -0.5042,-0.0296 -1.00906,-0.046 -1.5136,-0.0686 0.36301,0.46295 0.86708,0.64057 1.03912,1.35545 0.6477,1.3606 0.99962,2.82769 1.41776,4.2676 0.10122,-1.07333 0.16208,-2.14995 0.18083,-3.22791 z m -4.78966,-0.33606 c -0.47341,-0.87298 -0.17683,0.55999 0.20021,0.57296 -0.0125,-0.20694 -0.11258,-0.39096 -0.20021,-0.57296 z m 0.9671,-2.20394 c -0.28516,-0.42674 -0.24948,0.41226 0,0 z m 20.43951,-2.70955 c 0.57061,-0.72235 -0.76748,-1.0405 -0.72659,-0.12922 -0.16366,0.49588 0.52654,0.1659 0.72659,0.12922 z m -13.8023,-0.80941 c 0.35469,-0.89342 0.008,-1.89838 0.0995,-2.84691 0.0365,-1.66324 0.005,-3.34365 0.23861,-4.99076 0.35093,-1.09366 -0.84316,0.1388 -0.59829,0.68018 -0.0972,1.97471 -0.15595,3.95607 -0.11023,5.93277 0.0145,0.45986 0.49461,0.76903 -0.0203,0.86419 -0.0753,0.11932 0.48526,0.73808 0.39076,0.36053 z m -2.51834,-2.64584 c -0.0958,-0.80971 0.0391,-2.1938 -0.83472,-2.51354 -0.73234,0.21402 0.40317,1.30791 0.30968,1.90117 0.10136,0.38764 0.55535,2.1572 0.52661,0.95139 l 1.3e-4,-0.16363 -0.002,-0.17539 z m -0.0421,-7.72583 c -0.0818,-1.07557 -0.0261,-2.18801 -0.34565,-3.22805 -0.19464,-0.74628 -1.77082,-1.00456 -1.90447,-0.5905 0.79871,0.66477 0.96279,1.90009 1.40369,2.82673 0.34701,0.73309 0.60537,2.28416 0.88274,2.5759 0.006,-0.52821 -0.016,-1.05645 -0.0363,-1.58408 z m 2.47961,1.19613 c 0.34459,-0.89387 -0.14429,-1.9502 -0.0579,-2.90951 -0.0341,-1.55966 -0.10636,-3.12843 0.04,-4.68313 0.35919,-0.50259 0.0588,-0.96877 -0.30279,-0.29873 -0.36855,0.95866 -0.12865,2.03016 -0.17971,3.03426 0.0662,1.63364 -0.0123,3.28653 0.23475,4.90453 0.0506,0.14343 0.20181,-0.0535 0.26561,-0.0474 z m -6.9268,-5.50884 c -0.3995,-0.36284 -0.067,0.35025 0,0 z m 4.25376,-1.24154 c -0.16344,0.0156 0.0778,0.68871 0,0 z m -0.005,-0.43265 c -0.20532,-1.51584 0.003,-3.12387 -0.60312,-4.56085 -0.25731,-0.58699 -1.39652,-0.60881 -0.75891,0.19604 0.51816,1.47074 0.89189,3.02169 1.25434,4.51402 0.0693,-0.003 0.13201,-0.0797 0.10769,-0.14921 z m 2.34839,-1.79185 c 0.23996,-2.25314 0.15138,-4.53309 0.40564,-6.78791 -0.80329,0.0152 -1.27941,1.36006 -1.06744,2.20512 0.10271,1.55628 0.0897,3.13986 0.38238,4.67186 0.0516,0.18859 0.27651,0.0168 0.27942,-0.0891 z m 22.24294,-0.0794 c -0.44469,-0.57615 -0.10475,0.47533 0,0 z m 0,-0.4171 c -0.31328,-0.43444 -0.24007,0.24366 0,0 z m -12.51699,-2.45144 c -0.42747,-0.098 -0.20676,0.19202 0,0 z m 4.20907,-0.46521 c -0.003,-0.42193 -0.37422,0.40092 0,0 z m -16.56291,-0.68793 c -0.27431,-0.55743 -0.0657,0.50482 0,0 z m -0.21217,-1.82292 c -0.20405,-0.21525 0.15207,1.20918 0.0718,0.21741 l -0.0287,-0.1217 z m -0.0534,-1.16686 c -0.14415,-1.30152 -0.21335,-2.62583 -0.50106,-3.90207 -0.32506,-0.83784 -1.23459,-1.04477 -2.04592,-0.98889 -0.60919,-0.11988 -0.2441,0.18365 0.0165,0.44178 0.80935,0.7694 1.48062,1.68849 1.76226,2.78514 0.33179,0.80126 0.42257,1.691 0.73903,2.48421 0.095,-0.25355 0.0314,-0.55465 0.0292,-0.82017 z m 2.35733,-0.15875 c 0.27993,-2.30102 0.0847,-4.64102 0.36484,-6.94453 0.17583,-0.4365 0.49374,-1.16696 0.55816,-1.50559 -0.99001,0.17273 -2.03536,1.00923 -1.82739,2.11754 0.13154,2.11452 0.28342,4.23181 0.55995,6.3325 0.0516,0.19763 0.26349,0.132 0.34444,8e-5 z m -13.31007,-2.87772 c -0.31332,-0.43452 -0.24004,0.24374 0,0 z m 23.07167,-0.38798 c -0.37814,-0.4483 -0.45548,0.63397 0,0 z m -10.59825,-5.57139 c -0.0696,-2.07838 -0.34057,-4.14522 -0.43723,-6.22284 -0.3424,-0.91208 -1.02582,0.98288 -0.66289,1.5229 0.20794,1.60529 0.40159,3.22142 0.75877,4.80052 0.28315,0.81474 0.34704,0.508 0.34135,-0.10058 z m -2.62922,-1.68133 c -0.21161,-0.8658 -0.16426,-2.33627 -1.38039,-2.34449 -0.49969,0.36445 0.80485,1.13369 0.804,1.77732 0.28803,0.47786 0.53033,1.79732 0.75338,1.84793 -0.0384,-0.42942 -0.1081,-0.85539 -0.17699,-1.28076 z m -4.03608,-2.69616 c -0.22375,0.0304 -1.62864,-0.40995 -1.09132,-0.0278 0.40347,0.30296 0.85608,0.14352 1.29578,0.22402 0.21401,-0.13359 -0.13889,-0.18837 -0.20446,-0.19623 z m -2.8191,-0.71286 c -0.74087,-0.61795 -1.65533,-0.75299 -2.59416,-0.77436 -0.63594,-0.46468 -1.504695,-0.1714 -2.36562,-0.18415 -0.604524,0.0661 0.872312,0.53978 1.1536,0.52954 0.37197,-0.66478 1.47574,0.32673 2.03819,0.47886 0.28717,-0.0659 -0.10594,-0.7378 0.42918,-0.29971 0.55658,0.049 1.33927,0.92476 1.72011,0.47673 -0.11141,-0.10029 -0.2513,-0.15743 -0.3813,-0.22691 z m -5.679352,-0.85348 c -0.223841,-0.32005 0.262996,-0.31141 -0.391684,-0.22683 -1.030668,0.1242 0.897568,0.78954 0.391684,0.22683 z m 11.941432,-0.24742 c -0.38773,-1.75382 -0.42535,-3.60058 -1.06813,-5.28757 -0.31379,-0.57004 -2.31412,-0.77109 -1.18463,0.10466 1.20616,1.64461 1.66991,3.67762 2.26005,5.59226 0.0892,0.0232 -0.0161,-0.33831 -0.007,-0.40935 z m 2.08117,-0.84666 c 0.10577,-1.78483 -0.13566,-3.5779 -0.12202,-5.36699 -0.0711,-0.74464 0.0898,-1.71618 0.10535,-2.30144 -0.99189,0.31564 -1.53684,1.2499 -1.22378,2.26513 0.24975,1.82444 0.53058,3.64816 0.87838,5.45621 0.0827,0.12037 0.33166,0.10659 0.36207,-0.0529 z m 11.05772,-5.7381 c 0.46335,-0.45124 -0.75259,0.27494 -0.17802,0.1092 z m -12.3966,-3.52232 c 0.0132,-1.88554 -0.44948,-3.75401 -0.34266,-5.63566 0.13397,-0.33704 0.33682,-1.03689 -0.24411,-0.50456 -1.0593,0.55764 -0.86763,1.83504 -0.67638,2.80839 0.30122,1.57479 0.50091,3.18183 0.97373,4.7157 0.6101,0.96792 0.18593,-1.19973 0.28942,-1.38387 z m 5.88161,-0.23812 c -0.28513,-0.4268 -0.24949,0.41226 0,0 z m -8.48668,-0.74426 c -0.23317,-0.63118 -0.39573,-1.76277 -1.21126,-1.7482 0.49022,0.60792 0.82048,1.89937 1.29595,2.18822 -0.0145,-0.14909 -0.0508,-0.29496 -0.0847,-0.44002 z m -6.54165,-3.05603 c -0.2613,-0.30587 -1.774071,-0.65553 -0.78754,-0.16215 0.20908,0.0211 0.68197,0.36742 0.78754,0.16215 z m 10.94635,-2.09705 c 0.15391,-0.39072 -0.18268,-1.67468 -0.27299,-0.65217 -0.001,0.59496 -0.23653,2.15975 0.0754,2.21239 0.11608,-0.51193 0.15179,-1.03862 0.1976,-1.56022 z m -3.40838,-0.25947 c -0.17528,-0.9482 -0.26351,-1.91531 -0.43071,-2.86968 -0.20929,-1.32159 -0.69112,-2.59532 -0.79931,-3.93019 -0.5756,0.7175 0.0309,1.73805 0.0676,2.56575 0.28217,1.42589 0.54192,2.85799 0.88515,4.27058 0.0589,0.12836 0.25121,0.099 0.27725,-0.0365 z m 3.83911,-1.03987 c -0.0612,-0.35253 -0.59428,0.24983 -0.0929,0.0748 z m 0.53352,-0.32453 c 0.0801,-0.44821 -0.69168,0.45324 3e-5,-8e-5 z m -6.98517,-0.89052 c -0.0432,-0.42643 -0.77057,-1.42373 -0.41273,-0.40267 0.0894,0.45572 0.89102,1.96218 0.50967,0.6846 0.0915,-0.009 -0.19714,-0.28236 -0.0969,-0.28193 z m -0.63286,-3.5739 c -0.39985,-1.32245 -0.50376,-2.73697 -1.05638,-4.00958 -0.51873,-0.86963 -1.66895,-0.96696 -2.57442,-1.10594 0.51637,0.46718 1.57878,0.71215 1.82406,1.64544 0.65855,1.02974 1.17249,2.13745 1.53666,3.30364 0.0249,0.18878 0.37374,0.65136 0.27007,0.16651 z m 1.54546,-2.2369 c -0.26462,-1.53676 -0.4424,-3.1425 -1.15949,-4.54697 -0.25639,0.79379 0.26387,1.80545 0.38044,2.66269 0.28684,0.76925 0.34206,2.16421 0.8484,2.55564 0.0223,-0.22537 -0.0262,-0.45138 -0.0694,-0.67136 z m 5.59197,-1.75831 c -0.2851,-0.42675 -0.24954,0.41227 0,0 z m -7.09083,-4.02791 c -0.30813,-0.63228 -0.26325,-1.54426 -0.54811,-2.28253 -0.19481,-0.74874 -0.42062,-1.49008 -0.70698,-2.2092 -0.005,1.17343 0.45615,2.29407 0.70555,3.42883 0.0571,0.1551 0.43032,1.88838 0.54954,1.0629 z m 12.85875,-1.47543 c -0.003,-0.42195 -0.37425,0.40101 0,0 z m -15.33745,-0.54413 c 0.0388,-0.41454 -1.04267,-1.70246 -0.53847,-0.6994 0.16742,0.20765 0.93076,2.00183 0.53847,0.6994 z m -4.294636,-2.30013 c -0.253824,-0.31241 -1.186489,-0.17379 -0.320187,0.0487 0.07107,0.0183 0.292051,0.0961 0.320187,-0.0487 z m 5.124386,-1.58599 c -0.2491,-2.01186 -0.87083,-3.94444 -1.33121,-5.91082 0.0798,-1.32664 -0.94865,0.17157 -0.52689,0.72228 0.50213,1.87747 1.06908,3.74228 1.71467,5.57399 0.11866,0.0459 0.16736,-0.30443 0.14343,-0.38545 z m -3.43539,-4.57232 c -0.16538,-0.47312 -1.26425,-1.1816 -1.42149,-0.7517 0.54429,0.3095 1.41825,1.25467 1.70607,1.32347 -0.0632,-0.20456 -0.17158,-0.39137 -0.28458,-0.57177 z m 0.86059,-3.76288 c -0.42532,-1.79944 -1.21097,-3.50147 -1.53804,-5.32284 -0.659376,0.48145 0.0396,1.73622 0.14838,2.46819 0.48342,1.45594 0.87063,2.96613 1.56644,4.33623 0.27519,-0.17749 -0.1473,-1.11454 -0.17678,-1.48158 z m 3.80041,0.21539 c -0.30761,-0.42972 -0.35641,0.55661 0,1e-5 z m 0.9525,-0.94369 c 0.38005,-0.1893 0.47282,-0.91979 0.007,-0.27471 -0.18356,0.0917 -0.31968,0.78609 -0.007,0.27471 z m -7.233208,-1.1012 c -0.410227,-1.01042 -0.920499,-2.35386 -2.1985,-2.42022 -0.508673,0.33605 1.096832,0.60174 1.161017,1.14389 0.406286,0.56997 0.636201,1.40796 1.156458,1.81275 0.01087,-0.18738 -0.05541,-0.36471 -0.118975,-0.53642 z m 9.122148,-0.91388 c 0.30235,-0.53531 0.23397,-0.58205 -0.1932,-0.10731 -0.55593,0.24788 -0.60894,1.47756 -0.035,0.5384 0.084,-0.13931 0.1585,-0.28417 0.22822,-0.43109 z m -10.528474,-3.35595 c -0.477319,-1.25346 -0.771738,-2.631131 -1.608984,-3.705872 -0.33481,-0.421754 -1.455753,-0.8846 -0.60689,-0.04496 1.246672,1.474146 1.802825,3.370036 2.548068,5.113446 0.112156,-0.23041 -0.23918,-0.98035 -0.332194,-1.36261 z m 1.595601,-0.87438 c -0.242497,-1.776773 -0.680675,-3.522095 -0.917384,-5.298245 0.17197,-0.418201 0.19548,-1.459199 -0.407548,-0.680438 -0.924265,0.612626 -0.677674,1.788102 -0.297622,2.645396 0.534284,1.485844 0.938305,3.034767 1.608916,4.461987 0.250811,-0.14563 0.0016,-0.83927 0.01364,-1.1287 z m 6.739933,-3.200211 c 0.23297,-0.426048 -0.5544,0.555995 0,0 z M 96.128542,96.316576 c -0.510189,-1.620386 -1.120515,-3.219808 -1.866022,-4.746598 -0.139116,-0.479407 -1.530503,-0.95517 -0.763602,-0.160248 1.270849,1.485183 1.844577,3.374764 2.537294,5.161946 0.175491,0.292997 0.126273,-0.222423 0.09233,-0.2551 z m 10.850928,-0.07937 c -0.10665,-0.328048 -0.24799,0.363355 10e-6,0 z m -10.100697,-2.7747 c -0.525778,-1.689661 -1.208318,-3.325298 -1.778352,-4.999301 -0.442207,-0.336319 0.02379,1.078496 0.09575,1.388363 0.492945,1.585629 1.009506,3.176708 1.694964,4.689106 0.467597,0.257957 -0.0012,-0.953476 -0.01236,-1.078168 z m 15.935037,-2.067175 c 0.19988,-0.382803 -0.72697,0.574425 1e-5,0 z m -19.228886,-2.3684 c -0.450829,-1.301447 -0.843318,-2.632546 -1.427613,-3.880812 -0.165553,-0.55982 -1.465903,-1.456674 -0.763827,-0.345635 0.674553,1.130701 1.324701,2.279707 1.73554,3.538012 0.237298,0.500948 0.525085,1.814545 0.778034,1.830427 -0.08362,-0.386769 -0.203584,-0.764808 -0.322134,-1.141992 z m 0.865674,-1.869318 C 93.9606,85.070289 93.253315,83.03931 92.630491,80.989046 c -0.624459,-0.40899 -0.11534,1.344602 0.05468,1.76776 0.53569,1.623545 0.979482,3.291953 1.712001,4.84004 0.190913,0.271021 0.02835,-0.419901 0.05343,-0.439233 z m 4.167509,-1.992475 c -0.280821,-0.346772 -0.176902,0.647896 0,0 z m 0.527537,-0.503175 c -0.4615,-0.04254 -0.183174,0.72299 0,0 z m -7.571861,-1.24095 c -0.374936,-1.549011 -0.988379,-3.040404 -1.569933,-4.525242 -0.214482,-0.673559 -1.106636,-1.892522 -1.709555,-1.444407 1.801935,1.606865 2.101055,4.12257 3.251582,6.129339 0.108366,0.116205 0.06759,-0.161276 0.02791,-0.15969 z m 2.679638,-3.5795 c 0.444216,-0.386476 0.845091,-1.531484 1.295523,-1.49013 0.201976,0.209557 0.251383,-0.439351 0.62405,-0.295282 0.03941,-0.469227 0.837601,-1.514337 -0.08585,-0.749197 -0.85784,0.79367 -1.77222,1.525178 -2.64728,2.296144 -0.659815,0.699615 0.563045,0.653584 0.81356,0.238465 z M 91.844769,79.62165 c -0.358483,-2.089084 -1.460634,-3.979536 -1.833218,-6.065911 -0.72695,0.367179 0.0612,1.805818 0.189332,2.496344 0.47467,1.342813 0.86291,2.740544 1.545896,3.99263 0.116744,-0.09522 0.07755,-0.292796 0.09799,-0.423063 z m -3.314963,-4.994166 c -0.44922,-1.258011 -0.811576,-2.565094 -1.466309,-3.735893 -0.342913,-0.35807 -1.181562,-0.40777 -0.533858,0.117339 1.209582,1.648517 1.650743,3.693505 2.485384,5.524846 0.04666,-0.586995 -0.336675,-1.303234 -0.485217,-1.906292 z m 0.468248,-3.129915 c -0.486681,-1.664564 -1.277217,-3.229005 -1.738598,-4.899361 -0.360039,0.671313 0.3908,1.9484 0.554219,2.809708 0.399195,1.215308 0.816872,2.426938 1.332344,3.598624 0.08415,-0.508193 -0.02349,-1.016061 -0.147965,-1.508971 z m -2.32919,-2.068598 c -0.419056,-1.553 -0.866943,-3.127759 -1.505387,-4.618479 -0.344114,-0.829219 -0.61414,-2.114484 -1.769143,-1.959229 0.528883,0.666685 1.209608,1.330278 1.525791,2.183243 0.732085,1.469195 1.055548,3.088646 1.614191,4.62046 0.174205,0.476098 0.313903,-0.05724 0.134548,-0.225995 z m -0.11575,-4.529613 c -0.259241,-2.041827 -1.353179,-3.843041 -1.982336,-5.777906 -0.0087,1.112124 0.500796,2.165183 0.781043,3.229001 0.315685,0.934188 0.605747,1.883462 1.019225,2.77905 0.169132,0.257809 0.187506,-0.14327 0.182068,-0.230145 z m -5.023912,-1.898957 c 0.419341,0.197882 1.845093,-0.124139 0.771137,-0.611038 -0.97547,-0.485939 -2.073416,-0.51042 -3.10059,-0.806942 -0.576824,0.190112 -1.65567,-0.520445 -1.901006,-0.188796 0.58099,0.605876 1.335265,0.444405 1.943931,0.965258 0.415082,0.272719 0.95687,0.503292 0.948339,0.07279 0.347424,0.22904 0.90942,0.911172 1.338189,0.568725 z m 1.859587,-3.54748 c -0.355311,-0.988396 -0.615543,-2.027199 -1.133898,-2.94648 -0.944074,-0.05455 0.09519,1.479975 0.301347,1.990406 0.502313,1.073197 0.714555,2.322579 1.418692,3.273335 -0.01889,-0.781682 -0.375442,-1.564093 -0.586141,-2.317261 z m -7.1611,1.530995 c -0.390782,-0.384222 -1.332779,-0.537711 -0.36048,-0.04934 0.06986,0.0227 0.481604,0.326216 0.36048,0.04934 z m 5.084663,-7.338747 c -0.311755,-0.524552 -0.255036,-1.293258 -0.695667,-1.631236 0.147136,0.706639 0.461438,2.142781 0.839756,2.39355 -0.02394,-0.257956 -0.08339,-0.511183 -0.144089,-0.762314 z m -0.685913,-2.120403 c -0.17566,-0.425688 -0.426948,-1.790364 -0.851447,-1.443146 0.04383,0.265522 0.645965,1.831206 0.851447,1.443146 z m 0.275175,-2.446888 c -0.387649,-0.446268 0.139787,0.651879 0,0 z M 102.63977,268.01688 c 0.20407,-0.38996 0.94495,-0.59091 0.30499,-0.0129 -0.0422,0.0645 -0.31181,0.19277 -0.30499,0.0129 z m 1.16769,-4.64239 c 0.0243,-0.39031 0.65237,-0.83854 0.28741,-0.11201 -0.12683,0.15163 -0.35956,0.53986 -0.28741,0.11201 z M 91.613259,202.95074 c 0.470653,-0.0773 -0.05966,0.19389 -5e-6,7e-4 z m 42.121671,-25.0825 c 0.47065,-0.0773 -0.0597,0.19388 4e-5,7e-4 z m -44.959327,-8.8177 c 0.355067,-0.45361 0.07327,0.4145 0,0 z M 84.099089,153.9499 c 0.470594,-0.0774 -0.05961,0.19401 -5e-5,6e-4 z m 37.484851,-16.22604 c -0.29095,-0.38967 0.59236,0.34236 0,0 z"
       id="path2536" />
  </g>
</svg>
