<?xml version="1.0" encoding="UTF-8" standalone="no"?>
<!-- Created with Inkscape (http://www.inkscape.org/) -->

<svg
   width="210mm"
   height="297mm"
   viewBox="0 0 210 297"
   version="1.1"
   id="svg5"
   inkscape:version="1.1.2 (0a00cf5339, 2022-02-04)"
   sodipodi:docname="swordfern_20230413_165527627.svg"
   xmlns:inkscape="http://www.inkscape.org/namespaces/inkscape"
   xmlns:sodipodi="http://sodipodi.sourceforge.net/DTD/sodipodi-0.dtd"
   xmlns="http://www.w3.org/2000/svg"
   xmlns:svg="http://www.w3.org/2000/svg">
  <sodipodi:namedview
     id="namedview7"
     pagecolor="#ffffff"
     bordercolor="#666666"
     borderopacity="1.0"
     inkscape:pageshadow="2"
     inkscape:pageopacity="0.0"
     inkscape:pagecheckerboard="0"
     inkscape:document-units="mm"
     showgrid="false"
     inkscape:zoom="0.81780303"
     inkscape:cx="389.45808"
     inkscape:cy="311.19963"
     inkscape:window-width="1128"
     inkscape:window-height="684"
     inkscape:window-x="0"
     inkscape:window-y="0"
     inkscape:window-maximized="1"
     inkscape:current-layer="layer1" />
  <defs
     id="defs2" />
  <g
     inkscape:label="Layer 1"
     inkscape:groupmode="layer"
     id="layer1">
    <path
       style="fill:none;stroke:#000000;stroke-width:0.5;stroke-miterlimit:4;stroke-dasharray:none;stroke-opacity:1"
       d="m 27.566039,283.22066 c 0.395666,-0.0429 -0.130423,0.11934 0,0 z m 28.107799,8.1e-4 c -0.198446,-0.34106 0.266569,0.06 0,0 z M 39.65434,275.8598 c -1.235906,-0.0508 -2.641673,-0.38797 -3.276252,-1.57358 -0.541295,-0.59627 -1.189909,-1.37818 -1.451782,-2.00733 0.140865,1.17445 -0.298717,-0.91885 -0.354529,-1.21896 -0.161875,-0.8054 1.29238,-1.10953 0.257412,-1.84575 0.08096,-0.3841 0.398061,-1.85286 0.04678,-0.77252 -0.150403,0.49845 -1.170494,1.387 -1.569964,0.89871 -0.632685,-0.2965 -0.855705,-1.06846 -1.205211,-1.4327 -1.354679,0.28538 -0.698366,-1.51415 -0.475677,-2.26005 -0.327709,-0.64322 1.488554,-1.63502 0.362552,-1.44907 -1.13073,1.71512 -1.917779,3.63554 -2.857736,5.46089 -0.341993,0.69549 -0.683986,1.39098 -1.025979,2.08647 -0.913703,0.19533 -0.834902,-1.0377 -1.137439,-1.61756 -0.278009,-0.39267 0.06109,-0.73418 0.23018,-1.08978 0.852503,-1.70932 1.792607,-3.38183 2.538338,-5.14032 -0.132727,-0.86657 -0.817928,-1.6816 -0.975048,-2.59758 -0.777083,-0.56503 0.478429,-1.41244 0.779741,-2.06543 0.06755,-0.91834 -0.02006,-0.39407 0.424921,-0.0667 0.625225,0.56598 0.616824,1.97489 1.03789,2.35327 1.14822,-2.20272 2.266413,-4.42475 3.297174,-6.68448 -0.536488,-0.0334 -1.894908,0.66278 -2.238489,0.52309 -0.707735,0.44032 -2.228625,0.65465 -2.579256,0.80255 0.354945,-0.48377 -1.014864,0.49979 -1.369074,0.40211 -0.946784,0.19884 -1.936707,0.79817 -2.842844,0.81793 -1.285942,0.61558 -2.702166,0.86467 -4.021676,1.39248 -0.937764,0.22207 -1.728668,0.73428 -2.66605,0.99713 -0.875926,0.35429 -1.77317,0.68569 -2.628345,0.79561 -0.700786,-0.0976 -1.849157,0.44203 -2.471569,-0.31831 0.643492,-0.53106 1.731446,-1.31914 2.575019,-1.91057 0.690076,-0.55946 1.479553,-0.88715 2.150949,-1.448 0.777245,-0.35196 1.657985,-0.80253 2.291849,-1.30677 0.868601,-0.24821 1.637975,-0.6455 2.402543,-1.10199 0.267388,-0.17142 1.396273,-0.39871 0.774966,-0.43834 0.649008,-0.14222 0.978485,-0.4566 1.176301,-0.54577 0.572424,0.0375 1.683542,-0.71139 1.736076,-0.86261 -0.430748,-0.20234 1.063035,-0.33957 1.304614,-0.73035 0.769604,-0.31943 0.919361,-0.54201 1.737771,-0.93278 -0.718561,-0.0447 1.072232,-0.31278 1.14977,-0.74219 0.874678,-0.30924 1.395948,-0.68442 2.402798,-1.04764 0.553655,-0.0455 0.703979,-0.26355 0.52365,-0.51156 1.211106,0.20645 1.133683,-1.41626 1.624509,-2.11377 0.07494,-0.98239 0.137882,0.50547 0.812646,0.42997 0.681192,0.359 0.775931,1.98095 1.076695,1.90218 0.786882,-1.47793 1.571983,-2.95879 2.289212,-4.47182 -0.89843,-0.0344 -1.559081,0.69728 -2.431528,0.82571 -1.174101,0.0971 -2.252603,0.6797 -3.410621,0.80076 -1.0139,0.35261 -1.882399,0.46786 -2.807694,0.88592 -1.122863,0.21282 -2.251555,0.29964 -3.364104,0.58453 -0.97363,0.22088 -1.99837,0.59354 -2.546907,0.60435 -0.925622,0.30574 -1.835327,0.18339 -2.748768,0.3835 -0.665265,0.0791 -1.222897,0.0697 -1.393359,0.0248 -0.63629,0.10698 -1.873758,0.24097 -1.841184,0.0409 -0.802514,0.004 -1.886739,0.12799 -2.531533,-0.0775 -0.697859,-0.0342 -1.489904,0.1549 -2.317062,-0.0258 -0.436521,0.0282 -1.54398,-0.50608 -0.461888,-0.54884 0.971606,-0.53323 1.966371,-0.97262 2.930255,-1.48092 0.850557,-0.27895 1.477225,-0.65234 2.320856,-0.81211 0.813876,-0.30102 1.725613,-0.62275 2.638324,-0.68031 0.875442,-0.29132 1.68656,-0.30871 2.557135,-0.66569 0.870503,-0.23579 1.574529,-0.57121 2.44243,-0.72022 0.962556,-0.21854 1.893692,-0.90904 2.917332,-0.98294 0.309843,-0.30035 1.213546,-0.39102 1.248889,-0.59295 0.928812,-0.15642 1.639558,-0.79306 2.511006,-1.09656 0.677778,-0.022 0.471261,-0.50433 1.374555,-0.41269 0.945367,-0.38638 1.801719,-0.89503 2.859696,-1.04829 0.974233,-0.38447 1.586098,-0.95721 2.536347,-1.1 0.468427,-0.72757 0.769628,-1.61658 1.448766,-2.42506 0.170706,-0.82939 0.198505,0.89007 0.640823,0.99587 0.270857,0.44949 0.124393,2.38025 0.626026,1.1005 0.652717,-0.99143 1.013601,-2.10101 1.576873,-3.11816 -0.886633,0.11959 -1.961824,0.51686 -2.945731,0.70298 -1.034871,0.30899 -1.99528,0.49876 -2.969428,0.81926 -1.028257,0.33185 -1.508436,0.40426 -2.688905,0.69197 -0.493458,0.20549 -1.365876,0.42305 -1.613602,0.48553 -0.799256,0.14959 -1.985302,0.46521 -2.932878,0.67477 -1.071811,0.1385 -1.770193,0.3123 -2.88279,0.55367 -0.679499,-0.0196 -1.734977,0.44611 -2.315905,0.33061 -1.069534,0.23281 -2.166255,0.27035 -3.274777,0.40348 -0.53897,-0.0775 -1.272848,-0.005 -1.848465,-0.20379 -0.660363,0.0508 -1.483421,0.002 -2.130776,-0.24492 -0.510534,0.0995 -1.523617,-1.20747 -1.004495,-1.13019 1.03155,0.35812 2.16107,-0.18051 3.18478,-0.41668 1.00314,-0.21328 1.915484,-0.74945 2.917876,-0.91355 0.844144,-0.22194 1.663101,-0.57519 2.460199,-0.88472 0.890838,-0.3842 1.820593,-0.7599 2.77749,-0.88567 0.839302,-0.42612 1.779983,-0.35019 2.600749,-0.81689 0.879635,-0.29975 1.598352,-0.59119 2.372897,-0.97991 0.722275,-0.56811 1.798433,-0.72698 2.406914,-1.24623 0.976396,-0.33023 1.740469,-0.97153 2.790476,-1.01706 0.816293,-0.38305 1.797724,-0.66638 2.71751,-0.88117 0.899233,-0.55715 2.002792,-0.71455 2.77686,-1.34138 0.348891,-0.63969 1.239989,-2.21862 1.494024,-2.27843 0.632455,0.98046 0.692695,2.18017 0.722818,3.33747 0.698794,-1.24913 1.310872,-2.55001 1.994107,-3.80669 -0.708813,-0.2285 -1.681851,-0.12686 -2.469627,0.0186 -0.894788,-0.0387 -1.203916,0.0708 -2.047794,0.28633 -0.89601,0.0376 -1.929125,0.39976 -2.79758,0.71735 -0.537308,-0.11852 -1.886747,0.567 -2.741622,0.62248 -0.500496,-0.0214 -1.406751,0.2628 -2.138435,0.28254 -1.093731,0.19479 -2.180677,0.32324 -3.29303,0.43763 -0.996715,0.0301 -2.179129,0.18274 -3.067289,0.0388 -0.87909,0.21804 -1.555027,0.0714 -2.372091,0.3147 -0.59999,-0.18592 -1.46224,0.0428 -2.069267,0.034 -0.68089,0.17202 -2.984944,0.21217 -1.661979,-0.73146 0.90281,-0.39448 1.729049,-0.81566 2.659908,-1.19268 0.809624,-0.31459 1.481405,-0.7564 2.295169,-1.03488 0.927445,-0.38065 1.926816,-0.48182 2.869966,-0.76141 1.057911,-0.0357 1.988811,-0.49717 3.036494,-0.63006 0.989963,-0.15035 1.665797,-0.63127 2.578154,-0.94404 0.896885,-0.2772 1.83389,-0.41641 2.621099,-0.76211 0.997428,-0.34651 1.957662,-0.8129 2.990771,-1.14255 0.939876,-0.28065 1.929522,-0.49792 2.928778,-0.4254 0.740316,-0.40787 1.747173,-0.35 2.503297,-0.75428 1.012305,-0.26132 1.591675,-1.53271 2.264299,-2.29333 0.306216,1.14926 0.44918,2.36565 0.121813,3.56541 0.155708,0.23571 0.623865,-1.17886 0.898074,-1.5927 0.159587,-0.74257 1.24945,-1.64258 0.955045,-2.23565 -0.813927,-0.0118 -1.66683,-0.35326 -2.569514,-0.004 -0.859879,-0.16332 -1.343575,0.15806 -2.137079,0.28233 -0.79836,0.32078 -1.486807,-0.13399 -2.343447,0.33655 -0.922624,0.11929 -1.645246,0.14341 -2.521147,0.1971 -1.086773,-0.0175 -2.143145,0.0858 -3.213592,0.3798 -0.982234,0.047 -1.818009,0.37825 -2.532894,0.24577 -1.060599,0.38467 -1.450947,0.22274 -2.651671,0.45683 -1.128573,0.33447 -1.756251,-0.0132 -2.737805,0.20476 -0.644148,-0.0835 -1.811202,-0.0145 -2.662126,-0.03 -0.912047,-0.16908 -1.951779,-0.0871 -2.770064,-0.54473 -0.510094,-0.16623 -1.692685,-0.17371 -0.693632,-0.7889 0.864817,-0.88078 2.263555,-0.58536 3.314884,-1.13124 0.745968,-0.10631 1.372784,-0.5549 2.191994,-0.58678 0.513565,-0.27976 1.579366,-0.35106 2.312062,-0.64944 0.723126,-0.2213 1.404367,-0.5025 2.2026,-0.59426 0.807012,-0.40527 1.824075,-0.65737 2.763604,-0.78615 0.91133,-0.19824 1.35161,-0.54102 2.274537,-0.51692 0.175111,-0.46871 1.199174,-0.12969 1.034384,-0.50454 0.947744,0.26204 1.753835,-0.418 2.651143,-0.40002 0.424697,-0.40551 1.457919,-0.14292 1.915388,-0.37442 0.849584,-0.1 1.648916,-0.49291 2.579506,-0.3396 0.804715,-0.27413 1.712077,-0.21497 2.603534,-0.40595 0.367944,-0.40319 1.223291,0.15363 1.442267,-0.69822 0.341681,-0.53557 1.30139,-1.52966 1.540562,-1.54305 0.324621,1.0922 0.415794,2.41445 0.11416,3.62627 -0.08048,0.39775 -0.367417,1.60208 0.11303,0.60979 0.65376,-1.27808 1.435644,-2.48902 2.088625,-3.76428 -0.295295,-0.14764 1.209537,-1.62593 -0.0019,-0.71313 -0.948198,0.2965 -1.917087,0.0371 -2.873865,-0.23927 -0.959813,-0.14863 -1.828775,-0.38032 -2.885482,-0.49534 -0.855665,0.11862 -1.572512,-0.18897 -2.281053,-0.34075 -0.968687,0.20817 -1.921729,-0.13713 -2.891005,-0.13607 -0.919928,0.0864 -1.844862,0.31254 -2.726161,0.24507 -1.281636,0.32897 -2.633849,0.35159 -3.956377,0.33901 -0.554625,-0.21819 -1.332734,-0.22888 -1.392863,-0.41718 -0.404919,-0.0539 -1.527837,-0.42575 -1.491605,-0.45219 -0.841208,-0.16796 -1.454699,-0.8234 -2.336221,-0.99651 -0.578766,-0.0956 -2.619144,-0.0111 -1.847159,-0.93503 0.647215,0.73972 1.681075,-0.44656 2.538652,-0.32045 0.13449,-0.33047 1.086963,-0.38739 1.045805,-0.58711 0.953702,0.001 1.566167,-0.14069 2.519157,-0.11833 0.796434,0.0511 1.588199,-0.10446 2.388603,-0.10326 1.048241,-0.19419 2.074131,-0.4679 3.129395,-0.60409 0.66515,-0.50174 1.897783,-0.50882 2.788031,-0.63607 0.971004,-0.027 2.067011,0.0265 3.077817,-0.16827 0.955561,-0.0775 2.072837,0.24509 2.891835,0.18401 1.012953,0.17948 1.868261,0.0943 2.831964,0.39375 1.102521,-0.007 2.307135,0.5324 2.983507,-0.63153 0.4675,-0.32872 1.451727,-1.4772 1.332831,-0.22754 0.167638,1.31317 -0.649828,2.4621 -0.960199,3.69007 0.518498,-0.91396 1.089203,-1.81831 1.607045,-2.7454 0.18128,-0.64512 1.51393,-2.3217 1.190594,-2.30583 -0.602487,1.34328 -1.991473,0.49902 -3.000107,0.33906 -0.895419,-0.33806 -1.666407,-0.17267 -2.57222,-0.36961 -0.912263,-0.0647 -1.783641,-0.2725 -2.691925,-0.12119 -0.518059,-0.31009 -1.287277,-0.0977 -1.902545,-0.27171 -0.958906,-0.27271 -1.955739,-0.0959 -2.973471,-0.14626 -1.387072,-0.029 -2.765772,-0.16477 -4.137544,-0.26341 -1.115073,-0.19022 -2.232535,-0.26847 -3.384092,-0.23574 -1.188673,-0.16697 -2.376409,-0.0196 -3.567044,-0.0298 -0.532405,-0.58906 0.960785,-1.11438 1.325064,-1.45354 0.642616,-0.29555 1.244447,-0.45632 1.973753,-0.71672 0.771092,-0.12623 1.343574,-0.5565 2.203632,-0.69838 0.718589,-0.0974 1.337811,-0.2846 1.839782,-0.37616 0.786379,-0.17875 1.59928,-0.41115 2.552956,-0.39312 0.80532,-0.2534 1.732483,-0.0727 2.576892,-0.1871 0.729108,-0.20041 1.576263,-0.15343 2.382912,-0.0506 0.890711,-0.21886 2.238162,-0.0904 3.28455,0.006 0.770241,0.0503 1.58722,0.11441 2.37694,0.17484 0.759127,0.0526 1.670008,0.11541 2.426833,0.52416 0.786264,-0.24964 1.413194,-0.18837 1.793963,-1.14442 0.512787,-0.51608 1.403511,-1.10988 1.413687,0.0439 0.187889,1.16759 -0.414574,2.27234 -0.682921,3.37395 0.647106,-0.92757 1.232798,-2.04703 1.790604,-3.10145 0.524644,-0.80969 1.427617,-1.85479 1.465522,-2.70382 -0.642016,0.88874 -1.723116,1.18118 -2.561697,0.44334 -1.045738,-0.5288 -2.16185,-0.86726 -3.184037,-1.30231 -0.774375,-0.54723 -1.906451,-0.4295 -2.739914,-0.91229 -0.866572,-0.21462 -1.696062,-0.73953 -2.624074,-0.92061 -0.91715,-0.20604 -1.662669,-0.24447 -2.566685,-0.45228 -0.897704,-0.18053 -1.734557,-0.33407 -2.582109,-0.69455 -1.071468,-0.0725 -1.871957,-0.73372 -2.95452,-0.72408 -0.555708,-0.42747 -1.770299,-0.56341 -2.520809,-0.94542 -0.654522,-0.75424 -2.096053,0.42404 -2.293515,0.009 0.451723,-0.99281 1.425453,-1.91014 2.540996,-1.85273 0.876304,-0.16897 1.541683,-0.29563 2.448688,-0.15373 0.558461,-0.1293 1.768185,0.28902 2.533871,0.0101 0.686625,-0.39572 1.530514,0.003 2.397995,-0.0994 0.915452,-0.0902 1.80166,0.60985 2.592407,0.34826 1.092762,-0.0194 1.766994,0.27098 2.809502,0.43862 0.71184,0.15514 1.39434,0.12649 2.17264,0.47923 0.736023,0.4567 1.681773,0.50885 2.340229,1.03904 0.548874,-0.18094 1.653301,0.45553 2.382178,0.76068 0.905025,0.0367 1.877016,0.92036 2.436219,-0.31608 0.550601,-0.48677 1.773098,-1.34392 1.540408,0.0574 0.02719,1.13438 -0.74826,2.10619 -1.108665,3.15017 -0.09851,0.59572 0.730722,-1.01572 0.896613,-1.26491 0.397796,-0.87769 1.103752,-1.61544 1.360342,-2.56681 0.601851,-0.27238 1.038679,-1.86043 0.03082,-0.94204 -0.989503,0.81346 -2.087986,-0.11436 -3.072311,-0.39629 -0.885525,-0.4824 -2.036838,-0.55926 -2.877621,-0.8599 -0.835981,-0.0162 -1.849185,-0.24998 -2.503948,-0.49035 -0.971386,-0.1108 -2.079884,-0.0737 -2.967169,-0.26161 -0.793974,0.019 -1.718123,-0.0803 -2.552158,-0.23226 -0.943836,-0.19505 -1.889235,-0.39552 -2.823414,-0.67783 -0.682103,-0.37253 -1.741925,-0.32312 -2.475611,-0.82301 -1.338207,-0.48156 -2.688374,-1.11006 -3.743017,-2.08888 -0.472732,-0.31333 -2.22912,-1.57453 -0.697996,-1.36813 0.874983,0.11231 1.516032,0.71449 2.485097,0.69571 0.67677,0.0272 1.146929,-0.13421 1.851334,0.0281 0.661467,-0.0202 1.150992,0.0439 1.893342,0.134 0.2968,-0.17168 0.827326,0.0505 1.085141,-0.086 0.694727,0.13471 1.575528,-0.2877 2.26429,0.24875 0.522046,-0.33795 1.614567,0.0949 1.934358,-0.14947 0.649188,0.0284 1.447619,0.13688 1.927949,0.11155 0.558424,0.12585 1.636426,0.08 2.393891,0.15545 0.780705,0.16653 1.406133,0.11244 2.221306,0.30454 0.998989,0.18276 2.007867,0.34175 2.938064,0.74088 0.935043,0.1079 1.548214,0.29823 2.423326,0.45964 0.858604,0.69811 1.542715,-0.91145 2.498134,-0.93604 0.526114,0.93821 0.09556,2.18635 -0.361294,3.12363 -0.245128,0.42523 -0.652005,1.68551 -0.118787,0.64262 0.807008,-1.37082 1.594953,-2.76621 2.333057,-4.16977 0.537644,-1.34676 -1.45753,0.73251 -1.992631,-0.31295 -0.65129,-0.52945 -1.410852,-1.08728 -2.191536,-1.45455 -0.620495,-0.65022 -1.490677,-0.95245 -2.394213,-1.18844 -0.857657,-0.6441 -1.830495,-1.02181 -2.631233,-1.69337 -0.668911,-0.50666 -1.433626,-0.9775 -2.130851,-1.45541 -0.839051,-0.43018 -1.642978,-0.93734 -2.536375,-1.33821 -0.65682,-0.3155 -0.645704,-0.4267 -1.327097,-0.77609 -0.662895,-0.38161 -1.453511,-0.84118 -2.24172,-1.35573 0.02462,-0.28837 -1.592782,-0.5182 -1.639735,-0.71082 -0.970504,-0.15501 -1.886193,-0.53315 -2.963357,-0.67288 -0.587242,-0.20921 -2.256229,-0.15332 -2.127583,-0.82859 0.773519,-0.25679 1.444913,-0.30477 2.115651,-0.48958 0.661349,-0.26065 1.4983,-0.13593 2.155907,-0.3396 0.59049,-0.14072 1.062476,-0.069 1.590136,-0.0986 0.164788,-0.12151 1.080619,0.28202 0.951714,-0.0711 0.784475,0.27888 1.347216,0.0241 2.083386,0.10526 0.811511,0.12177 1.52328,0.12014 2.106581,0.0524 -0.298976,-0.47695 1.076658,0.42772 0.976352,-0.16035 0.793501,0.22918 1.542684,-0.33827 2.287508,0.14838 0.512804,-0.26245 1.407189,-0.31154 2.119272,-0.28487 0.984779,0.29199 1.732502,-0.0661 2.795832,0.17599 0.933307,0.0466 1.295742,0.0386 2.267012,0.10896 1.047649,-0.0351 2.135169,0.51345 3.103952,0.62335 0.819054,0.20426 1.824156,0.8667 2.698554,0.9095 0.525596,0.60883 0.886635,-0.2583 1.417656,-0.3629 0.643027,-0.33622 1.401421,-0.74857 1.275863,0.3473 0.169255,1.10237 -0.764659,1.95732 -0.999425,2.97004 0.62592,-0.88992 0.983617,-1.97249 1.602715,-2.88102 0.60302,-0.46877 0.83095,-2.06398 -0.204117,-1.17104 -1.078729,0.42719 -1.730657,-0.78539 -2.615651,-1.15415 -0.875037,-0.64763 -2.091699,-0.96622 -2.858091,-1.63849 -0.990298,-0.082 -1.785702,-0.90211 -2.752121,-1.12797 -0.812288,-0.59857 -1.78666,-0.92739 -2.78614,-1.25916 -0.805939,-0.40972 -1.864685,-0.21399 -2.697876,-0.60462 -1.11921,-0.22184 -1.14798,-0.64027 -2.275281,-0.60863 -0.06834,-0.43394 -1.028869,-0.33877 -1.380562,-0.58151 -1.035328,-0.215 -1.446093,-0.55693 -2.326928,-0.77432 0.05677,-0.27898 -0.755464,-0.34127 -0.922869,-0.62433 -0.847904,-0.11842 -1.769309,-0.42191 -2.644678,-0.69648 -0.550549,-0.2145 -1.610967,-0.58204 -1.762372,-0.83773 0.287388,-0.68891 1.611629,-0.82194 2.171406,-1.01518 0.488607,0.01 1.385296,-0.28221 2.044231,-0.11799 0.299397,-0.37936 1.494356,0.35043 1.727734,-0.0424 0.760912,0.50697 1.545417,0.29137 2.455166,0.64252 0.924724,0.15857 1.291583,0.0938 2.140494,0.41093 0.668846,0.0939 0.872856,0.57488 1.233304,0.14301 0.899488,0.0901 1.515578,0.46714 2.343334,0.50945 0.963676,0.0303 1.779441,0.16973 2.648007,0.87067 0.458288,-0.15539 1.432792,0.28584 2.044243,0.6166 0.716238,0.44418 1.684404,0.61697 2.409543,1.02384 0.872635,0.81394 1.952476,0.65065 2.652066,1.60546 0.437101,0.5592 0.983863,0.36526 1.345549,0.39053 0.492609,0.76069 0.971132,0.34 1.644635,0.0609 0.775607,-0.29075 1.418319,-0.13338 1.066297,0.83868 -0.05725,0.53214 -0.538233,1.54597 0.04129,0.50093 0.20728,-0.86254 1.347638,-1.67565 1.03991,-2.53255 -0.966358,0.50551 -1.957897,0.13604 -2.561578,-0.60579 -0.714703,-0.73231 -1.632659,-1.2301 -2.467267,-1.86295 -0.706561,-0.71183 -1.404916,-0.66968 -2.268844,-1.35865 -0.968431,-0.49448 -1.672971,-1.22652 -2.75289,-1.44483 -0.842885,-0.44433 -1.808478,-0.58704 -2.676997,-1.02608 -1.022078,-0.23558 -2.010693,-0.87357 -2.76429,-1.01842 -0.806369,-0.15477 -1.16484,-0.55374 -2.132679,-0.98844 -0.832082,-0.47127 -1.840492,-0.8451 -2.687348,-1.38424 -0.840937,-0.40661 -1.617994,-0.97711 -2.528119,-1.27495 -1.003346,-0.51731 -2.518903,-0.85985 -3.143332,-1.64523 0.786818,-0.70581 1.876631,-0.525 2.816655,-0.50783 0.479651,0.16584 0.651676,-0.0133 0.72802,-0.0295 0.574323,0.16774 1.003566,0.26494 1.472155,0.32323 0.539825,0.0577 1.265153,0.34701 1.799256,0.46385 0.79982,0.4416 1.777192,0.49767 2.646755,0.89799 0.740229,0.34959 1.666749,0.52482 2.528271,0.85495 0.640526,0.67432 0.06255,-0.39587 0.795616,0.14836 0.910671,0.34049 1.302922,0.31818 2.189671,0.5963 1.03744,0.20233 1.988295,0.64767 2.973583,1.01688 0.973454,0.43575 1.989442,0.83123 2.880268,1.41108 0.818009,0.30836 1.564521,1.12395 2.497368,1.52592 0.706167,0.10524 1.108722,0.60428 1.751609,1.04347 0.669395,0.32224 1.084012,1.087 1.883835,0.5174 0.658046,-0.13817 1.583925,0.13353 1.50614,0.73657 0.221026,-0.63365 1.72584,-2.44902 0.271361,-2.07992 -1.120071,0.52816 -1.922552,-0.51096 -2.764303,-0.98887 -1.023853,-0.56903 -2.16208,-0.993 -3.170693,-1.52853 -0.921433,-0.29806 -1.873115,-0.77942 -2.838314,-1.04538 -0.799686,-0.53363 -1.59432,-0.44699 -2.50317,-0.75034 -0.977549,-0.29495 -1.89725,-0.70743 -2.910941,-0.9001 -0.823657,-0.60816 -1.859049,-0.34303 -2.680667,-0.74698 -0.757807,-0.58125 -1.873404,-0.66356 -2.740862,-1.16292 -1.136438,-0.4083 -2.183986,-1.01476 -3.344346,-1.37282 -1.041461,-0.58196 -2.249219,-0.75488 -3.358375,-1.18171 -0.729902,-0.37199 -1.832318,-0.49897 -2.399191,-0.88102 0.71044,-0.67586 1.681885,-0.67451 2.512417,-0.65522 0.333086,-0.24551 1.253789,0.0207 1.634217,-0.12293 0.409187,-0.0649 1.329388,0.27827 1.775797,0.23096 0.434317,0.0176 1.118358,0.0963 1.712532,0.2764 0.255858,-0.16961 0.819731,0.25594 0.948608,0.0853 0.408944,0.19008 1.37452,0.527 1.510905,0.22764 0.239445,0.1206 1.281492,0.54653 1.830155,0.56803 0.817832,0.15653 1.749393,0.0218 2.466204,0.72628 0.118462,-0.75127 1.445521,0.30335 1.742115,-0.0734 0.971756,0.0812 1.756915,0.65468 2.755531,0.80638 0.840832,0.10408 1.511057,0.46937 2.310812,0.78655 0.94618,0.41622 1.721186,0.44908 2.541157,0.88079 0.482227,-0.20942 1.457073,0.96624 2.240121,1.10187 0.85105,0.0402 1.906611,1.28374 2.492716,0.95178 0.507334,0.64236 0.952707,0.80899 1.597882,0.26937 0.378559,0.0223 1.419449,-0.39322 1.500241,0.0566 0.111551,1.21692 -0.774559,2.12605 -1.265611,3.14306 0.51456,-0.37802 1.02124,-1.8095 1.556347,-2.53275 0.444407,-0.51167 1.414688,-2.27489 -0.02197,-1.74971 -1.019615,0.305 -1.844897,-0.63721 -2.507111,-1.17761 -0.745406,-0.71687 -1.839649,-1.07349 -2.760343,-1.5868 -0.430702,-0.38945 -0.266896,-0.44198 -1.055314,-0.56512 -1.018922,-0.16234 -1.780361,-1.02605 -2.790804,-1.21881 -0.753722,-0.44876 -1.455814,-0.7772 -2.247205,-1.07877 -0.908383,-0.44727 -1.972893,-0.72286 -2.742089,-1.32367 -1.026864,-0.37848 -1.906591,-1.05561 -2.930638,-1.44877 -0.763415,-0.56251 -1.681689,-0.91568 -2.551762,-1.37198 -0.942153,-0.46292 -1.797563,-1.00184 -2.757522,-1.45511 -1.000707,-0.33839 -1.930124,-0.86306 -2.867718,-1.30885 -1.125746,-0.61564 -2.382883,-0.90231 -3.544415,-1.45411 0.454272,-0.12337 2.14604,0.16335 3.029364,0.2054 0.790009,0.0691 1.61462,0.3772 2.383036,0.37903 0.812714,0.24486 1.604845,0.44877 2.43722,0.59851 0.257773,-0.0865 0.949434,0.62713 0.749338,0.0593 0.806495,0.41881 1.682291,0.51168 2.501412,0.84257 0.770255,-0.13517 1.331508,0.57573 1.993118,0.6603 0.702454,0.29433 1.516132,0.65074 2.178085,0.61875 0.837857,0.32541 1.652282,0.47833 2.449151,0.80079 0.886206,-0.1732 1.756756,0.82837 2.636694,1.06612 1.118189,0.35605 2.143374,0.77562 3.178935,1.29187 0.963477,0.23049 1.762149,0.73072 2.523168,1.31877 0.834097,0.5438 1.8554,1.34362 2.712087,1.51679 0.572816,0.34127 0.854511,0.84083 1.508523,0.39844 1.061469,-0.27136 1.793286,0.51734 1.007407,1.42248 -0.409448,0.87232 -1.248363,1.8448 -1.455752,2.60055 0.64483,-0.78693 1.129362,-1.80601 1.684988,-2.71118 0.279924,-0.82893 1.475332,-1.81248 0.901574,-2.6173 -1.035982,0.30305 -2.068732,0.009 -2.744641,-0.75864 -1.007255,-0.71364 -2.14056,-1.24143 -3.099092,-2.0292 -0.942912,-0.47233 -1.771201,-1.12825 -2.775145,-1.48059 -1.006842,-0.41376 -1.9965,-0.83924 -2.959872,-1.29794 -0.904621,-0.4548 -1.845777,-0.74784 -2.740593,-1.23356 -0.738233,-0.4814 -1.513776,-0.71088 -2.343935,-1.06875 -1.144816,-0.57921 -2.32111,-1.06878 -3.414132,-1.72952 -1.082514,-0.57139 -2.175246,-1.09236 -3.300242,-1.63684 -0.637878,-0.47189 -1.427063,-0.74913 -2.238749,-1.18223 -0.866088,-0.60283 -2.295113,-0.85666 -2.510408,-2.03421 0.102332,-0.76074 0.568717,0.90157 1.327606,0.48723 1.092053,0.0345 2.088895,0.4154 3.169348,0.53945 0.817828,0.14508 1.569289,0.53958 2.114002,0.57175 0.815654,0.25071 0.811359,0.16655 1.567399,0.47752 0.736805,0.36639 1.669628,0.52508 2.529723,0.76876 0.812418,0.22025 1.580714,0.53125 2.41624,0.76331 0.992734,0.24605 1.932278,0.89271 2.90926,0.96656 0.987736,0.34928 1.921407,0.67106 2.85921,1.14931 0.972592,0.34486 1.912565,0.74777 2.866081,1.16342 0.913607,0.56027 1.985889,0.79656 2.835802,1.4545 0.825404,0.78278 1.899267,1.35097 2.884483,1.75147 0.537668,-0.26814 0.928735,0.95524 1.559382,0.18273 0.425117,0.0178 1.783769,-0.49332 1.551552,0.33006 -0.345981,1.55446 1.033336,-0.51384 0.862184,-1.13148 -0.641006,-0.5713 -2.176818,0.36256 -2.643244,-0.73562 -0.818274,-0.48849 -1.585737,-0.97858 -2.461816,-1.43167 -0.967393,-0.64787 -1.993258,-1.22532 -3.080548,-1.63379 -1.009728,-0.4273 -1.885212,-1.07626 -2.921965,-1.43309 -1.057975,-0.13715 -1.428418,-0.88954 -2.430684,-1.016 -1.075112,-0.32158 -1.984125,-0.9524 -3.010441,-1.37313 -0.690912,-0.4111 -0.933655,-0.67059 -1.556581,-1.04142 -0.759332,-0.41143 -1.329614,-1.03979 -2.065802,-1.34979 -0.750525,-0.62944 -1.759353,-1.08699 -2.653372,-1.64292 -1.193385,-0.58137 -2.367185,-1.23894 -3.411113,-2.05528 -0.497028,-0.24699 -1.535694,-1.78885 -0.29855,-1.11078 0.714714,0.53152 1.582659,0.54912 2.356624,0.94659 0.735452,-0.10785 1.308551,0.31028 1.972916,0.32784 0.885442,0.25895 1.567642,0.39482 2.369323,0.75466 0.659186,0.25753 1.261608,0.50556 1.650009,0.70598 0.693625,0.36821 1.387034,0.65122 2.064936,0.80465 0.713926,0.53439 1.600357,0.68516 2.475273,1.15088 0.941913,0.0109 2.065288,0.29917 3.030145,0.63669 0.866166,0.35606 1.624554,0.98071 2.598635,1.14308 0.913181,0.47298 1.843288,0.89775 2.727799,1.44022 0.659697,0.10133 1.552454,0.75484 2.30109,1.16871 0.896417,0.7062 1.91174,1.07385 2.838665,1.6951 0.689201,-0.1848 1.5295,-0.80647 2.398975,-0.72064 0.231826,0.7985 -0.283205,1.83157 -0.78498,2.52893 -0.28433,0.58548 -1.322557,1.58804 -1.062297,1.98272 0.895473,-1.29358 1.611652,-2.71273 2.445312,-4.05072 0.818177,-1.00861 -0.460047,-1.24563 -1.234,-1.01408 -1.165419,-0.11133 -1.468708,-1.35277 -2.491633,-1.77015 -0.865687,-0.51273 -1.744727,-1.08784 -2.60994,-1.65199 -0.829809,-0.65306 -1.870997,-0.96513 -2.598398,-1.72873 -0.807652,-0.33209 -1.057114,-0.81549 -1.832298,-1.09848 -0.988384,-0.43429 -1.680464,-1.30904 -2.644405,-1.77843 -0.754499,-0.69874 -1.615878,-1.3032 -2.603928,-1.68156 -0.907881,-0.6883 -1.846149,-1.34484 -2.859578,-1.84184 -0.266927,-0.33092 -0.987083,-0.55344 -0.914419,-0.80041 -0.968684,-0.49693 -1.888838,-1.2081 -2.740778,-1.88302 -1.299166,-0.85428 -2.325618,-2.0864 -3.701519,-2.84892 -0.617933,-0.20712 -0.880841,-1.05551 -0.03641,-0.39028 0.977159,0.21825 1.917801,0.47385 2.846569,0.81699 0.822214,0.42254 1.666448,0.83445 2.425718,1.25223 0.879433,0.20932 1.5744,0.92745 2.507928,1.17461 1.045921,0.39956 2.029228,0.89679 3.063661,1.29979 0.977874,0.25467 1.799922,0.7474 2.647719,1.27002 0.01436,-0.29287 0.565628,0.42916 0.845144,0.16846 0.82292,0.48328 1.635407,0.79182 2.47989,1.22742 1.013156,0.33544 1.516271,1.29348 2.437533,1.70391 0.851988,0.429 1.606732,0.98099 2.419596,1.47404 0.821973,0.56269 1.53234,0.95133 2.377006,1.54279 0.794207,0.93134 1.972776,0.78322 2.471784,1.67583 0.795581,-0.16831 1.647421,-0.73802 2.516441,-0.35122 0.0103,1.18898 0.60542,-0.80002 -0.37808,-0.47485 -1.1607,0.19784 -1.93194,-0.54998 -2.687739,-1.23036 -0.895576,-0.62504 -1.775012,-1.27902 -2.64575,-1.94068 -0.789582,-0.43984 -1.412971,-0.93934 -2.142417,-1.42199 -0.744101,-0.79931 -1.67621,-1.16498 -2.650695,-1.59694 -0.884167,-0.42218 -1.531603,-1.14678 -2.283572,-1.67334 -0.596652,-0.57743 -1.25788,-0.9143 -1.931218,-1.40384 -1.02419,-0.29865 -1.869891,-0.98256 -2.829757,-1.39043 -0.952506,-0.65639 -1.965565,-1.18734 -2.961567,-1.76537 -1.03635,-0.59113 -2.103361,-1.15767 -3.120016,-1.79991 -0.85931,-0.60726 -1.80905,-1.09048 -2.555789,-1.86323 -0.475537,-0.53937 -1.788252,-1.33701 -1.726782,-1.7899 0.842633,0.29911 1.596603,0.7787 2.441502,1.04673 0.55815,0.44697 1.205027,0.44371 1.845117,0.58889 0.69294,0.27968 1.415308,0.59465 2.034358,0.80761 0.619413,0.1921 0.973903,0.50072 1.502581,0.60234 0.778576,0.48818 1.708455,0.74061 2.508925,1.15748 0.861313,0.41056 1.939137,0.43286 2.679611,1.04683 0.768687,0.65929 1.842308,0.53992 2.598748,1.17628 0.736797,0.11406 1.509631,0.7001 2.167606,1.09783 0.827599,0.25174 1.433443,0.45342 1.826385,1.24888 0.885756,0.22705 1.609458,0.76925 2.331491,1.21988 0.653435,0.56135 1.464357,0.57198 2.06499,1.19222 0.835088,0.72219 1.805378,1.2882 2.531378,2.13821 0.83639,0.26574 1.21773,0.35125 1.95674,0.79962 0.69185,-0.59796 2.08181,-0.0694 2.48226,-0.35954 -0.28014,-1.08465 -2.135,0.12474 -2.55189,-1.12797 -0.91878,-0.52999 -1.76018,-1.25068 -2.5574,-1.91267 -0.736898,-0.5692 -1.636545,-1.17497 -2.503103,-1.60525 -0.96301,-0.62465 -1.791797,-1.11368 -2.854952,-1.50222 -0.894869,-0.73678 -1.788801,-1.46687 -2.841255,-1.95251 -0.919627,-0.55738 -1.777265,-1.13562 -2.611079,-1.77078 -0.967036,-0.48607 -1.749465,-1.21143 -2.594214,-1.89179 -0.848882,-0.69832 -1.64928,-1.45499 -2.496694,-2.1812 -1.075537,-0.93108 -2.08322,-1.94888 -3.295754,-2.70109 -1.205502,-0.81458 0.760271,0.0213 1.194874,0.103 1.048127,0.32836 1.936402,0.94404 2.923338,1.38736 0.820074,0.28307 1.332775,0.76599 2.307512,1.2525 0.78999,0.33436 1.483114,0.99964 2.399258,1.19608 0.880437,0.43338 1.759522,0.88524 2.643413,1.31344 0.915415,0.22719 1.859852,0.53414 2.718457,1.0234 0.766273,0.31039 1.277174,1.45931 2.234594,1.20146 0.78338,0.35723 1.424479,0.54631 2.043376,0.94983 0.593819,0.2781 0.917839,0.86953 1.400949,0.60332 0.93998,0.43177 1.51783,1.31012 2.37598,1.86621 0.58921,0.48905 1.14194,1.18638 1.92947,1.37394 0.5637,0.3737 1.70944,-0.62853 2.54328,-0.18866 0.38328,0.25942 0.16824,0.58928 0.50059,-0.10475 -0.21822,-1.08872 -1.96356,-0.28476 -2.54795,-1.24508 -0.75018,-0.62765 -1.38933,-1.52195 -2.35086,-1.83468 -0.85376,-0.75848 -1.76602,-1.41152 -2.74195,-2.00649 -0.871155,-0.40656 -1.767114,-1.15713 -2.597242,-1.49749 -1.015738,-0.25604 -1.834016,-1.35057 -2.835354,-1.75609 -0.865581,-0.59866 -1.758813,-1.18643 -2.634351,-1.7728 -0.905418,-0.7017 -2.096948,-1.11662 -2.930568,-1.82119 -0.758135,-0.63116 -1.597578,-1.31668 -2.510182,-1.78959 -1.043553,-0.64613 -2.112339,-1.19029 -3.219716,-1.69864 -0.922676,-0.586 1.511453,0.0763 1.971247,9.4e-4 0.948381,0.0415 1.759418,0.33035 2.659357,0.62923 0.891912,0.36703 1.80209,0.68053 2.577014,1.17299 0.823307,0.3724 1.494244,0.61542 2.370742,0.88051 0.993681,0.105 1.723486,1.06188 2.668399,1.07566 0.797919,0.55466 1.42542,0.21912 2.113668,0.78625 0.418674,0.12163 1.161222,0.51946 0.398171,-0.10591 -0.884457,-0.61045 -1.796344,-1.00246 -2.70005,-1.65814 -0.679074,-0.66009 -1.706513,-1.08879 -2.468754,-1.8195 -0.676158,-0.82665 -1.670356,-1.2712 -2.375651,-2.07 -1.191034,-0.92371 -2.255752,-2.00307 -3.533328,-2.80373 -0.484884,-0.19438 -1.527692,-0.70154 -0.398304,-0.38961 1.056519,0.0973 2.169741,0.37889 3.105028,0.74078 0.797786,0.23612 1.655367,0.96564 2.37013,1.20463 0.887521,0.73304 1.922573,1.21517 2.924911,1.77348 0.917251,0.44217 1.446375,0.48535 2.224319,0.85075 0.897594,0.31763 1.870664,0.30292 2.708984,0.97075 0.46995,0.48977 0.82933,1.0695 1.57633,0.93737 0.75693,0.29297 1.79957,0.38388 2.4213,1.01275 0.97614,0.18434 1.95274,0.54592 2.58261,1.46688 0.82547,0.33064 1.74277,0.69701 2.44451,1.34092 0.39222,0.4394 0.60719,0.55955 1.11213,0.65179 0.4844,1.03936 1.96584,-0.46031 2.92859,0.24349 -0.21572,-0.85477 -2.19984,-0.0558 -2.5592,-1.22329 -1.03868,-0.3714 -1.69236,-1.30842 -2.70066,-1.7373 -0.6758,-0.5921 -1.38465,-1.31984 -2.21532,-1.47354 -1.11526,-0.17713 -1.89963,-1.14602 -2.87287,-1.43387 -0.84345,-0.13358 -1.54377,-0.95385 -2.4474,-1.09124 -1.079743,-0.24469 -1.946201,-1.02652 -2.987263,-1.29793 -0.827,-0.52094 -1.833685,-0.94524 -2.654043,-1.50984 -0.948631,-0.56394 -1.840308,-1.20244 -2.714535,-1.87523 -0.820679,-0.58468 -1.559786,-1.31001 -2.407647,-1.87613 -0.472441,-0.28107 -1.095001,-1.0314 -0.218235,-0.44095 1.036219,0.18406 1.960407,0.58589 2.922015,0.76539 0.763954,0.35558 1.655688,0.71543 2.2887,0.89938 0.85661,0.40735 1.677268,0.9122 2.625912,0.99549 0.91511,0.14062 1.899035,0.4341 2.776426,0.66114 0.62044,0.11664 1.2459,0.40973 1.75361,0.2213 0.74877,-0.10585 1.36447,1.08518 2.11542,0.61948 0.8213,0.56408 1.62339,1.14924 2.63317,1.18305 0.80364,0.24377 1.44132,0.69655 2.21184,1.14127 0.56666,0.75703 1.61296,0.68281 2.10571,1.65389 0.76274,0.10325 1.2791,0.97509 1.80297,1.51468 0.574,-0.17973 1.11726,0.62643 1.77874,-0.0417 0.53619,-0.25679 2.14982,-0.64581 1.66601,0.47068 0.87752,-1.46224 -1.7123,-0.66425 -2.31631,-1.49955 -0.40757,-0.92413 -1.48569,-1.11992 -2.13099,-1.84357 -0.74304,-0.50679 -1.18513,-1.31839 -2.11021,-1.51429 -0.93624,-0.72084 -2.10412,-0.79223 -3.12751,-1.29516 -1.02789,-0.37751 -1.90182,-1.10326 -3.00129,-1.47192 -0.91809,-0.25791 -1.74817,-0.83537 -2.5758,-1.22021 -0.89221,-0.35635 -1.522359,-1.05569 -2.395423,-1.50049 -0.992359,-0.471252 -1.727696,-1.345072 -2.702852,-1.853524 -0.840522,-0.574454 -1.652915,-1.179611 -2.479644,-1.801174 -0.324788,-0.269457 -1.803226,-1.230944 -1.3324,-1.304159 1.031568,0.272145 1.864391,0.574765 2.842801,0.775826 1.01566,0.375669 2.03532,0.844952 2.986946,1.258945 0.772858,0.310232 1.631473,0.620225 2.397732,0.958338 0.91822,0.322916 1.83878,0.82774 2.76372,0.944157 0.77025,-0.01645 1.32757,0.617908 1.91387,0.449822 0.71853,0.248239 1.27374,0.396099 1.91161,0.489039 0.50401,0.76311 1.24914,0.71097 2.03163,0.84313 0.82582,0.38343 1.71258,0.80425 2.68976,1.14939 0.76355,0.69464 1.86001,0.61988 2.40344,1.52995 0.37673,0.53742 1.39261,0.86545 1.73566,1.23296 0.28798,0.0515 0.48783,0.77541 0.96077,0.63043 0.12639,0.93781 1.47087,-0.38066 0.35823,-0.51327 -0.74891,-0.81227 -1.66077,-1.48984 -2.53328,-2.17317 -0.71077,-1.11633 -1.96362,-1.59132 -2.86355,-2.48951 -0.73578,-1.048376 -2.16242,-0.869124 -2.87114,-1.941799 -1.00995,-0.332343 -1.66666,-1.175608 -2.60163,-1.658861 -0.74008,-0.711242 -1.727,-1.35217 -2.48228,-2.20097 -0.72536,-0.749969 -1.47902,-1.480699 -2.11864,-2.304193 -0.91927,-0.918061 -1.74803,-1.922034 -2.640571,-2.865016 -0.311227,-0.550049 0.977351,0.41781 1.321031,0.408762 0.83795,0.236013 1.51398,0.75797 2.29196,1.102852 0.80473,0.650704 1.61125,1.27018 2.37006,1.962448 0.75901,0.40903 1.45375,1.117263 2.21173,1.421791 0.58881,0.514489 1.38525,0.847443 2.03782,1.117636 0.7747,0.631943 1.77116,0.696985 2.33523,1.386855 1.1857,-0.02573 1.94752,1.001871 3.02098,1.288591 0.9898,0.465797 1.33811,1.683272 2.38726,2.049584 0.73986,0.3676 1.26178,1.22487 1.90609,1.87239 0.39195,1.18362 1.95109,0.3524 2.3116,-0.0434 -1.14257,-0.15677 -1.92726,-0.96522 -2.6198,-1.80002 -0.95043,-0.584716 -1.46828,-1.738072 -2.4636,-2.14473 -0.68775,-0.550878 -1.66258,-0.891846 -2.16999,-1.686453 -0.80395,0.04188 -1.20466,-0.589563 -1.90472,-1.054687 -0.62182,-0.903256 -1.77787,-1.257731 -2.53369,-2.025986 -0.76219,-0.668732 -1.44561,-1.409985 -2.10988,-2.195137 -0.63117,-0.968434 -1.44253,-1.76878 -2.09674,-2.721564 -0.54128,-0.779002 -1.11635,-1.837765 -0.83223,-2.748853 0.11706,-0.49726 0.83439,0.509047 1.11329,0.651428 0.54006,0.517601 1.27135,0.953413 1.78019,1.701403 0.46543,0.734914 1.21156,1.217223 1.80197,1.816101 0.78177,0.53077 1.42627,1.17565 2.28627,1.34511 0.57793,0.65059 1.3545,0.452501 1.92627,0.957781 0.94389,0.205082 1.04844,1.018615 1.95264,1.217908 0.90522,-0.182922 1.44956,0.988323 2.23566,1.250941 0.94138,0.351192 1.45598,1.174707 2.3208,1.669591 0.5552,0.979086 1.49029,1.458678 2.21619,2.224088 0.41205,0.94109 1.36924,0.205694 2.13571,0.01124 -0.90101,-0.226001 -1.85501,-0.662903 -2.29921,-1.418685 -0.81761,-0.778518 -1.55509,-1.647554 -2.45969,-2.343166 -0.82763,-0.763238 -1.81115,-1.308403 -2.71594,-2.012424 -1.04947,-0.577344 -1.92555,-1.297109 -2.95145,-1.928102 -0.97649,-0.526883 -1.55973,-1.486329 -2.47166,-2.08069 -0.76922,-0.86699 -1.53804,-1.687893 -2.36007,-2.515884 -1.03392,-1.185414 -2.08091,-2.400578 -3.49645,-3.138346 -0.43591,-0.805983 0.68332,0.388729 1.16384,0.181033 0.84308,0.15769 1.70061,0.481546 2.43287,0.821202 0.81121,0.511169 1.55981,1.063948 2.30354,1.64492 0.84419,0.567178 1.60092,1.255147 2.45353,1.795035 0.46427,0.05187 1.25774,0.507233 1.91843,0.94011 0.94438,-0.03575 1.45127,1.118321 2.4383,1.248377 1.01061,0.281066 1.8383,0.957704 2.84457,1.323501 0.6337,0.738304 1.45863,1.089352 2.04803,1.855165 0.82911,0.457457 1.04867,1.760934 2.00273,2.095466 0.15882,0.903182 1.748,0.220139 2.04686,0.05142 -1.00758,-0.437112 -2.2026,-0.822615 -2.67482,-1.840224 -0.65169,-0.911656 -1.56309,-1.560989 -2.39605,-2.29832 -0.81603,-0.591921 -1.60772,-1.240422 -2.38982,-1.912857 -0.62903,-1.01204 -1.84056,-1.273743 -2.52575,-2.246127 -0.83089,-0.605091 -1.58044,-1.400021 -2.30048,-2.186602 -0.89172,-0.61878 -1.47544,-1.574465 -2.17132,-2.405085 -0.62305,-0.877613 -0.96164,-1.923286 -1.88183,-2.561674 -0.64449,-0.8487 0.95851,0.384855 1.33624,0.386782 0.70331,0.460441 1.59518,0.631315 2.09339,1.329127 0.63249,0.201222 1.18238,0.914018 1.79049,1.291235 0.70486,0.63279 1.57024,1.086058 2.39578,1.520244 0.70604,0.398601 1.34837,0.867519 2.09268,1.289975 0.45925,1.135393 1.72332,0.732934 2.49271,1.559082 0.93737,0.362296 1.57804,1.18191 2.32678,1.661139 0.59808,0.964583 1.57495,1.523769 2.20537,2.515769 0.56835,0.304204 0.5589,1.198217 1.43179,0.759375 0.56844,0.09777 1.46287,-0.258206 0.43956,-0.536838 -1.03896,-0.191906 -1.79829,-0.901205 -2.47743,-1.608279 -0.70914,-0.926114 -1.76283,-1.575623 -2.58327,-2.429539 -0.73602,-0.74504 -1.50032,-1.428753 -2.23193,-2.173231 -0.72444,-0.81992 -1.68797,-1.38718 -2.34376,-2.332323 -0.58613,-0.681192 -0.6842,-1.161331 -1.00476,-1.611892 -0.68636,-0.728763 -0.58823,-1.331325 -1.21082,-2.197921 -0.56046,-0.929159 -1.07795,-1.923563 -1.31488,-2.999648 0.15089,-0.740374 0.085,-1.271475 0.72991,-0.671245 0.79462,0.293285 1.70594,0.258724 2.42567,0.573071 0.80165,0.266688 1.32448,0.787284 2.15996,1.174402 0.61427,0.43097 1.2107,0.690962 1.8823,1.058742 0.68243,0.365937 1.36655,0.667153 2.13726,0.996573 0.49238,1.002946 1.99317,0.981304 2.79825,1.855031 1.09478,0.214177 1.50345,1.586043 2.54453,1.682629 0.9944,0.512534 1.47632,1.660992 2.37576,2.267656 0.17175,0.719046 2.84248,0.02804 1.2288,-0.255846 -1.15218,-0.124342 -1.82361,-0.97614 -2.51241,-1.782094 -0.77924,-0.775976 -1.61024,-1.478736 -2.41829,-2.196171 -0.96218,-0.697734 -1.94949,-1.271927 -2.96355,-1.860124 -0.62554,-0.867248 -1.84482,-0.961834 -2.57888,-1.725819 -0.75693,-0.562946 -1.73004,-1.133014 -2.34669,-1.910177 -0.46799,-0.717578 -1.77448,-1.736778 -0.92013,-2.601475 0.51659,0.635543 1.60059,0.546154 2.07361,1.257328 0.64158,0.501885 1.41474,0.834632 2.14252,1.196539 0.79938,0.482959 1.38568,0.643959 2.23094,0.937054 1.06235,0.165108 1.93978,0.922977 2.90616,1.424335 1.04378,0.373794 1.85779,1.117876 2.84643,1.602674 0.7706,0.733857 1.70057,1.455772 2.38509,2.310718 0.5312,0.734073 1.13161,1.179301 2.13043,1.097138 0.90056,-0.728156 -0.14027,-1.023235 -0.90562,-1.154615 -1.24355,-0.317077 -1.41866,-1.780957 -2.52009,-2.347151 -0.72576,-0.685276 -1.48402,-1.055283 -2.408,-1.477578 -0.75608,-0.598265 -1.84407,-0.765924 -2.46636,-1.520099 -0.9202,-0.57916 -1.86619,-1.122878 -2.84599,-1.640215 -0.94163,-0.688674 -1.86389,-1.398858 -2.66487,-2.259109 -0.19343,-0.35175 -1.04023,-1.338927 -0.52796,-1.344825 0.68491,0.314273 1.64809,0.266861 2.19252,0.800879 0.74134,0.369588 1.40659,0.763067 2.13734,1.159577 0.76496,0.272867 1.6277,0.522677 2.47706,0.874839 1.12386,-0.08872 1.62038,0.98067 2.61491,1.017163 0.9593,0.372349 1.91002,0.799814 2.85981,1.205717 1.01509,0.518045 1.77047,1.346643 2.63323,2.066374 0.5002,0.216702 0.56833,1.008918 1.21691,0.79532 0.50032,0.04612 1.40454,-0.17683 0.39689,-0.380142 -0.94189,-0.380249 -1.64705,-1.113946 -2.1354,-1.976577 -0.64125,-0.740799 -1.43576,-1.326591 -1.96887,-2.145204 -0.77489,-0.550674 -1.54653,-1.259101 -2.38764,-1.759785 -0.85328,-0.651157 -1.68812,-1.311485 -2.62996,-1.824866 -0.59541,-0.66625 -1.62222,-0.951978 -1.9715,-1.853808 -0.81792,-0.70429 -1.30122,-1.813741 -1.61163,-2.841877 -0.11416,-0.660221 0.8459,0.724041 1.16593,0.211057 0.43969,0.482946 1.07392,0.801446 1.62176,1.206148 0.50847,0.596332 1.2945,1.054414 1.87366,1.531794 0.61038,0.388611 1.70627,0.631179 2.5246,1.082403 0.60382,0.424661 1.01628,0.808961 1.82823,0.85004 0.8687,0.636493 1.92368,1.009567 2.68804,1.711073 0.26486,0.478172 1.14453,1.340991 1.37568,1.278674 -0.52666,-0.907743 -1.37778,-1.407331 -1.94263,-2.173732 -0.97382,-0.416401 -1.57774,-1.417746 -2.42669,-2.008371 -0.35078,-0.885655 -2.51833,-1.42379 -0.93241,-2.222261 0.32616,-1.339718 1.76566,-0.06846 2.5088,0.184451 0.55774,0.88371 1.73193,0.968702 2.47853,1.65989 0.8759,0.361563 1.52896,1.040729 2.29051,1.563362 0.58415,0.622077 1.21798,1.289717 1.54973,2.063394 0.58882,9.24e-4 1.40164,-0.227093 0.34841,-0.53066 -0.89614,-0.557568 -1.41808,-1.488097 -2.05303,-2.29671 -0.99033,-0.925274 -1.92795,-1.912693 -3.00992,-2.736937 -0.62438,-0.711045 -1.7146,-0.986507 -2.46529,-1.642622 -1.00733,-0.771422 -2.09005,-1.407996 -3.04584,-2.244251 -0.45609,-0.23378 -1.89559,-1.076499 -1.6276,-1.291315 1.10827,0.14229 2.0961,0.669763 3.17932,0.917497 0.86263,0.383336 1.66169,0.734212 2.46239,1.180378 1.01628,0.426827 2.2004,0.645489 3.13352,1.270255 0.90867,0.427678 1.75799,1.015694 2.57995,1.574416 0.40847,0.316352 1.21282,0.516276 0.41391,-0.06733 -0.94339,-0.812623 -1.5846,-1.950334 -2.64981,-2.607331 -0.67504,-0.567156 -1.11779,-1.321881 -1.69244,-1.924318 -0.51548,-0.526215 -0.89128,-2.21142 -0.15996,-2.357058 0.72885,0.138399 1.6473,0.167675 1.83613,1.085781 0.26761,0.618763 0.82116,0.828245 1.40812,0.945852 0.62821,0.500616 1.16924,1.189831 2.0169,1.379247 0.84836,0.566996 1.69931,1.163827 2.46134,1.847085 1.03336,1.011381 -0.20997,-0.920413 -0.54619,-1.286063 -0.71973,-0.781631 -1.59225,-1.441847 -2.33343,-2.194559 -0.83997,-0.497173 -1.43079,-1.233028 -2.1716,-1.881997 -0.66906,-0.746555 -1.17551,-1.624289 -1.33527,-2.628273 -0.38907,-0.593376 -0.0197,-1.425432 0.50025,-0.759667 0.91197,0.259688 1.48307,1.08687 2.0959,1.744079 0.49213,0.473155 1.04312,0.851931 1.67246,1.125563 0.68327,0.644327 1.52909,0.846673 2.27809,1.387439 0.89897,0.118812 1.82039,1.402761 2.21079,1.507086 -0.52341,-0.8945 -1.07114,-1.742564 -1.77466,-2.494364 -0.49088,-0.958213 -1.54981,-1.310197 -2.09345,-2.241242 -0.64261,-0.650972 -1.29233,-1.482517 -1.35866,-2.469127 -0.0918,-0.612915 0.59258,-1.891431 0.85657,-0.962412 0.82038,0.661426 1.43923,1.35225 2.14801,2.110028 0.55358,0.377732 1.44931,0.533701 1.64063,1.280441 0.4684,-0.04 1.95556,1.284649 1.10257,0.172974 -0.66054,-0.810437 -1.41881,-1.334813 -1.90089,-2.300988 -0.79135,-0.768887 -1.49363,-1.764488 -1.35917,-2.923574 0.28594,-0.516884 0.71945,-1.934964 1.02928,-0.692513 0.62192,0.625491 0.97419,1.467553 1.59091,2.032085 0.60366,0.27729 1.22419,1.12563 1.47909,1.394244 0.78199,0.338286 1.69488,0.979174 2.37304,1.565904 0.82862,0.610388 1.17753,1.62409 2.05427,2.1778 1.42372,0.09237 -0.92163,-0.434969 -0.88692,-1.114818 -0.50182,-0.854558 -0.78774,-1.787655 -1.07539,-2.61235 -0.27592,-0.844986 -0.95453,-1.43394 -1.13056,-2.278017 -0.25225,-0.768933 -0.48652,-1.563902 -0.71385,-2.363238 -0.12879,-0.763332 0.91478,-2.115409 1.26521,-1.861304 0.23681,0.651818 0.65609,1.257649 0.96047,1.839659 0.40851,0.619265 0.7709,1.336512 1.28571,1.883084 0.30064,0.410212 1.44382,2.191596 1.08238,0.925461 -0.71393,-0.933692 -1.30797,-1.947278 -2.04116,-2.865736 -0.73806,-1.052287 -1.27185,-2.457328 -0.73449,-3.708458 0.67651,-1.110999 1.12135,0.529006 1.65913,1.021924 0.35724,0.859704 1.02555,1.448978 1.67353,2.106922 0.25116,0.675534 1.19528,0.817407 1.46187,1.523093 0.10845,-0.838638 -0.4499,-2.02881 -0.37923,-3.027675 0.095,-0.940983 0.15224,-1.913228 0.79566,-2.669453 0.54227,-0.738337 1.45812,-1.113164 1.94778,-1.849475 0.26215,-0.49909 1.31751,-1.674012 1.25622,-0.634758 0.3164,0.86521 0.23499,1.510904 0.4737,2.35649 0.32978,0.803118 0.90576,1.399441 1.33934,2.211015 0.50233,0.652889 0.88043,2.141329 1.75187,1.968465 0.0614,-0.386269 -1.25649,-0.589207 -1.06924,-1.40805 -0.15615,-1.16464 -0.62438,-2.227072 -0.91064,-3.353452 -0.48467,-0.883075 -0.6089,-2.009416 -0.33949,-2.956211 0.16368,-0.816653 0.9484,-1.229185 1.3597,-1.910117 0.23407,1.385784 0.49243,-1.805273 0.92969,-0.718004 0.92925,0.361332 0.92024,1.639257 1.71068,2.049181 0.43298,1.051927 1.49452,1.66715 1.99451,2.717529 -0.0312,0.510114 1.32213,1.539473 0.51072,0.616409 -0.50631,-0.93776 -0.4444,-2.13134 -0.99009,-3.082723 -0.35483,-0.99212 -1.04551,-1.848044 -1.14845,-2.931375 -0.59478,-0.930469 -0.19087,-1.959847 0.57222,-2.632989 0.27335,0.445675 1.05808,1.309055 1.42755,2.012794 0.49884,0.76483 0.95006,1.46953 1.37639,2.261297 0.29407,0.781139 0.78132,1.557402 1.16372,2.31553 0.90971,0.579102 -0.37204,-0.652338 -0.27809,-1.136647 -0.11488,-1.018506 -0.66741,-1.787027 -1.09554,-2.656212 -0.50279,-1.031447 -1.25842,-2.092083 -0.99579,-3.31211 0.41576,-0.811061 0.86497,-1.612174 1.38896,-0.41146 -0.1725,-0.77426 0.1637,-1.470285 0.91857,-1.759885 0.4739,0.704855 1.07407,1.601405 1.73883,2.274705 0.84299,0.778636 1.74948,1.497686 2.44336,2.443569 0.0984,0.736119 1.8951,0.877166 1.11339,0.129559 -0.99508,-0.64724 -0.6819,-2.013441 -1.20242,-2.954052 -0.14106,-1.094208 -0.60188,-2.108358 -0.66908,-3.215989 -0.25303,-0.778899 0.4255,-1.744921 0.92039,-1.875449 0.57865,0.735431 1.02758,1.512868 1.48806,2.316916 0.25039,0.859395 0.4969,1.690365 0.84845,2.530715 0.10197,0.523761 0.65617,1.604786 1.10252,1.071877 -1.12445,-0.559878 -0.93091,-1.947794 -1.05881,-2.991381 -0.0454,-0.863868 -0.78445,-2.159499 -0.402,-3.202701 0.10128,-0.454822 1.53968,-1.302453 1.55415,-1.084425 0.0897,0.783779 0.66211,1.459131 0.77891,2.300401 0.32222,0.933558 0.31203,2.143717 0.89943,2.905311 1.43014,-0.09566 -0.63156,-1.247428 -0.25926,-2.094163 -0.17562,-1.117612 -0.61454,-2.187236 -0.83017,-3.279315 -0.21782,-0.850996 0.2223,-2.124608 0.79691,-2.495896 0.24816,1.001471 0.96125,1.878753 1.5164,2.741808 0.61884,0.901534 0.31279,2.362942 1.27242,3.008354 1.11552,-0.01889 -0.26731,-1.42703 0.11125,-2.147258 0.0628,-0.813537 -0.1956,-1.686636 0.20764,-2.438969 0.36246,-0.851766 0.85894,-1.656884 1.63416,-2.187796 -0.0475,1.009236 0.35751,2.014116 0.30782,3.044792 -0.35794,0.649153 0.7888,2.340727 0.51786,0.939506 -0.28385,-1.118046 -0.25245,-2.362213 0.0927,-3.472264 0.0577,-0.787854 1.02092,-1.450718 1.49464,-1.650373 0.10148,1.197289 0.0422,2.476362 0.48323,3.60045 0.0632,0.33135 -0.81791,1.117015 -0.009,0.584989 1.00927,-0.76117 0.38366,-2.297156 0.88664,-3.361827 0.17003,-0.854452 1.32904,-2.230292 1.81383,-2.188244 0.0615,1.093803 -0.27451,2.282487 -0.17393,3.372343 0.41003,-0.120168 -0.43999,1.108918 0.40408,0.239022 0.73931,-0.883635 0.9995,-2.030725 2.02171,-2.692504 0.84703,-1.037422 0.43573,0.607836 0.50914,1.116866 0.14427,-0.782822 0.78952,-1.912015 1.46724,-1.768376 0.40744,0.827143 0.73291,-1.40713 1.45766,-0.805806 0.33475,-0.907534 1.06602,-1.033384 1.56157,-1.838046 0.70668,-0.354984 0.52754,-1.501717 0.56708,-2.204138 0.0296,-0.741763 -1.07904,-1.355251 -0.84316,-1.820136 1.31864,0.889397 1.86843,2.874104 0.98895,4.245541 -0.34843,1.080882 -1.21723,1.856382 -1.88208,2.746369 -0.61468,0.809914 -1.60001,1.245857 -2.34389,1.805686 0.55091,0.242771 1.74805,-1.073557 1.72263,-0.566951 -0.85884,0.747216 -2.01684,1.068018 -3.0632,1.442385 -1.53619,0.361057 1.4187,0.147272 1.93735,-0.06825 0.93516,-0.235384 -0.6408,0.660044 -1.03126,0.468856 -1.10563,0.302249 -2.21744,0.643585 -3.36786,0.657122 -0.65925,0.167821 -0.89839,0.317989 -0.21679,0.528465 0.5797,0.195391 1.63152,-0.635522 1.91849,-0.30318 -0.90487,0.517548 -1.85272,0.871538 -2.88582,1.103059 -0.38345,0.186167 -1.59265,0.297879 -1.54938,0.516643 0.95595,0.364904 2.00548,-0.08376 2.99555,0.178604 -0.79426,0.23064 -2.00855,0.534513 -2.90341,0.972926 -0.87343,0.403701 -1.92161,0.292777 -2.68993,0.811503 0.76806,0.294489 2.12478,0.403196 3.1675,0.370538 0.64612,0.03371 2.16048,-0.714953 2.26796,-0.20855 -1.0303,0.627993 -2.10608,1.400181 -3.35012,1.489459 -1.01803,0.214153 -2.06674,0.09413 -3.10389,0.36124 -0.88374,-0.28881 -1.83185,0.301914 -2.21227,0.963373 0.5838,-0.279515 1.45748,-1.353301 1.58137,-0.335846 1.10008,0.153716 2.1754,-0.432303 3.29629,-0.369215 0.72162,0.06825 2.29011,-0.590544 2.49404,-0.06654 -1.04334,0.404698 -2.1686,0.714442 -3.25212,1.062459 -1.02454,0.400711 -2.21895,0.10594 -3.31211,0.471425 -0.70629,0.389762 -2.29777,0.0078 -2.33342,0.863251 0.47928,-0.363531 0.97835,-0.645852 0.69546,0.230576 1.27936,0.134573 2.58074,-0.284094 3.83943,-0.149598 0.67618,-0.09409 2.65553,0.05457 1.1304,0.659183 -1.177,0.243352 -2.30319,0.712453 -3.50828,0.848826 -0.99117,0.08709 -1.77553,0.240935 -2.77629,0.292677 -1.05604,-0.19324 -1.1604,1.148024 -0.0182,0.749951 1.30359,-0.275624 2.63238,-0.0207 3.93727,0.125919 0.65413,0.111338 1.03922,0.524318 0.12675,0.584056 -1.50011,0.176426 -3.00464,0.278822 -4.50461,0.415833 -0.77175,0.297631 -2.5183,-0.203382 -2.59496,0.727826 1.05119,-0.08335 2.11224,-0.23349 3.15759,-0.0315 0.94587,-0.362103 1.65321,0.445973 2.60764,0.548756 0.50946,0.350131 1.3582,0.696211 0.1737,0.688012 -1.98299,-0.04596 -3.96988,-0.241424 -5.95206,-0.14388 -0.63299,0.05797 -2.35798,0.308946 -2.04656,0.925886 1.07104,-0.334337 2.20066,-0.124808 3.26924,-0.23952 0.77014,-0.176546 2.288,-0.252478 2.65532,0.225643 -1.03429,0.367332 -2.28775,0.255218 -3.22607,0.786356 -1.19584,0.369305 -2.41191,-0.0631 -3.57345,0.422379 -0.7239,-0.03911 -1.25888,0.700878 -1.37582,1.400774 1.11314,0.289089 2.18296,0.544778 3.25708,0.815177 0.97886,0.160933 1.90155,0.515644 2.88209,0.674542 0.0699,0.28797 -1.76671,0.52058 -0.94966,0.856814 -0.40245,0.392527 -1.67299,0.25021 -2.33118,-0.05371 -1.08444,0.208323 -2.16674,0.464343 -3.25494,0.667896 -1.04835,0.0015 -2.0578,0.335037 -3.08508,0.271624 -0.53667,0.08107 -1.48302,0.247196 -0.98969,0.417399 -1.32378,0.311017 0.97625,0.418355 1.39957,0.614057 0.97848,0.327386 1.9456,0.611554 2.92165,0.910487 1.09763,0.08478 1.9366,0.679498 2.95263,0.964579 -0.84635,0.03578 -1.92345,-0.02163 -2.86727,0.204473 -0.91171,-0.264931 -1.87968,0.06496 -2.76166,-0.132762 -1.08521,-0.411599 -2.22325,-0.528695 -3.3948,-0.57202 -0.61614,-0.101296 -0.92206,0.366775 -1.36603,0.544385 1.08929,0.112814 2.18451,0.626188 3.17378,1.11475 0.77558,0.271558 1.44525,0.735007 2.20778,1.124927 -0.19437,0.419935 -1.64277,-0.09284 -2.25486,0.06837 -1.09486,-0.257274 -2.25966,-0.08113 -3.33223,-0.413104 -0.37812,-0.333515 -2.21931,-0.552633 -1.37799,0.30028 -0.54664,-0.07641 -1.4397,0.757248 -0.36301,0.352605 1.1165,0.0735 2.20135,0.495853 3.30389,0.624308 0.63709,0.623835 1.60464,0.318583 2.38326,0.741366 0.27051,0.324844 1.55807,1.044759 1.0166,1.246014 -1.03601,0.10595 -2.12757,-0.08932 -3.16371,-0.109293 -1.0408,-0.0408 -2.06398,-0.128572 -3.13436,-0.257213 -0.86836,-0.0628 -2.17241,-0.679299 -2.82269,-0.06235 0.13262,0.654447 -1.35262,-0.01269 -0.95829,0.694355 1.12825,-0.254787 2.21496,0.24437 3.3035,0.48538 0.97885,0.342195 1.82665,0.662872 2.79148,0.894461 0.69851,0.276113 1.41368,0.380876 1.79901,0.981491 -0.27527,1.266572 -2.06208,0.48184 -2.96464,0.396274 -0.92691,-0.231952 -1.99421,-0.114929 -3.03397,-0.289511 -0.94646,-0.223496 -1.88601,-0.42752 -2.8649,-0.439887 -0.54693,-0.313263 -2.20637,0.433335 -0.91452,0.519582 1.1395,-0.06483 2.05926,0.650478 2.9287,1.287279 0.50435,0.30013 0.95798,0.810643 1.45446,1.04443 1.15714,0.15575 1.81934,1.364185 2.66872,1.988823 -0.29478,0.313907 -1.86233,-0.09212 -2.44764,-0.555967 -0.86352,-0.119315 -1.77589,-0.346648 -2.59491,-0.607991 0.21412,0.448295 1.53825,0.583083 2.07796,1.095367 1.00312,0.490352 2.34858,0.556219 3.04969,1.54779 0.0974,0.473239 1.05675,0.736126 0.0632,0.56091 -1.1559,0.387981 -2.42079,-0.238496 -3.57269,-0.463198 -0.97124,-0.310813 -2.02628,-0.448936 -3.02593,-0.820334 -1.11465,-0.490482 -2.44357,-0.318298 -3.65314,-0.488843 -0.65822,-0.08772 -1.91327,-0.189978 -1.35468,0.788523 1.02506,0.15975 2.07433,0.144203 3.10471,0.321302 1.10172,-0.01345 2.06997,0.572031 3.04074,0.975175 1.03925,0.238412 1.8152,0.960662 2.82214,1.178202 0.96161,0.06487 1.67375,0.842234 2.50996,1.100938 1.14842,0.108913 0.37031,1.447326 -0.51384,1.255132 -1.13394,-0.426765 -2.31863,-0.617217 -3.46113,-0.975703 -0.96793,-0.333716 -1.96694,-0.655738 -2.98139,-0.802213 -0.86045,-0.316163 -1.89108,-0.624959 -2.90203,-0.569389 -1.22706,-0.05807 -2.44153,-0.279713 -3.65691,-0.129784 -1.0858,0.802111 1.04565,0.51699 1.55622,0.588314 1.03574,0.06453 2.02712,0.322211 3.0327,0.569541 0.88424,0.558648 2.04954,0.67716 2.90239,1.149611 0.98155,0.24648 2.13621,0.4337 3.20525,0.455809 0.90611,0.131568 1.87081,0.286447 2.59585,0.891414 0.59678,0.511117 1.71112,0.982735 2.19832,1.213309 -1.09231,0.151525 -2.17789,-0.193507 -3.16669,-0.542242 -1.69382,-0.206068 -3.40358,-0.121819 -5.10217,-0.285734 -0.99019,-0.227058 -2.1076,-0.03843 -2.98108,-0.61883 -1.13995,0.127858 -2.24927,-0.419466 -3.40375,-0.330474 -1.01095,-0.04096 -2.02221,0.01284 -3.0292,0.101182 -0.20051,0.503394 -0.10122,0.766344 0.4746,0.646586 0.94908,0.01095 1.89862,0.09637 2.76848,0.431997 1.09386,0.298523 2.17605,0.75932 3.22315,1.240844 1.05361,0.147264 1.81148,0.7824 2.78938,1.023295 1.00522,0.216322 2.0249,0.4708 2.90183,1.003637 0.32669,0.431998 1.5054,0.700859 0.42638,0.858711 -1.05531,-0.24203 -2.10784,-0.567244 -3.15779,-0.156126 -0.93082,-0.02059 -1.70861,-0.152578 -2.51518,-0.371521 -1.11736,-0.0973 -2.22404,-0.473078 -3.29536,-0.772258 -1.00777,-0.01341 -2.36052,-0.423394 -3.17144,-0.278431 0.87267,0.287167 1.66425,0.769091 2.51198,1.127121 0.67922,0.722382 1.59448,0.766833 2.37682,1.277136 0.54332,0.826185 1.79,0.551211 2.55548,1.1404 0.91618,0.359394 1.66716,1.788983 0.10989,1.657824 -0.72689,-0.110921 -1.85038,-0.846681 -2.39726,-0.401255 0.86412,0.744924 1.66384,1.529691 2.62314,2.176251 0.73338,0.678096 1.56858,1.115954 2.32275,1.760535 0.78712,0.692526 1.68874,1.861955 2.79355,1.76872 -0.43565,0.257706 -1.09416,0.63168 -0.13658,0.565628 -0.49869,0.416444 -1.79143,-0.202536 -2.56627,-0.356997 -1.06524,-0.09856 -2.09579,-0.277532 -3.17489,-0.405812 -1.21208,-0.04249 -2.37073,-0.414361 -3.56803,-0.532155 -0.98809,-0.274474 -2.02686,-0.536867 -3.02068,-0.675248 -1.29296,-0.01222 -2.34976,-0.47174 -3.5872,-0.726295 -1.10789,-0.194102 -2.16345,-0.05604 -3.2213,-0.460358 -1.08418,-0.193016 -2.18744,-0.03999 -3.27269,-0.115769 -0.0966,-0.875893 -1.16997,0.92705 -0.26366,0.125293 0.73218,-0.343713 0.3293,1.025752 1.1173,0.619555 1.18758,0.03035 2.37152,0.114014 3.50431,0.496097 1.06433,0.309561 2.04289,0.588998 3.06896,0.962051 0.66752,0.4553 1.94555,0.07551 2.49451,0.792508 0.89303,0.04981 1.73612,0.578668 2.60111,0.74823 1.34636,0.149575 2.70888,0.191747 4.02504,0.492139 0.72396,0.165401 2.26811,0.571228 2.36514,1.097014 -1.95439,-0.36069 -3.95688,-0.06742 -5.91692,-0.114775 -1.1473,-0.114112 -2.27617,-0.274217 -3.4256,-0.32044 -1.09801,-0.199585 -2.24174,-0.260463 -3.36276,-0.381053 -1.05063,-0.215769 -2.0338,-0.5035 -3.06103,-0.562834 -1.14935,-0.374893 -2.38209,-0.445225 -3.55181,-0.719491 -0.80631,0.101045 -1.89424,-0.19662 -2.43191,-0.294165 0.21354,0.405655 -0.91391,1.03132 0.0742,0.559822 0.69842,-0.331371 1.45082,0.699033 2.36376,0.343525 1.10252,0.02464 2.14718,0.536238 3.0893,1.025978 0.85713,0.648196 1.83483,1.022561 2.61983,1.751141 0.97561,0.213493 1.66551,1.063013 2.4106,1.577818 0.32148,0.346508 1.13752,0.541122 1.78274,0.824543 0.86557,0.457008 1.90806,0.569498 2.81009,0.998424 0.80059,0.364302 1.67906,0.636233 2.37522,1.201455 0.44119,0.288869 1.46669,0.30198 0.38477,0.557447 -0.80343,0.02914 -2.06524,-0.62483 -2.57584,-0.326897 0.86159,0.417647 1.75104,0.785826 2.64404,1.157465 0.83586,0.272115 1.59367,1.019678 2.44049,1.05802 -0.81566,0.658141 -1.84082,-0.07323 -2.67199,-0.258673 -1.08751,-0.01772 -2.06097,-0.711665 -3.15591,-0.691676 -1.13744,-0.375496 -2.34988,-0.37235 -3.51842,-0.577989 -1.08138,-0.111762 -2.11081,-0.327156 -3.18528,-0.330743 -0.9849,0.179645 -1.96282,-0.351914 -2.99542,-0.191269 -1.0104,-0.259564 -1.77872,-0.859479 -2.85349,-0.791203 -0.95741,-0.195283 -1.96364,-0.436128 -2.94995,-0.57918 -1.17477,-0.323726 -2.43017,-0.306995 -3.60678,-0.31876 -0.49175,-0.085 -0.77267,-0.934336 -0.8351,-0.01315 0.73684,0.08709 0.15208,1.411948 0.93374,1.092832 0.66309,0.139731 1.4102,0.321471 2.13017,-0.07976 0.43174,0.597458 1.93313,0.04902 2.11775,0.709244 0.90804,0.178819 1.73257,0.41072 2.42964,0.82789 1.00037,-0.01765 1.68376,0.545026 2.57767,0.885089 0.9519,0.160088 1.71384,0.703293 2.57314,0.799308 0.99266,0.319965 2.00933,0.47658 2.96632,0.870613 1.08903,0.135074 2.10433,0.619659 3.20235,0.73846 0.60255,0.268602 1.99621,0.0084 2.05981,0.690433 -1.20857,0.03918 -2.40912,0.235032 -3.61826,0.23218 -0.9559,-0.09812 -1.91833,-0.15919 -2.87221,-0.250811 -1.07949,-0.226443 -2.13908,-0.09639 -3.22853,-0.258366 -1.03977,-0.311987 -2.10097,-0.289357 -3.05822,-0.636064 -0.92536,-0.37093 -1.96653,-0.09172 -2.81173,-0.71586 -0.99899,-0.29649 -2.04358,-0.315541 -3.0694,-0.52477 -1.1209,-0.31231 -2.31282,-0.327022 -3.43806,-0.646541 -0.94156,-0.212501 -0.8017,1.750167 -0.0279,1.862036 0.36786,0.351871 1.52084,1.415576 0.24055,1.094494 -0.98397,-0.200696 -2.19598,0.135196 -2.9277,0.665911 -0.27582,0.492919 -1.55088,-0.615034 -0.78747,0.416228 -0.16133,0.923637 0.75934,0.653593 1.36274,0.937444 0.94754,-0.06624 1.978,0.620572 2.74025,0.972872 1.04775,-0.23752 1.69343,0.90224 2.62774,1.13591 0.61438,0.6344 1.63048,0.67577 2.13303,1.44842 0.72014,0.23615 1.09448,0.74878 1.74081,1.12063 0.87813,0.30466 1.69943,0.63558 2.5765,0.95194 1.02234,0.26731 2.01116,0.60256 2.98242,0.9897 0.89702,0.38365 1.86883,0.68706 2.76712,1.11744 0.28099,0.52336 2.21276,0.90988 0.68869,0.91203 -1.13724,-0.33345 -2.25626,-0.73367 -3.44105,-0.87043 -1.11452,-0.10964 -2.24775,-0.67666 -3.34759,-0.55411 -1.12593,-0.33536 -2.32928,-0.45423 -3.50958,-0.54495 -1.00112,-0.16618 -2.09132,-0.1958 -2.99445,-0.65494 -0.91116,-0.48709 -1.93492,-0.65295 -2.78876,-1.29815 -0.54413,-0.19351 -1.23682,-0.0951 -0.32029,0.2808 0.56023,0.52527 1.6011,0.66621 1.96716,1.27138 0.61149,-0.21963 0.7997,0.59434 1.55446,0.711 0.90728,0.30647 1.33553,1.13919 2.15337,1.41263 0.76014,0.36011 1.31731,0.81938 2.09553,1.12623 0.90352,0.64295 2.05882,0.86592 2.91081,1.58267 0.82468,0.5858 1.63724,1.12546 2.35693,1.86829 0.21944,0.40418 1.68609,1.0714 0.47106,0.84764 -1.10605,-0.57261 -2.22156,-1.14709 -3.43587,-1.43759 -1.09556,-0.51665 -2.30023,-0.63086 -3.41653,-1.0303 -0.7183,-0.3377 -1.72093,-0.52675 -2.60256,-0.78419 -0.77349,-0.41093 -1.79325,-0.37221 -2.52472,-0.92406 -0.87139,-0.31504 -2.06206,-0.16767 -2.61758,-1.03445 -0.85802,0.11428 -1.72478,-0.61147 -2.58009,-0.86657 -0.88522,-0.327 -1.95013,-0.37752 -2.94046,-0.67606 -1.01882,-0.0886 -2.04221,-0.49436 -2.44567,-1.33076 0.40175,0.52808 0.45577,1.40522 0.61386,1.90492 0.52817,-0.15837 0.69206,-0.16096 0.79582,0.16275 1.02098,-0.17429 1.78753,0.27063 2.58678,0.63517 0.9151,0.0974 1.57347,0.43961 2.37672,0.7077 0.49959,0.60428 1.18541,0.78861 1.84555,0.91723 0.32017,0.38761 0.86836,0.75113 1.58819,0.94843 0.62143,0.36729 1.24819,0.63267 1.75183,1.28354 0.64906,0.20148 0.84319,0.653 1.57583,1.02939 0.59634,0.5018 1.49304,0.89506 2.09958,1.25133 0.86383,0.41215 1.81109,0.63236 2.63088,1.03823 0.75584,0.54999 1.90221,0.64017 2.52891,1.31402 0.52595,0.27545 1.31782,1.11843 0.0999,0.95486 -1.58551,-0.20953 -3.09935,-0.68068 -4.6477,-1.04579 -1.14563,-0.23356 -2.1885,-0.42161 -3.33395,-0.72156 -0.94287,-0.29778 -1.57696,-0.43465 -2.51126,-0.86359 -0.71779,-0.59612 -1.73402,-0.60178 -2.54375,-1.19847 -0.97113,0.11837 -1.55747,-0.76037 -2.65888,-0.87077 -1.05283,-0.35007 -1.77715,-1.05445 -2.87241,-1.31855 -1.14615,-0.19071 -2.20001,-0.59443 -3.33133,-0.82246 -0.63014,0.0696 -1.58354,-2.32299 -1.1098,-0.85348 0.18306,0.6903 0.24599,1.91171 1.00478,1.6516 0.0258,0.30858 0.73195,-0.13293 0.88394,0.1704 1.11695,-0.16728 1.68241,0.7728 2.68318,0.82475 0.80771,0.1958 1.53358,0.73437 2.32743,1.18834 0.74582,0.34561 1.45425,0.69213 1.94501,1.27311 0.74044,0.31776 1.96977,0.80919 2.12661,1.29123 0.64186,0.28774 0.37088,0.52336 1.08702,0.73906 0.46787,0.17271 0.60945,0.44508 0.82384,0.73829 0.80635,0.25793 1.21707,1.10641 2.04983,1.42151 0.75484,0.42862 1.46213,0.86683 2.31721,1.22496 0.9396,0.3727 1.88959,0.61781 2.68411,1.23177 0.6161,0.35291 1.20709,0.809 1.60607,1.4013 0.35096,0.28631 2.24428,0.94637 0.82022,0.763 -1.1215,-0.35516 -2.21141,-0.8261 -3.38426,-0.98368 -0.7734,-0.36757 -1.59057,-0.45063 -2.30795,-0.86797 -0.86161,0.11959 -1.81333,-0.29368 -2.71967,-0.45747 -0.85821,-0.35167 -1.7047,-0.65875 -2.50221,-0.99501 -0.97832,-0.42808 -1.95578,-0.78246 -2.85236,-1.43495 -0.66589,-0.10908 -1.00116,-0.55376 -1.56596,-0.63487 -0.61647,-0.26086 -1.47607,-0.82511 -2.25768,-1.08292 -0.94687,-0.51863 -1.80467,-1.14088 -2.8229,-1.5024 -1.11063,-0.29945 -2.25651,-0.5851 -3.35463,-0.86122 -1.10746,0.0653 -1.3641,-2.61754 -2.36387,-0.97785 -0.68623,1.06759 0.8108,-1.04247 1.06287,0.1964 0.26987,0.69494 0.1697,1.57982 1.04936,1.60724 0.75758,0.47654 1.79328,0.87259 2.7555,0.7682 0.25042,0.5178 1.09275,0.23566 1.32111,0.88205 0.87884,0.32758 1.656,0.83554 2.41544,1.2793 0.84487,0.50781 1.359,1.55165 2.33093,1.78395 0.6635,0.37357 0.8436,1.10562 1.48257,1.28278 0.53149,0.42022 0.89127,0.72286 1.58239,1.1633 0.61826,0.64883 1.43904,1.01041 2.16414,1.48116 0.7495,0.34228 1.28915,0.54196 1.99415,0.98076 0.79232,0.42412 1.71759,0.76655 2.37899,1.45882 0.65686,0.30085 1.23988,1.00012 2.00682,0.95757 -0.97234,0.45961 -2.28881,0.10305 -3.33134,-0.15001 -0.46266,-0.20908 -2.04967,-0.82137 -0.88851,-0.16836 0.74421,0.37258 1.41751,1.06689 2.2736,1.053 -0.96668,0.70247 -2.1993,-0.20561 -3.28026,-0.16943 -1.5479,-0.23778 -3.10292,-0.41251 -4.65045,-0.63034 -0.98751,-0.12367 -2.14563,-0.14389 -3.1695,-0.42812 -0.92767,0.0102 -1.85293,-0.44324 -2.81045,-0.52693 -0.94666,-0.29212 -1.92443,-0.28695 -2.85635,-0.70077 -0.76445,-0.63055 -1.73064,-0.84734 -2.59658,-1.23796 -0.9212,-0.52669 -2.09982,-0.42345 -3.04237,-0.96436 -0.92802,-0.21654 -2.09872,-0.31732 -2.64823,-1.25698 0.046,-0.62972 -0.79252,-0.6871 -0.81382,-0.2079 0.90232,-0.24442 0.49071,1.63789 1.04698,1.95092 0.93833,-0.005 1.89264,-0.0634 2.63155,0.62135 0.95799,0.26907 2.22534,-0.0943 3.0497,0.74697 0.83957,0.40928 1.57008,1.02793 2.53349,0.98391 0.76309,0.46332 1.8752,0.59662 2.49358,1.21321 0.54451,0.63463 1.60234,0.61873 2.25535,1.13813 0.83191,0.32525 1.67969,0.60096 2.56041,0.84444 0.86151,0.38332 1.78041,0.54647 2.64558,0.88255 0.94575,0.21358 1.73446,0.87064 2.51253,1.32316 0.33059,0.39942 1.48715,0.94288 1.35852,1.03467 -1.08929,0.071 -2.15441,-0.6082 -3.28648,-0.65835 -1.95205,-0.37987 -3.94109,-0.47595 -5.90527,-0.76104 -0.6879,-0.13307 -1.55829,-0.34644 -2.44566,-0.49757 -0.99005,-0.25493 -1.93839,-0.65654 -2.99671,-0.76657 -1.02362,-0.31233 -2.04203,-0.37402 -3.02333,-0.81977 -0.9074,-0.66253 -1.88989,-0.7961 -2.94105,-1.0633 -0.91546,-0.225 -1.76683,-0.61069 -2.69993,-0.74086 -0.99073,0.0797 -1.59213,-1.01058 -2.09885,-1.47737 0.63724,0.59572 0.41315,1.71366 0.82635,2.30589 0.68503,-0.19264 0.98801,0.5219 1.73634,0.43182 0.65464,0.72668 1.76475,0.41665 2.6115,0.48072 0.6541,0.28217 1.21151,0.57788 1.94991,0.59631 0.95152,0.60379 2.02155,0.41357 3.02923,1.0284 0.66156,0.55837 1.76953,0.0181 2.13902,0.84698 0.83286,0.25789 0.93524,0.63135 1.6565,0.91874 0.73392,0.17287 1.45068,0.5422 2.00129,0.80042 0.77933,0.33333 1.44092,0.63577 2.28019,1.01911 0.91574,0.25411 1.8238,0.4991 2.70731,0.63194 0.73338,0.28294 1.57376,0.67406 2.37754,0.94217 0.49373,0.28942 1.78686,0.70563 1.73941,1.01476 -1.84465,-0.0557 -3.69179,-0.241 -5.50231,-0.58954 -1.22347,0.0642 -2.39916,-0.28758 -3.58799,-0.50134 -0.88931,-0.10464 -1.99017,-0.24829 -2.91737,-0.63516 -1.00832,-0.47604 -2.10985,-0.54176 -3.17151,-0.87251 -1.02961,-0.28885 -2.04151,-0.15821 -3.07271,-0.40372 -0.92312,-0.9744 -2.22307,-0.62781 -3.31245,-1.15094 -1.06076,-0.19002 -2.1318,-0.32176 -3.15727,-0.68987 -1.07373,-0.13969 -2.47881,-0.44164 -2.89731,-1.67396 -0.53152,-0.16802 -0.81463,0.93743 -0.98184,1.12077 1.13619,-0.92464 0.76997,1.76752 1.55556,1.73093 0.87594,0.25205 1.62282,0.47412 2.36706,0.82136 0.60427,0.58321 1.49524,0.42086 2.10415,0.83368 0.83968,0.52229 1.91894,0.81526 2.54827,1.62278 1.05448,-0.20238 1.55788,0.78978 2.55191,1.08753 0.96998,0.38972 1.44885,1.32689 2.43676,1.56657 0.85885,0.44186 1.67319,1.21163 2.48684,1.55386 0.57539,0.38773 1.62038,0.57559 2.0524,1.05057 0.87838,0.47047 1.7113,0.99602 2.63238,1.46343 0.67952,0.52059 1.32645,1.05216 2.07985,1.45567 0.32718,0.33116 1.98231,0.80629 1.51984,1.11412 -1.54802,-0.0816 -3.02755,-0.55664 -4.40385,-1.24763 -0.92065,-0.37324 -1.84842,-0.75403 -2.81302,-1.08533 -0.97017,-0.35032 -1.9957,-0.56047 -2.99195,-0.84818 -1.21901,-0.60977 -2.51045,-1.10482 -3.83092,-1.42034 -0.93024,-0.48583 -1.97908,-0.72296 -2.91978,-1.19701 -0.81372,-0.73756 -2.00115,-0.66174 -2.83116,-1.32853 -0.72106,-0.64383 -1.75407,-0.83757 -2.67459,-0.95914 -0.97218,-0.55015 -2.0993,-0.65728 -3.08172,-1.11507 -0.4004,-0.21456 -0.84998,-1.91358 -1.13637,-0.9457 -0.18007,0.54222 1.07696,1.56046 0.0512,0.82467 -0.4589,-0.91646 -0.68049,0.36835 -0.0167,0.55179 0.27668,0.69462 0.70287,1.2235 1.31511,1.27968 1.13849,0.24466 2.14306,0.75729 3.30989,0.88238 0.93174,0.0306 1.73996,0.57124 2.6384,0.94868 0.8089,0.32532 1.56311,0.78477 2.37447,1.12584 0.84723,-0.25835 1.52826,0.44959 2.20757,0.82637 0.79557,0.23445 1.1703,0.89326 1.93993,1.15985 0.80976,0.28749 1.62173,0.67971 2.44712,1.04522 0.67307,0.28228 1.06675,0.83869 2.03678,0.9356 0.82778,0.38505 1.60582,0.7095 2.40994,1.06383 0.76942,0.24144 1.75297,0.5721 2.25041,1.07668 0.89752,0.47068 1.72691,1.02059 2.48504,1.68755 0.64776,0.30362 0.51026,0.8244 -0.27419,0.36531 -1.56067,-0.70082 -3.26648,-0.85754 -4.90541,-1.28517 -1.08462,-0.2657 -2.19129,-0.39999 -3.26544,-0.66676 -1.08442,-0.16331 -2.1113,-0.58422 -3.20101,-0.80052 -1.05092,-0.20643 -1.89342,-0.75795 -2.92416,-0.95552 -1.01579,-0.31899 -1.95834,-0.83297 -2.98468,-1.1323 -1.05938,-0.32747 -1.94233,-0.96361 -3.05668,-1.16688 -0.95209,-0.31772 -1.8992,-0.56298 -2.88175,-0.84271 -0.98668,-0.186 -1.97742,-0.47251 -2.89685,-0.88097 -1.20307,0.3971 -1.22887,-2.10442 -2.114044,-1.21875 -0.337122,0.54166 0.01911,0.47414 0.233774,0.28465 0.6596,0.74398 0.341817,2.16206 1.54048,2.24615 0.92269,0.31814 2.03633,0.28428 2.76407,1.01097 0.95919,0.0879 1.90741,0.50291 2.78155,0.90287 0.99132,0.55999 2.0294,1.02946 3.11162,1.30687 0.85963,0.31961 1.55803,0.88449 2.30738,1.31242 0.62489,0.46806 1.14183,0.63962 2.02243,0.7689 0.3231,0.35367 1.45027,0.69468 2.05734,1.11045 0.6492,-0.0667 -0.33763,0.30223 0.49673,0.34456 0.81381,0.30029 1.54646,0.90822 2.43172,1.16348 0.36437,0.4501 1.2466,0.84359 1.77356,1.34584 0.98067,0.39517 1.83126,0.98641 2.64578,1.65484 0.53932,0.44139 1.70741,1.19568 1.86123,1.4959 -1.079,-0.14625 -2.35456,-1.01714 -3.22741,-0.96779 -0.87918,-0.61589 -2.24976,-0.57245 -3.2542,-1.1654 -1.14561,-0.3391 -2.30069,-0.62337 -3.43825,-0.9823 -0.90867,-0.44673 -1.85963,-0.5638 -2.84727,-0.82291 -0.78514,-0.24656 -1.48946,-0.59045 -2.21852,-0.81959 -0.98509,-0.0974 -1.8071,-0.54198 -2.73708,-0.77461 -0.88882,-0.39804 -1.54796,-0.84087 -2.40701,-1.08353 -0.71585,-0.22124 -1.33556,-0.40083 -2.03125,-0.71312 -0.94673,-0.55077 -2.10789,-0.55846 -3.128923,-0.93109 -0.900377,-0.62749 -2.461008,-0.38317 -2.757023,-1.70461 -0.200114,-0.92002 -0.964,-0.32264 -0.361465,0.0908 -0.715113,-0.8178 -0.677923,0.83023 -1.339776,1.0518 0.253372,0.0719 1.064898,-1.01309 1.17616,0.0275 0.503207,0.68731 -0.01018,1.77388 1.193508,1.48463 0.336749,0.50972 1.156013,0.40938 1.82284,0.61928 0.936389,0.43183 1.824559,0.8605 2.807969,1.03212 0.74263,0.2997 1.51454,0.81685 2.3482,1.08361 0.81173,0.57938 1.83262,0.64276 2.72509,1.02374 0.72486,0.57764 1.81114,0.81021 2.32982,1.46797 0.75791,0.29391 1.30085,0.65112 2.06231,1.00179 0.75331,0.54852 0.97468,0.51898 1.70614,1.15186 0.86895,0.25533 1.34424,1.19642 2.29217,1.47057 0.76788,0.52929 1.72423,0.93623 2.3688,1.62218 0.66412,0.42526 1.05643,1.21342 1.56122,1.85395 0.44332,0.77682 1.68165,2.15121 1.74582,2.56535 -1.12269,-0.44033 -1.88223,-1.40834 -2.74765,-2.12433 -1.22377,-0.16123 -2.00476,-1.29521 -3.21655,-1.57442 -0.9263,-0.29076 -1.80778,-0.66849 -2.70459,-0.97842 -0.91868,-0.47781 -1.92741,-0.77702 -2.83349,-1.24793 -0.78116,0.0338 -1.36474,-0.79714 -2.17829,-0.83186 -1.18147,-0.1906 -2.25859,-0.75453 -3.36893,-1.13645 -0.97868,-0.41572 -2.03664,-0.65112 -2.98173,-1.09149 -1.00588,-0.20149 -1.847386,-0.96543 -2.895833,-0.99258 -0.95927,-0.26445 -1.873381,-0.62587 -2.805683,-0.96635 -1.068795,-0.0885 -1.751976,-0.83293 -2.082089,-1.76102 -0.693858,-0.224 -0.857457,1.14878 -0.402183,1.0278 0.65908,0.71245 0.132134,2.08355 1.39754,2.13241 0.78593,0.68092 2.044791,0.81008 3.043872,1.05488 0.981182,0.30923 1.86648,0.8471 2.860616,1.0923 0.75628,0.653 1.95143,0.48448 2.63126,1.16094 0.71686,0.39355 1.72074,0.27711 2.34979,0.85447 0.56475,0.41688 1.69193,0.67023 1.75836,1.27884 0.86569,-0.20679 1.68228,0.25495 2.31581,0.67769 0.83487,0.26895 1.52249,0.63953 2.33012,0.88462 0.0148,0.44431 1.37227,0.6083 1.50694,1.03102 0.90556,0.39341 1.21007,0.86774 1.89588,1.33299 0.52158,0.64103 1.20812,1.39616 1.05361,2.35159 -0.56781,0.76385 -0.97208,-0.90406 -1.84464,-0.61523 -1.00102,-0.232 -1.93484,-0.6042 -2.839,-0.93179 -1.13406,-0.24488 -2.21882,-0.67656 -3.34848,-0.96704 -0.47776,-0.0667 -1.28125,-0.4681 -0.48062,0.16522 0.68837,0.5994 0.91831,1.7452 1.18714,2.63591 -0.33935,1.14051 -0.51921,0.0408 -0.42969,-0.54105 -1.05355,-0.35647 -2.14085,-0.63096 -3.21415,-0.94921 -1.28913,-0.41836 -2.41202,-1.19061 -3.71564,-1.56775 -0.97453,-0.21454 -1.833053,-0.68539 -2.845733,-0.71331 -0.91378,-0.29495 -1.842504,0.0407 -2.826386,-0.20367 -0.97342,0.10153 -1.94725,-0.1081 -2.924959,0.12634 -1.131904,0.20086 -2.314235,0.20581 -3.431895,0.20914 -1.151139,0.17621 -1.474367,-2.54505 -2.394929,-1.0387 -0.551277,1.07616 -1.363763,2.0276 -1.892076,3.13786 -0.301223,0.26603 -0.895586,1.87985 -0.296703,1.02119 0.423848,-1.08462 1.015312,-2.13127 1.67318,-3.09225 0.926268,-1.33403 1.702167,0.89563 1.67959,1.72417 0.923141,0.121 1.296184,0.81472 2.176845,0.89819 0.966004,0.15473 1.698892,0.73763 2.617601,1.1444 0.849257,0.2462 1.70057,0.38311 2.330997,0.95426 0.680256,0.46372 1.446497,0.85486 2.132284,1.25486 0.746516,0.47933 1.611554,0.77299 2.433914,1.28293 0.74978,0.30339 1.18849,0.96049 1.95521,1.15948 0.73782,0.40593 1.30317,0.86865 1.98885,1.36725 0.71866,0.31539 1.04996,0.87736 1.75397,1.13438 0.63952,-0.007 0.007,0.4984 0.87293,0.49765 0.29219,0.0642 0.0936,0.4632 0.69787,0.49618 0.15109,0.39018 0.76418,0.4512 1.01415,0.77554 0.72031,0.11348 0.46606,0.57852 1.33082,0.72088 -0.0118,0.56105 1.23216,0.92822 1.59967,1.56783 0.90212,0.62387 1.66759,1.51541 2.80428,1.80687 -0.0538,0.5637 -1.71419,0.0984 -2.35361,-0.0647 -1.21885,-0.35718 -2.32297,-1.01561 -3.47556,-1.50755 -0.85253,-0.41177 -1.79491,-0.73007 -2.65781,-1.14308 -1.17282,-0.34022 -2.30081,-0.84101 -3.37254,-1.3224 -0.83204,-0.1733 -1.62928,-0.91035 -2.403697,-0.84418 -0.645687,-0.24104 -1.250632,-0.95155 -1.682441,-0.91284 -0.828476,-0.43623 -1.694559,-0.86182 -2.559958,-1.2204 -0.739833,-0.35381 -1.428763,-0.76148 -2.153861,-1.18755 -0.920868,-0.33512 -1.876545,-0.74809 -2.809748,-1.14132 -0.607344,-0.77287 -1.749734,-0.52216 -2.527775,-1.04603 -0.912448,-0.56378 -2.258,-0.37421 -2.841351,-1.36753 0.08595,-0.92539 -0.896318,-1.70224 -1.158006,-0.43406 -0.282195,0.61609 -0.728953,0.91331 0.08236,0.37522 0.59797,0.68664 0.926662,1.52588 0.937014,2.41999 0.923168,0.31942 1.603528,1.16893 2.679969,1.25312 0.873959,0.13601 1.693564,0.64827 2.461461,1.13591 0.70934,0.40096 1.765429,0.92416 2.052201,1.28014 0.784585,0.50706 1.659764,0.533 2.351211,0.99904 0.640258,0.34676 1.443123,0.85358 1.733227,1.11785 0.99207,-0.0235 1.439208,0.77441 2.317259,1.06105 0.694512,0.37027 1.260859,0.86215 1.915159,1.26524 0.77493,0.35941 1.52904,0.68023 2.04821,1.22845 0.88115,0.37688 1.20423,0.85467 1.87517,1.26069 0.28543,0.39695 1.09747,0.80063 1.41865,1.36934 0.98616,0.46708 1.72687,1.27155 2.45536,2.05856 0.4552,0.19227 1.90782,1.66652 0.60119,0.9403 -1.2636,-0.30142 -2.44447,-0.84857 -3.68246,-1.21089 -0.86822,-0.56984 -2.00673,-0.76183 -2.80284,-1.42702 -1.09855,-0.35631 -2.13323,-0.81158 -3.24925,-1.08552 -0.695214,-0.12378 -1.492423,-0.74769 -1.958035,-0.65076 -0.820234,-0.53958 -1.653414,-0.67617 -2.594357,-0.99024 -0.983684,-0.47784 -1.859935,-1.15303 -2.897544,-1.43947 -0.957392,-0.0763 -1.783975,-0.84779 -2.716113,-1.16348 -0.990879,-0.24165 -1.794216,-0.95574 -2.597114,-1.47646 -1.123585,-0.36814 -2.188671,-0.76827 -3.28841,-1.16629 -1.398301,0.24773 -1.256822,-1.54672 -1.905191,-2.05547 -0.485847,0.3696 -0.972486,1.40092 -0.988981,1.74494 0.590682,-0.3913 0.72317,-0.67128 0.959818,0.1693 0.466835,0.61079 0.04367,1.64451 0.382766,2.14888 0.775163,0.26467 1.266154,0.77246 2.123799,0.95955 0.592242,0.51041 1.452532,0.55769 1.811914,0.9447 0.847609,0.64844 1.897013,0.96573 2.796015,1.50199 0.439204,0.4457 1.298612,0.53768 1.749657,1.02877 0.724302,0.36658 1.536856,0.81654 2.195043,1.30295 0.991593,0.22014 1.451809,1.4206 2.376675,1.4863 0.87284,-0.1675 1.251808,0.66436 1.902175,1.0246 0.740324,0.26636 1.34467,0.92679 1.842474,1.24841 0.664064,0.38323 1.293025,0.62796 1.839019,0.93649 0.7552,0.47832 1.55359,0.89635 2.33359,1.37476 0.47493,0.56691 1.17616,0.81396 1.88596,1.15123 0.50525,0.55553 1.69185,1.12629 1.39049,2.09926 -0.3487,0.3797 -1.19344,-0.90324 -1.83442,-0.50844 -1.06865,-0.29591 -2.18267,-0.62738 -3.231,-0.8588 -0.98491,-0.44838 -2.084203,-0.41444 -3.072686,-0.82104 -0.445832,-0.0716 -1.375775,-0.38455 -2.0631,-0.55852 -0.829274,-0.16086 -1.474533,-0.56279 -2.382326,-0.85467 -0.910555,-0.54589 -1.944946,-0.78297 -2.78622,-1.47982 -0.768812,-0.61609 -1.730089,-0.73584 -2.485387,-1.39926 -0.713908,-0.21671 -1.349446,-0.84239 -2.071628,-0.84471 -0.748244,-0.52196 -1.58529,-0.81456 -2.357323,-1.37856 -0.68175,-0.48551 -1.532005,-0.51633 -2.335732,-1.11097 -0.959717,-0.32308 -2.084642,-0.48777 -2.75921,-1.28972 -0.2548,-0.62476 -0.461065,-2.45759 -1.305829,-1.18023 0.03345,0.71392 -1.172266,1.73662 -1.022074,1.92822 0.669183,-0.31608 1.147989,-0.96957 1.321344,0.0775 0.448458,0.5403 -0.210014,1.7319 0.420722,1.9645 0.738485,0.34354 1.522503,0.62657 2.20937,0.94611 0.842975,0.2937 1.448153,1.09372 2.40925,1.27057 0.964686,0.52457 1.970238,0.93431 2.893998,1.53358 0.763853,0.48968 1.567552,0.65273 2.314416,1.14125 0.804297,0.36366 1.60015,0.92895 2.251521,1.46335 0.966163,0.23984 1.75091,0.7511 2.556679,1.3521 0.524377,0.48046 1.384488,0.72664 2.022995,1.13198 0.648562,0.50983 1.39726,0.65609 1.856306,1.10274 0.633884,0.44378 1.160246,0.72639 1.6532,1.2622 0.937165,0.58852 1.814614,1.24931 2.590394,2.02579 0.39358,0.36614 1.59214,1.37081 0.27929,0.97754 -1.293636,-0.47156 -2.57096,-0.94471 -3.879307,-1.36041 -1.090505,-0.33463 -2.240049,-0.47695 -3.317702,-0.83298 -0.886819,-0.0968 -1.738632,-0.74732 -2.645649,-1.04009 -1.045352,-0.047 -1.757551,-0.78655 -2.800283,-1.08546 -0.970952,-0.50733 -1.943357,-0.98089 -2.90043,-1.52772 -1.027536,-0.27458 -1.916099,-0.90063 -2.845944,-1.3054 -0.526344,0.20177 -1.780562,-0.63226 -2.480666,-0.94959 -0.689409,-0.46191 -1.408567,-0.82388 -2.28034,-1.00107 -0.858516,-0.31517 -1.664517,-0.93003 -2.549626,-0.99614 -1.046161,-0.15282 -0.72874,-2.86597 -1.828832,-1.6224 -0.398486,0.92939 -1.161475,1.97518 -1.487328,2.73817 0.565335,-0.6475 1.710666,-1.31189 1.717322,0.0642 -0.286579,1.13737 0.570266,1.9701 1.551581,2.2485 0.508053,0.6148 1.357313,0.57157 2.077189,1.04772 0.291343,1.04936 1.660902,0.84586 2.477696,1.55488 0.758011,0.50011 1.470597,1.12115 2.297829,1.6838 0.396361,0.54752 1.45587,0.82143 1.91337,1.56116 0.609966,0.53305 1.213051,1.26866 1.468133,2.04563 0.62053,0.48853 1.59112,1.17325 2.010646,2.09354 0.488675,0.67565 1.255341,1.25912 1.74362,1.96538 0.799709,0.57949 1.632774,1.16482 2.007074,2.07415 0.02414,0.57685 -1.148165,1.23837 -1.431228,1.9481 -0.265152,0.47006 -1.043583,0.77643 -0.711454,-0.14576 0.52865,-1.05008 -1.158579,-0.81922 -0.629934,-1.88209 -0.195532,-0.53275 -0.100956,0.89226 -0.799471,0.39011 -1.090308,-0.14983 -2.147968,-0.62415 -2.929871,-1.34565 -0.843196,-0.56703 -1.408349,-1.38608 -2.210489,-1.97689 -0.653472,-0.34256 -1.284319,-1.5371 -1.653851,-1.6786 -0.631451,-0.18934 -1.290539,-0.88655 -2.078925,-1.10254 -0.812401,-0.68769 -1.681854,-1.31778 -2.593269,-1.84923 -0.846594,-0.63204 -1.799408,-1.0669 -2.647118,-1.68823 -0.968041,-0.36294 -1.932198,-0.64961 -2.811522,-1.11037 -0.758398,-0.31055 0.01149,-2.64058 -0.998731,-1.83918 -0.867664,0.73692 -1.038369,1.92519 -1.772335,2.7361 -0.71101,1.08435 -1.406915,2.22493 -1.92979,3.39886 0.590867,-0.10322 0.754652,-1.66395 1.386141,-2.18334 0.353161,-0.70592 1.554727,-2.26649 2.133014,-1.66802 0.580796,0.67732 0.109002,1.84539 0.553422,2.40543 0.809812,0.25073 0.848821,1.13918 1.77406,1.30676 0.687973,0.54206 1.290379,1.25001 2.023691,1.79855 0.846301,0.36822 1.367727,1.13118 2.02903,1.57963 0.761964,0.61197 1.652783,1.26588 2.31872,2.04295 0.69451,0.61914 1.372608,1.14455 1.843134,1.93573 0.51805,0.77843 1.157035,1.5365 1.89963,2.1348 0.500562,0.69956 1.321584,1.09919 1.784228,1.79276 0.89107,0.57883 1.530082,1.47416 2.189242,2.32904 0.607487,0.86237 1.269439,1.66768 1.980678,2.43545 0.879842,0.64645 1.778426,1.30708 2.754032,1.87485 0.0612,0.44848 -1.546444,-9.1e-4 -2.108761,-0.008 -1.188385,-0.29407 -2.350692,-0.72101 -3.374791,-1.42462 -0.93056,-0.58061 -1.786651,-1.28144 -2.691407,-1.92161 -0.984575,-0.44136 -1.874447,-1.13302 -2.786381,-1.75112 -0.93641,-0.54407 -1.66246,-1.3678 -2.389011,-2.15112 -0.790795,-0.6723 -1.402548,-1.47802 -2.227251,-2.14766 -0.900111,-0.48665 -1.664895,-1.20773 -2.599834,-1.54747 -0.795349,-0.43661 -1.324366,-1.4449 -2.191152,-1.64251 -0.710117,-0.57154 -1.41676,-1.20888 -2.220761,-1.60351 -0.556334,-0.74579 -1.800122,-0.90064 -1.777183,-2.04887 0.270909,-1.05166 -0.827981,-1.40671 -1.070393,-0.35158 -0.420251,1.03264 -1.191601,1.83811 -1.691823,2.84571 -0.442204,0.90298 -1.305826,1.80852 -1.40093,2.7632 0.57886,-0.45718 0.855811,-1.90999 1.56631,-2.61643 0.376782,-0.75825 1.197598,-1.48472 1.822073,-1.68479 0.309495,0.83908 0.503081,1.82102 0.551937,2.74088 0.767985,0.41023 1.224006,1.25608 2.186558,1.41815 0.608453,0.6462 1.309756,1.3393 2.128847,1.74932 0.693877,0.43709 1.196506,1.00638 1.883626,1.49549 0.612054,0.49434 1.120931,1.08699 1.690223,1.49383 0.892605,0.49624 1.636294,1.19365 2.46135,1.78133 0.687536,0.65672 1.036288,1.29278 1.885381,1.74185 0.748138,0.81 1.607462,1.52677 2.452683,2.18658 0.78646,0.7845 1.732262,1.43501 2.412635,2.37633 0.585565,0.88772 1.631761,1.46696 1.963519,2.53926 0.127868,0.568 1.400512,1.86863 0.156238,1.2501 -0.811414,-0.55494 -1.61859,-1.11405 -2.478149,-1.57658 -1.02861,-0.24556 -1.77646,-1.03144 -2.764905,-1.35795 -0.971921,-0.44333 -1.970191,-0.83229 -2.89328,-1.36917 -0.86091,-0.38142 -1.623815,-0.93666 -2.349163,-1.4411 -0.776717,-0.84534 -1.885174,-1.23849 -2.760652,-2.00367 -0.92009,-0.46314 -1.752783,-1.06757 -2.61151,-1.62887 -0.973833,-0.38131 -1.710701,-1.18557 -2.578209,-1.76207 -0.929271,-0.57424 -1.715601,-1.27249 -2.68156,-1.79701 -0.64004,-0.58722 -1.721917,-0.59254 -1.771843,-1.74267 -0.04399,-0.55141 -0.04921,-1.62477 -0.527151,-1.26593 -0.413817,-0.0221 -0.974358,1.62956 -1.455376,2.22426 -0.807599,1.05755 -1.270307,2.31948 -2.011587,3.4224 -0.311066,0.32391 -1.105445,2.10264 -0.303857,1.23056 0.428137,-1.2232 1.280191,-2.24855 2.003813,-3.30854 0.423471,-0.31899 1.339852,-1.51958 1.2838,-0.45887 0.692334,0.70567 -0.0079,2.08515 0.868428,2.58049 0.664662,0.57237 1.43243,0.97229 1.899556,1.68707 0.822416,0.17099 1.26501,1.09696 2.099421,1.20614 0.468807,0.66221 1.352515,0.7962 1.825726,1.42563 0.687493,0.34737 0.995151,1.03961 1.707267,1.38528 0.69697,0.46399 1.37983,1.18524 2.179171,1.59925 0.515369,0.45028 0.965642,0.67638 1.352139,1.20848 0.879864,0.58833 1.649783,1.40837 2.276866,2.29316 0.660139,0.95321 1.435353,2.00419 1.335503,3.22461 -0.4266,0.79731 -0.983615,1.98895 -1.398041,2.54945 -0.926414,-0.50175 -0.782627,-1.65762 -1.451108,-2.32985 -0.808838,-0.59759 -1.583009,-1.26922 -2.419095,-1.81669 -0.715812,-0.58519 -1.5498,-0.872 -2.276777,-1.40653 -0.811847,-0.5919 -1.784928,-0.74932 -2.535451,-1.49843 -0.885915,-0.13789 -1.691466,-0.83443 -2.431318,-1.31341 -0.750806,-0.23259 -1.216053,-0.83342 -1.657073,-1.35366 -0.656469,0.0432 -1.375665,-0.71597 -2.052839,-1.05866 -0.701048,-0.79268 -1.902747,-0.85126 -2.469803,-1.74975 -0.661638,-0.43835 0.06493,-2.57448 -0.934034,-2.02729 -1.429723,2.31426 -2.710277,4.72366 -3.870294,7.18356 0.355436,0.72507 0.550201,-1.03676 1.013408,-1.2964 0.772397,-0.82967 1.293541,-1.95417 2.380248,-2.45397 0.644233,-0.7474 0.471428,0.60683 0.802417,1.09402 -0.10907,0.83202 0.09034,1.55636 0.859158,1.83396 0.304769,0.79364 1.203795,1.56395 1.945798,2.1685 0.704148,0.494 1.027989,1.23433 1.772564,1.77606 0.705494,0.54328 0.914319,1.42112 1.57032,1.95908 0.544034,0.69219 0.93869,1.34746 1.495716,2.01968 0.619395,0.83182 1.29893,1.52094 1.598029,2.49703 0.448119,0.75688 0.967921,1.68262 1.48071,2.53652 0.520741,1.06647 1.299625,1.9656 1.848293,3.00136 0.451893,0.86771 0.834373,1.71939 1.051926,2.74429 0.297309,0.82823 0.879502,2.29174 0.624331,2.83542 -0.978548,-0.0507 -1.384209,-1.1798 -2.086003,-1.61008 -0.619517,-0.72752 -1.449348,-1.47936 -2.077243,-2.28567 -0.716299,-0.49593 -1.443965,-1.29966 -2.035659,-1.88328 -0.600792,-0.3456 -1.098982,-1.48213 -1.576014,-1.64896 -0.439739,-0.59588 -0.580365,-0.64805 -0.991559,-1.29635 -0.574714,-0.71143 -1.022099,-1.01432 -1.698314,-1.86339 -0.840571,-0.60367 -1.462241,-1.43153 -2.20626,-2.138 -0.603875,-0.56944 -0.949878,-0.79557 -1.555159,-1.38536 -0.260816,-0.23845 -0.427395,-1.15576 -0.880273,-0.7166 -0.716326,-0.8192 -1.453773,-1.531 -2.272997,-2.2063 -1.025223,0.0241 -1.242965,-1.92398 -0.939619,-2.87927 -0.946074,-0.44641 -1.203375,1.50365 -1.744614,2.11252 -0.74179,1.42203 -1.498965,2.83833 -2.076551,4.33549 -0.217548,0.43226 -1.308282,1.64288 -0.546601,1.72798 0.273293,-1.38628 1.333814,-2.4086 2.231867,-3.43154 0.355797,-0.38401 1.151546,-0.52597 1.396605,-0.8146 -0.0031,0.90715 0.275485,2.01851 0.291583,2.90803 0.814178,0.43006 1.138941,1.23752 1.944672,1.58597 0.579779,0.81844 1.442499,1.21325 2.117348,1.96449 0.75271,0.60382 1.008628,1.28133 1.741667,1.87226 0.729831,0.67044 1.178052,1.48656 1.899057,2.23056 0.61097,0.72559 1.01305,1.48399 1.78992,2.06588 0.566995,0.83749 1.341908,1.57592 1.97967,2.39213 0.688452,0.89204 1.327168,1.81883 1.996964,2.72079 0.355324,0.77367 0.805174,1.46949 1.11052,2.30282 0.549134,0.61941 -0.557183,0.93894 -0.948487,0.52049 -0.913919,-0.31786 -1.671956,-0.98557 -2.465276,-1.53011 -0.792732,-0.61146 -1.72807,-1.01032 -2.514432,-1.67044 -0.713388,-0.75159 -1.611819,-1.26615 -2.379164,-1.91973 -0.58114,-0.56425 -1.233772,-0.89207 -1.880217,-1.41875 -0.77267,-0.87834 -1.725393,-1.52059 -2.647928,-2.2469 -0.708203,-0.62618 -1.331049,-1.31522 -2.053259,-1.91928 -0.875549,-0.62838 -1.877883,-1.09344 -2.610499,-1.85683 -1.076814,-0.42367 -1.580868,-1.6996 -1.293406,-2.80921 -0.06915,-1.2848 -1.010247,0.54686 -1.162101,1.02337 -0.806085,1.57968 -1.489763,3.21705 -2.177278,4.84629 -0.339048,0.5942 -1.205866,1.60776 -0.91909,2.16865 0.373052,-1.04791 1.125459,-1.96247 1.942246,-2.75009 0.456403,-0.51808 1.553517,-1.23663 1.872139,-1.34843 -0.0066,0.71299 0.326424,1.51562 0.204556,2.26927 -0.249887,0.9586 1.158609,0.92235 0.831506,1.69191 0.742827,0.51559 1.113115,1.32993 1.945905,1.77548 0.442945,0.97567 1.451574,1.62337 2.024822,2.51658 0.352794,0.80138 1.000206,1.40858 1.531881,2.1431 0.693347,0.77981 1.146295,1.65546 1.802679,2.45492 0.605474,0.74342 1.007886,1.41849 1.756995,2.04388 0.733745,0.75881 1.331309,1.53828 2.143239,2.20779 0.83532,0.81944 1.727752,1.57472 2.360691,2.53659 0.426729,0.65062 1.642482,1.82348 1.269799,2.38534 -0.778948,0.0301 -1.890792,-0.85656 -2.405696,-0.85696 -0.745426,-0.64796 -1.725945,-0.76593 -2.490107,-1.41966 -0.964345,-0.37355 -1.847946,-1.05117 -2.698681,-1.67143 -0.848727,-0.50122 -1.37592,-1.26613 -2.192097,-1.81701 -0.731785,-0.54219 -1.544021,-1.36244 -2.201618,-1.74466 -0.742469,-0.71761 -1.425087,-1.49642 -2.158114,-2.22647 -0.898889,-0.6132 -1.632906,-1.44244 -2.501481,-2.08672 -0.905372,-0.71528 -1.812474,-1.50248 -2.534087,-2.39396 -0.70666,-0.81364 -1.145026,-2.07119 -0.664387,-3.13675 -0.55113,0.57172 -1.251458,1.68132 -1.56216,2.5921 -1.077426,1.49261 -1.777522,3.22378 -2.633187,4.84833 -0.06803,0.84818 -1.510491,2.00694 -0.869319,2.62763 0.433637,-1.18603 1.452519,-2.21731 2.628989,-2.79229 0.543324,-0.41539 1.9117,-0.53157 2.127886,-0.54581 -0.338491,0.869 -0.128497,1.73849 -0.642827,2.42335 0.300358,0.0219 -0.532959,1.06934 0.185854,1.40184 -0.019,0.60074 0.39003,1.62525 0.733496,2.40212 -0.412955,0.084 0.550511,1.13462 0.163329,1.40004 0.496994,0.6957 -0.238757,1.75216 -0.111772,2.17034 0.756996,-0.22495 1.579672,0.48687 1.800907,1.00909 0.607589,0.48227 0.538806,0.75395 1.101224,1.41227 0.648074,0.685 0.622183,1.23059 1.196057,1.85309 0.628881,0.81713 1.297398,1.5607 1.858957,2.4291 0.529932,0.85145 1.231549,1.66734 1.605799,2.61005 0.381212,0.7287 0.646019,1.5543 0.896791,2.32555 0.08897,0.6393 0.940578,1.68446 1.032774,1.86455 -0.722894,0.19621 -1.377383,0.0192 -1.897346,-0.30722 -0.781728,-0.61235 -0.847706,-0.5032 -1.495215,-1.35139 -0.671605,-0.25672 -0.868934,-1.05052 -1.485392,-1.42966 -0.676105,-0.75271 -1.1323,-0.69118 -1.830018,-1.50212 -0.927674,-0.90956 -2.008506,-1.68848 -2.847488,-2.72277 -0.282732,-0.38841 -0.558547,-0.79992 -0.585667,-0.41259 -0.334632,-0.53052 -0.618164,-0.91895 -0.847182,-0.85081 -0.442844,-0.62363 -1.019194,-1.17014 -1.289382,-1.48273 -0.23579,-0.23676 -0.576075,-1.33187 -0.517424,-0.69447 -0.436808,-0.40981 -0.645143,-1.40942 -0.864089,-1.04513 -0.358244,-1.09105 -0.841002,-2.14471 -0.949023,-3.27086 -0.174847,-0.3853 0.450849,-2.05999 -0.157249,-1.52653 -0.300061,-0.72668 0.01356,-1.40424 -0.268543,-2.02056 0.399777,-0.60228 -0.03076,-1.45861 -0.283976,-0.37608 -0.281952,0.29472 -0.138602,0.62747 -0.532672,0.93234 0.327694,-0.98719 -0.157788,0.21416 -0.155276,0.4017 -0.571737,0.98038 -1.116653,1.97347 -1.582556,3.02003 -0.804962,1.62662 -1.472593,3.30937 -2.338493,4.90773 -0.62729,1.3605 -1.427983,2.65854 -1.917421,4.07216 0.689712,0.4292 0.627873,-1.31049 1.320269,-1.55423 0.887944,-1.07414 2.28239,-1.84551 3.706169,-1.6327 0.264102,0.48754 -0.355735,1.34076 -0.434759,1.90616 -0.337893,0.34758 -0.0094,1.37333 0.308606,1.65401 -0.849463,-0.0641 0.31674,1.59554 0.223282,1.41771 -0.876464,-0.22929 0.168956,1.57999 -0.553564,2.04749 -0.464486,0.44496 -0.127475,1.42961 0.02472,0.40148 0.93738,0.69611 1.2485,1.70308 1.418484,2.73187 0.173578,0.50393 0.05403,1.47656 0.04072,1.6595 0.271723,-0.23358 1.034271,-1.05547 0.888217,-0.30703 0.350779,-0.18699 1.070607,0.36949 1.040985,0.54525 0.721374,0.79084 -0.01422,1.87661 -0.08885,2.79816 -0.0948,0.27488 -0.138499,1.01787 -0.62016,0.73333 z m 0.178327,-24.00054 c -0.09815,-0.54709 -0.154124,0.54604 0,0 z m -7.0074,-2.40198 c -0.02976,-0.30732 -0.44329,0.30844 0,0 z m -3.18897,-2.4003 c -0.102388,-0.21679 -0.154764,0.23559 0,0 z m 1.16586,-0.20574 c -0.184655,-0.27643 -0.161612,0.26706 0,0 z m 27.912062,-39.02983 c -0.172194,-0.16808 -0.130311,0.36906 0,0 z m 3.950753,-6.76418 c 0.365048,-0.69574 -0.503236,0.47006 0,0 z m 4.300435,-7.32325 c 0.439504,-0.89396 -0.56713,0.34665 -0.08929,0.15878 z m 0.389892,-0.7423 c -0.148685,-0.0936 -0.243807,0.61556 0,0 z m 3.140964,-1.56652 c 0.03189,-0.72126 0.706321,-1.58465 0.824574,-2.05097 -0.277458,0.54862 -1.41074,1.73859 -0.925673,2.11452 l 0.101103,-0.0636 z m 0.388671,-4.32439 c 0.657999,-0.98397 -0.566087,0.18843 -0.100418,0.1459 z m 3.569589,-2.52182 c 0.220029,-0.57414 0.160661,-1.27576 -0.195006,-0.28805 -0.104369,0.15299 -0.02863,0.51875 0.195006,0.28805 z m 0.06492,-3.67157 c 0.32818,-0.77722 -0.651861,0.55208 -0.09543,0.17924 z m 3.767949,-2.92733 c 0.23148,-0.63793 0.06974,-1.00069 -0.258444,-0.21337 -0.266814,0.33493 0.0097,0.38354 0.258444,0.21337 z m -1.879524,-0.30418 c 0.406683,-0.85709 1.014848,-1.57682 1.159407,-2.46392 -0.718371,0.2005 -1.841907,0.83283 -2.561562,-0.0601 -0.896342,-0.49144 -2.16488,-0.82193 -2.903509,-1.32238 -0.557335,0.0533 -1.527749,-0.26593 -2.33365,-0.20691 -0.963122,-0.10826 -1.896175,-0.23137 -2.858881,-0.30009 -1.020241,0.0962 0.759698,0.88601 1.174828,1.02617 0.994608,0.3449 1.893834,0.77924 2.777108,1.36447 0.941706,-0.0333 1.798455,1.02998 2.561113,1.06609 0.586715,0.79187 1.011489,0.15043 1.660861,-0.1519 0.988063,-0.48915 1.461415,0.29755 1.247911,1.16296 0.05738,0.064 0.07635,-0.16647 0.07637,-0.11442 z m 1.714617,-2.9526 c 0.792565,-0.93713 -0.626681,-0.0678 -0.222473,0.23889 l 0.11154,-0.0823 0.110943,-0.15664 z m 3.70079,-3.09951 c 0.103544,-0.56328 0.607935,-1.80343 -0.01742,-0.63489 -0.09698,0.11542 -0.415684,1.10204 0.01742,0.63489 z m 0.686029,-1.74924 c -0.341277,0.10816 -0.114905,0.51557 0,0 z m -1.055973,-1.05077 c -0.720666,0.20325 -0.435087,0.93225 0,0 z m 0.575919,-0.96764 c -0.22292,-0.10622 -0.193849,0.54073 2.21e-4,1e-5 z m 2.530383,-4.47039 c 0.132936,-0.81691 -0.543703,0.67008 0,0 z m 0.651272,-0.99047 c -0.02297,-0.37672 -0.203211,0.35532 0,0 z m 2.939377,-2.18813 c 0.09601,-0.87576 -0.554571,0.98947 -1.8e-5,1e-4 z m 0.76336,-1.25025 c 0.912764,-1.05634 2.36639,-0.21735 3.396972,-0.96883 0.202536,-0.23805 -1.304245,-0.29954 -1.262008,-1.11417 -0.157172,-1.2956 -1.246694,-0.48576 -1.237137,0.40383 0.121579,0.75467 -1.395759,1.7242 -1.147357,1.89528 0.02329,-0.097 0.249853,-0.10587 0.24953,-0.21611 z m 1.999801,-0.0125 c -0.349593,-0.094 -0.29217,0.5772 0,0 z m -2.876747,-1.46126 c 0.294749,-0.84777 -0.848064,0.73374 -0.09304,0.15186 z m 2.807071,-1.84231 c -0.0071,-0.70587 -0.472264,0.49416 0,0 z m 3.064521,-5.47486 c 0.185723,-0.53514 0.35508,-1.09638 -0.08391,-0.27829 -0.315551,0.28341 -0.116261,0.97085 0.08389,0.2783 z m 0.4536,-3.56117 c 0.328309,-0.68121 1.047864,-1.61611 1.165756,-2.14673 -0.331812,0.77482 -1.345385,1.67581 -1.352026,2.3262 l 0.08395,-0.055 0.102323,-0.12449 z m 2.548981,-1.58997 c 0.285944,-0.84159 -0.221975,-0.24186 -0.137136,0.13266 l 0.06758,-0.039 0.06958,-0.0937 z m -0.957703,-1.10988 c -0.155356,-0.15108 -0.148966,0.35459 0,0 z m 3.688189,-3.7006 c -0.04735,-0.42747 -0.26771,0.58329 0,0 z m 0.875675,-3.97748 c 0.64887,-1.12735 -0.998751,0.89466 -4e-5,0 z m 2.0884,-0.92467 c -0.15085,-0.24799 -0.12992,0.33343 0,0 z m 1.16585,-2.15622 c -0.10221,-0.21678 -0.1549,0.23565 0,0 z m -0.45463,-1.54631 c 0.62288,-0.79388 -0.78259,0.24601 -0.24361,0.2886 l 0.10985,-0.10044 z m 2.27636,-1.24833 c 0.33914,-0.90533 -0.0856,-0.43711 -0.16037,0.17037 0.0949,0.0843 0.15333,-0.13429 0.16037,-0.17037 z m 0.62192,-1.25297 c 0.45042,-0.91192 -0.68144,0.8801 0,0 z m 0.047,-2.34748 c 0.27023,-0.42784 1.52971,-2.36172 0.61763,-1.26935 -0.19729,0.65878 -1.03595,1.20811 -1.01912,1.8352 0.15396,-0.1737 0.27226,-0.37424 0.40149,-0.56585 z m 1.69278,-0.25717 c -0.18468,-0.27641 -0.16167,0.26705 0,0 z m 23.36721,0.0272 c -0.33883,-0.11534 -0.0467,0.14208 0,0 z m -23.13929,-0.49006 c 0.53232,-1.13523 -0.48123,-0.01 0,0 z m 14.99684,-2.8975 c -0.51768,-0.60184 -1.26533,-0.5204 -1.86798,-1.1841 -0.89669,-0.72692 -1.87556,-1.13364 -2.98747,-1.4211 -1.03684,-0.39318 -2.07131,-0.95803 -3.2203,-1.05943 -1.16054,0.0271 -0.94366,-2.69449 -2.00304,-1.39168 0.204,0.50041 1.13239,1.34154 1.05424,2.22901 0.88744,-0.0205 1.74735,0.4944 2.61205,0.091 0.59457,0.26084 1.45824,0.71708 2.27198,0.72307 0.63486,0.47547 1.31905,0.72237 2.07329,1.1054 0.77354,0.13381 1.2358,1.22437 2.06723,0.90779 z M 108.999,122.32751 c 0.3919,-0.67629 1.13798,-1.51504 1.25426,-2.11352 -0.43098,0.71675 -1.44666,1.73278 -1.4674,2.35558 l 0.0915,-0.0778 z m 1.94361,-0.87514 c 0.48487,-0.92782 -0.48948,0.30642 -0.0499,0.17005 l 0.05,-0.17005 z m 0.85258,-1.3749 c -0.15085,-0.24799 -0.12992,0.33343 0,0 z m 0.37719,-0.57889 c -0.0178,-0.25162 -0.20594,0.23105 0,0 z m -1.02026,-0.695 c -0.59588,-0.81543 -2.18672,-0.26633 -2.86906,-1.28683 -0.91043,-0.57264 -1.8336,-1.11198 -2.67224,-1.78025 -0.58723,-0.54872 -1.00316,-0.71438 -1.73661,-0.9632 -0.616,-0.54679 -2.05537,-0.84191 -2.32808,-1.27574 -1.05994,-0.37855 -0.29987,0.32406 0.14607,0.51121 0.80879,0.76301 1.64237,0.54314 2.50171,1.15976 0.53095,0.5188 1.27955,0.78407 1.74537,1.55901 0.6247,0.59374 1.39528,1.06406 1.9823,1.73444 0.33789,-0.26629 0.95725,0.76351 1.5747,0.25477 0.52632,-0.34147 1.66382,0.44497 1.65584,0.0868 z m 0.83389,-0.97353 c 0.23074,-0.59083 1.39876,-1.80786 1.15133,-2.07266 -0.56835,0.74229 -1.60146,2.10332 -1.60481,2.65895 0.18041,-0.17043 0.31259,-0.38419 0.45348,-0.58629 z m 1.96318,-0.82539 c 0.21496,-0.46763 0.92602,-1.60498 0.16483,-0.59272 -0.2986,0.1409 -0.6033,1.2699 -0.16483,0.59272 z m 0.57598,-3.14677 c 0.53754,-0.82515 1.17221,-1.62761 1.67392,-2.44729 -0.86243,0.75363 -1.39685,1.79235 -2.09337,2.68093 -0.006,0.3832 0.3671,-0.17402 0.41945,-0.23364 z m -13.86613,-0.40744 c -0.0231,-0.55378 -1.362969,-0.61119 -0.47094,-0.0943 0.11374,-0.005 0.36803,0.29786 0.47094,0.0943 z m 16.0145,-0.60408 c -0.0433,-0.86512 -0.55435,0.91193 0,0 z m 1.11706,-3.63181 c 0.61186,-0.89574 1.32955,-1.72821 1.83366,-2.69309 -0.0664,-1.14352 -0.55065,0.54427 -0.88017,0.77857 -0.32288,0.83203 -1.51691,2.06277 -1.43855,2.54022 0.19238,-0.18218 0.33588,-0.40868 0.48506,-0.6257 z m 1.27208,0.20545 c 0.19711,-0.43774 -0.53144,0.23682 0,0 z m 0.46445,-0.79135 c 0.2764,-1.09601 -0.68344,1.14683 -3e-5,0 z m 0.61823,-2.77149 c 0.63019,-0.98283 1.39053,-1.8724 2.01486,-2.85695 0.3873,-0.60233 -0.43275,-1.07152 -0.21615,-0.16794 -0.54635,1.03639 -1.36777,1.96266 -2.05272,2.9307 -0.23834,0.24435 0.17183,0.24538 0.25401,0.0942 z m 2.03526,-1.16486 c -0.26808,0.0498 -0.14125,0.58058 0,0 z m 8.19975,-0.58993 c -0.89875,-0.53615 -2.01416,-0.77972 -2.99665,-1.22617 -0.68058,0.0406 -1.97911,-0.78664 -2.27963,-0.33971 -0.0572,0.80306 0.73343,0.497 0.89057,0.82849 0.92945,0.0664 1.56628,0.11016 2.4048,0.31897 0.61047,0.37721 1.33157,0.22301 1.95734,0.48154 l 0.0237,-0.0632 z m -7.27189,-0.64702 c 0.1934,-0.56817 -0.46004,0.46817 6e-5,0 z m 0.68803,-0.95151 c 0.46483,-0.0872 1.52714,-1.13525 0.46146,-0.59272 -0.46539,0.19773 -1.44067,1.90091 -0.54619,0.7466 l 0.0846,-0.15396 z m -0.95615,-0.47366 c 0.3899,-0.5728 1.15111,-1.42591 1.25602,-1.8827 -0.56339,0.57036 -1.29725,1.63484 -1.50553,2.11618 l 0.10966,-0.0877 0.1398,-0.14583 z m 3.83358,-3.341891 c -0.0129,-0.293443 -0.60645,0.571067 0,0 z m -1.18432,-0.255725 c 0.52303,-0.62722 -0.75613,0.504052 0,0 z m 1.72235,-0.138923 c 0.23976,-0.595309 -0.51906,0.06526 -10e-6,-1.6e-5 z m 1.5563,-2.44961 c 0.37404,-0.167207 0.95595,-1.233943 0.24785,-0.752044 -0.18339,0.461705 -1.3426,1.931158 -0.33771,0.871939 z m 1.53739,-1.217487 c -0.0573,-1.019478 -0.95342,-0.177217 -0.62916,0.3437 0.22359,-0.08326 0.42242,-0.22651 0.62916,-0.3437 z m -2.22271,0.251813 c -0.0178,-0.251668 -0.20595,0.231069 0,0 z m 3.12038,-2.257429 c -0.51371,-0.438609 1.34238,-1.623937 0.68356,-1.504216 -0.32229,0.474136 -0.96268,1.162567 -1.09226,1.56709 0.13344,-0.01244 0.30021,0.03789 0.4087,-0.06287 z m -0.45526,-1.343021 c -0.038,-0.317692 -0.35417,0.361343 -1e-5,0 z m 1.65542,-2.871345 c 1.38706,0.05771 -0.16762,-0.827167 -0.75614,-0.915017 -1.03024,-0.273796 -1.36919,-1.344537 -2.20485,-1.87327 -0.89744,-0.631553 -1.60596,-1.475696 -2.58094,-2.019375 -0.83849,-0.937975 -1.99693,-1.414129 -2.96128,-2.192448 -0.78027,-0.826438 -1.74094,-1.496567 -2.5292,-2.300624 -0.6478,-0.163188 -1.62585,-1.332153 -1.85839,-1.165944 0.59123,0.579478 1.29637,1.117257 1.68091,1.852486 0.22218,0.620734 0.90039,0.883126 1.40959,1.514129 0.83349,0.342494 1.36034,1.179173 1.74763,1.791245 1.13276,0.250638 1.82771,1.221104 2.87577,1.630192 0.89985,0.869958 1.47816,1.950925 2.56839,2.647928 0.65599,0.219458 0.81588,1.237509 1.49847,1.108479 0.36987,-0.02766 0.7397,-0.05808 1.11004,-0.07778 z m 4.21767,-0.05597 c 0.93857,-0.734303 1.83798,0.341544 2.74521,0.02859 0.78507,-0.550842 -1.52033,-0.612682 -2.03243,-0.875532 -0.73644,0.132918 -1.80436,-0.484349 -2.20488,-0.08679 -0.40398,0.423173 0.73208,0.06644 0.52535,0.855803 0.0463,0.384802 0.72894,0.125018 0.96675,0.07793 z m 21.05405,-6.344511 c -0.76363,-0.684443 -1.68058,-1.321722 -2.55986,-1.848379 -0.90899,-0.604117 -1.87994,-1.111655 -2.92607,-1.447301 -1.18824,0.01114 -2.37441,-0.242365 -3.57612,-0.156675 -1.06812,-0.04926 -2.22317,-0.240684 -3.25291,0.03059 1.0363,0.155179 2.1424,0.03988 3.10312,0.441403 0.9746,0.129057 1.84804,0.748919 2.86829,0.805302 0.94464,0.09316 1.68876,0.63543 2.56385,0.933231 0.79475,0.462359 1.51836,0.728035 2.44644,0.946616 0.42789,0.09853 0.89732,0.315184 1.33326,0.295215 z m -13.2954,-3.431484 c -0.3894,-0.414608 -1.41486,0.201255 -0.32783,0.07072 l 0.14596,-0.01478 0.18187,-0.05584 z m 0.47095,-0.102627 c -0.20704,-0.0504 -0.3215,0.340578 0,0 z m -1.89268,-2.801563 c -0.51392,-0.205396 -1.56563,-1.011499 -1.88681,-0.870232 0.62612,0.606969 0.81615,1.298742 1.88681,0.870232 z m -2.08497,-1.404419 c -0.14364,-0.241789 -0.13312,0.332481 0,-8e-6 z m 5.96646,-4.339777 c -0.38199,-0.474615 -0.85743,0.126335 0,0 z m 2.77749,-2.889465 c -0.25112,-0.502889 -1.64648,-0.529611 -0.82699,0.185226 0.22434,-0.04174 0.79931,0.145671 0.82699,-0.185226 z m 1.58138,-0.449687 c 0.29203,-0.411857 -0.65036,0.347898 0,0 z m -2.78153,-0.0239 c -0.32534,-0.585347 -0.21448,0.290295 0,0 z m 3.26037,-2.413258 c -0.22966,-0.567292 -1.48606,-0.03137 -0.42045,0.07314 0.14165,-0.006 0.29227,-1.52e-4 0.42045,-0.07314 z m 8.46681,-2.395737 c -0.69355,-0.445764 -0.46861,0.207926 0,0 z m -0.61722,-0.20574 c -0.75118,-0.473744 -1.66521,-0.795198 -2.48271,-1.041668 -0.75707,-0.675222 -1.64547,0.75035 -0.41803,0.629077 0.94172,-0.162399 2.2765,0.554404 2.90074,0.412591 z m -3.91849,-1.089082 c -0.37469,-0.14299 -0.0366,0.454997 0,0 z m 7.27891,-8.237798 c -0.48697,-0.102048 -1.37147,-0.988617 -0.74164,0.0046 0.20078,0.115456 0.5298,0.08289 0.74164,-0.0046 z m -1.23548,-1.114425 c -0.29706,-1.040101 -0.49452,-2.103747 -1.06632,-3.031204 -0.34323,-0.367575 -0.61314,-1.822939 -0.53408,-0.494462 0.11487,0.982632 0.43425,1.681581 0.87552,2.56158 0.21489,0.161172 0.46569,1.214191 0.72488,0.964086 z m 5.99088,-3.663828 c -0.36489,-0.251906 -1.31081,-1.434342 -0.66242,-0.365255 0.17055,0.180363 0.32532,0.550525 0.66242,0.365255 z m -7.57401,-0.999613 c -0.32953,-0.274807 -0.0511,1.024244 -2e-5,0 z m 0.0754,-0.257175 c -0.18468,-0.276356 -0.16167,0.266997 0,0 z m 6.49638,-0.188594 c -0.47539,-1.015799 -0.64254,-2.243751 -1.55547,-3.011147 -0.67413,-0.902468 0.22629,0.701889 0.30913,1.059709 0.57962,0.63795 0.72229,1.5847 1.27512,2.194517 0.0216,-0.06177 0.0544,-0.243283 -0.0288,-0.243079 z m 4.45928,-0.235931 c 0.73422,-0.500309 -1.65989,0.04431 -0.38356,0.02847 l 0.14056,-0.01567 0.24304,-0.0128 z m 1.56042,-1.770404 c -0.14859,-0.241714 -0.51893,0.499515 0,0 z m 0.77272,-0.35539 c -0.22854,-0.346269 -0.18812,0.292881 0,0 z m 1.48459,-2.634808 c -0.0909,-0.347833 -1.2657,-0.632638 -1.20752,-1.432843 -0.11928,-0.543841 -1.25107,-1.447977 -0.5261,-0.414085 0.498,0.593811 0.77868,1.993017 1.73362,1.846928 z m -2.08608,-2.590306 c -0.32967,-0.458345 -0.15401,0.13671 0,0 z m -0.43322,-0.672766 c -0.12263,-0.144465 0.045,0.407288 0,0 z m 6.61416,-0.03858 c 0.19459,-0.305636 -0.39005,0.392145 0,0 z m 0.40274,-0.235936 c -0.19494,-0.203473 -0.30127,0.399374 0,0 z M 34.145432,270.23985 c -0.688698,-0.57638 0.224134,-0.32518 0.213227,-0.0539 -0.437872,-0.33413 0.199318,0.39106 -0.213227,0.0539 z m -0.394335,-0.13971 c 0.184655,-0.27643 0.161612,0.26706 0,0 z m -9.46404,-6.10767 c 0.139153,-0.15054 0.155597,0.22953 0,0 z M 102.53684,136.81086 c 0.15085,-0.24799 0.12992,0.33343 0,0 z M 210.6282,57.190843 c -1.18542,-0.204506 0.0409,-1.472358 0.54582,-1.846135 0.36834,-0.514538 0.13256,0.483402 0.19908,0.724521 2.5e-4,0.409056 5.3e-4,0.818112 7.9e-4,1.227168 -0.2519,0.0015 -0.50959,-0.0041 -0.74569,-0.105554 z"
       id="path159" />
  </g>
</svg>
