<?xml version="1.0" encoding="UTF-8" standalone="no"?>
<!-- Created with Inkscape (http://www.inkscape.org/) -->

<svg
   width="210mm"
   height="297mm"
   viewBox="0 0 210 297"
   version="1.1"
   id="svg5"
   inkscape:version="1.1.2 (0a00cf5339, 2022-02-04)"
   sodipodi:docname="swordfern_20230506_173359762_frame.svg"
   xmlns:inkscape="http://www.inkscape.org/namespaces/inkscape"
   xmlns:sodipodi="http://sodipodi.sourceforge.net/DTD/sodipodi-0.dtd"
   xmlns="http://www.w3.org/2000/svg"
   xmlns:svg="http://www.w3.org/2000/svg">
  <sodipodi:namedview
     id="namedview7"
     pagecolor="#ffffff"
     bordercolor="#666666"
     borderopacity="1.0"
     inkscape:pageshadow="2"
     inkscape:pageopacity="0.0"
     inkscape:pagecheckerboard="0"
     inkscape:document-units="mm"
     showgrid="false"
     inkscape:zoom="0.34699592"
     inkscape:cx="-46.110053"
     inkscape:cy="491.36025"
     inkscape:window-width="1083"
     inkscape:window-height="582"
     inkscape:window-x="25"
     inkscape:window-y="31"
     inkscape:window-maximized="0"
     inkscape:current-layer="layer1" />
  <defs
     id="defs2" />
  <g
     inkscape:label="Layer 1"
     inkscape:groupmode="layer"
     id="layer1">
    <path
       style="fill:none;stroke:#000000;stroke-width:0.7;stroke-miterlimit:4;stroke-dasharray:none;stroke-opacity:1"
       d="m 122.59486,-15.280444 c 0.02,-0.141294 0.092,-0.214989 0.22904,-0.234386 0.24584,-0.03479 0.21222,0.128176 -0.0643,0.311806 -0.18522,0.122981 -0.19251,0.119557 -0.1647,-0.07742 z"
       id="path2220" />
    <path
       style="fill:none;stroke:#000000;stroke-width:0.7;stroke-miterlimit:4;stroke-dasharray:none;stroke-opacity:1"
       d="m 120.3803,-10.221092 c 0,-0.06875 0.0599,-0.14799 0.13314,-0.176091 0.0929,-0.03563 0.12489,-0.0085 0.10584,0.08976 -0.0348,0.179213 -0.23898,0.252989 -0.23898,0.08633 z"
       id="path2218" />
    <path
       style="fill:none;stroke:#000000;stroke-width:2.64567;stroke-miterlimit:4;stroke-dasharray:none;stroke-opacity:1"
       d="m 45.611328,905.24023 c -0.756737,0.007 -1.016695,0.61615 -0.410156,1.78907 0.51685,0.99949 1.196617,1.50954 2.90039,2.17382 1.265122,0.49331 1.579723,0.38075 1.697266,-0.60351 0.07616,-0.63817 -0.208166,-1.06778 -1.28125,-1.93945 -1.18513,-0.96263 -2.238541,-1.42576 -2.90625,-1.41993 z"
       transform="scale(0.26458333)"
       id="path11306" />
    <path
       style="fill:none;stroke:#000000;stroke-width:2.64567;stroke-miterlimit:4;stroke-dasharray:none;stroke-opacity:1"
       d="m 786.73828,671.54883 c -0.31234,0.0165 -0.55859,0.15519 -0.55859,0.32031 0,0.17613 0.36994,0.31836 0.82031,0.31836 0.46466,0 0.73335,-0.13694 0.62109,-0.31836 -0.10877,-0.17613 -0.47669,-0.32031 -0.81836,-0.32031 -0.0214,0 -0.0436,-10e-4 -0.0644,0 z"
       transform="scale(0.26458333)"
       id="path11304" />
    <path
       style="fill:none;stroke:#000000;stroke-width:2.64567;stroke-miterlimit:4;stroke-dasharray:none;stroke-opacity:1"
       d="m 792.40234,464.07227 c -0.37745,0.0179 -0.56307,0.33127 -0.30078,0.75585 0.24102,0.39081 0.50157,0.39667 1.08203,0.0293 0.35524,-0.22511 0.31153,-0.34979 -0.2207,-0.63476 -0.20775,-0.11115 -0.40118,-0.15797 -0.56055,-0.15039 z"
       transform="scale(0.26458333)"
       id="path11302" />
    <path
       style="fill:none;stroke:#000000;stroke-width:2.64567;stroke-miterlimit:4;stroke-dasharray:none;stroke-opacity:1"
       d="m 71.759766,105.22461 v 662.9707 H 734.73047 v -662.9707 z"
       transform="scale(0.26458333)"
       id="path2210" />
    <path
       style="fill:none;stroke:#000000;stroke-width:0.7;stroke-miterlimit:4;stroke-dasharray:none;stroke-opacity:1"
       d="m -18.049713,244.56639 -0.21167,-0.0531 0.27517,-0.1446 c 0.16534,-0.0869 0.27516,-0.10795 0.27516,-0.0528 0,0.0505 0.044,0.0647 0.0978,0.0314 0.061,-0.0377 0.0747,-0.0232 0.0365,0.0387 -0.0337,0.0545 -0.0939,0.079 -0.13367,0.0544 -0.0398,-0.0246 -0.0848,0.006 -0.1,0.0671 -0.0183,0.0743 -0.0987,0.0941 -0.23924,0.0588 z"
       id="path2110" />
    <path
       style="fill:none;stroke:#000000;stroke-width:0.7;stroke-miterlimit:4;stroke-dasharray:none;stroke-opacity:1"
       d="m -18.200653,245.50551 c 0.0144,-0.0758 0.12894,-0.14596 0.26372,-0.16144 0.23166,-0.0266 0.23401,-0.0229 0.0839,0.13169 -0.18922,0.19499 -0.38206,0.21149 -0.34766,0.0297 z"
       id="path2108" />
    <path
       style="fill:none;stroke:#000000;stroke-width:0.5;stroke-miterlimit:4;stroke-dasharray:none;stroke-opacity:1"
       d="m 19.436447,309.79931 c -0.18427,-0.24589 -0.18925,-0.4283 -0.0135,-0.49574 0.20591,-0.079 0.2887,0.0156 0.2887,0.32989 0,0.36383 -0.0873,0.41647 -0.27517,0.16585 z"
       id="path1254" />
    <path
       id="path11187"
       style="fill:none;stroke:#000000;stroke-width:2.64567;stroke-linecap:round;stroke-linejoin:bevel;stroke-miterlimit:4;stroke-dasharray:none;stroke-opacity:1"
       inkscape:transform-center-x="5.4213011"
       inkscape:transform-center-y="-10.958247"
       d="m -2107.5,-948.05664 -123.6699,333.74219 a 413.90769,417.89959 0 0 0 -104.7774,85.91797 l -332.3164,84.10742 228.2559,180.47461 a 413.90769,417.89959 0 0 0 -0.4707,12.66797 413.90769,417.89959 0 0 0 93.414,264.207027 l -15.373,231.640623 170.0469,-113.26758 a 413.90769,417.89959 0 0 0 165.8203,35.32032 413.90769,417.89959 0 0 0 232.8398,-72.41016 l 181.0684,72.41016 -57.627,-205.457035 a 413.90769,417.89959 0 0 0 57.627,-212.443355 413.90769,417.89959 0 0 0 -15.1563,-111.94532 l 172.7149,-207.32031 -320.5508,-13.05664 a 413.90769,417.89959 0 0 0 -147.8242,-72.39844 z"
       transform="scale(0.26458333)" />
    <path
       id="path11296"
       style="fill:none;stroke:#000000;stroke-width:2.64567;stroke-miterlimit:4;stroke-dasharray:none;stroke-opacity:1"
       d="M 87.994141,121.46289 V 751.96094 H 515.74414 c 0.082,-0.84194 0.26076,-1.93293 0.20703,-2.35156 1.89581,-1.3976 0.96136,-3.4072 1.6543,-5.32032 -0.96038,-1.0337 2.95792,-2.39377 1.44531,-4.2539 1.55093,-2.56808 1.29299,-5.7312 3.44531,-7.97461 2.551,-1.68824 0.0262,-3.94311 -1.58789,-5.16602 -1.59265,-1.35647 -5.30239,-4.65897 -1.17968,-4.74023 2.25637,-1.58117 5.32885,-1.29358 7.98242,-1.1836 2.88487,0.53915 5.73784,1.3676 8.4707,2.41797 1.01386,-0.4467 -2.34248,-1.7727 -3.43945,-1.55273 -1.58268,-0.83581 -2.45216,-1.64127 0.0723,-1.70703 1.42231,-0.82077 1.64676,-2.25685 0.67969,-2.83399 1.52678,-2.35695 -1.03903,-4.88487 -1.18945,-7.38476 0.40452,-2.84444 -2.25708,-4.88743 -2.96094,-7.44141 -0.75617,-1.20918 0.002,-2.84934 -1.60547,-0.94922 -1.14792,1.62992 -1.95829,2.36762 -2.31055,-0.0312 -1.61933,0.94065 -2.13359,4.49524 -4.08984,3.69141 -0.77046,1.3624 -2.32254,3.30909 -3.49805,3.63867 -0.33191,-2.74016 -2.33002,1.37235 -4.15039,-0.18164 -2.67224,0.68356 -5.02482,2.59643 -6.6914,4.78516 -1.61352,1.25877 -2.72971,3.54993 -3.35938,5.18359 1.46869,1.36675 1.04041,2.75747 0.50391,3.77734 -0.35736,2.84364 -2.75244,5.22719 -3.38672,8.06641 -0.86041,2.77062 -2.49753,5.05052 -3.84766,7.60351 -1.51801,2.18068 -2.97379,4.41656 -5.07226,6.14063 -0.81536,0.95331 -2.46695,3.60565 -1.64649,0.71484 -1.05826,-2.17939 -0.45636,-4.94321 0.0879,-7.17578 -0.31494,-2.46467 0.29679,-4.81469 0.83008,-7.25195 -1.34525,-1.84022 1.55251,-4.93864 1.3711,-7.31445 1.48569,-2.20797 2.03587,-4.89797 3.55078,-7.14649 1.4321,-2.52143 3.1206,-4.9033 3.9414,-7.71875 1.06084,-2.76329 2.23822,-5.50547 3.23242,-8.27734 1.21913,-2.47181 2.71058,-4.78415 3.78907,-7.31836 1.62444,-1.90556 2.14161,-4.30586 3.54101,-6.40625 0.36473,-1.6122 0.0728,-5.07239 -1.05664,-5.5293 0.19737,1.39548 0.14967,2.38841 -1.69531,1.73047 -1.80374,-1.5868 0.59359,-5.99345 1.34375,-6.40039 -0.0686,1.70778 0.93282,2.23663 0.45898,0.2207 -0.35195,-1.30337 -1.4244,-2.51914 0.67188,-1.6582 2.85105,-0.47116 5.89,-0.8435 8.51953,0.69141 2.71038,1.35503 4.93655,3.49656 7.14844,5.51562 2.69442,2.7882 -1.02653,-1.68133 -1.59766,-2.64258 -0.54939,-2.7973 0.24305,-5.56443 -1.36133,-8.24218 -0.49712,-0.61202 0.43799,-3.8198 -0.84179,-2.375 -1.18859,0.99968 -2.45724,1.89675 -3.72266,2.79492 1.10204,-1.26868 3.26479,-3.95349 3.1582,-4.48633 -1.95239,0.40282 -0.15261,-4.1153 -2.17968,-5.06445 -0.85769,-0.88328 -0.84517,-3.0771 0.71679,-2.49414 -0.11297,-1.59614 -1.67264,-2.56026 -1.42773,-0.16797 -1.19388,2.38579 -1.89107,5.57906 -4.39063,6.88867 -1.08007,0.33925 -3.80644,2.98967 -3.13867,0.90625 -1.59322,0.87681 -3.75917,3.74001 -4.95312,3.91992 -1.49628,-1.22691 -3.0972,2.04497 -4.7168,2.65234 -1.02013,0.97713 -1.65498,1.60222 -1.24414,-0.0117 -1.93784,0.4041 -4.72203,3.3175 -5.92188,3.15234 -1.32396,-0.78988 -3.54822,1.94663 -5.27539,2.2539 -1.64466,-1.56801 -3.74258,2.75003 -5.66406,1.41211 -1.73972,1.15525 -3.34991,2.40465 -5.10547,1.98633 -2.2035,1.78749 -4.45104,0.82283 -6.97656,1.91602 -2.60323,0.0779 -5.24603,0.75846 -7.88281,1.28711 -2.43587,-0.45937 -5.25973,0.16026 -7.78321,0.39648 -2.54898,-0.76766 -5.37299,0.77018 -7.80859,0.84766 -2.32807,0.46065 -5.12727,1.24001 -7.59961,1.92773 2.30132,-1.5679 3.62346,-4.30228 5.81445,-5.73242 1.02868,-1.19199 2.40997,-1.86844 3.72071,-2.81445 -0.49183,-1.66806 2.96793,-1.16662 3.58203,-2.77735 2.02106,-1.17709 3.99099,-2.34706 5.86719,-3.625 1.39835,-1.04281 3.5192,-1.09762 4.67578,-2.44336 2.28691,-0.41041 3.08104,-2.40854 5.5332,-2.90234 1.43429,-1.40285 3.44457,-1.70395 4.39649,-3.35156 2.13463,-1.8562 3.86266,-3.33472 6.38867,-4.67188 1.77305,-1.10347 4.02079,-1.66887 5.02539,-2.80859 2.85562,-0.15035 4.4492,-2.11177 6.8789,-3.18164 1.96676,-0.97123 1.96616,-2.80208 4.36328,-3.27539 0.96129,-0.95358 2.96495,-3.17399 0.67969,-1 -2.37441,1.15544 -4.25484,2.44833 -6.15625,3.97265 -1.33803,0.56221 -5.75508,1.92733 -2.76562,0.0254 2.2848,0.29144 2.20824,-2.44117 4.59179,-3.23828 0.62979,-2.97059 3.74736,-3.04116 5.69336,-4.87109 2.1137,-1.48475 2.43959,-4.64458 4.13282,-6.64648 1.09194,-1.0382 1.64176,-3.02292 2.21289,-3.71094 2.8803,0.44436 5.87334,0.82631 8.05859,3.00781 1.11364,0.71301 2.8953,4.00343 1.54102,0.95313 -0.96136,-1.31464 -3.08006,-2.29629 -1.9668,-3.89454 -1.09149,-2.10058 0.76052,-1.52748 1.08594,0.0469 1.44177,-0.0154 2.46983,-3.76866 0.66015,-1.43945 -2.52612,-0.18505 -2.06131,-3.80723 -3.92382,-5.17969 -0.94402,-1.74119 1.85675,-0.53253 0.32812,-2.57813 -1.06193,0.5387 -1.47489,4.32097 -3.0957,5.64649 -1.26751,1.98017 -5.60885,3.77275 -6.57422,3.81055 0.73028,-2.35771 -2.74338,0.89179 -3.86719,0.72851 -0.80716,0.24945 -2.48067,1.21229 -1.48242,-0.16992 -2.07508,0.39224 -4.42252,2.38191 -6.03906,3.13086 1.08113,-2.93817 -4.54442,2.57572 -4.5293,1.2832 -1.96981,-1.04663 -4.14572,3.33138 -5.22852,1.80078 -1.58483,0.4512 -3.76737,3.87051 -3.99414,1.65821 -1.728,0.61738 -3.65598,2.90457 -4.73047,1.25976 -1.42681,1.6306 -3.26386,1.86135 -4.7539,1.62891 -1.52364,1.0097 -2.94294,1.44487 -4.00586,0.82812 -1.09092,0.79669 -2.79944,2.00531 -3.44922,0.60938 -1.18492,1.46691 -2.78424,0.43248 -3.65625,0.5625 -2.16348,0.83278 -5.15529,0.93074 -7.16211,0.86914 -0.97568,-0.85357 -3.65273,1.35673 -3.38476,-0.58399 -2.34698,1.47077 -4.67381,0.61466 -7.32813,1.87305 -1.35205,0.0612 -6.64011,2.76214 -3.44531,0.23828 2.02764,-2.22841 3.83492,-4.7698 6.35156,-6.41601 1.00524,-1.38728 2.20462,-2.03329 3.89648,-2.72657 0.0964,-1.44616 3.06849,-0.97874 3.39844,-2.43945 2.08925,-0.93917 3.1351,-2.2408 5.17578,-3.28516 2.1207,-1.47446 4.46821,-2.39749 7.04297,-3.01367 2.99656,-0.86661 5.64882,-2.49599 8.46094,-3.77929 2.22947,-1.51843 4.50467,-2.89431 6.79101,-4.31836 2.12845,-1.74516 4.93135,-2.37171 7.21876,-3.89063 1.26606,-0.26483 4.57095,-2.89122 1.57031,-1.23242 -2.26545,0.7268 -4.91916,2.66229 -7.21485,1.75195 -0.0725,-1.59318 1.08782,0.12213 1.3418,-1.41992 1.30961,-1.98361 4.22688,-2.28778 5.84766,-3.69531 1.95163,-2.30132 5.44475,-2.29237 7.40039,-4.65235 2.26582,-2.02915 4.12563,-4.5585 6.54101,-6.36523 0.84768,0.33222 1.14527,2.4968 1.05078,0.0957 1.08352,-0.12336 4.05941,1.32293 5.60743,2.0918 1.20899,0.75371 2.9618,2.30678 1.16797,0.48633 -1.28236,-1.19883 -2.40621,-2.58654 -1.17579,-3.97461 -0.4512,-2.36572 -5.51097,-4.35829 -1.91797,-6.34961 -2.46478,-0.45267 -1.97086,3.82938 -3.80468,5.04687 -1.70272,2.77157 -5.25487,2.89503 -7.61719,4.79493 -0.0536,-0.18622 1.73458,-2.86898 -0.44727,-1.67578 -1.75071,0.46813 -3.8618,1.86682 -5.08984,2.49804 1.79017,-1.15506 0.50625,-2.2101 -0.75195,-0.73828 -2.18453,1.7421 -5.4761,1.68128 -6.9336,4.35352 -0.78096,0.72774 -1.62068,2.27765 -1.80664,0.59179 -1.83949,1.43819 -4.67466,2.98965 -5.96484,4.21875 1.60456,-1.44839 0.46118,-2.50751 -0.98438,-1.08203 -1.55675,0.56905 -3.61912,2.20655 -4.55664,0.8418 -1.22078,0.17235 -3.89777,2.90448 -4.02929,2.06055 0.99095,-2.32812 -4.25585,2.59704 -2.58594,-0.0332 0.80708,-1.62614 -2.9981,3.31454 -1.99414,0.55469 -0.98956,-1.31932 -4.19732,3.19021 -4.91992,0.72656 -2.53025,1.8361 -5.82217,0.74116 -8.62696,1.96289 -2.23736,-1.03978 -5.09097,0.4541 -7.64453,0.26172 -2.4664,-0.83081 -6.14626,1.1928 -7.97461,-0.37695 -1.06771,-0.43193 -4.55041,1.11104 -3.74609,-0.48438 -1.43596,0.10602 -2.68591,0.42701 -3.48438,-0.63281 -2.92546,0.28645 -5.34749,-1.9974 -8.30078,-1.93164 2.60705,-0.30455 5.85587,-1.75232 7.33789,-3.09961 2.5036,0.19661 3.10747,-1.55124 5.69532,-1.13867 0.33464,-1.81523 3.75964,0.38737 4.1289,-1.76367 2.47461,0.0767 4.37933,-1.49125 6.66016,-2.04102 2.4243,-0.81543 5.05187,-1.84533 7.67773,-2.4668 2.4285,-0.67377 4.78321,-1.86177 6.73243,-3.41992 2.74624,-0.8025 5.13431,-2.61361 7.30664,-4.32812 1.78594,-1.093 3.68286,-1.3234 4.40429,-2.96485 2.23949,-0.99889 5.08665,-1.8825 6.64453,-3.52539 0.2976,-1.47968 5.86444,-1.36381 4.25977,-2.95703 -1.51756,0.11872 -1.91492,2.08275 -4.10742,1.88281 -1.44235,0.26098 -4.68798,1.40227 -1.81641,1.64454 -1.54443,0.13069 -3.95989,1.1707 -6.07226,1.29882 1.68517,-0.35697 -0.84378,-1.50666 1.36328,-1.75195 1.96641,-0.73391 2.57394,-2.83806 4.70117,-3.33008 2.88775,-0.55585 5.28587,-1.92731 8.17773,-2.42968 2.9734,-0.75017 5.7248,-2.20807 8.4043,-3.55665 2.77516,-0.85776 3.98088,-3.8871 5.95508,-5.81054 0.54777,-2.19266 3.34309,-1.99481 2.20508,0.3164 -0.6782,1.015 -3.06334,4.26944 -2.28907,4.10352 1.26221,-1.86629 3.174,-3.88623 3.05079,-6.01172 0.83875,0.25247 4.68992,1.35795 1.92187,0.10156 -0.70775,-0.77299 2.48633,-0.72335 0.875,-2.37304 -1.11995,-0.86638 -1.72151,-3.22995 -2.60547,-3.47071 -1.56034,-0.66444 3.55146,-2.92234 3.45508,0.0508 0.38396,1.36985 2.2137,4.74934 3.11523,4.20312 -0.79196,-2.37071 -1.12763,-7.46431 -4.70703,-6.38477 -3.7646,0.25017 -2.46988,4.71709 -5.05859,6.39063 -2.10153,1.97193 -4.71311,3.39156 -7.37695,4.40039 1.77135,-0.71399 0.74041,-2.86151 -0.88282,-1.36523 -1.21228,0.33728 -4.31696,2.33084 -4.61328,1.5625 5.3e-4,-1.64845 -3.01531,1.66103 -3.9414,2.1289 -0.97561,0.59906 -2.74954,2.47726 -1.75,0.27149 -1.78148,0.70193 -4.98956,4.75251 -5.88868,4.38476 0.5703,-2.07549 -2.4935,1.45967 -3.38672,1.42188 -1.13748,0.36434 -2.11186,2.11913 -1.92968,0.0566 -1.1246,1.22177 -4.64457,2.9491 -5.55664,2.07422 -0.0972,-2.91863 -2.24551,2.86859 -4.19336,1.71289 -1.58306,0.23323 -3.61523,3.12661 -4.12891,1.24414 -1.93644,2.16998 -4.67577,1.66509 -6.9043,2.80273 -1.34649,1.42681 -2.73855,0.43916 -3.79296,0.53516 -2.27006,2.02575 -4.56106,0.35553 -6.875,2.24023 -1.55513,0.93124 -1.07357,-1.52311 -2.70508,-0.0664 -2.28023,0.74343 -4.33583,0.45016 -6.60547,1.39062 0.48332,-1.76802 -2.85687,1.40369 -4.12305,0.37891 -1.11065,0.52501 -1.90851,0.86964 -2.23242,-0.12305 -1.8641,1.67494 -6.27604,1.33239 -4.28906,-2.11719 1.12119,-2.15644 1.71156,-3.73407 3.96484,-4.40429 -1.59643,-0.95161 3.2886,-0.61166 2.05859,-2.4668 2.26545,-0.62585 3.18334,-1.88042 5.41016,-2.69336 0.69906,-1.81924 3.33967,-1.60016 4.52734,-3.11719 2.3525,-0.33845 4.14505,-1.99656 6.48829,-2.59179 0.57165,-1.83436 3.46221,-1.47552 4.40429,-3.00196 2.63687,-0.19468 3.57518,-2.31635 6.10157,-2.94726 2.09552,-2.07496 4.84283,-3.40535 7.61523,-4.48047 2.55281,-1.08979 3.72133,-2.87511 6.23438,-3.91406 2.71022,-1.45108 4.96499,-3.50135 7.72265,-4.61329 2.50265,-1.54681 4.83096,-3.45198 7.41211,-4.96289 2.54684,-0.5464 3.6749,-2.84526 4.92774,-4.45507 1.37684,-0.89084 2.19681,-2.0771 3.79101,-2.75586 -0.16078,-1.07895 -1.80219,-1.65499 -2.36719,-0.36133 3.33491,-0.4698 -2.80752,2.72328 -2.83398,-0.0996 -2.48633,0.38472 -5.59159,1.48977 -8.00391,2.79492 0.89991,-0.48964 2.33367,-3.44239 -0.0781,-2.29492 -1.36441,0.9685 -0.9487,2.68618 -2.57227,2.17969 -1.38448,1.74867 -3.60616,3.14305 -4.59375,4.9082 0.91102,-3.3586 -2.78698,1.08963 -4.10547,1.30469 -0.97205,0.97164 -2.53813,2.58063 -1.26953,0.10742 -1.06344,-0.49414 -2.30564,2.87925 -3.41406,1.23633 -0.79325,0.85901 -2.83914,3.23652 -1.96289,1.12304 -0.90149,0.16774 -3.37968,2.55452 -2.8086,0.64453 -0.91177,0.89999 -2.98115,3.36336 -1.86914,0.94922 -1.65316,0.38933 -4.03896,2.30474 -4.71289,2.57422 1.05476,-3.03197 -4.52726,2.45334 -2.22851,-0.41797 1.549,-1.21103 0.7614,-1.45354 -0.29883,-0.1914 -0.94035,0.83652 -1.84818,2.62372 -2.57227,1.05469 -0.80658,1.06733 -3.70861,2.06388 -1.76953,0.21679 -1.98414,1.57973 -4.54758,2.4088 -7.13867,3.15821 -0.86816,-0.83426 -3.1313,1.12001 -2.74023,-0.54688 -0.97508,1.03181 -1.92158,1.85931 -2.92969,0.9707 -1.45376,1.10087 -3.16501,1.69872 -4.51563,1.08594 -2.14737,2.16593 -4.4991,0.60257 -6.73828,2.17383 -1.90533,-0.39439 -4.20582,1.77046 -5.49804,0.93945 -2.50625,1.68907 -5.68164,1.77181 -8.15039,3.57227 -2.62349,1.14017 -5.18664,3.35271 -7.67383,4.17578 3.5582,-2.72674 6.19119,-6.4476 9.59375,-9.36328 2.13226,-1.94234 4.35534,-3.94865 6.15625,-6.13477 2.30426,-1.38614 4.39285,-3.20278 6.16015,-5.0332 2.15418,-0.83841 3.24341,-2.90108 5.67383,-3.22461 1.27159,-1.48554 3.94127,-0.82188 4.69336,-2.69531 2.4347,-0.54346 4.01871,-2.11693 6.45117,-2.9375 2.58664,-1.14025 5.13673,-2.37001 7.80274,-3.3418 2.04075,-1.283 3.79904,-2.77363 6.13672,-3.71484 1.9135,-1.93399 4.64409,-3.26747 7.17773,-4.65625 2.68819,-0.72307 5.0242,-2.17815 7.3457,-3.63868 2.49925,-1.7495 5.45669,-2.27158 8.38477,-2.86523 2.1583,-1.51514 4.13171,-3.06742 7.04297,-3.42383 1.28062,0.0463 3.93276,-2.20103 3.88476,-2.11523 -1.13941,2.77504 1.43547,-2.35085 1.66602,-3.43164 1.06885,-1.41151 1.75853,-3.36664 2.4043,-4.69922 1.25567,0.77465 2.34186,1.01076 0.51953,-0.0312 -0.8815,-0.89084 1.28969,-2.74466 0.42773,-0.54297 1.57656,2.39648 5.21391,2.81419 6.1543,5.91602 1.09379,2.33022 -0.12844,-2.54587 -0.3125,-3.25782 -0.87417,-2.60311 -1.53483,-5.99404 -4.06836,-7.34961 -2.78733,0.0864 -0.16905,3.12546 -2.51172,3.20899 -1.21175,2.66691 -2.50457,5.22498 -3.41211,7.99609 -0.13837,1.80552 -1.04575,2.00744 -1.04492,0.0762 -1.97284,-1.03956 3.15987,-3.17341 0.35742,-1.90625 -2.52998,0.98722 -5.7667,0.29382 -8.27344,1.97461 -2.14117,1.01148 -3.98683,-0.63169 -5.31836,1.75977 -1.96656,1.84554 -4.74806,1.35497 -6.63476,2.18359 1.28273,-0.12416 -1.26321,2.45708 -1.73633,0.92188 -2.03142,1.80582 -4.20881,1.67793 -6.51172,3.14258 -2.13411,-0.83619 -3.13427,1.8291 -4.43359,2.60742 1.85911,-3.18596 -2.2242,1.06641 -3.59375,0.75195 -2.16786,0.31226 -5.39049,2.04756 -7.02344,2.00977 -0.6172,-1.4504 -2.47592,1.64762 -3.89453,1.01171 -1.16905,0.76967 -1.86019,-0.0343 -3.59375,0.9668 -1.9338,0.90837 -3.00013,-0.53385 -4.48828,1.19336 -1.94944,0.37123 -3.27633,-0.011 -4.96094,1.375 -2.12942,-0.12261 -3.71032,0.76331 -5.77734,1.49805 -1.60532,-1.47202 -4.11529,3.21576 -5.74219,1.41992 -1.60804,0.19234 -4.37701,2.99295 -4.94727,1.02344 -1.6543,0.90259 -3.55841,2.00398 -5.01171,0.86914 -2.38553,1.31512 -4.46181,0.0691 -6.9004,1.14258 -0.73723,-1.3708 -2.90093,1.74091 -3.71289,0.29101 -2.48576,1.14852 -4.24292,-0.74467 -6.87304,0.22852 0.40925,-1.05256 -2.83819,-0.5783 -3.86914,-1.41993 -1.54068,-0.63193 -3.59823,-1.22313 -4.57227,-2.4375 3.35737,0.59373 6.40699,-1.53289 9.69727,-1.89648 0.79183,-1.39873 3.77056,-0.16241 3.90039,-1.82812 2.74925,0.229 3.0295,-1.83204 5.8457,-1.41407 1.58385,-0.11527 -0.0489,-1.65904 2.20312,-1.42773 2.14296,-0.98275 3.22063,-2.48909 5.81055,-2.7461 1.10287,-1.44661 4.07653,-0.35378 4.32031,-2.59765 1.47145,-0.45793 4.23639,-0.3112 3.81641,-2.05274 3.20992,-0.16078 5.27626,-2.37703 8.3418,-2.9375 1.79078,-1.11125 4.15959,-2.29184 6.38672,-3.11914 2.51746,-0.79339 4.58155,-2.06907 6.78906,-3.15625 2.44751,-0.83395 4.81054,-2.3811 6.83984,-4.05078 2.82127,-0.64565 3.39485,-3.08925 6.46485,-2.96679 1.38383,-1.66164 4.2645,-1.5442 5.57422,-3.17579 1.21761,0.027 5.05094,-1.27609 1.89257,-0.87304 0.13762,-2.02462 3.82646,-2.61945 5.81446,-2.23242 2.16574,-0.38971 -4.37522,1.50755 -1.98633,1.1621 1.51102,-0.31921 3.1942,-0.82924 3.30078,-1.75976 1.93689,-0.29375 5.04492,0.0135 6.25781,-1.04102 2.9133,-0.49564 5.21126,-2.25204 7.62891,-3.80078 1.12384,-0.73818 -0.47368,1.35098 0.92187,-0.23242 1.70476,-2.13589 1.88868,-4.91908 2.66016,-7.37891 0.60004,-1.01994 1.68855,-3.57162 0.17969,-1.31445 -1.76164,2.13521 -5.27281,1.87134 -7.59571,3.34766 -1.1842,-2.23178 -4.2494,1.5931 -6.44531,1.51562 -1.29086,0.98888 0.15061,-1.63498 -1.67187,-0.17578 -1.61961,0.90474 -4.07246,2.31693 -5.12305,1.21289 -0.97871,1.46582 -4.33581,3.29751 -5.05078,3.31641 0.42489,-2.55462 -3.03186,2.13068 -3.55664,0.17969 -0.67967,0.78848 -4.51797,3.00633 -2.0586,1.02929 -0.77,-1.34604 -4.184,2.45244 -5.06054,1.54883 1.8226,-1.44064 -2.01941,0.52359 -2.78125,0.64453 -2.31251,0.89265 -4.8457,1.74839 -7.0625,1.54883 -2.60311,1.16474 -5.15834,0.66642 -7.49024,2.42383 -1.65105,0.65552 -2.32632,-0.6919 -3.73828,1.11914 -2.02167,0.7395 -3.77452,0.25608 -5.38672,2.22461 -2.10708,0.0621 -4.07128,1.55699 -6.45703,2.12305 1.45871,-2.91138 -3.3396,1.74048 -4.20508,-0.0195 -1.58895,0.80036 -3.451,1.32697 -4.38281,0.60743 -2.25713,1.97911 -4.0319,0.61905 -6.54687,1.76757 -1.7943,-0.21165 -3.45747,0.9285 -4.73243,0.1543 -2.15007,1.36044 -3.96788,0.0447 -6.37695,1.44531 -1.7598,0.36469 -5.6509,1.72312 -6.18945,1.20313 2.73353,-1.63899 4.79656,-4.23217 7.70703,-5.60742 0.49992,-1.3767 2.61112,-1.56741 3.64648,-2.66797 2.31893,-0.81351 4.59256,-1.96615 6.39649,-3.06055 2.28329,-0.10602 2.33369,-1.95074 4.87304,-1.69336 0.86873,-2.14031 3.88391,-1.68349 5.22266,-3.55273 2.78808,0.027 4.87123,-1.79889 7.38477,-2.71875 1.04689,-1.51688 3.7436,-1.54303 5.09179,-3.03711 2.43976,-0.53307 4.0062,-1.98949 6.56641,-2.06055 2.26167,-1.60996 5.51854,-2.05303 7.08398,-4.31055 2.83741,-0.43914 5.17179,-2.12402 7.625,-3.36132 2.57076,-0.97667 4.95605,-2.06299 7.53516,-3.02344 3.75368,-2.03237 7.8406,-3.34672 12.08398,-3.85352 4.42712,-0.99413 -4.77872,0.56021 -1.08007,-1.07617 1.6645,-1.53403 4.49089,-0.85115 6.11132,-2.14844 2.06159,-0.45569 4.70288,-2.05212 6.57813,-3.73242 1.40852,-0.55109 1.9449,-2.86511 2.0957,-3.19922 1.55762,1.47768 5.38469,0.13236 3.38672,-1.92578 -0.54066,-1.38482 -2.14492,-2.85855 -2.22656,-3.70898 -2.06638,2.75017 -4.30226,5.87589 -7.92188,6.54101 -1.08691,0.33751 -4.55,1.66857 -1.78906,-0.004 -1.0636,-1.02724 -3.49831,1.97365 -5.375,1.93359 -2.53909,0.9402 -1.0905,0.59133 -0.88867,-0.58984 -1.62248,0.90391 -3.93846,1.94962 -5.29883,2.61523 0.51999,-2.47903 -2.66767,1.56013 -4.00195,1.34961 -0.99591,1.13235 -1.21618,1.27479 -1.25586,-0.17383 -1.0447,0.0308 -2.64373,2.39419 -3.11719,0.89258 -0.94019,0.90799 -3.60071,4.13141 -1.84766,1.12695 -1.73502,0.29258 -4.75619,3.28991 -5.48632,3.09375 -0.27795,-1.78125 -4.11089,1.90871 -5.0625,2.21485 1.21655,-2.18654 -2.71935,1.74004 -3.47461,0.57617 -0.61179,1.37681 -3.79276,3.30653 -1.52735,1.07226 -1.62727,-0.38883 -4.82419,2.11963 -5.29882,2.04102 0.17117,-1.78386 -2.58048,1.80015 -4.03125,1.38867 -1.22208,0.68723 -1.61354,1.10026 -1.11329,-0.11523 -1.9305,0.23864 -4.49379,2.16151 -5.93164,0.82031 -2.44187,1.95364 -4.82637,0.21942 -7.17187,2.36914 -2.16132,-0.35932 -4.21302,0.73325 -6.57031,1.11328 -0.58341,-2.05179 -4.7393,2.83437 -4.78125,0.21875 -1.67596,0.40286 -3.99789,2.56664 -4.70899,0.58594 -1.31604,1.30409 -3.26069,1.542 -4.33203,1.0332 -2.32429,1.83897 -3.61925,0.12071 -6.04492,1.67383 -1.37452,-1.14909 -3.13285,0.62602 -4.58008,0.0449 -1.91721,1.16576 -2.42544,-0.43441 -4.25977,0.84961 -2.89785,0.15035 -5.79522,0.79337 -8.69531,0.54883 2.65149,-1.69081 5.48391,-3.16218 8.09375,-4.91992 1.72023,-0.56024 1.54025,-2.04292 3.73242,-2.08789 1.06476,-1.60207 3.60882,-1.39428 4.375,-3.10742 2.24675,-0.28336 3.76769,-1.95427 6.03907,-2.31446 0.0957,-1.55845 3.77579,-0.2933 4.08593,-2.39453 2.92942,-0.33774 4.98489,-2.25224 7.93946,-2.66406 0.78289,-1.44662 4.04204,-0.49937 4.99414,-2.07422 2.7922,-0.74147 5.46352,-1.37419 8.04883,-2.71094 2.66778,-0.19699 5.02486,-1.80445 7.42187,-2.80273 2.32558,-1.39419 5.12461,-2.08563 7.31836,-3.74024 2.55715,-1.20139 4.61285,-3.11946 7.27148,-4.09375 1.84245,-1.50379 4.14103,-2.05097 6.04493,-3.3789 2.85226,-0.97916 4.25712,-2.74173 7.36133,-3.24414 1.98168,-1.783 5.40177,-1.70686 7.92578,-2.98438 1.75536,-0.45316 2.04483,-0.96413 1.91406,-1.45898 1.70014,-0.1465 4.66445,-1.71497 5.97851,-3.64453 1.09561,-1.26974 3.6737,-2.01575 3.97266,-3.4336 -1.09943,1.20257 -2.20349,0.86101 -2.80859,0.31446 -0.77382,0.65843 -3.71133,2.51189 -3.78125,2.08593 2.6937,-2.24916 -1.935,-0.73544 -3.14649,-0.13476 -1.29876,0.38929 -2.70245,1.09107 -2.81054,-0.53711 -1.53884,1.34026 -4.62944,1.93228 -5.85352,2.00976 1.65589,-1.89581 -1.9635,0.89152 -3.03711,0.92969 -1.03121,0.15232 -3.59571,1.77728 -2.01367,-0.125 -1.78246,-0.21434 -4.613,2.04494 -5.74414,1.46289 -1.83167,-0.64868 -4.76842,1.65006 -6.7461,2.64453 2.05021,-1.19554 0.18597,-2.33473 -1.00976,-0.7832 -2.45575,1.23791 -4.52696,-0.0664 -7.02149,1.50195 -2.49025,0.0906 -4.8371,1.56284 -7.43164,1.35157 -3.69671,1.22619 -7.52093,2.24951 -11.42382,2.33984 -2.86353,0.13568 -5.54473,1.91249 -8.40821,1.25976 -2.48475,1.13874 -5.27308,0.42061 -7.66797,1.75977 -2.67391,0.86933 -5.62268,1.20962 -7.93554,2.85156 -1.35674,0.59346 -3.09501,0.63993 -2.6836,2.55078 -1.37343,2.2365 -0.91412,5.47811 0.91211,7.37891 1.19091,-0.5063 -1.32652,-4.19756 -0.50195,-4.83203 1.13898,2.93647 2.13529,6.23469 4.92969,8.05469 1.32274,1.57428 -2.99417,-1.41752 -3.70703,-1.8711 -1.52966,-1.32041 -4.63062,-3.39408 -4.16993,-5.22851 2.31627,2.3811 0.5326,-3.14317 1.77539,-4.30469 -2.77644,0.97678 -4.90135,3.14666 -6.83984,5.27344 -0.75302,1.0721 -2.643,3.29128 -2.40625,2.25195 -0.94936,1.85012 -2.78639,3.63425 -3.31641,6.0293 -1.78791,2.94527 0.50727,-2.3761 0.98829,-3.07422 2.15063,-3.82723 5.16474,-7.15624 8.52734,-9.94727 3.01325,-1.32536 3.59894,-4.30922 3.94141,-7.23828 0.65618,-2.92263 1.75276,-5.71322 2.76562,-8.49023 1.01706,-1.45179 2.28371,-3.08178 2.55859,-4.67383 2.14156,-1.95141 3.94474,-3.93943 6.54493,-5.32617 0.63354,-1.75627 3.53064,-2.54938 3.85156,-4.52539 2.73731,-0.84907 3.46084,-3.74879 5.94531,-4.9336 0.71675,-1.72803 3.02533,-2.94647 3.74805,-4.52929 2.06831,-0.67563 2.20454,-3.23721 4.71679,-3.69922 1.09233,-1.98989 3.53793,-2.63997 4.77149,-4.08594 2.97498,-0.44375 3.88769,-2.89901 6.97851,-3.26563 0.3543,-2.55186 4.87691,-1.44362 5.39844,-3.83984 2.63282,-0.76414 4.92013,-2.3574 7.69336,-2.58984 1.82071,-0.24594 2.16134,-1.85607 4.29492,-1.2461 1.19664,-0.59342 3.55998,-1.20649 4.00196,-1.36523 -0.0308,-1.75737 5.38055,-0.005 4.91015,-2.16406 2.19591,-1.86006 3.14601,-4.7026 4.74414,-7.02735 1.31301,-1.01072 0.81773,-5.55245 0.46094,-3.47265 -0.79926,0.11875 -3.0594,2.11557 -1.75781,3.37109 -1.56299,2.68501 -5.08232,2.83935 -7.79492,3.50391 1.90696,-2.72421 -2.80562,-0.40814 -4.03321,-0.0684 -1.00184,0.20715 -2.50125,1.47172 -2.08203,-0.17774 -1.91584,0.77212 -4.53725,1.99779 -6.2832,1.95508 1.47428,-2.77361 -3.48267,2.13824 -2.80859,-0.48437 -0.59683,0.71682 -3.16527,2.84338 -2.1211,1.12109 -0.97428,0.0899 -4.27227,2.34034 -2.59375,-0.0391 0.56035,-1.24638 1.79152,-4.24721 0.0566,-1.4668 -0.41971,1.02017 -1.85291,4.46529 -2.39062,3.62695 0.7556,-1.95084 -2.11012,-0.13374 -2.38867,0.59571 -1.66424,-0.0347 -2.66202,1.49329 -3.96289,2.07617 1.61782,-2.77115 -2.46145,0.85802 -3.79297,0.36914 -1.29695,0.97293 -0.90554,-1.2386 -2.60743,0.13476 -1.52265,0.40664 -3.70348,1.4046 -5.125,1.65821 2.15059,-1.70173 -1.34564,-0.034 -1.71679,0.8125 -1.81104,-1.45334 -4.81683,1.07909 -6.84766,1.66601 0.96558,-2.00696 -3.10977,0.62502 -4.0957,0.69532 -1.20907,0.51431 -1.34772,0.7527 -0.94922,-0.41211 -2.02901,-0.25675 -4.64166,2.02738 -5.95117,0.52343 -2.32086,1.80337 -5.28658,0.29014 -7.84766,1.22852 -0.97529,0.20549 -2.512,0.80727 -1.6914,-0.46484 -1.88406,0.61304 -3.97579,0.69113 -5.28126,0.5664 -0.14475,-1.23469 -3.88136,0.91205 -4.10156,-0.35742 -2.70961,0.6799 -5.46962,0.51853 -8.19336,0.89648 -1.79768,-0.68194 -3.65283,0.99438 -5.55859,0.0508 -2.70798,1.01208 -5.38266,-0.20701 -8.07031,-0.0899 -2.87258,0.25021 -5.68355,-0.16784 -8.54492,-0.64062 -1.16119,-0.10367 -3.59256,-0.20817 -1.20118,-0.55664 3.55818,-0.54327 6.99116,-1.64515 10.43555,-2.63868 0.77492,-1.57916 3.3181,-0.39148 4.13867,-2.14257 2.45607,-0.26294 3.30283,-2.0463 5.82617,-1.97071 1.75897,-1.82955 4.72414,-1.26115 6.94141,-1.9375 1.52696,0.61289 2.09594,-0.33324 2.45703,-1.19531 1.09654,-0.008 3.86297,0.86764 3.18164,-1.125 1.61075,0.0424 4.57344,0.49657 4.37305,-0.92578 2.87646,0.58987 4.1887,-1.66409 6.93945,-1.07422 1.6862,0.1118 0.7991,-2.09412 2.89844,-1.63672 2.33089,0.25059 1.04949,-2.12714 3.31836,-1.74023 2.25445,-0.52551 4.0013,-1.95765 6.41992,-2.2207 0.65802,-1.85915 4.70083,-1.04854 4.4668,-2.70118 1.12393,-0.42576 5.12694,-0.18911 4.6875,-0.99218 -1.53708,0.4498 -2.11721,-0.31443 -0.34766,-0.51172 1.62429,-0.70859 4.9697,-0.60747 5.7832,-1.40235 -1.41089,0.12125 -4.1788,0.0144 -1.18164,-0.34961 3.03769,-0.43147 6.02487,-1.32024 8.77149,-2.5332 2.80773,-0.44602 5.42868,-1.61687 8.16797,-2.12109 -0.0779,-1.51499 3.65831,-0.48351 5.19726,-1.63672 3.0322,-1.10585 6.20976,-0.64058 9.21875,-1.53516 1.85061,-1.65437 5.18432,-1.01018 7.13867,-2.88672 1.09017,-0.39862 3.44659,-1.5414 0.79688,-1.09961 0.83437,-1.13068 2.31405,-4.04785 3.50195,-5.64062 -0.30916,-1.02085 2.0968,-2.59021 -0.11328,-1.85156 -0.92251,1.00066 -2.10572,1.15468 -1.23242,1.99804 -2.30831,2.59986 -4.67885,5.86719 -8.45313,6.19336 -1.90919,0.97221 -1.99883,-2.65264 -3.65234,-0.47461 -1.4719,0.80455 -3.94001,2.36319 -4.21289,0.61524 -0.53367,0.36506 -4.63585,2.19986 -2.99414,0.9375 1.46355,-2.45137 -1.75309,1.44697 -2.23438,1.20508 1.87246,-3.25792 -5.73925,2.27987 -2.60156,-0.50586 -0.65114,-1.33928 -2.02198,2.60988 -3.19726,2.27539 1.24769,-1.84184 -0.20487,-1.9501 -1.08985,-0.44532 -1.2345,0.39017 2.1512,-2.58402 -0.53711,-0.86914 -1.02663,0.87678 -3.05106,2.88757 -3.98437,2.70313 2.01411,-1.54522 -3.64471,-0.7157 -3.90625,0.81641 -1.64553,1.38765 0.46302,-1.50551 -1.78516,-0.57813 -1.69474,0.27254 -2.25249,2.24871 -4.18164,1.77344 -2.44634,1.37858 -4.49721,2.74155 -7.22266,2.72265 -2.32812,1.24876 -4.91503,1.80621 -7.38085,2.97461 -0.54167,-1.47201 -3.33577,1.0398 -4.73438,1.23633 -0.68538,1.10124 -1.62229,-1.61829 -1.77344,0.23047 -2.0441,1.45599 -5.05597,-0.0972 -6.10156,1.21484 -0.13685,0.82878 -2.82421,1.29271 -3.51172,0.76172 -2.87016,2.29342 -6.6674,2.6097 -10.17969,2.98047 -0.27656,2.59669 -5.10311,0.36979 -4.56054,2.51172 -2.42413,0.18312 -4.16669,2.19023 -6.25782,2.76562 -1.08348,1.54644 -3.61435,1.382 -5.07226,2.59961 -2.60118,0.70742 -5.02353,2.02323 -7.56445,2.96875 -3.66873,1.01288 -6.8014,3.377 -10.55079,4.13672 2.13608,-1.59836 4.206,-3.22091 6.26563,-4.84179 2.06354,-1.73923 3.71836,-3.11783 5.8125,-4.60938 1.74661,-1.00505 2.04494,-2.86727 4.38281,-3.26953 0.36929,-2.06581 3.91408,-1.47809 4.05664,-3.47266 3.02688,-0.21781 2.43129,-2.93893 5.38672,-2.87695 1.52329,-1.06526 1.91052,-2.4016 4.22461,-2.47266 1.74951,-0.48914 -0.76863,-1.94155 1.42969,-1.74804 0.97929,-0.13028 3.97105,-0.40796 2.52344,-1.89649 3.04981,0.36197 4.2999,-2.66845 7.06054,-2.5664 1.44975,-0.82969 2.06983,-2.13989 4.19336,-2.23438 0.31246,-2.07972 2.94235,-1.41226 4.31055,-2.88476 0.69384,-1.94937 4.51543,-1.36045 5.33594,-3.41016 2.10683,-0.35467 3.93871,-0.84822 4.95703,-2.10938 3.21587,-0.25133 3.68982,-2.46115 7.0039,-2.8789 1.54313,-0.92277 2.48389,-1.91492 4.66211,-2.06055 1.84309,-1.69934 4.7795,-1.9256 6.31641,-3.62109 2.64926,-0.99911 5.58185,-1.91984 8.01953,-3.03906 2.35446,-0.75589 4.29306,-1.54187 6.88086,-2.09571 2.50537,-0.802 4.55314,-1.29216 6.95117,-2.13281 2.7385,-0.60324 5.85987,-0.77017 7.17578,-3.63867 1.3287,-2.02045 2.9924,-4.25776 4.31055,-5.90821 0.43298,1.89258 3.27631,0.89929 1.35352,-0.69531 -1.42353,-2.24138 -3.62255,2.97865 -4.2168,2.55274 -0.58307,-1.95132 -3.59778,2.64641 -0.57227,0.80468 0.46814,0.29704 -2.61483,2.9787 -3.83203,3.33008 -1.31327,0.48817 -2.67751,0.82565 -4.01758,1.23047 -0.49621,-0.88631 -0.88751,-2.05094 -2.03906,-1.19336 -1.50289,0.64205 -4.88874,0.8321 -1.77539,-0.46875 -0.32886,-1.74831 -2.78823,3.07719 -3.1875,1.37305 0.80323,-2.27256 -3.32523,1.42187 -2.75195,-0.12891 1.79028,-3.76138 -1.88631,3.26029 -2.03711,0.16992 -1.32442,0.37584 -4.3151,2.38308 -2.45508,-0.2207 1.08809,-1.19618 0.98557,-2.44483 -0.20898,-0.59961 -0.95713,1.3629 -1.95285,3.64502 -3.27735,1.98047 -1.09357,1.10107 -3.04419,1.57286 -0.96484,-0.10156 2.04986,-2.64689 -1.97342,0.71842 -1.99609,1.71289 -0.66025,1.12809 -1.27031,1.15887 -1.38672,-0.0645 -0.90248,0.65358 -5.0138,2.04232 -2.22266,0.41211 1.68881,-0.0406 2.2591,-3.70671 0.66992,-1.01368 -1.39721,-0.007 -3.06276,3.18887 -3.60547,2.28125 0.0875,-1.25705 -1.04291,-3.71269 -1.40234,-1.2207 -1.10297,0.82023 -3.03065,2.86664 -3.73242,2.67773 -0.23694,-2.37614 -3.37546,2.71627 -3.24219,-0.1621 -0.5406,1.16407 -4.15475,3.22976 -2.04297,1.13085 -1.62513,-0.43964 -4.27951,1.4468 -5.98633,2.21289 1.67378,-2.83542 -2.11473,1.3675 -3.08203,-0.11132 -0.70669,0.43895 -3.71116,1.7913 -1.99414,0.21093 -1.63975,-0.54381 -4.70058,1.87497 -5.78125,1.39454 1.03568,-1.93749 -3.13949,0.54052 -4.32031,0.22656 -1.58093,0.52878 0.11151,-2.01369 -2.01367,-0.67578 -2.87125,1.46263 -4.91311,0.63315 -8.07422,1.86523 -1.87652,-1.24434 -4.841,1.19615 -6.85938,0.0234 -2.75226,0.42863 -5.59715,1.59215 -8.27539,1.06445 -2.38666,0.66024 -5.09002,2.03749 -7.45703,1.64453 -2.31858,0.87576 -4.83203,1.47135 -7.21289,1.53711 -2.41214,-0.19083 -4.5158,1.2843 -6.95117,1.80274 -1.95904,0.50226 -4.32515,1.65894 -4.11524,3.59765 -0.62746,-2.83986 1.9499,-4.94372 4.11524,-6.24414 2.07403,-1.58225 4.39321,-2.9478 6.49805,-4.24804 2.37379,-0.66221 3.79512,-2.35037 6.18359,-2.88672 0.29464,-1.75 3.53899,-0.23345 3.97852,-2.28907 1.87173,-0.11298 3.06377,-1.09811 4.12695,-1.76171 2.90295,0.43189 3.85576,-1.95015 6.75,-1.78321 0.86146,-0.46214 -0.4362,-1.75228 1.47851,-1.25195 1.0039,0.091 3.66308,-0.62342 2.71875,-1.47852 2.98986,0.22537 5.12219,-1.56363 7.92188,-1.57422 1.09025,-1.64305 4.2089,-1.34586 5.10547,-3.00585 0.7883,-1.06291 4.31707,-0.47379 4.50586,-2.25 1.96948,0.0613 3.60834,-0.9809 4.73047,-1.54688 2.68226,0.80764 5.19112,-1.11487 7.16601,-2.08008 0.45648,-1.2577 5.41151,-1.01695 4.38867,-2.01172 -3.38038,-0.0719 1.94243,-0.67894 2.95117,-0.85937 2.71548,0.26312 3.58844,-2.20879 6.22071,-2.4336 0.5346,-1.19753 2.26231,-0.17734 0.80664,-1.82617 -1.31222,-1.22643 -1.00965,2.24186 -2.9668,1.34766 -0.59756,1.1387 -4.60857,3.04955 -4.35156,2.03516 0.88218,-0.95676 3.47148,-0.76848 1.4043,-2.06641 -1.63315,-1.05038 -3.57645,2.75513 -5.3711,2.63086 -1.25112,-1.42077 2.19274,-0.26889 0.31055,-2 -1.98686,0.28261 -4.21303,3.36994 -5.70508,2.65625 2.1332,-0.75357 0.39159,-2.32869 -0.9043,-0.67188 -1.24762,-0.1111 -3.04407,2.71924 -3.42382,1.68946 3.04797,-1.99302 -3.73779,0.76536 -0.79493,-1.20508 -0.61558,-1.38189 -3.29699,3.27154 -3.68359,1.67383 2.19484,-1.30222 -0.17221,-0.83219 -0.96484,-0.58399 1.54804,-0.73164 1.21181,-2.12171 -0.33985,-0.54297 -1.82291,2.66299 -5.31748,1.49138 -8.02343,2.48438 -0.63792,-0.086 1.23217,-1.21842 -0.74805,-0.73633 -1.32996,0.0703 -3.48303,1.5651 -3.57227,0.45703 -2.52592,1.71358 -5.70165,0.4938 -8.47851,1.61133 -3.3906,0.77073 -6.91162,1.22444 -10.0625,2.77148 -2.84099,0.55514 -5.1001,2.64099 -7.66407,3.8711 -2.41585,1.54429 -4.37296,3.46879 -6.48046,5.36328 -1.38529,0.77877 -2.97893,2.49104 -3.77735,3.18164 1.43492,-3.11099 4.4038,-5.08472 6.26172,-7.91992 1.76204,-2.11774 3.9258,-3.78602 5.70313,-5.76367 2.39774,-1.15951 2.99671,-2.95212 5.40625,-3.94532 1.42377,-2.14568 5.09608,-2.92943 6.19336,-5.1289 2.36858,-0.87897 4.43636,-2.17898 6.73437,-3.03516 -1.56616,-2.01622 3.74628,-0.11228 3.7168,-2.52344 2.48046,-0.35378 5.4213,-1.43196 7.16211,-2.55859 0.97505,-1.28549 4.04333,-1.00818 4.98633,-2.37891 3.09698,0.21505 4.59898,-2.166 7.66406,-2.41601 0.62653,-2.16343 4.59165,-0.89053 5.30078,-3.03711 3.09163,0.0116 5.85359,-1.685 8.95117,-1.38672 1.47462,-1.71497 5.08497,-0.41394 7.25195,-1.8457 1.38208,0.22032 2.48454,-0.52611 2.67578,-1.11719 1.67513,0.37497 1.90136,-0.66236 3.72071,-0.32617 -0.40452,-1.08855 -2.5686,-1.26122 -0.57422,-2.56641 2.04816,-0.13143 3.45887,-2.32406 2.63281,-3.6543 -2.26496,1.15438 -3.30632,3.36987 -4.8125,5.03907 -2.50022,0.94601 0.19705,-0.63079 -0.76367,-1.20899 -1.18685,1.49394 -3.86778,1.15736 -1.75977,-0.80078 1.48941,-2.8754 -1.78087,0.24818 -1.79296,1.41211 -1.47565,0.52639 -6.54395,2.98874 -4.06641,-0.0527 1.03555,-0.88345 1.28231,-3.2869 0.14062,-1.10938 -1.02799,1.24553 -1.75633,1.02999 -1.05859,-0.43164 -1.53089,-0.79787 -2.45808,3.14111 -0.69531,2.71484 -1.34895,0.45789 -4.25899,2.12929 -4.96289,1.11524 2.45215,-0.30771 4.52339,-3.63586 3.54101,-5.29688 -0.83608,1.49613 -0.63634,3.45897 -2.97461,3.64258 -1.09037,1.70409 -3.39277,1.76237 -4.38086,2.40625 1.64327,-2.98253 -1.91678,0.22722 -2.31836,1.33594 -1.47682,1.19441 1.15886,-2.4061 -1.02539,-0.64063 -1.28305,1.12106 0.65973,-1.53676 -1.34375,-0.30273 -0.20224,0.93833 -0.54919,1.35384 -1.41992,0.29492 -0.54923,1.52826 -1.93393,0.21194 -3.02539,0.72461 1.58179,-1.10477 -0.057,-2.14777 -0.57617,-0.375 -1.7568,1.17459 -3.63652,1.60053 -5.63672,1.90625 -0.9679,-1.31034 -2.6982,1.90226 -3.87305,-0.48047 -1.72792,0.60221 -2.78611,0.82824 -4.10546,0.7793 -2.1437,1.02054 -3.90675,-1.10464 -6.11524,0.33203 -2.81269,-0.003 -5.60449,0.006 -8.42578,0.11914 -2.56545,-0.35637 -5.06958,0.41834 -7.66211,0.49219 -1.17672,-0.95009 -1.23811,1.67932 -3.06641,0.51953 -2.42594,-0.44649 -4.31215,0.77786 -6.70703,0.25391 -0.84203,0.32182 -3.77766,-0.0754 -3.02343,1.42578 0.32753,1.90898 -1.05821,-0.29439 -1.12696,-0.1875 -1.93255,1.12842 -4.02144,4.20156 -5.36914,4.78125 1.88375,-3.42004 4.11888,-6.67152 6.76563,-9.51953 1.32363,-2.15765 3.35826,-3.78902 4.63867,-5.92579 2.04341,-1.40512 3.78349,-2.8689 5.56641,-4.59765 2.06893,-1.01754 2.65077,-2.79553 4.98242,-3.50391 0.54035,-1.54061 2.9637,-1.21752 3.17187,-2.97265 2.20964,-0.6764 3.48177,-2.56174 5.64258,-3.44336 0.0546,-1.51166 3.09204,-1.00297 3.06445,-2.89844 2.70163,-0.98937 3.57469,-2.65629 6.31641,-3.44531 -0.59483,-2.11403 3.95608,-1.0903 4.58008,-2.98047 1.01106,-1.09366 4.2043,-0.63439 4.69336,-2.54102 2.34736,-0.44975 4.07086,-1.23765 5.71875,-2.46679 2.53711,-0.65302 4.63291,-2.46174 6.83398,-3.58399 2.23221,-1.36189 4.9702,-2.00882 7.4961,-2.91406 2.13193,-0.40372 4.46036,-1.19364 6.78515,-1.85547 1.04391,-0.20764 4.55844,-0.72591 1.99219,-1.18359 0.97211,0.0889 -1.95408,-0.15065 -0.45508,-1.46289 0.0833,-1.38065 2.41488,-2.63962 -0.1543,-1.45899 -2.94155,-1.08674 -3.66366,2.35112 -5.8457,3.02539 1.26153,-1.60439 -1.67077,-1.62634 -0.63086,-2.65039 -1.37377,1.53849 -2.41409,3.49665 -4.33008,4.2168 -1.08258,-0.2849 2.28259,-1.73461 -0.21679,-1.06445 -0.59564,-1.65564 -0.37423,-1.58086 -1.32422,-0.55665 -1.81836,-0.18574 -4.18593,3.77103 -4.66016,2.08789 1.6965,-1.02765 -0.81166,-2.21884 -1.51562,-0.52148 -1.46274,-0.0643 -2.91769,2.9865 -3.89844,1.7832 2.11165,-1.72713 -2.4944,0.10081 -3.37109,0.54297 -0.98789,1.24358 -2.81424,0.91287 -2.86719,-0.0332 -1.77031,2.70364 -5.37037,0.49644 -7.00586,2.90039 -1.36524,0.85227 -1.54296,-1.62742 -2.68164,0.0352 -1.77858,0.49721 -4.41472,2.61665 -3.19336,0.55468 -1.18005,-0.31685 -4.07083,2.46786 -4.1875,1.64649 1.41184,-1.04103 -1.85663,-0.39845 -0.82617,0.23633 -1.98539,1.21008 0.0413,-1.46065 -1.48243,0.0527 -0.62249,0.69052 -2.97891,1.60792 -1.49218,0.15234 -1.64951,0.34068 -3.72585,2.50322 -4.88086,1.35352 -2.09013,0.83988 -5.74866,2.03594 -6.85938,2.63477 0.30664,-2.18681 -2.91728,2.41292 -3.59179,0.86523 -2.8446,1.25358 -5.61356,2.68103 -8.61719,3.28125 -2.43384,0.86775 -5.01178,0.84432 -7.34571,2.04102 -3.03457,0.0308 -6.00277,1.18337 -8.93164,1.96484 -1.1596,0.28501 -4.22307,1.97281 -1.83398,0.17187 3.15063,-1.37387 2.70643,-4.79446 4.14844,-7.37109 1.0733,-2.52483 3.19354,-4.56259 4.03906,-7.10937 1.80684,-2.00633 3.31549,-4.2086 5.31836,-5.89258 1.7118,-2.14892 3.69161,-4.10841 5.79687,-5.9336 1.71392,-1.71249 4.43213,-3.07937 5.19141,-5.40429 2.35982,-1.20193 2.89373,-3.42193 5.43164,-4.10157 -0.0717,-1.67989 3.10558,-1.58358 3.66602,-3.38281 1.42405,-0.39293 2.74665,-1.55058 1.78515,-2.63086 1.75675,-0.23004 4.42944,-1.25979 3.76172,-2.49804 2.95983,-0.0946 4.45624,-2.92356 7.24805,-3.39844 1.06111,-1.78979 4.22379,-1.01929 4.96484,-2.94336 2.92173,-0.6006 4.93842,-2.48751 7.77149,-3.22461 2.5711,-1.04694 4.80167,-2.1533 7.4082,-2.88867 1.54253,-1.23013 3.86494,-1.61966 5.11914,-3.1875 -2.68615,1.06091 -3.70716,1.33976 -6.49609,1.96679 -0.91618,-0.39258 0.19381,-1.2579 -1.09571,-0.88085 0.97456,-0.61371 4.60289,-3.38551 1.54883,-1.9375 -2.00468,0.71632 -3.45354,2.89565 -5.11133,1.67578 -1.85614,-0.14554 -3.86599,4.35001 -3.94921,1.29882 -2.29007,0.11049 -3.7213,2.74392 -6.23633,2.15235 -0.9659,1.27714 -3.64114,2.60618 -3.01563,1.05664 -2.19257,0.53137 -2.40875,2.86977 -4.99609,1.92578 -1.32533,1.47668 -2.34311,2.13729 -4.23047,2.14258 -1.3605,2.33183 -4.40405,1.05816 -5.65039,3.64062 -1.6354,-0.68339 -3.98403,1.74043 -6.10352,2.17774 -2.74785,1.53879 -5.39135,3.29415 -8.1914,4.82422 -2.45225,1.71346 -5.03259,3.19295 -7.54493,4.77929 -2.30422,1.16615 -4.44042,2.41094 -6.54492,3.77539 -2.48853,1.70612 -4.94221,3.61971 -6.49609,6.27344 -0.68303,1.09851 -1.95979,5.0575 -1.45117,1.41797 0.86417,-3.99099 2.99386,-7.73549 6.01953,-10.47852 1.51367,-2.27812 3.62834,-3.9254 5.47851,-5.98828 2.38526,-1.44228 4.37467,-3.5932 6.58985,-5.20117 1.95262,-1.52266 3.50316,-3.38946 5.17773,-5.29101 2.01164,-1.82914 3.65114,-4.37077 6.48438,-5.2793 0.42552,-1.57882 4.19252,-2.19246 3.09765,-3.38281 2.64178,-1.05064 4.09522,-3.32586 6.89649,-4.02539 2.09311,-1.38236 4.38617,-2.70196 6.71094,-3.75586 2.38594,-2.0292 5.52333,-2.90915 8.2871,-4.28711 1.06558,-1.88162 3.9498,-0.81912 4.42188,-2.87696 2.77222,-0.39304 3.34152,-3.19994 2.58789,-5.30664 -0.14885,1.61298 -0.71319,4.36052 -2.79101,2.83008 0.27625,1.53503 -3.66055,-1.18704 -0.91602,-1.82812 2.99303,-1.68856 -1.83531,-0.53642 -1.75586,1.14648 -1.08429,1.44502 -0.99153,-1.35314 -2.60742,-0.0644 -2.43664,-0.20587 -1.54732,2.28557 -4.09961,1.48828 -2.33521,-0.75975 -3.76935,1.70288 -6.17188,1.05078 -1.96162,1.4628 -4.41726,-0.38014 -6.03711,1.8457 -2.56351,-0.41415 -4.75592,1.04317 -7.04101,1.3125 -2.52366,0.56126 -5.0281,1.38639 -7.64453,2.08203 -2.85917,0.86377 -5.87543,1.50235 -8.80274,2.44922 -2.8546,0.4798 -5.27827,2.1376 -8.09765,2.53125 -5.06501,1.54777 -10.64858,1.90284 -15.05664,5.11719 0.77049,-2.09756 3.79666,-4.91452 6.27539,-6.4043 2.06117,-1.55124 4.28942,-2.84451 6.32031,-4.17578 2.14004,-1.34269 4.75855,-2.02565 6.75391,-3.63281 1.91164,-1.21504 4.62932,-1.43141 5.93164,-3.16602 2.25236,-0.46743 3.48452,-2.04116 5.64453,-2.62304 1.94743,-1.43253 4.31671,-2.16709 6.54297,-3.24414 3.04856,-1.20962 6.34417,-1.83937 9.26953,-3.33203 1.14751,-1.16891 5.02679,-2.09388 4.50781,-3.43555 -2.50985,-0.36608 -3.84311,3.1879 -6.12305,1.78711 -0.92642,0.0947 -2.61108,3.20268 -1.99609,1.09765 -0.5426,-1.05278 -3.44397,3.56548 -4.99805,1.67579 -1.96845,0.33647 -2.7142,1.9275 -4.83593,1.15234 -0.72149,1.2669 -1.9964,1.19519 -3.13282,0.75977 -1.39207,1.67612 -3.56241,1.41597 -5.34375,2.40624 -1.76724,0.0258 -3.38175,0.74896 -4.82031,1.25196 -1.29995,-0.36625 -3.98277,2.62635 -6.14648,2.91601 -2.38622,1.32098 -4.97666,2.1676 -7.57422,3.06641 -2.56903,1.32124 -5.50557,2.3563 -7.44727,4.6582 -0.6413,0.11789 -2.62734,4.15974 -2.0625,2.16992 0.66321,-3.0547 2.083,-5.9638 4.16016,-8.27539 1.87377,-1.48964 3.28879,-3.73641 5.58398,-4.53906 1.90133,-1.67438 4.60786,-2.4808 6.28906,-4.2539 2.37546,-1.38353 4.49285,-3.01949 6.90625,-4.27149 1.01148,-2.06518 4.31089,-2.32505 5.74024,-4.0293 2.35594,-1.08212 4.67108,-2.21274 7.02344,-3.45507 2.78643,-1.06452 4.89633,-3.33434 7.4414,-4.86914 0.0166,-2.13498 -3.37062,-0.62323 -4.77148,-0.3711 -1.28732,0.53921 3.4747,-2.06239 0.0488,-1.16992 -1.66796,0.77633 -3.31776,1.15109 -4.79102,0.58789 -1.58068,1.46555 -3.87607,0.88407 -5.57227,1.91602 -2.44899,-0.58887 -4.47653,1.01307 -6.94921,0.57617 -2.30127,1.25214 -5.57643,0.84914 -7.99414,2.58789 -2.81255,0.40748 -5.21185,2.07987 -7.89649,2.71875 -2.54238,1.16584 -5.12904,2.30849 -7.75,3.38867 -2.76091,0.9887 -5.2115,2.87806 -6.79297,5.31836 -0.95105,-1.14384 1.80261,-4.74296 3.07617,-6.36523 2.08949,-2.19779 4.37201,-4.18375 6.93555,-5.81055 2.43754,-1.69976 5.17555,-2.99847 7.67578,-4.61524 2.32844,-1.24735 4.30259,-2.69332 6.86133,-3.5039 2.74608,-1.79692 6.32743,-1.74602 9.15039,-3.51367 2.31924,-1.50684 4.50389,-2.9337 6.91211,-4.30079 0.87669,-0.38585 2.77443,-2.3621 0.66016,-0.94531 -2.00335,0.7743 0.0967,-1.28662 0.41211,-1.70703 -1.76206,-0.18994 -3.39061,0.95659 -2.90235,1.76758 -2.33087,-0.50713 -4.59472,-0.37577 -6.65039,0.76562 -1.74936,-1.53053 -3.02855,0.36409 -4.41211,0.1504 -2.02204,-0.85267 -3.91611,0.85242 -6.08398,0.32421 -3.50848,0.73944 -7.24134,0.90175 -10.42188,2.71094 -3.01784,0.49651 -5.66625,1.81226 -8.55078,2.67188 -3.84177,1.02128 -7.91286,2.38304 -10.95312,4.82812 2.93223,-4.92998 7.79615,-8.54806 13.12304,-10.57422 2.73089,-1.67839 5.57494,-3.20068 8.40625,-4.73633 2.62959,-1.41662 5.51405,-1.70632 8.25,-2.80859 2.80013,-0.47251 5.57586,-1.46872 7.84375,-3.13086 2.10808,-0.49596 3.13418,-2.70101 2.86719,-4.46289 2.36752,-0.78744 5.27293,0.80172 7.18164,0.1582 1.44226,-0.17583 -2.35606,-2.05049 -3.35742,-1.71679 -2.96326,-1.03809 3.15938,0.45346 0.41992,-1.26367 -0.89542,-0.0359 -1.47863,-3.50487 -1.68945,-0.96094 2.20899,1.74421 -2.06189,0.95067 -2.60742,2.79883 -1.74734,2.20031 -4.43604,1.02429 -6.07227,2.9707 -2.77378,-1.21758 -5.2818,0.79214 -8.0918,0.49609 -2.67558,0.45785 -5.40831,0.71268 -8.05273,1.25586 -2.42047,0.6031 -4.9833,1.00881 -7.46289,1.83203 -2.43437,1.02992 -4.79936,1.3778 -7.24805,2.40039 -3.01564,0.78512 -6.06897,1.82202 -8.64648,3.58789 -0.77826,1.25412 -1.81056,2.61469 -1.33985,0.23829 0.94907,-3.58306 4.46943,-5.67723 7.25,-7.79297 2.44331,-1.78199 5.16472,-3.22545 8.01954,-4.20313 2.23306,-1.66578 5.04836,-2.4544 7.49804,-3.81445 4.26429,-1.94497 9.51951,-2.6823 12.41016,-6.77539 2.02667,-0.71216 4.77312,0.4947 6.80664,1.375 1.19819,0.66353 6.05906,3.80669 3.40234,1.04492 -1.97025,-2.02674 -4.65243,-2.98084 -6.70703,-4.76758 -0.75903,-3.51497 -4.58438,0.042 -6.77539,-0.0371 -4.0636,0.88649 -7.99558,2.2182 -11.79101,3.91211 -2.08978,1.10264 -7.69722,1.94202 -8.03125,2.85938 2.83067,-0.1677 5.33721,-1.61962 8.06054,-2.18164 1.21981,0.56299 2.38161,-1.44924 3.66016,-1.15039 1.15214,-0.47859 2.77034,1.67999 1.87305,-0.69727 0.53614,-1.05946 2.6248,-1.09986 0.75976,-0.33398 2.76176,-0.74659 5.8074,-1.42281 8.48633,-2.64063 2.60351,-2.05484 1.85949,2.04849 0.86133,1.49609 -0.41166,-1.80921 -3.33252,2.10692 -4.38282,1.66211 0.42165,-2.22534 -0.9747,-0.41603 -1.40429,0.40235 -1.84542,-1.33762 0.11676,2.3909 -2.3418,1.38867 -1.3388,0.64377 -3.76249,0.34649 -3.43945,1.95117 0.7389,1.49042 -1.7387,1.8737 -0.63281,-0.004 -1.19004,-2.0913 -3.37073,4.43624 -3.11524,0.88867 -0.42477,-2.08369 -0.54247,-1.4821 -1.14258,0.0781 -0.86208,0.82137 -0.70153,2.58283 -2.66992,1.73828 1.93281,-0.44966 1.08752,-1.65936 -0.2207,-0.96289 -1.51552,0.63033 -1.13029,3.07908 -2.87695,1.76172 -1.55476,1.39047 -3.03258,0.87806 -3.98829,-0.78711 0.1369,2.54124 -3.22486,1.36055 -4.55664,0.95703 -2.96128,0.77634 -5.57018,-1.00061 -8.41992,-1.55078 -1.52842,-0.65429 -4.11772,-0.81671 -5.05273,-1.56836 5.35824,-1.84677 11.26527,-1.60667 16.54492,-3.73828 1.48451,-0.72987 5.81841,-0.65176 5.47266,-2.26758 -1.47647,1.21762 -2.83224,-2.77639 -4.58204,-0.375 -2.11972,0.55076 -4.99861,1.65529 -7.57812,2.21094 -2.7633,0.77426 -5.808,1.40055 -8.67383,2.28125 -1.40338,0.77327 -3.68443,1.99287 -4.77148,2.1543 2.46012,-3.73985 6.22935,-6.38957 10.18359,-8.35352 2.29125,-2.21336 5.82408,-2.7111 8.06055,-5.06836 -0.3684,-0.83462 -3.25641,2.18291 -4.65625,2.40821 -2.3709,1.26893 -4.71115,2.56941 -7.33594,3.27929 -1.78041,0.34861 -4.81079,2.0774 -5.81055,1.75977 1.23595,-3.20318 4.2626,-5.092 6.48828,-7.50977 2.03644,-1.11325 4.6641,-2.96607 4.51368,-5.32617 -1.97973,0.4539 -1.47008,3.21019 -3.75196,3.24609 0.47128,1.30618 -0.91137,1.88024 -1.13281,0.63086 -1.40733,2.23522 -3.19303,3.84492 -5.93945,4.74805 -1.30548,0.64522 -4.25866,2.60222 -2.77539,-0.23047 1.87072,-3.80621 5.12379,-6.70599 7.37695,-10.28125 1.226,-1.1893 1.67686,-3.3774 0.12109,-2.63281 -1.17517,2.87793 -3.26848,5.41114 -6.13281,6.85937 -1.43471,0.33594 -4.70121,1.73867 -4.96094,0.8125 0.7587,-2.72285 2.77734,-4.63806 4.09375,-7.05468 -1.86313,1.27374 0.56172,-3.24761 1.36914,-3.98828 1.40103,-1.64546 0.36255,-1.7309 -0.70507,-0.34375 -0.87945,1.7555 -0.4103,-0.77037 -1.37891,1.03711 -0.54715,2.86954 -2.85575,4.14386 -5.45313,4.94921 -1.63088,-0.12736 -4.88179,0.85826 -3.26171,-1.70898 1.15443,-2.52689 -0.38549,1.6763 0.83398,-0.24805 0.75671,-2.12231 3.9014,-4.53745 3.75195,-6.03515 -2.16986,0.98152 -3.11967,3.2405 -4.35547,5.12109 -1.41093,-0.36466 -6.09253,0.66862 -3.39062,-1.29492 0.46485,-1.39694 0.0981,-3.01071 -1.5,-1.95508 -1.26237,0.088 -5.64243,0.61678 -3.77344,-1.53125 0.89521,-3.20358 -5.49752,2.61275 -4.68554,-1.09961 -0.49205,-1.27529 -5.11977,2.3876 -4.21094,-0.98828 -0.94702,0.15107 -5.2676,1.77678 -3.22071,-0.25 -2.27037,0.51342 -4.51659,0.0698 -6.86328,0.58398 -1.13595,0.41943 -5.44714,1.05291 -2.41406,-0.34765 4.33093,-1.39639 8.82499,-2.45783 13.35156,-2.90821 1.6778,0.49055 1.92394,-1.42395 4.08594,-0.35937 1.15752,0.24838 2.53376,1.03226 1.0918,-0.44531 1.24914,-0.88806 5.17313,0.94965 4.875,-0.44532 -0.074,-1.28071 5.13999,0.74548 5.24804,-0.38867 -0.0727,-1.51354 -1.76531,-3.71375 0.91993,-2.69726 2.3788,-0.74968 4.51482,2.11457 6.24609,1.65429 0.35961,-1.08374 -0.0727,-2.08682 -0.83398,-3.08398 -0.3588,1.10705 -1.20775,-1.91899 0.0801,-0.55664 -0.5721,-1.30893 -2.45164,-3.01048 0.25977,-2.11719 2.91529,-0.35297 5.70797,1.1812 7.13477,3.71875 1.02114,0.67454 2.9058,4.25362 1.74609,1.22266 -0.94744,-2.76377 -2.84581,-5.42847 -2.80469,-8.38867 0.86042,1.43679 0.83176,3.6836 2.06445,4.75195 -0.0745,-2.04567 -2.57853,-5.13019 -1.39648,-6.53906 3.00215,1.43934 5.9779,3.16705 8.15625,5.75781 1.60729,2.04507 2.76791,4.46133 3.68945,6.93555 0.38505,1.09704 0.79183,2.30332 0.64258,0.43359 0.64252,-2.92787 0.98247,-5.77828 0.25,-8.75391 -0.26743,-1.36341 -0.18513,-3.94643 0.43164,-1.08789 0.59826,2.35429 1.13891,4.77289 1.34766,7.17188 0.75194,-2.7602 -0.54313,-5.85035 -0.40821,-8.7461 -0.0276,-1.51441 -0.48997,-3.69114 -0.58398,-5.5332 z m 160.388669,0 c 1.89231,2.20348 3.34714,4.76172 3.80664,7.68164 0.72939,2.78759 1.14022,5.67183 2.10352,8.39063 1.65552,2.21096 0.54321,-3.00517 2.22265,-3.60938 0.86792,-3.14258 0.66211,3.60655 -0.006,4.77149 1.71301,0.0297 1.34748,-3.25542 2.08984,-4.58789 0.82046,-3.40413 -0.0158,-6.94355 0.95508,-10.32422 0.12415,-0.76383 0.17559,-1.54587 0.25,-2.32227 z m 15.96875,0 c 0.25083,0.8548 0.6103,1.67359 0.69336,2.58008 0.8539,4.25497 1.41533,8.56143 1.45313,12.90234 -0.55427,1.66501 1.16634,3.35073 -0.48047,4.98242 0.56409,3.00563 -1.2254,5.7453 -1.08594,8.49805 1.25252,-2.22329 2.18471,-5.455 3.39258,-8.01953 1.23917,-2.53292 3.19797,-4.6014 3.73242,-7.46875 0.81067,-1.57565 -0.24369,-2.46267 0.90625,-3.61719 -0.31395,-2.56819 1.27869,-4.92803 1.03906,-7.17383 0.25771,-0.85547 0.26551,-1.77757 0.33203,-2.68359 z m 13.89844,0 c 0.8836,2.35602 1.57043,4.78332 1.82227,7.29492 0.20413,3.10406 0.0809,6.18702 -0.0488,9.29492 -0.0906,2.7716 -0.7351,5.74476 -0.0195,8.39844 0.83932,1.44722 0.039,3.06627 -0.51563,3.35938 0.23305,1.22868 0.92239,-0.43201 0.1836,1.16992 -0.12407,0.99539 -1.43849,4.08518 -1.20704,1.39648 -1.05763,0.89682 -2.7773,3.16236 -2.02539,4.63867 -0.37168,1.45254 1.55623,3.06505 0.89453,0.51758 1.05872,-2.22333 4.29765,-2.92164 4.94141,-5.77734 0.50255,-1.21965 2.57759,-3.60935 1.42383,-0.79688 -0.64421,1.08229 -1.75602,2.58956 -0.19531,0.94532 1.23467,-2.7345 2.95018,-5.17232 4.09375,-7.93946 1.69545,-3.6011 1.79746,-7.78521 3.85156,-11.2539 2.00487,-4.18864 4.02737,-8.93336 8.29687,-11.24805 z m 22.22266,0 c -0.99663,0.63959 -2.35069,1.55058 -2.4961,2.24805 -1.5062,2.22815 -2.519,4.81618 -3.14648,7.41797 -1.03949,2.63536 -1.38496,5.43714 -1.17969,8.27148 -0.0706,3.30124 1.14531,6.5243 0.76367,9.83203 1.60056,1.84367 -0.89927,5.18616 0.35742,6.27149 1.20051,1.40589 -1.72414,4.12577 -1.58203,5.84961 -1.34685,0.88473 -2.75793,5.08409 -4.49804,3.7871 -1.13397,-0.72303 0.24801,3.51697 1.22461,4.03126 1.25132,1.72189 0.98596,0.43321 0.6582,-0.85547 -1.47898,-3.74358 5.06363,-1.78504 5.58789,-5.48633 1.82353,-1.81981 2.47786,-3.81159 4.20312,-5.66016 1.41231,-2.38542 2.64555,-4.81857 4.3418,-7.05664 1.71914,-2.45628 4.31493,-4.0723 6.19727,-6.28711 0.56664,-2.16633 2.47447,-2.65265 3.93359,-4.02148 3.07233,-2.08119 6.81909,-3.34127 10.55273,-2.84571 1.30563,-0.0532 2.46187,-1.66708 3.0625,-0.29296 1.9715,-1.56026 3.42098,-5.3873 5.96485,-5.5293 -0.12109,2.63134 -1.39169,5.10439 -1.27539,7.86719 -0.5964,2.75573 -1.03386,5.75217 -2.40039,8.20507 -1.70408,2.28313 -0.63094,4.48812 -2.20313,6.66797 -1.23685,2.9039 -1.61592,5.92348 -2.20508,8.89649 0.53602,2.16191 -1.59357,5.47897 -0.0273,6.44531 -1.40468,1.62625 -1.99033,3.11612 -1.48633,5.30859 -0.90273,1.28486 -1.98221,4.44283 -0.60547,4.40235 -1.52606,1.97955 -3.52298,3.32571 -4.67578,5.58398 -1.0652,1.51168 -3.12397,3.78364 -4.35547,2.74024 -1.43024,1.17924 0.0789,3.7367 0.66016,1.23242 2.38924,-1.76885 5.47599,-2.52566 6.7168,-5.60352 0.85268,-0.84474 3.55226,-5.0888 2.39648,-1.57617 -0.67764,1.22408 -3.22721,5.12135 -0.93945,2.24414 1.4161,-2.28311 3.53552,-3.94099 4.73633,-6.34375 0.53628,-2.55513 2.81194,-3.7325 3.17968,-6.48242 1.1973,-2.68865 2.96968,-5.03203 4.52149,-7.54102 1.87377,-1.72123 2.91855,-3.8649 4.72265,-5.62695 1.0666,-2.32233 3.18389,-3.94902 4.28907,-6.25391 1.88663,-2.05161 3.22772,-4.60237 5.05664,-6.81835 2.28593,-2.72555 4.96747,-5.37059 8.26953,-6.76758 -1.64709,2.1255 -4.08326,4.35081 -4.43555,7.3457 -0.48419,2.80018 -1.6655,5.49978 -2.98242,7.91602 -1.28226,2.78129 -2.54136,5.67152 -4.09375,8.3789 -1.55924,2.74847 -3.11327,5.43728 -3.9082,8.5293 -0.58812,2.70204 -2.59242,4.94297 -2.23243,7.43945 -1.53071,2.07263 0.0339,4.43498 -2.24023,6.17774 -0.63287,1.60621 0.50913,0.76269 0.50195,0.81054 -0.14972,1.47863 -3.27407,5.37679 -1.48242,5.57813 0.67883,-0.2805 -0.57941,3.49504 -1.70312,2.84375 -1.68299,1.72597 -2.41977,4.37083 -4.19922,5.57226 2.39097,0.48653 3.16644,-2.83199 4.91601,-4.11328 2.17791,-3.21819 4.51309,-6.38395 6.08008,-9.96093 1.61067,-2.5635 2.2318,-6.19377 4.91602,-7.84766 -0.21107,2.31205 -2.4735,4.77509 -2.51367,7.10937 -0.51689,1.18093 -1.52085,2.85175 -0.20508,1.06836 1.1809,-2.84962 2.57621,-5.51649 4.47851,-8.00781 1.45695,-2.94625 5.30606,-3.69055 6.77735,-6.76172 1.36133,-2.44955 3.37318,-4.48129 4.85351,-6.91406 3.14113,-4.64357 6.98048,-9.05436 12.13086,-11.49414 2.13736,-0.35753 -2.00909,1.79928 -2.41601,2.55273 -2.00428,1.77691 -3.13483,4.25335 -4.3125,6.5586 -1.19099,2.5494 -2.26085,5.18089 -3.62696,7.62109 -1.02389,2.77084 -2.63537,5.36017 -3.13281,8.30469 -0.9709,1.60551 -0.82435,3.06479 -0.86914,4.54297 -1.72537,2.09505 -0.58243,4.62924 -2.46289,6.7539 -0.14283,1.06157 1.28577,1.33568 -0.10938,2.78711 -0.61652,2.11772 -0.99891,3.94646 -2.2246,5.85547 -0.0714,1.39098 2.00753,-1.46794 1.22656,0.77149 0.66119,2.41068 -2.28419,4.06945 -1.72656,5.94726 1.70107,-1.95848 2.72926,-4.77544 3.63085,-7.34765 1.27961,-2.09136 2.68535,-4.43393 3.60938,-6.83008 1.69903,-1.57379 2.65051,-3.73193 4.125,-5.52344 0.20171,-2.51808 2.28334,-2.33696 2.67383,-4.74805 1.2754,-0.45811 1.72992,-2.96711 2.79492,-4.16601 0.71068,-1.49984 2.16056,-2.20418 2.74805,-3.98047 1.95039,-1.53424 2.8162,-3.91879 4.71093,-5.44531 1.29665,-2.49621 3.01116,-4.53673 4.90039,-6.66211 2.31342,-1.24471 3.83059,-3.57837 6.16407,-4.97657 1.32586,-1.36146 5.26216,-2.46753 5.85547,-1.73046 -2.87347,1.01334 -4.44305,3.97683 -5.73633,6.53906 -1.08295,2.54082 -1.48321,5.53729 -3.05274,7.74218 -0.0193,2.51542 -2.25524,4.61858 -3.13867,7.0879 -1.85673,2.4017 -2.17256,5.14993 -3.34765,7.99804 -2.20169,1.45751 0.14644,3.26476 -1.97852,4.91211 -0.85439,1.2354 0.86766,2.31837 -0.89453,3.66211 -1.48411,0.88975 0.62378,2.34367 -1.36719,3.35156 -2.03274,1.31387 0.55995,2.61075 -1.56055,4.27735 -1.23447,1.23334 -0.23011,1.7052 -0.0879,2.25586 -1.24316,1.6166 -2.12743,3.26386 -1.95898,4.92578 -0.52323,1.0385 -3.1133,4.04885 -0.99219,3.71875 -1.68348,1.72881 -2.09055,4.85689 -1.07031,4.46875 -0.99298,1.07472 -4.07003,4.37103 -2.68555,4.83594 2.95399,-1.19094 -1.64091,1.92787 -2.07031,2.92968 -2.31707,1.64132 -3.85231,3.73816 -6.6875,4.83985 0.63814,1.15582 6.51711,0.39791 3.38476,-0.29492 2.53293,-1.48054 4.67945,-3.78166 6.29102,-6.28321 1.4513,-2.3453 3.84226,-3.73695 5.1543,-6.10937 2.21293,-1.50942 4.36535,-3.05213 6,-5.03907 -0.23052,2.27572 -1.69369,3.26455 -2.91992,5.24415 -1.16616,1.22329 -1.27019,1.82344 -1.80469,2.76562 -0.66045,0.46058 -1.44879,2.66462 -3.16016,2.43555 1.09814,0.28921 -0.0932,4.39613 -1.13867,2.46679 -0.80397,1.27372 -1.86122,2.9793 -2.70508,3.95704 2.14587,-1.36449 4.99246,-3.35606 5.23828,-5.93555 1.60405,-0.67607 2.5107,-4.06948 4.50586,-5.03125 0.93982,-2.89654 3.71787,-4.07634 5.17578,-6.60547 2.22543,-1.24231 3.88974,-3.37056 5.87305,-5.0625 1.91119,-1.33035 3.36318,-3.34246 5.06445,-3.86719 1.35874,-2.55899 3.66553,-4.4016 6.00196,-5.97851 2.02178,-1.63634 4.66907,-2.42078 6.40429,-4.48438 2.11503,-1.71428 4.03252,-3.76103 6.47266,-4.95312 2.40393,-1.63968 4.87549,-3.2364 7.60352,-4.32032 3.4258,-1.66715 6.97041,-3.41093 9.65429,-6.1289 -0.66217,3.06921 -4.05089,4.23916 -6.35156,5.89843 -2.8241,1.35972 -4.89679,3.76619 -6.86914,6.17774 -2.31632,2.18938 -4.37768,4.67997 -6.4707,7.11914 -1.70529,2.30885 -3.30342,4.62543 -4.63672,7.10742 -1.09486,0.76606 -1.60529,1.3733 -0.63867,1.87305 -0.87342,1.61705 -3.27153,2.18167 -2.26954,3.54101 -0.81834,1.55599 -2.44213,2.48514 -2.02929,3.86719 -0.9219,1.56062 -2.80285,2.38072 -1.80078,3.47071 -0.46919,1.9096 -3.28958,3.653 -2.14454,4.79492 -0.50407,1.07861 -4.61084,3.51966 -1.38671,3.23828 -0.85841,1.62996 -5.57678,3.05606 -3.70508,4.75781 -0.52309,1.64959 -4.82455,2.48661 -2.90039,3.94141 0.70484,0.5165 -4.03892,3.15182 -2.34766,4.49414 -1.23197,0.84245 -2.44803,4.05409 -3.61719,3.47656 -0.10178,-0.9186 2.51809,-2.48863 0.95703,-1.94531 -1.26602,-0.342 -4.57008,2.1797 -1.82421,1.70508 -1.08972,2.45484 -3.01876,4.30914 -5.52344,5.61523 -0.39224,2.26417 -4.40211,1.73814 -5.27149,2.84375 0.59244,-2.15191 -1.63875,-0.18791 -0.28906,0.91992 -0.046,1.86707 3.02119,-0.0159 2.38672,-1.40039 2.07537,-0.32238 5.1211,1.32212 5.63477,-0.60547 2.04336,-0.13632 3.57069,-0.68955 3.89648,-2.65234 1.29014,-1.68543 1.92336,0.39418 2.7832,-1.84375 2.12958,-1.74579 3.77386,-4.24385 6.30274,-5.33984 0.77004,-1.49061 3.36666,-1.88141 1.64648,-0.002 -1.01813,-0.52738 -0.64559,2.93977 -1.88672,1.01563 -0.33422,1.52941 -1.31077,3.54203 -2.55468,4.24804 0.38759,-1.4081 -0.63622,-2.88162 -0.6211,-0.56054 -0.11414,0.86713 -2.87269,4.0218 -0.73828,2.08007 0.93029,-1.21077 2.23279,-0.0852 2.51172,-2.07812 2.27505,-1.42524 3.08579,-4.19163 5.37891,-5.44141 1.93413,-1.64823 3.57744,-3.68695 5.39453,-5.36523 1.49465,-0.14962 2.75995,-2.80978 4.35937,-3.66016 1.87438,-1.89975 3.92589,-3.57601 5.19532,-6.0957 2.13112,-2.84097 -1.62878,3.41287 0.72851,0.71484 1.12112,-1.94173 3.12978,-2.27024 3.73828,-4.61914 2.06446,-0.88896 1.61114,-3.66962 3.83203,-4.09179 0.91076,-2.1692 3.23303,-2.68551 4.27735,-4.78711 1.55274,-0.0386 2.47559,-2.61692 4.08007,-3.35938 1.458,-2.44384 3.50308,-4.33628 5.41797,-6.61133 2.2941,-1.95515 4.53371,-3.93718 6.93946,-5.79101 2.91991,-1.78614 6.18524,-3.62708 9.70507,-3.55274 1.55524,0.57125 -2.77904,0.11951 -3.4707,1.26368 -2.25638,1.27338 -4.83567,3.2482 -5.27148,5.82812 -1.82888,2.15788 -2.52454,5.0577 -4.4668,7.15039 -0.64993,2.76106 -2.82098,4.8075 -3.97461,7.44727 -1.17532,2.47056 -1.81181,5.23172 -3.79297,7.23437 -0.12453,1.44996 1.45168,-1.34079 0.57422,0.66406 -0.91532,1.41545 -2.15942,2.96074 -1.19726,3.85547 -2.19508,1.93708 -0.81957,4.64446 -3.64454,5.95118 1.6983,1.53372 -2.1702,3.0894 -1.98046,4.76953 1.48781,-0.14006 -1.66022,2.68629 -2.5625,3.11523 -1.03533,-0.005 -1.00585,1.552 0.10937,0.69727 -0.16346,1.88529 -3.92615,3.30384 -3.28125,4.3789 0.67627,1.24857 -4.18053,3.03976 -2.93359,4.84961 -1.27144,2.08135 -5.21648,2.1477 -4.86914,4.44141 -0.93351,0.7154 -5.11706,3.2013 -1.5586,2.81445 -2.4726,1.92895 -5.13095,3.63641 -8.35156,3.94531 -2.31334,1.08693 3.56835,-0.43617 4.17383,0.20118 -2.0671,0.46617 -4.40391,1.56387 -6.19336,2.20312 1.11473,1.54027 1.50464,3.41853 -0.99805,3.40039 -1.2271,0.18817 -6.28882,1.70615 -2.56055,1.44336 3.16884,0.65139 4.55914,-2.79367 7.27344,-3.13281 2.18997,0.0476 4.19769,-3.23483 5.56055,-1.0293 2.31541,-1.18338 4.28007,-3.31794 6.22656,-5.10742 1.99635,-2.08915 4.61706,-3.54649 6.40625,-5.90234 0.3778,-1.59809 2.51272,0.14279 1.60352,-1.55079 1.95522,0.49781 3.94805,-3.69465 4.89648,-2.85742 -0.93902,0.54025 -2.01379,1.61471 -0.25,0.79688 1.80518,-1.17372 3.64315,-4.64409 5.00586,-3.6211 0.76003,-1.26672 2.76647,-0.80165 1.73828,-1.86328 0.74729,-0.83842 1.4865,-1.07467 1.39844,-0.17773 1.05513,-1.21172 2.9445,-1.90776 3.29297,-2.78321 1.59761,0.40635 3.39684,-2.84729 5.57226,-2.78515 2.39592,-1.98043 4.88022,-3.73779 6.89649,-6.06836 2.06955,-1.83655 4.56463,-3.08828 5.97851,-5.57617 2.14625,-0.89294 3.12622,-3.46375 5.29102,-4.25391 2.23419,-1.46065 4.54706,-2.84795 6.6543,-4.73633 2.82277,-2.3512 5.61356,-4.85287 8.8457,-6.61718 2.0965,-0.6129 -1.1314,0.54833 -0.47656,1.54101 -2.662,2.33087 -5.02413,4.96197 -7.03125,7.88867 -1.38233,2.01032 -2.63154,4.14594 -4.00196,6.20118 -1.87286,1.79638 -2.54557,3.98173 -4.34179,5.84179 1.27876,1.2717 -3.16546,2.20945 -1.67383,3.48438 -2.06631,2.13806 -3.23989,4.48337 -5.30469,6.55859 2.39785,0.31033 -5.06046,4.45165 -1.01758,3.64453 -0.64475,1.68441 -5.00653,3.20655 -3.46093,4.29102 -1.60551,1.69561 -3.80034,2.3956 -4.30664,4.24414 -2.02088,1.75675 -3.59257,4.04255 -6.19141,5.09765 -1.53354,1.56802 2.28614,0.25631 -0.12891,1.58594 -1.05997,1.2031 -3.99194,1.62601 -4.05468,3.18164 3.2008,-1.20422 -2.65629,3.06869 -2.86719,1.37696 -1.94302,1.23468 1.132,1.33903 -1.24805,2.32617 -1.09179,0.34395 -4.04494,2.86668 -1.01172,1.75586 -1.01586,1.78863 -3.64701,2.73876 -5.45703,3.88476 -0.53174,1.64231 2.86435,-1.85213 1.49219,0.60938 -2.12572,1.10234 -3.43639,2.92748 -5.66797,2.85351 -1.6837,0.9034 -0.89576,2.14475 0.68359,0.87696 1.45807,0.72571 -3.14307,2.76003 -3.55273,2.11132 -0.52974,-0.67808 -2.17455,1.18974 -2.92773,1.60938 0.027,1.69126 5.27296,-2.80676 4.58789,0.22266 -2.05724,1.32281 -3.28585,1.40286 -4.15235,3.81054 -0.41174,1.85047 1.9778,0.53567 1.86328,-0.28515 2.54389,-1.11498 4.25009,-3.64376 6.37305,-5.17188 1.24173,-2.65735 4.35472,-2.81063 5.66406,-5.48437 2.55761,-0.437 3.45469,-4.46158 5.81055,-4.0293 1.4742,-2.84081 4.78864,-3.22344 6.74609,-5.58984 2.29712,-1.6668 4.75993,-2.20738 6.92578,-3.87891 2.32714,-1.02694 4.43467,-2.34317 6.4961,-4.13672 1.56355,-1.29986 3.42983,-1.43245 4.8125,-3.22266 2.46712,-1.05687 4.26321,-3.35827 6.57031,-4.60742 2.49101,-1.26381 4.39499,-3.76191 7.01953,-4.68945 2.64416,-1.67164 5.10226,-3.76369 8.12305,-4.81055 3.41609,-1.06662 6.90666,-2.4671 10.53516,-2.32812 1.02757,-0.0566 3.98347,1.48061 1.28515,0.96679 -3.11425,-0.12 -6.41198,1.0517 -8.55664,3.30274 -2.54011,1.41962 -4.16504,3.7856 -6.38672,5.48242 -1.88458,2.38986 -3.63288,4.56964 -5.77734,6.70313 -1.74815,1.97835 -3.51692,4.00807 -5.56055,5.78515 -0.97992,0.83136 -1.60565,1.21104 -0.72461,1.60547 -0.46337,1.8921 -4.27407,1.64229 -2.55469,3.7832 -0.57161,1.67898 -3.29114,2.61807 -3.29492,3.94727 2.71049,-0.60836 -1.72394,2.20593 -2.52539,3.04883 -1.30046,-0.10683 -2.413,1.53332 -0.66992,1.04883 -0.71751,1.71112 -6.20847,2.10548 -4.13672,3.05859 -0.59025,1.17255 -5.40788,2.1212 -3.05078,2.88281 0.54966,0.35971 -2.62574,2.86066 -4.06445,3.35156 -0.87039,1.05523 1.93463,0.15141 0.0527,1.25391 -0.97103,1.54292 -3.37453,1.71813 -4.10156,3.04883 1.73669,0.85398 -1.37404,1.62709 -1.60156,2.70117 -2.53195,0.9417 -2.98332,4.19111 -6.23829,4.49219 -2.26431,1.05859 2.49529,0.60494 -0.5371,1.57031 -0.71052,1.32989 -4.7332,1.78454 -3.625,3.20508 2.89281,-0.35815 -3.48899,1.64697 -3.23047,2.87305 1.05876,0.21557 3.10216,-0.15758 0.86328,0.70312 -1.65551,1.68065 -4.48777,2.45767 -5.84961,3.86328 0.48669,1.05592 3.12935,0.1161 0.48633,1.05664 -3.82689,0.81891 -7.54951,2.23091 -11.51563,2.24414 -2.25282,-0.15452 -3.92676,2.29452 -2.75586,3.97657 -2.37728,-1.65636 1.31872,2.60822 0.73633,0.33398 -0.13916,-1.51047 -0.13511,-3.03657 1.62891,-1.64648 2.24541,-0.52791 5.71956,1.64588 6.04687,-0.47852 1.63363,-0.15216 3.57178,-1.66604 4.34961,-0.71875 -2.25044,2.06785 2.27224,-0.75994 3.01367,-1.15234 2.07821,-1.53459 4.12431,-3.2196 6.40235,-4.3711 2.49229,-1.67028 4.88207,-3.27295 7.37304,-4.98437 2.13506,-1.68414 4.24775,-2.47716 6.33008,-3.83985 0.99681,-1.28157 1.72932,-1.73572 3.17578,-1.33593 2.10807,-1.80918 5.00183,-2.68044 7.52735,-3.51953 2.16688,-2.00453 4.83346,-2.05349 7.13867,-3.59571 2.32917,0.90487 4.28664,-3.47318 5.73242,-1.66601 2.36874,-1.51695 5.39256,-2.27032 7.67774,-3.21485 1.8017,0.17873 3.44712,-1.62219 5.36523,-1.57812 2.11733,-0.86884 4.42377,-1.90694 6.71484,-1.72461 2.45182,-0.42547 4.89711,-1.22201 7.39844,-0.9707 2.86269,-0.47103 5.71433,0.0855 8.59766,0.041 3.3456,0.68913 6.84708,0.0771 10.16211,1.08984 1.77641,-0.11334 5.54586,3.26468 2.05078,1.18165 -2.45447,-0.99367 -5.06106,-0.0285 -7.58008,0.006 -2.2546,0.79585 -5.37044,1.6708 -7.49219,1.16211 -0.77575,0.64464 -3.32728,1.33476 -3.2207,0.57032 -2.44237,2.06469 -5.70527,2.78425 -8.26953,4.79296 -1.27249,0.68673 -4.09637,1.46868 -2.85547,2.29688 -1.64149,1.26924 -4.1676,1.48774 -4.54102,3.50195 -0.88792,0.76955 -5.48746,1.43798 -2.11718,1.63867 -0.3165,1.43638 -5.81287,1.77369 -4.4375,3.33985 -0.15538,0.71601 -3.66188,1.6434 -4.70118,2.25976 2.20181,0.92362 -2.3911,2.77988 -3.59961,2.5293 -1.45152,0.19581 1.30767,1.60761 -0.91601,1.60156 -0.64331,1.4939 -5.11543,0.45717 -3.36914,2.00391 2.12205,-0.0853 -2.19967,1.28307 -2.59766,2.12109 -1.45973,0.26389 -2.82479,0.37495 -2.21289,1.51953 -0.95202,1.35689 -5.01534,0.93941 -4.57812,2.22071 0.3273,1.48728 -3.97345,1.41929 -4.68555,2.38672 1.78356,1.789 -5.57355,1.62541 -3.56836,3.29883 -0.4659,1.58836 -5.73094,1.9129 -4.08008,3.55468 -1.24078,1.46748 -4.801,1.66526 -4.99414,3.31446 1.25598,1.32717 -6.56145,1.33183 -3.60351,3.19921 1.21504,0.37067 -2.69356,1.52386 -3.34375,2.28321 -2.59374,1.14155 -5.5519,0.64065 -8.26954,0.73828 2.82902,0.89134 5.74886,2.63108 8.83008,2.26953 2.46497,-0.90968 4.42091,-2.01227 6.50781,-2.85937 1.18723,-0.70759 2.7817,-3.14167 2.11329,-0.91016 2.39274,-1.4326 5.38219,-3.38133 7.55859,-4.1836 2.14942,-0.92481 4.44147,-2.32474 6.58594,-3.5039 1.44691,-1.41244 3.4126,-0.94898 4.31054,-2.83399 1.09592,0.5244 1.64248,-1.1589 2.76954,-0.31445 2.15195,-2.1177 4.65096,-2.27917 6.9375,-4.07422 2.48889,0.2847 4.04817,-3.13479 6.63476,-2.18164 2.0137,-2.57162 4.69626,-0.80466 6.44531,-3.74219 1.19645,1.54864 3.65592,-1.9957 5.77344,-2.15429 1.24052,-0.48389 1.99438,-2.19049 2.65039,-0.77149 1.76924,-0.29239 2.43665,-2.93288 3.8418,-1.67187 2.1151,-1.44534 5.08042,-2.48318 6.8789,-3.38867 1.9129,0.71279 3.7101,-3.04779 5.17969,-1.60743 2.11646,-1.88013 4.62607,-1.25037 7.20703,-1.93554 2.61778,-0.49435 5.21894,-0.67732 7.91211,-0.54492 2.80415,0.84051 5.81414,1.18635 8.55078,2.38281 3.25452,1.00564 6.96481,1.53891 9.7168,3.4707 -3.6627,-0.28182 -7.25625,-1.64145 -10.98437,-1.67773 -2.44558,-0.53096 -4.6288,0.36307 -7.03711,0.17382 -2.48595,0.80424 -4.71234,1.54187 -7.20313,2.54493 -2.83359,1.03958 -4.98284,2.58235 -7.65039,3.95703 -1.2353,1.47116 -4.31269,1.23729 -3.63672,2.70117 -2.66158,1.11357 -4.46618,3.46468 -7.08789,4.60352 -2.3283,0.05 0.23726,1.36751 -1.77734,1.99804 -0.94817,0.84675 -3.44873,0.50047 -2.26563,2.01758 -2.41001,1.51151 -4.23418,3.46071 -6.5039,5.02539 -1.40311,0.18081 -1.85664,0.47372 -1.15625,1.36719 -0.79612,1.16729 -6.04514,1.80559 -2.53907,2.46875 -1.36425,1.18502 -5.45016,1.32765 -5.1289,2.99805 -0.88838,1.39358 -3.78775,1.80933 -4.51758,2.54687 1.37983,0.75648 -2.44176,1.41362 -3.1582,2.07031 -0.62567,-0.0654 -2.48298,0.32346 -1.14453,0.77344 -1.60029,2.15027 -5.05318,0.95655 -5.78516,3.28516 -1.08344,0.83937 -5.60785,1.24189 -3.39063,2.13476 -2.31106,1.08464 -5.24727,1.04209 -6.40429,3.30274 -0.7945,0.74761 -4.88064,1.31611 -2.31446,1.99804 -1.71239,1.60929 -5.81204,1.38312 -6.35546,3.57813 1.54023,1.07659 -2.42903,1.72275 -3.31446,2.29101 -3.41057,0.1302 -6.80244,-0.34057 -10.18164,-0.66406 -3.86748,0.50161 -1.7532,4.22159 -0.61719,6.24024 0.84809,2.18123 -1.15949,-3.1512 1.02735,-3.26368 0.6901,-2.27743 3.9062,0.7031 5.66406,0.75 2.32335,0.91277 5.24514,1.03234 6.54492,-0.96679 -1.547,1.44563 2.66072,-0.52923 3.37305,-0.64844 2.66755,-1.59416 5.56101,-2.78674 8.35937,-4.08594 2.39777,-1.48604 5.1445,-2.22104 7.61914,-3.55468 3.14767,-1.34703 6.20516,-2.27463 9.34961,-3.55469 2.48312,-0.94788 4.85053,-1.22208 7.29883,-2.1211 2.8063,-1.23846 6.03314,-0.86139 8.70508,-2.34375 2.22773,-0.5595 4.68894,-1.33384 6.82422,-1.75 2.51025,-0.21476 4.25053,-1.00352 6.70117,-0.96875 2.02439,-1.39817 2.36062,0.9255 4.53906,-0.6289 1.77294,-0.54842 4.09695,-1.44347 5.75,-1.53516 1.92632,0.71111 3.94126,-1.41197 5.95118,-0.37695 2.60708,-0.9409 5.34096,-0.22168 8.06445,-0.72461 3.27972,-0.15961 6.5567,-0.45463 9.82422,-0.22461 4.91728,-0.13913 9.83941,-0.25108 14.75586,-0.41016 1.37809,0.6551 -2.82188,0.96098 -3.48242,1.28711 -2.83386,0.63541 -5.74877,0.51611 -8.62696,0.72852 -3.17711,0.62896 -6.41488,0.56312 -9.5918,1.11719 -3.15114,0.32954 -5.99447,0.98851 -9.01367,1.75781 -2.7304,1.45729 -5.77603,2.50323 -8.2207,4.46484 -2.48205,1.44224 -5.04826,2.76631 -7.86133,3.42383 -0.87262,0.42136 1.11492,0.69935 -0.91015,1.36328 -2.53705,1.4233 -5.25537,2.45578 -7.99024,3.40039 -0.64316,1.17938 -4.94274,0.86398 -3.0918,1.9043 -2.31738,1.5532 -5.06674,2.28862 -7.04101,4.19141 -0.86725,1.04275 -3.98091,0.14209 -2.82422,1.52734 -1.36071,1.33151 -3.9586,0.98854 -5.05859,1.77734 3.26778,0.39025 -1.95097,1.31829 -2.98633,1.87305 -1.04791,-0.067 -2.68635,-0.0372 -1.54297,1.23633 -1.14361,0.88339 -5.19572,0.59601 -4.77344,1.66797 1.51922,0.44125 -2.73008,1.17379 -3.43164,1.52929 -2.06948,0.28347 -0.79279,1.70929 0.60352,1.3086 -2.08128,1.36595 -5.17678,2.0847 -7.04493,3.17773 1.36861,0.29106 3.31662,-0.0468 0.95313,0.8125 -1.929,0.7716 -4.20786,1.65355 -5.80664,2.625 0.78115,1.31657 2.44203,0.54889 2.08789,-0.18945 0.71097,0.54939 4.31048,-0.92981 3.10156,-0.14258 -2.4929,1.68062 -5.65712,1.7283 -8.35937,2.94531 -2.72663,0.92385 -6.4709,-0.82757 -8.52149,-0.30664 2.47136,1.30436 5.09297,2.96152 7.94141,3.03711 2.35381,-0.72105 5.02327,-0.86757 7.22266,-2.59375 2.36095,-0.98544 3.69359,-4.42009 5.5332,-5.14062 1.27226,0.50243 3.21957,-2.38473 5.09765,-2.04688 2.12928,-2.46613 5.28298,-1.72193 8.0293,-2.85156 2.97574,-0.65795 5.7563,-1.47581 8.5293,-2.63281 2.38084,-0.66072 4.82463,-1.55713 7.29297,-2.23047 2.75198,-1.09097 5.35727,-1.28084 8.03125,-3.07227 0.90705,2.12531 3.58581,-2.21963 5.17578,-0.52539 2.14798,-1.70887 4.16788,-1.58352 6.36719,-1.41015 2.63539,0.008 5.33219,-2.57749 7.41797,-1.39844 1.68884,-0.85676 2.6532,-2.68023 4.35546,-1.90821 1.77143,-0.52296 3.13699,-2.16927 4.10157,-0.84179 2.59937,-1.55153 5.31389,-0.39089 8.04101,-1.16602 1.77808,0.48586 3.85471,-0.45269 5.61914,0.48438 2.86795,-0.36003 5.77059,0.11694 8.66797,0.56836 4.81315,0.92362 9.82857,1.97134 13.93359,4.80859 -1.06321,0.0728 -4.71691,-2.08058 -6.92578,-2.04883 -4.20499,-0.62655 -8.43827,0.39023 -12.61718,0.8125 -2.66733,0.40177 -5.61653,0.0623 -8.00391,1.2832 -2.66049,1.49149 -6.08379,1.89607 -8.37305,4.13282 -2.76487,1.21724 -5.1237,3.04745 -7.88476,4.26367 -1.00373,1.55297 -3.88939,1.32811 -4.54688,2.41992 2.14904,-0.0173 -2.22985,1.82642 -2.9082,2.05859 -2.16408,1.12192 -4.02794,2.82349 -6.40039,3.91211 -1.2305,1.25443 -4.62191,0.66016 -4.9375,1.75586 1.3231,0.98612 -3.86488,1.6904 -4.85742,2.82618 -2.67251,0.90457 -5.10766,2.26232 -7.73828,3.24804 -2.15195,1.65484 -4.91945,1.89359 -7.48829,2.48047 -0.35943,0.75951 1.81475,0.68437 -0.10351,0.99414 -1.43063,0.84267 -3.86637,1.1314 -4.77735,1.80469 3.00341,0.12915 -2.19377,1.14105 -2.97265,1.92383 -1.08953,0.19581 -3.31134,0.1942 -0.96875,0.83203 -1.24717,1.61476 -5.68841,1.61054 -5.84375,2.76953 1.41959,-0.008 3.99714,-0.12208 1.16015,0.80273 -1.73091,1.06371 -6.15086,1.86136 -3.31054,4.36133 0.67294,-0.44885 0.79059,-3.25182 1.33594,-2.2832 -0.074,2.29689 -2.34594,3.27027 -4.17969,4.12305 -1.28224,0.99356 -2.90849,0.22122 -4.3711,0.29492 -3.12457,0.49224 -5.50902,-2.22956 -8.49609,-2.07422 -1.44915,1.2754 -2.00806,1.58357 -0.73633,3.20117 0.41254,1.4513 0.70855,2.41853 1.08008,0.58984 1.90386,-0.91808 -0.70589,-2.61194 -0.66016,-1.2871 -0.94121,-1.66417 2.57629,-0.41172 1.60352,-1.91211 2.72058,1.34566 5.63431,2.39825 8.49609,3.41211 2.97139,0.46847 5.87709,-1.85474 7.89063,-3.82618 1.78768,-1.8729 4.32374,-2.97674 6.45312,-4.46289 1.23368,-0.84211 1.97004,-2.53985 3.16993,-1.66992 2.27191,-1.90307 5.57257,-2.28919 7.46093,-4.58594 1.22744,0.97837 3.23461,-2.19256 5.20703,-1.90429 2.4768,-1.4722 5.32436,-2.21113 7.58985,-3.94141 2.39996,-0.41255 5.02184,-1.47093 7.33008,-2.60937 2.07216,-0.42482 4.05489,-1.08813 6.09765,-2.15625 2.42155,-0.0965 5.3318,-0.82193 7.6211,-1.74415 1.26595,-1.3945 2.74772,0.87847 3.96484,-1.16015 1.10033,-0.67149 2.15202,-2.30188 2.64453,-0.77149 1.45693,-1.44149 3.10159,-1.80091 4.83594,-1.99023 1.02497,-0.55049 3.02871,-3.00279 2.90625,-1.00195 1.76262,-0.69041 3.1951,-2.65145 4.73242,-1.86914 1.89649,-1.86002 4.66675,-2.89811 6.99414,-3.40235 1.67059,0.57839 3.29709,-2.304 3.94531,-0.8789 2.17792,-1.67572 5.03759,-1.38762 7.63477,-2.47461 2.31504,-0.55788 5.23341,-2.02842 7.24219,-1.92774 -1.41774,2.99088 -4.45538,4.69467 -6.94922,6.61133 -1.1308,0.85173 -1.56858,2.08002 -3.13281,2.57617 -0.1338,1.86845 -2.83141,1.97008 -3.3418,3.73047 -1.13821,0.62821 -3.19606,0.53861 -2.50195,1.83008 -1.51246,0.98997 -3.80953,0.73408 -4.08204,2.4082 -1.84875,0.62358 -3.34788,1.18266 -3.90234,2.83203 -1.11764,0.56781 -4.62983,0.88811 -3.09961,2.20118 -1.70302,1.31675 -5.08866,1.24238 -4.61523,3.10937 -1.26562,0.52838 -5.66064,1.51255 -3.31446,2.23047 -1.53048,1.50867 -4.14301,1.38728 -5.63671,2.37109 1.85038,1.01371 -2.95559,1.59106 -4.05665,1.68555 0.003,0.82692 2.16077,0.55049 0.19727,1.15234 -1.1842,0.62359 -5.71414,0.60867 -3.04492,1.97852 -1.44658,1.38195 -5.01499,0.35281 -5.6543,1.37109 3.7276,0.67072 -2.53101,1.72918 -3.6914,2.31055 -1.88569,0.65934 2.09381,1.29339 -0.74219,1.53906 -1.40799,0.39349 -6.41742,0.79033 -3.55469,2.01758 -1.59504,1.15586 -5.48966,0.86169 -5.92578,2.30664 3.41389,-0.0786 -3.22702,1.8421 -4.36719,1.76953 -2.19375,-0.0802 -1.33501,0.68125 -0.82617,0.92578 -1.37439,1.16773 -4.70217,1.49232 -5,2.88477 0.47928,1.63162 -5.94611,1.3458 -4.07422,2.61523 0.57857,1.05049 -5.86761,1.36159 -4.38086,2.8418 0.29953,0.838 -3.97137,1.09376 -5.26367,1.94922 -2.29436,0.84057 3.58828,1.27803 0.59766,1.55469 -2.03687,1.66851 -5.89701,1.86587 -7.27344,2.97656 2.43587,1.39313 5.98505,2.71135 8.42969,0.41797 2.57363,-1.13454 4.69571,-2.89174 7.14257,-4.24024 2.38723,-1.3099 4.50865,-3.0995 7.11524,-3.92578 1.94812,-1.47061 4.17282,-0.78036 6.16992,-2.625 2.54374,0.38283 4.1563,-2.33397 6.51367,-1.93164 2.35949,-0.77038 4.89147,-1.6529 7.24219,-1.92578 2.48644,-0.97674 5.07489,-1.61381 7.55664,-2.73633 2.7696,-0.31884 5.28438,-1.40614 7.76367,-2.14844 2.15346,-1.33424 4.99189,-1.45706 7.11719,-3.05078 1.77385,1.81682 4.25629,-3.04063 5.60547,-1.21289 1.83931,0.2425 3.22311,-2.69594 4.31445,-1.07422 1.92684,-0.71433 3.08209,-2.79603 5.03516,-1.82031 1.46075,-1.2088 2.56713,-1.82273 4.15234,-1.42773 2.52537,-1.28243 4.99185,-2.10241 7.62305,-3.13086 1.73238,-0.788 2.86767,-1.71813 4.43164,-0.98438 2.3303,-1.31331 4.88957,-0.67409 7.43164,-1.83203 3.45657,-0.86407 6.94163,-1.64091 10.33398,-2.74023 -2.81196,2.19912 -5.57101,4.54348 -8.69336,6.26562 -2.0437,1.50301 -4.17789,3.49821 -6.80273,4.48633 -1.70725,1.93096 -4.97477,3.13517 -7.56836,4.05469 0.0941,2.07239 -3.63989,1.26477 -3.74609,3.30859 -3.09986,0.73591 -5.03776,3.77052 -8.41016,3.67188 0.99436,2.85857 -5.98615,1.64448 -4.42187,3.18554 -1.1254,1.69599 -3.97953,1.17237 -5.11524,2.04688 1.93988,1.19648 -2.7436,2.18979 -3.66406,2.76367 -1.61325,-0.2637 -1.02054,0.68078 -0.66602,0.7832 -1.41146,1.55384 -5.37655,1.15989 -5.85742,2.38672 1.82627,0.36548 -2.61083,1.45563 -3.49414,1.69336 -1.27858,0.12106 -3.05105,0.94082 -0.96094,1.17969 -1.8342,0.9651 -4.17564,1.83339 -5.93554,2.02539 2.60689,0.66104 -3.14717,2.44742 -4.50391,1.94531 -0.99368,0.93506 2.91949,0.61588 0.15234,1.35156 -1.62965,0.80546 -4.25494,0.8581 -5.39843,1.53516 2.83351,1.1455 -3.06623,1.22029 -4.38086,1.35938 -1.0667,-0.10254 0.65881,1.57199 -1.40625,1.45898 -1.1178,0.42792 -5.13619,0.27453 -2.06446,1.17969 -1.62546,1.29199 -5.01046,1.31047 -6.04492,2.93945 3.06342,1.06239 -2.32049,0.48784 -3.25781,0.89649 -2.79625,0.23361 -0.183,1.00905 0.27148,1.2207 -2.42728,1.19406 -5.08939,1.75116 -7.63671,2.41015 0.29801,1.1576 3.62788,1.97626 0.83984,1.54883 -2.82395,0.38283 -5.44683,2.301 -8.51758,1.26367 -2.35691,-1.16409 -7.33882,-0.23327 -5.11914,3.18165 0.7796,1.3618 -2.65689,0.8185 -0.10938,1.53125 2.72357,-0.24288 -1.34043,-4.73403 1.9961,-4.22852 0.19854,1.35772 -0.18776,3.99336 0.62695,1.14258 0.52528,-2.51463 2.82572,0.8849 4.48047,0.62109 2.40423,1.79161 4.92073,2.82209 7.74219,3.70117 3.09105,0.20663 4.93067,-2.95775 7.40429,-4.29101 2.09776,-2.20743 4.72693,-3.62313 7.33008,-5.17383 2.32978,-1.76546 5.00237,-3.59371 7.36914,-4.96484 2.42332,-1.22374 5.13642,-2.10259 7.78711,-3.1211 1.79018,-0.21781 4.03102,-0.37209 6.05469,-1.56445 2.30018,0.73039 5.45126,-1.68149 8.0625,-2.2793 2.2851,0.0825 4.57478,-0.56712 6.72461,-1.14062 1.82275,-1.2545 3.92135,-0.32984 5.75586,-1.98047 1.30813,-0.63141 2.85124,0.9689 4.20703,-0.76953 2.20199,-0.55563 4.53081,-0.78252 6.41797,-2.44336 0.89117,1.82676 3.60688,-2.06563 5.35351,-0.75977 2.42004,-1.70392 4.87413,-1.00151 7.36329,-2.66015 2.30335,0.17771 4.35689,-1.31984 6.21093,-0.91993 2.07341,-0.87515 4.08449,-0.20268 6.22461,-1.35351 2.4028,0.0424 5.08741,-0.65873 7.65235,-0.75586 2.74658,-0.36994 5.57248,-0.66376 8.30859,-0.41016 -2.12258,0.98022 -4.727,1.78106 -7.03516,2.65039 -2.65179,1.32197 -5.16586,2.72108 -7.87695,3.57813 -1.80344,1.29313 -4.27509,2.85999 -6.8164,3.83594 -2.94652,1.32593 -5.45987,3.32465 -8.66797,3.88867 -1.22408,0.41295 1.17394,0.65422 -0.68555,1.19726 -2.72995,0.65726 -4.6101,2.73386 -7.46289,2.97461 -2.29092,0.13569 0.17916,1.36836 -2.22266,1.76563 -1.80075,0.84068 -3.99821,-0.0889 -4.76172,1.91211 -1.13884,1.2215 -4.46902,-0.28161 -3.4707,1.80469 -1.70472,1.17834 -5.2462,0.67916 -5.45898,2.42382 -1.25258,1.13779 -4.67195,-0.16348 -4.17188,1.75391 -0.94594,1.48437 -4.97059,0.98975 -4.48828,2.41406 -0.32693,1.67044 -5.65328,1.17973 -4.19922,2.80274 -0.95618,0.8146 -6.31337,0.5103 -4.01172,1.70898 -1.67157,0.92281 -4.0659,1.29683 -5.48633,2.31836 0.58477,1.26618 -4.45659,1.19055 -5.08203,2.07031 2.8032,1.25462 -5.65794,0.83159 -3.23047,2.30274 0.59059,0.91381 -4.62261,1.42324 -4.98242,2.73047 1.80065,1.36134 -5.80744,1.45527 -3.80078,3.01171 0.52131,0.79748 -3.63768,1.44034 -4.85351,2.23438 -2.03736,0.36125 -0.78001,2.19793 0.67382,1.78906 -2.9941,0.61867 -5.41692,3.19707 -8.62109,2.54688 -2.03478,0.008 -6.17497,-3.01481 -6.20898,0.52343 2.89821,0.36163 -2.40405,2.57156 0.59179,2.81836 0.59781,-0.43676 -0.41099,2.93783 0.41797,0.61524 1.2731,-1.2426 1.22702,-5.685 3.30274,-2.93555 2.7558,0.95728 5.23715,2.58209 7.82031,3.90039 3.11807,-1.55512 7.78419,1.66882 9.68945,-1.8789 1.60585,-2.86708 4.18784,-5.21369 7.32617,-6.23829 2.1213,-1.27959 4.36635,-2.59291 6.89258,-2.83593 2.41478,-1.31664 5.06588,-1.25269 7.7168,-1.79297 4.08555,-0.88434 8.32177,-1.61585 11.95703,-3.79883 3.11312,-1.06673 6.22733,-2.03474 9.14062,-3.56836 2.70917,-1.22147 4.84899,-2.27556 7.5625,-3.08789 2.77679,-1.25182 5.46384,-2.60417 8.17383,-3.83984 2.46252,-1.11232 5.21934,-1.69554 7.8418,-2.3418 1.63729,-1.06745 2.79316,0.0415 4.6582,-1.35547 2.8969,-0.84597 5.80882,-1.32617 8.78516,-1.89453 2.75951,-0.59312 5.54502,0.28121 8.33008,0.0586 -3.40139,1.0777 -6.87165,2.08808 -10.01758,3.75391 -2.82335,0.96457 -5.33911,2.63609 -8.05859,3.69726 -1.59451,1.9812 -4.39693,2.24185 -5.93165,4.10157 -2.65742,0.65518 -4.91469,2.64634 -7.32421,3.58593 -2.43942,1.32246 -5.03898,3.12681 -7.91407,3.80274 -2.81469,1.67017 -5.98874,2.8508 -9.14453,3.75195 -2.84353,1.35406 -5.60928,2.59253 -8.64258,3.54883 -0.22401,1.3152 -3.60599,2.38852 -5.43554,3.43945 -1.73137,2.1645 -4.95189,0.77067 -6.17774,3.57032 -2.93193,0.89956 -2.88641,4.55702 -6.05664,5.20117 1.72025,2.0781 -4.2825,1.87863 -4.56445,3.75195 -0.63383,1.80949 -4.57227,1.12889 -5.44727,2.85156 1.55479,0.69041 -2.89889,1.16107 -3.72461,1.91407 -2.47132,1.0727 2.43223,2.00978 -0.0879,2.10351 -2.69249,0.42981 -5.25089,2.07537 -8.02929,1.20313 -2.64208,-0.48843 -5.98025,-2.68739 -7.65235,0.66211 0.45041,3.77631 1.94176,7.38409 3.11719,11.00586 -0.32515,-2.31617 -1.47455,-4.68376 -0.65039,-6.99415 -0.50891,-1.88326 3.2804,-5.61398 3.96094,-2.79101 1.15366,0.57781 3.80981,-0.86213 5.37109,0.38867 3.67514,0.1708 7.2157,-1.26311 10.74805,-2.11914 2.71922,-0.76237 5.39968,-1.68822 7.72265,-3.30469 1.98203,-1.47144 5.46188,-4.23766 7.08008,-4.32422 0.18543,1.72086 3.90827,-1.46033 4.69531,0.65821 2.69806,-0.94356 4.58814,0.63824 7.21094,0.39258 1.92756,1.36161 4.91726,0.2979 7.26563,0.7539 3.13236,-0.37047 6.21148,-1.22915 9.36523,-1.24804 1.35999,-0.48741 2.21516,-1.07289 3.00977,-0.0195 2.64533,-1.07225 5.30876,-0.67271 7.95507,-1.84765 2.41289,0.2787 4.72443,-0.74637 7.08985,-0.85938 1.13877,-0.17794 3.18971,-2.07858 2.90625,-0.41797 2.58111,-0.95769 5.23175,-0.49802 7.73047,-1.63086 2.27055,-0.17964 4.75079,-1.53728 6.5664,-0.58593 0.8614,-0.0661 3.22066,-1.51323 2.57618,0.0332 2.54966,-1.23069 4.73932,-0.14604 7.43945,-0.5918 2.68724,-0.0745 5.38756,-0.2526 8.07031,-0.0508 -5.01305,1.66364 -10.0919,3.18962 -15.02539,5.0586 -2.85434,0.50173 -5.32978,1.94881 -8.28711,2.76757 -2.45715,0.6827 -4.84463,1.79001 -7.31641,2.79688 -2.94289,0.008 -5.02624,2.70392 -8.07617,1.97266 -1.50191,1.75778 -4.75842,0.34412 -6.01172,2.19726 -3.22446,-0.53563 -5.15717,2.23185 -8.40039,1.45508 -2.52839,1.22785 -5.47317,0.74555 -8.09375,1.82226 -2.72776,-1.01809 -5.12622,1.10536 -7.86914,0.59766 -2.76344,0.18928 -5.30037,0.72289 -8.09961,1.27734 -2.79103,0.51512 -5.10239,1.51991 -6.76757,3.81446 0.5382,2.35158 -4.52149,1.78777 -3.12696,3.83008 1.966,0.51458 -3.11391,1.3088 -3.93554,1.8789 -1.32821,0.0578 -2.60104,0.20446 -1.76172,1.30078 -1.52047,0.96488 -5.88846,0.48016 -5.75391,2.22657 0.19041,1.77358 -3.64565,2.77266 -5.24023,3.02929 1.50708,1.60252 3.50688,2.7609 5.57617,3.55664 1.11167,0.20546 2.28597,-0.46367 3.42187,-0.59179 2.22119,-0.42679 4.44525,-1.26657 6.68946,-1.23633 2.78177,-0.0551 5.67164,-1.14202 8.03906,-2.52344 1.13601,1.2096 3.71075,-2.35183 3.39062,-0.29297 1.82846,-0.15307 3.75121,-1.05051 4.54102,0.0527 2.32312,-0.15685 5.1169,-0.17642 7.05859,-0.21875 1.84422,0.39106 3.6432,-0.0192 5.43946,0.51953 2.39988,-0.33562 4.58805,0.92388 7.04296,-0.31641 2.21352,0.96533 5.10817,0.50945 7.44532,-0.52539 1.55274,1.87884 4.19238,-1.52712 5.44726,0.21094 2.62349,-1.36063 4.74476,-0.0264 7.33203,-0.8125 2.08268,0.21634 4.53534,-0.65984 6.75782,-0.32422 1.62742,0.79593 4.05455,-1.33747 4.96875,-0.0293 1.48456,-0.17877 3.54611,-1.71999 3.5,-0.24023 2.93839,-1.16183 5.6781,-1.39575 8.76367,-1.79102 1.3974,1.08155 3.85674,-1.08022 4.50391,0.0899 2.53511,-1.12086 4.73832,-0.0702 7.43554,-0.7461 2.03244,0.003 5.15944,-0.57065 6.48242,-0.34765 -4.50005,1.97257 -9.17402,3.50389 -13.81445,5.08789 -1.95583,0.82511 -3.81778,0.52462 -5.11133,1.91015 -2.3187,0.93816 -4.73988,1.90988 -7.10156,2.08789 0.80587,2.59627 -4.53343,1.12194 -4.42383,3.26758 -2.00281,0.50967 -4.16733,-0.43364 -5.04883,1.37305 -1.51914,0.45539 -4.42824,-0.30911 -4.10546,1.23437 -2.05633,1.08571 -5.11132,-0.75825 -5.6504,1.43164 -3.18565,-0.67823 -5.35363,1.92606 -8.49804,1.29102 -1.19879,2.18003 -5.02421,0.44034 -5.90235,1.84375 -1.19225,1.15336 -3.62072,-0.68762 -4.26562,0.76172 -1.53007,1.83636 -4.36181,-0.58227 -5.91992,1.44726 -2.49283,-0.84672 -3.1687,2.04116 -5.75586,0.79883 -1.46253,-0.28335 0.15765,1.81025 -1.74024,1.30274 -1.42987,0.66516 -3.41182,-1.14003 -4.41211,0.0488 -0.83308,1.98489 -4.28075,-1.11557 -3.54492,1.49023 -1.51098,0.62177 -5.21314,-1.71884 -4.62304,0.625 -2.45069,-1.42968 -3.4685,0.61275 -3.46094,0.99414 -1.2508,-0.55257 -5.20675,-2.00012 -4.48047,0.29492 -1.01771,0.46874 -4.38978,-0.55808 -3.83789,1.16406 0.7076,2.67905 -4.03575,2.29114 -5.58203,1.39649 -2.25544,-0.57676 -6.58066,-5.04857 -7.45899,-0.78711 0.17038,2.54124 1.02762,5.13112 2.16602,7.44922 0.6726,3.45063 1.75114,6.81757 2.91406,10.13672 0.004,-3.18127 -0.78907,-6.31047 -0.84766,-9.46875 0.88706,-1.89253 2.02459,-6.43739 4.1211,-5.92383 2.31224,1.65464 4.68445,3.73726 7.61328,4.33594 2.86908,0.10333 5.70225,0.60155 8.58398,0.86914 3.63187,0.10794 7.31234,-0.68469 10.65821,-2.00586 2.38065,-0.0597 4.73301,-0.95065 7.17383,-0.32813 2.87028,-0.2471 5.76083,-0.2952 8.625,-0.91992 2.73573,-0.40879 5.26186,0.78932 8.0996,0.79688 2.96504,1.09413 6.18629,1.25859 9.41797,1.375 2.85861,0.47595 5.63714,0.8523 8.44922,1.52929 2.20834,1.15359 4.58043,1.86622 6.87891,3.00586 2.44456,1.643 5.3406,2.69397 7.46484,4.83008 2.73113,0.0115 -1.86539,2.20637 -2.87304,0.7793 -1.13749,0.0374 -1.1261,-0.0672 -1.79493,-0.0899 -0.18629,0.2332 -0.42543,0.48842 -0.9707,0.85352 -3.09044,0.27987 -6.18969,0.87292 -9.30273,1.19531 -2.93254,0.62249 -6.33732,0.51321 -8.77149,2.42188 -2.57257,0.96669 -4.95135,2.13576 -7.39062,3.33984 -2.57466,1.50331 -5.66649,2.41846 -7.29297,5.01953 -2.21099,0.35237 -2.33543,2.84235 -4.49414,3.36914 -0.32534,1.87219 -2.82471,1.14286 -3.08399,2.64844 -1.13544,0.12684 -3.40458,0.43382 -2.02539,1.62305 -1.02841,0.69437 -3.79815,0.3765 -3.13476,2.01757 -2.99626,0.41133 -4.16798,1.90085 -6.72071,3.17383 1.85008,1.49394 -4.40162,1.05466 -3.17187,3.13672 -1.71859,0.96669 -4.25304,1.61558 -3.71094,3.38281 -2.55878,0.76781 -5.47768,1.23686 -7.78516,-0.49609 -1.45969,-0.76233 -5.39615,-4.6811 -3.9707,-0.63867 1.80726,6.15919 3.65417,12.3229 5.32813,18.50976 0.031,-1.71677 -0.27851,-3.66515 -0.0801,-5.49414 0.43151,-1.00252 -3.03755,-3.37192 -0.55274,-2.38086 5.1114,-5.82281 -1.59029,-6.17898 6.49219,-1.66211 1.47016,2.47344 4.71536,0.16396 7.39063,-1.06835 2.16045,-1.06912 1.93643,2.15077 4.4082,1.1289 2.37615,-0.0115 4.08028,0.36352 6.37695,-1.16601 0.21702,2.53685 2.57442,-1.83164 3.29102,0.77343 2.64079,-0.50422 4.15387,1.28436 6.64844,1.0625 1.56502,1.39249 4.73688,0.003 6.20507,1.89453 1.94121,-0.4134 2.7678,1.35346 4.86914,1.06055 2.01978,0.89152 4.18386,-0.25066 6.10352,0.51953 2.4844,-0.84117 7.2924,0.24062 7.77539,-3.1582 0.36276,-2.93643 0.69642,-5.86522 1.2793,-8.72852 -0.34893,-6.70643 2.08662,-0.48919 0.20117,2 -0.78115,2.5324 -0.83742,5.24168 -0.99805,7.88868 -0.98936,2.45314 -1.68516,5.04708 -2.72461,7.48828 -0.83161,2.83245 -3.14107,4.74657 -5.17578,6.77539 -2.36322,0.34386 -3.00791,2.81483 -5.79883,2.24609 -1.08714,2.33526 -3.96397,0.17329 -4.77343,2.3418 -1.73424,0.027 -3.36774,-0.70739 -4.20899,0.62305 -1.1393,-0.14223 -3.45515,-1.30684 -2.95508,0.74609 -1.11885,0.44972 -4.37553,-1.72258 -3.6914,0.49219 -1.75227,-1.61912 -3.54906,-1.24184 -2.98047,-0.11524 -1.15276,-0.84431 -3.01001,-2.04524 -3.32031,-0.88867 -0.97187,-0.29178 -4.80632,-1.81986 -3.6875,-0.31055 -1.36789,0.50366 -6.29988,-0.2649 -3.91602,2.06446 -3.2284,-1.33849 0.33822,2.40815 0.78711,3.62304 1.37257,1.55309 4.90101,0.0939 5.64648,0.96289 -1.01208,1.7596 2.02499,3.91703 3.66016,1.97461 1.40357,-1.45625 2.74601,-3.11078 4.625,-2.13672 2.28268,-0.79294 3.24514,0.89783 5.7168,-0.19921 0.50165,1.33319 3.71975,-0.62218 4.89843,0.66211 1.71383,-0.57132 3.30223,-0.66746 4.22266,0.17382 2.57892,-1.32809 4.61358,0.42456 7.29492,-0.85742 2.66079,-0.39224 5.05628,-0.76641 7.51758,-1.94336 2.54472,-1.23371 4.88551,-3.19012 5.75,-5.98047 0.25444,-1.04507 0.7622,-4.65088 0.64844,-1.52343 0.0116,3.01353 -2.32366,5.24673 -3.38477,7.91406 -1.39445,2.73222 -3.44296,5.0097 -5.17187,7.48242 -2.39917,1.73197 -4.00825,4.39602 -6.49805,5.96094 -0.68288,2.54188 -4.02043,2.17453 -5.03515,4.34375 -1.66715,-0.10643 -2.58886,0.20196 -3.3086,1.45117 -2.75452,-0.24862 -3.47008,1.97234 -6.33398,1.18945 0.0193,2.09129 -3.14678,0.0353 -3.64844,1.79492 -1.41876,-0.27121 -3.12254,-1.106 -3.6875,0.1211 -1.27718,0.003 -4.12523,-1.34238 -4.60742,-0.26563 -1.17937,1.48177 -4.99374,-1.70864 -4.57032,1.1211 -1.21152,-0.67257 -3.74412,0.45722 -4.97851,-1.51758 -1.28969,-1.71957 -3.79474,-2.15264 -4.16211,-3.31836 -1.58581,0.75598 0.32986,3.29534 -0.67383,3.69922 1.54095,1.4917 3.52435,4.13752 2.6836,6.42969 -0.8027,-0.18773 -0.32525,-3.22867 -1.07227,-1.00196 -0.85138,2.42718 2.28938,0.719 1.47852,3.3418 -0.24344,1.47428 0.16798,4.35599 0.26171,1.18164 0.44935,-3.62903 1.94539,1.56397 0.79297,2.65039 0.25637,0.88139 1.01674,5.02509 1.50782,4.00586 -0.49569,-4.53645 -0.28131,-9.81322 3.34375,-13.08984 1.00543,-1.0749 0.88441,-3.17876 1.46679,-0.83008 1.63714,2.17538 3.55151,3.89339 5.44532,5.86914 1.82415,0.33634 3.50765,0.18706 5.06054,0.60156 2.73184,-1.38905 4.62568,0.0807 7.50391,-0.57031 1.96395,1.3189 4.84288,0.0317 6.83008,1.13086 2.0547,0.0116 4.23928,1.37362 6.48047,1.41406 0.65208,1.13855 2.62706,-0.51143 3.42968,0.88477 2.47128,-0.33903 4.95099,0.97373 7.35938,-0.21289 1.00788,0.89525 4.25145,-1.68936 3.25781,1.30664 -0.57109,2.81703 -1.02047,5.82608 -2.33594,8.31445 -0.82586,1.7935 -1.5974,3.35659 -2.77929,4.93359 -2.18332,0.0347 -2.2833,1.91281 -4.65821,1.95703 0.86752,2.26708 -4.81008,-0.58765 -2.80273,1.70508 -1.52198,-0.11603 -4.73878,-1.04038 -3.82031,0.53516 -2.58048,-1.24263 -3.50266,0.69563 -3.54688,1.12695 -1.03264,-0.40025 -5.34255,-2.04565 -3.88086,0.25 -1.74554,-0.84491 -4.17781,-1.99327 -5.7832,-0.93164 -1.38989,-0.46794 -2.8274,-1.14744 -2.99219,0.38281 -2.05852,-0.56315 -4.64334,-0.40449 -5.00391,0.9375 -2.72575,-0.0451 -5.91495,-0.75203 -7.44921,-3.28711 -0.37818,-1.0162 -2.60793,-5.38975 -2.62305,-2.13085 -0.14687,2.40245 2.4134,3.92821 0.6543,6.19335 0.92825,1.27061 3.59225,3.22365 3.33789,5.41211 -0.43011,2.86345 1.10548,5.57107 1.59765,8.27539 0.22938,2.21987 0.68297,5.74523 1.94922,7.01368 -0.33732,-4.2813 -0.58652,-8.77674 1.26367,-12.7793 0.55329,-1.32363 3.47277,-3.81142 4.08203,-3.00195 1.36075,2.10841 3.29677,3.79943 4.30469,6.0625 1.49144,2.57548 5.28751,-0.0499 6.55078,2.5664 2.64049,-0.20935 5.34469,0.75331 7.82032,0.60742 1.29721,0.19163 2.72736,0.44757 3.71484,1.17774 2.5773,1.00293 5.26131,1.38213 8.09766,2.08984 1.68748,0.0682 2.58153,1.67205 4.30273,1.60742 0.56266,1.88304 3.66132,-0.96842 4.36719,1.19532 2.64748,0.0455 5.1689,0.44383 7.57226,1.36914 2.84931,-0.10243 5.55913,0.96779 8.42578,0.34375 1.89755,-0.0193 4.05093,-1.70143 4.93946,-2.43946 -1.51053,2.94048 -3.90932,5.28652 -6.12696,7.65235 -1.54612,1.12675 -2.97936,2.33863 -4.25,3.54687 -0.3589,1.67505 -3.37002,0.41503 -3.02343,2.45117 -1.3584,0.11335 -2.56089,-0.0451 -2.98243,1.36329 -1.74651,0.55521 -3.61442,-0.26285 -4.51757,1.45703 -1.08839,0.0385 -2.44487,-0.39305 -2.39649,0.9082 -1.4414,-0.22976 -3.97462,-0.88184 -2.7539,0.72461 -1.45146,-0.41004 -3.59053,-0.75172 -2.71485,0.74414 -1.21323,-0.38623 -4.45579,-1.71792 -4.54687,-0.46875 0.65469,1.34748 -2.80916,-0.26889 -3.72071,-0.20312 -1.47549,1.58158 -4.06084,-1.42827 -5.52148,-0.44336 1.56302,2.06785 -2.80776,0.12599 -3.9082,0.0391 -2.0984,-0.79442 0.27895,2.51455 -1.5918,0.81055 -1.81085,-0.60537 -5.26283,-2.11916 -5.88086,0.17773 -3.20534,-0.47169 -5.31277,-2.55464 -7.15234,-5.10938 -0.76566,-2.05969 -2.86574,-1.27423 -1.52344,0.69532 -0.62101,1.54405 0.073,5.38178 0.59375,5.5957 -0.92999,-1.20911 0.32095,-5.5719 0.78516,-2.18359 0.0193,2.05391 1.36855,4.43973 2.51367,5.3125 -3.01837,-0.11297 1.15115,2.69042 1.84961,0.84375 -0.60556,2.1572 -1.20232,5.09335 -0.54688,7.54101 -0.004,2.66816 1.1355,5.02531 1.36719,7.71875 1.02357,3.45098 0.40518,-2.01555 0.85547,-3.24609 0.45664,-3.1152 0.69706,-6.28359 2.07031,-9.16797 0.77227,-1.87294 3.56262,-3.21538 5.03516,-3.84766 1.4849,2.5575 3.86881,4.48352 4.25976,7.63282 0.95728,3.21044 5.0645,2.13086 7.61719,2.63672 2.93677,-0.18218 6.23116,-0.48185 8.95703,0.3125 2.72247,0.0699 5.86,-1.58181 8.38477,-0.26563 2.88083,-0.28233 5.73971,0.38416 8.63672,-0.30859 2.07598,-0.1149 3.98713,0.28653 6.07226,-0.34571 1.11213,1.44764 3.41005,0.26109 4.82227,1.27344 2.68293,-0.72359 5.42804,-0.2782 8.21484,-0.4668 2.87807,-0.59316 5.79925,0.26422 8.67188,-0.67968 2.64018,-0.46814 5.12742,-1.59781 7.76757,-2.01368 -3.03299,2.04129 -7.0153,2.95589 -9.76562,5.60352 -2.61933,1.47326 -4.23619,4.27066 -7.17969,5.1875 -0.91748,2.01245 -3.69477,0.21282 -4.10742,2.48242 -2.41361,0.21048 -3.55554,2.53472 -5.90625,2.88281 -1.63979,2.45696 -4.69043,0.66262 -6.24219,2.71875 -1.81493,0.76823 -3.95106,-1.03998 -5.17578,0.89454 -2.01316,-0.96034 -1.51735,2.2355 -3.91406,1.87304 -2.23045,-1.01745 -1.00213,1.97814 -3.32227,1.42969 -1.43516,0.4964 -3.59128,-1.87982 -3.54101,0.69336 -1.86909,1.3307 -4.58914,-0.86967 -5.27539,1.21875 -1.48906,0.493 -4.71115,-1.64006 -3.53125,1.2207 -1.56409,-0.57668 -4.62454,-1.9825 -5.45313,-0.66601 1.00362,1.58558 0.88909,1.6268 -0.50586,0.70312 -1.45678,-0.68674 -3.63166,-0.5457 -4.95703,-0.34765 -0.16849,1.02788 0.69422,2.87231 -0.83789,2.24218 -0.75609,2.01117 -1.41309,3.39618 0.19922,5.32227 -2.04926,-2.25358 -5.39526,-2.39626 -7.57813,-4.40039 -0.32999,-0.96046 -3.66437,-5.51883 -2.12304,-2.24024 1.65966,1.49345 2.10581,6.09789 2.79297,6.55664 -0.27296,-1.20241 -1.22208,-4.89866 0.65234,-2.2539 0.31968,1.30418 0.55646,2.27447 0.98828,4.03711 H 718.49219 V 121.46289 Z m 242.16015,625.11133 c -0.2484,0.0103 -0.45654,0.25239 -0.52929,0.9043 -0.25637,1.19924 -0.79998,3.16625 -1.73243,1.35351 -0.54913,0.51798 -0.21057,2.16084 -0.17382,3.12891 h 3.14843 c -0.21255,-1.74496 -0.33708,-3.40424 -0.0469,-4.02344 1.17791,0.66257 0.0792,-1.39405 -0.66602,-1.36328 z"
       transform="scale(0.26458333)" />
  </g>
</svg>
