<?xml version="1.0" encoding="UTF-8" standalone="no"?>
<!-- Created with Inkscape (http://www.inkscape.org/) -->

<svg
   width="210mm"
   height="297mm"
   viewBox="0 0 210 297"
   version="1.1"
   id="svg5"
   inkscape:version="1.1.2 (0a00cf5339, 2022-02-04)"
   sodipodi:docname="swordfern_20230506_173359762.svg"
   xmlns:inkscape="http://www.inkscape.org/namespaces/inkscape"
   xmlns:sodipodi="http://sodipodi.sourceforge.net/DTD/sodipodi-0.dtd"
   xmlns="http://www.w3.org/2000/svg"
   xmlns:svg="http://www.w3.org/2000/svg">
  <sodipodi:namedview
     id="namedview7"
     pagecolor="#ffffff"
     bordercolor="#666666"
     borderopacity="1.0"
     inkscape:pageshadow="2"
     inkscape:pageopacity="0.0"
     inkscape:pagecheckerboard="0"
     inkscape:document-units="mm"
     showgrid="false"
     inkscape:zoom="2.7759673"
     inkscape:cx="634.55358"
     inkscape:cy="767.84045"
     inkscape:window-width="1128"
     inkscape:window-height="684"
     inkscape:window-x="0"
     inkscape:window-y="0"
     inkscape:window-maximized="1"
     inkscape:current-layer="layer1" />
  <defs
     id="defs2" />
  <g
     inkscape:label="Layer 1"
     inkscape:groupmode="layer"
     id="layer1">
    <path
       style="fill:none;stroke:#000000;stroke-width:0.7;stroke-miterlimit:4;stroke-dasharray:none;stroke-opacity:1"
       d="m 122.59486,-15.280444 c 0.02,-0.141294 0.092,-0.214989 0.22904,-0.234386 0.24584,-0.03479 0.21222,0.128176 -0.0643,0.311806 -0.18522,0.122981 -0.19251,0.119557 -0.1647,-0.07742 z"
       id="path2220" />
    <path
       style="fill:none;stroke:#000000;stroke-width:0.7;stroke-miterlimit:4;stroke-dasharray:none;stroke-opacity:1"
       d="m 120.3803,-10.221092 c 0,-0.06875 0.0599,-0.14799 0.13314,-0.176091 0.0929,-0.03563 0.12489,-0.0085 0.10584,0.08976 -0.0348,0.179213 -0.23898,0.252989 -0.23898,0.08633 z"
       id="path2218" />
    <path
       style="fill:none;stroke:#000000;stroke-width:2.64567;stroke-miterlimit:4;stroke-dasharray:none;stroke-opacity:1"
       d="m 45.611328,905.24023 c -0.756737,0.007 -1.016695,0.61615 -0.410156,1.78907 0.51685,0.99949 1.196617,1.50954 2.90039,2.17382 1.265122,0.49331 1.579723,0.38075 1.697266,-0.60351 0.07616,-0.63817 -0.208166,-1.06778 -1.28125,-1.93945 -1.18513,-0.96263 -2.238541,-1.42576 -2.90625,-1.41993 z"
       transform="scale(0.26458333)"
       id="path11306" />
    <path
       style="fill:none;stroke:#000000;stroke-width:2.64567;stroke-miterlimit:4;stroke-dasharray:none;stroke-opacity:1"
       d="m 786.73828,671.54883 c -0.31234,0.0165 -0.55859,0.15519 -0.55859,0.32031 0,0.17613 0.36994,0.31836 0.82031,0.31836 0.46466,0 0.73335,-0.13694 0.62109,-0.31836 -0.10877,-0.17613 -0.47669,-0.32031 -0.81836,-0.32031 -0.0214,0 -0.0436,-10e-4 -0.0644,0 z"
       transform="scale(0.26458333)"
       id="path11304" />
    <path
       style="fill:none;stroke:#000000;stroke-width:2.64567;stroke-miterlimit:4;stroke-dasharray:none;stroke-opacity:1"
       d="m 792.40234,464.07227 c -0.37745,0.0179 -0.56307,0.33127 -0.30078,0.75585 0.24102,0.39081 0.50157,0.39667 1.08203,0.0293 0.35524,-0.22511 0.31153,-0.34979 -0.2207,-0.63476 -0.20775,-0.11115 -0.40118,-0.15797 -0.56055,-0.15039 z"
       transform="scale(0.26458333)"
       id="path11302" />
    <path
       style="fill:none;stroke:#000000;stroke-width:2.64567;stroke-miterlimit:4;stroke-dasharray:none;stroke-opacity:1"
       d="m 726.22852,191.34375 c 0.25609,-0.008 0.36904,0.61372 0.55859,2.20508 0.17008,1.42762 0.13695,1.51953 -0.55859,1.51953 -0.40732,0 -0.83777,-0.0955 -0.95508,-0.21289 -0.43903,-0.43904 -0.18985,-2.30277 0.40429,-3.03125 0.24448,-0.2997 0.41664,-0.47649 0.55079,-0.48047 z"
       transform="scale(0.26458333)"
       id="path11300" />
    <path
       id="path11298"
       style="fill:none;stroke:#000000;stroke-width:2.64567;stroke-miterlimit:4;stroke-dasharray:none;stroke-opacity:1"
       d="m 263.59766,121.46289 c -0.757,2.72728 -0.69173,5.65538 -1.14649,8.45313 -0.95182,3.31439 -0.13119,6.78566 -0.93555,10.12304 -0.72779,1.30635 -0.36941,4.52715 -2.04882,4.49805 0.65486,-1.14209 0.85669,-7.75869 0.006,-4.67773 -1.64651,0.59235 -0.55663,5.70471 -2.17969,3.5371 -0.94441,-2.66549 -1.34741,-5.49168 -2.0625,-8.2246 -0.66158,-4.20405 -3.33826,-7.71279 -6.56055,-10.34376 -1.39397,1.40161 -0.0271,5.77774 0.0176,8.23633 -0.13228,2.83897 1.13759,5.86814 0.40039,8.57422 -0.20464,-2.35195 -0.73574,-4.72312 -1.32227,-7.03125 -0.60467,-2.80249 -0.68406,-0.27026 -0.42187,1.06641 0.71811,2.91728 0.38384,5.71157 -0.24609,8.58203 0.14634,1.83307 -0.25141,0.6517 -0.62891,-0.42383 -0.90347,-2.4257 -2.04141,-4.79581 -3.61719,-6.80078 -2.13564,-2.53996 -5.0528,-4.23341 -7.99609,-5.64453 -1.15887,1.38125 1.29612,4.40655 1.36914,6.41211 -1.20852,-1.0474 -1.18184,-3.25154 -2.02539,-4.66016 -0.0403,2.90216 1.82114,5.51503 2.75,8.22461 1.13697,2.97153 -0.70982,-0.53791 -1.71094,-1.19922 -1.39882,-2.4878 -4.13796,-3.99058 -6.99609,-3.64453 -2.65824,-0.87578 -0.81478,0.79096 -0.25391,2.07422 -1.26257,-1.33564 -0.42989,1.63221 -0.0781,0.54687 0.74641,0.97761 1.16896,1.96095 0.8164,3.02344 -1.69732,0.45125 -3.79088,-2.35607 -6.12304,-1.62109 -2.63259,-0.99656 -0.97367,1.15872 -0.90235,2.64258 -0.10594,1.11191 -5.21713,-0.8728 -5.14453,0.38281 0.29227,1.36761 -3.55465,-0.43509 -4.7793,0.43555 1.41369,1.4486 0.0645,0.68101 -1.07031,0.4375 -2.11961,-1.04371 -2.36096,0.8325 -4.00586,0.35156 -4.43782,0.44154 -8.84383,1.48255 -13.08984,2.85156 -2.97361,1.3731 1.25351,0.75105 2.36719,0.33985 2.30067,-0.5041 4.50265,-0.0689 6.72851,-0.57227 -2.00676,1.98704 2.2278,0.39418 3.15625,0.24609 -0.89101,3.30969 3.64651,-0.28154 4.12891,0.96875 -0.79605,3.63957 5.47141,-2.06263 4.59375,1.07813 -1.83234,2.10591 2.4616,1.58628 3.69922,1.5 1.56676,-1.03493 1.92644,0.54842 1.4707,1.91797 -2.64893,1.92504 1.94095,0.91202 3.32422,1.26953 1.21157,-1.84372 2.14221,-4.05921 4.26953,-5.02149 0.1465,1.46834 -2.93587,3.83727 -3.67773,5.91797 -1.19556,1.88661 0.31344,-2.23516 -0.81836,0.24219 -1.58831,2.5169 1.6003,1.55091 3.19921,1.67578 2.54645,-0.78956 4.80929,-2.03828 5.34571,-4.85156 0.94962,-1.77203 0.48936,0.7035 1.35156,-1.01758 1.04669,-1.35995 2.06497,-1.27529 0.69141,0.33789 -0.79159,0.72615 -3.1684,5.15697 -1.3418,3.9082 -1.2906,2.36924 -3.26985,4.2485 -4.01367,6.91797 0.25462,0.90801 3.4567,-0.46752 4.86328,-0.79687 2.80817,-1.41984 4.86154,-3.90311 6.01367,-6.72461 1.52526,-0.72999 1.08283,1.4141 -0.11914,2.58008 -2.20898,3.50516 -5.39838,6.3485 -7.23242,10.08007 -1.45418,2.77714 1.44082,0.85915 2.7207,0.22657 2.69257,-0.88542 4.44253,-2.46486 5.82227,-4.65625 0.2171,1.22488 1.57336,0.66337 1.11132,-0.61719 2.23714,-0.0351 1.73683,-2.73859 3.67774,-3.18359 0.14749,2.31382 -2.42733,4.13123 -4.42383,5.22265 -2.18204,2.37036 -5.14961,4.22096 -6.36133,7.36133 0.98016,0.31142 3.94982,-1.38283 5.69532,-1.72461 2.57332,-0.69596 4.86895,-1.97078 7.19336,-3.21484 1.37239,-0.22089 4.20328,-3.17959 4.56445,-2.36133 -2.19261,2.31104 -5.65603,2.79879 -7.90235,4.96875 -3.87671,1.92544 -7.57249,4.52293 -9.98437,8.18945 1.06574,-0.15826 3.30187,-1.35322 4.67773,-2.11133 2.80964,-0.86343 5.7948,-1.47724 8.50391,-2.23632 2.52894,-0.54475 5.35153,-1.62801 7.42969,-2.16797 1.71549,-2.35431 3.04468,1.56091 4.49218,0.36718 0.33898,1.58413 -3.90982,1.50905 -5.36523,2.22461 -5.17613,2.08981 -10.96752,1.85351 -16.2207,3.66407 0.91668,0.73691 3.45467,0.89565 4.95312,1.53711 2.79386,0.53938 5.35264,2.28259 8.25586,1.52148 1.30567,0.39561 4.60101,1.55196 4.4668,-0.93945 0.93697,1.63252 2.38589,2.13663 3.91015,0.77344 1.71242,1.29152 1.33452,-1.11055 2.82032,-1.72852 1.28257,-0.68282 2.11172,0.50446 0.21679,0.94531 1.92979,0.82799 1.77201,-0.89982 2.61719,-1.70508 0.58834,-1.52963 0.70466,-2.11898 1.1211,-0.0762 -0.2505,3.47801 1.88603,-2.92138 3.05273,-0.87109 -1.0842,1.84079 1.3455,1.46517 0.62109,0.004 -0.31671,-1.57321 2.0605,-1.28291 3.37305,-1.91406 2.41035,0.98258 0.48569,-2.67272 2.29492,-1.36133 0.42117,-0.80233 1.79034,-2.57624 1.37696,-0.39453 1.0297,0.43608 3.89328,-3.40264 4.29687,-1.6289 0.97859,0.54156 1.70871,-3.48135 -0.84375,-1.4668 -2.6264,1.19394 -5.6127,1.85594 -8.32031,2.58789 1.82847,-0.75086 -0.22047,-0.71056 -0.7461,0.32812 0.8797,2.33065 -0.70638,0.21438 -1.83593,0.6836 -1.25348,-0.29299 -2.392,1.67891 -3.58789,1.12695 -2.66993,0.551 -5.12718,1.97622 -7.90235,2.14063 0.32749,-0.89937 5.82425,-1.72367 7.87305,-2.80469 3.72101,-1.6607 7.57663,-2.96488 11.56055,-3.83399 2.14805,0.0775 5.89842,-3.41089 6.64257,0.0352 2.01431,1.75171 4.64456,2.68683 6.57618,4.67383 2.60462,2.70762 -2.16124,-0.37292 -3.33594,-1.02344 -1.99365,-0.86303 -4.6869,-2.04584 -6.67383,-1.34765 -2.83397,4.01284 -7.98535,4.73574 -12.16601,6.64257 -2.40165,1.33338 -5.16229,2.10517 -7.35157,3.73829 -2.79884,0.9585 -5.46788,2.37404 -7.86328,4.12109 -2.72605,2.07426 -6.17696,4.12782 -7.10742,7.64062 -0.46148,2.32981 0.55145,0.99516 1.31445,-0.23437 2.52697,-1.73125 5.52006,-2.74786 8.47656,-3.51758 2.40068,-1.00254 4.71883,-1.3438 7.10547,-2.35352 2.43097,-0.80707 4.9434,-1.20365 7.31641,-1.79492 2.59257,-0.53253 5.27141,-0.78355 7.89453,-1.23242 2.7549,0.29023 5.21421,-1.68004 7.93359,-0.48633 1.60415,-1.90824 4.24005,-0.75494 5.95313,-2.91211 0.53484,-1.81192 4.72232,-1.03413 2.55664,-2.74414 0.20668,-2.49405 0.77839,0.90821 1.65625,0.94336 2.68574,1.68347 -3.31727,0.22054 -0.41211,1.23828 0.98173,-0.32714 4.70695,1.51121 3.29297,1.6836 -1.87129,0.6309 -4.71992,-0.92826 -7.04102,-0.15625 0.26174,1.72733 -0.74576,3.88876 -2.8125,4.375 -2.22343,1.62954 -4.94423,2.60706 -7.68945,3.07031 -2.68231,1.08065 -5.50986,1.36506 -8.08789,2.75391 -2.7758,1.50553 -5.56485,2.99708 -8.24219,4.64257 -5.22244,1.98643 -9.99049,5.53387 -12.86523,10.36719 2.98065,-2.39714 6.97184,-3.73116 10.73828,-4.73242 2.82797,-0.84276 5.42414,-2.13432 8.38281,-2.62109 3.11817,-1.77372 6.77906,-1.93131 10.21875,-2.65625 2.12537,0.51785 3.98245,-1.15432 5.96485,-0.31836 1.35643,0.2095 2.60916,-1.64897 4.32421,-0.14844 2.01536,-1.11901 4.23632,-1.24718 6.52149,-0.75 -0.47869,-0.79509 1.11624,-1.91864 2.84375,-1.73242 -0.3092,0.41217 -2.3664,2.43294 -0.40234,1.67383 2.07282,-1.38901 0.21107,0.54749 -0.64844,0.92578 -2.361,1.34028 -4.50162,2.7395 -6.77539,4.21679 -2.76761,1.733 -6.28043,1.68364 -8.97266,3.44532 -2.50857,0.79469 -4.44378,2.21264 -6.72656,3.43554 -2.45121,1.58506 -5.13565,2.85701 -7.52539,4.52344 -2.51328,1.5949 -4.75031,3.54258 -6.79883,5.69727 -1.24859,1.59046 -3.94802,5.11882 -3.01563,6.24023 1.55046,-2.39245 3.95338,-4.24553 6.66016,-5.21484 2.56957,-1.059 5.10513,-2.17929 7.59766,-3.32227 2.632,-0.62635 4.98479,-2.26457 7.74218,-2.66406 2.37031,-1.70466 5.5798,-1.30952 7.83594,-2.53711 2.4242,0.42834 4.41348,-1.14373 6.81446,-0.56641 1.66293,-1.01171 3.9132,-0.44014 5.46289,-1.87695 1.44437,0.55215 3.06201,0.18492 4.69726,-0.57617 3.3587,-0.87497 -1.31091,1.67512 -0.0488,1.14648 1.3734,-0.24718 4.69399,-1.72983 4.67774,0.36328 -2.49517,1.50471 -4.56312,3.7298 -7.29492,4.77344 -2.30623,1.21798 -4.57697,2.32776 -6.88672,3.38867 -1.40132,1.67083 -4.63532,1.92453 -5.62696,3.94922 -2.36608,1.22745 -4.4426,2.8311 -6.77148,4.1875 -1.64824,1.73834 -4.30197,2.53033 -6.16602,4.17188 -2.25019,0.78691 -3.63562,2.98879 -5.47265,4.44922 -2.03643,2.26626 -3.42988,5.11847 -4.08008,8.11328 -0.55377,1.9508 1.39471,-2.01138 2.02344,-2.12696 1.90363,-2.25677 4.78212,-3.27303 7.30078,-4.56836 2.54663,-0.88119 5.08635,-1.71079 7.42578,-3.00585 2.12129,-0.28399 4.75093,-3.21844 6.02539,-2.85938 1.41035,-0.49313 2.99397,-1.20124 4.72656,-1.22656 1.74641,-0.97086 3.8735,-0.71612 5.23828,-2.35938 1.11414,0.42689 2.36493,0.49792 3.07227,-0.74414 2.08014,0.75996 2.81037,-0.80098 4.74023,-1.13086 1.52361,1.85264 4.36844,-2.67472 4.9004,-1.64258 -0.60293,2.06375 1.04877,-0.98327 1.95703,-1.07617 2.23523,1.37332 3.54131,-2.11085 6.00195,-1.75195 0.5088,1.31536 -3.29295,2.22315 -4.41797,3.36914 -2.868,1.4634 -6.0991,2.07973 -9.08789,3.26562 -2.18261,1.05593 -4.50677,1.77721 -6.41602,3.18165 -2.11765,0.57047 -3.325,2.11204 -5.5332,2.57031 -1.27678,1.7006 -3.94029,1.91425 -5.81445,3.10547 -1.95623,1.57565 -4.52497,2.24418 -6.62305,3.56054 -1.99107,1.30516 -4.17455,2.57293 -6.19531,4.09375 -2.43013,1.46057 -5.39696,4.22287 -6.15235,6.2793 4.32163,-3.15132 9.79603,-3.50016 14.76172,-5.01758 2.7641,-0.38594 5.13887,-2.01008 7.9375,-2.48047 2.86991,-0.92831 5.82775,-1.55551 8.63086,-2.40234 2.56513,-0.68201 5.01997,-1.49077 7.49414,-2.04102 2.24029,-0.26406 4.39105,-1.69313 6.9043,-1.28711 1.58808,-2.18219 3.99481,-0.37447 5.91797,-1.80859 2.35542,0.63932 3.76136,-1.7761 6.05078,-1.03125 2.50225,0.78166 1.63067,-1.66081 4.01953,-1.45898 1.58421,-1.26342 1.49361,1.48114 2.55664,0.0644 -0.0779,-1.6499 4.65505,-2.78045 1.72071,-1.125 -2.69072,0.62851 1.16927,3.2979 0.89843,1.79297 2.03708,1.50043 2.5904,-1.19404 2.73633,-2.77539 0.73885,2.06539 0.18074,4.81778 -2.53711,5.20312 -0.46282,2.01749 -3.29126,0.9756 -4.33594,2.82032 -2.70959,1.35094 -5.78584,2.21371 -8.125,4.20312 -2.27918,1.03324 -4.52605,2.32639 -6.57812,3.68164 -2.74634,0.68582 -4.17174,2.91724 -6.76172,3.94727 1.0734,1.16701 -2.61993,1.76854 -3.03711,3.3164 -2.77768,0.89071 -4.38523,3.38251 -6.35742,5.17578 -1.64174,1.86427 -3.16184,3.69469 -5.07617,5.1875 -2.17174,1.57644 -4.12246,3.68561 -6.46094,5.09961 -1.8139,2.02243 -3.8871,3.63765 -5.37109,5.8711 -2.96634,2.68924 -5.05316,6.35874 -5.90039,10.27148 -0.49865,3.56817 0.75223,-0.3117 1.42187,-1.38867 1.52341,-2.6017 3.9294,-4.47772 6.36914,-6.15039 2.06323,-1.3377 4.15698,-2.55985 6.41602,-3.70313 2.46307,-1.55524 4.99427,-3.00568 7.39843,-4.68554 2.74515,-1.50007 5.33532,-3.2199 8.0293,-4.72852 2.07793,-0.42873 4.38105,-2.80475 5.98438,-2.13476 1.2219,-2.53183 4.20524,-1.28421 5.53906,-3.57032 1.85035,-0.005 2.8491,-0.65188 4.14844,-2.09961 2.53661,0.92548 2.74885,-1.36772 4.89843,-1.88867 -0.61325,1.51916 2.00812,0.21694 2.95508,-1.03515 2.46572,0.57997 3.87008,-2.00301 6.11524,-2.11133 0.0816,2.99136 2.05134,-1.41612 3.87109,-1.27344 1.62528,1.19596 3.04635,-0.9403 5.01172,-1.64258 2.99418,-1.41961 -0.56408,1.29872 -1.51953,1.90039 1.26423,-0.36965 0.176,0.4784 1.07422,0.86328 2.73425,-0.61474 3.73566,-0.88762 6.36914,-1.92773 -1.22961,1.5371 -3.50529,1.91899 -5.01758,3.125 -2.55542,0.72095 -4.74298,1.80562 -7.26367,2.83203 -2.77752,0.72265 -4.7547,2.57134 -7.61914,3.16016 -0.72652,1.88634 -3.82688,1.13203 -4.86719,2.88672 -2.73707,0.46557 -4.20368,3.23932 -7.10547,3.33203 0.65463,1.21397 -1.96715,2.22369 -3.68945,2.44922 0.94265,1.0591 -0.35386,2.1929 -1.75,2.57812 -0.54945,1.76395 -3.66401,1.66946 -3.59375,3.31641 -2.48815,0.66631 -3.01067,2.84312 -5.32422,4.02148 -0.74439,2.27934 -3.40954,3.61991 -5.08985,5.29883 -2.06398,1.7894 -4.00536,3.70963 -5.68359,5.81641 -1.9636,1.65096 -3.44343,3.81036 -5.21484,5.77734 -0.82894,2.49685 -2.90673,4.49538 -3.95899,6.9707 -1.41373,2.52611 -0.97951,5.87963 -4.06836,7.22657 -2.34225,1.76562 0.66197,0.10949 1.79883,-0.16993 2.87144,-0.76615 5.78079,-1.89554 8.75586,-1.92578 2.28816,-1.17323 4.81701,-1.14927 7.20313,-2 2.94474,-0.58845 5.65844,-1.98779 8.44726,-3.21679 0.66129,1.51734 3.82211,-2.99353 3.52149,-0.84961 1.08894,-0.58708 4.67547,-1.75863 6.7246,-2.58203 1.13237,1.12715 3.168,-0.99413 4.78516,-1.32813 -1.45757,1.42703 0.8526,0.52854 1.46289,-0.14844 1.49385,-1.48371 -0.49333,1.13364 1.45313,-0.0527 -1.01025,-0.62233 2.1947,-1.2511 0.81054,-0.23047 0.11437,0.80526 2.94856,-1.92587 4.10547,-1.61523 -1.19741,2.02152 1.38716,-0.0555 3.13086,-0.54297 1.11636,-1.62998 1.29044,0.8004 2.62891,-0.0352 1.60342,-2.35681 5.13355,-0.19313 6.86914,-2.84375 0.0519,0.92752 1.84203,1.25254 2.81055,0.0332 0.85951,-0.4335 5.37493,-2.22647 3.30468,-0.5332 0.96152,1.1797 2.38822,-1.81105 3.82227,-1.74805 0.69016,-1.66408 3.14956,-0.49579 1.48633,0.51172 0.46493,1.65013 2.78566,-2.22897 4.56836,-2.04687 0.93136,-1.00413 0.71486,-1.07825 1.29882,0.54492 2.45037,-0.65701 -0.85041,0.76561 0.21094,1.04492 1.87842,-0.70603 2.89927,-2.62645 4.2461,-4.13476 -1.01952,1.00396 1.85593,1.02472 0.61914,2.59765 2.13925,-0.66105 2.8466,-4.03027 5.73047,-2.96484 2.51879,-1.15748 0.2321,0.0761 0.15039,1.42969 -1.46961,1.2865 1.40031,1.52071 0.44726,1.43359 2.51593,0.44871 -0.92968,0.95854 -1.95312,1.16211 -2.27921,0.64885 -4.56222,1.42256 -6.65235,1.81836 -2.47637,0.88749 -5.16117,1.52223 -7.34961,2.85742 -2.15792,1.10024 -4.21186,2.87346 -6.69922,3.51367 -1.61558,1.20504 -3.30608,1.97704 -5.60742,2.41797 -0.47947,1.86924 -3.61032,1.41801 -4.60156,2.49023 -0.61176,1.85311 -5.0734,0.8493 -4.49023,2.92188 -2.68796,0.77355 -3.54276,2.40894 -6.19141,3.37891 0.027,1.85831 -2.95039,1.35977 -3.00391,2.84179 -2.11844,0.86434 -3.36689,2.71187 -5.5332,3.375 -0.2041,1.72072 -2.57962,1.40367 -3.10938,2.91407 -2.28592,0.69448 -2.85639,2.43795 -4.88476,3.43554 -1.74796,1.69485 -3.45369,3.13024 -5.45703,4.50781 -1.25531,2.09487 -3.25115,3.69521 -4.54883,5.81055 -2.59485,2.79217 -4.786,5.97905 -6.63281,9.33203 1.32127,-0.56832 3.37096,-3.5812 5.26562,-4.6875 0.0674,-0.1048 1.42463,2.05516 1.10352,0.1836 -0.73944,-1.47171 2.13932,-1.08293 2.96484,-1.39844 2.34792,0.51368 4.19779,-0.68578 6.57617,-0.24805 1.79245,1.13705 1.85221,-1.44122 3.00586,-0.50976 2.54169,-0.0724 4.99657,-0.83181 7.51172,-0.48243 2.76597,-0.111 5.50223,-0.12034 8.25977,-0.11718 2.16518,-1.4085 3.89443,0.6763 5.99609,-0.32422 1.29348,0.048 2.33135,-0.17522 4.02539,-0.76563 1.15181,2.33601 2.84796,-0.81199 3.79688,0.47266 1.96098,-0.29974 3.80304,-0.71758 5.52539,-1.86914 0.50896,-1.73801 2.11522,-0.71594 0.56445,0.36719 1.07006,-0.50262 2.42834,0.78735 2.9668,-0.71094 0.85365,1.03815 1.1943,0.63087 1.39258,-0.28906 1.96419,-1.20983 0.0585,1.39595 1.3164,0.29687 2.14142,-1.73086 -0.44201,1.7999 1.00586,0.62891 0.3937,-1.08698 3.88449,-4.2346 2.27344,-1.31055 0.96871,-0.63126 3.22592,-0.6887 4.29492,-2.35937 2.29241,-0.18002 2.09633,-2.10353 2.91602,-3.57032 0.96311,1.62845 -1.06859,4.89168 -3.47266,5.19336 0.6901,0.99417 3.54469,-0.64484 4.86719,-1.09375 -1.7282,0.41791 -0.81923,-3.44433 0.68164,-2.66211 -0.68406,1.43297 0.0293,1.64494 1.03711,0.42383 1.1193,-2.13482 0.87659,0.22177 -0.13867,1.08789 -2.42896,2.98183 2.54157,0.56685 3.98828,0.0508 0.0117,-1.14111 3.21803,-4.20378 1.75781,-1.38476 -2.06668,1.91975 0.56101,2.24979 1.72461,0.78515 0.94186,0.56686 -1.70317,2.11301 0.74805,1.18555 1.47662,-1.63647 2.4982,-3.80771 4.71875,-4.93945 0.80987,1.30415 -0.57405,3.45318 -2.58204,3.58203 -1.95526,1.2796 0.16787,1.44842 0.56446,2.51562 -1.78367,-0.3296 -2.00616,0.68795 -3.64844,0.32032 -0.18735,0.57949 -1.26806,1.3117 -2.62305,1.0957 -2.1245,1.40369 -5.66366,0.12725 -7.10937,1.80859 -3.03684,-0.29242 -5.74634,1.37072 -8.77735,1.35938 -0.69522,2.10449 -4.58106,0.8575 -5.19531,2.97851 -3.00498,0.24513 -4.47741,2.57997 -7.51367,2.36914 -0.92451,1.34385 -3.93274,1.07176 -4.88867,2.33204 -1.70667,1.10454 -4.58967,2.16096 -7.02149,2.50781 0.0289,2.36388 -5.17998,0.49792 -3.64453,2.47461 -2.25295,0.83939 -4.28137,2.11288 -6.60351,2.97461 -1.07576,2.15635 -4.67446,2.92568 -6.07032,5.02929 -2.36229,0.97372 -2.95005,2.73042 -5.30078,3.86719 -1.74248,1.93888 -3.8643,3.57418 -5.59179,5.65039 -1.82149,2.77961 -4.7319,4.71564 -6.13868,7.76563 0.78276,-0.67706 2.34501,-2.35564 3.70313,-3.11914 2.06618,-1.85734 3.98503,-3.74381 6.35351,-5.25782 2.51369,-1.20599 4.7284,-3.25262 7.51368,-3.79687 3.0891,-1.51671 6.54111,-1.96118 9.86523,-2.7168 2.72241,-1.09562 5.8361,0.0999 8.3125,-1.58008 0.0875,1.08634 2.19807,-0.37832 3.50195,-0.44726 1.94139,-0.47264 0.10899,0.63833 0.73438,0.72265 2.6529,-0.97353 6.07806,0.17522 7.86523,-2.43554 1.52123,-1.54779 1.8517,-0.18607 0.33399,0.53125 0.77709,-0.24335 3.09711,-0.70442 0.94531,0.57226 0.37902,1.56639 3.00782,-2.99541 3.61133,-1.64062 -2.88516,1.93181 3.76751,-0.7723 0.7793,1.18164 0.37231,1.00959 2.13426,-1.76518 3.35742,-1.65625 1.27048,-1.62433 2.97809,-0.0806 0.88672,0.6582 1.46279,0.6997 3.64389,-2.32644 5.59179,-2.60351 1.84529,1.69717 -1.53128,0.56802 -0.30468,1.96093 1.75946,0.12185 3.6645,-3.60985 5.26562,-2.58007 2.02665,1.27248 -0.51012,1.08739 -1.375,2.02539 -0.25197,0.9945 3.67978,-0.87777 4.26563,-1.99414 1.91877,0.87667 1.62171,-2.52466 2.9082,-1.32227 1.42716,1.61649 -0.26691,0.61697 -0.79102,1.79102 -2.58065,0.22038 -3.43542,2.64467 -6.09765,2.38671 -0.98897,0.17688 -6.20863,0.77128 -2.89453,0.8418 1.00278,0.97526 -3.85521,0.73962 -4.30274,1.97266 -1.93616,0.94628 -4.39572,2.83086 -7.02539,2.03906 -1.10013,0.55488 -2.70585,1.57572 -4.63672,1.51562 -0.18508,1.74139 -3.64512,1.16498 -4.41797,2.20704 -0.87899,1.62745 -3.93699,1.33642 -5.00586,2.94726 -2.74479,0.0104 -4.83439,1.76392 -7.76562,1.54297 0.92581,0.83833 -1.68181,1.53842 -2.66602,1.44922 -1.87717,-0.49052 -0.60465,0.77348 -1.44922,1.22656 -2.83749,-0.16368 -3.77115,2.17343 -6.61718,1.75 -1.04233,0.65059 -2.21185,1.61579 -4.04688,1.72656 -0.43091,2.01531 -3.61152,0.52847 -3.90039,2.24415 -2.34163,0.52582 -3.73525,2.18085 -6.0625,2.83007 -2.06357,1.27475 -4.33773,2.61283 -6.37109,4.16407 -2.12288,1.27494 -4.64837,3.33885 -4.03321,6.12304 -0.20581,-1.90072 2.11258,-3.03494 4.03321,-3.52734 2.38762,-0.50827 4.45155,-1.95467 6.8164,-1.76758 2.33417,-0.0646 4.7972,-0.64922 7.07032,-1.50781 2.3206,0.38525 4.97068,-0.96404 7.31054,-1.61133 2.62572,0.51735 5.41498,-0.62469 8.11328,-1.04492 1.9788,1.14972 4.88489,-1.24142 6.72461,-0.0215 3.09913,-1.20792 5.10107,-0.39611 7.91602,-1.83007 2.08351,-1.31167 0.42468,1.18248 1.97461,0.66406 1.15767,0.30781 5.2517,-2.12215 4.23633,-0.22266 1.05948,0.47101 4.06037,-1.90034 5.66797,-1.36719 -1.68335,1.54938 1.26224,0.22333 1.95507,-0.20703 0.94833,1.44983 4.66245,-2.67044 3.02149,0.10938 1.67335,-0.75107 4.27587,-2.60094 5.86914,-2.16992 -2.07038,2.05775 1.47195,0.0318 2.00195,-1.10938 -0.13065,2.82194 2.9474,-2.1694 3.17969,0.16016 0.68801,0.18518 2.57684,-1.82085 3.6582,-2.625 0.35222,-2.44313 1.4608,-0.0371 1.375,1.19531 0.53205,0.88982 2.16534,-2.24351 3.53516,-2.23633 1.558,-2.64023 0.99945,0.95431 -0.65625,0.99414 -2.73642,1.59825 1.29295,0.23648 2.17773,-0.40429 0.11399,1.19933 0.71206,1.17043 1.35938,0.0645 0.0221,-0.97497 3.96672,-4.27468 1.95703,-1.67969 -2.03856,1.64159 -0.12484,1.17909 0.94727,0.0996 1.29851,1.63191 2.27454,-0.60523 3.21289,-1.94141 1.17112,-1.80904 1.27166,-0.58483 0.20507,0.58789 -1.82358,2.55272 1.1078,0.58331 2.40625,0.21485 0.14767,3.02977 3.75326,-3.85363 1.99805,-0.16602 -0.56202,1.52037 3.48473,-2.10105 2.69727,0.12696 0.39144,1.67073 2.8026,-3.05974 3.125,-1.34571 -3.05231,1.27534 0.26671,1.08845 1.74023,0.45899 1.12895,-0.84077 1.5135,0.301 2,1.16992 1.31376,-0.39688 2.64997,-0.72843 3.9375,-1.20703 1.19335,-0.34448 4.21676,-2.97246 3.75781,-3.26367 -2.96617,1.80561 -0.0121,-2.70213 0.56055,-0.78907 0.58258,0.41756 2.73918,-4.70133 4.13477,-2.5039 1.88511,1.56333 -0.90361,2.53711 -1.32813,0.68164 -1.2923,1.61808 -2.92196,3.81214 -4.22461,5.79297 -1.2901,2.81226 -4.35035,2.97695 -7.03515,3.56836 -2.35102,0.82416 -4.36017,1.30356 -6.81641,2.08984 -2.53708,0.54298 -4.43583,1.31362 -6.74414,2.05469 -2.38987,1.09728 -5.26599,2.00095 -7.86328,2.98047 -1.50679,1.66225 -4.38641,1.8828 -6.19336,3.54882 -2.13553,0.14276 -3.05745,1.11682 -4.57031,2.02149 -3.2491,0.40955 -3.71243,2.57584 -6.86524,2.82226 -0.99835,1.23644 -2.79581,1.72065 -4.86133,2.06836 -0.80442,2.00954 -4.55023,1.43068 -5.23047,3.3418 -1.34137,1.44363 -3.92023,0.78918 -4.22656,2.82813 -2.08189,0.0926 -2.69001,1.37797 -4.11133,2.1914 -2.70651,-0.0999 -3.93186,2.87052 -6.92187,2.51563 1.41923,1.45935 -1.51452,1.73162 -2.47461,1.85937 -2.15521,-0.18988 0.31482,1.2353 -1.40039,1.71485 -2.26872,0.0697 -2.64916,1.37946 -4.14258,2.42382 -2.89748,-0.0607 -2.31372,2.60677 -5.28125,2.82032 -0.13976,1.95545 -3.61452,1.37896 -3.97656,3.40429 -2.29203,0.39436 -2.58452,2.21976 -4.29688,3.20508 -2.05308,1.46234 -3.67614,2.8144 -5.69922,4.51953 -2.01925,1.5891 -4.04838,3.1791 -6.14257,4.7461 3.67587,-0.7448 6.74696,-3.06166 10.34375,-4.05469 2.4911,-0.92697 4.86583,-2.21661 7.41601,-2.91016 1.42932,-1.19372 3.91237,-1.03274 4.97461,-2.54883 2.05013,-0.56413 3.75817,-2.53336 6.13477,-2.71289 -0.53193,-2.09994 4.19956,0.0848 4.4707,-2.46093 3.44342,-0.36363 7.16659,-0.6734 9.98047,-2.92188 0.67403,0.52059 3.30723,0.0646 3.4414,-0.74805 1.02509,-1.28628 3.97841,0.23605 5.98243,-1.1914 0.14817,-1.81251 1.06634,0.85512 1.73828,-0.22461 1.37119,-0.19287 4.11153,-2.65603 4.64258,-1.21289 2.41748,-1.1455 4.95385,-1.69175 7.23632,-2.91602 2.67201,0.0174 4.68171,-1.31836 7.08008,-2.66992 1.89132,0.46598 2.43809,-1.47107 4.09961,-1.73828 2.20411,-0.9092 0.13679,1.92685 1.75,0.56641 0.25652,-1.50206 5.80469,-2.31378 3.83008,-0.79883 0.91502,0.18073 2.89972,-1.79082 3.90625,-2.65039 2.63558,-1.68125 -0.68297,1.23405 0.52734,0.85156 0.86763,-1.4753 2.29157,-1.37016 1.06836,0.43555 1.15223,0.32813 2.49641,-3.54348 3.13477,-2.23047 -3.07616,2.73112 4.38653,-2.69795 2.55078,0.49609 0.47184,0.23698 3.62431,-3.58493 2.18945,-1.18164 -1.60951,1.23761 2.41235,-0.56005 2.93555,-0.91797 0.2677,1.71368 2.68784,0.1852 4.13086,-0.60351 1.62111,-2.13532 1.70834,1.418 3.58008,0.46484 3.70027,-0.31982 6.02404,-3.52339 8.28711,-6.07227 -0.85618,-0.82684 0.30469,-0.97793 1.20898,-1.95898 2.16677,-0.72416 -0.19179,0.81559 0.11133,1.81641 -1.16462,1.56155 -2.61561,4.42076 -3.43359,5.52929 2.59776,-0.43313 0.28767,0.68732 -0.78126,1.07813 -1.91601,1.83972 -5.18372,1.20813 -6.99804,2.83008 -2.95,0.87704 -6.06631,0.4217 -9.03906,1.50586 -1.50875,1.1306 -5.17205,0.11831 -5.09571,1.60351 -2.68558,0.49433 -5.25514,1.64279 -8.00781,2.08008 -2.6928,1.18915 -5.62149,2.06133 -8.59961,2.48437 -2.93843,0.35679 -0.22289,0.46048 1.16016,0.3418 -0.79756,0.7793 -4.0775,0.68032 -5.66993,1.375 -1.73486,0.1934 -1.16716,0.94295 0.33985,0.50195 0.43083,0.78732 -3.49381,0.55525 -4.5957,0.97266 0.22944,1.62025 -3.73379,0.82572 -4.37891,2.64844 -2.3712,0.2578 -4.08273,1.66255 -6.29297,2.17773 -2.22438,-0.37931 -0.96872,1.95075 -3.25391,1.70508 -2.05818,-0.4484 -1.18866,1.71508 -2.84179,1.60547 -2.69682,-0.57831 -3.98268,1.63104 -6.80274,1.05273 0.19646,1.39446 -2.70795,0.94978 -4.28711,0.90821 0.66797,1.95356 -2.04605,1.094 -3.12109,1.10156 -0.35401,0.84518 -0.91118,1.77274 -2.4082,1.17187 -2.17379,0.66308 -5.08021,0.10676 -6.80469,1.90039 -2.47387,-0.0741 -3.30498,1.67388 -5.71289,1.93165 -0.80448,1.71677 -3.29692,0.55335 -4.05664,2.10156 -3.37685,0.97402 -6.74206,2.05332 -10.23047,2.58594 -2.3445,0.34163 0.0393,0.44325 1.17773,0.54492 2.80527,0.46348 5.56071,0.8742 8.37696,0.6289 2.63495,-0.11489 5.25723,1.08004 7.91211,0.0879 1.86839,0.92508 3.68679,-0.7175 5.44922,-0.0488 2.67032,-0.37047 5.37672,-0.2122 8.0332,-0.87891 0.21586,1.2446 3.87956,-0.86105 4.02148,0.34961 1.27987,0.12238 3.33063,0.0464 5.17774,-0.55469 -0.8045,1.24717 0.70203,0.65653 1.6582,0.45508 2.51086,-0.92001 5.41801,0.56486 7.69336,-1.20313 1.28384,1.47447 3.84475,-0.76538 5.83398,-0.51367 -0.39069,1.14195 -0.25569,0.90853 0.92969,0.4043 0.9666,-0.0691 4.96228,-2.64922 4.01563,-0.68164 1.99101,-0.5754 4.93933,-3.05961 6.71484,-1.63477 0.36389,-0.82987 3.79005,-2.46328 1.68164,-0.79492 1.39363,-0.24862 3.53259,-1.22829 5.02539,-1.62695 1.66851,-1.34642 1.2851,0.82305 2.55664,-0.13086 1.30541,0.47928 5.30487,-3.07997 3.71875,-0.36328 1.27537,-0.57147 2.25315,-2.06917 3.88477,-2.03516 0.27292,-0.71512 3.08258,-2.49657 2.34179,-0.58398 0.52717,0.82189 1.93224,-2.55647 2.34375,-3.55664 1.70087,-2.72587 0.49452,0.21734 -0.0547,1.43945 -1.64561,2.33276 1.58777,0.12519 2.54297,0.0371 -1.02373,1.68854 1.49301,-0.39489 2.07812,-1.09766 -0.66085,2.57118 4.19927,-2.24461 2.75391,0.47461 1.71174,0.042 4.28188,-1.161 6.16015,-1.91797 -0.41102,1.61711 1.05883,0.37873 2.04102,0.17579 1.20351,-0.33298 5.82466,-2.60448 3.95508,0.0664 2.65942,-0.65155 6.10829,-0.80318 7.64062,-3.43555 -1.27608,-1.23091 0.94104,-3.18827 1.72461,-3.30468 0.34991,-2.03902 0.83415,2.41342 -0.45312,3.40429 -1.56681,2.27917 -2.49754,5.06704 -4.65039,6.89063 0.46117,2.11684 -4.84469,0.39816 -4.81446,2.12109 -0.43328,0.15545 -2.75066,0.75611 -3.92383,1.33789 -2.09174,-0.59799 -2.42398,0.98153 -4.20898,1.22266 -2.71888,0.22798 -4.96178,1.78988 -7.54297,2.53906 -0.51133,2.34924 -4.94563,1.26185 -5.29297,3.76367 -3.03023,0.3594 -3.92513,2.76611 -6.84179,3.20118 -1.20938,1.41762 -3.60685,2.05498 -4.67774,4.00586 -2.463,0.45295 -2.59724,2.96455 -4.625,3.62695 -0.70855,1.55176 -2.97114,2.74727 -3.67383,4.4414 -2.43579,1.16157 -3.14448,4.00354 -5.82812,4.83594 -0.31461,1.93727 -3.15623,2.71566 -3.77735,4.4375 -2.5492,1.35957 -4.31644,3.30758 -6.41601,5.22071 -0.26949,1.56084 -1.51069,3.15869 -2.50781,4.58203 -0.993,2.72254 -2.06957,5.4589 -2.71289,8.32421 -0.33574,2.87165 -0.90912,5.79634 -3.86329,7.09571 -3.29667,2.7363 -6.25091,6.00174 -8.35937,9.7539 -0.47158,0.68444 -2.72356,5.9012 -0.9707,3.01368 0.51962,-2.34811 2.3212,-4.09828 3.25195,-5.91211 -0.23209,1.01896 1.62111,-1.15595 2.35937,-2.20703 1.90048,-2.08509 3.98308,-4.21231 6.70508,-5.16993 -1.21843,1.13874 0.53062,6.55513 -1.74023,4.22071 -0.45166,1.79845 2.58823,3.83047 4.08789,5.125 0.69889,0.4447 4.93157,3.37739 3.63476,1.83398 -2.73961,-1.78431 -3.71539,-5.01758 -4.83203,-7.89648 -0.8084,0.62203 1.65975,4.24187 0.49219,4.73828 -1.79043,-1.86354 -2.24103,-5.04172 -0.89453,-7.23438 -0.40334,-1.87336 1.30073,-1.92013 2.63086,-2.50195 2.26751,-1.60974 5.15782,-1.94264 7.7793,-2.79492 2.34793,-1.3129 5.08154,-0.60821 7.51757,-1.72461 2.80736,0.63991 5.43679,-1.10329 8.24414,-1.23633 3.8264,-0.0885 7.57496,-1.09085 11.19922,-2.29297 2.54366,0.20701 4.84374,-1.23735 7.28516,-1.32617 2.44562,-1.53763 4.47717,-0.25913 6.88477,-1.47266 1.17227,-1.5211 3.00022,-0.40257 0.99023,0.76954 1.9389,-0.97497 4.81751,-3.22972 6.61328,-2.59376 1.10895,0.57064 3.88336,-1.64373 5.63086,-1.43359 -1.551,1.86497 0.96362,0.27234 1.97461,0.12305 1.05256,-0.0375 4.60195,-2.77077 2.97852,-0.91211 1.20009,-0.0759 4.2296,-0.65671 5.73828,-1.9707 0.10601,1.59628 1.48257,0.909 2.75586,0.52734 1.18771,-0.58893 5.72485,-2.07427 3.08398,0.13086 0.0684,0.4176 2.9484,-1.39938 3.70703,-2.04492 0.59324,0.53586 1.67606,0.87219 2.75391,-0.30664 -0.29318,1.39003 -2.82039,2.12037 -3.89453,3.36523 -1.28829,1.89173 -4.19452,3.42864 -5.86133,3.57227 0.12805,0.48514 -0.15617,0.98735 -1.87696,1.43164 -2.47451,1.25246 -5.8267,1.17775 -7.76953,2.92578 -3.04331,0.49258 -4.42043,2.21972 -7.21679,3.17969 -1.86656,1.30189 -4.12143,1.83818 -5.92774,3.3125 -2.60651,0.9552 -4.62187,2.83585 -7.1289,4.01367 -2.15071,1.62217 -4.89383,2.3011 -7.17383,3.66797 -2.35,0.9787 -4.66191,2.55491 -7.27735,2.74804 -2.53462,1.31052 -5.15318,1.9293 -7.89062,2.65625 -0.93343,1.54394 -4.12892,0.61689 -4.89648,2.03516 -2.89663,0.40373 -4.91123,2.28024 -7.78321,2.61133 -0.30405,2.06003 -3.91205,0.81978 -4.00586,2.34765 -2.22684,0.35316 -3.71723,1.99176 -5.91992,2.26953 -0.75116,1.67955 -3.24714,1.47427 -4.29101,3.04493 -2.14919,0.0442 -1.97171,1.49763 -3.65821,2.04687 -2.55867,1.72328 -5.33605,3.16656 -7.93555,4.82422 2.84322,0.23981 5.68437,-0.39166 8.5254,-0.53906 1.79836,-1.25885 2.29616,0.31105 4.17578,-0.83203 1.41885,0.56969 3.14266,-1.17142 4.49023,-0.0449 2.37811,-1.52267 3.64706,0.16248 5.92578,-1.64062 1.05033,0.49882 2.95781,0.26697 4.24805,-1.01172 0.69716,1.94185 2.97409,-0.18125 4.61719,-0.57617 0.0411,2.56433 4.11554,-2.22462 4.6875,-0.21289 2.3111,-0.37255 4.32245,-1.44405 6.4414,-1.0918 2.29951,-2.10754 4.63726,-0.40691 7.03125,-2.32226 1.40965,1.31493 3.92182,-0.57074 5.81446,-0.80469 -0.49044,1.19165 -0.10635,0.78713 1.09179,0.11328 1.42231,0.40339 4.12094,-3.11023 3.95313,-1.36133 0.46533,0.077 3.59798,-2.38315 5.19336,-2.00195 -2.221,2.19046 0.89823,0.29889 1.49804,-1.05078 0.74045,1.14107 4.59896,-2.70813 3.40625,-0.56446 0.93298,-0.30001 4.69041,-3.9182 4.96289,-2.17187 0.71581,0.19234 3.6779,-2.74634 5.37891,-3.0332 -1.7187,2.94557 0.89075,-0.21509 1.8125,-1.10547 0.46417,1.47216 2.03047,-0.84477 3.05469,-0.875 0.0387,1.42023 0.25606,1.28023 1.23242,0.16992 1.3081,0.20651 4.43365,-3.75269 3.92383,-1.32227 1.33372,-0.65253 3.60267,-1.67826 5.19336,-2.56445 -0.19801,1.15801 -1.61822,1.49991 0.87109,0.57813 1.83988,0.0394 4.22875,-2.90163 5.27149,-1.89454 -2.70683,1.63968 0.6883,0.33444 1.7539,0.004 3.54864,-0.65208 5.7398,-3.71782 7.76563,-6.41406 0.0799,0.83376 1.65351,2.27903 2.18359,3.63672 1.95878,2.01777 -1.79323,3.3374 -3.32031,1.88867 -0.14797,0.32772 -0.6738,2.59643 -2.05469,3.13672 -1.83851,1.64734 -4.42808,3.21146 -6.44922,3.6582 -1.58865,1.27185 -4.3603,0.60347 -5.99219,2.10742 -3.62609,1.6043 5.39893,0.0801 1.0586,1.05469 -4.16017,0.49686 -8.16562,1.78481 -11.8457,3.77734 -2.52855,0.9416 -4.86834,2.00734 -7.38868,2.96485 -2.4051,1.21304 -4.69284,2.86439 -7.47461,3.29492 -1.53475,2.21325 -4.72801,2.64816 -6.94531,4.22656 -2.51002,0.0695 -4.04559,1.4969 -6.4375,2.01953 -1.32177,1.4648 -3.96582,1.49139 -4.99219,2.97852 -2.46425,0.90183 -4.5068,2.69052 -7.24023,2.66406 -1.31248,1.83258 -4.26938,1.38606 -5.12109,3.48438 -2.48954,-0.25221 -2.53881,1.55622 -4.77735,1.66015 -1.76855,1.07293 -3.99606,2.20245 -6.26953,3 -1.01506,1.07898 -3.08605,1.26553 -3.57617,2.61524 -2.8534,1.34827 -4.87476,3.89118 -7.55469,5.49804 0.52799,0.50979 4.34112,-0.82214 6.06641,-1.17968 2.36183,-1.37311 4.14403,-0.0822 6.25195,-1.41602 1.24997,0.75901 2.88152,-0.35984 4.64063,-0.15234 2.46568,-1.126 4.20507,0.2077 6.41796,-1.73242 0.91352,0.70542 2.73907,0.18877 4.29688,-0.59571 0.8485,1.72551 5.55314,-2.83573 4.12305,0.0195 2.33896,-0.55494 4.26432,-2.01922 6.33007,-2.08008 1.5806,-1.92992 3.29923,-1.45661 5.28126,-2.18164 1.38426,-1.7755 2.04731,-0.45498 3.66601,-1.09765 2.28616,-1.72294 4.78971,-1.23507 7.3418,-2.37695 2.17334,0.19557 4.65668,-0.64243 6.92383,-1.51758 0.74691,-0.1186 4.5154,-2.04523 2.72851,-0.63282 0.85939,0.88589 4.20605,-2.8372 4.96094,-1.51757 -2.41115,1.93829 1.35121,-0.23659 2.01758,-1.00977 0.51447,1.91271 3.90288,-2.68017 3.48633,-0.17578 0.70096,-0.0191 3.99361,-1.81486 4.95312,-3.25195 1.03,1.08242 3.43363,-0.30045 5.02148,-1.1875 1.78674,-1.43059 0.37314,1.14143 1.63868,0.17187 2.15285,0.0761 5.15931,-3.67433 6.32031,-1.48633 2.27732,-1.44737 5.71822,-1.18792 7.44531,-3.28125 1.47927,-2.21291 0.41265,0.28709 -0.17578,1.28711 -0.75636,2.41161 -0.93611,5.14037 -2.60742,7.23438 -1.36819,1.55236 0.19766,-0.49508 -0.9043,0.22851 -2.37025,1.51839 -4.62233,3.24067 -7.47851,3.72657 -1.18912,1.03381 -4.23586,0.73153 -6.13477,1.01953 -0.1045,0.91226 -1.75494,1.41361 -3.23633,1.72656 -2.34202,0.33868 4.07053,-1.5227 1.94727,-1.14063 -1.94903,-0.37942 -5.56625,0.20453 -5.70117,2.18946 3.09641,-0.39515 -0.66171,0.88192 -1.85547,0.85547 -1.28402,1.59961 -4.10815,1.48423 -5.46485,3.11328 -3.00979,-0.12015 -3.57195,2.27521 -6.33789,2.9082 -1.98954,1.63695 -4.30557,3.15507 -6.70508,3.97266 -2.16423,1.06586 -4.18814,2.31588 -6.65625,3.09375 -2.18347,0.81108 -4.50605,1.9691 -6.26171,3.05859 -3.00545,0.54947 -5.03075,2.7213 -8.17774,2.87891 0.41174,1.7074 -2.29962,1.56474 -3.74219,2.01367 -0.23886,2.19987 -3.15508,1.12861 -4.23632,2.54687 -2.53913,0.25183 -3.59439,1.72793 -5.69532,2.69141 -2.20792,-0.22681 -0.60737,1.28738 -2.16015,1.40039 -2.76099,-0.40978 -3.0351,1.61122 -5.73047,1.38672 -0.1273,1.63306 -3.04791,0.41971 -3.82422,1.79101 -3.22576,0.35649 -6.21627,2.44147 -9.50781,1.85938 0.95494,1.19055 2.97196,1.7711 4.48242,2.39062 1.01074,0.82515 4.1942,0.35859 3.79297,1.39063 2.57855,-0.9541 4.30123,0.9033 6.73828,-0.22266 0.79604,1.42148 2.91786,-1.62923 3.64062,-0.28515 2.39078,-1.05241 4.42689,0.16833 6.76563,-1.1211 1.42481,1.11258 3.29028,0.0332 4.91211,-0.85156 0.55907,1.93092 3.27504,-0.81533 4.85156,-1.0039 1.595,1.76063 4.05507,-2.83572 5.62891,-1.39258 2.02647,-0.72031 3.5764,-1.58894 5.66406,-1.46875 1.65158,-1.35882 2.95205,-0.98369 4.86328,-1.34766 1.45897,-1.69334 2.5045,-0.27943 4.40039,-1.16992 1.69954,-0.98151 2.3773,-0.1925 3.52344,-0.94727 1.39079,0.62344 3.21326,-2.41412 3.81836,-0.99218 1.60093,0.0354 4.76138,-1.66457 6.88672,-1.97071 1.34271,0.3083 5.34416,-3.85984 3.52148,-0.73633 1.27385,-0.76308 2.25539,-3.37642 4.34766,-2.55664 2.25774,-1.43591 4.39318,-1.30963 6.38476,-3.08007 0.46386,1.50512 2.95874,-1.026 1.70117,-0.9043 1.84971,-0.81237 4.57785,-0.33129 6.50586,-2.14063 1.30542,-2.34455 3.11371,-0.73492 5.2129,-1.72656 2.45757,-1.64783 5.63093,-0.96772 8.11132,-1.93555 2.74749,-1.24233 -2.28397,0.84996 -0.34961,1.86915 -8.3e-4,1.89337 0.88776,1.69599 1.02344,-0.0742 0.88974,-2.71677 2.15769,-5.22521 3.3457,-7.83985 2.29671,-0.0817 -0.26987,-3.06182 2.46289,-3.14648 2.48387,1.32899 3.13128,4.65498 3.98829,7.20703 0.18066,0.698 1.37919,5.47793 0.30664,3.19336 -0.92194,-3.04097 -4.48757,-3.45128 -6.03321,-5.80078 0.84507,-2.15853 -1.28414,-0.34017 -0.41992,0.5332 1.78658,1.02161 0.7213,0.78915 -0.50976,0.0312 -0.63311,1.30647 -1.30955,3.22359 -2.35743,4.60742 -0.22612,1.05959 -2.74989,6.08589 -1.63281,3.36524 0.0472,-0.0843 -2.55307,2.11762 -3.80859,2.07226 -2.85419,0.3495 -4.78833,1.87196 -6.9043,3.35742 -2.87066,0.58198 -5.77047,1.09337 -8.2207,2.8086 -2.276,1.43187 -4.56567,2.85951 -7.20117,3.56836 -2.48395,1.36157 -5.16111,2.66841 -7.03711,4.56445 -2.29183,0.92277 -4.01685,2.38475 -6.01758,3.64258 -2.61373,0.95274 -5.11253,2.15748 -7.64844,3.27539 -2.38477,0.80447 -3.93921,2.34806 -6.32617,2.88086 -0.73735,1.8367 -3.35489,1.18614 -4.60156,2.64258 -2.38277,0.31706 -3.45054,2.33818 -5.5625,3.16015 -1.73265,1.79456 -3.78,3.57658 -6.03907,4.93555 -1.7656,2.14326 -3.9447,4.10943 -6.03515,6.01367 -3.33585,2.85853 -5.91782,6.50643 -9.40625,9.17969 2.43844,-0.80693 4.95139,-2.97592 7.52344,-4.09375 2.42033,-1.76512 5.53312,-1.84599 7.99023,-3.50195 1.2669,0.81471 3.52265,-1.30852 5.39062,-0.92188 2.19527,-1.54042 4.50215,-0.008 6.60743,-2.13086 1.32412,0.60076 3.00052,0.0158 4.42578,-1.06445 0.98834,0.87118 1.91709,0.0605 2.87305,-0.95117 -0.3834,1.63419 1.83439,-0.28293 2.68554,0.53515 2.54026,-0.7347 5.05479,-1.54693 7,-3.0957 -1.90106,1.81089 0.94359,0.83336 1.73438,-0.21289 0.70987,1.53827 1.59958,-0.21312 2.52148,-1.0332 1.03945,-1.23738 1.81174,-0.99977 0.29297,0.1875 -2.25369,2.81503 3.21963,-2.56237 2.18555,0.41015 0.6607,-0.26404 2.9984,-2.14178 4.61914,-2.52344 -1.09021,2.36678 0.94012,-0.0493 1.83398,-0.93164 -0.55986,1.87253 1.86815,-0.46645 2.75196,-0.63086 -0.85905,2.07202 1.1481,-0.25952 1.92578,-1.10156 1.08669,1.61072 2.30312,-1.69735 3.3457,-1.21289 -1.24373,2.42472 0.29309,0.84697 1.24609,-0.10547 1.29264,-0.21089 4.91662,-4.57007 4.02344,-1.27734 0.96824,-1.73053 3.1466,-3.09811 4.50391,-4.8125 1.59174,0.49655 1.18578,-1.18719 2.52343,-2.13672 2.36451,-1.12494 0.95858,1.76993 0.0762,2.25 2.365,-1.27956 5.40813,-2.36304 7.8457,-2.74023 0.0255,2.76756 6.04881,-0.36301 2.7793,0.0976 0.55392,-1.26829 2.1627,-0.70426 2.32031,0.35352 -1.56295,0.66546 -2.36694,1.82975 -3.7168,2.70312 -1.22827,1.57826 -2.33317,3.83148 -4.83008,4.36719 -2.53054,1.48127 -4.81402,3.34876 -7.26757,4.86523 -2.70361,1.09017 -4.91327,3.10083 -7.57032,4.52344 -2.4638,1.01859 -3.61055,2.76751 -6.11328,3.83594 -2.71805,1.05403 -5.4104,2.35832 -7.46484,4.39258 -2.47684,0.61856 -3.39726,2.69976 -5.98242,2.89062 -0.92364,1.49651 -3.7579,1.14499 -4.31836,2.94336 -2.29728,0.5836 -4.05499,2.20918 -6.36133,2.54102 -1.1644,1.48728 -3.75216,1.27113 -4.4375,3.05469 -2.18317,0.79702 -3.08365,2.02705 -5.30469,2.64062 1.2059,1.81878 -3.58272,1.48695 -2.01758,2.41992 -2.20913,0.65707 -2.78947,2.20222 -3.88867,4.31641 -1.94801,3.38192 2.37756,3.71826 4.20508,2.07617 0.31752,0.97323 1.10057,0.6359 2.18945,0.12109 1.24135,1.00468 4.51681,-2.10446 4.04297,-0.37109 2.22516,-0.92202 4.23906,-0.63444 6.47461,-1.36328 1.5995,-1.42817 1.12772,0.9775 2.65234,0.0644 2.26859,-1.84777 4.5147,-0.21127 6.74024,-2.19726 1.03374,-0.0942 2.39864,0.8754 3.71875,-0.52344 2.18479,-1.1153 4.87104,-0.62059 6.76953,-2.74805 0.50358,1.84558 2.49487,-0.99204 4.04687,-1.2207 1.90965,1.13303 4.01609,-4.53914 4.11133,-1.67773 0.8942,0.8577 4.34474,-0.83735 5.44727,-2.03516 -0.17866,2.02205 0.77739,0.3025 1.89258,-0.0547 0.87571,0.0372 3.87945,-3.42935 3.32031,-1.39453 0.8815,0.36064 4.02688,-3.61065 5.77344,-4.29883 -0.97996,2.16253 0.75836,0.3216 1.71484,-0.26562 0.90796,-0.45869 3.86576,-3.70402 3.86523,-2.08789 0.29054,0.75326 3.33298,-1.20055 4.52149,-1.53125 1.59141,-1.46691 2.60384,0.63792 0.86719,1.33789 2.61165,-0.98903 5.17208,-2.37924 7.23242,-4.3125 2.53795,-1.64073 1.2682,-6.02034 4.95898,-6.26563 3.50922,-1.05838 3.83686,3.93555 4.61328,6.25977 -0.88384,0.53552 -2.67629,-2.77812 -3.05273,-4.1211 0.0944,-2.91484 -4.9184,-0.70214 -3.38867,-0.0508 0.86664,0.23619 1.4567,2.55493 2.55469,3.4043 1.57972,1.61737 -1.55131,1.56834 -0.85743,2.32617 2.71378,1.23175 -1.06245,0.14793 -1.88476,-0.0996 0.12072,2.08381 -1.75278,4.06287 -2.99024,5.89258 -0.75911,0.16267 1.57925,-3.02641 2.24414,-4.02148 1.11572,-2.26591 -1.62509,-2.4602 -2.1621,-0.31055 -1.9355,1.88572 -3.11716,4.85437 -5.8379,5.69531 -2.62696,1.32216 -5.32512,2.75286 -8.24023,3.48828 -2.83517,0.49255 -5.18645,1.83589 -8.01758,2.38086 -2.08554,0.48238 -2.67956,2.54612 -4.60742,3.26563 -2.16378,0.24064 0.31414,1.36681 -1.33789,1.71679 2.07095,-0.1257 4.43897,-1.14531 5.95312,-1.27343 -2.81529,-0.2374 0.36718,-1.35546 1.78125,-1.61133 2.14954,0.19593 2.53957,-1.72932 4.02735,-1.8457 1.57323,1.56198 -3.884,1.44774 -4.17578,2.89843 -1.52735,1.61065 -4.32006,2.47772 -6.51563,3.45703 -0.7073,1.60929 -2.5655,1.83468 -4.3164,2.90625 -2.12973,1.68087 -4.47168,3.45541 -7.16407,4.24219 -1.911,1.52757 -4.22065,2.69293 -6.60156,3.35352 -2.57435,0.60926 -5.14863,1.61852 -7.52539,2.41797 -2.23612,0.53896 -4.10517,2.07716 -6.53125,2.00195 -0.36193,2.10886 -3.71881,-0.0513 -4.04688,1.72851 -2.5371,-0.40448 -3.12948,1.30995 -5.58398,1.11719 -1.45296,1.32087 -4.63745,2.74048 -7.19336,3.03906 2.89535,-0.0644 5.26863,2.1734 8.13672,1.89258 0.78282,1.03903 2.00822,0.72503 3.41602,0.6211 -0.78853,1.56415 2.62705,0.0512 3.67382,0.47461 1.79248,1.53894 5.4003,-0.44547 7.81836,0.36914 2.50349,0.18871 5.30062,-1.27505 7.49414,-0.25586 2.7498,-1.19777 5.97642,-0.12391 8.45704,-1.92383 0.70845,2.41534 3.85405,-2.00636 4.82421,-0.71289 -0.98426,2.70572 2.74633,-2.13917 1.95508,-0.54492 -1.63714,2.57869 3.50669,-2.24906 2.53516,0.0351 0.12892,0.82738 2.75431,-1.85058 3.95117,-2.01953 0.91911,1.33799 2.94055,-0.26839 4.4668,-0.82617 1.41721,-1.39752 2.53796,-0.35957 0.96484,1.06055 1.2649,-1.20499 4.04426,-2.72478 5.84766,-4.13477 0.18221,1.65283 1.00582,0.13331 1.77148,-0.58008 1.42889,-2.61981 4.65517,-2.56156 6.79688,-4.26953 1.23352,-1.44295 2.49338,-0.40781 0.73828,0.72461 1.204,-0.61886 3.27384,-1.99027 4.99023,-2.44922 2.13906,-1.1698 0.38497,1.46003 0.4375,1.64258 2.31598,-1.86263 5.79941,-1.98396 7.46875,-4.70117 1.79785,-1.19361 1.31208,-5.39106 3.72852,-4.94727 -3.52256,1.95228 1.4385,3.90527 1.88086,6.22461 -1.20631,1.36086 -0.10488,2.72117 1.15234,3.89649 1.75865,1.78476 0.0406,0.26229 -1.14453,-0.47657 -1.51767,-0.75382 -4.43577,-2.17172 -5.49805,-2.05078 0.0927,2.35401 -0.19825,0.23195 -1.02929,-0.0937 -2.36799,1.77128 -4.1907,4.25088 -6.41211,6.24024 -1.91728,2.31371 -5.34252,2.30432 -7.25586,4.56054 -1.58899,1.37991 -4.4485,1.67833 -5.73242,3.62305 -0.24885,1.51181 -1.38747,-0.16935 -1.31641,1.39258 2.25067,0.8925 4.85318,-1.00428 7.07422,-1.7168 2.94179,-1.62629 -0.29971,0.94738 -1.54102,1.20703 -2.24258,1.48914 -4.98946,2.10354 -7.07617,3.81446 -2.24152,1.39612 -4.47246,2.74573 -6.6582,4.23437 -2.75698,1.25813 -5.35712,2.85548 -8.29492,3.70508 -2.52428,0.60412 -4.82518,1.50952 -6.9043,2.95508 -2.00066,1.02387 -3.02594,2.29997 -5.07422,3.2207 -0.32345,1.4321 -3.23754,0.97285 -3.33203,2.39063 -1.65869,0.67971 -2.83476,1.31372 -3.82031,2.67382 -2.46728,1.6139 -4.23869,4.10435 -6.22657,6.28907 -3.13217,2.47438 2.05144,-0.17233 3.37696,-0.23243 2.60228,-1.23371 4.8846,-0.39401 7.18554,-1.83593 -0.26279,1.90265 2.3618,-0.26456 3.31836,0.57226 1.96747,0.0605 4.90042,-0.0355 7.02149,-0.85351 0.85489,-0.12745 2.42231,0.88736 3.58398,-0.55078 0.63704,1.36856 2.31133,0.18342 3.38086,-0.59766 1.04209,0.60465 2.43399,0.1792 3.92774,-0.81055 1.46084,0.22772 3.26135,0.001 4.66015,-1.59765 1.05343,1.61257 2.94458,-0.62909 4.63867,-1.23438 0.22247,2.16892 2.36225,-1.1846 3.91602,-1.62695 1.06155,1.50058 3.19381,-2.79173 5.125,-1.76563 -0.0132,1.2672 5.5013,-4.13834 4.4414,-1.25781 1.58484,-0.73425 3.88556,-2.68383 5.91993,-3.06836 -0.97867,1.35511 0.6618,0.41055 1.45312,0.16602 1.10177,0.16021 4.50893,-3.02633 3.79297,-0.71485 0.94643,-0.0364 5.20264,-1.79499 6.44531,-3.73632 1.58903,-1.29952 1.9921,-5.00701 3.03321,-5.53516 1.49865,2.00549 -1.24566,0.82028 -0.32032,2.52734 1.82597,1.34555 1.3691,4.89671 3.84571,5.07813 1.77418,-2.28356 0.76702,1.39699 -0.64649,1.41211 -0.31899,-1.54349 -2.13455,-2.10642 -1.06445,-0.0469 -1.09145,1.56692 0.9852,2.5295 1.92773,3.81836 1.32771,2.99051 -0.41797,-0.23472 -1.50976,-0.93359 -2.14243,-2.13872 -5.07851,-2.51356 -7.90235,-2.94922 -0.55993,0.67457 -1.09741,2.62084 -2.16796,3.63867 -1.66001,1.96263 -1.98046,5.06002 -4.05274,6.51563 -1.90783,1.79406 -4.96457,1.86307 -5.58203,4.77539 -2.33681,0.78149 -2.26194,3.46151 -4.50195,3.17578 -2.93084,1.86463 1.40109,0.52527 2.71289,-0.0254 1.8641,-1.49443 3.7073,-2.76173 6.03515,-3.89453 2.24043,-2.13136 0.27645,0.0455 -0.66601,0.98046 -2.35011,0.46402 -2.35113,2.25877 -4.2793,3.21094 -2.38208,1.0489 -3.94449,2.97174 -6.74414,3.11914 -0.98491,1.11738 -3.1875,1.67209 -4.92578,2.75391 -2.4765,1.31093 -4.17087,2.76027 -6.26367,4.58008 -0.93324,1.61529 -2.90438,1.90982 -4.31055,3.28515 -2.40408,0.48412 -3.18177,2.44334 -5.42383,2.84571 -1.13389,1.31935 -3.21303,1.37412 -4.58398,2.39648 -1.83942,1.25288 -3.77052,2.39871 -5.75195,3.55273 -0.60205,1.57913 -3.99388,1.08925 -3.51172,2.72461 -1.28504,0.92746 -2.63995,1.58919 -3.64844,2.75782 -2.14806,1.40209 -3.44498,4.08392 -5.70117,5.62109 2.42388,-0.67423 5.16871,-1.43901 7.45117,-1.89062 2.38783,-0.0761 5.15726,-1.5827 7.65625,-0.83008 2.474,-0.23176 5.24081,-0.83904 7.62891,-0.38867 2.5851,-0.51829 5.17635,-1.18733 7.72851,-1.26368 2.47601,-1.07176 4.67954,-0.12453 6.83984,-1.87695 1.72113,0.41012 3.30028,-0.81467 5.00586,-1.94726 1.8838,1.3117 3.94032,-2.92206 5.55274,-1.38477 1.6933,-0.30142 3.87387,-2.98536 5.17187,-2.21094 1.17631,0.16173 3.90679,-2.69367 5.80664,-3.08984 -0.40278,1.58226 0.21858,0.96883 1.21875,0.01 1.58786,-0.59546 3.15806,-3.80248 4.625,-2.59961 1.17056,-0.17635 3.29347,-2.98413 4.85547,-3.84375 -0.65469,2.04257 2.01922,-0.55607 3.07813,-0.88867 2.45053,-1.28394 3.13424,-4.41295 4.30469,-6.75195 -0.24004,-2.34539 1.28769,-1.40066 1.39843,0.16406 -1.53135,-0.57154 -1.54399,1.57935 -0.70312,2.44531 1.98735,0.93052 0.22445,5.35977 2.13867,4.96485 0.10465,0.5224 -2.01724,3.15463 -3.09766,4.39844 1.24063,-0.88056 2.48513,-1.76013 3.65039,-2.74024 1.25469,-1.41645 0.33697,1.72809 0.82422,2.32813 1.57289,2.62526 0.79732,5.33761 1.33594,8.08007 0.55994,0.94239 4.20799,5.32531 1.56641,2.5918 -2.16855,-1.97949 -4.35058,-4.07974 -7.00782,-5.4082 -2.57797,-1.50482 -5.55836,-1.13967 -8.35351,-0.67774 -2.05516,-0.84404 -1.00326,0.34718 -0.65821,1.625 0.46455,1.97643 -0.51844,1.45938 -0.45117,-0.21484 -0.73546,0.39897 -3.08477,4.71775 -1.3164,6.27344 1.8088,0.64505 1.85562,-0.32707 1.66211,-1.69531 1.10728,0.44796 1.3927,3.83932 1.03515,5.41992 -1.37197,2.05923 -1.87808,4.41303 -3.4707,6.28125 -1.05732,2.48451 -2.51964,4.75246 -3.71484,7.17578 -0.97474,2.71755 -2.12988,5.40419 -3.16993,8.11328 -0.8047,2.76026 -2.45926,5.09636 -3.86328,7.56836 -1.4852,2.20445 -2.02391,4.84117 -3.48047,7.00586 0.17802,2.32921 -2.66457,5.36772 -1.3457,7.17187 -0.52286,2.38946 -1.12129,4.69305 -0.8125,7.10938 -0.53359,2.1888 -1.12531,4.89851 -0.0879,7.03515 -0.80436,2.83412 0.81586,0.23347 1.61523,-0.70117 2.05731,-1.69028 3.48443,-3.8816 4.97266,-6.01953 1.32367,-2.50295 2.92797,-4.73877 3.77149,-7.45508 0.62186,-2.78354 2.96995,-5.12034 3.32031,-7.9082 0.52596,-0.99987 0.94574,-2.36317 -0.49414,-3.70313 0.61731,-1.60163 1.71307,-3.84793 3.29492,-5.08203 1.63393,-2.14579 3.94069,-4.02122 6.56055,-4.6914 1.78465,1.52353 3.74294,-2.50857 4.06836,0.17773 1.15243,-0.32311 2.67434,-2.23072 3.42968,-3.5664 1.91789,0.78806 2.42218,-2.69696 4.00977,-3.61914 0.3453,2.35182 1.14023,1.62761 2.26562,0.0312 1.57554,-1.86287 0.83091,-0.25399 1.57227,0.93165 0.69006,2.50389 3.30088,4.50627 2.9043,7.29492 0.14751,2.45087 2.66286,4.9295 1.16601,7.24023 0.9481,0.56583 0.7284,1.97265 -0.66601,2.77735 -2.47491,0.0645 -1.62386,0.85442 -0.0723,1.67382 1.07546,-0.2155 4.36702,1.08551 3.37305,1.52344 -2.67927,-1.02977 -5.47639,-1.84249 -8.30469,-2.37109 -2.60156,-0.10768 -5.61405,-0.39002 -7.82617,1.16015 -4.04187,0.0796 -0.40515,3.31858 1.15625,4.64844 1.58241,1.19894 4.05763,3.40932 1.55664,5.06445 -2.11011,2.19942 -1.85643,5.30063 -3.37695,7.81836 1.48295,1.82366 -2.35949,3.15652 -1.41797,4.16993 -0.67934,1.87562 0.23756,3.84465 -1.6211,5.21484 0.21169,1.64844 -0.9707,8.02734 -0.9707,8.02734 l 20.5918,-0.22656 c 0,0 2.19561,0.74714 1.80273,-1.3457 1.2559,-0.9303 -0.10569,-4.84471 1.74024,-3.65235 1.4509,1.28096 -0.10038,-2.73654 0.77734,-3.56445 0.91415,1.77717 1.44593,-0.1504 1.69726,-1.32617 0.28525,-2.55651 2.71162,1.31533 1.17188,0.44922 -0.7341,1.56631 0.97852,9.62695 0.97852,9.62695 l 8.95117,-0.45703 c 0,0 -1.52275,-6.21674 -2.25,-9.18359 -1.83765,-2.59291 -0.90822,1.03206 -0.64063,2.21093 -0.67366,-0.44976 -1.11115,-4.96358 -2.73828,-6.42773 -1.51113,-3.2143 1.7585,1.25368 2.08203,2.19531 2.14008,1.96483 5.42064,2.10506 7.42969,4.31445 -1.58067,-1.88832 -0.93655,-3.24704 -0.19531,-5.21875 1.50206,0.61777 0.65514,-1.18953 0.82031,-2.19726 1.2994,-0.19427 3.43312,-0.33356 4.86133,0.33984 1.36758,0.90558 1.48002,0.86503 0.49609,-0.68945 0.81234,-1.29067 3.81227,0.089 5.3457,0.6543 -1.15676,-2.80468 2.00106,-0.71394 3.46094,-1.19727 0.67276,-2.04748 3.33945,0.10927 5.17188,-1.19531 -0.0494,-2.52272 2.06565,-0.19308 3.47265,-0.67969 2.27467,0.53768 1.07109,-2.39792 3.25782,-1.40039 2.34973,0.3555 1.86223,-2.77941 3.83593,-1.83789 1.20068,-1.89661 3.2949,-0.12388 5.07422,-0.87695 1.52134,-2.01581 4.51347,-0.25541 6.1211,-2.66407 2.30464,-0.3411 3.42277,-2.61981 5.78906,-2.82617 0.40456,-2.22508 3.12785,-0.46259 4.02734,-2.43555 2.88578,-0.89886 4.4711,-3.6396 7.03906,-5.08398 2.69639,-2.5957 6.60068,-3.49288 9.57422,-5.49414 -2.58837,0.4077 -5.02682,1.51566 -7.61523,1.97461 -2.81632,0.92538 -5.68031,0.0845 -8.50195,0.66601 -2.73215,0.1849 -5.42433,-0.25238 -8.05469,0.45704 -1.38452,-0.99247 -3.63621,0.17116 -4.72656,-1.24805 -2.04424,0.61984 -3.91785,0.22526 -5.95313,0.33789 -2.8402,0.67918 -5.64243,0.0253 -8.4668,0.30273 -2.47525,-1.29036 -5.5516,0.33013 -8.2207,0.26172 -2.67239,-0.77877 -5.90204,-0.48541 -8.78125,-0.30664 -2.50261,-0.49595 -6.53025,0.56152 -7.46875,-2.58593 -0.38328,-3.08754 -2.71998,-4.97509 -4.17578,-7.48243 -1.44367,0.61988 -4.18039,1.93524 -4.9375,3.77149 -1.34634,2.8278 -1.58161,5.93419 -2.0293,8.98828 -0.44148,1.20642 0.16565,6.56691 -0.83789,3.18359 -0.22703,-2.64064 -1.34362,-4.95251 -1.33984,-7.56836 -0.6426,-2.39966 -0.0585,-5.27768 0.53515,-7.39257 -0.68477,1.81048 -4.77171,-0.93887 -1.8125,-0.82813 -1.1227,-0.85565 -2.44594,-3.19337 -2.46484,-5.20703 -0.45509,-3.32187 -1.68127,0.95521 -0.76953,2.14062 -0.51058,-0.20965 -1.19088,-3.97255 -0.58203,-5.48632 -1.316,-1.93093 0.74157,-2.70093 1.49219,-0.68164 1.80351,2.50463 3.87118,4.54734 7.01367,5.00976 0.60589,-2.25184 3.99027,-0.76913 5.76562,-0.17578 1.83409,1.67059 -0.49669,-1.57377 1.56055,-0.79492 1.07887,0.0854 5.36249,1.99024 3.83008,-0.0371 1.43202,-0.9656 3.96748,1.98414 5.41406,0.43359 0.89367,-0.0643 4.29031,1.52039 3.64844,0.19922 0.0894,-1.22468 3.26761,0.0822 4.45703,0.46094 -0.85852,-1.46653 1.23912,-1.13246 2.66211,-0.73047 -1.19675,-1.57493 1.28609,-0.9362 2.69922,-0.71094 -0.0475,-1.27574 1.28257,-0.85283 2.34961,-0.89062 0.88546,-1.68616 2.71741,-0.88341 4.42968,-1.42774 0.41326,-1.38077 1.59208,-1.22484 2.92383,-1.33593 -0.33997,-1.99624 2.61102,-0.7621 2.96289,-2.4043 1.24573,-1.18454 2.65215,-2.37188 4.16797,-3.47656 2.17417,-2.31942 4.52497,-4.61916 6.00586,-7.50196 -0.8711,0.72356 -2.98144,2.37173 -4.8418,2.39063 -2.81045,0.61183 -5.46829,-0.43648 -8.26171,-0.33594 -2.35624,-0.90716 -4.82828,-1.2972 -7.42383,-1.3418 -0.69203,-2.12129 -3.72963,0.67424 -4.28125,-1.17187 -1.68745,0.0633 -2.56434,-1.50928 -4.21875,-1.57617 -2.78071,-0.69385 -5.41074,-1.06555 -7.9375,-2.04883 -0.96813,-0.71584 -2.37081,-0.96646 -3.64258,-1.1543 -2.4271,0.14306 -5.07926,-0.80093 -7.66797,-0.5957 -1.23851,-2.56502 -4.95969,0.007 -6.42188,-2.51758 -0.98817,-2.2187 -2.88664,-3.8763 -4.2207,-5.94336 -0.59731,-0.79359 -3.45951,1.64566 -4.00195,2.94336 -1.81391,3.92406 -1.56899,8.33198 -1.23828,12.5293 -1.24143,-1.24358 -1.68528,-4.70059 -1.91016,-6.87696 -0.48253,-2.6513 -1.98807,-5.30596 -1.56641,-8.11328 0.24953,-2.14552 -2.36336,-4.05897 -3.27343,-5.30468 1.72463,-2.2207 -0.78463,-3.71691 -0.64063,-6.07227 0.0157,-3.19502 2.19954,1.09161 2.57032,2.08789 1.50415,2.48538 4.63237,3.17844 7.30468,3.22266 0.3535,-1.31566 2.88615,-1.47009 4.9043,-0.91797 0.16161,-1.50025 1.57096,-0.83376 2.93359,-0.375 1.57391,-1.04081 3.95863,0.0839 5.66993,0.91211 -1.43301,-2.25064 2.7923,-0.63661 3.80468,-0.24414 0.0435,-0.42286 0.94865,-2.32373 3.47852,-1.10547 -0.90044,-1.54462 2.25202,-0.6372 3.74414,-0.52344 -1.968,-2.2478 3.59855,0.55077 2.74805,-1.67187 2.32834,-0.0432 2.42784,-1.88591 4.56835,-1.91993 1.15869,-1.54605 1.91496,-3.07758 2.72461,-4.83593 1.28969,-2.43958 1.72917,-5.39057 2.28907,-8.15235 0.97417,-2.93726 -2.20524,-0.40353 -3.19336,-1.28125 -2.36119,1.16338 -4.79202,-0.12323 -7.21485,0.20899 -0.78686,-1.3688 -2.72397,0.2489 -3.36328,-0.86719 -2.19723,-0.0398 -4.3391,-1.37538 -6.35351,-1.38672 -1.94824,-1.07758 -4.76987,0.18571 -6.69532,-1.10742 -2.82179,0.63828 -4.67917,-0.80321 -7.35742,0.55859 -1.52247,-0.40637 -3.17254,-0.26027 -4.96094,-0.58984 -1.85667,-1.93701 -3.73283,-3.62116 -5.33789,-5.75391 -0.57097,-2.3026 -0.45375,-0.23943 -1.43945,0.81446 -3.554,3.21238 -3.76331,8.3845 -3.27734,12.83203 -0.48144,0.99923 -1.22718,-3.06362 -1.47852,-3.92774 1.12982,-1.06511 -0.33691,-6.15555 -0.77734,-2.59765 -0.0918,3.1121 -0.49473,0.28712 -0.25586,-1.15821 0.79495,-2.5714 -2.28393,-0.89775 -1.44922,-3.27734 0.73236,-2.18306 0.26362,0.79836 1.05078,0.98242 0.82424,-2.24723 -1.12011,-4.84028 -2.63086,-6.30273 0.984,-0.39598 -0.89455,-2.88579 0.66016,-3.62696 0.3603,1.14286 2.81567,1.56809 4.08008,3.25391 1.2102,1.9361 3.69306,0.82887 4.88086,1.48828 -0.41515,-2.77425 3.32423,0.35328 4.48046,-1.09961 0.47275,-1.05562 3.26546,0.26253 4.51758,0.25977 0.55389,-1.20306 2.2243,-0.38522 3.61524,-0.11914 0.49179,-1.72517 3.59507,0.29055 3.57617,-1.75977 2.80773,0.76755 3.51043,-1.40977 6.21094,-1.16602 0.70563,-1.22473 1.60968,-1.52618 3.24414,-1.42187 0.99481,-2.12666 4.26604,-1.76578 4.93554,-4.25781 2.44097,-1.53423 4.01898,-4.14768 6.3711,-5.84571 1.695,-2.42422 3.70318,-4.65535 5.07031,-7.33398 1.04031,-2.61502 3.3297,-4.80535 3.31836,-7.75977 0.11134,-3.06614 -0.38727,0.46957 -0.63672,1.49414 -0.84752,2.73563 -3.14189,4.65376 -5.63672,5.86329 -2.41304,1.15389 -4.76055,1.51973 -7.36914,1.90429 -2.62877,1.25685 -4.62399,-0.46025 -7.15234,0.8418 -0.9024,-0.82477 -2.4604,-0.73202 -4.14063,-0.17188 -1.15559,-1.25912 -4.3109,0.65864 -4.80273,-0.64843 -2.42317,1.07554 -3.36558,-0.5821 -5.60352,0.19531 -1.84214,-0.95497 -3.1591,0.66607 -4.53515,2.09375 -1.60313,1.90435 -4.58013,-0.21034 -3.58789,-1.93555 -0.73085,-0.85198 -4.1895,0.57926 -5.53516,-0.94336 -0.44009,-1.19108 -3.93657,-4.86498 -0.77148,-3.55273 -2.33711,-2.28367 2.49683,-1.52968 3.83789,-2.02344 -1.09686,-1.47972 2.66245,0.0193 3.61523,0.30469 0.30403,-1.1339 2.12571,0.0434 3.25586,0.87109 -0.55744,-1.10449 1.20397,-1.47397 2.92187,0.11328 -0.67071,-2.17133 2.52225,-0.0415 3.61915,-0.48242 -0.49025,-2.01267 1.77952,-0.87188 2.89648,-0.73242 0.82477,-1.30435 2.42673,-0.58292 4.12695,-0.60937 0.79359,-2.12599 3.61386,-0.007 4.67969,-2.29688 2.73619,0.55759 3.36866,-1.86404 5.68555,-2.20117 1.99483,-1.98902 4.2589,-3.86568 5.07422,-6.64258 1.01907,-2.39335 1.70189,-4.93677 2.67187,-7.3418 0.15753,-2.5951 0.21286,-5.25164 0.97852,-7.73437 1.84849,-2.44041 -0.53923,-8.53588 -0.19727,-1.96094 -0.57146,2.80713 -0.90021,5.67781 -1.25586,8.55664 -0.4735,3.33218 -5.18737,2.273 -7.62305,3.09766 -1.88201,-0.75508 -4.00225,0.36432 -5.98242,-0.50977 -2.06014,0.28698 -2.87029,-1.44434 -4.77344,-1.03906 -1.43941,-1.85401 -4.54964,-0.49222 -6.08398,-1.85742 -2.44566,0.2174 -3.92856,-1.53733 -6.51758,-1.04297 -0.70257,-2.55402 -3.01377,1.7293 -3.22656,-0.75781 -2.25162,1.49956 -3.9224,1.13126 -6.25195,1.14257 -2.42329,1.00184 -2.20418,-2.15364 -4.32227,-1.10546 -2.6228,1.20812 -5.80476,3.47182 -7.24609,1.04687 -7.92401,-4.4283 -1.35407,-4.07974 -6.36524,1.62891 -2.43609,-0.97164 0.96601,1.35112 0.54297,2.33398 -0.19464,1.79312 0.10842,3.70358 0.0781,5.38672 -1.64115,-6.06557 -3.45277,-12.10805 -5.22461,-18.14648 -1.39748,-3.96318 2.46349,-0.1206 3.89453,0.62695 2.26223,1.69897 5.12223,1.2391 7.63086,0.48633 -0.53148,-1.73258 1.95379,-2.36869 3.63867,-3.31641 -1.20563,-2.04125 4.92315,-1.61153 3.10938,-3.07617 2.50266,-1.24804 3.65235,-2.70809 6.58984,-3.11133 -0.65038,-1.60891 2.064,-1.29775 3.07226,-1.97851 -1.35216,-1.16591 0.87315,-1.4655 1.98633,-1.58985 0.25418,-1.47605 2.70445,-0.76216 3.02344,-2.59765 2.11638,-0.51648 2.23862,-2.95729 4.40625,-3.30274 1.59458,-2.55008 4.6262,-3.44805 7.15039,-4.92187 2.39142,-1.1805 4.72394,-2.32572 7.24609,-3.27344 2.38644,-1.87125 5.72265,-1.76472 8.59766,-2.375 3.05201,-0.31623 6.09124,-0.89748 9.12109,-1.17188 0.53458,-0.35778 0.76853,-0.6073 0.95118,-0.83593 0.65572,0.0238 0.64457,0.12436 1.75976,0.0879 0.98789,1.3991 5.49398,-0.75236 2.81641,-0.76367 -2.0826,-2.09424 -4.92173,-3.12557 -7.31836,-4.73633 -2.25343,-1.11731 -4.57908,-1.81628 -6.74414,-2.94727 -2.75694,-0.66372 -5.48063,-1.03143 -8.2832,-1.49805 -3.16831,-0.11414 -6.32555,-0.2751 -9.23243,-1.34765 -2.78211,-0.007 -5.2593,-1.182 -7.9414,-0.78125 -2.808,0.61247 -5.64107,0.65812 -8.45508,0.90039 -2.39293,-0.61032 -4.69923,0.26368 -7.0332,0.32226 -3.28026,1.29529 -6.88857,2.07263 -10.44922,1.9668 -2.82524,-0.26237 -5.60322,-0.75027 -8.41602,-0.85156 -2.87142,-0.58696 -5.19792,-2.62974 -7.46484,-4.25195 -2.05539,-0.50348 -3.1694,3.95318 -4.03907,5.80859 0.0573,3.09634 0.83386,6.16434 0.83008,9.2832 -1.14013,-3.25406 -2.198,-6.55647 -2.85742,-9.93945 -1.11606,-2.27263 -1.95599,-4.81133 -2.12305,-7.30273 0.86109,-4.17789 5.10129,0.20595 7.3125,0.77148 1.51597,0.87711 6.16639,1.25737 5.47266,-1.36914 -0.54108,-1.68835 2.76588,-0.68107 3.76367,-1.14063 -0.71206,-2.25006 3.16631,-0.83074 4.39258,-0.28906 -0.009,-0.37391 0.98993,-2.37625 3.39258,-0.97461 -0.57853,-2.29788 3.05185,-0.005 4.5332,-0.61328 -0.72143,-2.5547 2.65786,0.48503 3.47461,-1.46094 0.98068,-1.16553 2.92435,0.60508 4.32617,-0.0469 1.8607,0.49757 0.27139,-1.55514 1.70508,-1.27735 2.53644,1.21799 3.20058,-1.61333 5.64453,-0.7832 1.52754,-1.98973 4.30268,0.38042 5.80274,-1.41992 0.63227,-1.42091 3.01278,0.38466 4.18164,-0.74609 0.86094,-1.37587 4.61182,0.32854 5.78711,-1.8086 3.08273,0.62257 5.20885,-1.93056 8.33203,-1.26562 0.52849,-2.14696 3.52302,-0.33792 5.53906,-1.40235 -0.31635,-1.51324 2.53603,-0.76446 4.02539,-1.21093 0.86423,-1.77128 2.98568,-0.84605 4.94922,-1.34571 -0.10741,-2.10357 5.12796,-0.65776 4.33789,-3.20312 2.31538,-0.17462 4.6877,-1.12709 6.96094,-2.04688 1.26818,-1.35836 3.09425,-1.06411 5.01172,-1.87304 4.54945,-1.55294 9.13116,-3.05438 13.54297,-4.98829 -1.29702,-0.21872 -4.36291,0.34287 -6.35547,0.33985 -2.64435,0.66259 -4.80365,-0.36659 -7.28907,0.73242 -0.63446,-1.14712 -3.04597,0.97251 -4.41601,-0.0879 -3.02506,0.38751 -5.71104,0.61678 -8.5918,1.75586 0.0452,-1.45077 -1.97618,0.0594 -3.43164,0.23437 -0.89628,-1.2825 -3.2756,0.81 -4.87109,0.0293 -2.1789,-0.32908 -4.58319,0.53039 -6.625,0.31836 -2.53656,0.77068 -4.61546,-0.53707 -7.1875,0.79688 -1.23024,-1.70397 -3.81948,1.63488 -5.3418,-0.20704 -2.2913,1.01454 -5.1287,1.46007 -7.29883,0.51368 -2.40676,1.21598 -4.55146,-0.0168 -6.90429,0.31054 -1.76104,-0.52819 -3.52594,-0.12644 -5.33399,-0.50976 -1.90363,0.0416 -4.64234,0.061 -6.91992,0.21484 -0.77431,-1.08162 -2.65854,-0.20079 -4.45117,-0.0508 0.31393,-2.0185 -2.21051,1.47305 -3.32422,0.28711 -2.32101,1.35432 -5.15363,2.41863 -7.88086,2.47265 -2.20018,-0.0307 -4.38094,0.7945 -6.55859,1.2129 -1.1136,0.1257 -2.26561,0.78152 -3.35547,0.58007 -2.0287,-0.78013 -3.98927,-1.91521 -5.4668,-3.48632 1.56333,-0.25168 5.32538,-1.2319 5.13867,-2.97071 -0.13171,-1.71216 4.14998,-1.23566 5.64063,-2.18164 -0.82288,-1.07482 0.4244,-1.2187 1.72656,-1.27539 0.80553,-0.55892 5.78682,-1.33926 3.85937,-1.84375 -1.3672,-2.00224 3.59208,-1.44845 3.06446,-3.7539 1.63253,-2.24958 3.89846,-3.23522 6.63476,-3.74024 2.74436,-0.54357 5.23217,-1.06638 7.94141,-1.25195 2.68913,0.49776 5.04056,-1.58404 7.71484,-0.58594 2.56917,-1.05558 5.45675,-0.58333 7.93555,-1.78711 3.17964,0.76154 5.07316,-1.95091 8.23437,-1.42578 1.22873,-1.81678 4.42211,-0.43095 5.89454,-2.1543 2.99013,0.71694 5.03281,-1.92603 7.91796,-1.93359 2.42332,-0.9871 4.76292,-2.07287 7.17188,-2.74219 2.89935,-0.80269 5.32664,-2.22098 8.125,-2.71289 4.83677,-1.83231 9.81572,-3.32996 14.73047,-4.96094 -2.63014,-0.19804 -5.27755,-0.0207 -7.91211,0.0508 -2.64718,0.43699 -4.79327,-0.62649 -7.29297,0.58008 0.63186,-1.51612 -1.68089,-0.0982 -2.52539,-0.0332 -1.78001,-0.93271 -4.21147,0.40005 -6.4375,0.57617 -2.4497,1.11065 -5.04764,0.65875 -7.57812,1.59766 0.278,-1.62803 -1.73318,0.23554 -2.84961,0.41015 -2.31905,0.11074 -4.58561,1.11506 -6.95118,0.8418 -2.59442,1.15193 -5.20535,0.76126 -7.79882,1.8125 -0.779,-1.03272 -1.61783,-0.45931 -2.95118,0.0195 -3.09191,0.0176 -6.1107,0.8614 -9.18164,1.22461 -2.30233,-0.44704 -5.23328,0.5947 -7.12304,-0.74023 -2.57137,0.24071 -4.42518,-1.30981 -7.07032,-0.38477 -0.77162,-2.077 -4.42172,1.04258 -4.60351,-0.64453 -1.58646,0.085 -4.99629,2.79567 -6.93946,4.23828 -2.2774,1.58476 -4.90633,2.49283 -7.57226,3.24024 -3.46307,0.83924 -6.93405,2.24555 -10.53711,2.07812 -1.53067,-1.2263 -4.1346,0.18547 -5.26563,-0.38086 -0.66721,-2.76763 -4.38174,0.88999 -3.88281,2.73633 -0.80798,2.26511 0.31811,4.58664 0.63672,6.85742 -1.15238,-3.55075 -2.61508,-7.08874 -3.05664,-10.79101 1.6393,-3.28381 4.91365,-1.12731 7.50391,-0.64844 2.72394,0.85512 5.23139,-0.75831 7.87109,-1.17969 2.47068,-0.092 -2.33685,-1.01081 0.0859,-2.0625 0.8095,-0.73822 5.17666,-1.20008 3.65234,-1.87695 0.85784,-1.68892 4.71845,-1.02093 5.33985,-2.79492 0.27647,-1.83659 6.16111,-1.64234 4.4746,-3.67969 3.10806,-0.63152 3.06308,-4.21571 5.9375,-5.09766 1.20182,-2.74473 4.35922,-1.3799 6.05665,-3.50195 1.79368,-1.03034 5.11048,-2.08171 5.33007,-3.3711 2.97385,-0.93756 5.68492,-2.15099 8.47266,-3.47851 3.09392,-0.88347 6.20534,-2.04228 8.96484,-3.67969 2.8187,-0.6627 5.3682,-2.43198 7.75977,-3.72851 2.36228,-0.92119 4.57438,-2.8733 7.17969,-3.51563 1.50463,-1.82324 4.25315,-2.07719 5.8164,-4.01953 2.66616,-1.04039 5.13242,-2.67936 7.90039,-3.625 3.08425,-1.63317 6.48564,-2.62507 9.82032,-3.68164 -2.73045,0.21808 -5.46063,-0.63824 -8.16602,-0.0566 -2.91798,0.55725 -5.77319,1.02804 -8.61328,1.85742 -1.8285,1.36955 -2.96124,0.28146 -4.56641,1.32813 -2.57106,0.6336 -5.27325,1.20636 -7.6875,2.29687 -2.65685,1.21145 -5.29135,2.53642 -8.01367,3.76367 -2.66029,0.79642 -4.758,1.82984 -7.41406,3.02735 -2.85619,1.50353 -5.91081,2.45416 -8.96289,3.5 -3.56398,2.14015 -7.71719,2.85563 -11.72266,3.72265 -2.59895,0.52967 -5.19703,0.46703 -7.56445,1.75782 -2.47669,0.23843 -4.67809,1.52673 -6.75781,2.78124 -3.0768,1.00449 -5.60728,3.30437 -7.18164,6.11524 -1.86792,3.47815 -6.44305,0.31702 -9.5,1.8418 -2.53251,-1.29245 -4.96618,-2.88377 -7.66797,-3.82227 -2.03501,-2.69556 -1.99013,1.6587 -3.23828,2.87695 -0.81268,2.27706 0.17804,-1.03169 -0.40821,-0.60351 -2.93711,-0.24185 2.2613,-2.4072 -0.58008,-2.76172 0.0327,-3.46885 4.09103,-0.50611 6.08594,-0.51367 3.14132,0.63745 5.51772,-1.89151 8.45313,-2.49805 -1.42534,0.40086 -2.65756,-1.39976 -0.66016,-1.75391 1.19199,-0.7785 5.26892,-1.40758 4.75781,-2.18945 -1.96732,-1.52591 5.49191,-1.61846 3.72657,-2.95312 0.35259,-1.2816 5.46378,-1.78184 4.88476,-2.67774 -2.37989,-1.4423 5.91426,-1.02585 3.16602,-2.25586 0.61319,-0.86249 5.55574,-0.7899 4.98242,-2.03125 1.39257,-1.0015 3.7401,-1.36678 5.37891,-2.27148 -2.25653,-1.17517 2.99615,-0.87713 3.93359,-1.67578 -1.42553,-1.59118 3.79668,-1.11034 4.11719,-2.74805 -0.47282,-1.39638 3.473,-0.91192 4.40039,-2.36719 -0.49028,-1.87982 2.86183,-0.6033 4.08984,-1.71875 0.20863,-1.71046 3.68026,-1.2217 5.35156,-2.37695 -0.97874,-2.04537 2.28584,-0.57199 3.40235,-1.76953 0.74853,-1.96177 2.90255,-1.0508 4.66797,-1.875 2.35475,-0.38948 -0.0665,-1.59743 2.17968,-1.73047 2.79685,-0.23607 4.63997,-2.27164 7.31641,-2.91602 1.82302,-0.53238 -0.52824,-0.76896 0.67187,-1.17382 3.14518,-0.55295 5.60932,-2.51257 8.49805,-3.8125 2.4915,-0.95683 4.91553,-2.49197 6.6836,-3.75977 2.65793,-0.84023 5.12283,-2.21373 7.72265,-3.50977 2.26288,-0.85228 4.81552,-1.63663 6.89649,-2.59765 -2.68249,-0.24847 -5.45376,0.0395 -8.14649,0.40234 -2.51463,0.0952 -5.14625,0.78181 -7.50195,0.74024 -2.09817,1.12826 -4.06882,0.47013 -6.10156,1.32812 -1.81769,-0.39205 -3.83166,1.07656 -6.08985,0.90235 -2.44036,1.62612 -4.84619,0.93687 -7.21875,2.60742 -1.71239,-1.28028 -4.37435,2.53507 -5.24804,0.74414 -1.85016,1.62826 -4.13415,1.85174 -6.29297,2.39648 -1.32923,1.70434 -2.84253,0.13497 -4.125,0.75391 -1.79853,1.61828 -3.85555,0.71151 -5.64258,1.9414 -2.10766,0.56228 -4.35148,1.20001 -6.5918,1.11915 -2.56002,0.58607 -5.64924,2.95044 -7.9043,2.23437 -1.98402,1.16901 -4.18243,1.31966 -5.9375,1.5332 -2.59872,0.99852 -5.257,1.86081 -7.63281,3.06055 -2.32036,1.34426 -4.94053,3.13635 -7.22461,4.86719 -2.55212,1.52031 -5.13087,2.90811 -7.1875,5.07226 -2.42513,1.30715 -4.2293,4.40962 -7.25976,4.20703 -2.76613,-0.86184 -5.23274,-1.8724 -7.58985,-3.6289 -1.62232,0.25848 -3.87761,-3.07472 -4.39258,-0.60938 -0.79874,2.79489 -0.42058,0.21179 -0.61523,-1.11914 -3.2711,-0.49561 0.71508,3.90642 -1.95508,4.14453 -2.49755,-0.69876 0.86992,-0.16492 0.10547,-1.5 -2.17618,-3.34794 2.70884,-4.2604 5.01953,-3.11914 3.01055,1.017 5.58103,-0.86492 8.34961,-1.24023 2.73339,0.41903 -0.53011,-0.3827 -0.82226,-1.51758 2.49736,-0.64611 5.10662,-1.19265 7.48632,-2.36328 -0.4456,-0.20769 -3.0071,-0.96823 -0.26562,-1.19727 0.91895,-0.40063 6.19672,0.16281 3.19336,-0.8789 1.0142,-1.59704 4.33413,-1.61419 5.92773,-2.88086 -3.01152,-0.8874 0.92757,-0.73672 2.02344,-1.15625 2.02458,0.11066 0.33296,-1.53218 1.37891,-1.43164 1.28885,-0.13622 7.07287,-0.20891 4.29492,-1.33203 1.12108,-0.66376 3.69525,-0.71621 5.29297,-1.50586 2.71287,-0.72129 -1.12464,-0.4075 -0.15039,-1.32422 1.33013,0.49228 6.9718,-1.26013 4.41601,-1.90821 1.72539,-0.18838 4.02014,-1.0382 5.81836,-1.98437 -2.04911,-0.2341 -0.31001,-1.03757 0.94336,-1.15625 0.866,-0.23289 5.21626,-1.30186 3.42578,-1.66016 0.47146,-1.20279 4.35839,-0.81646 5.74219,-2.33984 -0.34764,-0.10023 -0.92928,-1.02805 0.65234,-0.76953 0.9024,-0.56262 5.49366,-1.53597 3.5918,-2.70899 1.11345,-0.85738 3.91231,-0.34298 5.01563,-2.00586 -1.53362,-1.51084 5.31079,-0.32064 4.33593,-3.12304 3.30626,0.0968 5.20506,-2.87814 8.24414,-3.59961 0.10405,-2.00376 3.76605,-1.21238 3.67383,-3.24414 2.54272,-0.90149 5.74612,-2.08344 7.41992,-3.97656 2.57337,-0.96874 4.66433,-2.92293 6.66797,-4.39649 3.06112,-1.68835 5.76661,-3.98854 8.52344,-6.14453 -3.32583,1.07777 -6.74206,1.84036 -10.13086,2.6875 -2.49222,1.13522 -5.0025,0.50932 -7.28711,1.79687 -1.53332,-0.71937 -2.64534,0.19212 -4.34375,0.96485 -2.5796,1.0083 -4.99875,1.81106 -7.47461,3.06836 -1.55414,-0.38725 -2.63821,0.21532 -4.07031,1.40039 -1.91475,-0.9566 -3.04646,1.08481 -4.93555,1.78516 -1.06994,-1.58994 -2.42722,1.29046 -4.23047,1.05273 -1.32272,-1.79191 -3.75702,2.97063 -5.49609,1.18945 -2.08365,1.56246 -4.86532,1.68214 -6.97656,2.99024 -2.43069,0.72774 -4.89604,1.7929 -7.61133,2.10547 -2.43311,1.10052 -4.97247,1.72601 -7.41016,2.68359 -2.3046,0.2677 -4.78638,1.13337 -7.09961,1.88867 -2.31114,-0.39447 -3.89092,2.26789 -6.38476,1.89258 -1.95795,1.80847 -4.14084,1.13244 -6.05078,2.57422 -2.55546,0.81006 -4.63418,2.56345 -6.97461,3.84765 -2.39887,1.32208 -4.47878,3.04589 -7.00196,4.15821 -2.39671,2.2484 -5.87749,0.95565 -8.26562,-0.41016 1.34944,-1.08892 5.13395,-1.28219 7.13086,-2.91797 2.93201,-0.27125 -2.83532,-0.69935 -0.58594,-1.52344 1.26697,-0.83865 5.45383,-1.09051 5.16016,-1.9121 -1.45758,-1.45119 4.86215,-1.75528 4.29492,-2.78516 -1.83519,-1.24456 4.46596,-0.96484 3.99609,-2.56445 0.29201,-1.36517 3.55295,-1.68331 4.90039,-2.82813 -0.49889,-0.23989 -1.34019,-0.98682 0.81055,-0.9082 1.1178,0.0713 7.62821,-1.81148 4.28125,-1.73438 0.42754,-1.41664 4.24681,-1.12854 5.81055,-2.26172 -2.80657,-1.20321 2.10398,-1.59273 3.48437,-1.97851 2.78041,-0.24106 -1.1202,-0.8614 0.72852,-1.50781 1.13764,-0.56996 7.27169,-1.6081 3.61719,-2.26563 0.62679,-0.99832 4.12669,0.01 5.54492,-1.34375 -2.61691,-1.34298 1.82338,-1.32811 2.98437,-1.93945 1.92499,-0.59006 -0.19026,-0.32015 -0.19336,-1.13086 1.07947,-0.0926 5.7907,-0.65852 3.97657,-1.65235 1.46445,-0.96451 4.02687,-0.8451 5.52734,-2.32421 -2.30015,-0.70383 2.00922,-1.66948 3.25,-2.1875 -0.46413,-1.83038 2.85379,-1.75595 4.52344,-3.04688 -1.50021,-1.28732 1.94334,-1.60153 3.03906,-2.1582 0.54357,-1.61703 2.01366,-2.166 3.82617,-2.77735 0.26706,-1.6413 2.51913,-1.39076 4.00195,-2.36132 -0.6805,-1.26614 1.33722,-1.17708 2.45313,-1.79297 0.50037,-1.72587 3.14424,-1.8264 3.27539,-3.65821 1.53358,-0.48642 1.96365,-1.69036 3.07227,-2.52539 2.44497,-1.87908 5.42257,-3.55019 6.8125,-6.48242 -1.9694,-0.0987 -4.82997,1.34369 -7.09961,1.89063 -2.54627,1.06568 -5.35113,0.78292 -7.48633,2.42578 -0.63553,-1.39715 -2.22937,1.42838 -3.86719,0.86133 -2.28178,0.49435 -4.99808,1.51239 -6.85742,3.33593 -1.50716,-0.76696 -2.91064,1.15517 -4.63867,1.83204 0.11985,-1.9616 -1.84471,0.44272 -2.84961,0.98242 -1.70034,0.18562 -3.31188,0.53794 -4.74024,1.95117 -0.48287,-1.50039 -1.51499,0.0995 -2.59375,0.75781 -1.19323,1.99865 -2.64559,-0.23045 -3.88672,1.13672 -2.24439,0.90413 -5.09858,1.61442 -7.47265,1.70898 -2.0027,1.04718 -3.94503,1.69875 -5.97656,2.11524 -2.26296,1.11612 -4.8346,2.15413 -7.1875,2.55859 -2.22108,1.69635 -5.01318,2.41997 -7.44141,3.86328 -1.93376,-0.28259 -3.90015,2.82636 -5.10352,1.86719 -1.85136,2.25169 -5.0871,2.63037 -7.31445,4.4961 -1.17638,-0.85289 -1.89989,0.81111 -3.10937,1.63671 -2.08766,1.45701 -4.57353,2.53883 -6.32618,4.375 -1.97404,1.93278 -4.82318,4.21125 -7.73632,3.75196 -2.80566,-0.99398 -5.66092,-2.02642 -8.32813,-3.34571 0.95369,1.471 -2.49502,0.24357 -1.57227,1.875 -0.0449,-1.29887 2.51305,0.36148 0.64649,1.26172 -0.36416,1.79282 -0.65415,0.84472 -1.05859,-0.57812 -1.24679,-1.58589 -0.69807,-1.88826 0.72265,-3.13867 2.92853,-0.15217 5.26482,2.51581 8.32813,2.0332 1.43391,-0.0722 3.02804,0.68507 4.28515,-0.28906 1.79777,-0.83604 4.02509,-1.78914 4.09766,-4.04102 -0.53465,-0.94961 -0.64884,1.79819 -1.30859,2.23828 -2.78465,-2.45098 1.54912,-3.23446 3.24609,-4.27734 2.78135,-0.90667 0.25299,-0.79272 -1.13867,-0.78516 0.15216,-1.13628 4.50775,-1.13368 5.73047,-2.71679 -2.29667,-0.62533 -0.11909,-0.62246 0.94921,-0.81446 0.76362,-0.76743 5.85858,-1.7601 2.91407,-1.88672 0.89314,-0.66009 3.28101,-0.9434 4.68359,-1.76953 1.88066,-0.30368 -0.25069,-0.23 0.10156,-0.97461 2.51845,-0.57537 5.23207,-0.80925 7.3418,-2.43164 2.57904,-0.9664 4.96582,-2.29675 7.58594,-3.18359 0.97308,-1.1135 6.05885,-1.80471 4.76172,-2.77149 0.30943,-1.07422 3.63541,-0.49087 4.84179,-1.7207 2.32593,-1.06728 4.15372,-2.73602 6.27539,-3.83594 0.66505,-0.22763 4.95651,-2.03456 2.84961,-2.01758 0.6446,-1.0704 3.47495,-0.85052 4.45899,-2.37304 2.70693,-1.19237 5.01979,-2.98632 7.73047,-4.17969 2.24436,-2.19289 5.60065,-2.59049 8.20898,-4.05273 2.34055,-1.19699 5.23069,-0.86393 7.8457,-1.25782 4.09697,-0.41399 8.24858,-1.41113 12.3711,-0.79687 2.16555,-0.031 5.7467,2.08116 6.78906,2.00976 -4.02452,-2.78162 -8.94138,-3.80933 -13.66016,-4.71484 -2.84058,-0.44257 -5.68634,-0.90961 -8.49804,-0.55664 -1.72985,-0.91869 -3.76657,-2.3e-4 -5.50977,-0.47656 -2.67364,0.75993 -5.33439,-0.37657 -7.88281,1.14453 -0.94564,-1.30145 -2.28479,0.31151 -4.02149,0.82422 -1.66886,-0.75689 -2.61379,1.03113 -4.26953,1.87109 -2.04487,-1.15593 -4.68971,1.37903 -7.27343,1.37109 -2.15619,-0.16995 -4.13635,-0.29254 -6.24219,1.38282 -1.55879,-1.66102 -4.18493,2.59925 -5.07422,0.51562 -2.62152,1.7563 -5.17503,1.94214 -7.87305,3.01172 -2.41991,0.66014 -4.81623,1.53779 -7.15039,2.18555 -2.71861,1.13432 -5.44395,1.93698 -8.36133,2.58203 -2.69249,1.10748 -5.7855,0.37714 -7.87304,2.79492 -1.84124,-0.33124 -3.74878,2.50039 -4.9961,2.00781 -1.80355,0.70641 -3.11112,4.07295 -5.42578,5.03907 -2.15626,1.69233 -4.77245,1.83606 -7.08008,2.54296 -2.79261,-0.0741 -5.36422,-1.69778 -7.7871,-2.97656 2.01038,-0.51072 5.68228,1.2065 8.35546,0.30078 2.64926,-1.19315 5.75128,-1.241 8.19532,-2.88867 1.18522,-0.77179 -2.344,0.67924 -3.04102,0.14063 0.34734,0.72387 -1.28103,1.47629 -2.04687,0.18554 1.56744,-0.95241 3.80217,-1.81775 5.69335,-2.57422 2.31716,-0.84243 0.40623,-0.51152 -0.93554,-0.79687 1.83152,-1.0716 4.86771,-1.77606 6.9082,-3.11523 -1.36894,0.39284 -2.62072,-1.0053 -0.5918,-1.28321 0.6878,-0.34852 4.85272,-1.06544 3.36329,-1.49804 -0.41401,-1.05094 3.55852,-0.77065 4.67968,-1.63672 -1.12097,-1.24857 0.48631,-1.27667 1.51367,-1.21094 1.01507,-0.54388 6.13142,-1.45334 2.92774,-1.83594 1.07841,-0.77334 3.62496,-0.43679 4.95898,-1.74219 -1.13401,-1.35809 1.91929,-0.47573 2.76954,-1.49804 1.93555,-1.86548 4.63043,-2.58663 6.90234,-4.10938 -1.81463,-1.01992 2.40067,-0.71094 3.03125,-1.86718 2.68123,-0.92609 5.34668,-1.9386 7.83398,-3.33399 1.98535,-0.65091 0.0367,-0.92284 0.89258,-1.33594 2.75788,-0.64463 5.27366,-1.94346 7.70703,-3.35742 2.39675,-1.92315 5.38171,-2.94823 8.0586,-4.37695 2.95997,-0.75421 5.74854,-1.39958 8.83789,-1.72266 3.11463,-0.5432 6.28756,-0.47907 9.40234,-1.0957 2.82176,-0.20824 5.68073,-0.0919 8.45899,-0.71484 0.6476,-0.31974 4.76516,-0.61947 3.41406,-1.26172 -4.82003,0.15595 -9.64594,0.26594 -14.4668,0.40234 -3.20345,-0.22551 -6.41742,0.0642 -9.63281,0.2207 -2.67009,0.49307 -5.35031,-0.21149 -7.90625,0.71094 -1.97053,-1.01472 -3.94543,1.0663 -5.83399,0.36914 -1.62062,0.0899 -3.89853,0.96625 -5.63671,1.50391 -2.13574,1.52392 -2.46647,-0.75357 -4.45118,0.61719 -2.4026,-0.0342 -4.10732,0.73866 -6.56836,0.94921 -2.0934,0.408 -4.50736,1.16827 -6.6914,1.7168 -2.61956,1.45329 -5.78194,1.0827 -8.53321,2.29688 -2.4003,0.88139 -4.72181,1.15078 -7.15625,2.08007 -3.08277,1.25496 -6.08006,2.16377 -9.16601,3.48438 -2.42612,1.3075 -5.11995,2.02943 -7.4707,3.48633 -2.74349,1.27372 -5.58007,2.44296 -8.19532,4.00586 -0.69838,0.11687 -4.82332,2.05205 -3.30664,0.63476 -1.2743,1.95994 -4.13821,1.84214 -6.41601,0.94727 -1.72339,-0.046 -4.87616,-2.96716 -5.55274,-0.73438 -2.14393,0.11029 -0.17628,5.33769 -1.00781,3.19922 -1.11375,-1.97906 -3.18619,-5.62542 0.60547,-6.11719 3.31291,0.31713 6.63871,0.77803 9.98242,0.65039 0.86808,-0.55712 4.75808,-1.19061 3.24805,-2.24609 0.53276,-2.15197 4.55168,-1.93008 6.23047,-3.50781 -2.51585,-0.66856 1.49064,-1.22603 2.26953,-1.95899 1.13435,-2.21632 4.01354,-2.17491 6.27929,-3.23828 -2.17375,-0.87537 2.26202,-1.26888 3.32422,-2.09179 0.71762,-2.28295 4.10296,-1.1126 5.67188,-3.22071 -1.31222,-0.44116 0.50771,-0.82383 1.12109,-0.75976 0.70243,-0.64382 4.45046,-1.28765 3.09766,-2.0293 0.71554,-0.72308 3.55678,-1.12983 4.42773,-2.49609 -0.3151,-1.63764 3.6918,-1.77767 5.0293,-2.93946 -3.43733,-0.65015 1.70777,-1.27552 2.48828,-2.41992 -0.68663,-0.87595 -0.24083,-1.16454 1.13477,-1.3418 2.22519,-1.534 4.01226,-3.44391 6.375,-4.92578 -1.1599,-1.48736 1.29304,-1.14837 2.22265,-1.97851 1.97507,-0.61817 -0.54046,-1.90993 1.74219,-1.95899 2.57031,-1.1165 4.33983,-3.42194 6.94922,-4.51367 -0.6627,-1.43518 2.35334,-1.20613 3.56445,-2.64844 2.61525,-1.34773 4.72197,-2.8597 7.5,-3.8789 2.44195,-0.98339 4.62531,-1.70568 7.0625,-2.49414 2.36111,0.18553 4.50078,-0.69244 6.89844,-0.17188 3.65499,0.0356 7.17864,1.3702 10.76953,1.64649 -2.69802,-1.89391 -6.33468,-2.41838 -9.52539,-3.4043 -2.68297,-1.173 -5.63558,-1.51191 -8.38477,-2.33594 -2.64037,-0.12981 -5.18942,0.0505 -7.75585,0.53516 -2.53036,0.67174 -4.99145,0.0532 -7.06641,1.89648 -1.44079,-1.41212 -3.20276,2.27499 -5.07813,1.57617 -1.76322,0.88774 -4.67054,1.90527 -6.74414,3.32227 -1.37763,-1.23628 -2.03108,1.35397 -3.76562,1.64062 -0.64313,-1.39117 -1.38343,0.28147 -2.59961,0.75586 -2.07598,0.15549 -4.48718,3.6296 -5.66016,2.11133 -1.71477,2.87993 -4.34412,1.14872 -6.31836,3.66992 -2.53587,-0.93446 -4.0638,2.41779 -6.5039,2.13868 -2.24168,1.75985 -4.69297,1.91796 -6.80274,3.99414 -1.10494,-0.8279 -1.6404,0.8227 -2.71484,0.30859 -0.88033,1.84805 -2.80799,1.3926 -4.22656,2.77734 -2.1024,1.15604 -4.34781,2.52887 -6.45508,3.43555 -2.13373,0.78654 -5.06627,2.69705 -7.41211,4.10156 0.65533,-2.18775 -0.90637,0.19886 -2.07031,0.89258 -2.04598,0.8305 -3.9642,1.9109 -6.38086,2.80274 -3.02079,0.35448 -5.88272,-1.35075 -8.65625,-2.22461 2.66434,-0.0957 5.56451,0.39456 8.10742,-0.72461 0.63745,-0.74446 4.46854,-1.87488 3.27734,-2.23828 -2.89995,-1.83077 4.76454,-1.83557 3.53321,-3.13672 0.18939,-1.61686 3.68004,-1.80935 4.89648,-3.24805 -1.61847,-1.60959 3.54324,-1.92911 4,-3.48633 -1.96588,-1.6406 5.24661,-1.48045 3.49805,-3.23437 0.69811,-0.94846 4.91463,-0.88173 4.59375,-2.33985 -0.42864,-1.25618 3.55492,-0.8455 4.48828,-2.17578 -0.59989,-1.12214 0.7388,-1.23152 2.16992,-1.49023 0.39016,-0.82159 4.62732,-2.16372 2.54687,-2.08008 -1.71203,-1.51641 2.67205,-0.50024 3.30274,-1.96484 2.18011,0.006 -0.52463,-1.37835 0.89844,-1.57032 1.1848,0.24566 5.6879,-1.57301 3.52929,-2.47851 1.01893,-0.60428 4.45511,-1.51288 4.60743,-2.21485 -1.34839,-1.53545 4.04126,-1.86718 4.35156,-3.27539 -3.30418,-0.19674 1.20563,-0.85102 2.07617,-1.60547 0.36609,-1.97471 2.84185,-2.18924 4.45117,-3.43359 -1.21659,-0.81196 1.55128,-1.57869 2.79883,-2.25195 2.51399,-1.96933 5.71294,-2.67501 8.10742,-4.69922 -0.10446,0.74945 2.39769,0.0734 3.15821,-0.55859 2.08015,0.49871 5.13532,-0.36037 7.3457,-1.14063 2.46962,-0.0336 5.02529,-0.97997 7.43164,-0.006 3.42652,2.04219 -0.27011,-1.26932 -2.01172,-1.1582 -3.25002,-0.99286 -6.68287,-0.39274 -9.96289,-1.06836 -2.82678,0.0436 -5.62119,-0.50084 -8.42773,-0.0391 -2.45231,-0.24638 -4.85017,0.53404 -7.25391,0.95117 -2.24617,-0.17876 -4.50816,0.8396 -6.58399,1.6914 -1.8805,-0.0432 -3.4934,1.7221 -5.25976,1.54688 -2.24039,0.92601 -5.20507,1.66318 -7.52734,3.15039 -1.41744,-1.77173 -3.33567,2.5219 -5.61915,1.63477 -2.26004,1.51198 -4.8756,1.56017 -7,3.52539 -2.476,0.82264 -5.31214,1.67552 -7.3789,3.44922 -1.41808,-0.39195 -2.13601,0.0541 -3.11328,1.31054 -2.04151,1.33597 -4.11382,2.11255 -6.20703,3.76367 -2.44211,1.67786 -4.78509,3.24919 -7.22852,4.88672 -2.23336,1.12892 -4.23792,2.78066 -6.27539,4.28516 -0.72688,0.38471 -5.16138,3.15816 -2.95508,1.13086 -0.76256,-0.92872 -2.6621,0.5559 -4.26367,0.70508 -0.32077,2.08275 -3.7283,-0.0488 -5.92969,0.46875 -1.7294,-1.36283 -1.73214,0.13243 -1.5957,1.61328 0.57097,2.22965 -3.05334,-1.95006 -0.72266,-0.32617 -1.14792,-1.64907 0.49253,-4.04993 2.70117,-3.89844 3.88838,-0.0129 7.53916,-1.39832 11.29102,-2.20117 2.59121,-0.9221 5.7e-4,5e-5 -0.47656,-1.03516 1.33515,-1.37805 4.11133,-2.14136 5.73437,-3.78906 2.19496,-0.84382 0.1922,-0.47615 -0.8457,-0.6875 -0.2533,-1.20203 6.00213,-3.16948 3.16601,-2.81836 -1.08644,-1.39269 2.85813,-1.83682 3.55469,-3.14063 2.97294,-0.94644 -1.69451,-0.50317 0.52539,-1.54101 3.19117,-0.29519 3.63487,-3.48106 6.11719,-4.4043 0.22311,-1.05302 3.27295,-1.80924 1.57031,-2.64648 0.71278,-1.30461 3.0695,-1.47757 4.02149,-2.99024 1.84501,-1.08088 -0.90597,-0.19396 -0.0527,-1.22851 1.41052,-0.48128 4.52323,-2.93445 3.98438,-3.28711 -2.31088,-0.74668 2.4135,-1.67662 2.99219,-2.82618 -2.03112,-0.93441 3.35124,-1.32047 4.05468,-2.99804 -1.70891,0.47499 -0.61873,-1.13208 0.65625,-1.02735 0.78573,-0.82637 5.13391,-3.58666 2.47657,-2.99023 0.004,-1.30314 2.67007,-2.22309 3.23046,-3.86914 -1.68566,-2.09893 2.04961,-1.85399 2.50391,-3.70898 -0.86377,-0.3867 -0.24963,-0.75916 0.71094,-1.57422 2.00356,-1.74223 3.73731,-3.73232 5.45117,-5.67188 2.1024,-2.09165 3.81644,-4.22926 5.66406,-6.57226 2.17811,-1.66355 3.77143,-3.98322 6.26172,-5.375 2.10259,-2.2069 5.33546,-3.35594 8.38867,-3.23829 2.64541,0.50374 -0.25229,-1.00278 -1.25976,-0.94726 -3.55737,-0.13625 -6.97901,1.23749 -10.32813,2.2832 -2.96156,1.02633 -5.37254,3.07599 -7.96484,4.71485 -2.57307,0.90936 -4.43868,3.35861 -6.88086,4.59765 -2.26186,1.22465 -4.02266,3.48143 -6.44141,4.51758 -1.35556,1.7551 -3.18585,1.88579 -4.71875,3.16016 -2.02102,1.75838 -4.08763,3.04788 -6.36914,4.05468 -2.12337,1.63875 -4.53699,2.16863 -6.78906,3.80274 -1.91906,2.32001 -5.16799,2.69536 -6.61328,5.48047 -2.30967,-0.4238 -3.18981,3.52274 -5.69727,3.95117 -1.28368,2.62132 -4.33535,2.7717 -5.55273,5.37695 -2.08131,1.49816 -3.75405,3.9772 -6.24805,5.07031 0.11225,0.80473 -2.23178,2.0935 -1.82812,0.2793 0.84952,-2.36047 2.05536,-2.43945 4.07226,-3.73633 0.67162,-2.97001 -4.47159,1.43937 -4.49804,-0.21875 0.7384,-0.41141 2.34979,-2.24096 2.86914,-1.57617 0.40161,0.63599 4.91386,-1.35883 3.48437,-2.07031 -1.54836,1.24294 -2.32063,0.0263 -0.66992,-0.85938 2.18782,0.0725 3.47261,-1.71809 5.55664,-2.79882 1.34525,-2.41324 -1.9842,1.01245 -1.46289,-0.59766 1.77453,-1.12353 4.35367,-2.05503 5.34961,-3.80859 -2.97373,1.08904 -0.0783,-1.3835 0.99219,-1.72071 2.3334,-0.96778 -0.68227,-1.07077 1.22265,-2.28125 0.20689,1.65857 5.94862,-2.53022 2.81055,-1.34961 0.0616,-1.52513 2.93738,-1.93963 3.97656,-3.11914 2.36769,-1.30356 -1.37861,-0.0175 0.125,-1.55469 2.54786,-1.0344 4.08905,-3.27573 6.07031,-4.99804 0.49637,-1.81229 2.64864,-2.49779 4.22266,-4.16016 -1.51529,-1.0632 2.76045,-2.55565 3.39258,-4.20703 -3.96363,0.79129 3.34887,-3.26997 0.99805,-3.57422 2.02431,-2.03453 3.17538,-4.33355 5.20117,-6.42969 -1.46238,-1.24993 2.89433,-2.16925 1.64062,-3.41601 1.761,-1.82359 2.41973,-3.9654 4.25586,-5.72656 1.34355,-2.01494 2.5686,-4.10918 3.92383,-6.08008 1.96774,-2.86931 4.28473,-5.44921 6.89453,-7.73438 -0.64203,-0.97322 2.52218,-2.11064 0.4668,-1.50976 -3.16876,1.72972 -5.90443,4.18123 -8.67188,6.48633 -2.06592,1.85135 -4.33305,3.21252 -6.52343,4.64453 -2.12236,0.77467 -3.08333,3.29449 -5.1875,4.16992 -1.38615,2.43911 -3.83237,3.66626 -5.86133,5.4668 -1.97673,2.28487 -4.41278,4.00761 -6.76172,5.94921 -2.13275,-0.0609 -3.89662,3.12884 -5.46289,2.73047 -0.34156,0.85828 -2.1941,1.54056 -3.22852,2.72852 0.0862,-0.87935 -0.63843,-0.6462 -1.37109,0.17578 1.00804,1.04081 -0.95995,0.58428 -1.70508,1.82617 -1.33599,-1.00293 -3.13645,2.39813 -4.90625,3.54883 -1.72921,0.8018 -0.6764,-0.2516 0.24414,-0.78125 -0.92984,-0.82082 -2.88392,3.29077 -4.80078,2.80273 0.89136,1.66037 -1.20187,-0.0472 -1.57227,1.51954 -1.75411,2.30966 -4.3221,3.73893 -6.27929,5.78711 -1.90832,1.75438 -3.83545,3.84763 -6.10547,5.00781 -1.33614,-2.16229 -3.30417,1.05445 -5.45117,1.00781 -2.66109,0.33247 -4.02417,3.71089 -7.13086,3.07227 -3.65518,0.25764 1.30674,-1.23154 2.50976,-1.41602 2.45363,0.0179 2.07137,-1.82196 0.97852,-3.33203 1.75434,-0.62672 4.04568,-1.70313 6.07226,-2.16016 -0.59361,-0.62485 -6.35977,0.86834 -4.09179,-0.19726 3.15745,-0.30284 5.76335,-1.97801 8.1875,-3.86914 -3.4887,0.37927 0.61408,-2.05645 1.52929,-2.75782 -0.34038,-2.24873 3.52692,-2.31493 4.77344,-4.35546 -1.22249,-1.77436 3.53801,-3.52982 2.875,-4.75391 -0.63228,-1.05398 3.05655,-2.44464 3.2168,-4.29297 -1.09334,0.83797 -1.12249,-0.68889 -0.10742,-0.68359 0.8846,-0.42053 3.9723,-3.192 2.51367,-3.05469 -0.18618,-1.64718 3.6064,-3.17213 1.9414,-4.67578 2.76957,-1.2811 1.42025,-3.9349 3.57227,-5.83399 -0.94326,-0.87719 0.27653,-2.39356 1.17383,-3.78125 0.86022,-1.96554 -0.68458,0.77114 -0.5625,-0.65039 1.9423,-1.96338 2.56648,-4.66967 3.71875,-7.09179 1.13102,-2.58801 3.25929,-4.59582 3.89648,-7.30274 1.90417,-2.05166 2.5859,-4.89419 4.37891,-7.00976 0.42727,-2.52933 2.95581,-4.46449 5.16797,-5.7129 0.67808,-1.12172 4.92708,-0.68019 3.40234,-1.24023 -3.45082,-0.0729 -6.65102,1.73326 -9.51367,3.48438 -2.35858,1.81748 -4.55557,3.76091 -6.80469,5.67773 -1.87736,2.23043 -3.88113,4.08455 -5.31054,6.48047 -1.57304,0.7279 -2.47769,3.25713 -4,3.29492 -1.02384,2.0604 -3.30045,2.56475 -4.19336,4.69141 -2.17735,0.4139 -1.73384,3.14019 -3.75782,4.01172 -0.59656,2.30284 -2.5649,2.62563 -3.66406,4.52929 -2.31107,2.64512 1.37448,-3.48643 -0.71484,-0.70117 -1.24453,2.47029 -3.25615,4.11406 -5.09375,5.97656 -1.56809,0.8337 -2.80808,3.44121 -4.27344,3.58789 -1.78144,1.64537 -3.39287,3.64386 -5.28906,5.25977 -2.24818,1.22527 -3.04299,3.93865 -5.27344,5.33594 -0.27334,1.95384 -1.55085,0.85007 -2.46289,2.03711 -2.09257,1.90365 0.61273,-1.18894 0.72461,-2.03907 -0.0161,-2.27556 0.98937,-0.83167 0.60937,0.54883 1.21951,-0.69217 2.17622,-2.66463 2.50391,-4.16406 1.21678,1.88642 0.85144,-1.51313 1.84961,-0.99609 1.68646,-1.8426 -0.85836,-1.45943 -1.61328,0.002 -2.4793,1.07451 -4.09188,3.52281 -6.17969,5.23437 -0.84299,2.19405 -1.46366,0.15621 -2.72852,1.8086 -0.3195,1.9243 -1.81704,2.46596 -3.82031,2.59961 -0.50362,1.88979 -3.48876,0.2777 -5.52343,0.59375 0.62202,1.35732 -2.38689,3.2035 -2.3418,1.37304 -1.32323,-1.08611 0.86595,-3.01206 0.28515,-0.90234 0.85233,-1.08393 4.78342,-0.56734 5.16797,-2.78711 2.45555,-1.28048 4.34574,-3.09915 5.41407,-5.50586 -2.69201,0.46532 0.54786,-2.00716 1.78906,-1.67187 1.53044,-0.53267 -1.03728,1.00761 -0.9375,1.9082 1.14622,0.56621 2.3371,-2.58226 3.54492,-3.4082 -1.65808,-1.316 2.99375,-3.89987 2.30273,-4.40625 -1.88643,-1.42627 2.33091,-2.248 2.84375,-3.86524 -1.83503,-1.66838 2.78928,-3.06606 3.63086,-4.66406 -3.16093,0.27587 0.86517,-2.11637 1.35938,-3.17383 -1.12263,-1.11953 1.64351,-2.82901 2.10351,-4.70117 -0.98241,-1.06861 0.86179,-1.87232 1.76563,-3.40234 -0.40475,-1.35495 1.186,-2.26749 1.98828,-3.79297 -0.98234,-1.33269 1.37027,-1.88536 2.22656,-3.47071 -0.94764,-0.48995 -0.44838,-1.08489 0.625,-1.83593 1.30715,-2.43333 2.87504,-4.70517 4.54688,-6.96875 2.05198,-2.39134 4.07286,-4.83207 6.34375,-6.97852 1.93368,-2.36427 3.96564,-4.72359 6.73437,-6.05664 2.25559,-1.62674 5.57736,-2.77417 6.22657,-5.7832 -2.63127,2.66468 -6.10621,4.37334 -9.46485,6.00781 -2.67454,1.06266 -5.09828,2.6288 -7.45508,4.23633 -2.39229,1.16872 -4.27217,3.1748 -6.3457,4.85547 -1.7012,2.02314 -4.29521,2.79223 -6.27734,4.39648 -2.29062,1.54599 -4.55267,3.35251 -5.88477,5.86133 -1.66794,0.51444 -3.0911,2.48675 -4.96484,3.79101 -1.94442,1.65876 -3.57604,3.7469 -5.75782,4.96485 -1.42935,2.47954 -4.15281,3.63486 -5.07421,6.47461 -1.95604,0.94291 -2.84537,4.27078 -4.41797,4.93359 -0.24102,2.52891 -3.03293,4.48063 -5.13672,5.81836 0.82731,-0.95856 1.86413,-2.63017 2.65234,-3.87891 1.02499,1.8915 2.1938,-2.13442 1.11719,-2.41796 1.67781,0.22458 2.45016,-1.93713 3.09766,-2.38868 0.52402,-0.92371 0.62624,-1.51162 1.76953,-2.71093 1.20219,-1.94078 2.63726,-2.90954 2.86328,-5.14063 -1.6026,1.94798 -3.71327,3.45963 -5.88281,4.93945 -1.28631,2.3259 -3.6299,3.69092 -5.05274,5.99024 -1.57997,2.4525 -3.68471,4.70865 -6.16797,6.16015 3.07093,0.67925 -2.69273,1.42222 -3.31836,0.28907 2.7796,-1.08008 4.285,-3.13697 6.55664,-4.7461 0.42098,-0.98217 4.92537,-4.03868 2.0293,-2.87109 -1.35734,-0.45579 1.6593,-3.68854 2.63281,-4.74219 -1.00023,0.38053 -0.60164,-2.68595 1.04883,-4.38086 -2.07952,0.32361 0.45969,-2.62834 0.97266,-3.64648 -0.16514,-1.62933 0.70114,-3.24323 1.91992,-4.82813 -0.13943,-0.53986 -1.12238,-1.00373 0.0879,-2.21289 2.07892,-1.63392 -0.46358,-2.90526 1.5293,-4.19336 1.95193,-0.98813 -0.11516,-2.41284 1.33984,-3.28515 1.72764,-1.31739 0.0393,-2.37867 0.87695,-3.58985 2.08328,-1.61505 -0.21903,-3.38747 1.93946,-4.8164 1.15207,-2.79227 1.46287,-5.48719 3.2832,-7.8418 0.86612,-2.4209 3.05727,-4.48117 3.07617,-6.94727 1.53876,-2.16165 1.9324,-5.10079 2.99414,-7.59179 1.26792,-2.51199 2.8059,-5.41669 5.62305,-6.41016 -0.58171,-0.72261 -4.44038,0.36252 -5.74023,1.69727 -2.28771,1.37078 -3.77495,3.6586 -6.04297,4.8789 -1.8522,2.08371 -3.53348,4.08399 -4.80469,6.53125 -1.85756,1.49659 -2.70699,3.83373 -4.61914,5.33789 -0.57597,1.74146 -1.99661,2.43192 -2.69336,3.90235 -1.04412,1.1754 -1.48985,3.63485 -2.74023,4.08398 -0.38283,2.36381 -2.42335,2.18754 -2.6211,4.65625 -1.44558,1.75639 -2.3792,3.87114 -4.04492,5.41406 -0.90591,2.34917 -2.28455,4.64692 -3.53906,6.69727 -0.88392,2.52178 -1.89088,5.28305 -3.5586,7.20313 -0.54669,-1.84099 2.33964,-3.46862 1.69141,-5.83204 0.76566,-2.19552 -1.27117,0.60785 -1.20117,-0.75586 1.20166,-1.87157 1.57525,-3.66404 2.17968,-5.74023 1.36779,-1.42297 -0.0326,-1.69167 0.10743,-2.73242 1.84359,-2.083 0.72447,-4.56713 2.41601,-6.62109 0.0439,-1.44919 -0.1003,-2.88105 0.85156,-4.45508 0.48768,-2.88678 2.0665,-5.42412 3.07032,-8.14063 1.33932,-2.39235 2.38901,-4.97324 3.55664,-7.47265 1.15458,-2.26005 2.26353,-4.68762 4.22851,-6.42969 0.39894,-0.73868 4.46264,-2.85247 2.36719,-2.50195 -5.04939,2.39193 -8.81304,6.71505 -11.89258,11.26757 -1.45131,2.38507 -3.42317,4.37778 -4.75781,6.7793 -1.44244,3.01095 -5.21615,3.74043 -6.64453,6.62891 -1.865,2.44247 -3.23289,5.05781 -4.39063,7.85156 -1.28997,1.74842 -0.30559,0.10893 0.20118,-1.04883 0.0394,-2.28851 2.25791,-4.70203 2.46484,-6.96875 -2.63158,1.62146 -3.24122,5.18013 -4.82031,7.69336 -1.53627,3.50685 -3.82574,6.61054 -5.96094,9.76562 -1.71527,1.25617 -2.47622,4.5102 -4.82031,4.03321 1.74456,-1.17788 2.4672,-3.77076 4.11719,-5.46289 1.10167,0.63852 2.33544,-3.06406 1.66992,-2.78906 -1.75652,-0.1974 1.30633,-4.01912 1.45312,-5.46876 0.007,-0.0469 -1.11265,0.7798 -0.49219,-0.79492 2.22952,-1.70858 0.69657,-4.02465 2.19727,-6.05664 -0.35296,-2.44753 1.61091,-4.64391 2.1875,-7.29297 0.77935,-3.03139 2.30336,-5.66674 3.83203,-8.36132 1.52195,-2.6543 2.75655,-5.48809 4.01367,-8.21485 1.2911,-2.36886 2.44913,-5.01644 2.92383,-7.76172 0.34537,-2.93616 2.73482,-5.11734 4.34961,-7.20117 -3.23731,1.3696 -5.86631,3.96266 -8.10742,6.63477 -1.79305,2.17253 -3.10935,4.67415 -4.95899,6.68554 -1.08351,2.25969 -3.15939,3.85406 -4.20507,6.13086 -1.76873,1.7275 -2.79188,3.82815 -4.62891,5.51563 -1.52138,2.45979 -3.25977,4.7586 -4.43359,7.39453 -0.36055,2.696 -2.59142,3.85044 -3.11719,6.35547 -1.17726,2.35565 -3.25424,3.98041 -4.64258,6.21875 -2.2429,2.82079 0.25558,-1.00109 0.91992,-2.20117 1.13312,-3.44375 -1.51365,0.71869 -2.34961,1.54687 -1.21648,3.01751 -4.24159,3.75802 -6.58398,5.49219 -0.56989,2.45518 -2.05064,-0.0509 -0.64844,-1.20703 1.20735,1.02295 3.22717,-1.20546 4.27149,-2.6875 1.13019,-2.21399 3.08784,-3.53387 4.58398,-5.47461 -1.34975,0.0397 -0.29129,-3.05675 0.59375,-4.31641 -0.49412,-2.14948 0.0799,-3.60876 1.45703,-5.20312 -1.53552,-0.94739 0.55106,-4.2008 0.0254,-6.32032 0.5776,-2.91471 0.94951,-5.87374 2.16211,-8.7207 1.54136,-2.13711 0.4895,-4.29875 2.16016,-6.53711 1.33974,-2.40481 1.76881,-5.34322 2.35351,-8.04492 -0.11401,-2.70862 1.13129,-5.13314 1.25,-7.71289 -2.49399,0.13922 -3.91481,3.89221 -5.84765,5.42187 -0.58886,-1.34717 -1.72194,0.23492 -3.00196,0.28711 -3.66044,-0.48585 -7.33361,0.74869 -10.3457,2.78907 -1.43051,1.34199 -3.30189,1.81951 -3.85742,3.94336 -1.84543,2.17138 -4.39074,3.75594 -6.07617,6.16406 -1.66299,2.19419 -2.87125,4.57932 -4.25586,6.91797 -1.69143,1.81232 -2.33332,3.7647 -4.1211,5.54882 -0.51398,3.62872 -6.92849,1.70874 -5.47851,5.37891 0.32134,1.26341 0.58226,2.52602 -0.64453,0.83789 -0.95745,-0.5042 -2.3129,-4.66003 -1.20118,-3.95117 1.70599,1.27155 3.08972,-2.8455 4.41016,-3.71289 -0.13933,-1.69004 2.72775,-4.358 1.55078,-5.73633 -1.23205,-1.06405 1.21957,-4.34092 -0.34961,-6.14844 0.37415,-3.24288 -0.81924,-6.40216 -0.75,-9.63867 -0.20123,-2.77876 0.13909,-5.52568 1.15821,-8.10937 0.61518,-2.55077 1.60731,-5.08703 3.08398,-7.27149 0.29916,-1.4349 5.86054,-3.85635 2.31055,-2.59961 -4.63938,2.11704 -6.64524,7.11024 -8.70899,11.42188 -2.01382,3.40068 -2.11513,7.5027 -3.77734,11.0332 -1.12114,2.71288 -2.80321,5.10428 -4.01367,7.78516 -1.5301,1.612 -0.44019,0.13332 0.1914,-0.92774 1.13114,-2.75733 -0.90184,-0.41449 -1.39453,0.78125 -0.63114,2.79971 -3.80774,3.48433 -4.8457,5.66407 0.64872,2.49751 -1.24134,0.91623 -0.87695,-0.50782 -0.73717,-1.44737 0.94942,-3.66764 1.98632,-4.54687 -0.22691,2.63598 1.06197,-0.39327 1.1836,-1.36914 0.72431,-1.57052 0.0488,0.0581 -0.17969,-1.14649 0.54373,-0.28736 1.32678,-1.87608 0.50391,-3.29492 -0.70154,-2.60165 -0.0692,-5.51517 0.0195,-8.23242 0.12718,-3.04697 0.24897,-6.07009 0.0488,-9.11328 -0.33979,-3.38879 -1.29081,-6.69388 -2.78516,-9.74805 -2.5037,3.00485 0.50305,-4.91562 -1.64648,-3.16016 -1.44425,2.56893 -0.70421,5.68023 -1.51954,8.38672 0.23491,2.20176 -1.32733,4.51537 -1.01953,7.03321 -1.12739,1.13188 -0.0939,2.00212 -0.88867,3.54687 -0.52397,2.81113 -2.44332,4.83901 -3.6582,7.32227 -1.18418,2.51424 -2.09821,5.68163 -3.32617,7.86133 -0.13674,-2.69877 1.61748,-5.38339 1.06445,-8.33008 1.61452,-1.5997 -0.0727,-3.25241 0.4707,-4.88477 -0.0369,-4.2558 -0.58668,-8.47885 -1.42383,-12.65039 -0.29491,-3.21854 -1.79443,-6.09195 -3.58593,-8.71289 z"
       transform="scale(0.26458333)" />
    <path
       style="fill:none;stroke:#000000;stroke-width:2.64567;stroke-miterlimit:4;stroke-dasharray:none;stroke-opacity:1"
       d="m 263.77539,120.75 c 0.1652,0.23108 0.31179,0.47755 0.47266,0.71289 H 718.49219 V 751.96094 H 87.994141 V 121.46289 H 263.59766 c 0.0656,-0.23619 0.0983,-0.48008 0.17773,-0.71289 z"
       transform="scale(0.26458333)"
       id="path11296" />
    <path
       style="fill:none;stroke:#000000;stroke-width:2.64567;stroke-miterlimit:4;stroke-dasharray:none;stroke-opacity:1"
       d="m 71.759766,105.22461 v 662.9707 H 734.73047 v -662.9707 z"
       transform="scale(0.26458333)"
       id="path2210" />
    <path
       style="fill:none;stroke:#000000;stroke-width:0.7;stroke-miterlimit:4;stroke-dasharray:none;stroke-opacity:1"
       d="m -18.049713,244.56639 -0.21167,-0.0531 0.27517,-0.1446 c 0.16534,-0.0869 0.27516,-0.10795 0.27516,-0.0528 0,0.0505 0.044,0.0647 0.0978,0.0314 0.061,-0.0377 0.0747,-0.0232 0.0365,0.0387 -0.0337,0.0545 -0.0939,0.079 -0.13367,0.0544 -0.0398,-0.0246 -0.0848,0.006 -0.1,0.0671 -0.0183,0.0743 -0.0987,0.0941 -0.23924,0.0588 z"
       id="path2110" />
    <path
       style="fill:none;stroke:#000000;stroke-width:0.7;stroke-miterlimit:4;stroke-dasharray:none;stroke-opacity:1"
       d="m -18.200653,245.50551 c 0.0144,-0.0758 0.12894,-0.14596 0.26372,-0.16144 0.23166,-0.0266 0.23401,-0.0229 0.0839,0.13169 -0.18922,0.19499 -0.38206,0.21149 -0.34766,0.0297 z"
       id="path2108" />
    <path
       style="fill:none;stroke:#000000;stroke-width:0.5;stroke-miterlimit:4;stroke-dasharray:none;stroke-opacity:1"
       d="m 19.436447,309.79931 c -0.18427,-0.24589 -0.18925,-0.4283 -0.0135,-0.49574 0.20591,-0.079 0.2887,0.0156 0.2887,0.32989 0,0.36383 -0.0873,0.41647 -0.27517,0.16585 z"
       id="path1254" />
    <path
       id="path11187"
       style="fill:none;stroke:#000000;stroke-width:2.64567;stroke-linecap:round;stroke-linejoin:bevel;stroke-miterlimit:4;stroke-dasharray:none;stroke-opacity:1"
       inkscape:transform-center-x="5.4213011"
       inkscape:transform-center-y="-10.958247"
       d="m -2107.5,-948.05664 -123.6699,333.74219 a 413.90769,417.89959 0 0 0 -104.7774,85.91797 l -332.3164,84.10742 228.2559,180.47461 a 413.90769,417.89959 0 0 0 -0.4707,12.66797 413.90769,417.89959 0 0 0 93.414,264.207027 l -15.373,231.640623 170.0469,-113.26758 a 413.90769,417.89959 0 0 0 165.8203,35.32032 413.90769,417.89959 0 0 0 232.8398,-72.41016 l 181.0684,72.41016 -57.627,-205.457035 a 413.90769,417.89959 0 0 0 57.627,-212.443355 413.90769,417.89959 0 0 0 -15.1563,-111.94532 l 172.7149,-207.32031 -320.5508,-13.05664 a 413.90769,417.89959 0 0 0 -147.8242,-72.39844 z"
       transform="scale(0.26458333)" />
  </g>
</svg>
