<?xml version="1.0" encoding="UTF-8" standalone="no"?>
<svg
   xmlns:dc="http://purl.org/dc/elements/1.1/"
   xmlns:cc="http://creativecommons.org/ns#"
   xmlns:rdf="http://www.w3.org/1999/02/22-rdf-syntax-ns#"
   xmlns:svg="http://www.w3.org/2000/svg"
   xmlns="http://www.w3.org/2000/svg"
   xmlns:sodipodi="http://sodipodi.sourceforge.net/DTD/sodipodi-0.dtd"
   xmlns:inkscape="http://www.inkscape.org/namespaces/inkscape"
   width="210mm"
   height="297mm"
   viewBox="0 0 210 297"
   version="1.1"
   id="svg2396"
   inkscape:version="1.0.2-2 (e86c870879, 2021-01-15)"
   sodipodi:docname="swordfern_20230413_165705743.svg">
  <metadata
     id="metadata15">
    <rdf:RDF>
      <cc:Work
         rdf:about="">
        <dc:format>image/svg+xml</dc:format>
        <dc:type
           rdf:resource="http://purl.org/dc/dcmitype/StillImage" />
      </cc:Work>
    </rdf:RDF>
  </metadata>
  <sodipodi:namedview
     id="namedview2398"
     pagecolor="#ffffff"
     bordercolor="#666666"
     borderopacity="1.0"
     inkscape:pageshadow="2"
     inkscape:pageopacity="0.0"
     inkscape:pagecheckerboard="0"
     inkscape:document-units="mm"
     showgrid="false"
     inkscape:zoom="0.14456852"
     inkscape:cx="-451.92953"
     inkscape:cy="-213.01827"
     inkscape:window-width="1128"
     inkscape:window-height="682"
     inkscape:window-x="-6"
     inkscape:window-y="-6"
     inkscape:window-maximized="1"
     inkscape:current-layer="layer1"
     inkscape:document-rotation="0" />
  <defs
     id="defs2393" />
  <g
     inkscape:groupmode="layer"
     id="layer2"
     inkscape:label="trace"
     style="display:inline">
    <path
       style="fill:none;stroke:#000000;stroke-width:0.3;stroke-linecap:round;stroke-linejoin:round;stroke-miterlimit:4;stroke-dasharray:none;stroke-opacity:1"
       d="m -128.22218,285.35996 c 0.58294,-0.63295 1.14249,-1.40332 1.34175,-2.30222 0.19808,-0.46849 -0.0126,-1.09417 0.45026,-1.08885 0.32372,-0.84641 0.33328,-1.763 -0.19846,-2.5234 -0.0695,-0.31219 -0.69815,-1.32106 -0.43947,-1.31908 0.21461,0.43571 0.93399,1.8568 0.9272,0.56171 0.2433,-0.63637 -1.00978,-1.72707 -0.27699,-1.89725 0.63564,-0.0431 0.75849,1.88576 1.24623,0.68154 -0.0261,-0.91096 0.73667,-1.59866 0.30662,-2.53403 -0.0413,-0.43655 -0.45721,-1.41869 -0.29343,-1.53825 0.2898,0.24044 0.7198,1.75982 0.75925,0.69893 0.0763,-0.17369 -0.16135,-1.45308 0.12368,-0.84357 0.26445,0.70903 0.29372,0.009 0.38452,-0.39539 0.18431,-0.93707 0.42877,-1.85407 0.69208,-2.76867 0.15758,-0.93879 0.26595,-1.87494 0.009,-2.8163 -8.8e-4,-0.60792 -0.63808,-1.62582 -0.40147,-1.9117 0.33253,0.5809 0.59796,1.72637 1.25631,1.80168 0.26886,-0.99269 0.74265,-2.11552 0.14363,-3.08262 -0.51719,-0.37422 -0.0895,-1.90743 0.3283,-0.94514 -0.0643,0.42322 0.0653,1.83385 0.33336,0.7066 0.15533,-0.89173 -0.10382,-1.87399 0.39888,-2.68475 -0.11334,0.37647 -0.0676,1.20881 0.15922,0.3535 0.39765,-1.16732 0.33661,-2.44775 0.84616,-3.57768 0.25471,-0.69126 -0.28207,0.02 -0.54995,0.15851 -0.62379,0.47561 -1.42526,0.58788 -2.02914,1.0919 -0.24327,-0.54409 -0.83976,-0.62619 -1.31933,-0.33452 -0.82,0.16028 -1.63121,0.68066 -2.475,0.49975 0.10393,-0.12626 0.79396,-0.42316 0.0968,-0.37961 -0.81634,0.19876 -2.08382,0.86579 -2.73399,0.49486 -0.61338,-0.31981 -1.69325,0.50885 -2.525,0.45086 -0.53183,0.17286 0.27658,-0.72486 -0.53749,-0.24298 -0.87933,0.1873 -1.7678,0.38305 -2.66613,0.43396 1.05588,-0.6985 -0.60068,0.0421 -1.08606,-0.0739 -0.76246,0.15717 -1.31456,-0.14966 -1.8798,-0.24079 -0.523,-0.0308 -1.8917,0.63367 -1.48206,-0.23935 -0.9947,0.0361 -1.98991,0.30867 -2.99071,0.25096 1.05874,-0.68578 -0.81736,-0.59074 -1.27649,-0.63708 -0.44622,-0.15774 -0.61235,-0.64683 -1.2693,-0.45832 -0.44646,-0.0327 -1.41252,-0.0645 -0.65523,-0.4633 -0.42479,-0.30166 -1.75566,-0.26966 -1.71458,-0.73562 1.04736,-0.17978 -1.1728,-0.44458 -0.97162,-1.12575 -0.27643,-0.3269 -1.93333,-1.47187 -0.71373,-1.22438 0.84872,-0.0622 0.52365,-1.05634 1.48961,-0.88884 0.4789,-0.51756 1.32624,-0.397 1.68487,-0.88429 0.97611,0.23135 1.10752,-0.78405 2.06321,-0.71219 0.73171,-0.22826 1.31752,-0.62011 2.18296,-0.47728 0.69147,-0.75608 1.89053,-0.0488 2.65781,-0.73764 -0.13415,-0.46275 1.26308,0.0381 1.58059,-0.36249 0.60221,0.26056 0.30101,-0.63258 1.05941,-0.37365 0.76332,0.11431 1.47181,-0.13191 1.93975,-0.60343 0.77496,-0.0717 2.02273,-0.0697 2.18065,-0.63958 0.87742,-0.0895 1.67719,0.33075 2.36131,-0.32613 1.08008,0.26681 1.88914,-0.42768 2.91505,-0.55114 0.90349,0.0219 1.36749,-0.7908 0.5731,-1.34558 0.23308,0.15825 1.15212,0.59315 1.68227,0.20144 0.5878,-0.0807 1.2627,0.3022 1.1391,-0.61131 0.57785,0.55309 0.31611,-1.21066 0.89591,-1.23289 0.3254,-0.63602 0.63884,-1.77678 -0.24318,-1.69754 -0.8459,-0.057 -1.88673,0.24876 -2.62064,-0.0192 0.67414,-0.20845 -0.98598,-0.0256 -1.19823,-0.0516 -0.32498,0.0442 -2.12701,0.16961 -1.01501,-0.21248 -1.00586,-0.12187 -2.04761,0.0828 -3.06837,0.0452 1.20684,-0.49722 -0.73912,-0.2393 -1.19417,-0.27373 -0.68714,0.0577 -1.44869,0.20044 -0.58431,-0.37196 -0.39495,-0.0509 -1.02621,-0.003 -1.49077,-0.10025 -0.95441,-0.0734 -1.54019,-0.64654 -2.50257,-0.6898 -0.72846,-0.18795 0.64881,-0.18989 -0.11579,-0.40801 -0.63651,-0.23476 -1.5192,-0.33775 -1.32399,-0.90845 -0.41701,-0.11625 -1.74665,-0.97697 -0.76066,-0.79891 -0.34254,-0.50593 -0.87734,-0.68551 -0.80018,-1.09536 0.0155,-0.20457 -1.09577,-0.99531 -0.58221,-0.80155 0.73641,0.44995 1.47334,-0.0711 2.17266,-0.33913 0.58646,-0.20044 -0.78538,-0.85389 0.14381,-0.55947 0.63202,0.31611 0.99549,-0.21363 1.31733,-0.40799 0.53462,0.12463 0.93581,0.0123 0.94479,-0.23781 0.9823,0.0992 1.87558,-0.31053 2.83696,-0.41392 0.71688,-0.50947 1.80604,-0.11067 2.52472,-0.66826 1.07246,0.21935 1.77704,-0.63748 2.87043,-0.33608 0.84337,-0.37877 1.87053,0.0143 2.73819,-0.31965 0.72607,0.039 1.71284,0.32024 1.91659,-0.34718 0.77667,-0.0205 1.94358,0.52153 2.34126,-0.29894 0.38671,0.15637 0.96641,-0.79918 0.53756,-0.91849 -0.70363,-0.35624 -1.53569,-0.53495 -2.1418,-1.0177 -0.0605,-0.33797 -1.47409,-0.21398 -2.03121,-0.44521 -0.3767,-0.0581 -0.6596,0.004 -0.27195,-0.25882 -0.92983,-0.10511 -1.93483,0.32582 -2.86154,-0.0276 0.44423,-0.22659 -1.06535,-0.0629 -1.35444,-0.16057 -1.12512,-0.20777 -2.26454,-0.32775 -3.40123,-0.46111 -0.0286,-0.45517 -1.44747,-0.39767 -2.10125,-0.49691 -0.2596,-0.58921 -1.95544,-0.26414 -1.81217,-0.79053 -0.0669,-0.36558 -1.59036,-0.21555 -2.06384,-0.70912 0.18176,-0.13623 1.28937,0.13952 0.35109,-0.19512 -0.44085,-0.1446 -1.62638,-0.47527 -1.07304,-0.67764 -0.90211,-0.24038 -1.15852,-1.14484 -1.66823,-1.86884 -0.50091,-0.45416 -0.16347,-0.42341 0.34716,-0.46765 0.57122,-0.26573 1.12824,-0.60219 1.42323,-0.97765 0.50762,0.17797 1.24448,0.0516 0.84751,-0.54447 0.58751,0.27926 1.3418,0.34266 1.47362,-0.0737 0.91682,0.28892 1.85645,0.0793 2.76653,0.0442 0.53895,-0.33421 1.65349,0.4056 1.97607,-0.23538 0.80427,-0.25712 1.62014,0.51333 2.26283,-0.18923 0.82705,0.20104 1.56398,-0.0998 2.24431,-0.11595 0.91478,0.30444 1.83967,0.0234 2.72539,0.34711 0.92847,0.0324 2.14403,0.41741 2.89111,0.30022 0.64205,0.29444 0.16138,-0.71521 0.69455,-0.24066 0.55089,0.0378 1.3793,0.37968 1.75626,0.20699 -0.89992,-0.53468 -1.81063,-1.17786 -2.77679,-1.55089 -1.6673,-0.34196 -3.27225,-1.01035 -4.9969,-1.04038 -0.41059,0.0684 -0.46356,-0.26517 -0.0889,-0.24697 -1.79958,-0.0554 -3.619,-0.0488 -5.39389,-0.37903 -0.5047,-0.15519 0.59069,-0.11347 -0.10569,-0.20112 -0.5328,-0.11392 -1.95082,-0.15291 -1.86656,-0.32667 0.64143,-0.26334 -0.93848,-0.23371 -1.15993,-0.3696 -0.45568,-0.10008 -0.90667,-0.22 -1.35986,-0.3306 0.3535,-0.0324 1.18687,-0.12229 0.32407,-0.17344 -0.49658,-0.0312 -1.94602,-0.31572 -1.49268,-0.60508 -0.29583,-0.27484 -1.61587,-0.26324 -1.44081,-0.55901 1.09052,0.0125 -0.89231,-0.57291 -1.13645,-0.89699 0.82405,-0.23756 -0.8774,-0.69301 -0.83367,-1.29363 -0.26851,-0.44892 -1.48291,-0.99337 -0.34656,-0.62658 0.65252,0.27528 1.14904,-0.42835 1.39246,-0.68898 0.69453,0.0126 1.04798,-0.6181 1.83971,-0.50585 0.063,-0.92736 1.55949,0.34795 1.52299,-0.71003 0.89207,0.45603 1.67918,-0.11664 2.57194,0.17844 0.47173,-0.0258 0.4796,-0.51097 1.03034,-0.13425 0.72467,0.36478 0.81916,-0.48968 1.57069,0.0134 0.90987,0.37721 1.49289,-0.34995 2.402,0.11326 0.70251,0.11045 1.11897,-0.39885 1.88253,1.3e-4 0.87674,-0.0245 1.69039,-0.17506 2.57982,0.15809 0.57573,-0.26274 1.40365,0.002 2.21528,0.18288 0.84959,0.002 1.80171,0.59977 2.60832,0.36706 0.0361,-0.54895 0.95577,0.30217 1.40983,0.10899 0.41872,0.44021 1.88047,0.26669 1.46551,-0.37943 -1.10322,-0.31286 -2.29323,-0.5797 -3.17962,-1.35244 -0.97322,-0.35252 -2.02635,-0.46263 -3.01728,-0.76422 -0.59972,-0.42303 -1.61083,-0.0857 -2.36343,-0.28287 0.89264,-0.426 -0.82667,-0.25847 -1.18456,-0.31101 -1.00094,0.11425 -1.90102,-0.32605 -2.89192,-0.26343 -0.71705,-0.12428 -1.39229,-0.23876 -2.28369,-0.22579 -0.63432,-0.0387 -0.1447,-0.40795 -0.88748,-0.17668 -0.94712,0.17176 -1.83003,-0.17703 -2.74791,-0.23782 -0.48336,0.0648 -0.7086,-0.21838 -0.12625,-0.31575 -0.73849,-0.22456 -1.77048,-0.20629 -1.96831,-0.7228 -0.7621,-0.0407 -1.11121,-0.76038 -1.74585,-1.0341 0.28258,-0.3376 -0.72755,-0.44392 -0.61214,-0.97977 -0.30135,-0.44934 -1.04823,-1.02059 0.002,-0.85261 0.72772,-0.36602 1.24737,-0.9402 2.02866,-1.03927 0.27417,-0.49319 2.16805,0.07 1.24323,-0.68749 0.65497,0.0668 1.69885,0.49154 1.77076,-0.12602 0.44977,0.10954 1.33256,0.63714 1.36171,0.0973 0.54934,0.18872 2.07103,0.24447 1.17132,-0.20024 0.63485,-0.14026 2.00042,0.3414 2.18159,-0.26061 -0.7308,-0.64803 1.34667,0.25896 1.84657,0.0454 0.82837,0.15323 -0.20499,-0.52838 0.53887,-0.33377 0.80183,0.0951 1.63642,0.26076 2.12591,-0.0662 0.39047,-0.0665 1.56883,0.7375 1.27094,0.0362 0.77096,0.31917 1.67966,0.38928 2.48753,0.60371 0.57455,-0.11353 1.59223,0.0479 2.30172,0.005 -1.08459,-0.54601 0.95536,0.15464 1.30362,0.18448 0.6565,0.23153 1.31132,0.0565 1.62661,-0.53589 0.48643,0.19563 0.7683,-0.87814 -0.0287,-0.6929 -1.18307,-0.38845 -2.20999,-1.14417 -3.37982,-1.5392 0.99039,-0.11362 -0.72557,-0.48454 -1.01226,-0.48517 -0.96472,-0.26137 -1.80624,-0.82261 -2.83365,-0.90075 -1.09738,-0.38139 -2.28354,-0.35045 -3.3824,-0.69994 -0.96705,-0.33078 -2.0957,-0.0842 -3.04317,-0.24815 0.67667,-0.26314 -0.897,-0.13792 -1.13457,-0.1504 -0.86517,-9.9e-4 -1.65731,-0.29505 -2.54541,-0.23608 -0.53819,-0.0568 -0.32447,-0.59008 -1.03549,-0.39036 -0.90578,0.0619 -1.41156,-0.58207 -2.31017,-0.61343 -0.36723,-0.0876 -0.79771,-0.22319 -0.23486,-0.28065 -0.86022,-0.20828 -1.24424,-0.82081 -1.8057,-1.42185 -0.4217,-0.14961 -0.48976,-0.23622 -0.22575,-0.46732 -0.10912,-0.2956 -0.95707,-0.82254 -0.82971,-0.91111 0.54959,0.30763 1.91073,-0.055 1.78729,-0.55065 0.85177,-0.12605 1.56434,-0.50681 2.44522,-0.56709 -0.48512,-0.91931 1.57162,0.29003 1.57298,-0.61303 0.58723,0.27077 1.61139,0.12077 1.63307,-0.1325 0.40923,-0.0112 1.99235,0.55039 1.37325,-0.24656 0.80452,0.28934 1.78856,0.36671 2.45249,0.0275 0.51663,-0.008 1.83434,0.49581 1.52098,-0.18712 0.78893,-0.12101 1.79484,0.83607 2.3057,0.16659 0.66696,-0.002 1.95743,0.72062 2.28027,0.35239 0.18662,-0.3117 1.43003,0.57385 2.03556,0.54398 0.34095,-0.28718 1.53194,0.3736 2.21725,0.2927 0.41079,0.0497 0.92,0.12296 0.26366,-0.12322 -0.71836,-0.31539 -1.31173,-0.89349 -2.13756,-0.91743 -0.5805,-0.11732 -1.85333,-0.24935 -2.0382,-0.42785 0.93423,-0.14367 -1.07304,-0.22057 -1.41807,-0.25806 -1.04303,-0.1936 -2.12628,-0.20994 -3.1559,-0.42195 -0.65352,-0.26583 -1.8609,-0.0792 -2.71834,-0.26667 0.15316,-0.15866 0.72906,-0.29559 0.008,-0.26377 -1.3525,-0.002 -2.66954,-0.40794 -4.02772,-0.34789 -0.56683,0.0216 -0.0303,-0.27786 -0.77034,-0.18586 -0.92369,0.0768 -1.60209,-0.38809 -2.48349,-0.49776 -0.41746,-0.36282 -1.45235,-0.40595 -1.66629,-0.6287 0.47928,-0.61379 -1.45742,-0.3394 -1.0883,-1.04173 -0.22629,-0.39891 -1.30888,-0.53444 -0.49622,-0.66712 -0.2653,-0.36163 -0.54171,-1.11247 -0.50372,-1.34254 0.87984,0.0301 1.53743,-0.55395 2.36552,-0.6646 0.74454,-0.12553 1.61423,-0.18106 2.25864,-0.39673 -0.39379,-0.57761 1.25965,0.48085 1.5402,-0.18715 0.48999,-0.13717 1.83693,0.52309 1.18999,-0.39139 0.78321,0.32436 1.63768,0.48593 2.17593,0.13011 0.46192,0.037 1.774,0.38316 1.32866,-0.20246 0.75274,0.12787 1.85582,0.58545 2.4487,0.21659 -0.41664,-0.33568 -0.74205,-0.56491 0.007,-0.25394 0.73508,0.28359 1.74883,0.5823 2.19582,0.21405 0.82441,0.32598 1.70043,0.14899 2.54212,0.28257 0.54849,0.0886 0.96806,0.43329 1.31339,0.14183 0.38336,0.17689 1.75261,0.67782 1.61828,0.12492 -0.82449,-0.55768 0.68692,0.31646 0.99789,0.15102 0.84287,0.14657 1.61894,-0.0165 2.29931,-0.2263 0.71263,-0.37717 -0.32238,-0.27608 -0.60461,-0.43471 -1.09637,-0.29949 -2.14739,-0.76014 -3.13684,-1.3025 -1.26026,-0.25399 -2.45197,-0.87782 -3.76902,-0.76527 -0.72127,-0.10422 -1.07452,-0.4653 -1.99033,-0.31832 -0.97205,0.0651 -1.64167,-0.30118 -2.53129,-0.26272 -0.65101,-0.005 -1.3096,-0.017 -1.94259,-0.1842 0.91409,-0.18469 -0.86051,-0.18616 -1.09465,-0.19641 -0.42016,0.001 -1.70233,0.0978 -0.92215,-0.26185 -0.81986,-0.0279 -1.89524,-0.0717 -2.32238,-0.35044 -0.6139,-0.10032 -1.57603,-0.0976 -1.57005,-0.48738 -0.2791,-0.21869 -1.88366,-0.18697 -1.09645,-0.56366 -0.80128,-0.31913 -1.34751,-0.92983 -1.9059,-1.53063 0.0517,-0.36529 -1.15799,-0.81513 -0.38647,-0.66872 0.70499,0.2236 1.12022,-0.32617 1.62844,-0.64243 0.85115,-0.0519 1.34064,-0.6754 2.24617,-0.6448 0.86673,-0.19882 1.73483,-0.29468 2.58762,-0.41094 0.0345,-0.50998 1.29071,0.12837 1.79852,-0.0377 0.65521,0.11088 -0.53542,-0.70151 0.26964,-0.31248 0.61653,0.19578 1.28309,0.36281 1.67585,-0.0136 0.77677,0.0614 1.74229,0.27695 2.1853,-0.0413 0.58711,0.0604 1.59181,0.46642 1.79803,-0.12325 0.71878,0.0569 1.65102,0.41564 2.23093,0.25765 -0.33982,-0.7232 1.33192,0.3615 1.71735,0.13183 0.35576,-0.22603 1.28453,0.3012 1.3909,-0.10813 -1.07042,-0.25206 -2.15998,-0.4758 -3.1657,-0.9202 -0.56686,-0.18977 -1.74019,-0.1207 -1.6753,-0.55107 -0.90553,-0.25144 -2.15393,-0.26704 -2.90092,-0.37849 0.58537,-0.0615 0.72085,-0.34854 0.0442,-0.18903 -0.60814,-9.3e-4 -1.56634,0.0898 -1.97737,-0.1865 0.57385,-0.31769 -0.91365,-0.0931 -1.16506,-0.17255 -0.49183,-0.0851 -1.5321,0.0351 -1.70186,-0.32463 0.40333,-0.1484 -1.02052,-0.14629 -1.2852,-0.26359 -0.79238,-0.079 -0.63313,-0.52616 -1.51196,-0.45492 -0.9102,-0.17106 -1.48016,-0.35006 -2.1252,-0.8951 -0.4499,-0.4191 -1.14955,-0.28827 -1.13434,-0.79433 -0.79256,-0.3937 -1.05982,-1.13294 -1.49964,-1.80662 -0.31714,-0.2835 -0.5514,-0.52836 0.0364,-0.38995 0.78131,0.16155 1.3593,-0.43493 2.11835,-0.49795 0.50563,-0.16084 1.00023,-0.21431 1.55056,-0.0821 -0.45483,-1.03623 0.98803,0.12334 1.38964,-0.43752 0.51706,-0.21311 2.0637,0.50564 1.73153,-0.32292 0.69272,0.17823 1.97017,0.79278 1.75371,0.0508 0.5498,0.20213 1.62019,0.95589 1.96455,0.51387 0.008,-0.47939 1.23985,0.33869 1.70162,0.26401 0.74525,-0.35809 1.60643,0.13589 2.39677,0.29258 0.0867,-0.37019 -0.40715,-0.83565 0.23534,-0.40391 0.84272,0.58282 1.68801,0.5085 2.60721,0.63688 0.92273,0.34214 1.38485,0.0411 2.26719,0.298 0.91665,0.42232 1.73414,-0.11044 2.59456,0.44781 0.81411,0.25024 1.64742,0.28618 2.44567,0.40263 0.34908,-0.55057 -1.24253,-0.46015 -1.62197,-0.70565 -1.21943,-0.19414 -2.27293,-0.88003 -3.44879,-1.19949 1.02265,-0.33778 -0.92419,-0.58892 -1.23763,-0.90995 -0.76611,-0.89651 -1.97544,-0.72156 -3.01828,-0.89093 -0.98965,-0.37724 -2.06715,-0.35972 -3.0887,-0.57565 0.89959,-0.44872 -1.25093,-0.004 -1.64351,-0.34311 -0.40674,-0.12365 -0.98535,0.16915 -0.67012,-0.34677 -1.0948,0.0148 -2.18762,-0.0888 -3.26707,-0.29546 -0.52874,-0.0139 -1.2691,-0.10703 -0.6824,-0.41761 -0.83625,-0.20717 -1.70511,-0.08 -2.26076,-0.73486 -0.46774,-0.19539 -1.77024,-0.40608 -1.07852,-0.68058 -0.32567,-0.28697 -1.80829,-0.6619 -1.1213,-0.80323 -0.82361,-0.49523 -1.29229,-1.29494 -1.73215,-2.12881 -0.36866,-0.4541 -0.39885,-0.76525 0.24192,-0.45358 0.44614,-0.0345 1.52126,-0.38382 1.49698,-0.51242 -0.92128,-0.18958 -1.6258,-0.70036 -2.35958,-1.28097 -0.66707,-0.46085 0.80468,-0.12926 0.89257,-0.71015 0.72435,-0.47615 1.47777,-0.82665 2.28162,-1.08734 0.16199,-0.37156 1.38034,-0.32829 1.87539,-0.74352 0.64486,0.0535 0.90414,-0.67215 1.69609,-0.39452 0.67451,-0.40755 1.71145,-0.26094 2.32213,-0.62608 0.15704,-0.50008 1.58583,-0.0303 2.192,-0.27157 0.88443,-0.0238 1.61545,-0.1385 2.4632,-0.19173 0.97292,0.21052 1.84079,-0.2924 2.79142,0.0159 0.24991,0.0739 1.17535,0.16572 0.71925,-0.2713 0.66989,-0.0246 1.72859,0.57521 2.16999,0.19707 0.41894,-0.27219 1.57843,0.36788 2.21431,0.25249 -0.1073,-0.58087 0.66632,0.29969 0.78393,-0.41785 0.42906,0.51876 0.87403,-0.12749 0.11432,-0.14421 -1.13053,-0.26609 -2.17467,-0.78007 -3.25993,-1.17144 -0.78317,-0.11402 -0.072,-0.11223 -0.0271,-0.37847 -0.8982,-0.49593 -2.05261,-0.54005 -2.91527,-1.14876 -0.8399,-0.31329 -1.93198,-0.20231 -2.65258,-0.63573 -0.84908,-0.14507 -1.83024,-0.0914 -2.61796,-0.0653 0.41938,-0.56928 -1.12523,-0.11323 -1.48685,-0.25988 -1.04238,0.0232 -1.97217,-0.48239 -3.01694,-0.43443 -0.88247,-0.2386 -1.80834,-0.28792 -2.70007,-0.46516 -0.09,-0.59464 -1.46255,0.10952 -1.6578,-0.59102 -0.49443,-0.41517 -1.49325,0.27168 -1.27084,-0.57005 -0.84141,-0.0696 -1.55178,-0.60705 -2.13463,-1.14645 -0.60335,-0.40176 0.0214,-0.43397 -0.60784,-0.9237 -0.8116,-0.71292 1.08263,0.16205 1.37288,-0.58905 0.83844,-0.20083 1.66651,-0.37958 2.46806,-0.59322 0.89504,0.17427 1.68931,-0.21497 2.58371,-0.19176 0.40921,-0.64217 1.34301,0.10584 2.07241,-0.14374 0.26181,-0.49894 2.0858,0.70958 1.68395,-0.21753 0.0292,-0.16648 0.99115,0.47836 1.43038,0.25591 0.86726,0.006 1.71413,0.23577 2.61433,0.30631 0.87696,-0.32115 1.8007,0.073 2.74408,0.12178 0.12161,-0.50078 1.8291,0.89318 1.94605,0.21059 -0.6751,-0.53109 -1.18785,-0.9587 -2.12629,-1.05655 -0.96571,-0.43097 -2.03444,-0.43022 -3.0308,-0.73336 -1.77188,-0.53337 -3.67641,-0.45359 -5.45235,-0.97438 -0.75278,-0.61416 -1.87052,-0.17591 -2.62356,-0.74974 -0.87572,-0.0594 -1.81468,-0.18088 -2.50068,-0.70355 -0.40656,-0.0428 -1.88747,-0.5353 -1.55762,-0.63923 -0.39573,-0.51494 -1.64439,-0.68881 -1.47587,-1.24238 -0.87076,-0.44062 -1.15514,-1.40268 -1.8359,-2.05151 -0.36803,-0.25993 -0.83637,-0.56228 -0.0688,-0.38733 -0.18438,-0.3485 -0.57241,-1.42362 -0.57005,-1.45626 0.38543,0.48539 1.87533,0.34144 0.79609,-0.22831 -0.48276,-0.2202 -1.61481,-1.62256 -0.44134,-1.22379 0.88515,-0.39477 1.79555,-0.58685 2.77461,-0.68524 0.34679,-0.61451 1.28115,-0.22018 1.93732,-0.56836 0.98396,0.0917 1.79329,-0.33669 2.6293,-0.40288 0.75722,0.27897 0.64831,-0.64809 1.38206,-0.22359 0.55436,-0.0211 1.74288,0.35023 1.9334,-0.0891 -0.49807,-0.35867 0.98323,0.22461 1.36625,0.20221 0.91024,0.0356 1.84005,-0.0804 2.72998,0.23275 0.0901,-0.62969 1.35699,0.15532 1.91911,0.16451 0.682,-0.241 1.51604,0.0544 2.25734,0.16154 1.02619,0.062 2.07083,0.16341 3.09233,0.026 0.25245,-0.16922 1.21525,0.19658 0.5607,-0.26891 -1.5229,-0.52182 -3.11945,-0.85542 -4.54768,-1.63053 -0.97902,-0.36762 -2.03961,-0.43096 -3.04478,-0.71589 -0.85917,-0.22456 -1.84827,-0.0734 -2.61076,-0.56011 -1.11859,0.0977 -2.25347,-0.11881 -3.34639,-0.33441 -0.91899,-0.0506 -1.84466,-0.0366 -2.73624,-0.27031 -1.0692,0.042 -2.07061,-0.3251 -3.13479,-0.31118 -0.6576,-0.34545 -1.74534,-0.15782 -2.21443,-0.65383 -0.60617,-0.28025 -1.45397,-0.58121 -2.10149,-0.99814 -0.75201,-0.34333 -1.2731,-0.99166 -1.58121,-1.73781 -0.61048,-0.59657 0.82529,0.0648 1.10055,-0.31059 0.71424,-0.35801 1.47254,-0.44908 2.26198,-0.53192 0.82051,-0.17809 1.73743,-0.24986 2.60757,-0.31553 0.57364,-0.45078 1.66976,0.27719 2.00242,-0.3426 0.86518,0.20628 1.56876,-0.0399 2.24635,-0.07 1.1667,0.0724 2.36079,-0.0854 3.48606,0.31245 0.76369,0.27481 0.80909,-0.31157 1.59172,0.0532 0.60544,0.16248 1.28665,0.58117 1.59312,0.25913 0.90423,0.4734 1.89214,0.2039 2.81001,0.59821 0.33415,0.15577 1.83405,0.48001 0.80696,7.5e-4 -1.00409,-0.3279 -1.85669,-1.03616 -2.93261,-1.14263 -1.21019,-0.30347 -2.40828,-0.6114 -3.65567,-0.73662 -0.94528,-0.43463 -2.05771,0.0501 -3.00421,-0.40924 -0.88569,-0.2772 -1.92776,0.0444 -2.79015,-0.44064 -1.05364,-10e-4 -1.89387,-0.57328 -2.93665,-0.58076 -0.53279,-0.38016 -1.45331,-0.29122 -2.02401,-0.71935 -0.63453,-0.12283 -1.65837,-0.79599 -1.83009,-1.26882 -0.0544,-0.36204 -1.34065,-0.57877 -0.45237,-0.54429 0.85285,-0.0916 1.51817,-0.76444 2.40742,-0.80194 1.01551,-0.17616 1.98689,-0.64016 3.01887,-0.64959 0.88475,-0.12038 1.83873,0.006 2.70598,-0.19233 0.75941,0.11638 1.5162,0.0499 2.23951,-0.0378 0.83845,0.30236 1.58724,0.10314 2.36223,0.32906 0.87851,0.26714 1.63004,-0.0225 2.47667,0.27665 0.88265,0.41305 1.42563,0.15357 2.24153,0.49152 0.44162,0.2148 1.0775,0.2647 1.23534,0.0324 0.73612,0.43907 1.54752,0.37899 2.31002,0.50542 0.66474,0.15828 1.47215,-0.72772 0.43167,-0.78732 -2.10068,-0.51152 -4.29196,-0.67549 -6.30406,-1.51791 -0.91163,-0.36226 -1.9765,-0.20921 -2.84214,-0.67174 -1.0854,-0.0483 -2.17039,-0.0951 -3.22291,-0.38847 -0.97381,0.058 -1.92877,-0.086 -2.86471,-0.18537 -0.90879,0.18852 -1.80439,0.0395 -2.69393,-0.0654 -1.0255,-0.0852 -2.04772,-0.1311 -3.04554,-0.31273 -0.76676,-0.26659 -1.71491,-0.44596 -2.54154,-0.72239 -0.50486,-0.48368 -1.25954,-0.67075 -1.77227,-1.24032 -0.30312,-0.28504 -1.04944,-0.56787 -0.20409,-0.59922 0.96302,-0.51929 2.06134,-0.67618 3.10699,-0.94092 0.96876,0.0159 1.90795,-0.20214 2.78015,-0.44087 0.9503,-0.0564 1.93432,0.006 2.85872,-0.22843 0.11183,-0.56467 1.78732,0.40066 1.79197,-0.36491 0.67783,0.16331 1.50474,0.22442 2.24668,0.13376 0.9318,0.24646 1.9243,-0.0123 2.78784,0.22089 0.98354,0.31506 1.98025,-0.12703 2.95368,0.19866 0.89883,-0.1105 1.76987,0.0507 2.74017,0.17449 0.72951,0.0921 1.15078,-0.1216 1.82772,0.10194 0.40434,-0.32496 -1.10394,-0.32722 -1.37686,-0.47765 -1.95225,-0.34602 -3.94094,-0.65448 -5.74743,-1.51327 -1.06007,-0.2486 -2.11491,-0.57044 -3.19692,-0.70759 -1.03457,-0.14419 -1.92614,-0.5928 -3.02125,-0.47546 -0.95239,-0.18116 -1.9137,-0.16899 -2.87807,-0.17586 -1.29812,-0.30695 -2.70658,-0.03 -3.98108,-0.48296 -0.89506,-0.29426 -1.94672,-0.43666 -2.6564,-1.11313 -0.66903,-0.28831 -0.87948,-1.12549 -1.6321,-1.46786 0.77065,0.30852 1.70334,-0.42242 2.63253,-0.41539 0.48813,-0.33258 0.95096,-0.51102 1.65796,-0.45652 0.38104,-0.74008 1.38523,0.14891 1.9933,-0.46013 0.70769,-0.0575 1.6545,0.0906 1.98467,-0.30395 0.86278,0.27603 1.69069,-0.10832 2.54669,0.0424 0.90198,0.0924 1.82521,0.03 2.71172,0.23331 0.41608,0.17645 0.67075,-0.53578 1.21351,-0.0694 0.41468,0.17184 1.52722,0.7114 1.56571,0.1456 -0.89662,-0.55471 -2.0319,-0.53778 -3.04602,-0.73605 -1.58293,-0.25947 -3.18354,-0.20038 -4.7783,-0.14961 -0.88958,-0.28604 -1.81565,0.005 -2.72912,-0.11856 -0.97847,-0.0368 -1.92012,-0.015 -2.88392,-0.14376 -0.87292,0.0301 -1.62325,-0.41845 -2.5039,-0.50379 -0.80201,-0.37652 -1.64736,-0.60798 -2.40859,-1.03703 -0.43355,-0.24093 -1.32926,-1.01801 -1.13077,-1.307554 0.9004,-0.275233 1.82103,-0.502429 2.72153,-0.757031 0.91447,-0.225163 1.87946,-0.13388 2.74087,-0.399146 0.8891,-0.03066 1.67439,-0.287387 2.58163,-0.237467 0.67857,-0.439749 1.72287,-0.036 2.37985,-0.381527 0.96435,0.12208 1.87599,-0.116585 2.82984,-0.09418 0.57612,-0.134817 1.56375,0.465405 1.71317,-0.187737 1.1982,0.537341 2.57119,0.2653 3.81366,0.622535 0.8584,-0.11252 2.08223,0.401914 2.72014,0.06375 -1.13479,-0.340164 -2.33142,-0.515831 -3.45248,-0.931355 -0.96364,-0.378698 -1.90336,-0.79861 -2.93713,-0.938395 -1.7564,-0.619235 -3.62725,-0.741084 -5.45268,-1.020602 -0.96087,-0.259505 -1.96869,-0.256177 -2.92356,-0.53296 -0.92802,-0.09835 -1.75264,-0.50167 -2.66488,-0.707118 -1.00958,-0.105029 -1.90748,-0.583062 -2.78714,-1.018752 -0.27738,-0.384471 -1.28938,-1.191695 -0.19917,-1.028716 0.57184,-0.352232 1.20402,-0.545495 1.8304,-0.763479 0.87325,-0.02451 1.79355,-0.203767 2.5962,-0.488991 1.12777,-0.275914 2.3059,-0.217012 3.45087,-0.330285 0.47465,-0.353596 1.5027,0.08842 2.13312,0.186828 0.6813,-0.30344 1.56625,0.334625 2.24814,0.138253 0.77277,-0.153894 1.58418,0.645024 2.21044,0.226391 0.5795,0.329567 1.77674,0.859829 1.83479,0.370067 0.91294,0.431726 2.03787,0.693636 2.99969,0.268644 -0.48122,-0.652079 -1.73066,-0.578956 -2.53056,-0.873632 -1.29127,-0.255608 -2.53134,-0.692657 -3.76875,-1.126773 -1.40649,-0.403112 -2.87315,-0.475333 -4.3126,-0.681747 -1.32444,-0.381523 -2.73332,-0.193035 -4.08769,-0.331125 -0.78622,-0.247455 -1.65374,-0.172079 -2.46851,-0.329122 -1.23718,-0.11584 -2.56556,-0.308248 -3.60331,-1.023452 -0.5068,-0.360767 -0.8947,-0.331064 -0.15385,-0.596965 0.53861,-0.472178 1.14771,-0.708082 1.79184,-0.94791 0.92892,-0.251338 1.86337,-0.635309 2.73007,-0.893341 0.87506,0.115306 1.53107,-0.480138 2.48465,-0.320984 1.42256,-0.110783 2.86763,0.06276 4.27666,-0.125624 0.80019,-0.04172 1.7996,0.691597 2.48312,0.220549 0.82817,0.405858 1.70037,0.472878 2.58544,0.538833 0.81033,0.340775 1.56824,0.08898 2.30732,-0.02211 -0.47704,-0.617091 -1.70381,-0.532519 -2.46425,-0.892808 -1.24212,-0.338252 -2.50331,-0.705797 -3.57896,-1.429533 -1.00245,-0.369824 -2.08447,-0.526946 -3.01306,-1.085535 -0.84331,-0.290007 -1.79687,-0.284007 -2.5458,-0.822294 -1.00062,-0.194226 -1.87967,-0.681055 -2.84989,-0.924752 -0.83416,-0.335607 -1.5636,-0.822169 -2.35598,-1.242177 -0.91235,-0.316018 -1.63055,-0.999098 -2.33374,-1.525245 -0.52623,-0.342028 -1.11104,-1.563074 0.0424,-1.160392 0.70084,-0.364976 1.38277,-0.101766 2.19098,-0.203953 0.73714,0.274253 0.76915,-0.395216 1.47307,0.04079 0.63748,-0.04332 1.05566,-0.01599 1.82811,0.219842 0.53568,-0.394489 1.32567,0.288336 2.06739,0.173688 0.90433,-0.04041 1.80511,0.408671 2.72543,0.46843 0.98229,0.191762 1.90618,0.594969 2.58627,1.338751 0.30712,-0.152551 -1.10388,-1.52595 -0.0173,-0.893024 0.49096,0.212401 0.89184,0.761448 1.31836,0.250175 0.63225,0.546107 1.59473,1.116917 2.42375,0.671784 -0.45153,-0.637023 -1.47227,-0.913332 -2.24691,-0.891539 -0.89177,-0.282376 -1.79642,-0.629284 -2.64863,-1.043347 -0.80407,-0.515767 -1.61806,-0.974544 -2.51081,-1.320733 -0.69597,-0.509845 -1.451,-0.848596 -2.26224,-1.164854 -0.64435,-0.562288 -1.51386,-0.706504 -2.20343,-1.223458 -0.74301,-0.533097 -1.71441,-0.68842 -2.38455,-1.371542 -0.70119,-0.439895 -1.35093,-0.975776 -1.95752,-1.527579 -0.59318,-0.737773 -1.10088,-1.522816 -1.38233,-2.465172 0.0502,-1.154457 -1.21991,-1.049018 -1.70837,-1.793154 -0.45345,-0.361318 -1.55353,-1.374213 -0.30567,-1.294332 0.80292,-0.191765 1.48767,-0.299004 2.30841,-0.328515 0.85187,0.20599 1.57875,-0.147274 2.44054,0.04293 0.86026,-0.02873 1.73827,-0.0734 2.59126,0.0053 0.80084,0.185025 1.48222,-0.07755 2.27832,0.250769 0.79242,-0.174625 1.82686,0.502432 2.46762,-8.55e-4 0.86211,0.10107 1.82565,0.554131 2.66646,-0.0054 0.4506,0.165733 0.69395,-0.852407 1.02957,-0.268791 0.39978,0.349018 0.73946,0.788582 1.2002,1.051433 0.7958,-0.788119 -0.52538,-1.863427 -1.37907,-1.646283 -0.97897,-0.56087 -2.09853,-0.828571 -3.15017,-1.211194 -1.92328,-0.413696 -3.66029,-1.413364 -5.58178,-1.844331 -1.21026,-0.337679 -2.41597,-0.693742 -3.56081,-1.214586 -0.88026,-0.377174 -1.75391,-0.850768 -2.50606,-1.451182 -1.15686,-0.768805 0.56321,-0.99872 1.14883,-1.196559 0.87098,-0.09118 1.72978,-0.218241 2.62199,-0.15164 0.8161,-0.166658 1.63564,0.04254 2.45915,0.136245 1.06013,0.317337 2.18072,0.324388 3.22518,0.709589 0.77995,-0.01345 1.64456,0.466452 2.47491,0.266726 0.46338,-0.01141 0.81219,-0.469607 0.9199,-0.581098 0.4189,0.541108 1.05527,1.045465 1.68635,1.166856 -0.31034,-0.894433 -0.89022,-1.790893 -1.85703,-2.095323 -2.30871,-0.987708 -4.84322,-1.236934 -7.19858,-2.089333 -0.87905,-0.0984 -1.66014,-0.513328 -2.5309,-0.660546 -1.39413,-0.416566 -2.80887,-1.090552 -3.70648,-2.274605 -0.77861,-1.001741 1.23007,-0.442876 1.74879,-0.815901 1.82829,-0.08758 3.65497,0.114546 5.47643,0.227445 0.86187,-0.329879 1.83791,0.30584 2.73098,0.0024 0.41527,-0.533315 1.00028,0.680673 1.54234,0.803735 1.2115,0.861448 1.56459,2.365148 2.38724,3.523665 -0.38653,-1.578938 -0.95087,-3.149477 -1.80809,-4.540672 -0.91089,-1.407183 -2.68181,-1.622992 -4.15759,-2.059293 -1.35131,-0.335642 -2.65826,-0.821152 -3.93646,-1.359505 -0.81246,-0.320156 -1.58441,-0.759694 -2.32434,-1.224437 -0.57649,-0.497964 -1.23115,-0.949539 -1.56478,-1.659396 1.19425,-0.296192 2.44989,-0.594874 3.66394,-0.225752 1.02082,0.0718 2.02465,0.281791 3.03809,0.375409 0.91951,-0.28759 1.84615,0.306945 2.52567,0.92486 0.64948,0.606432 0.89109,1.569225 1.41001,2.213359 -0.27805,-1.171038 -0.67378,-2.362509 -1.35346,-3.368544 -1.09883,-1.276514 -2.86911,-1.584914 -4.36908,-2.173926 -1.43306,-0.490265 -2.84377,-1.176785 -3.83602,-2.358265 -0.34145,-0.471837 -1.41644,-1.324605 -1.13215,-1.746514 0.54943,0.414707 1.05283,-0.141306 1.18719,-0.274393 0.87959,0.586783 2.02945,0.441378 3.04294,0.623341 0.75946,-0.547822 1.73728,0.364579 2.33025,0.884429 0.28146,0.350769 1.11932,1.558363 0.66378,0.386064 -0.61873,-1.301771 -1.55708,-2.612295 -2.98958,-3.066339 -1.16549,-0.600763 -2.55653,-0.84082 -3.46157,-1.86927 -0.45238,-0.434144 -1.06786,-1.164622 -1.09032,-1.635347 0.5739,0.341592 0.60647,-0.286709 1.23743,0.01552 0.29034,-0.442213 1.10334,0.395749 1.15581,-0.243636 0.48443,0.125723 1.48672,0.94039 1.72609,0.524213 -0.69163,-1.297653 -2.05649,-1.969474 -3.24366,-2.722028 -0.45253,-0.36134 -1.42796,-1.198599 -0.99288,-1.700201 0.57363,0.159477 0.97557,-0.359994 1.51917,-0.271744 -0.48397,-1.087855 -1.85295,-1.641992 -2.01084,-2.906438 0.19234,-0.155605 1.12182,-0.02939 0.57383,-0.622459 -0.51259,-0.662124 -0.66429,-1.447432 -0.40386,-2.106941 -0.19634,-0.810626 -0.19534,-1.708308 0.26536,-2.388491 0.0774,-1.331899 1.46479,-0.325986 1.72503,0.376172 0.69752,0.505518 1.26785,1.184551 1.61735,1.994073 0.27296,0.715808 0.79462,-0.195577 0.97474,0.577448 0.64089,0.599857 -0.15912,1.868812 0.29106,2.283541 0.68435,-0.124116 1.55393,-0.860679 1.41973,0.365454 0.20895,1.105574 -0.53728,2.127405 -0.39142,3.23673 0.41453,-0.148116 0.77761,-0.71505 1.20773,-0.78464 0.43412,-0.192753 1.12405,-0.346329 1.39627,-0.809994 0.16593,0.950955 0.5693,1.983477 0.11374,2.926677 -0.72509,1.370551 -1.43499,2.891221 -1.09462,4.482812 0.0601,0.215381 0.30031,1.371458 0.34805,0.625665 0.0941,-0.69423 0.33842,-1.36806 0.58492,-2.003589 0.64394,0.181707 0.59444,-0.752943 1.1899,-0.796425 0.44183,-0.674871 1.19187,-0.793236 1.63788,-1.246554 0.19593,-0.500685 0.30571,0.271796 0.45507,0.459303 0.5772,0.665086 0.6017,1.476627 0.45256,2.323691 -0.14056,1.759288 -1.77226,2.835967 -2.28062,4.457374 -0.57415,1.387582 0.19827,2.845775 0.74784,4.11336 0.17267,0.445981 0.63141,1.183487 0.28944,0.274445 -0.41611,-1.017708 -0.6086,-2.177373 -0.27291,-3.235088 0.94845,-0.10097 1.34492,-1.041369 2.03043,-1.567969 0.54562,-0.26421 0.71263,-1.016682 1.28833,-0.969713 0.35663,-0.460742 1.02778,-0.742974 1.38428,-1.10149 0.33967,0.867869 1.02241,1.603111 0.74248,2.661832 0.0146,2.0349 -1.34423,3.680917 -2.54637,5.185213 -0.60484,0.791588 -1.24494,1.716212 -1.00104,2.76889 0.0918,0.516156 0.15378,1.44424 0.53213,1.65068 0.2255,-0.532335 -0.20471,-1.832845 0.25123,-1.971344 0.8053,0.414389 1.18452,-1.03223 1.86659,-1.347178 0.31814,-0.801198 0.99198,-1.03248 1.3485,-1.783062 0.53304,-0.07755 0.50698,-0.886355 1.01348,-1.051933 0.16971,-0.652152 1.01347,-0.958153 1.24859,-1.468299 0.56771,0.778366 1.39174,1.494969 1.23648,2.587614 0.11673,0.946482 -0.16704,1.835986 -0.43516,2.715151 -0.44967,0.845073 -0.57651,1.819726 -1.16463,2.60092 -0.6336,1.020503 -1.38949,1.953024 -2.12128,2.900149 -0.47093,0.575267 -1.05892,2.263995 -0.57015,2.498207 0.20323,-0.637373 -0.16625,-1.971668 0.9168,-1.401934 0.69168,-0.102674 1.36459,-0.562577 1.56205,-1.354626 0.86412,0.153585 1.00087,-1.051505 1.79907,-1.033605 0.46939,-0.838472 1.53016,-1.162315 1.83992,-2.074147 0.1194,-0.281067 0.32927,0.346885 0.59876,-0.183347 0.46877,-0.129421 1.13944,-0.79834 1.4624,-0.674292 0.63191,0.659885 0.89127,1.538096 0.86798,2.41498 -0.16103,0.882245 -0.49101,1.72516 -0.91161,2.50125 -0.37811,0.910848 -1.19319,1.558164 -1.62536,2.454646 -0.98123,1.308079 -2.22417,2.388812 -3.24838,3.658562 -0.92472,0.634259 -1.04368,1.935686 -0.7946,2.953355 0.35689,1.520707 0.83884,3.036987 1.57229,4.414449 0.16459,0.788903 0.048,-0.820636 -0.0652,-1.032818 -0.28857,-1.596311 -1.0322,-3.142518 -0.77608,-4.800517 0.24338,-0.484941 0.19603,-1.323751 0.90558,-0.82568 1.04645,0.363292 1.56649,-0.667155 2.38677,-1.015109 0.66213,-0.669998 1.58348,-0.903104 2.17619,-1.645757 0.73765,-0.339747 1.42751,-0.726016 2.04242,-1.190535 0.6316,-0.221034 1.37701,-0.656039 1.97321,-1.182979 0.55665,0.246192 1.71202,-0.826284 1.62797,0.31107 0.45298,0.301643 0.1095,0.70678 0.2787,1.097015 0.25421,0.842697 -0.66744,1.554121 -0.94321,2.339327 -0.46767,0.699536 -0.99428,1.322554 -1.61494,1.891825 -0.65987,0.741033 -1.47707,1.389547 -2.0885,2.204853 -1.51418,1.523533 -3.56579,2.56011 -4.62064,4.499392 0.938,0.17747 1.76593,-0.07846 2.25855,-0.924505 0.91893,-0.340982 1.29168,-1.279851 2.04279,-1.832919 0.51358,-0.648434 1.38458,-1.055497 1.52514,-1.96411 0.60574,0.65345 0.87109,-1.016286 1.56857,-1.032739 0.30438,-0.392589 0.68119,-0.605139 0.98665,-0.640522 0.44463,-0.694783 1.21476,-0.897827 1.77471,-1.338223 0.37165,-0.388012 0.9952,-0.548234 1.45199,-0.617102 0.17016,0.847624 0.69137,1.657037 0.34654,2.501948 0.47743,0.268772 -0.5627,1.096299 -0.18984,1.587095 -0.37086,0.976309 -0.88952,1.812622 -1.36163,2.715968 -0.56454,0.706604 -1.17544,1.401854 -1.6194,2.187514 -0.63467,0.782053 -1.28153,1.55874 -1.84308,2.400377 -0.5423,0.694493 -1.19027,1.276127 -1.82142,1.880871 -0.36425,0.872941 -1.39414,1.066435 -1.83656,1.845411 -0.6141,0.354447 -0.002,0.593497 0.37341,0.238028 0.75899,-0.143804 0.98246,-1.456942 1.65957,-1.258024 0.38626,-0.451519 0.90182,-1.082297 1.28445,-1.264581 0.60724,-0.589892 1.2025,-1.125409 1.74382,-1.777739 0.54163,0.09536 0.90642,-0.714316 1.38791,-1.031437 0.45804,-0.118968 0.73128,-0.870718 1.05521,-0.6238 0.33335,-0.17606 0.49061,-0.901508 0.76918,-0.443603 0.34282,-0.595399 0.90024,-0.619151 1.28941,-1.113846 0.27135,0.504823 0.90848,-0.769107 0.88992,-0.148823 0.38478,-0.320303 0.61788,-0.533684 0.66116,0.128053 0.33803,0.386643 0.70519,0.5461 0.63203,1.136976 0.37857,0.192799 0.0603,0.931059 0.31272,1.177357 -0.49568,0.884953 -0.36262,2.068077 -1.26525,2.705087 -0.45952,0.720949 -1.13703,1.275167 -1.53186,2.039884 -0.79417,0.693365 -0.95621,1.747458 -1.82602,2.38327 -0.61772,0.84226 -1.16738,1.742281 -1.9033,2.504183 -0.61623,0.82724 -1.45166,1.41845 -2.1924,2.117842 -0.62265,0.25628 -0.8989,1.381566 -0.0615,0.779344 0.70062,0.04961 0.95745,-1.28075 1.63874,-1.24204 0.50027,0.225802 0.79292,-1.09841 1.27168,-1.12688 0.69076,0.110931 0.82906,-1.441052 1.57391,-1.387109 0.44024,-0.106657 0.78421,-1.087816 1.4824,-1.114267 0.54589,-0.56359 1.2702,-0.477048 1.86996,-1.008836 0.49721,0.159821 0.84754,-0.634253 1.35506,-0.460841 0.51238,-0.667929 1.3934,-0.696885 2.11657,-1.003357 0.82053,-0.607874 0.88867,1.082951 0.98877,1.624293 -0.0271,0.972042 -0.43653,1.928228 -1.04799,2.648553 -0.0504,0.791936 -1.08297,1.278522 -1.50821,2.005613 -0.80851,0.624104 -1.2929,1.567165 -2.11056,2.262408 -0.75728,0.796691 -1.19441,1.822275 -1.95178,2.623876 -0.34121,0.162186 -0.88544,1.336573 -0.25796,0.629625 0.51657,-0.349509 0.84667,-1.078179 1.4764,-1.254334 0.50624,-0.490312 0.71044,-1.078386 1.25035,-1.142567 0.35855,-0.260989 0.92037,-1.354426 1.11889,-0.852096 0.63674,-0.577122 1.18006,-0.980538 1.85314,-1.424729 0.39946,-0.614518 1.08025,-0.565734 1.38784,-1.249032 0.56413,-0.170421 1.18067,-0.385446 1.65251,-0.628073 -0.0672,0.771036 0.82808,0.970399 0.74918,1.721928 0.4314,0.253585 0.0825,1.085964 0.28505,1.519788 -0.18603,0.813198 -0.35023,1.63715 -0.6849,2.327626 -0.53712,0.681539 -1.09319,1.346272 -1.61367,2.032253 -0.56992,0.587049 -1.41405,0.836038 -1.70144,1.617166 -0.71326,0.683296 -1.21037,1.563647 -2.0167,2.160168 -0.72656,0.457339 -0.11594,0.98272 -0.78374,1.618734 -0.46954,0.384678 -0.34375,1.501568 0.13332,0.556732 0.25614,-0.998461 1.35931,-0.968987 1.59059,-1.837193 0.3219,-0.707385 1.01437,-0.542431 1.46772,-1.282104 0.43148,-0.587678 1.20315,-0.382219 1.51872,-1.108388 0.65652,-0.104029 0.87923,-1.088256 1.67541,-0.954636 0.57413,-0.324967 1.02548,-1.002617 1.66492,-0.814207 0.3728,-0.447019 0.75395,-0.19318 1.1725,-0.591242 0.24126,0.488103 0.91283,-0.510865 0.88197,0.326002 0.52425,0.656901 0.91994,1.392595 0.77373,2.149118 -0.11319,0.757894 -0.20352,1.387787 -0.73802,2.019342 0.67212,-0.04443 -1.34299,1.311371 -0.5613,1.21516 -0.81177,0.62276 -1.53006,1.263278 -2.18075,2.06113 -0.61577,0.651715 -1.29126,1.291558 -1.97044,1.927179 -0.51246,0.669936 -1.46039,1.28987 -1.72247,1.991937 0.38739,-0.03293 -0.67102,0.927226 -0.8632,1.200021 -1.06679,1.169157 -2.22042,2.253441 -3.35164,3.358971 0.59931,0.14503 0.95788,-0.28522 1.41779,-0.39322 0.0785,-0.43795 0.73412,-1.2641 1.03733,-0.79422 0.66771,-0.37128 0.96582,-1.702822 1.68029,-1.450958 0.62606,-0.863009 1.50445,-1.331412 2.20001,-2.105919 0.54717,-0.417856 1.11842,-0.437506 1.55672,-1.161479 0.27268,-0.277343 0.59239,-0.589997 0.69402,-0.250075 0.58717,-0.375619 1.18001,-0.802517 1.86381,-1.011478 0.52851,-0.25649 1.0608,-0.281169 1.55442,-0.664451 0.51721,0.388654 1.3368,-0.76446 1.97286,-0.493263 0.58857,0.05089 1.23599,-0.702745 1.23719,0.276207 0.36795,0.762833 0.35553,1.597251 0.12479,2.307276 0.45776,0.233111 -0.645,0.855075 -0.29621,1.264307 -0.29221,0.310236 -0.84073,0.697888 -0.48408,0.995155 -0.6727,0.220299 -1.74635,1.343607 -0.4835,1.011184 0.21693,-0.278955 0.45109,-0.545067 0.56218,-0.212009 0.3742,-0.359098 0.7435,-0.512486 0.8616,-0.208226 0.35527,-0.227818 0.72038,-0.144675 1.05543,-0.407459 0.27485,0.893598 0.59688,1.819198 0.45785,2.780178 -0.26378,0.50955 0.47195,0.80212 -0.15915,1.22973 0.21777,0.55102 -0.33841,0.87935 -0.58592,1.38738 0.36502,0.39006 -1.43209,1.15799 -0.97881,1.39684 -0.72061,0.48782 -1.18279,1.16014 -1.57208,1.83097 -0.82658,0.50543 -1.33152,1.23291 -1.93247,1.95958 -0.2788,0.41709 -1.12481,0.70749 -0.80478,1.11999 -0.33921,0.66989 -1.70122,1.51972 -1.62127,1.92789 0.59239,-0.6208 -0.18661,0.96406 0.37881,0.25978 0.50051,-0.28247 0.97564,-1.49189 1.3792,-1.43499 0.53946,0.18785 1.10563,-1.01022 1.86027,-0.94283 0.52966,-0.54544 0.96101,-0.77782 1.56204,-0.88349 0.5289,-0.4129 1.21936,-0.38207 1.80667,-0.83943 0.79995,-0.18756 1.46353,-0.43755 2.15381,-0.56577 0.56815,-0.0305 1.1558,-0.76928 1.36213,0.10446 0.50926,0.37985 0.70796,1.20939 0.729,1.69152 -0.27114,0.40694 0.473,0.34304 -0.0829,0.77144 -0.0719,0.49474 0.242,0.70027 -0.39349,1.05148 -0.20291,0.6943 -1.27536,0.96362 -1.23508,1.66728 0.57908,-0.4692 0.90657,-0.0806 1.56395,-0.46966 -0.11174,0.49176 0.84677,0.0306 1.04441,0.16505 0.5268,-0.0641 -0.11695,1.199 0.1209,1.6432 -0.14424,0.67738 -0.28109,1.22678 -0.55997,1.82856 0.85279,0.081 -1.43185,1.41522 -0.44798,1.3335 -0.30027,0.50468 -1.09393,0.70564 -1.13046,1.26739 -0.90152,0.73333 -1.7264,1.56561 -2.70254,2.20696 -0.43736,0.78684 -1.15573,1.41406 -1.83934,2.03534 0.94365,-0.27326 -0.48472,0.55559 -0.80367,0.89033 -0.59268,0.40404 -1.09882,1.41619 -1.23825,1.86273 0.4835,-0.32546 0.90129,-1.60654 1.44422,-1.14662 0.51243,-0.59477 1.14333,-1.18997 1.81933,-1.59274 0.60978,-0.55898 1.07085,-0.93702 1.75692,-1.04523 0.62785,-0.87241 1.64908,-0.48531 2.25111,-1.3438 0.38787,0.50757 0.98732,-0.65137 1.6052,-0.47203 0.59775,-0.69715 1.17023,-0.36555 1.89137,-0.71716 0.76761,0.0359 1.627713,-0.61956 2.407423,-0.49867 0.0875,0.7211 0.67599,1.08743 0.47919,1.71464 0.19223,0.71446 -0.22706,1.50689 -0.44672,2.09269 0.53044,0.17609 -0.87407,0.82367 -0.80346,1.33244 -0.37684,0.27289 -1.622093,1.02601 -0.856523,0.96456 -0.96536,0.43068 -1.61277,1.20647 -2.46626,1.75857 -0.41532,0.29349 -1.1672,0.41522 -0.99295,0.88627 -1.12664,0.3073 -1.84494,1.36177 -2.89513,1.83851 -0.7821,0.48914 -1.40366,1.17573 -2.24895,1.61225 -0.27353,0.20379 -1.19952,0.65898 -0.38119,0.4388 0.68962,-0.20155 -0.35137,0.53619 -0.41906,0.78959 -0.44993,0.17103 -0.46176,1.19316 -0.0543,0.65827 0.0881,-0.82201 1.29281,-0.86627 1.28186,-1.46659 0.571,0.12039 1.0115,-1.41162 1.46978,-1.03732 0.46368,0.18549 0.95387,-0.93399 1.52964,-1.27309 0.18116,0.79653 1.04572,-0.7368 1.5525,-0.9403 0.65254,0.44859 1.13725,-1.29303 1.62032,-0.81203 0.73867,-0.49149 1.40706,-0.71815 2.1651,-1.14525 0.802893,0.25903 1.593783,-0.59243 2.441853,-0.47741 0.51101,-0.16725 1.08733,0.0706 1.56321,-0.30937 -0.0268,0.75625 0.75481,1.23344 0.47568,1.93571 0.2399,0.378 0.18014,0.67203 -0.0901,1.15511 0.61056,0.49904 -0.9429,1.03632 -0.39865,1.37123 -0.34457,0.29348 -1.40823,0.85761 -0.87657,1.07236 -0.35862,0.24181 -2.00947,1.05955 -0.72862,0.94579 -0.56778,0.56106 -1.68905,0.62131 -1.95636,1.39894 -0.2727,0.56543 -1.489613,0.76304 -1.497793,1.2308 0.86316,0.079 -0.74129,0.3059 -0.96032,0.64823 -0.25301,0.22437 -1.2446,0.53184 -1.18296,0.64161 0.34625,0.0115 0.88707,-0.009 0.26226,0.15947 -1.41916,0.51487 -2.32717,1.80975 -3.61964,2.53939 -0.80409,0.45036 -0.33389,0.6232 0.25147,0.22714 0.11655,-0.0185 -1.01304,0.84539 -1.22959,1.18495 -0.76517,0.93516 -1.91106,1.40116 -2.78392,2.20676 0.63853,0.22503 0.80362,-1.08801 1.17692,-0.30943 0.5119,0.24162 0.94151,-0.74312 1.38965,-1.03817 0.19467,-0.47944 0.47454,0.61019 0.76912,-0.19085 0.30037,-0.66112 1.06581,-0.99169 1.5554,-1.06709 0.4072,-0.78385 1.21514,-1.01025 1.83028,-1.24513 0.29093,-0.24243 1.25803,-1.41334 0.9048,-0.47738 0.63911,-0.18371 1.20661,-0.66128 1.80881,-1.08044 0.41038,0.94367 1.357323,-0.83507 1.812233,-0.0888 0.50622,-0.22029 0.90536,-0.60397 1.43545,-0.47004 0.68244,-0.75106 1.75774,-0.35613 2.53818,-0.88536 0.56749,0.37873 1.79492,-0.78148 1.74362,0.25758 -0.0247,0.64017 0.59296,0.73798 0.18474,1.40598 0.54144,0.18695 -0.60122,0.96353 0.0562,1.1155 -0.23527,0.31745 -0.82307,0.71296 -0.45319,0.96221 -0.20739,0.28732 -1.37676,0.78114 -0.67147,0.97522 -0.63557,0.47811 -1.47153,0.80026 -1.67034,1.30445 -0.9127,0.33858 -1.47152,1.11384 -2.36319,1.48428 -0.48293,0.12237 -1.53249,0.68342 -0.40911,0.39673 -0.53486,0.46137 -1.748833,0.6756 -2.296273,1.33056 -0.68597,0.53479 -1.57758,0.86115 -2.06855,1.61276 -0.45078,0.52586 -1.75923,0.79096 -1.76162,1.37019 0.98491,-0.3114 -0.49583,0.58331 -0.69138,0.93994 -0.7724,0.62146 0.62879,0.57613 0.83562,0.003 0.72406,-0.55896 1.55283,-0.45996 2.17222,-1.29961 0.58535,-0.43105 1.24721,-0.3862 1.76257,-0.99349 0.35128,-0.46482 0.71459,-0.30653 1.100893,-0.37637 0.3049,-0.22419 1.0227,-1.17671 1.10187,-0.46869 0.73707,-0.15923 1.44069,-0.80377 2.13686,-0.58468 0.71635,-0.4714 1.53458,-0.1722 2.23169,-0.74102 0.82845,0.14397 1.66069,-0.0614 2.53517,-0.29889 0.53126,-0.22294 0.86134,0.355 1.49471,-0.18727 0.51823,-0.27382 -0.29603,0.6641 0.17741,0.81916 0.085,0.77162 0.35209,1.54677 -0.27448,2.21039 0.60276,0.3319 -1.29721,1.06772 -0.16537,1.03584 -0.62007,0.25671 -1.45936,0.55431 -1.43424,1.02956 -0.75754,0.33244 -1.47705,0.67221 -1.75424,1.10639 -0.28679,0.29107 -1.69149,0.62025 -1.38145,0.7311 0.64332,0.13331 -0.81542,0.44531 -1.02832,0.57049 -0.95986,0.28766 -1.70873,0.99949 -2.68692,1.3104 -0.75584,0.31357 -0.26257,0.17207 0.006,0.25475 -0.93816,0.44659 -1.874023,0.83829 -2.641033,1.55515 -0.45317,0.44925 -1.95781,0.94821 -1.92585,1.25114 0.57497,-0.26626 1.17692,-0.63306 1.62097,-0.49568 0.7056,-0.24463 1.1679,-1.07593 1.954923,-1.25003 -0.605553,0.83821 0.99918,-0.0965 1.38746,-0.17267 0.43216,-0.1714 0.95723,-0.71355 1.07423,-0.0368 0.65867,0.16448 1.60932,-1.11685 1.69946,-0.26207 0.53527,0.0309 1.53345,-0.91324 1.68043,-0.68538 -0.37951,0.88884 1.26521,-0.4057 1.56634,-0.18167 0.41793,0.4536 1.67167,-0.72944 1.83466,-0.0997 0.80692,-0.42412 1.53504,-0.29273 2.47788,-0.44137 0.69726,-0.34382 1.53388,0.1891 2.11844,-0.55827 -0.53675,0.86162 0.0257,1.75734 -0.56405,2.65639 0.34514,0.43665 -0.66642,0.78517 -0.48413,1.02715 0.56193,0.13294 0.39876,0.27193 -0.0606,0.44271 -0.26578,0.31175 -1.57821,0.81008 -0.60611,1.0171 -0.7161,0.11317 -1.55665,0.32046 -1.76523,0.86298 -0.45138,0.43975 -1.67765,0.44406 -1.81306,0.85033 0.40225,0.12283 -1.14246,0.4644 -1.46778,0.56442 -0.69899,0.0407 -0.63094,0.53287 -1.4645,0.55345 -1.28508,0.26272 -2.41268,0.99043 -3.6792,1.29814 0.56237,0.21054 -0.99522,0.49153 -1.2405,0.73254 -0.86586,0.55867 -1.728083,1.14056 -2.680693,1.55654 -0.94903,0.4131 0.14409,0.35604 0.29588,0.31263 -1.23454,0.60176 -2.23096,1.60307 -3.50907,2.13624 -0.51946,0.37911 -1.77225,0.58115 -1.88425,1.09692 0.8577,0.21823 1.84761,-0.58933 2.51801,-0.54383 0.62465,0.13677 1.49578,-0.51926 2.21127,-0.7087 0.38655,-0.32535 0.43508,0.33107 0.75593,-0.14886 0.62175,0.0713 1.28744,-0.81822 2.038523,-0.60361 0.67398,-0.508 1.45399,-0.62819 2.11976,-0.67507 0.47478,0.0136 1.60295,-0.88135 1.66879,-0.52477 0.20367,0.56674 1.68668,-0.70677 1.84525,-0.29717 0.28279,0.0506 1.37043,-0.33314 1.86934,-0.84389 0.47483,-0.70436 -0.26731,0.90562 0.53621,0.32902 0.90848,-0.62358 1.56283,-0.008 2.46043,-0.58587 0.4453,0.22859 1.08961,0.32113 1.72595,0.0256 0.17941,0.58817 1.15291,0.28062 1.55318,0.43877 -0.58716,0.47853 0.94762,0.6796 0.44096,0.95048 0.35489,0.46949 0.89851,0.58335 0.53094,1.26735 0.92475,0.22366 -0.65816,0.6181 -0.71632,1.12737 -0.37933,0.21959 -1.24122,0.35283 -0.69906,0.69723 -0.39243,0.30975 -1.58432,0.42991 -1.50768,0.85158 0.44264,0.11237 -0.96297,0.20014 -1.20158,0.34922 -0.85725,0.26122 -1.67563,0.6512 -2.57454,0.75797 -0.84233,0.43842 -1.78232,0.61095 -2.64335,1.00691 -0.74185,0.41479 -1.602,0.48669 -2.41225,0.67142 0.42815,0.55018 -1.17835,0.5441 -1.59566,0.93483 -0.48338,0.13735 -1.6121,0.78155 -0.44899,0.53364 0.61197,-0.17047 1.50127,-0.98925 1.91168,-0.5689 0.81527,0.0362 1.71164,-1.06089 2.45102,-0.47016 0.51382,-0.24216 1.97716,-0.89474 2.16628,-0.50926 -0.8767,0.36008 0.68132,0.10172 0.94201,-0.1585 0.41707,-0.13843 1.03299,-0.40797 1.20921,-0.0251 0.56261,-0.0256 1.34399,-1.12175 1.48951,-0.31414 0.64345,-0.24075 1.21541,-0.63174 1.79635,-0.23134 0.53605,-0.23289 0.96839,-0.48913 1.37768,-0.13286 0.79721,-0.19354 1.61501,-0.12186 2.46221,-0.17154 0.42316,0.56397 1.39572,-0.95234 0.98988,0.16218 -0.0434,0.38307 -0.57571,1.04825 0.005,1.12126 -0.40815,0.50393 -0.50511,1.03066 0.27641,0.86005 -0.43649,0.20374 -1.50948,1.1054 -0.44784,1.07257 -0.24071,0.35849 -1.62091,0.54728 -1.21868,1.16524 -0.62126,0.30457 -1.18579,0.66414 -1.32758,1.01003 -0.3705,0.39748 -1.8079,0.47191 -1.68741,0.84546 0.87926,0.11606 -0.79906,0.36797 -1.1393,0.50044 -0.22997,0.21424 -1.7333,0.0611 -1.12006,0.29498 0.6681,0.3168 -0.89459,0.19873 -1.12613,0.34576 -0.98325,0.12441 -1.86695,0.6102 -2.84869,0.73452 -0.82013,0.19643 -1.6912,0.66667 -2.32346,0.76712 -0.65873,0.164 -1.59062,0.65114 -2.39921,0.95124 -0.8329,0.46077 -1.84027,0.54963 -2.61312,1.09964 -0.33861,0.20146 -1.502413,0.93214 -0.42726,0.6667 0.56624,-0.20508 1.61827,-0.94146 1.93249,-0.76995 0.34476,0.45807 1.20263,-0.3993 1.86082,-0.51102 0.70535,-0.10449 1.26878,0.0854 1.95117,-0.32065 0.54769,-0.27874 1.07654,-0.11045 1.20726,0.15604 0.52053,-0.57039 1.35839,-0.58373 1.9871,-0.97451 0.13662,0.86415 1.39179,-0.44804 1.98766,-0.36922 0.48558,0.76321 1.49481,-0.47098 2.20604,-0.54847 -0.38797,0.17046 -0.6113,0.85004 -0.01,0.40475 0.39015,-0.16392 1.3905,-0.72229 1.51377,-0.49844 0.0791,0.47901 1.35502,-0.0398 1.41357,-0.16877 0.72709,-0.51932 -0.26807,0.57082 0.49425,0.33148 0.56351,-0.0956 1.02721,-0.47 1.38598,-0.0575 0.75147,-0.10835 1.35443,0.25044 2.10829,0.32235 0.45439,-0.0353 1.13797,-0.43478 0.55736,0.26816 -0.25538,0.57544 0.21746,1.17797 -0.49461,1.75083 -0.48142,0.31304 0.70195,0.17702 -0.0344,0.56723 -0.35418,0.20264 -1.1773,0.72601 -0.34661,0.86635 -0.48297,0.38986 -1.56577,0.38042 -1.25991,1.05768 -0.36434,0.30039 -1.65214,0.41547 -1.52575,0.75252 0.47599,-0.0448 -0.84424,0.48913 -1.0862,0.58036 -0.89617,0.38525 -1.77101,0.8823 -2.76564,0.95808 -0.1355,0.23502 1.09549,0.23547 0.1943,0.31432 -0.95355,0.18687 -1.7845,0.69522 -2.63441,1.12823 -0.48149,0.35714 -1.91808,0.0416 -1.88162,0.4061 0.4914,-0.0429 0.78263,0.28357 0.0874,0.25952 -0.80303,0.28674 -1.97248,0.25809 -2.56935,0.60433 0.72185,0.39744 -0.8856,0.11511 -1.1613,0.3693 -1.07191,0.21411 -2.09359,0.58598 -3.04391,1.13509 -0.54004,0.21578 -2.06834,0.84906 -1.69141,1.32281 0.56993,-0.29612 1.6334,-1.03456 2.04975,-0.72821 0.5121,0.14523 1.80799,-0.99439 2.29711,-0.6746 0.30313,0.40336 1.16056,-0.45555 1.82455,-0.43326 0.95268,0.28179 1.75191,-0.39982 2.64944,-0.69751 0.22941,0.0585 -0.48493,0.75996 0.14381,0.32923 0.29939,0.40214 1.62005,-0.64187 1.95654,-0.22599 0.23199,0.61483 1.71724,-1.10275 1.60992,-0.17534 0.55692,-0.35819 1.13242,-0.91024 1.60591,-0.53886 0.30397,-0.0982 1.21382,-0.80033 1.06762,-0.0916 0.57814,-0.12956 1.18519,-0.82009 1.39354,-0.17338 0.89492,-0.38704 1.78701,0.15161 2.71516,-0.0382 0.38547,-0.15163 0.8313,-0.31395 0.3656,0.20261 -0.34013,0.31393 -0.24512,1.11599 -0.2454,1.35222 0.84805,-0.38328 -1.05538,1.21227 -0.14294,1.2808 -0.17936,0.45773 -1.35721,1.10616 -0.5821,1.31367 -0.20763,0.55557 -1.73492,0.86324 -1.36608,1.35362 0.11605,0.42128 -1.3924,0.78275 -1.79383,1.269 -1.27808,0.69968 -2.68954,1.09532 -4.01504,1.68181 -1.66355,0.78448 -3.48474,1.13824 -5.25589,1.59526 -1.24807,0.43016 -2.5856,0.61117 -3.75247,1.26728 -0.85121,0.36805 -1.73079,0.70344 -2.39645,1.37839 -1.530853,1.09283 -3.406383,1.53494 -5.229813,1.85203 -0.64194,0.36506 0.57842,0.77894 0.85951,0.77197 0.64016,0.10987 1.58168,-0.24584 2.24245,-0.48337 0.13257,0.61822 1.15396,-0.44894 1.736893,-0.25684 0.67182,-0.12613 0.96806,0.49339 1.72019,-0.0689 0.66427,-0.27927 1.24541,-0.48735 1.7149,-0.21486 0.67107,-0.18641 1.1257,-0.89692 1.70069,-0.76885 0.67905,-0.35037 1.37761,-1.04664 1.97552,-0.55124 0.67513,-0.0581 1.66353,-1.27402 1.98396,-0.41431 0.6647,0.0718 1.45561,-0.83202 1.89426,-0.66055 0.28517,0.48296 1.04839,-0.18428 1.5133,-0.28856 0.56981,-0.53966 0.49267,0.74653 1.08594,0.15553 0.3556,-0.0729 1.28875,-0.70522 1.01304,0.0851 0.71787,-0.23561 1.36853,-0.35398 1.92236,-0.11792 0.89813,-0.18223 1.611,0.67594 2.57052,0.48291 0.28853,0.0239 -0.67657,0.74979 -0.1227,0.99813 -0.28852,0.32519 -0.62161,0.80778 -0.0907,0.85453 -0.20029,0.3042 -1.65776,1.31676 -0.51619,0.87183 0.67352,-0.39127 -0.41441,0.58198 -0.66528,0.63724 -0.48338,0.11222 -1.24216,0.79609 -0.26572,0.5194 0.33703,0.0308 -0.94167,0.66465 -1.25379,0.7114 -0.98476,0.28207 -0.12355,0.39594 0.10796,0.36124 -0.70674,0.56085 -1.59033,0.83845 -2.39211,1.18781 0.59793,0.72333 -1.12153,0.60559 -1.56004,0.93115 -0.43529,0.0344 -0.69749,0.1239 -0.46803,0.5038 -0.80004,0.44594 -1.7482,0.49981 -2.54886,0.90049 -0.9319,0.26839 -1.84121,0.63961 -2.78724,0.83464 -0.88978,0.18418 -1.81079,0.28844 -2.66602,0.58471 -1.0497,0.53672 -2.25727,0.72909 -3.21801,1.44443 -1.628613,0.91383 -3.465063,1.37796 -5.310603,1.57928 -0.86238,0.0462 0.54921,1.29598 0.39795,0.69089 0.52158,0.80089 1.64242,0.15269 2.46813,0.14386 0.4696,-0.10771 0.92791,0.54877 1.50683,0.0993 0.883583,-0.2229 1.712833,0.21497 2.534153,-0.18955 0.5159,0.0584 1.51149,-0.62762 1.36108,-0.0278 0.86266,-0.002 1.67085,-0.52044 2.55998,-0.53232 0.36001,0.79038 1.50334,-0.28819 2.22546,-0.21873 0.28015,-0.0471 -0.3511,0.66095 0.37978,0.49283 0.87135,0.0981 1.96913,-0.37391 2.59282,0.18393 0.42664,0.11671 1.66309,-0.50348 1.57744,-0.12239 -0.28288,0.52599 1.14036,0.0225 1.46024,-0.13554 0.80586,-0.70871 -0.19892,0.8574 0.73127,0.38191 0.531,0.0425 1.44586,-0.66133 1.5235,-0.08 0.74265,0.52795 1.86212,-0.37975 2.22899,0.31608 0.64464,0.0605 1.38325,-0.4653 1.58157,0.30839 1.00658,-0.14272 1.30242,0.7972 2.24352,0.91133 0.85359,-0.22786 -0.49926,0.71925 0.11304,0.76466 0.59666,0.16628 -1.22859,0.81767 -0.24003,0.94029 -0.21784,0.36338 -0.94333,0.59156 -1.08673,0.85219 0.47644,0.13763 0.67123,0.29595 0.0678,0.40491 -0.40329,0.0635 -1.91467,0.33366 -0.7171,0.37737 0.14994,0.32811 -1.25133,0.59992 -1.72617,0.73394 -0.94887,0.59693 -2.04877,0.55034 -3.02842,1.14727 -1.05769,0.55846 -2.26067,0.6066 -3.42451,0.69914 -0.27081,0.45538 -0.75611,-0.23372 -1.11773,0.37662 -0.92277,0.20493 -1.90351,0.0815 -2.84486,0.22853 -0.88423,0.0246 -1.70146,0.33939 -2.58653,0.3265 -1.22321,0.0502 -2.44256,0.16645 -3.64657,0.3764 -1.05414,-0.14963 -1.93715,0.33059 -2.847033,0.77205 -1.71643,0.77544 -3.61511,0.73209 -5.45038,0.88348 -0.28759,0.5475 0.82478,0.3681 0.88085,0.96817 0.70404,0.14661 1.83466,-0.43794 2.28098,-0.0632 0.10454,0.42011 0.70264,-0.18247 0.97475,0.23911 0.82163,0.0985 1.766633,-0.174 2.434653,0.30529 0.66537,0.1429 1.69727,-0.51839 2.27911,0.0521 0.7257,0.30887 1.96267,-0.49426 2.4862,0.0935 0.26846,0.56055 2.13293,-0.17049 2.06526,0.34085 0.47073,0.45501 1.66994,0.0352 2.39793,0.25409 0.67182,0.75929 2.09243,-0.076 2.55902,0.83444 0.77076,0.0419 1.60345,-0.14354 2.04839,0.46496 0.47667,0.19914 2.20575,-0.58337 1.54303,0.29189 0.46675,0.24119 1.69724,-0.13292 1.74329,0.19293 -0.22466,0.59123 0.97138,0.21451 1.41727,0.25998 0.62149,-0.12788 0.22161,0.13756 -0.0709,0.36167 -0.12956,0.39337 1.19586,0.43791 1.57128,0.6612 -0.90308,0.76806 1.42564,0.86959 1.2164,1.16829 -0.31214,0.17788 -1.18737,0.27804 -0.75758,0.70883 -0.57003,0.16744 -1.34405,0.76026 -0.31886,0.66166 -0.26224,0.19107 -1.19321,0.56007 -1.67524,0.78952 -0.31981,0.27358 -1.80153,0.14944 -1.54621,0.46205 0.94398,-0.0954 0.12621,0.26589 -0.34079,0.36897 -0.81708,0.17988 -1.26175,0.8594 -2.24357,0.64987 -0.47068,0.0439 -1.55306,-0.18712 -0.88584,0.30369 -0.83127,-8.5e-4 -1.70342,-0.22399 -2.52871,0.0212 -2.93712,0.19661 -5.88977,0.22111 -8.83098,0.10526 -1.13802,-0.26781 -2.28907,0.18522 -3.451823,0.13208 -0.90302,0.22025 -1.78088,0.59573 -2.72257,0.69079 -0.76842,0.27953 -2.0623,-0.0753 -2.50377,0.3986 0.13748,1.19164 1.65952,0.70651 2.49278,0.91394 0.29295,0.92551 1.35137,0.43493 2.08271,0.51931 0.60876,-0.0957 0.0568,0.47341 0.72623,0.43926 0.908453,0.1553 1.874913,-0.14966 2.758913,0.22691 0.86497,0.18269 1.82429,-0.10499 2.40174,0.52689 0.74189,0.20137 1.84175,-0.11556 2.38345,0.15688 -0.30122,0.48428 1.13604,0.5751 1.61083,0.68462 0.79154,-0.16342 0.72775,0.6367 1.50552,0.40055 0.91029,0.32787 1.46581,1.25863 2.48105,1.39319 0.58231,-0.37234 1.42308,0.7179 2.06817,0.2192 0.94218,-0.37928 2.07414,0.34539 1.71431,1.39925 -0.26367,0.46178 0.48606,0.83072 -0.24036,1.20518 0.52927,0.57507 -0.95661,0.99216 -1.23372,1.67017 -0.98685,0.69433 -2.05009,1.53184 -3.3317,1.45756 -0.69585,-0.0558 0.19162,0.24928 -0.57426,0.29386 -1.30584,0.23384 -2.62099,0.43988 -3.94144,0.57206 -1.44639,0.0988 -2.94046,0.23421 -4.33449,-0.26464 -1.04225,-0.0599 -2.10079,-0.0549 -3.146783,-0.16747 -1.24437,-0.0471 -2.5039,-0.27911 -3.74253,-0.0934 -1.20012,0.4624 -2.53879,0.27364 -3.78848,0.15755 -1.2824,-0.40064 -2.70005,-0.58782 -3.73691,-1.53346 -0.60055,-0.55393 -1.59407,-1.79306 -2.2447,-0.62849 -0.39998,1.04566 -0.5331,2.17583 -0.85292,3.2493 -0.48524,2.12112 -1.05913,4.22815 -1.41098,6.37583 0.14239,0.97761 0.91662,0.28397 0.76073,-0.38256 0.21905,-1.31447 1.36224,-2.16081 2.15762,-3.13599 0.61748,-0.79877 1.503,-1.32214 2.09506,-2.11985 0.68269,-0.63541 1.60156,-0.93955 2.46976,-1.17788 0.61142,0.2618 1.8731,-0.72075 1.68447,0.55103 0.22494,0.80956 0.71856,1.36325 0.44775,2.29641 0.76673,-0.28813 -0.22642,1.63031 0.49566,1.31345 -0.0317,0.78648 0.13129,1.40271 0.92811,1.73668 0.47685,0.52267 1.26794,0.58203 0.95751,1.41198 0.48119,0.80338 1.62226,1.11496 2.01304,2.0486 0.58218,0.40068 1.56345,0.68495 1.37657,1.46018 0.680073,0.62597 1.348743,1.19659 1.951953,1.90457 0.5832,0.45649 1.10203,0.92155 1.18345,1.46671 0.49507,0.74614 1.31949,1.41158 1.30256,2.24158 0.90579,0.43315 0.6505,1.71588 1.56933,2.23578 0.20413,0.74916 0.56235,1.44626 1.16105,2.00351 -0.62039,0.53366 1.48251,1.20544 0.49642,1.48598 0.28864,0.44147 1.27725,1.02274 0.62526,1.18488 0.32858,0.66066 0.4943,1.37369 0.57221,1.96794 0.93141,0.73599 -0.64856,0.37922 -1.03756,0.83382 -0.45018,0.43274 -1.64539,-0.019 -1.7464,0.48733 0.69386,0.90739 -1.11114,-0.20137 -1.47592,-0.0101 -0.26374,0.30786 0.77525,1.24568 0.16322,0.89838 -0.50155,-0.40186 -1.39416,-0.82731 -1.80906,-1.03611 0.26928,0.68104 -0.11572,0.88024 -0.63614,0.31277 -0.36697,-0.2784 -1.43183,-1.38123 -0.75941,-0.33539 0.62258,0.87437 -0.77314,-0.36877 -1.010033,-0.61078 -0.67584,-0.62522 -1.66145,-0.78496 -2.28612,-1.4821 -0.0486,-0.40586 -0.69031,-1.28389 -0.34877,-0.36057 0.0532,0.46721 -0.88763,-0.58529 -1.14253,-0.75284 -0.83269,-0.74824 -1.61891,-1.54956 -2.35678,-2.38848 -0.78156,-0.29104 -1.22918,-1.10563 -1.73589,-1.73514 -0.34748,-0.53581 -0.73987,-1.53614 -0.7507,-0.63456 -0.76312,-0.76194 -1.53396,-1.52048 -2.22676,-2.34621 -0.0818,0.6686 -0.74018,-0.72268 -0.68592,-0.26239 0.0546,0.35337 0.33646,1.10562 -0.18617,0.45174 -1.17667,-1.23897 -2.37755,-2.5075 -3.03106,-4.11609 -0.58915,-1.13496 -0.71426,-2.42647 -0.7228,-3.68393 -0.20441,-0.96092 -1.11099,-0.4751 -0.96424,0.32971 -0.0622,0.47326 0.10088,1.64776 -0.49688,1.12725 0.13803,0.4903 0.95055,0.8631 0.041,0.61534 -0.4076,0.22859 0.0576,1.07824 -0.47642,1.01507 -0.15229,1.02108 -0.75513,1.98064 -0.68497,3.02339 0.48213,-0.2747 0.81667,-1.25616 1.10861,-1.39793 -0.20113,1.00551 -1.20303,1.54562 -1.54697,2.46462 0.15512,0.64767 -0.74139,1.54906 -0.19622,1.72409 -0.24688,1.07659 -0.81059,2.04361 -1.04637,3.1266 -0.39977,1.55898 -0.89781,3.11803 -1.06572,4.71818 0.75545,-0.55406 -0.2035,0.57647 -0.34421,0.91044 -0.26835,1.12952 -0.72871,2.24044 -0.78237,3.42013 -0.3268,0.90205 -0.6069,1.83551 -0.9051,2.76922 -0.54008,1.89016 -1.15795,3.76957 -1.42457,5.72216 -0.15729,0.37433 -0.33551,0.99169 -0.854,0.84391 -1.00011,-0.0299 -2.02031,0.0811 -3.00399,-0.0861 -8.7e-4,0.006 -0.0836,-0.0998 -0.0432,-0.10643 z m 2.54099,-6.4208 c 0.17286,-1.04368 -0.65581,0.33911 -0.11184,0.48081 0.0896,-0.14478 0.0955,-0.31756 0.11184,-0.48081 z m 29.526513,-8.98959 c -0.47967,-0.92294 -0.30959,0.61503 0,0 z m -25.823343,-6.70902 c -0.37462,-0.35592 -0.41948,0.34535 0,0 z m 5.25594,-7.3466 c -0.1743,0.11084 0.10376,0.53172 0,0 z m -0.42878,-9.0752 c 0.24159,-0.9405 0.37978,-1.88751 0.60347,-2.8231 -0.0209,-0.21757 0.24062,-1.1335 -0.0893,-0.61114 -0.568,0.82667 -1.60552,1.00422 -2.44867,1.39837 0.41095,0.31927 0.7316,1.25859 0.89307,1.93754 0.26753,0.6539 0.2837,1.61679 0.59649,2.10249 0.21266,-0.64905 0.28536,-1.34021 0.44494,-2.00416 z m 16.81577,-1.16418 c -0.58894,-0.41995 0.14029,0.36886 0,0 z m -21.47622,-1.35022 c -0.33715,0.0816 0.0921,1.08948 0.0315,0.24003 l -2.6e-4,-0.1087 -0.0311,-0.13133 z m 8.72442,-2.71778 c -0.0181,-0.4039 -0.29222,-1.22035 -0.35222,-0.32735 -0.19192,0.41853 -0.0484,1.99288 0.43701,1.00705 -0.003,-0.22881 -0.0492,-0.4548 -0.0848,-0.6797 z m 0.7882,-4.5045 c 0.37554,-1.19191 0.85139,-2.38176 1.56951,-3.40639 1.18419,-1.0081 -1.20853,-1.06249 -1.1888,0.0412 -0.53244,1.00774 -0.55722,2.19514 -0.80462,3.29379 -0.11972,0.67202 -0.21498,1.34828 -0.26306,2.02937 0.26569,-0.63925 0.47718,-1.29885 0.68697,-1.95793 z m -2.86788,-0.0431 c 0.10826,-1.17457 0.30436,-2.34806 0.3324,-3.52582 -0.27742,-0.79092 -1.52917,0.19121 -1.92393,0.22767 0.67559,1.17852 1.03782,2.48622 1.40179,3.78301 0.10346,0.32972 0.17423,-0.42313 0.18974,-0.48486 z m 9.27523,-2.92396 c -0.56887,-0.48022 -0.5653,0.82807 0,0 z m -13.19265,-0.47709 c -0.30132,-0.38827 0.0997,0.47768 0,0 z m 30.626483,-0.95898 c -0.42797,-0.0979 -0.20617,0.19199 0,0 z m -22.932403,-0.55278 c 0.3399,-0.87645 -0.48473,-1.935 -0.10264,-2.90835 0.32188,-1.5751 0.61492,-3.18409 1.19913,-4.68317 0.0956,-0.99355 1.00318,-1.6278 1.29796,-2.46133 -1.066,-0.24925 -1.9138,0.67728 -1.83014,1.70599 -0.43926,2.728 -0.83886,5.46901 -1.02137,8.22751 -0.0449,0.38397 0.27064,0.35518 0.45706,0.11935 z m -2.29527,-5.21963 c 0.0467,-0.74931 0.40812,-2.54868 -0.85323,-2.21146 -0.23835,0.83631 0.54984,1.77635 0.63057,2.68323 0.14906,0.54397 0.19393,-0.35948 0.22266,-0.47177 z m 3.61914,-6.94834 c -0.0538,-1.9166 0.47148,-3.7752 0.83916,-5.63868 0.33572,-0.88285 0.39053,-1.85013 0.95439,-2.64198 -0.22708,-0.5511 -1.50682,0.35651 -1.54456,0.98236 -0.35941,2.11008 -0.44197,4.2603 -0.63357,6.39125 0.0671,0.8417 -0.39186,1.9852 0.18676,2.64227 0.29695,-0.49065 0.14659,-1.17474 0.19782,-1.73522 z m 25.418533,-1.03757 c -0.42797,-0.0979 -0.20617,0.19199 0,0 z m -28.018553,-1.20606 c -0.009,-0.96947 0.13971,-1.94033 0.0614,-2.90761 -0.21168,-0.65052 -2.29825,-0.27779 -1.32397,0.51657 0.59744,1.05463 0.78655,2.26006 1.0348,3.42604 0.24853,0.0285 0.18343,-0.78532 0.22773,-1.035 z m 30.129233,0.0906 c -0.17652,-0.38009 0.84478,0.35507 0.39252,-0.25364 -0.2844,-0.52084 -1.14894,-0.60439 -1.57693,-0.54165 -0.29301,0.60863 1.01942,1.35135 1.18378,0.79598 z m -26.952853,-6.75809 c -0.59363,-0.49883 0.57359,0.0417 0.26627,-0.61244 -0.001,-1.63239 -0.008,-3.27306 0.31994,-4.87992 0.23934,-0.69891 -0.0372,-1.78952 0.46985,-2.26004 -0.0695,-0.75272 0.16214,-1.71377 0.67249,-2.09812 -1.07614,-0.1979 -1.90479,0.98886 -1.73919,2.00434 -0.0754,2.59303 -0.29465,5.18509 -0.27337,7.77875 0.0107,0.11645 0.27724,0.282 0.28401,0.0674 z m -2.4216,-4.23332 c 0.0384,-0.86345 0.15727,-2.43764 -1.12411,-2.32657 -0.5042,-0.0296 -1.00906,-0.046 -1.5136,-0.0686 0.36301,0.46295 0.86708,0.64057 1.03912,1.35545 0.6477,1.3606 0.99962,2.82769 1.41776,4.2676 0.10122,-1.07333 0.16208,-2.14995 0.18083,-3.22791 z m -4.78966,-0.33606 c -0.47341,-0.87298 -0.17683,0.55999 0.20021,0.57296 -0.0125,-0.20694 -0.11258,-0.39096 -0.20021,-0.57296 z m 0.9671,-2.20394 c -0.28516,-0.42674 -0.24948,0.41226 0,0 z m 20.439513,-2.70955 c 0.57061,-0.72235 -0.76748,-1.0405 -0.72659,-0.12922 -0.16366,0.49588 0.52654,0.1659 0.72659,0.12922 z m -13.802303,-0.80941 c 0.35469,-0.89342 0.008,-1.89838 0.0995,-2.84691 0.0365,-1.66324 0.005,-3.34365 0.23861,-4.99076 0.35093,-1.09366 -0.84316,0.1388 -0.59829,0.68018 -0.0972,1.97471 -0.15595,3.95607 -0.11023,5.93277 0.0145,0.45986 0.49461,0.76903 -0.0203,0.86419 -0.0753,0.11932 0.48526,0.73808 0.39076,0.36053 z m -2.51834,-2.64584 c -0.0958,-0.80971 0.0391,-2.1938 -0.83472,-2.51354 -0.73234,0.21402 0.40317,1.30791 0.30968,1.90117 0.10136,0.38764 0.55535,2.1572 0.52661,0.95139 l 1.3e-4,-0.16363 -0.002,-0.17539 z m -0.0421,-7.72583 c -0.0818,-1.07557 -0.0261,-2.18801 -0.34565,-3.22805 -0.19464,-0.74628 -1.77082,-1.00456 -1.90447,-0.5905 0.79871,0.66477 0.96279,1.90009 1.40369,2.82673 0.34701,0.73309 0.60537,2.28416 0.88274,2.5759 0.006,-0.52821 -0.016,-1.05645 -0.0363,-1.58408 z m 2.47961,1.19613 c 0.34459,-0.89387 -0.14429,-1.9502 -0.0579,-2.90951 -0.0341,-1.55966 -0.10636,-3.12843 0.04,-4.68313 0.35919,-0.50259 0.0588,-0.96877 -0.30279,-0.29873 -0.36855,0.95866 -0.12865,2.03016 -0.17971,3.03426 0.0662,1.63364 -0.0123,3.28653 0.23475,4.90453 0.0506,0.14343 0.20181,-0.0535 0.26561,-0.0474 z m -6.9268,-5.50884 c -0.3995,-0.36284 -0.067,0.35025 0,0 z m 4.25376,-1.24154 c -0.16344,0.0156 0.0778,0.68871 0,0 z m -0.005,-0.43265 c -0.20532,-1.51584 0.003,-3.12387 -0.60312,-4.56085 -0.25731,-0.58699 -1.39652,-0.60881 -0.75891,0.19604 0.51816,1.47074 0.89189,3.02169 1.25434,4.51402 0.0693,-0.003 0.13201,-0.0797 0.10769,-0.14921 z m 2.34839,-1.79185 c 0.23996,-2.25314 0.15138,-4.53309 0.40564,-6.78791 -0.80329,0.0152 -1.27941,1.36006 -1.06744,2.20512 0.10271,1.55628 0.0897,3.13986 0.38238,4.67186 0.0516,0.18859 0.27651,0.0168 0.27942,-0.0891 z m 22.242943,-0.0794 c -0.44469,-0.57615 -0.10475,0.47533 0,0 z m 0,-0.4171 c -0.31328,-0.43444 -0.24007,0.24366 0,0 z m -12.51699,-2.45144 c -0.427473,-0.098 -0.20676,0.19202 0,0 z m 4.20907,-0.46521 c -0.003,-0.42193 -0.37422,0.40092 0,0 z M -112.135,178.50329 c -0.27431,-0.55743 -0.0657,0.50482 0,0 z m -0.21217,-1.82292 c -0.20405,-0.21525 0.15207,1.20918 0.0718,0.21741 l -0.0287,-0.1217 z m -0.0534,-1.16686 c -0.14415,-1.30152 -0.21335,-2.62583 -0.50106,-3.90207 -0.32506,-0.83784 -1.23459,-1.04477 -2.04592,-0.98889 -0.60919,-0.11988 -0.2441,0.18365 0.0165,0.44178 0.80935,0.7694 1.48062,1.68849 1.76226,2.78514 0.33179,0.80126 0.42257,1.691 0.73903,2.48421 0.095,-0.25355 0.0314,-0.55465 0.0292,-0.82017 z m 2.35733,-0.15875 c 0.27993,-2.30102 0.0847,-4.64102 0.36484,-6.94453 0.17583,-0.4365 0.49374,-1.16696 0.55816,-1.50559 -0.99001,0.17273 -2.03536,1.00923 -1.82739,2.11754 0.13154,2.11452 0.28342,4.23181 0.55995,6.3325 0.0516,0.19763 0.26349,0.132 0.34444,8e-5 z m -13.31007,-2.87772 c -0.31332,-0.43452 -0.24004,0.24374 0,0 z m 23.07167,-0.38798 c -0.37814,-0.4483 -0.45548,0.63397 0,0 z m -10.59825,-5.57139 c -0.0696,-2.07838 -0.34057,-4.14522 -0.43723,-6.22284 -0.3424,-0.91208 -1.02582,0.98288 -0.66289,1.5229 0.20794,1.60529 0.40159,3.22142 0.75877,4.80052 0.28315,0.81474 0.34704,0.508 0.34135,-0.10058 z m -2.62922,-1.68133 c -0.21161,-0.8658 -0.16426,-2.33627 -1.38039,-2.34449 -0.49969,0.36445 0.80485,1.13369 0.804,1.77732 0.28803,0.47786 0.53033,1.79732 0.75338,1.84793 -0.0384,-0.42942 -0.1081,-0.85539 -0.17699,-1.28076 z m -4.03608,-2.69616 c -0.22375,0.0304 -1.62864,-0.40995 -1.09132,-0.0278 0.40347,0.30296 0.85608,0.14352 1.29578,0.22402 0.21401,-0.13359 -0.13889,-0.18837 -0.20446,-0.19623 z m -2.8191,-0.71286 c -0.74087,-0.61795 -1.65533,-0.75299 -2.59416,-0.77436 -0.63594,-0.46468 -1.50469,-0.1714 -2.36562,-0.18415 -0.60452,0.0661 0.87231,0.53978 1.1536,0.52954 0.37197,-0.66478 1.47574,0.32673 2.03819,0.47886 0.28717,-0.0659 -0.10594,-0.7378 0.42918,-0.29971 0.55658,0.049 1.33927,0.92476 1.72011,0.47673 -0.11141,-0.10029 -0.2513,-0.15743 -0.3813,-0.22691 z m -5.67935,-0.85348 c -0.22384,-0.32005 0.263,-0.31141 -0.39168,-0.22683 -1.03067,0.1242 0.89756,0.78954 0.39168,0.22683 z m 11.94143,-0.24742 c -0.38773,-1.75382 -0.42535,-3.60058 -1.06813,-5.28757 -0.31379,-0.57004 -2.31412,-0.77109 -1.18463,0.10466 1.20616,1.64461 1.66991,3.67762 2.26005,5.59226 0.0892,0.0232 -0.0161,-0.33831 -0.007,-0.40935 z m 2.08117,-0.84666 c 0.10577,-1.78483 -0.13566,-3.5779 -0.12202,-5.36699 -0.0711,-0.74464 0.0898,-1.71618 0.10535,-2.30144 -0.99189,0.31564 -1.53684,1.2499 -1.22378,2.26513 0.24975,1.82444 0.53058,3.64816 0.87838,5.45621 0.0827,0.12037 0.33166,0.10659 0.36207,-0.0529 z m 11.05772,-5.7381 c 0.46335,-0.45124 -0.75259,0.27494 -0.17802,0.1092 z m -12.3966,-3.52232 c 0.0132,-1.88554 -0.44948,-3.75401 -0.34266,-5.63566 0.13397,-0.33704 0.33682,-1.03689 -0.24411,-0.50456 -1.0593,0.55764 -0.86763,1.83504 -0.67638,2.80839 0.30122,1.57479 0.50091,3.18183 0.97373,4.7157 0.6101,0.96792 0.18593,-1.19973 0.28942,-1.38387 z m 5.88161,-0.23812 c -0.28513,-0.4268 -0.24949,0.41226 0,0 z m -8.48668,-0.74426 c -0.23317,-0.63118 -0.39573,-1.76277 -1.21126,-1.7482 0.49022,0.60792 0.82048,1.89937 1.29595,2.18822 -0.0145,-0.14909 -0.0508,-0.29496 -0.0847,-0.44002 z m -6.54165,-3.05603 c -0.2613,-0.30587 -1.77407,-0.65553 -0.78754,-0.16215 0.20908,0.0211 0.68197,0.36742 0.78754,0.16215 z m 10.94635,-2.09705 c 0.15391,-0.39072 -0.18268,-1.67468 -0.27299,-0.65217 -0.001,0.59496 -0.23653,2.15975 0.0754,2.21239 0.11608,-0.51193 0.15179,-1.03862 0.1976,-1.56022 z m -3.40838,-0.25947 c -0.17528,-0.9482 -0.26351,-1.91531 -0.43071,-2.86968 -0.20929,-1.32159 -0.69112,-2.59532 -0.79931,-3.93019 -0.5756,0.7175 0.0309,1.73805 0.0676,2.56575 0.28217,1.42589 0.54192,2.85799 0.88515,4.27058 0.0589,0.12836 0.25121,0.099 0.27725,-0.0365 z m 3.83911,-1.03987 c -0.0612,-0.35253 -0.59428,0.24983 -0.0929,0.0748 z m 0.53352,-0.32453 c 0.0801,-0.44821 -0.69168,0.45324 3e-5,-8e-5 z m -6.98517,-0.89052 c -0.0432,-0.42643 -0.77057,-1.42373 -0.41273,-0.40267 0.0894,0.45572 0.89102,1.96218 0.50967,0.6846 0.0915,-0.009 -0.19714,-0.28236 -0.0969,-0.28193 z m -0.63286,-3.5739 c -0.39985,-1.32245 -0.50376,-2.73697 -1.05638,-4.00958 -0.51873,-0.86963 -1.66895,-0.96696 -2.57442,-1.10594 0.51637,0.46718 1.57878,0.71215 1.82406,1.64544 0.65855,1.02974 1.17249,2.13745 1.53666,3.30364 0.0249,0.18878 0.37374,0.65136 0.27007,0.16651 z m 1.54546,-2.2369 c -0.26462,-1.53676 -0.4424,-3.1425 -1.15949,-4.54697 -0.25639,0.79379 0.26387,1.80545 0.38044,2.66269 0.28684,0.76925 0.34206,2.16421 0.8484,2.55564 0.0223,-0.22537 -0.0262,-0.45138 -0.0694,-0.67136 z m 5.59197,-1.75831 c -0.2851,-0.42675 -0.24954,0.41227 0,0 z m -7.09083,-4.02791 c -0.30813,-0.63228 -0.26325,-1.54426 -0.54811,-2.28253 -0.19481,-0.74874 -0.42062,-1.49008 -0.70698,-2.2092 -0.005,1.17343 0.45615,2.29407 0.70555,3.42883 0.0571,0.1551 0.43032,1.88838 0.54954,1.0629 z m 12.85875,-1.47543 c -0.003,-0.42195 -0.37425,0.40101 0,0 z m -15.33745,-0.54413 c 0.0388,-0.41454 -1.04267,-1.70246 -0.53847,-0.6994 0.16742,0.20765 0.93076,2.00183 0.53847,0.6994 z m -4.29463,-2.30013 c -0.25383,-0.31241 -1.18649,-0.17379 -0.32019,0.0487 0.0711,0.0183 0.29205,0.0961 0.32019,-0.0487 z m 5.12438,-1.58599 c -0.2491,-2.01186 -0.87083,-3.94444 -1.33121,-5.91082 0.0798,-1.32664 -0.94865,0.17157 -0.52689,0.72228 0.50213,1.87747 1.06908,3.74228 1.71467,5.57399 0.11866,0.0459 0.16736,-0.30443 0.14343,-0.38545 z m -3.43539,-4.57232 c -0.16538,-0.47312 -1.26425,-1.1816 -1.42149,-0.7517 0.54429,0.3095 1.41825,1.25467 1.70607,1.32347 -0.0632,-0.20456 -0.17158,-0.39137 -0.28458,-0.57177 z m 0.86059,-3.76288 c -0.42532,-1.79944 -1.21097,-3.50147 -1.53804,-5.32284 -0.65937,0.48145 0.0396,1.73622 0.14838,2.46819 0.48342,1.45594 0.87063,2.96613 1.56644,4.33623 0.27519,-0.17749 -0.1473,-1.11454 -0.17678,-1.48158 z m 3.80041,0.21539 c -0.30761,-0.42972 -0.35641,0.55661 0,1e-5 z m 0.9525,-0.94369 c 0.38005,-0.1893 0.47282,-0.91979 0.007,-0.27471 -0.18356,0.0917 -0.31968,0.78609 -0.007,0.27471 z m -7.23321,-1.1012 c -0.41022,-1.01042 -0.92049,-2.35386 -2.1985,-2.42022 -0.50867,0.33605 1.09684,0.60174 1.16102,1.14389 0.40629,0.56997 0.6362,1.40796 1.15646,1.81275 0.0109,-0.18738 -0.0554,-0.36471 -0.11898,-0.53642 z m 9.12215,-0.91388 c 0.30235,-0.53531 0.23397,-0.58205 -0.1932,-0.10731 -0.55593,0.24788 -0.60894,1.47756 -0.035,0.5384 0.084,-0.13931 0.1585,-0.28417 0.22822,-0.43109 z m -10.52847,-3.35595 c -0.47732,-1.25346 -0.77174,-2.63113 -1.60899,-3.70587 -0.33481,-0.42175 -1.45575,-0.8846 -0.60689,-0.045 1.24668,1.47415 1.80283,3.37003 2.54807,5.11344 0.11216,-0.23041 -0.23918,-0.98035 -0.33219,-1.36261 z m 1.5956,-0.87438 c -0.2425,-1.77677 -0.68068,-3.52209 -0.91738,-5.29824 0.17197,-0.4182 0.19548,-1.4592 -0.40755,-0.68044 -0.92427,0.61263 -0.67768,1.7881 -0.29762,2.6454 0.53428,1.48584 0.9383,3.03476 1.60891,4.46198 0.25081,-0.14563 0.002,-0.83927 0.0136,-1.1287 z m 6.73993,-3.20021 c 0.23297,-0.42604 -0.5544,0.556 0,0 z m -10.1236,-1.00538 c -0.51018,-1.62039 -1.12051,-3.21981 -1.86602,-4.746598 -0.13911,-0.479407 -1.5305,-0.95517 -0.7636,-0.160248 1.27085,1.485186 1.84458,3.374766 2.53729,5.161946 0.1755,0.293 0.12628,-0.22242 0.0923,-0.2551 z m 10.85093,-0.0794 c -0.10665,-0.32805 -0.24799,0.36336 1e-5,0 z m -10.10069,-2.7747 c -0.52578,-1.68966 -1.20832,-3.325298 -1.77836,-4.999301 -0.4422,-0.336319 0.0238,1.078496 0.0958,1.388363 0.49295,1.585629 1.00951,3.176708 1.69497,4.689108 0.46759,0.25796 -0.001,-0.95348 -0.0124,-1.07817 z m 15.93503,-2.067175 c 0.19988,-0.382803 -0.72697,0.574425 1e-5,0 z m -19.22888,-2.3684 c -0.45083,-1.301447 -0.84332,-2.632546 -1.42762,-3.880812 -0.16555,-0.55982 -1.4659,-1.456674 -0.76382,-0.345635 0.67455,1.130701 1.3247,2.279707 1.73554,3.538012 0.23729,0.500948 0.52508,1.814545 0.77803,1.830427 -0.0836,-0.386769 -0.20358,-0.764808 -0.32213,-1.141992 z m 0.86567,-1.869318 c -0.49,-2.087324 -1.19728,-4.118303 -1.82011,-6.168567 -0.62446,-0.40899 -0.11534,1.344602 0.0547,1.76776 0.53569,1.623545 0.97949,3.291953 1.712,4.84004 0.19092,0.271021 0.0283,-0.419901 0.0534,-0.439233 z m 4.16751,-1.992475 c -0.28082,-0.346772 -0.1769,0.647896 0,0 z m 0.52754,-0.503175 c -0.4615,-0.04254 -0.18318,0.72299 0,0 z m -7.57186,-1.24095 c -0.37494,-1.549011 -0.98838,-3.040404 -1.56994,-4.525242 -0.21448,-0.673559 -1.10663,-1.892522 -1.70955,-1.444407 1.80193,1.606865 2.10105,4.12257 3.25158,6.129339 0.10837,0.116205 0.0676,-0.161276 0.0279,-0.15969 z m 2.67963,-3.5795 c 0.44422,-0.386476 0.84509,-1.531484 1.29553,-1.49013 0.20197,0.209557 0.25138,-0.439351 0.62405,-0.295282 0.0394,-0.469227 0.8376,-1.514337 -0.0859,-0.749197 -0.85784,0.79367 -1.77222,1.525178 -2.64728,2.296144 -0.65982,0.699615 0.56304,0.653584 0.81356,0.238465 z m -2.40865,-0.219863 c -0.35848,-2.089084 -1.46063,-3.979536 -1.83322,-6.065911 -0.72695,0.367179 0.0612,1.805818 0.18934,2.496344 0.47467,1.342813 0.86291,2.740544 1.54589,3.99263 0.11675,-0.09522 0.0776,-0.292796 0.098,-0.423063 z m -3.31496,-4.994166 c -0.44922,-1.258011 -0.81158,-2.565094 -1.46631,-3.735893 -0.34291,-0.35807 -1.18156,-0.40777 -0.53386,0.117339 1.20958,1.648517 1.65074,3.693505 2.48539,5.524846 0.0467,-0.586995 -0.33668,-1.303234 -0.48522,-1.906292 z m 0.46825,-3.129915 c -0.48668,-1.664564 -1.27722,-3.229005 -1.7386,-4.899361 -0.36004,0.671313 0.3908,1.9484 0.55422,2.809708 0.39919,1.215308 0.81687,2.426938 1.33234,3.598624 0.0841,-0.508193 -0.0235,-1.016061 -0.14796,-1.508971 z m -2.32919,-2.068598 c -0.41906,-1.553 -0.86695,-3.127759 -1.50539,-4.618479 -0.34411,-0.829219 -0.61414,-2.114484 -1.76914,-1.959229 0.52888,0.666685 1.2096,1.330278 1.52579,2.183243 0.73208,1.469195 1.05555,3.088646 1.61419,4.62046 0.1742,0.476098 0.3139,-0.05724 0.13455,-0.225995 z m -0.11575,-4.529613 c -0.25924,-2.041827 -1.35318,-3.843041 -1.98234,-5.777906 -0.009,1.112124 0.5008,2.165183 0.78104,3.229001 0.31569,0.934188 0.60575,1.883462 1.01923,2.77905 0.16913,0.257809 0.1875,-0.14327 0.18207,-0.230145 z m -5.02392,-1.898957 c 0.41935,0.197882 1.8451,-0.124139 0.77114,-0.611038 -0.97547,-0.485939 -2.07341,-0.51042 -3.10059,-0.806942 -0.57682,0.190112 -1.65567,-0.520445 -1.901,-0.188796 0.58099,0.605876 1.33526,0.444405 1.94393,0.965258 0.41508,0.272719 0.95687,0.503292 0.94834,0.07279 0.34742,0.22904 0.90942,0.911172 1.33818,0.568725 z m 1.85959,-3.54748 c -0.35531,-0.988396 -0.61554,-2.027199 -1.1339,-2.94648 -0.94407,-0.05455 0.0952,1.479975 0.30135,1.990406 0.50231,1.073197 0.71456,2.322579 1.41869,3.273335 -0.0189,-0.781682 -0.37544,-1.564093 -0.58614,-2.317261 z m -7.1611,1.530995 c -0.39078,-0.384222 -1.33278,-0.537711 -0.36048,-0.04934 0.0699,0.0227 0.48161,0.326216 0.36048,0.04934 z m 5.08466,-7.338747 c -0.31175,-0.524552 -0.25503,-1.293258 -0.69566,-1.631236 0.14713,0.706639 0.46144,2.142781 0.83975,2.39355 -0.0239,-0.257956 -0.0834,-0.511183 -0.14409,-0.762314 z m -0.68591,-2.120403 c -0.17566,-0.425688 -0.42695,-1.790364 -0.85145,-1.443146 0.0438,0.265522 0.64597,1.831206 0.85145,1.443146 z m 0.27518,-2.446888 c -0.38765,-0.446268 0.13978,0.651879 0,0 z m 21.73815,218.938998 c 0.20407,-0.38996 0.94495,-0.59091 0.30499,-0.0129 -0.0422,0.0645 -0.31181,0.19277 -0.30499,0.0129 z m 1.16769,-4.64239 c 0.0243,-0.39031 0.65237,-0.83854 0.28741,-0.11201 -0.12683,0.15163 -0.35956,0.53986 -0.28741,0.11201 z m -12.1942,-60.42375 c 0.47065,-0.0773 -0.0597,0.19389 0,7e-4 z m 42.121673,-25.0825 c 0.47065,-0.0773 -0.0597,0.19388 4e-5,7e-4 z m -44.959323,-8.8177 c 0.35506,-0.45361 0.0733,0.4145 0,0 z m -4.67652,-15.10064 c 0.4706,-0.0774 -0.0596,0.19401 -5e-5,6e-4 z m 37.48485,-16.22604 c -0.29095,-0.38967 0.59236,0.34236 0,0 z"
       id="path2536" />
    <path
       id="path2536-7-4"
       style="display:inline;fill:none;stroke:#000000;stroke-width:0.3;stroke-linecap:round;stroke-linejoin:round;stroke-miterlimit:4;stroke-dasharray:none;stroke-opacity:1"
       d="m -45.116036,113.10144 c 0.75153,-5.66232 -4.7217,-7.0541 -1.63228,-8.29788 -1.149,-2.23368 -2.86547,-9.021229 -4.11937,-10.430319 0.84738,-2.04255 -1.34665,-2.92763 -0.75272,-4.23496 -0.35358,-1.49324 -0.93052,-7.30705 -3.54575,-2.21547 -2.56066,2.41203 -6.75648,5.62143 -9.15648,7.13966 -4.17581,2.89642 -7.31827,4.54426 -11.72577,4.63491 -5.39351,0.366249 -0.43218,-5.3079 2.01258,-7.55435 3.48993,-3.96711 7.00014,-7.52231 10.93226,-11.29992 1.09983,-0.71362 3.41947,-8.36292 -2.00869,-4.26222 -3.49644,2.01657 -6.42235,3.98509 -10.26929,4.15654 -3.91359,0.74718 -5.78368,-1.74001 -2.72856,-3.61737 3.22474,-4.82862 9.51542,-7.71558 12.81786,-12.08393 -5.08892,-1.11172 -9.51362,4.0844 -14.95597,4.89209 -3.45854,1.81663 -9.125745,-0.93074 -4.08765,-4.37995 4.61447,-2.96004 9.36085,-6.58651 14.00407,-8.73391 -3.1886,-1.61081 -10.32328,3.74232 -14.51636,4.49176 -2.162495,1.1808 -6.765225,1.30024 -8.546935,-0.0695 1.97239,-3.68284 5.28402,-5.597 8.880595,-7.84823 3.0877,-2.2835 17.54973,-7.83853 6.24046,-5.30791 -5.41455,1.23414 -10.626855,6.2126 -16.057845,6.20352 -5.4159,0.0452 -0.19574,-5.39792 1.94789,-5.9188 1.99777,-2.09274 4.5429,-3.94595 7.32303,-5.81567 4.107135,-0.80332 10.691145,-6.227644 2.415395,-4.197964 -6.596025,0.921364 -11.957085,6.196314 -17.945914,6.266604 -5.61698,-0.70815 2.781739,-6.552494 4.783289,-7.866204 1.82307,-2.61324 16.367185,-7.33401 6.16517,-4.51059 -4.94692,1.50021 -9.98718,5.66484 -15.942909,6.09605 -5.92082,-0.68585 2.84612,-6.34512 4.54252,-7.68634 2.648399,-2.16552 7.633329,-4.35551 10.888469,-6.07825 4.86437,-4.46304 -11.108889,2.48657 -12.767779,3.6982 -2.17141,2.12043 -13.37863,3.35276 -6.40984,-2.04301 3.06916,-3.29034 6.68712,-4.70493 10.168969,-7.52618 6.21142,-2.64727 -6.443189,1.13387 -7.730349,2.37207 -3.7404,2.73424 -14.96367,2.58264 -7.53273,-2.22833 3.40619,-2.41818 7.09556,-4.23205 10.65913,-5.73451 4.012219,-1.89395 12.379589,-5.2035201 2.69261,-2.42026 -4.24838,-0.8871901 -9.73081,3.59189 -13.5236,4.07018 -3.76948,2.36076 -8.66027,-0.85708 -7.92355,-1.86458 -3.34198,-1.96879 6.05287,-9.6499101 9.26744,-11.5775701 2.36341,-1.69099004 10.99358,-5.94485 2.34021,-3.42073 -5.42136,-0.19485 -11.17954,4.78596 -17.04806,6.06855 -8.27514,1.37618 0.10053,-5.28019 3.3523,-6.82545 3.15265,-2.0194 13.03765,-6.52283 2.90465,-3.21174 -4.5874,2.74034 -16.64467,6.06816996 -17.02944,1.3837 -3.94045,-1.51364 4.29045,-6.4248199 6.53233,-8.5044909 2.63157,-1.554603 16.81587,-7.96514 5.64428,-4.880048 -5.65163,1.035247 -17.50025,10.1117789 -19.77711,5.520446 4.5638,-4.953055 10.46461,-8.236096 16.80798,-10.392306 -5.27719,-0.488834 -18.25056,9.205308 -19.35123,4.547421 3.32547,-6.090293 14.37288,-7.778246 16.89225,-11.155549 -8.93487,1.347724 -15.91839,9.288125 -24.87362,9.041069 4.96284,-6.461238 12.56897,-9.746584 19.08275,-13.709797 -7.18667,0.863222 -19.51682,10.016888 -23.01235,7.060172 3.02799,-4.033666 7.9142,-6.898445 12.08934,-9.041199 -5.27421,0.824903 -15.7424,10.838989 -17.66078,5.969469 3.33924,-4.356003 14.70607,-10.685924 14.80554,-11.031485 -6.14631,0.433889 -14.19905,7.001853 -18.86417,5.123446 2.37063,-5.883954 14.56436,-8.589774 14.83841,-10.509909 -6.57595,0.785323 -13.63766,7.176904 -19.06901,6.847687 1.58211,-6.098263 13.54292,-9.307671 13.70698,-11.131726 -4.65478,0.422987 -19.45908,6.400787 -18.97163,1.643109 5.65684,-3.528485 9.41262,-4.600274 13.895,-5.904729 -4.61331,-0.655836 -15.57269,3.72786 -21.4127,-0.928502 -6.39432,-2.048043 8.71214,-6.043766 10.53178,-9.446084 4.89559,-2.158419 -9.8606,1.567793 -12.7319,2.312781 -11.18654,-0.647607 15.05453,-8.00922 6.89494,-8.134551 -4.09737,2.200401 -21.21878,5.25341 -9.45512,-0.780465 3.03011,-5.312087 13.40612,1.811303 5.19708,-3.418433 -4.02453,0.06066 -19.10371,3.980969 -9.13729,-1.738625 3.83972,-2.383002 9.28232,0.81986 2.23146,-2.390598 -4.70132,2.038213 -15.07042,0.222509 -5.20857,-2.733767 7.83539,-0.172342 -14.72212,-0.555454 -4.29066,-3.12692 -6.35444,-1.025032 -7.04952,-3.267787 -10.32103,-9.367792 5.26931,-0.462671 8.47595,3.757148 10.18133,3.801639 2.40236,-4.160928 4.56466,12.249275 4.50893,2.386249 3.43951,-6.777635 2.5591,9.63705 6.64424,8.08256 -5.38188,-4.829237 4.07558,-12.005553 2.88823,-2.043758 0.59858,10.26479 1.99318,1.09039 2.58888,-4.051841 6.99729,1.090793 1.7226,19.641731 5.67648,8.336447 1.03185,-10.346321 7.47037,-0.627586 4.08577,5.233491 -2.13096,4.728304 8.48663,9.555131 1.21175,3.590583 -0.7909,-2.329601 3.75535,-14.22822 6.94796,-10.379743 0.58823,4.138496 -4.28418,19.518877 -0.15709,9.049168 -0.31673,-6.121487 5.91779,-11.688376 5.80677,-2.23317 -0.18619,4.657736 -2.75688,16.937342 0.29995,5.918261 1.23423,-2.438756 1.75103,-9.552924 5.23775,-6.193623 2.73445,3.326371 -1.93619,16.509658 0.053,14.775715 1.30364,-3.808804 2.46455,-9.573934 6.12092,-11.369879 3.66891,3.441734 -2.10084,20.070066 1.98617,8.401558 2.81317,-11.434173 8.12024,1.908069 4.14449,7.357124 1.0357,5.12692 1.61188,-6.818413 4.51062,-8.160547 5.82064,-1.968135 2.83152,8.870451 1.93894,12.273313 -1.46613,7.133569 -0.2963,5.921331 1.28644,0.174524 0.6,-3.409085 5.87344,-13.35014 7.70162,-6.152896 -1.16614,5.299151 3.90921,-2.17441 4.79091,4.349623 0.14519,2.641777 -2.41582,13.165533 -0.85657,10.39032 0.69063,-4.230484 7.94937,-12.555607 7.89559,-4.244189 2.31484,-2.165581 5.76603,4.714142 2.47471,8.859404 -1.42097,8.325972 -0.40883,3.861982 2.685,-2.097716 2.76016,-7.061074 8.56894,-2.232194 5.34106,2.836576 -1.32419,2.676952 -5.0222,12.724889 -2.76007,8.896889 1.28953,-3.932462 2.6219,-7.794884 6.03742,-10.970637 4.16498,-2.362986 3.78105,5.595672 2.37771,6.898077 -1.14642,4.447379 -4.19157,11.230646 -3.93107,12.829007 2.40537,-2.371032 2.78796,-7.529703 5.64727,-9.607086 1.729899,-3.702534 7.020799,-5.591879 6.077019,-0.198808 -0.73813,4.715567 -4.47595,8.883693 -4.76781,13.526975 2.25086,-2.514359 4.75916,-8.993824 9.19173,-11.433971 3.99829,-2.374526 2.93842,5.899022 0.96666,7.518224 -3.0719,4.251827 -6.21654,11.5595929 -1.37375,4.292379 2.70598,-2.414329 5.19982,-4.933248 8.688375,-7.656748 3.31523,0.663549 1.65734,6.541458 -1.54871,9.582073 -3.521135,3.6662989 -7.094075,11.89830886 -6.432385,12.57168886 3.0947,-3.60559996 6.992775,-7.87152996 9.556455,-10.79193986 1.41106,-1.865477 7.7181,-5.149079 7.23431,-0.50464 -1.05684,3.9701799 -7.59498,9.0685699 -7.96364,11.89204986 2.98665,-3.70652996 5.52224,-5.62254996 8.90152,-8.31480996 3.14466,-4.6770839 6.2044,-1.59816 4.86878,1.28309 -0.77274,4.97771 -4.77481,6.60605996 -7.90249,11.27681 -6.52425,8.9894901 2.0982,-0.99381 4.61122,-2.93217 2.47113,-2.32922004 3.64866,-4.15097 7.30558,-5.70448 3.3269,-1.68506 2.60887,4.05497996 1.19983,5.73716 -3.16589,5.66819 -6.06338,8.2047401 -10.19629,13.9136701 1.34556,-0.0349 5.22504,-5.89666 8.27933,-7.0860001 1.3726,-1.82677 6.50684,-7.81065 7.29252,-3.53269 2.1391,5.9801901 -5.61353,11.8298401 -9.25488,16.8323601 -2.52745,4.18273 -6.92094,10.28551 -0.61498,4.24656 3.70362,-2.69147 5.82092,-6.62041 9.19898,-9.46081 2.26622,-1.65837 7.10157,-3.50966 6.52282,-0.0384 -0.66605,3.82725 -2.46858,7.53934 -6.48789,11.88781 -3.74321,3.75899 -11.53823,13.935204 -2.26562,6.77162 3.33032,-2.86866 6.24962,-5.03526 10.06194,-6.54858 2.15913,-1.78029 5.33181,-3.76997 8.99578,-3.93142 2.06257,2.75613 -0.9932,5.50384 -3.94192,9.28388 -4.53132,4.092054 -13.2326,10.145484 -14.52558,13.642574 4.93228,-2.05687 9.70722,-5.45122 14.95136,-7.18318 4.16916,-1.08363 6.98468,-3.442864 10.13958,-2.3031 2,1.353 -2.25052,6.274 -4.62421,7.97164 -3.64075,3.30704 -14.96307,8.25337 -13.83382,11.40385 4.43134,-1.34619 8.88006,-4.14272 13.56304,-5.17156 3.94367,-1.23927 11.12565,-3.03433 7.14536,3.85771 -6.18912,6.54373 -15.84694,11.68134 -23.72406,13.5348 1.18207,3.78669 4.37241,14.79121 3.81394,4.81378 1.09395,-10.52419 6.20989,-1.94553 11.21852,-1.18603 5.71594,0.61408 10.93579,3.62667 15.93888,6.01461 5.23531,2.10924 0.0312,6.89017 -1.42133,7.07865 -3.29797,0.42087 -7.67615,0.25178 -12.92908,-1.26985 -4.18457,-0.18621 -9.31543,-1.50309 -12.95353,-4.57875 1.22328,2.37038 1.64632,7.0187 2.20708,5.90831 1.19432,7.43499 4.43427,13.101589 5.99823,20.701459 1.45136,3.06674 1.73165,4.30088 -1.92595,5.39834 z m -1.2799,-6.78565 c -0.93196,-1.20836 0.51284,1.76723 0,0 z m 20.16525,-23.366439 c -0.82046,-0.68783 -0.0476,0.73781 0,0 z m -25.41638,8.11568 -0.25389,0.15565 z m 0.52131,-9.01808 0.10629,0.21786 z m 8.38823,-17.40735 -0.15248,0.0736 z m -12.95398,3.3692 c -1.95321,-1.7296 1.48229,2.52568 0,0 z m -1.73872,-4.22949 c -0.50048,-8.07033 -2.63828,-1.66051 0.46461,2.0223 l -0.46459,-2.02227 z m 17.80714,-16.45284 -0.18222,0.15681 z m -19.68494,11.77728 c -2.55441,-2.76377 -5.23414,-14.70159 -3.15576,-5.45623 0.9443,0.67855 1.87425,6.38665 3.15576,5.45623 z m -5.37768,-10.99512 c -1.54167,-3.60765 -5.19731,-12.331724 -2.30531,-3.4057 0.16092,0.83525 4.38349,7.84534 2.30531,3.4057 z m 20.93784,-14.449414 -0.18222,0.15681 z m -25.20857,6.607154 c -0.92823,-2.597754 -6.72837,-13.940614 -3.22565,-4.942804 0.94505,0.93927 2.10551,4.894964 3.22565,4.942804 z m -5.16319,-8.912184 c -2.15991,-4.56268 -6.77078,-10.4396 -1.77239,-2.08344 0.45603,0.0867 1.30385,2.60327 1.77239,2.08344 z m -4.96759,-7.71493 c -1.89021,-3.20748 -6.915705,-10.51416 -2.33559,-2.81724 0.6607,0.50115 1.50672,3.15246 2.33559,2.81724 z m -5.07083,-7.41241 c -1.523875,-4.45631 -5.822815,-7.8747301 -1.652975,-1.60275 0.25758,-0.10447 1.440215,2.66422 1.652975,1.60275 z m -4.324195,-5.84342 c -1.23333,-3.6741101 -6.60363,-10.53180014 -3.21103,-3.5859201 0.8835,0.42107 2.27251,4.2499701 3.21103,3.5859201 z m -5.42594,-7.0252001 c -2.86272,-5.20678 -6.09061,-5.88084 -1.07351,-0.61115 -0.47125,-0.0414 2.23978,2.10106 1.07351,0.61115 z m -4.72272,-5.34133 c -1.852359,-4.84559 -7.262789,-8.00679 -2.133699,-1.80928 0.74229,-0.2208 1.314579,2.95890996 2.133699,1.80928 z m 6.28567,-10.7558999 -0.0922,0.187384 z m -12.362289,3.6409299 c -1.75001,-3.8553639 -6.30554,-7.2618719 -2.03417,-1.2538999 0.56497,0.9521199 4.37368,4.3296799 2.03417,1.2538999 z m -4.77477,-4.5480459 c -2.51466,-3.436276 -7.24362,-6.979189 -1.746,-1.373799 l 1.53103,1.552674 0.21493,-0.178898 z m -5.74399,-5.91204 c -4.19156,-4.905872 -4.34438,-3.028862 0,0 z m -4.35684,-4.092046 c -5.08295,-5.401743 -2.98855,-1.602273 0,0 z m 10.08451,-8.113386 c -0.27016,-0.341124 -0.0412,0.568165 0,0 z m -14.63205,4.00047 c -3.54627,-4.744725 -7.19694,-5.38451 -1.04925,-0.513272 l 1.13378,0.915761 -0.0845,-0.402489 z m -6.62759,-5.672762 c -5.77261,-5.57818 -3.75007,-1.794406 0.94056,1.158312 l -0.33573,-0.58006 z m -5.66068,-4.673121 c -2.95111,-5.021029 -6.94537,-5.25612 -1.31177,-0.449304 0.58018,0.588964 2.88014,2.219795 1.31177,0.449304 z m -5.99611,-4.563019 c -5.63065,-4.892466 -4.09684,-2.165924 0.58618,0.904986 0.58243,-0.265588 -0.7867,-0.73831 -0.58618,-0.904986 z m -5.41954,-4.034388 c -2.7837,-3.116743 -7.62852,-5.807072 -1.87386,-1.125881 -0.0781,-0.153763 2.9068,2.508908 1.87386,1.125881 z m -4.07313,-6.080614 c 2.00358,-7.050376 -1.92315,0.262733 0,0 z m -2.15394,1.100188 c -2.86724,-3.160859 -7.51572,-5.413039 -1.62431,-0.794705 l 1.76735,1.204734 -0.14304,-0.410035 z m -6.74477,-5.349072 c -9.34218,-7.868379 1.54545,2.906046 0,0 z m -5.59033,-4.273444 c -3.27523,-3.362435 -6.54449,-4.658709 -1.22716,-0.579136 -2.25154,0.592592 2.1262,1.32553 1.22716,0.579136 z m -5.26176,1.076898 c 2.22959,-2.889235 -8.64347,2.941073 -1.43513,0.233646 0.38688,-0.04821 1.18947,0.33581 1.43513,-0.233646 z m -6.89067,-9.220837 c -2.02828,-2.117321 -1.66024,0.03513 0,0 z M -44.341406,101.84088 c -0.0323,-1.41444 0.61753,0.0157 0,0 z m -1.49147,-4.548709 c -0.39076,-1.58096 0.61235,0.42614 0,0 z m -42.573445,-44.57836 c 0.35301,-0.21165 0.0563,0.0915 0,0 z M -108.90649,25.565707 c -0.0214,-0.59652 0.33329,0.28785 0,0 z" />
  </g>
  <g
     inkscape:label="Layer 1"
     inkscape:groupmode="layer"
     id="layer1">
    <rect
       style="display:inline;opacity:0.996;fill:none;fill-opacity:0.0843374;stroke:#000000;stroke-width:0.499999;stroke-linecap:round;stroke-linejoin:round"
       id="rect19"
       width="203.2"
       height="203.2"
       x="0.9150818"
       y="19.216667" />
    <path
       id="rect21"
       style="display:inline;opacity:0.996;fill:none;fill-opacity:0.0843374;stroke:#000000;stroke-width:0.499999;stroke-linecap:round;stroke-linejoin:round"
       d="M 4.090082,22.391668 V 219.24166 H 176.84387 c -1.14734,-2.39226 -2.80892,-8.87011 -4.03179,-10.24433 0.84737,-2.04255 -1.34686,-2.92756 -0.75293,-4.23489 -0.35358,-1.49324 -0.93029,-7.30694 -3.54552,-2.21537 -2.56066,2.41203 -6.75654,5.62139 -9.15654,7.13962 -4.17581,2.89642 -7.31839,4.54421 -11.7259,4.63486 -5.39351,0.36625 -0.43198,-5.30813 2.01279,-7.55458 3.48992,-3.96711 7.00003,-7.52196 10.93215,-11.29957 1.09983,-0.71362 3.4195,-8.36297 -2.00866,-4.26227 -3.49644,2.01657 -6.4222,3.98489 -10.26914,4.15634 -3.91359,0.74718 -5.78364,-1.73999 -2.72852,-3.61736 3.22474,-4.82861 9.51539,-7.71566 12.81783,-12.08401 -5.08892,-1.11172 -9.51385,4.08452 -14.9562,4.89221 -3.45854,1.81663 -9.1257,-0.93089 -4.0876,-4.3801 4.61447,-2.96004 9.36109,-6.58643 14.00431,-8.73383 -3.1886,-1.61081 -10.32336,3.74227 -14.51643,4.49171 -2.1625,1.1808 -6.76557,1.3005 -8.54728,-0.0692 1.97239,-3.68284 5.28403,-5.59739 8.8806,-7.84862 3.08771,-2.2835 17.55024,-7.8383 6.24096,-5.30768 -5.41455,1.23413 -10.62694,6.21232 -16.05794,6.20323 -5.41589,0.0452 -0.19594,-5.39762 1.94769,-5.9185 1.99777,-2.09274 4.54294,-3.94594 7.32307,-5.81566 4.10713,-0.80332 10.69111,-6.22788 2.41535,-4.1982 -6.59602,0.92136 -11.95684,6.19652 -17.94567,6.2668 -5.61698,-0.70814 2.78162,-6.55247 4.78317,-7.86618 1.82307,-2.61324 16.36702,-7.33426 6.165,-4.51084 -4.94692,1.50021 -9.98697,5.66506 -15.9427,6.09627 -5.92082,-0.68585 2.84596,-6.34513 4.54236,-7.68635 2.6484,-2.16552 7.6336,-4.35544 10.88874,-6.07818 4.86437,-4.46304 -11.10932,2.48633 -12.76821,3.69796 -2.17141,2.12043 -13.37822,3.353 -6.40943,-2.04277 3.06916,-3.29034 6.68704,-4.7049 10.16889,-7.52615 6.21142,-2.64727 -6.44312,1.13375 -7.73028,2.37195 -3.7404,2.73424 -14.96381,2.58268 -7.53287,-2.22829 3.40619,-2.41818 7.09572,-4.23207 10.65929,-5.73454 4.01223,-1.89395 12.37933,-5.20326 2.69235,-2.42 -4.24838,-0.88719 -9.73093,3.59174 -13.52373,4.07003 -3.76947,2.36076 -8.66026,-0.85698 -7.92354,-1.86448 -3.341978,-1.96879 6.05308,-9.64993 9.26765,-11.57759 2.36341,-1.69099 10.9938,-5.9451 2.34042,-3.42098 -5.42135,-0.19485 -11.18005,4.78629 -17.048568,6.06888 -8.27514,1.37618 0.10101,-5.28068 3.35277,-6.82594 3.152648,-2.0194 13.037218,-6.52278 2.904218,-3.21169 -4.587398,2.74034 -16.644688,6.06836 -17.029458,1.38389 -3.94045,-1.51364 4.29054,-6.42472 6.53242,-8.50438 2.63157,-1.554605 16.816208,-7.965417 5.64462,-4.880325 -5.65163,1.035246 -17.50023,10.111925 -19.77709,5.520595 4.5638,-4.953058 10.4644,-8.235924 16.80776,-10.392132 -5.27719,-0.488834 -18.2506,9.204892 -19.35127,4.54701 3.32547,-6.090293 14.37313,-7.778089 16.89251,-11.155392 -8.93488,1.347724 -15.91871,9.288365 -24.87394,9.041308 4.96284,-6.461239 12.5693,-9.746544 19.08308,-13.709759 -7.18667,0.863225 -19.51702,10.016752 -23.01255,7.060036 3.02799,-4.033665 7.91404,-6.898555 12.08918,-9.04131 -5.27422,0.824905 -15.74205,10.839183 -17.66042,5.969662 3.33924,-4.356002 14.70583,-10.685807 14.8053,-11.031368 -6.14631,0.43389 -14.19885,7.00161 -18.86397,5.123203 2.37064,-5.883955 14.56433,-8.589819 14.83837,-10.509953 -6.57595,0.785323 -13.63777,7.176859 -19.06911,6.847644 1.58211,-6.098262 13.5431,-9.307566 13.70717,-11.131622 -4.65479,0.422987 -19.45942,6.400991 -18.97197,1.643312 5.65685,-3.528486 9.4129,-4.600612 13.89528,-5.905066 -4.61332,-0.655836 -15.57264,3.727735 -21.41265,-0.928624 -6.39433,-2.048045 8.71202,-6.043618 10.53166,-9.445937 4.89558,-2.158418 -9.86074,1.56805 -12.73204,2.313037 -11.18654,-0.647607 15.05477,-8.009572 6.89518,-8.134903 -4.09737,2.2004 -21.2189,5.253562 -9.45523,-0.780314 3.03011,-5.312087 13.40613,1.81134 5.19709,-3.418395 -4.02452,0.06066 -19.10384,3.981198 -9.13742,-1.738398 3.83972,-2.383001 9.28224,0.819391 2.23139,-2.391066 -4.70133,2.038213 -15.07033,0.222592 -5.20847,-2.733685 7.83538,-0.172342 -14.72215,-0.555474 -4.2907,-3.12694 -5.30223,-0.855301 -6.66761,-2.567361 -8.87387,-6.65179 z m 13.86013,0 c 0.89646,0.596444 1.6322,1.071195 2.18902,1.085721 2.40236,-4.160927 4.5645,12.249443 4.50877,2.386418 3.4395,-6.777635 2.5589,9.6372 6.64403,8.08271 -5.38187,-4.829236 4.07606,-12.005597 2.88872,-2.043803 0.59858,10.26479 1.99278,1.090284 2.58847,-4.051948 6.99729,1.090793 1.72277,19.641727 5.67666,8.336441 1.03185,-10.34632 7.47014,-0.627804 4.08554,5.233273 -2.13096,4.728305 8.48669,9.555027 1.21181,3.590478 -0.7909,-2.329601 3.75529,-14.228205 6.94789,-10.379729 0.58823,4.138496 -4.28418,19.519286 -0.15709,9.049578 -0.31673,-6.121487 5.9179,-11.688662 5.80688,-2.233456 -0.18619,4.657738 -2.7566,16.937582 0.30024,5.918501 1.23422,-2.438754 1.75068,-9.553236 5.23741,-6.193935 2.73445,3.326371 -1.93594,16.509785 0.0532,14.775841 1.30364,-3.808804 2.46419,-9.573903 6.12056,-11.369847 3.66891,3.441732 -2.10056,20.070061 1.98644,8.401553 2.81317,-11.434172 8.1202,1.908119 4.14445,7.357173 1.0357,5.126922 1.6121,-6.818608 4.51084,-8.160742 5.82063,-1.968135 2.83148,8.870807 1.9389,12.273669 -1.46614,7.133569 -0.29652,5.920957 1.28622,0.174151 0.6,-3.409084 5.87368,-13.34984 7.70186,-6.152596 -1.16614,5.299151 3.90922,-2.174428 4.79092,4.349604 0.14519,2.641777 -2.41605,13.165277 -0.8568,10.390063 0.69063,-4.230484 7.949418,-12.555601 7.895648,-4.244184 2.31484,-2.16558 5.7661,4.714145 2.47478,8.859406 -1.42097,8.325975 -0.40872,3.862152 2.68511,-2.097545 2.76016,-7.061073 8.56864,-2.23225 5.34076,2.836519 -0.43583,0.881049 -1.12573,2.567143 -1.77871,4.287594 0.003,0.004 0.005,0.0033 0.008,0.0078 -0.0136,0.186991 -0.0473,0.207396 -0.077,0.171566 -1.30177,3.450487 -2.40411,6.954166 -0.9126,4.430221 1.28952,-3.932463 2.62183,-7.795154 6.03735,-10.970909 4.16498,-2.362985 3.78098,5.595882 2.37764,6.898289 -1.14642,4.447378 -4.19153,11.230313 -3.93103,12.828674 2.40537,-2.371032 2.78789,-7.529266 5.6472,-9.60665 1.7299,-3.702534 7.02093,-5.592024 6.07715,-0.198954 -0.73813,4.715566 -4.47581,8.883542 -4.76767,13.526823 2.25086,-2.514359 4.75912,-8.99378 9.19169,-11.433926 3.99829,-2.374527 2.93862,5.8992 0.96686,7.518402 -3.0719,4.251828 -6.21686,11.559458 -1.37407,4.292248 2.70598,-2.414333 5.1998,-4.933399 8.68836,-7.656901 3.31523,0.663551 1.6573,6.541746 -1.54875,9.582361 -3.52114,3.6663 -7.09385,11.89794 -6.43216,12.57132 3.0947,-3.60559 6.99284,-7.87117 9.55652,-10.79158 1.41106,-1.86548 7.71797,-5.149319 7.23418,-0.50488 -1.05684,3.97018 -7.59519,9.06882 -7.96385,11.8923 2.98665,-3.70654 5.5225,-5.62248 8.90178,-8.31474 3.14466,-4.67708 6.20457,-1.59864 4.86895,1.28261 -0.77273,4.97771 -4.77519,6.60608 -7.90287,11.27683 -6.52425,8.98949 2.09858,-0.99376 4.6116,-2.93212 2.47113,-2.32922 3.64858,-4.15054 7.3055,-5.70405 3.3269,-1.68506 2.60897,4.05494 1.19993,5.73712 -3.16589,5.66819 -6.06337,8.20443 -10.19628,13.91336 1.34556,-0.0349 5.22479,-5.89653 8.27908,-7.08587 1.3726,-1.82677 6.5069,-7.81056 7.29258,-3.5326 2.1391,5.98019 -5.61338,11.82952 -9.25473,16.83205 -2.52745,4.18273 -6.92091,10.28572 -0.61495,4.24677 3.70362,-2.69148 5.82086,-6.62052 9.19892,-9.46093 2.26622,-1.65837 7.10135,-3.5095 6.5226,-0.0382 -0.66605,3.82725 -2.46867,7.53918 -6.48798,11.88765 -3.74321,3.75899 -11.5381,13.93526 -2.26549,6.77168 3.33032,-2.86866 6.2496,-5.03512 10.06192,-6.54844 2.15913,-1.78029 5.33186,-3.77009 8.99583,-3.93154 2.06257,2.75613 -0.99316,5.50363 -3.94188,9.28367 -4.53132,4.09205 -13.23275,10.14549 -14.52573,13.64258 4.93228,-2.05687 9.7074,-5.45107 14.95154,-7.18303 4.16916,-1.08363 6.98454,-3.44297 10.13944,-2.30322 2,1.353 -2.25032,6.27397 -4.62401,7.97161 -3.64075,3.30704 -14.96303,8.25348 -13.83378,11.40396 4.43134,-1.34619 8.88002,-4.14242 13.563,-5.17126 3.94367,-1.23927 11.12558,-3.0344 7.1453,3.85764 -6.18912,6.54373 -15.84702,11.68112 -23.72414,13.53457 1.18207,3.7867 4.37219,14.79109 3.81372,4.81366 1.09395,-10.52418 6.21033,-1.94547 11.21896,-1.18597 5.71594,0.61408 10.93547,3.62668 15.93856,6.01462 0.57064,0.2299 1.01089,0.49324 1.35185,0.77721 V 22.391668 Z m 96.153818,60.640226 c 0.0228,-0.06038 0.0458,-0.119004 0.0687,-0.179318 -0.16922,-0.203243 -0.12819,0.107701 -0.0687,0.179318 z M 43.843732,44.238395 c -0.33553,0.03617 0.1972,0.955297 1.28674,0.932244 -0.69722,-0.727829 -1.11099,-0.95119 -1.28674,-0.932244 z m 9.44541,5.952609 c -0.24218,0.004 0.44042,0.759736 2.76676,2.544549 -2.25154,0.592589 2.12636,1.325686 1.22731,0.579291 -1.84231,-1.891368 -3.68269,-3.129015 -3.99407,-3.12384 z m -1.35909,3.375504 c -1.57079,0.07795 -6.97562,3.174029 -1.3441,1.058849 0.38687,-0.04821 1.18991,0.335881 1.43557,-0.233576 0.48772,-0.632021 0.34836,-0.847098 -0.0915,-0.825273 z m 7.13497,1.08779 c -0.39287,0.04411 4.91934,5.022392 3.80855,2.93367 -2.62749,-2.21298 -3.65482,-2.950932 -3.80855,-2.93367 z m 13.20746,4.111376 c -0.37982,-0.148302 -1.8224,3.251761 -0.50023,3.07113 0.62612,-2.203241 0.67287,-3.00372 0.50023,-3.07113 z m -7.06624,0.750342 c -0.2595,0.0081 0.39405,0.750515 2.78743,2.626712 l 1.76734,1.204579 -0.14263,-0.41031 c -1.70242,-1.876761 -4.03286,-3.432842 -4.41214,-3.420981 z m 6.09524,4.753197 c -0.15546,0.04845 0.51212,0.766882 2.67012,2.522329 -0.0781,-0.153765 2.90673,2.509054 1.87379,1.12603 -1.73981,-1.947966 -4.28481,-3.729112 -4.54391,-3.648359 z m 6.37894,5.004864 c -0.28037,0.05782 1.38975,1.759373 4.17029,3.582726 0.58243,-0.265587 -0.78654,-0.738177 -0.58601,-0.904854 -2.28745,-1.987563 -3.39245,-2.717432 -3.58428,-2.677872 z m 5.59397,3.328995 c -0.49116,0.06388 0.034,1.209644 2.67477,3.462838 0.58018,0.588965 2.87993,2.21956 1.31155,0.449069 -1.56777,-2.667423 -3.42967,-3.984302 -3.98632,-3.911907 z m 6.1712,5.721615 c -0.40452,0.0062 1.48463,2.176529 4.41627,4.021976 l -0.33538,-0.580326 -0.60513,-0.578258 c -2.16473,-2.091819 -3.23304,-2.867102 -3.47576,-2.863392 z m 5.84822,4.660696 c -0.40423,0.0064 0.32428,1.078677 3.20601,3.362071 l 1.13378,0.915705 -0.0842,-0.402043 c -1.88396,-2.520635 -3.79742,-3.882961 -4.25556,-3.875733 z m 5.781048,5.191932 c -0.3647,-0.06483 1.15419,1.795309 3.02203,2.796728 -1.9061,-2.025653 -2.80322,-2.757826 -3.02203,-2.796728 z m 4.23488,3.873148 c -0.32057,-0.02737 0.70028,1.311585 3.14399,3.015321 -1.83381,-2.146318 -2.89465,-2.99403 -3.14399,-3.015321 z m 4.61522,4.618839 c -0.15855,0.01712 0.46485,0.832684 2.52646,2.934706 l 1.53117,1.552872 0.21498,-0.1788 c -1.57166,-2.147669 -4.00835,-4.3373 -4.27261,-4.308778 z m 5.39761,4.340818 c -0.39841,-0.0657 -0.11985,0.82108 1.6154,3.26182 0.56497,0.95212 4.37401,4.32996 2.0345,1.25418 -1.03907,-2.28912 -3.06763,-4.42004 -3.6499,-4.516 z m 16.01194,0.87488 -0.092,0.18759 z m -10.3973,5.51233 c -0.44997,-0.0568 -0.10552,0.91668 1.97817,3.43441 0.74229,-0.2208 1.3146,2.95883 2.13372,1.8092 -1.09983,-2.87707 -3.45424,-5.16056 -4.11189,-5.24361 z m 5.25394,6.33605 c -0.3847,0.003 0.15506,1.16733 2.50682,3.6375 -0.47124,-0.0414 2.24011,2.10124 1.07384,0.61133 -1.52082,-2.7661 -3.14466,-4.2528 -3.58066,-4.24883 z m 4.78834,4.70203 c -0.25764,-0.007 -0.053,0.8158 1.00717,2.98638 0.8835,0.42107 2.27214,4.24988 3.21066,3.58583 -0.84791,-2.52595 -3.65101,-6.55677 -4.21783,-6.57221 z m 5.24671,7.38663 c -0.3475,-0.0705 -0.0512,0.87816 1.64279,3.42615 0.25758,-0.10447 1.43985,2.66396 1.65261,1.60249 -0.9048,-2.64594 -2.78753,-4.92564 -3.2954,-5.02864 z m 4.16202,6.22081 c -0.056,0.0579 0.43733,0.99812 1.86862,3.40341 0.6607,0.50115 1.5069,3.1521 2.33577,2.81688 -1.29952,-2.20514 -4.08122,-6.3476 -4.20439,-6.22029 z m 5.19451,7.63571 c -0.19222,-0.0496 0.33064,1.08272 2.20504,4.21628 0.45603,0.0867 1.30396,2.60342 1.7725,2.0836 -1.34995,-2.85168 -3.65717,-6.21719 -3.97754,-6.29988 z m -30.77176,0.30024 c 0.0751,-0.0164 0.21224,0.42673 -0.0377,0.21084 -0.005,-0.14913 0.0127,-0.20536 0.0377,-0.21084 z m 35.62366,6.55671 c -0.17125,-0.0402 0.0779,0.88156 1.06299,3.41219 0.94505,0.93927 2.1055,4.89501 3.22564,4.94285 -0.66717,-1.86713 -3.85098,-8.2522 -4.28863,-8.35504 z m 29.49743,1.74769 -0.18242,0.1571 z m -24.30085,7.15202 c -0.11075,0.0369 0.15407,1.10237 1.05782,3.89175 0.16092,0.83525 4.38347,7.84512 2.30529,3.40548 -1.0599,-2.48026 -3.11945,-7.37836 -3.36311,-7.29723 z m 28.42566,6.51537 -0.18242,0.15657 z m -23.58151,2.86855 c -0.0278,0.0355 0.18846,0.99671 0.74053,3.45251 0.9443,0.67855 1.87437,6.38641 3.15588,5.456 -1.8759,-2.02965 -3.81944,-9.00669 -3.89641,-8.90851 z m -25.04498,2.44223 c 0.0628,-0.008 -0.11487,0.14511 -0.1571,0.0765 0.0883,-0.0529 0.13616,-0.0737 0.1571,-0.0765 z m 30.00179,7.25382 c -0.5338,-0.0975 -0.75418,3.49339 1.28209,5.91024 l -0.46457,-2.0221 c -0.17204,-2.77418 -0.53791,-3.83709 -0.81752,-3.88814 z m 15.51016,4.74855 -0.15245,0.0734 z m -13.55214,2.94349 c -0.23951,0.0536 1.80225,2.47793 0.59789,0.42581 -0.36622,-0.32429 -0.54262,-0.43817 -0.59789,-0.42581 z m 4.89427,13.51029 c 1.22328,2.37038 1.64634,7.01855 2.2071,5.90816 1.02712,6.39409 3.56447,11.48324 5.25033,17.61598 h 21.19819 v -19.82049 c -0.88262,1.16801 -2.16046,2.06509 -2.77296,2.14457 -3.29797,0.42087 -7.67652,0.25194 -12.92944,-1.26969 -4.18457,-0.18621 -9.31512,-1.50287 -12.95322,-4.57853 z" />
  </g>
</svg>
