<?xml version="1.0" encoding="UTF-8" standalone="no"?>
<svg
   xmlns:dc="http://purl.org/dc/elements/1.1/"
   xmlns:cc="http://creativecommons.org/ns#"
   xmlns:rdf="http://www.w3.org/1999/02/22-rdf-syntax-ns#"
   xmlns:svg="http://www.w3.org/2000/svg"
   xmlns="http://www.w3.org/2000/svg"
   xmlns:sodipodi="http://sodipodi.sourceforge.net/DTD/sodipodi-0.dtd"
   xmlns:inkscape="http://www.inkscape.org/namespaces/inkscape"
   width="210mm"
   height="297mm"
   viewBox="0 0 210 297"
   version="1.1"
   id="svg5"
   inkscape:version="1.0.2-2 (e86c870879, 2021-01-15)"
   sodipodi:docname="swordfern_20230506_173359762_frame.svg">
  <metadata
     id="metadata25">
    <rdf:RDF>
      <cc:Work
         rdf:about="">
        <dc:format>image/svg+xml</dc:format>
        <dc:type
           rdf:resource="http://purl.org/dc/dcmitype/StillImage" />
      </cc:Work>
    </rdf:RDF>
  </metadata>
  <sodipodi:namedview
     id="namedview7"
     pagecolor="#ffffff"
     bordercolor="#666666"
     borderopacity="1.0"
     inkscape:pageshadow="2"
     inkscape:pageopacity="0.0"
     inkscape:pagecheckerboard="0"
     inkscape:document-units="mm"
     showgrid="false"
     inkscape:zoom="0.38469101"
     inkscape:cx="440.35304"
     inkscape:cy="419.91843"
     inkscape:window-width="1114"
     inkscape:window-height="640"
     inkscape:window-x="12"
     inkscape:window-y="33"
     inkscape:window-maximized="0"
     inkscape:current-layer="layer1"
     inkscape:document-rotation="0" />
  <defs
     id="defs2" />
  <g
     inkscape:label="Layer 1"
     inkscape:groupmode="layer"
     id="layer1">
    <path
       style="fill:none;stroke:#000000;stroke-width:2.64567;stroke-miterlimit:4;stroke-dasharray:none;stroke-opacity:1"
       d="m 786.73828,671.54883 c -0.31234,0.0165 -0.55859,0.15519 -0.55859,0.32031 0,0.17613 0.36994,0.31836 0.82031,0.31836 0.46466,0 0.73335,-0.13694 0.62109,-0.31836 -0.10877,-0.17613 -0.47669,-0.32031 -0.81836,-0.32031 -0.0214,0 -0.0436,-10e-4 -0.0644,0 z"
       transform="scale(0.26458333)"
       id="path11304" />
    <path
       style="fill:none;stroke:#000000;stroke-width:2.64567;stroke-miterlimit:4;stroke-dasharray:none;stroke-opacity:1"
       d="m 792.40234,464.07227 c -0.37745,0.0179 -0.56307,0.33127 -0.30078,0.75585 0.24102,0.39081 0.50157,0.39667 1.08203,0.0293 0.35524,-0.22511 0.31153,-0.34979 -0.2207,-0.63476 -0.20775,-0.11115 -0.40118,-0.15797 -0.56055,-0.15039 z"
       transform="scale(0.26458333)"
       id="path11302" />
    <path
       style="fill:none;stroke:#000000;stroke-width:0.5;stroke-miterlimit:4;stroke-dasharray:none;stroke-opacity:1"
       d="m 19.436447,309.79931 c -0.18427,-0.24589 -0.18925,-0.4283 -0.0135,-0.49574 0.20591,-0.079 0.2887,0.0156 0.2887,0.32989 0,0.36383 -0.0873,0.41647 -0.27517,0.16585 z"
       id="path1254" />
    <path
       id="path11296"
       style="fill:none;stroke:#000000;stroke-width:0.484375;stroke-miterlimit:4;stroke-dasharray:none;stroke-opacity:1"
       d="M 6.2500618,18.20381 V 214.99485 H 140.21742 c 0.0257,-0.26279 0.0817,-0.60332 0.0648,-0.73398 0.59376,-0.43622 0.30109,-1.06345 0.51812,-1.66057 -0.30079,-0.32264 0.9264,-0.74715 0.45266,-1.32773 0.48574,-0.80155 0.40494,-1.78883 1.07904,-2.48904 0.79895,-0.52693 0.009,-1.23072 -0.49731,-1.61241 -0.49881,-0.42338 -1.66066,-1.45417 -0.36947,-1.47953 0.70667,-0.49351 1.66894,-0.40374 2.50002,-0.36942 0.90352,0.16828 1.79704,0.42686 2.65295,0.7547 0.31753,-0.13942 -0.73365,-0.55329 -1.07721,-0.48464 -0.49568,-0.26088 -0.76799,-0.51228 0.0227,-0.53281 0.44546,-0.25617 0.51576,-0.7044 0.21288,-0.88453 0.47817,-0.73565 -0.32542,-1.52467 -0.37253,-2.30493 0.1267,-0.88781 -0.70689,-1.52547 -0.92733,-2.32262 -0.23683,-0.37741 6.2e-4,-0.88934 -0.50282,-0.29627 -0.35953,0.50873 -0.61333,0.73898 -0.72364,-0.01 -0.50717,0.2936 -0.66822,1.40305 -1.28091,1.15217 -0.2413,0.42522 -0.7274,1.03283 -1.09556,1.1357 -0.10396,-0.85526 -0.72974,0.42833 -1.29987,-0.0567 -0.83691,0.21335 -1.57371,0.8104 -2.09568,1.49355 -0.50533,0.39288 -0.85491,1.108 -1.05213,1.6179 0.46,0.42659 0.32585,0.86066 0.15782,1.17899 -0.11192,0.88755 -0.86203,1.6315 -1.06068,2.51768 -0.26948,0.86477 -0.78221,1.57636 -1.20505,2.37321 -0.47543,0.68062 -0.93137,1.3785 -1.58859,1.91661 -0.25537,0.29754 -0.77263,1.12539 -0.51566,0.22312 -0.33144,-0.68023 -0.14293,-1.54288 0.0275,-2.23971 -0.0987,-0.76927 0.093,-1.50276 0.25998,-2.26348 -0.42133,-0.57436 0.48623,-1.54145 0.4294,-2.28299 0.46531,-0.68915 0.63763,-1.52875 1.11208,-2.23055 0.44852,-0.78699 0.97735,-1.53043 1.23441,-2.40918 0.33224,-0.86248 0.701,-1.71837 1.01236,-2.58352 0.38183,-0.7715 0.84894,-1.49323 1.18671,-2.28422 0.50876,-0.59475 0.67073,-1.34394 1.10901,-1.99951 0.11423,-0.50319 0.0229,-1.58319 -0.33093,-1.7258 0.0619,0.43556 0.0469,0.74547 -0.53096,0.5401 -0.56491,-0.49526 0.18591,-1.87067 0.42087,-1.99768 -0.0215,0.53303 0.29213,0.6981 0.14374,0.0689 -0.11024,-0.40679 -0.44612,-0.78626 0.21042,-0.51755 0.89293,-0.14706 1.8447,-0.26327 2.66824,0.21581 0.84887,0.42292 1.54608,1.09133 2.23883,1.72153 0.84387,0.87025 -0.3215,-0.52478 -0.50037,-0.82481 -0.17207,-0.87309 0.0761,-1.73676 -0.42637,-2.57254 -0.15568,-0.19103 0.13719,-1.19224 -0.26363,-0.74128 -0.37225,0.31201 -0.7696,0.592 -1.1659,0.87235 0.34514,-0.39599 1.02249,-1.23397 0.98911,-1.40028 -0.61147,0.12572 -0.0478,-1.28447 -0.68266,-1.58072 -0.26861,-0.27569 -0.26469,-0.96042 0.2245,-0.77847 -0.0354,-0.49819 -0.52386,-0.79911 -0.44716,-0.0524 -0.3739,0.74466 -0.59226,1.74135 -1.3751,2.15009 -0.33827,0.10591 -1.19214,0.93314 -0.983,0.28287 -0.49898,0.27366 -1.17734,1.16732 -1.55127,1.22347 -0.46863,-0.38294 -0.97002,0.63829 -1.47726,0.82786 -0.3195,0.30498 -0.51832,0.50009 -0.38964,-0.003 -0.60693,0.12613 -1.47891,1.03546 -1.8547,0.98391 -0.41464,-0.24653 -1.11126,0.60758 -1.6522,0.70349 -0.51509,-0.48941 -1.17214,0.85834 -1.77393,0.44075 -0.54486,0.36057 -1.04916,0.75053 -1.59898,0.61997 -0.69012,0.55791 -1.39403,0.25683 -2.18499,0.59803 -0.81531,0.0243 -1.64301,0.23672 -2.46883,0.40173 -0.76289,-0.14337 -1.6473,0.0501 -2.43763,0.12375 -0.79832,-0.2396 -1.68278,0.24039 -2.44558,0.26457 -0.72913,0.14378 -1.60582,0.38703 -2.38012,0.6017 0.72075,-0.48939 1.13483,-1.34284 1.82103,-1.78922 0.32216,-0.37205 0.75477,-0.58318 1.16529,-0.87844 -0.15404,-0.52064 0.92952,-0.36413 1.12186,-0.86687 0.63298,-0.36739 1.24994,-0.73257 1.83754,-1.13144 0.43795,-0.32547 1.10219,-0.34259 1.46441,-0.76262 0.71624,-0.1281 0.96495,-0.75174 1.73295,-0.90588 0.44921,-0.43785 1.07881,-0.53183 1.37694,-1.04608 0.66856,-0.57935 1.20975,-1.04083 2.00087,-1.45818 0.55531,-0.34443 1.25928,-0.5209 1.57392,-0.87663 0.89435,-0.047 1.39344,-0.65912 2.1544,-0.99304 0.61597,-0.30314 0.61578,-0.87459 1.36654,-1.02232 0.30107,-0.29763 0.92859,-0.99067 0.21287,-0.31212 -0.74365,0.36063 -1.33257,0.76416 -1.92807,1.23994 -0.41906,0.17548 -1.80245,0.60156 -0.86617,0.008 0.71558,0.091 0.69159,-0.76194 1.43811,-1.01073 0.19724,-0.92718 1.17363,-0.9492 1.78311,-1.52037 0.66197,-0.46342 0.76404,-1.44966 1.29435,-2.0745 0.34198,-0.32404 0.51419,-0.94351 0.69305,-1.15825 0.9021,0.13869 1.83948,0.25791 2.52388,0.93879 0.34879,0.22255 0.90679,1.24955 0.48263,0.29749 -0.30108,-0.41032 -0.96464,-0.71671 -0.61598,-1.21556 -0.34185,-0.65563 0.23819,-0.47675 0.3401,0.0146 0.45156,-0.006 0.77354,-1.17629 0.20676,-0.4493 -0.79115,-0.0577 -0.64558,-1.1883 -1.2289,-1.61668 -0.29567,-0.54346 0.58151,-0.16621 0.10279,-0.80468 -0.33258,0.16814 -0.46192,1.34866 -0.96954,1.76238 -0.39697,0.61806 -1.75664,1.17755 -2.05899,1.18935 0.22873,-0.73589 -0.85919,0.27834 -1.21117,0.22738 -0.25279,0.0779 -0.77692,0.37839 -0.46427,-0.0531 -0.64989,0.12242 -1.3851,0.74344 -1.89139,0.9772 0.33861,-0.91706 -1.42326,0.80393 -1.41853,0.40052 -0.61693,-0.32668 -1.2984,1.03978 -1.63752,0.56206 -0.49636,0.14082 -1.1799,1.20806 -1.25093,0.51755 -0.54119,0.1927 -1.14502,0.90658 -1.48155,0.3932 -0.44685,0.50895 -1.0222,0.58097 -1.48887,0.50841 -0.47719,0.31515 -0.9217,0.45098 -1.2546,0.25848 -0.34167,0.24867 -0.87675,0.6259 -1.08025,0.1902 -0.37112,0.45785 -0.87201,0.13499 -1.14511,0.17556 -0.67759,0.25993 -1.61459,0.29051 -2.24312,0.27128 -0.30557,-0.26641 -1.14399,0.42347 -1.06007,-0.18227 -0.73505,0.45905 -1.46379,0.19185 -2.2951,0.58461 -0.42345,0.0192 -2.07962,0.86212 -1.07904,0.0744 0.63504,-0.69553 1.20106,-1.48875 1.98925,-2.00257 0.31484,-0.43299 0.69046,-0.63463 1.22035,-0.85101 0.0301,-0.45137 0.96102,-0.30549 1.06435,-0.7614 0.65434,-0.29314 0.98189,-0.6994 1.621,-1.02537 0.66419,-0.4602 1.39941,-0.7483 2.2058,-0.94062 0.93849,-0.27049 1.76916,-0.77906 2.64989,-1.1796 0.69824,-0.47392 1.41083,-0.90337 2.12688,-1.34785 0.66662,-0.54469 1.54446,-0.74025 2.26085,-1.21434 0.39653,-0.0827 1.43159,-0.90241 0.49181,-0.38465 -0.70952,0.22684 -1.54064,0.83095 -2.25962,0.5468 -0.0228,-0.49725 0.34069,0.0381 0.42023,-0.44317 0.41017,-0.61913 1.32382,-0.71406 1.83144,-1.15339 0.61123,-0.71828 1.70524,-0.71549 2.31773,-1.45208 0.70963,-0.63334 1.29211,-1.42281 2.04859,-1.98672 0.26548,0.10366 0.35868,0.77931 0.32909,0.0298 0.33935,-0.0385 1.27137,0.41291 1.75619,0.65288 0.37865,0.23525 0.92761,0.72 0.3658,0.1518 -0.40162,-0.37418 -0.7536,-0.8073 -0.36824,-1.24055 -0.14131,-0.73839 -1.72599,-1.36031 -0.6007,-1.98184 -0.77194,-0.14128 -0.61725,1.19523 -1.19159,1.57523 -0.53328,0.86506 -1.64577,0.90359 -2.38564,1.49659 -0.0168,-0.0581 0.54327,-0.89546 -0.14007,-0.52305 -0.5483,0.14612 -1.20948,0.58267 -1.59408,0.77969 0.56065,-0.36051 0.15854,-0.68982 -0.23552,-0.23042 -0.68417,0.54374 -1.71506,0.52476 -2.17154,1.3588 -0.24458,0.22715 -0.50757,0.71091 -0.56582,0.18472 -0.5761,0.44888 -1.46406,0.93312 -1.86813,1.31676 0.50254,-0.45208 0.14444,-0.78265 -0.3083,-0.33773 -0.48756,0.17761 -1.13347,0.68872 -1.42709,0.26275 -0.38234,0.0538 -1.22075,0.90654 -1.26194,0.64314 0.31035,-0.72665 -1.3329,0.81059 -0.8099,-0.0108 0.25278,-0.50755 -0.93898,1.03454 -0.62454,0.17313 -0.30993,-0.41178 -1.31457,0.99573 -1.54088,0.22678 -0.79244,0.57308 -1.82345,0.23132 -2.70188,0.61265 -0.70073,-0.32453 -1.59445,0.14173 -2.3942,0.0818 -0.77245,-0.25932 -1.92495,0.37229 -2.49757,-0.11766 -0.3344,-0.13481 -1.42515,0.34678 -1.17324,-0.15118 -0.44974,0.033 -0.8412,0.13327 -1.09127,-0.19752 -0.91624,0.0894 -1.6748,-0.62343 -2.59974,-0.6029 0.81651,-0.0951 1.83401,-0.54694 2.29817,-0.96745 0.7841,0.0614 0.97322,-0.48417 1.78372,-0.35541 0.1048,-0.56656 1.17747,0.12092 1.29313,-0.55046 0.77503,0.0239 1.37157,-0.46546 2.0859,-0.63705 0.75927,-0.25452 1.58221,-0.57597 2.4046,-0.76994 0.76057,-0.21029 1.49805,-0.5811 2.10853,-1.06742 0.8601,-0.25048 1.60802,-0.81576 2.28837,-1.35089 0.55935,-0.34116 1.15344,-0.41306 1.37939,-0.92539 0.70138,-0.31178 1.59309,-0.58757 2.08101,-1.10036 0.0932,-0.46183 1.83668,-0.42567 1.33411,-0.92295 -0.47529,0.037 -0.59973,0.65008 -1.28641,0.58767 -0.45173,0.0815 -1.46823,0.43768 -0.56887,0.51329 -0.48371,0.0408 -1.24021,0.3654 -1.90178,0.40539 0.52778,-0.11141 -0.26427,-0.47026 0.42696,-0.54681 0.61587,-0.22907 0.80614,-0.88581 1.47237,-1.03939 0.90441,-0.17348 1.65549,-0.60155 2.56119,-0.75835 0.93123,-0.23414 1.79295,-0.68919 2.63215,-1.1101 0.86914,-0.26772 1.24677,-1.21324 1.86508,-1.81358 0.17154,-0.68439 1.04702,-0.62263 0.6906,0.0987 -0.2124,0.3168 -0.9594,1.33257 -0.71691,1.28079 0.39531,-0.58251 0.99407,-1.21297 0.95547,-1.87639 0.26269,0.0789 1.46884,0.42386 0.60192,0.0317 -0.22166,-0.24128 0.77869,-0.22578 0.27405,-0.74069 -0.35077,-0.2704 -0.53917,-1.00812 -0.81602,-1.08326 -0.48869,-0.20739 1.11229,-0.91213 1.08209,0.0158 0.12026,0.42756 0.69333,1.48237 0.97567,1.31188 -0.24804,-0.73994 -0.35316,-2.32977 -1.47419,-1.99282 -1.17905,0.0781 -0.77355,1.4723 -1.58431,1.99465 -0.65819,0.61548 -1.4761,1.05857 -2.3104,1.37345 0.55478,-0.22285 0.2319,-0.89313 -0.27648,-0.42612 -0.37968,0.10527 -1.35204,0.7275 -1.44484,0.48769 1.7e-4,-0.51452 -0.94436,0.51845 -1.23441,0.66447 -0.30556,0.18698 -0.86113,0.7732 -0.54808,0.0848 -0.55794,0.21908 -1.56268,1.48334 -1.84428,1.36857 0.17861,-0.64781 -0.78095,0.45559 -1.06069,0.44379 -0.35625,0.11372 -0.66142,0.66142 -0.60437,0.0176 -0.35221,0.38134 -1.45463,0.92047 -1.74028,0.64741 -0.0304,-0.91097 -0.70327,0.89534 -1.31332,0.53462 -0.4958,0.0727 -1.13226,0.97588 -1.29313,0.38832 -0.60649,0.6773 -1.46441,0.51972 -2.16238,0.87479 -0.4217,0.44533 -0.85768,0.13707 -1.18792,0.16704 -0.71095,0.63228 -1.42848,0.11096 -2.15318,0.69921 -0.48705,0.29066 -0.33623,-0.47539 -0.84721,-0.0207 -0.71414,0.23204 -1.35795,0.1405 -2.06878,0.43404 0.15139,-0.55183 -0.89473,0.43812 -1.29129,0.11826 -0.34785,0.16388 -0.59773,0.27144 -0.69918,-0.0384 -0.58381,0.52279 -1.96559,0.41586 -1.34328,-0.66082 0.35114,-0.67307 0.53603,-1.16548 1.24174,-1.37467 -0.49998,-0.29701 1.02996,-0.19091 0.64473,-0.76993 0.70952,-0.19534 0.997,-0.58692 1.69442,-0.84065 0.21894,-0.56783 1.04595,-0.49944 1.41792,-0.97295 0.73679,-0.10558 1.2982,-0.62317 2.03207,-0.80893 0.17904,-0.57255 1.08433,-0.46055 1.37938,-0.93698 0.82585,-0.0607 1.11972,-0.72298 1.91096,-0.9199 0.6563,-0.64763 1.51673,-1.06288 2.38502,-1.39845 0.79952,-0.34014 1.16549,-0.89738 1.95255,-1.22165 0.84881,-0.45292 1.55499,-1.09285 2.41866,-1.4399 0.78381,-0.48279 1.51302,-1.07743 2.32142,-1.54902 0.79763,-0.17054 1.15093,-0.88806 1.54331,-1.39052 0.43122,-0.27804 0.68802,-0.6483 1.18732,-0.86016 -0.0504,-0.33675 -0.56444,-0.51655 -0.74139,-0.11278 1.04446,-0.14663 -0.87929,0.84999 -0.88758,-0.0311 -0.7787,0.12009 -1.75123,0.465 -2.50675,0.87236 0.28184,-0.15282 0.73088,-1.07443 -0.0244,-0.71628 -0.42732,0.30228 -0.29713,0.8384 -0.80561,0.68032 -0.43361,0.5458 -1.12942,0.98101 -1.43872,1.53195 0.28533,-1.04829 -0.87286,0.34009 -1.28579,0.40721 -0.30445,0.30327 -0.79492,0.80547 -0.39761,0.0335 -0.33307,-0.15424 -0.72211,0.89867 -1.06926,0.38588 -0.24843,0.26811 -0.88919,1.01019 -0.61475,0.35053 -0.28234,0.0523 -1.05848,0.79731 -0.87962,0.20117 -0.28557,0.28089 -0.93367,1.04977 -0.5854,0.29627 -0.51777,0.12152 -1.26497,0.71935 -1.47605,0.80346 0.33035,-0.94633 -1.41789,0.76574 -0.69793,-0.13045 0.48512,-0.37799 0.23846,-0.45369 -0.0936,-0.0597 -0.29451,0.2611 -0.57884,0.81893 -0.80561,0.32919 -0.25262,0.33314 -1.16151,0.64418 -0.5542,0.0677 -0.62141,0.49306 -1.42426,0.75183 -2.23577,0.98573 -0.2719,-0.26039 -0.9807,0.34958 -0.85821,-0.17068 -0.30539,0.32205 -0.60183,0.58032 -0.91755,0.30297 -0.45531,0.3436 -0.99126,0.53021 -1.41426,0.33894 -0.67254,0.67603 -1.40908,0.18808 -2.11037,0.6785 -0.59673,-0.1231 -1.31722,0.55259 -1.72193,0.29322 -0.78494,0.5272 -1.77944,0.55302 -2.55263,1.11498 -0.82165,0.35587 -1.62441,1.04644 -2.40337,1.30334 1.11439,-0.85107 1.93902,-2.01243 3.00467,-2.92246 0.6678,-0.60625 1.36405,-1.23246 1.92808,-1.91479 0.72168,-0.43264 1.3758,-0.99966 1.9293,-1.57096 0.67467,-0.26169 1.01581,-0.90548 1.77699,-1.00647 0.39826,-0.46367 1.23438,-0.25653 1.46993,-0.84126 0.76252,-0.16962 1.25862,-0.66073 2.02044,-0.91685 0.81012,-0.35589 1.60877,-0.73974 2.44375,-1.04304 0.63913,-0.40045 1.18982,-0.86571 1.92196,-1.15948 0.59929,-0.60363 1.45448,-1.01984 2.24799,-1.4533 0.84193,-0.22569 1.57355,-0.67985 2.30061,-1.13571 0.78275,-0.54606 1.70899,-0.709 2.62604,-0.8943 0.67596,-0.47291 1.29401,-0.9574 2.20579,-1.06865 0.40108,0.0144 1.23171,-0.68698 1.21667,-0.66021 -0.35685,0.86615 0.44958,-0.73374 0.52179,-1.07107 0.33475,-0.44056 0.55075,-1.0508 0.75301,-1.46672 0.39326,0.24179 0.73344,0.31548 0.1627,-0.01 -0.27608,-0.27805 0.40393,-0.85666 0.13396,-0.16947 0.49377,0.74799 1.63296,0.87836 1.92748,1.8465 0.34256,0.72731 -0.0402,-0.79461 -0.0979,-1.01683 -0.27379,-0.81248 -0.48069,-1.87086 -1.27418,-2.29396 -0.87296,0.0269 -0.053,0.97552 -0.78663,1.00159 -0.37952,0.8324 -0.78443,1.63083 -1.06866,2.49575 -0.0434,0.56354 -0.32752,0.62655 -0.32724,0.0237 -0.61789,-0.32446 0.98963,-0.99048 0.11193,-0.59497 -0.79236,0.30812 -1.80607,0.0916 -2.59117,0.61631 -0.67059,0.3157 -1.24863,-0.19717 -1.66567,0.54926 -0.6159,0.57602 -1.48704,0.42291 -2.07793,0.68154 0.40173,-0.0388 -0.39564,0.76691 -0.54381,0.28775 -0.63622,0.56362 -1.31816,0.5237 -2.03941,0.98085 -0.66838,-0.26099 -0.98162,0.5709 -1.38857,0.81383 0.58227,-0.9944 -0.69658,0.33285 -1.12552,0.23469 -0.67896,0.0975 -1.68825,0.6391 -2.19968,0.6273 -0.19329,-0.4527 -0.77543,0.51425 -1.21972,0.31577 -0.36614,0.24023 -0.5826,-0.0108 -1.12554,0.30176 -0.60564,0.28351 -0.93961,-0.16663 -1.40568,0.37247 -0.61056,0.11587 -1.02612,-0.003 -1.55372,0.42917 -0.66692,-0.0383 -1.16204,0.23824 -1.80941,0.46757 -0.50278,-0.45944 -1.28888,1.00371 -1.7984,0.44318 -0.50363,0.06 -1.37084,0.93415 -1.54944,0.31944 -0.51812,0.28172 -1.11447,0.62548 -1.56963,0.27127 -0.74713,0.41048 -1.39739,0.0216 -2.161135,0.35663 -0.230893,-0.42785 -0.908545,0.54337 -1.162842,0.0908 -0.778518,0.35847 -1.328845,-0.23242 -2.152575,0.0714 0.128175,-0.32853 -0.888894,-0.18051 -1.211778,-0.4432 -0.482527,-0.19723 -1.126933,-0.38175 -1.431993,-0.76078 1.051497,0.18532 2.006611,-0.47845 3.037096,-0.59193 0.247994,-0.43658 1.180905,-0.0507 1.221566,-0.57059 0.861041,0.0715 0.948812,-0.57183 1.830819,-0.44137 0.496048,-0.0359 -0.01532,-0.51781 0.689997,-0.44562 0.671155,-0.30675 1.008675,-0.77689 1.819805,-0.85711 0.34541,-0.45152 1.27674,-0.11042 1.35309,-0.81078 0.46084,-0.14293 1.3268,-0.0971 1.19526,-0.6407 1.00532,-0.0502 1.65247,-0.74193 2.61257,-0.91685 0.56086,-0.34686 1.30275,-0.71533 2.00027,-0.97355 0.78844,-0.24763 1.43489,-0.6458 2.12627,-0.98512 0.76654,-0.2603 1.50662,-0.7432 2.14217,-1.26434 0.88359,-0.20152 1.06325,-0.96422 2.02474,-0.926 0.4334,-0.51863 1.3356,-0.48197 1.74579,-0.99122 0.38134,0.009 1.58192,-0.39829 0.59274,-0.2725 0.0431,-0.63192 1.19842,-0.81758 1.82103,-0.69677 0.67829,-0.12164 -1.37028,0.47053 -0.6221,0.36271 0.47324,-0.0996 1.00039,-0.25882 1.03377,-0.54927 0.60662,-0.0916 1.58002,0.004 1.95989,-0.32491 0.91243,-0.1547 1.63212,-0.70291 2.38931,-1.18631 0.35197,-0.23039 -0.14835,0.42167 0.28872,-0.0726 0.53391,-0.66665 0.59152,-1.53534 0.83314,-2.3031 0.18791,-0.31834 0.52884,-1.11477 0.0563,-0.41027 -0.55173,0.66644 -1.6514,0.58408 -2.37891,1.04488 -0.37088,-0.69658 -1.33087,0.49724 -2.0186,0.47306 -0.40429,0.30864 0.0472,-0.51031 -0.52362,-0.0548 -0.50724,0.28238 -1.27546,0.72316 -1.60449,0.37856 -0.30653,0.45752 -1.35793,1.02922 -1.58187,1.03511 0.13308,-0.79734 -0.94954,0.66504 -1.1139,0.0561 -0.21286,0.2461 -1.41499,0.93833 -0.64473,0.32126 -0.24116,-0.42013 -1.3104,0.76546 -1.58492,0.48343 0.57083,-0.44966 -0.63246,0.16341 -0.87106,0.20117 -0.72426,0.27861 -1.51763,0.5457 -2.21191,0.48341 -0.81527,0.36355 -1.61554,0.20801 -2.34588,0.75653 -0.51709,0.2046 -0.72857,-0.21596 -1.17079,0.34931 -0.63316,0.23081 -1.18215,0.0799 -1.68707,0.69434 -0.65992,0.0194 -1.27509,0.48598 -2.02228,0.66266 0.45685,-0.9087 -1.04593,0.54323 -1.31699,-0.007 -0.49765,0.2498 -1.08082,0.41416 -1.37266,0.18958 -0.706908,0.61772 -1.262751,0.19323 -2.050417,0.5517 -0.561959,-0.066 -1.082848,0.28979 -1.482154,0.0481 -0.673383,0.42462 -1.242704,0.0139 -1.997202,0.45111 -0.551153,0.11382 -1.769809,0.53782 -1.938478,0.37551 0.856115,-0.51155 1.502238,-1.32093 2.413771,-1.75018 0.156569,-0.4297 0.817778,-0.48923 1.142043,-0.83273 0.726267,-0.25391 1.438348,-0.61368 2.003322,-0.95525 0.715106,-0.033 0.73089,-0.60887 1.526185,-0.52854 0.27209,-0.66803 1.21641,-0.52544 1.63569,-1.10887 0.8732,0.009 1.52562,-0.56147 2.31284,-0.84859 0.32788,-0.47344 1.17247,-0.4816 1.59471,-0.94793 0.76411,-0.16638 1.2547,-0.62097 2.05654,-0.64314 0.70833,-0.5025 1.72836,-0.64079 2.21863,-1.34541 0.88865,-0.13706 1.61976,-0.66295 2.38808,-1.04913 0.80514,-0.30485 1.55219,-0.6439 2.35995,-0.94368 1.17561,-0.63434 2.45559,-1.04458 3.78458,-1.20276 1.38654,-0.31029 -1.49664,0.17485 -0.33825,-0.33589 0.5213,-0.47881 1.40649,-0.26566 1.91399,-0.67057 0.64569,-0.14224 1.47291,-0.64051 2.06022,-1.16496 0.44114,-0.17202 0.60913,-0.89427 0.65635,-0.99855 0.48784,0.46121 1.68644,0.0413 1.06069,-0.60107 -0.16932,-0.43223 -0.67176,-0.89222 -0.69734,-1.15765 -0.64716,0.85838 -1.34742,1.83398 -2.48105,2.04158 -0.34041,0.10537 -1.42503,0.52079 -0.56033,-9.7e-4 -0.3331,-0.32061 -1.09564,0.61602 -1.6834,0.60352 -0.79521,0.29345 -0.34153,0.18456 -0.27832,-0.18411 -0.50815,0.28213 -1.23349,0.60852 -1.65953,0.81627 0.16285,-0.77375 -0.8355,0.48696 -1.25338,0.42124 -0.31192,0.35343 -0.38091,0.39789 -0.39333,-0.0542 -0.32719,0.01 -0.82799,0.74728 -0.97627,0.27859 -0.29445,0.28341 -1.12771,1.28949 -0.57868,0.35174 -0.54339,0.0914 -1.48959,1.02686 -1.71826,0.96562 -0.087,-0.55595 -1.28749,0.59575 -1.58553,0.6913 0.38102,-0.68246 -0.85167,0.5431 -1.08822,0.17984 -0.19161,0.42973 -1.18785,1.03204 -0.47835,0.33467 -0.50965,-0.12136 -1.51089,0.66158 -1.65953,0.63705 0.0536,-0.55678 -0.80819,0.56186 -1.26256,0.43342 -0.38274,0.2145 -0.50534,0.34343 -0.34867,-0.0359 -0.60461,0.0745 -1.40742,0.67465 -1.85773,0.25604 -0.76477,0.60976 -1.51158,0.0685 -2.24616,0.73945 -0.67692,-0.11215 -1.319486,0.22887 -2.057767,0.34748 -0.182719,-0.6404 -1.484306,0.88466 -1.497444,0.0683 -0.524895,0.12573 -1.252102,0.8011 -1.474813,0.18288 -0.412171,0.40704 -1.021218,0.48128 -1.356751,0.32248 -0.727947,0.57398 -1.133517,0.0377 -1.893214,0.52244 -0.430487,-0.35866 -0.981181,0.19539 -1.434439,0.014 -0.600453,0.36385 -0.759626,-0.13559 -1.334121,0.26518 -0.90758,0.047 -1.815009,0.24763 -2.723291,0.1713 0.830423,-0.52774 1.71751,-0.98697 2.534888,-1.5356 0.538761,-0.17486 0.482392,-0.63763 1.16896,-0.65167 0.333473,-0.50004 1.130249,-0.43519 1.37021,-0.9699 0.703661,-0.0884 1.180006,-0.60996 1.89138,-0.72238 0.02997,-0.48642 1.182544,-0.0916 1.279677,-0.74738 0.917468,-0.10537 1.561222,-0.70298 2.486566,-0.83151 0.245194,-0.45153 1.265929,-0.15586 1.564118,-0.64741 0.874491,-0.23142 1.711121,-0.42891 2.520811,-0.84614 0.83553,-0.0615 1.57375,-0.56319 2.32447,-0.87478 0.72834,-0.43516 1.60498,-0.65096 2.29204,-1.1674 0.80088,-0.37498 1.4447,-0.97366 2.27737,-1.27775 0.57703,-0.46937 1.29692,-0.64015 1.89321,-1.05462 0.8933,-0.30561 1.33329,-0.85574 2.3055,-1.01256 0.62065,-0.5565 1.69179,-0.53275 2.48227,-0.93149 0.54977,-0.14143 0.64043,-0.30093 0.59948,-0.45538 0.53247,-0.0457 1.46086,-0.53526 1.87242,-1.13752 0.34313,-0.39632 1.15056,-0.62916 1.24419,-1.0717 -0.34433,0.37535 -0.69012,0.26874 -0.87962,0.0981 -0.24235,0.20553 -1.16236,0.78401 -1.18425,0.65106 0.84364,-0.702 -0.60602,-0.22953 -0.98546,-0.042 -0.40676,0.1215 -0.84638,0.34054 -0.88023,-0.16764 -0.48195,0.41831 -1.44991,0.6031 -1.83327,0.62728 0.51861,-0.59172 -0.61495,0.27827 -0.9512,0.29017 -0.32296,0.0475 -1.12613,0.55473 -0.63065,-0.039 -0.55827,-0.0668 -1.44476,0.63827 -1.79902,0.45659 -0.57367,-0.20246 -1.49343,0.51502 -2.11282,0.82543 0.64211,-0.37316 0.0582,-0.72873 -0.31624,-0.24447 -0.76912,0.38638 -1.41781,-0.0207 -2.19907,0.46879 -0.77993,0.0283 -1.51494,0.48779 -2.32753,0.42185 -1.15777,0.38273 -2.35548,0.70212 -3.577826,0.73032 -0.896831,0.0423 -1.736559,0.59693 -2.633374,0.39319 -0.778201,0.35543 -1.651481,0.13128 -2.401537,0.54926 -0.837445,0.27134 -1.760973,0.37755 -2.485339,0.89003 -0.424918,0.18524 -0.969328,0.19974 -0.840479,0.79616 -0.430146,0.69805 -0.286294,1.70982 0.285665,2.30309 0.372982,-0.15802 -0.415454,-1.31013 -0.157206,-1.50816 0.356718,0.91653 0.668753,1.94597 1.543934,2.51403 0.414269,0.49136 -0.937747,-0.44244 -1.161008,-0.58401 -0.479075,-0.41213 -1.450268,-1.05937 -1.305985,-1.63192 0.725435,0.74319 0.166806,-0.98105 0.556037,-1.34359 -0.869556,0.30488 -1.535057,0.98213 -2.142175,1.64596 -0.235839,0.33461 -0.827764,1.02727 -0.753616,0.70287 -0.29733,0.57746 -0.872671,1.13432 -1.038669,1.88187 -0.559957,0.91927 0.158872,-0.74164 0.309523,-0.95953 0.673558,-1.19456 1.617549,-2.23361 2.670685,-3.10474 0.943722,-0.41368 1.127155,-1.34499 1.234413,-2.25921 0.20551,-0.91221 0.548948,-1.78322 0.866167,-2.64998 0.318534,-0.45313 0.715237,-0.96188 0.801327,-1.45879 0.670716,-0.60907 1.235457,-1.22958 2.049812,-1.6624 0.198419,-0.54817 1.105764,-0.79572 1.206273,-1.41247 0.8573,-0.26501 1.083903,-1.17008 1.862016,-1.53988 0.22448,-0.53936 0.947505,-0.91964 1.173856,-1.41368 0.647768,-0.21087 0.690448,-1.01039 1.477256,-1.1546 0.3421,-0.62108 1.10804,-0.82398 1.49438,-1.27531 0.93174,-0.1385 1.21759,-0.90483 2.18561,-1.01926 0.11096,-0.79649 1.52741,-0.45058 1.69074,-1.1985 0.82458,-0.2385 1.54094,-0.73577 2.40948,-0.80833 0.57024,-0.0768 0.67693,-0.57932 1.34513,-0.38894 0.37478,-0.18521 1.11496,-0.37656 1.25339,-0.42611 -0.01,-0.54851 1.68513,-9.7e-4 1.53781,-0.67544 0.68774,-0.58057 0.98531,-1.46779 1.48582,-2.19338 0.41123,-0.31547 0.25611,-1.73304 0.14436,-1.08389 -0.25032,0.0371 -0.95817,0.66031 -0.55052,1.05218 -0.48952,0.83805 -1.59174,0.88623 -2.4413,1.09364 0.59724,-0.85027 -0.8787,-0.12738 -1.26317,-0.0213 -0.31376,0.0646 -0.78337,0.45935 -0.65207,-0.0555 -0.60003,0.24099 -1.42102,0.62355 -1.96784,0.61022 0.46173,-0.86571 -1.09074,0.66739 -0.87963,-0.15118 -0.18692,0.22373 -0.99133,0.88747 -0.66431,0.34991 -0.30513,0.0281 -1.33803,0.73047 -0.81233,-0.0122 0.17549,-0.38902 0.56109,-1.32564 0.0177,-0.45781 -0.13145,0.31841 -0.58032,1.39369 -0.74871,1.13204 0.23664,-0.6089 -0.66088,-0.0417 -0.74812,0.18592 -0.52122,-0.0108 -0.83372,0.46609 -1.24113,0.64803 0.50668,-0.86494 -0.77092,0.2678 -1.18793,0.11521 -0.40619,0.30368 -0.28361,-0.3866 -0.81662,0.042 -0.476888,0.12691 -1.159899,0.43841 -1.605105,0.51756 0.673545,-0.53114 -0.421442,-0.0106 -0.537683,0.2536 -0.567201,-0.45363 -1.508587,0.33681 -2.144625,0.51999 0.302411,-0.62641 -0.973951,0.19508 -1.282735,0.21703 -0.37867,0.16053 -0.422093,0.23493 -0.297287,-0.12863 -0.635466,-0.0801 -1.453725,0.63278 -1.863852,0.16338 -0.726873,0.56286 -1.655707,0.0905 -2.457815,0.38344 -0.305451,0.0642 -0.786735,0.25196 -0.529732,-0.14508 -0.590069,0.19133 -1.245179,0.2157 -1.65404,0.17677 -0.04534,-0.38536 -1.215606,0.28468 -1.284572,-0.11155 -0.848625,0.21221 -1.713034,0.16184 -2.566085,0.27981 -0.563017,-0.21286 -1.144032,0.31036 -1.740899,0.0158 -0.848114,0.31589 -1.685799,-0.0646 -2.527547,-0.028 -0.899665,0.0781 -1.780036,-0.0524 -2.67619,-0.19995 -0.363674,-0.0325 -1.125157,-0.0649 -0.376199,-0.17374 1.114389,-0.16956 2.189567,-0.51347 3.268318,-0.82358 0.242699,-0.49289 1.039199,-0.12219 1.296193,-0.66874 0.769219,-0.0821 1.034417,-0.63869 1.824704,-0.61509 0.550893,-0.57104 1.479557,-0.39364 2.173986,-0.60474 0.47823,0.19129 0.656429,-0.10401 0.769518,-0.37307 0.343427,-0.003 1.209847,0.2708 0.996462,-0.35114 0.504471,0.0133 1.432359,0.15499 1.369598,-0.28895 0.900882,0.18411 1.311863,-0.5194 2.173373,-0.33529 0.528102,0.0349 0.25027,-0.65361 0.907764,-0.51085 0.730014,0.0782 0.328691,-0.66392 1.03928,-0.54317 0.706073,-0.16402 1.25317,-0.61102 2.01066,-0.69312 0.206086,-0.58028 1.472256,-0.32727 1.398961,-0.84309 0.352004,-0.13289 1.60571,-0.059 1.468081,-0.30968 -0.481399,0.14039 -0.663091,-0.0981 -0.108883,-0.15972 0.508712,-0.22117 1.556464,-0.1896 1.811245,-0.4377 -0.441878,0.0379 -1.308762,0.005 -0.370078,-0.10912 0.951376,-0.13467 1.886934,-0.41208 2.747154,-0.79067 0.87935,-0.1392 1.7002,-0.50465 2.55813,-0.66203 -0.0244,-0.47286 1.14575,-0.15091 1.62773,-0.51085 0.94966,-0.34516 1.94484,-0.19994 2.88723,-0.47915 0.5796,-0.51637 1.62368,-0.3153 2.23576,-0.90101 0.34143,-0.12442 1.07944,-0.4811 0.24958,-0.34321 0.26131,-0.3529 0.72474,-1.263409 1.09678,-1.760544 -0.0969,-0.318627 0.6567,-0.808456 -0.0356,-0.577909 -0.28892,0.312326 -0.65949,0.360399 -0.38598,0.623628 -0.72294,0.811469 -1.46537,1.831265 -2.64745,1.933065 -0.59793,0.30345 -0.62602,-0.827934 -1.14388,-0.14813 -0.46098,0.25111 -1.23397,0.7376 -1.31944,0.19203 -0.16714,0.11394 -1.4519,0.68662 -0.93773,0.29261 0.45837,-0.76512 -0.54906,0.45163 -0.69979,0.37613 0.58644,-1.01686 -1.79748,0.71159 -0.81478,-0.15789 -0.20393,-0.41802 -0.63327,0.8146 -1.00136,0.7102 0.39077,-0.57488 -0.0641,-0.60867 -0.34133,-0.139 -0.38664,0.12178 0.67374,-0.80652 -0.16821,-0.27128 -0.32154,0.27366 -0.95557,0.90127 -1.24788,0.84371 0.6308,-0.4823 -1.14149,-0.22339 -1.22339,0.25482 -0.515368,0.4331 0.14501,-0.46991 -0.559098,-0.18045 -0.530779,0.085 -0.705462,0.70187 -1.309653,0.55352 -0.766171,0.43028 -1.408485,0.8557 -2.262071,0.8498 -0.729145,0.38976 -1.539341,0.56375 -2.311614,0.92843 -0.169646,-0.45944 -1.044733,0.32454 -1.482763,0.38589 -0.214656,0.34371 -0.508088,-0.50511 -0.555426,0.0719 -0.640194,0.45444 -1.583483,-0.0303 -1.910953,0.37917 -0.04287,0.25869 -0.884517,0.40349 -1.099838,0.23775 -0.898908,0.71582 -2.088169,0.81455 -3.188186,0.93026 -0.08662,0.81049 -1.598247,0.11543 -1.42832,0.78396 -0.759214,0.0572 -1.304968,0.68362 -1.959891,0.86321 -0.339336,0.48268 -1.131981,0.43135 -1.588585,0.81139 -0.814665,0.2208 -1.573323,0.63148 -2.369117,0.9266 -1.149012,0.31615 -2.130134,1.05404 -3.30441,1.29116 0.669002,-0.49888 1.317281,-1.00531 1.962338,-1.51122 0.646281,-0.54285 1.164556,-0.97314 1.820422,-1.43868 0.547022,-0.3137 0.640457,-0.89493 1.372656,-1.02049 0.115658,-0.64478 1.225853,-0.46134 1.270503,-1.08388 0.94799,-0.068 0.761458,-0.9173 1.68707,-0.89796 0.47708,-0.33248 0.598358,-0.74958 1.323109,-0.77176 0.54793,-0.15267 -0.240727,-0.60599 0.447766,-0.5456 0.306704,-0.0407 1.243696,-0.12734 0.790318,-0.59193 0.955173,0.11298 1.346689,-0.83288 2.211297,-0.80103 0.454047,-0.25897 0.648251,-0.6679 1.313322,-0.69739 0.09786,-0.64912 0.921516,-0.44079 1.350024,-0.9004 0.217305,-0.60843 1.414191,-0.42462 1.671167,-1.06437 0.659841,-0.1107 1.233568,-0.264745 1.552496,-0.658378 1.007181,-0.07845 1.155618,-0.768175 2.193557,-0.898563 0.483294,-0.288014 0.777932,-0.597684 1.46013,-0.643138 0.57724,-0.530398 1.496896,-0.601018 1.978242,-1.130215 0.829728,-0.311841 1.748188,-0.59922 2.511638,-0.948551 0.73739,-0.235929 1.34455,-0.481248 2.15502,-0.654113 0.78466,-0.25032 1.426,-0.403309 2.17705,-0.665693 0.85767,-0.188282 1.83525,-0.240386 2.24739,-1.135701 0.41614,-0.630623 0.93719,-1.328933 1.35002,-1.84407 0.13561,0.590712 1.02611,0.280686 0.42392,-0.217021 -0.44584,-0.699579 -1.13456,0.929697 -1.32067,0.796761 -0.18261,-0.609046 -1.12679,0.825998 -0.17923,0.251157 0.14661,0.09272 -0.81894,0.929712 -1.20016,1.039385 -0.4113,0.152368 -0.83856,0.257702 -1.25827,0.384053 -0.1554,-0.276634 -0.27796,-0.640138 -0.63862,-0.372471 -0.47068,0.200397 -1.5311,0.259715 -0.55603,-0.146306 -0.103,-0.545682 -0.87325,0.960454 -0.9983,0.428556 0.25157,-0.709311 -1.04142,0.443795 -0.86188,-0.04023 0.5607,-1.174002 -0.59078,1.017602 -0.638,0.05304 -0.4148,0.117307 -1.35146,0.743807 -0.76891,-0.06888 0.34078,-0.373352 0.30867,-0.763079 -0.0655,-0.18715 -0.29976,0.425388 -0.61161,1.137684 -1.02643,0.618143 -0.3425,0.343667 -0.953408,0.490923 -0.30218,-0.0317 0.642,-0.826147 -0.618058,0.224232 -0.625158,0.534627 -0.20678,0.352099 -0.397845,0.361706 -0.434304,-0.02013 -0.282648,0.203996 -1.570276,0.637448 -0.696116,0.128627 0.52892,-0.01268 0.707529,-1.156938 0.209813,-0.316389 -0.437594,-0.0021 -0.959229,0.995309 -1.129201,0.712022 0.02741,-0.392349 -0.326629,-1.158804 -0.4392,-0.381004 -0.34544,0.256011 -0.949171,0.894736 -1.16896,0.835773 -0.07421,-0.741641 -1.057162,0.847803 -1.015423,-0.0506 -0.169311,0.363328 -1.30123,1.008072 -0.63984,0.35296 -0.508975,-0.137221 -1.340303,0.451575 -1.874863,0.690688 0.524211,-0.884992 -0.662314,0.426824 -0.965263,-0.03475 -0.221329,0.137006 -1.162301,0.559101 -0.624547,0.06584 -0.513554,-0.169734 -1.472178,0.585217 -1.810635,0.435265 0.324366,-0.604731 -0.983259,0.168707 -1.353081,0.07071 -0.495133,0.165043 0.03492,-0.628513 -0.630663,-0.210924 -0.899249,0.456516 -1.538741,0.197618 -2.528771,0.582176 -0.587709,-0.388384 -1.516157,0.373342 -2.148295,0.0073 -0.861983,0.133783 -1.752975,0.496941 -2.591776,0.332236 -0.74748,0.206074 -1.594148,0.635941 -2.335473,0.51329 -0.726159,0.273342 -1.513348,0.459238 -2.259012,0.479763 -0.755459,-0.05957 -1.414306,0.400856 -2.177042,0.562671 -0.613554,0.156765 -1.354597,0.517788 -1.288856,1.122894 -0.196514,-0.886373 0.610691,-1.543029 1.288856,-1.948916 0.649566,-0.493853 1.375913,-0.920068 2.03513,-1.325898 0.743449,-0.206689 1.188596,-0.733598 1.936642,-0.901004 0.09228,-0.546209 1.10838,-0.07286 1.246037,-0.714464 0.586209,-0.03526 0.959545,-0.342742 1.292522,-0.549865 0.909178,0.134802 1.20759,-0.608681 2.114039,-0.556575 0.269801,-0.144244 -0.136613,-0.546922 0.463055,-0.390759 0.314413,0.0284 1.147244,-0.194581 0.851488,-0.461475 0.936397,0.07034 1.604223,-0.48804 2.48106,-0.491347 0.341457,-0.512828 1.31819,-0.420069 1.598987,-0.938186 0.246889,-0.331754 1.352067,-0.147878 1.411193,-0.702269 0.616824,0.01912 1.130099,-0.306159 1.48154,-0.482812 0.84006,0.252081 1.625811,-0.347973 2.244329,-0.649234 0.142964,-0.392554 1.694835,-0.317411 1.374492,-0.627898 -1.058706,-0.02245 0.608349,-0.211911 0.924278,-0.268227 0.850464,0.08212 1.123866,-0.689407 1.94827,-0.759575 0.167431,-0.373773 0.708535,-0.05535 0.252631,-0.569984 -0.410974,-0.382794 -0.316212,0.699729 -0.929174,0.42063 -0.18715,0.355413 -1.443362,0.951826 -1.362869,0.635215 0.276292,-0.298623 1.087236,-0.239857 0.439815,-0.644967 -0.511488,-0.327845 -1.120112,0.85993 -1.68218,0.821143 -0.39184,-0.443451 0.686746,-0.08392 0.09726,-0.62424 -0.622266,0.08821 -1.319482,1.051826 -1.786777,0.829068 0.668097,-0.235203 0.122641,-0.72683 -0.28322,-0.209706 -0.390742,-0.03468 -0.953375,0.848729 -1.072308,0.527314 0.954596,-0.622061 -1.170642,0.238885 -0.248965,-0.37613 -0.192794,-0.431315 -1.032587,1.021114 -1.153666,0.522436 0.687403,-0.406448 -0.05394,-0.259743 -0.30218,-0.182275 0.484832,-0.228358 0.379528,-0.662227 -0.106437,-0.169471 -0.570919,0.831172 -1.665387,0.465489 -2.512865,0.775424 -0.199791,-0.02684 0.385905,-0.380292 -0.234282,-0.229822 -0.416531,0.02194 -1.090854,0.488499 -1.118802,0.142647 -0.791095,0.534843 -1.785705,0.154126 -2.655392,0.502929 -1.061905,0.24056 -2.164656,0.382172 -3.151482,0.865034 -0.889773,0.17327 -1.597306,0.824306 -2.400317,1.208247 -0.756622,0.482004 -1.369571,1.082679 -2.029621,1.673987 -0.43386,0.24307 -0.932973,0.777503 -1.18303,0.993053 0.449403,-0.971001 1.379229,-1.587042 1.961112,-2.471964 0.551856,-0.660989 1.229525,-1.181693 1.786168,-1.798957 0.75095,-0.361906 0.938542,-0.921416 1.693188,-1.231413 0.445912,-0.669711 1.596046,-0.914334 1.939704,-1.600832 0.741817,-0.274345 1.389427,-0.680104 2.109142,-0.947334 -0.490507,-0.629303 1.173301,-0.03505 1.164068,-0.787617 0.776858,-0.110422 1.697901,-0.446943 2.243107,-0.798586 0.305376,-0.401228 1.266334,-0.314674 1.561673,-0.742506 0.969945,0.06712 1.440358,-0.676051 2.400313,-0.754084 0.196222,-0.67525 1.438062,-0.277953 1.660156,-0.947943 0.968269,0.0037 1.83329,-0.525923 2.803424,-0.432823 0.461837,-0.535277 1.592566,-0.1292 2.271244,-0.57608 0.432855,0.06876 0.778135,-0.16421 0.838029,-0.348698 0.524636,0.117036 0.595488,-0.206735 1.165293,-0.101799 -0.126692,-0.339758 -0.804462,-0.393652 -0.179841,-0.801027 0.641465,-0.04103 1.083286,-0.725387 0.824572,-1.140582 -0.709365,0.360307 -1.035509,1.051805 -1.50723,1.572796 -0.783047,0.295269 0.06172,-0.196882 -0.239175,-0.37735 -0.371711,0.466288 -1.211354,0.361235 -0.551144,-0.24994 0.46647,-0.897469 -0.557753,0.07746 -0.561539,0.440748 -0.46216,0.164298 -2.049504,0.932846 -1.273562,-0.01645 0.324325,-0.275742 0.401608,-1.025908 0.04404,-0.34626 -0.321957,0.388755 -0.550066,0.321482 -0.331541,-0.134723 -0.47946,-0.249031 -0.769848,0.980403 -0.217765,0.847356 -0.422478,0.142917 -1.333877,0.664593 -1.554331,0.348089 0.767991,-0.09604 1.416684,-1.134825 1.109011,-1.653263 -0.261851,0.466973 -0.199295,1.079614 -0.93162,1.136922 -0.341494,0.531882 -1.062584,0.550072 -1.372044,0.751039 0.514656,-0.930907 -0.600319,0.07091 -0.72609,0.416974 -0.462526,0.372799 0.362944,-0.750992 -0.321142,-0.199953 -0.40184,0.349904 0.20662,-0.479654 -0.420851,-0.09449 -0.06334,0.292871 -0.172001,0.42256 -0.444706,0.09205 -0.172013,0.477001 -0.605689,0.06616 -0.947524,0.226166 0.495402,-0.34482 -0.01785,-0.670363 -0.180451,-0.117046 -0.550214,0.366614 -1.138924,0.499559 -1.76537,0.594979 -0.303137,-0.408983 -0.84505,0.593735 -1.213002,-0.149963 -0.541169,0.187962 -0.872586,0.258509 -1.285792,0.243234 -0.671389,0.318531 -1.22356,-0.344779 -1.915237,0.103639 -0.880909,-9.36e-4 -1.755276,0.0019 -2.638878,0.03719 -0.803476,-0.11123 -1.587746,0.130572 -2.399703,0.153622 -0.368537,-0.296542 -0.387764,0.52415 -0.96037,0.162155 -0.759783,-0.139357 -1.350527,0.242787 -2.100581,0.07924 -0.263715,0.100451 -1.183128,-0.02353 -0.94691,0.445014 0.102584,0.595832 -0.331422,-0.09189 -0.352954,-0.05852 -0.605257,0.352201 -1.259478,1.311391 -1.681565,1.492324 0.589973,-1.067463 1.289995,-2.082315 2.118932,-2.971236 0.41455,-0.673445 1.051777,-1.182629 1.45279,-1.849557 0.639977,-0.438566 1.184954,-0.895442 1.743348,-1.435019 0.64797,-0.317594 0.830197,-0.872541 1.560448,-1.093641 0.169233,-0.480854 0.928204,-0.380012 0.993401,-0.927823 0.692039,-0.211118 1.090459,-0.79957 1.767204,-1.074741 0.0171,-0.471819 0.968399,-0.313047 0.959757,-0.904661 0.846127,-0.308803 1.11956,-0.829082 1.978242,-1.07535 -0.186295,-0.659832 1.239008,-0.340305 1.434439,-0.930265 0.316655,-0.341353 1.316748,-0.198006 1.469917,-0.793103 0.735173,-0.140376 1.274956,-0.386295 1.79106,-0.769933 0.7946,-0.203822 1.450985,-0.76836 2.140341,-1.118636 0.699107,-0.425073 1.55662,-0.626993 2.347708,-0.909536 0.667702,-0.12601 1.396944,-0.372559 2.125047,-0.579129 0.326943,-0.06481 1.427662,-0.226572 0.623936,-0.369423 0.304456,0.02775 -0.612001,-0.04701 -0.142527,-0.456597 0.02609,-0.430928 0.756318,-0.823877 -0.04832,-0.455379 -0.921266,-0.339194 -1.147425,0.733831 -1.830819,0.944284 0.395099,-0.500763 -0.523271,-0.507614 -0.19758,-0.827239 -0.430252,0.480193 -0.756071,1.091373 -1.356141,1.316147 -0.339054,-0.08892 0.714886,-0.541407 -0.0679,-0.332237 -0.186549,-0.516758 -0.117206,-0.493417 -0.414735,-0.173741 -0.569493,-0.05797 -1.310994,1.177014 -1.459518,0.651672 0.531327,-0.32075 -0.254204,-0.692544 -0.474678,-0.162765 -0.458117,-0.02007 -0.913794,0.932148 -1.220957,0.556573 0.66135,-0.539071 -0.781223,0.03146 -1.055794,0.169471 -0.309397,0.388148 -0.881395,0.284926 -0.897977,-0.01038 -0.554445,0.84386 -1.681951,0.154949 -2.194171,0.905269 -0.427581,0.266011 -0.483241,-0.507951 -0.839865,0.01099 -0.557035,0.155189 -1.38265,0.816709 -1.000131,0.173126 -0.369581,-0.09889 -1.274948,0.770269 -1.311487,0.513902 0.442175,-0.324925 -0.58148,-0.124364 -0.258748,0.07376 -0.621806,0.37769 0.01293,-0.455898 -0.464285,0.01645 -0.194958,0.215525 -0.932967,0.501865 -0.467336,0.04756 -0.516611,0.106334 -1.166902,0.781305 -1.52864,0.42246 -0.65461,0.262143 -1.800428,0.635458 -2.148295,0.822365 0.09604,-0.682548 -0.913665,0.75312 -1.124917,0.270055 -0.890902,0.391268 -1.758114,0.836803 -2.698824,1.024144 -0.762256,0.270841 -1.569643,0.263528 -2.300609,0.637043 -0.9504,0.0096 -1.880012,0.369353 -2.797307,0.613266 -0.363177,0.08896 -1.322628,0.615754 -0.574386,0.05365 0.986749,-0.428812 0.847629,-1.496447 1.299254,-2.300665 0.336147,-0.788049 1.000187,-1.424075 1.264996,-2.218976 0.565885,-0.626216 1.038381,-1.313588 1.665661,-1.839192 0.536121,-0.67072 1.156178,-1.282317 1.815526,-1.851995 0.536785,-0.534502 1.388103,-0.961132 1.625903,-1.686787 0.739074,-0.375146 0.906289,-1.068052 1.70114,-1.280182 -0.02246,-0.524326 0.972639,-0.494266 1.148163,-1.055841 0.446,-0.122642 0.860226,-0.483969 0.559093,-0.821145 0.550197,-0.0718 1.387259,-0.393206 1.178135,-0.779689 0.926992,-0.02953 1.395654,-0.9125 2.270023,-1.060721 0.332331,-0.558629 1.322853,-0.31814 1.554942,-0.918681 0.915059,-0.187459 1.546669,-0.776402 2.43396,-1.006465 0.805245,-0.326771 1.503839,-0.672088 2.32018,-0.901612 0.483106,-0.383948 1.210464,-0.505529 1.603268,-0.994882 -0.841277,0.331131 -1.161048,0.418166 -2.034516,0.613874 -0.28694,-0.122532 0.06069,-0.392615 -0.343166,-0.27493 0.305223,-0.191552 1.441583,-1.056686 0.485078,-0.604733 -0.627846,0.223579 -1.081616,0.903791 -1.60082,0.523044 -0.581327,-0.04542 -1.210792,1.357726 -1.236857,0.405387 -0.717229,0.03449 -1.165477,0.856433 -1.953161,0.671793 -0.302511,0.398621 -1.140371,0.813441 -0.944468,0.329798 -0.686692,0.165851 -0.754398,0.895712 -1.564729,0.601074 -0.415081,0.460902 -0.73384,0.667091 -1.324944,0.668742 -0.426097,0.72781 -1.379308,0.330274 -1.769651,1.136311 -0.512192,-0.213299 -1.247761,0.543223 -1.911566,0.679716 -0.860601,0.480287 -1.688521,1.02817 -2.565471,1.505736 -0.768023,0.534805 -1.576161,0.996583 -2.363002,1.491711 -0.721661,0.363979 -1.3907,0.752503 -2.04981,1.178375 -0.779384,0.532514 -1.547855,1.129783 -2.034515,1.958066 -0.213919,0.342867 -0.613789,1.578546 -0.454493,0.442577 0.270649,-1.245669 0.937648,-2.414401 1.885261,-3.270556 0.474068,-0.711047 1.136362,-1.225196 1.715818,-1.869061 0.747042,-0.450165 1.370107,-1.12151 2.063881,-1.62339 0.611543,-0.475253 1.097158,-1.057918 1.621618,-1.65143 0.630027,-0.570911 1.143503,-1.364204 2.030848,-1.647775 0.133269,-0.492781 1.313058,-0.68431 0.970156,-1.055842 0.827381,-0.327926 1.282585,-1.038067 2.159917,-1.256405 0.655542,-0.431462 1.373708,-0.843335 2.101805,-1.172279 0.747254,-0.633353 1.729856,-0.908003 2.595444,-1.338093 0.333729,-0.587291 1.23704,-0.255663 1.384891,-0.897957 0.868234,-0.122675 1.046534,-0.998764 0.810504,-1.656307 -0.04662,0.503442 -0.223365,1.361005 -0.874119,0.883324 0.08652,0.479113 -1.146451,-0.370499 -0.286889,-0.570593 0.937389,-0.527033 -0.574803,-0.167427 -0.549919,0.35784 -0.33959,0.451019 -0.310538,-0.422342 -0.81662,-0.0201 -0.763135,-0.06426 -0.484606,0.713373 -1.283961,0.464523 -0.731365,-0.237134 -1.180525,0.531502 -1.932976,0.327969 -0.614361,0.45657 -1.383445,-0.11865 -1.890767,0.576081 -0.802868,-0.129265 -1.48951,0.325593 -2.205179,0.409657 -0.790388,0.17518 -1.574756,0.432719 -2.394197,0.649843 -0.895466,0.269599 -1.840131,0.468914 -2.756938,0.76445 -0.894034,0.149755 -1.653106,0.667187 -2.536109,0.790054 -1.586314,0.483089 -3.335038,0.593913 -4.715602,1.597177 0.241311,-0.65469 1.189079,-1.53392 1.965395,-1.99891 0.64554,-0.484173 1.343407,-0.887828 1.979463,-1.303345 0.670241,-0.41908 1.490335,-0.632245 2.115263,-1.133872 0.598708,-0.379238 1.44986,-0.446772 1.857735,-0.988178 0.705418,-0.145894 1.091319,-0.637087 1.767815,-0.818703 0.609918,-0.447121 1.351954,-0.676392 2.049198,-1.012561 0.954781,-0.377546 1.986936,-0.574104 2.903131,-1.039993 0.359391,-0.36484 1.574345,-0.653541 1.411806,-1.072304 -0.786062,-0.114261 -1.203627,0.995008 -1.917683,0.557793 -0.290147,0.02956 -0.817767,0.99962 -0.625158,0.342598 -0.169937,-0.328594 -1.07862,1.112858 -1.565343,0.523048 -0.6165,0.105018 -0.850063,0.601611 -1.514569,0.359668 -0.225965,0.395425 -0.625255,0.373042 -0.98117,0.23714 -0.435984,0.52315 -1.115715,0.441953 -1.673614,0.751035 -0.553483,0.008 -1.059132,0.233765 -1.509677,0.390762 -0.407132,-0.114314 -1.247367,0.819737 -1.925021,0.910145 -0.747341,0.412304 -1.558644,0.676551 -2.372176,0.957088 -0.804596,0.412385 -1.724294,0.735448 -2.332416,1.453917 -0.20085,0.0368 -0.822859,1.298337 -0.645957,0.677275 0.207713,-0.953433 0.652378,-1.861421 1.302924,-2.582914 0.586848,-0.464946 1.03002,-1.166208 1.748852,-1.416732 0.59548,-0.522606 1.443139,-0.774306 1.969676,-1.327727 0.743971,-0.431827 1.407119,-0.942442 2.162974,-1.333218 0.316786,-0.644584 1.350131,-0.725694 1.797789,-1.257624 0.737859,-0.337751 1.46294,-0.690641 2.199678,-1.078397 0.872684,-0.332257 1.533486,-1.040714 2.330578,-1.519755 0.0051,-0.66637 -1.055647,-0.194523 -1.494384,-0.115828 -0.403176,0.168299 1.088244,-0.643713 0.01529,-0.365155 -0.52239,0.242307 -1.039092,0.359278 -1.500504,0.183493 -0.495054,0.457426 -1.213949,0.275935 -1.745184,0.598027 -0.767001,-0.183799 -1.402007,0.316199 -2.176427,0.179833 -0.720738,0.390818 -1.746487,0.265035 -2.503693,0.807733 -0.880865,0.127184 -1.632303,0.649169 -2.473107,0.848576 -0.796251,0.363883 -1.606368,0.720526 -2.42723,1.057673 -0.864691,0.308592 -1.632193,0.898299 -2.127495,1.659965 -0.29786,-0.357015 0.564561,-1.480372 0.963428,-1.986715 0.654409,-0.685975 1.369274,-1.305832 2.172151,-1.813588 0.763414,-0.530529 1.620934,-0.935884 2.403983,-1.440509 0.729247,-0.389323 1.347532,-0.84064 2.148906,-1.093638 0.860047,-0.560855 1.981693,-0.544967 2.865818,-1.096686 0.726364,-0.470315 1.410577,-0.915666 2.164809,-1.342363 0.274572,-0.120431 0.868926,-0.737258 0.206756,-0.295049 -0.62743,0.241673 0.03028,-0.401581 0.12907,-0.532799 -0.551861,-0.05929 -1.061908,0.298571 -0.90899,0.551697 -0.730007,-0.158286 -1.439025,-0.117285 -2.08284,0.238965 -0.547885,-0.477708 -0.948515,0.11364 -1.381833,0.04695 -0.633284,-0.266136 -1.226489,0.266056 -1.905446,0.101188 -1.098824,0.230794 -2.267921,0.281455 -3.264039,0.84614 -0.945159,0.15497 -1.774616,0.565641 -2.678025,0.833946 -1.203207,0.318762 -2.478235,0.743794 -3.430415,1.506953 0.918347,-1.538746 2.441682,-2.66802 4.110015,-3.300425 0.85529,-0.52386 1.746019,-0.998997 2.63276,-1.478305 0.823562,-0.442154 1.72695,-0.532576 2.583824,-0.876616 0.876974,-0.147479 1.746308,-0.458417 2.45659,-0.977203 0.660232,-0.1548 0.981597,-0.84304 0.897978,-1.392958 0.741485,-0.245776 1.651433,0.250233 2.249223,0.04938 0.451703,-0.05488 -0.737896,-0.639999 -1.051512,-0.535845 -0.928067,-0.324008 0.989488,0.141535 0.131515,-0.394415 -0.280438,-0.0112 -0.463094,-1.093941 -0.529121,-0.299929 0.691836,0.544402 -0.645765,0.296723 -0.81662,0.873571 -0.547251,0.68676 -1.389326,0.319701 -1.901779,0.927215 -0.868721,-0.380032 -1.654212,0.247242 -2.534277,0.154839 -0.837968,0.142904 -1.693833,0.222441 -2.522042,0.391979 -0.758068,0.188239 -1.560723,0.314869 -2.337308,0.571813 -0.762422,0.321458 -1.503116,0.43004 -2.270023,0.74921 -0.94447,0.245052 -1.900745,0.568688 -2.707997,1.119852 -0.243745,0.391436 -0.567051,0.816097 -0.41963,0.07438 0.297241,-1.118344 1.399786,-1.771976 2.270635,-2.432341 0.765221,-0.556195 1.617541,-1.006728 2.511645,-1.311881 0.699375,-0.519924 1.581101,-0.766068 2.348318,-1.190566 1.335535,-0.607064 2.981422,-0.837199 3.886748,-2.114734 0.634734,-0.22228 1.494897,0.154405 2.131777,0.429164 0.375262,0.207102 1.897642,1.188144 1.065581,0.326142 -0.617063,-0.632587 -1.457098,-0.93038 -2.10058,-1.488058 -0.237721,-1.097093 -1.435786,0.01311 -2.12199,-0.01159 -1.272681,0.276692 -2.504142,0.692345 -3.692836,1.221047 -0.654499,0.344158 -2.410699,0.606145 -2.515314,0.892471 0.88654,-0.05234 1.671566,-0.505515 2.524488,-0.680933 0.382032,0.17572 0.745899,-0.452337 1.146328,-0.35906 0.36084,-0.149377 0.867645,0.524358 0.586622,-0.217632 0.167915,-0.330678 0.822063,-0.343289 0.23795,-0.104238 0.864958,-0.233027 1.818824,-0.444087 2.65784,-0.824194 0.815396,-0.641357 0.582376,0.639375 0.269761,0.466959 -0.128928,-0.564689 -1.043715,0.657613 -1.372659,0.518779 0.132057,-0.694574 -0.305267,-0.129852 -0.43981,0.12558 -0.577969,-0.417497 0.03657,0.746249 -0.73343,0.433432 -0.4193,0.200934 -1.178378,0.108147 -1.077205,0.608999 0.231416,0.46519 -0.544545,0.58482 -0.19819,-0.0013 -0.37271,-0.652736 -1.055681,1.384639 -0.975665,0.277371 -0.133033,-0.65036 -0.169896,-0.462592 -0.357845,0.02438 -0.269996,0.256365 -0.219713,0.806152 -0.836195,0.542551 0.605339,-0.140347 0.340602,-0.517919 -0.06912,-0.300537 -0.474647,0.196739 -0.353997,0.961043 -0.901036,0.549868 -0.486935,0.433994 -0.949776,0.27406 -1.249095,-0.245673 0.04288,0.793172 -1.009997,0.424656 -1.427098,0.298709 -0.927445,0.242311 -1.744529,-0.312311 -2.637041,-0.48403 -0.478688,-0.204216 -1.289632,-0.254912 -1.582469,-0.489516 1.678152,-0.576414 3.528178,-0.501474 5.181717,-1.166792 0.464935,-0.227808 1.822272,-0.203427 1.713986,-0.707757 -0.462416,0.380043 -0.887031,-0.866567 -1.435053,-0.117045 -0.663876,0.171903 -1.565517,0.516649 -2.373396,0.690078 -0.86544,0.241663 -1.819014,0.437139 -2.716564,0.712024 -0.439526,0.241352 -1.153931,0.622015 -1.494383,0.6724 0.770486,-1.167282 1.950975,-1.994313 3.189405,-2.607301 0.717599,-0.690834 1.824049,-0.846188 2.52449,-1.581937 -0.115379,-0.2605 -1.019877,0.681331 -1.458294,0.751652 -0.742545,0.396058 -1.475489,0.801964 -2.297549,1.023531 -0.557608,0.108809 -1.506695,0.648398 -1.819811,0.54926 0.387088,-0.999777 1.335006,-1.589314 2.03207,-2.343949 0.637793,-0.347468 1.460753,-0.925771 1.413643,-1.662404 -0.620033,0.141671 -0.460416,1.001964 -1.175079,1.01317 0.1476,0.407685 -0.285433,0.58686 -0.354785,0.196903 -0.440764,0.697658 -1.000028,1.200076 -1.860183,1.481961 -0.408863,0.201386 -1.333772,0.812206 -0.869226,-0.07193 0.585892,-1.187994 1.604725,-2.093073 2.310393,-3.208983 0.383972,-0.371204 0.525177,-1.054154 0.03793,-0.821752 -0.368054,0.898259 -1.023659,1.688924 -1.920741,2.140945 -0.449337,0.104859 -1.472375,0.542674 -1.55372,0.253598 0.237618,-0.849856 0.869837,-1.447632 1.282124,-2.201907 -0.583515,0.397561 0.175926,-1.013643 0.428803,-1.244822 0.438789,-0.513581 0.113546,-0.540247 -0.220822,-0.107291 -0.275435,0.547927 -0.128503,-0.240447 -0.431862,0.323703 -0.171362,0.895641 -0.894394,1.293382 -1.70787,1.544748 -0.510777,-0.03976 -1.528932,0.267879 -1.021537,-0.533407 0.361557,-0.788693 -0.120733,0.523207 0.261195,-0.07742 0.236994,-0.662415 1.221882,-1.416229 1.175075,-1.883692 -0.67958,0.306353 -0.977052,1.011425 -1.364093,1.598395 -0.44189,-0.113817 -1.908124,0.20869 -1.06191,-0.40417 0.145586,-0.436012 0.03072,-0.939703 -0.469787,-0.61022 -0.395362,0.02746 -1.767157,0.19251 -1.181806,-0.477934 0.28037,-0.999901 -1.721773,0.815492 -1.467469,-0.343209 -0.154105,-0.398044 -1.603465,0.745217 -1.318828,-0.308463 -0.296597,0.04716 -1.649764,0.554569 -1.008696,-0.07803 -0.71106,0.160249 -1.414555,0.02178 -2.149516,0.182272 -0.35577,0.130912 -1.705995,0.328634 -0.756062,-0.108508 1.356408,-0.435843 2.763906,-0.767139 4.181586,-0.907711 0.525472,0.15311 0.60256,-0.444444 1.279679,-0.112167 0.362525,0.07753 0.793551,0.32219 0.341942,-0.13899 0.391219,-0.277181 1.620177,0.296405 1.526804,-0.138994 -0.02317,-0.399735 1.609799,0.23268 1.643639,-0.121311 -0.02277,-0.472405 -0.55288,-1.159135 0.288114,-0.841869 0.745017,-0.233989 1.414,0.66 1.956217,0.516338 0.112627,-0.338258 -0.02277,-0.651339 -0.261195,-0.962573 -0.112372,0.345533 -0.378256,-0.598955 0.02509,-0.173738 -0.179177,-0.408542 -0.767831,-0.939631 0.08136,-0.660817 0.913042,-0.11017 1.787683,0.368677 2.234545,1.160696 0.31981,0.210537 0.910069,1.32764 0.546858,0.381616 -0.296728,-0.862628 -0.891281,-1.694334 -0.878403,-2.618271 0.269476,0.448451 0.2605,1.149725 0.646567,1.483178 -0.02333,-0.638494 -0.807572,-1.601234 -0.437365,-2.040971 0.940247,0.449247 1.872224,0.9885 2.554462,1.797127 0.50339,0.638309 0.866884,1.392472 1.155503,2.164725 0.120594,0.342408 0.247993,0.718911 0.20125,0.135332 0.201232,-0.913847 0.307701,-1.803517 0.0783,-2.73227 -0.08376,-0.425548 -0.05799,-1.231761 0.135185,-0.339553 0.18737,0.734821 0.356696,1.489714 0.422075,2.238488 0.235501,-0.861514 -0.170103,-1.826012 -0.127847,-2.729834 -0.0087,-0.472677 -0.153455,-1.152077 -0.182897,-1.727022 z m 50.2322582,0 c 0.592653,0.687749 1.048293,1.486227 1.192204,2.397593 0.228438,0.870063 0.357107,1.770291 0.658804,2.618883 0.518493,0.690085 0.170128,-0.937974 0.696113,-1.126559 0.271824,-0.980863 0.207366,1.125675 -0.0019,1.489276 0.5365,0.0093 0.422019,-1.01608 0.654519,-1.431971 0.25696,-1.062497 -0.0049,-2.167222 0.299122,-3.222396 0.03889,-0.238406 0.055,-0.482496 0.0783,-0.724826 z m 5.001266,0 c 0.07856,0.266799 0.191139,0.52236 0.217154,0.805294 0.267432,1.328061 0.443267,2.672194 0.455106,4.027078 -0.173593,0.519683 0.365287,1.045829 -0.150479,1.555113 0.176668,0.938118 -0.383784,1.793222 -0.340106,2.652411 0.392278,-0.693934 0.684231,-1.702615 1.062524,-2.503056 0.388097,-0.790575 1.001575,-1.436188 1.16896,-2.331145 0.253895,-0.491792 -0.07633,-0.768649 0.28383,-1.128998 -0.09832,-0.801583 0.400473,-1.538137 0.325424,-2.239095 0.08072,-0.267009 0.08316,-0.554815 0.10399,-0.837602 z m 4.352863,0 c 0.276735,0.73536 0.491844,1.492969 0.570718,2.27689 0.06393,0.968839 0.02534,1.931092 -0.01529,2.90113 -0.02837,0.865072 -0.230226,1.793054 -0.0061,2.621321 0.262868,0.451707 0.01222,0.957044 -0.161489,1.04853 0.073,0.383495 0.288883,-0.13484 0.0575,0.365155 -0.03886,0.31068 -0.450521,1.275066 -0.378033,0.435869 -0.331241,0.279916 -0.869826,0.987036 -0.634335,1.447822 -0.116406,0.453367 0.487398,0.956663 0.280159,0.161547 0.331581,-0.693946 1.345985,-0.911903 1.547605,-1.803224 0.157393,-0.380677 0.807277,-1.12655 0.44593,-0.248721 -0.201761,0.337804 -0.549969,0.808253 -0.06117,0.295052 0.386688,-0.853491 0.92397,-1.614383 1.282125,-2.478064 0.531,-1.123974 0.562948,-2.429919 1.206273,-3.512566 0.627907,-1.307359 1.261336,-2.788281 2.598504,-3.510741 z m 6.959933,0 c -0.312135,0.199628 -0.736215,0.483967 -0.781756,0.701661 -0.471728,0.69545 -0.788928,1.503226 -0.985449,2.315297 -0.325559,0.822548 -0.433756,1.697039 -0.369467,2.581693 -0.02212,1.030384 0.3587,2.036365 0.239174,3.068773 0.501281,0.575447 -0.281643,1.618704 0.11194,1.957458 0.375989,0.438807 -0.539984,1.287736 -0.495477,1.82578 -0.421821,0.276142 -0.863758,1.586846 -1.408744,1.18203 -0.35515,-0.225673 0.07767,1.097715 0.383537,1.258236 0.391902,0.537437 0.308793,0.135214 0.206141,-0.267009 -0.463203,-1.168446 1.585882,-0.557146 1.750076,-1.712393 0.571113,-0.568 0.776042,-1.189674 1.316378,-1.766649 0.442323,-0.744537 0.828562,-1.503972 1.359812,-2.202518 0.53842,-0.766655 1.351397,-1.271046 1.940929,-1.962332 0.177466,-0.676156 0.77498,-0.827946 1.231964,-1.255186 0.962224,-0.64958 2.135676,-1.042876 3.305017,-0.888202 0.408913,-0.0166 0.771035,-0.52033 0.959148,-0.09144 0.617455,-0.486989 1.071419,-1.681485 1.868136,-1.725805 -0.03793,0.821294 -0.435865,1.593182 -0.39944,2.455507 -0.186788,0.860118 -0.323796,1.795367 -0.751781,2.560966 -0.533702,0.712611 -0.197604,1.400832 -0.69,2.081207 -0.387369,0.906365 -0.506091,1.848837 -0.69061,2.776772 0.167876,0.674775 -0.499092,1.710096 -0.0085,2.011709 -0.439932,0.507587 -0.623353,0.972604 -0.465504,1.656917 -0.282728,0.401032 -0.620811,1.386697 -0.189628,1.374063 -0.477948,0.617857 -1.103366,1.03802 -1.464412,1.742871 -0.333611,0.471825 -0.978398,1.18095 -1.364093,0.855284 -0.447938,0.368064 0.02471,1.166298 0.206755,0.384663 0.748289,-0.552094 1.71503,-0.78831 2.103641,-1.748971 0.267051,-0.26366 1.112536,-1.588317 0.750556,-0.491954 -0.212231,0.382059 -1.010733,1.598476 -0.294227,0.700441 0.443509,-0.712605 1.107292,-1.230062 1.483375,-1.980011 0.167957,-0.797507 0.880674,-1.164987 0.995846,-2.023293 0.374984,-0.839182 0.930076,-1.570597 1.41609,-2.353702 0.586846,-0.537231 0.914063,-1.206313 1.47909,-1.756284 0.334049,-0.724846 0.997164,-1.232569 1.343297,-1.951971 0.590874,-0.640349 1.010892,-1.436491 1.583693,-2.128142 0.715932,-0.8507 1.555766,-1.676269 2.589941,-2.112298 -0.515854,0.663412 -1.27884,1.357975 -1.389174,2.29274 -0.151644,0.873993 -0.521619,1.716591 -0.934066,2.470748 -0.401592,0.868096 -0.79593,1.770195 -1.282124,2.615222 -0.488341,0.857853 -0.975048,1.697084 -1.224013,2.662165 -0.184194,0.843361 -0.811922,1.5428 -0.699177,2.322001 -0.479404,0.64691 0.01062,1.384247 -0.701619,1.928197 -0.198209,0.501329 0.159454,0.23805 0.157206,0.252985 -0.0469,0.46151 -1.025409,1.678203 -0.464281,1.741045 0.212603,-0.08755 -0.181465,1.090873 -0.533401,0.887591 -0.527097,0.53871 -0.75785,1.364224 -1.315158,1.739215 0.748831,0.151855 0.991701,-0.883921 1.539649,-1.283837 0.682103,-1.004462 1.413459,-1.992559 1.904227,-3.109006 0.504446,-0.800119 0.698978,-1.933199 1.539651,-2.449412 -0.06611,0.721638 -0.774677,1.490402 -0.787257,2.218978 -0.161886,0.368591 -0.476317,0.890087 -0.06423,0.333455 0.369846,-0.889423 0.806844,-1.721806 1.402628,-2.499396 0.456303,-0.919584 1.661809,-1.151895 2.122603,-2.110469 0.426356,-0.764554 1.05645,-1.398699 1.520075,-2.158015 0.983773,-1.449352 2.186222,-2.826048 3.799274,-3.587551 0.669401,-0.111592 -0.629229,0.56159 -0.756673,0.796757 -0.627721,0.55461 -0.981799,1.327556 -1.350635,2.04707 -0.373007,0.795719 -0.708077,1.61706 -1.135931,2.378695 -0.320672,0.864835 -0.825373,1.673015 -0.981166,2.592059 -0.304077,0.501113 -0.25818,0.956582 -0.272207,1.417952 -0.54037,0.653908 -0.182412,1.444878 -0.771354,2.108028 -0.04474,0.331336 0.402691,0.416891 -0.03425,0.869912 -0.193088,0.660982 -0.312849,1.231768 -0.696724,1.827609 -0.02236,0.434153 0.628741,-0.458173 0.384148,0.240798 0.207079,0.752421 -0.715388,1.270156 -0.540743,1.856258 0.53276,-0.61128 0.854779,-1.49051 1.137148,-2.293348 0.400762,-0.652755 0.841027,-1.383918 1.130426,-2.131805 0.53212,-0.491211 0.830115,-1.16481 1.291911,-1.723975 0.06318,-0.785944 0.715122,-0.729412 0.83742,-1.481962 0.399443,-0.142985 0.541795,-0.926094 0.875343,-1.300294 0.222578,-0.468131 0.676667,-0.687969 0.860664,-1.242385 0.610844,-0.478867 0.882008,-1.223132 1.475419,-1.69959 0.406099,-0.779117 0.943069,-1.416004 1.534757,-2.079378 0.724543,-0.388499 1.199706,-1.116881 1.930534,-1.553286 0.41524,-0.424939 1.64806,-0.770166 1.83387,-0.540112 -0.89994,0.316284 -1.39152,1.241249 -1.79656,2.040972 -0.33917,0.79304 -0.46453,1.728299 -0.956088,2.416489 -0.006,0.785113 -0.706323,1.44155 -0.983004,2.212275 -0.581511,0.749618 -0.680426,1.607396 -1.048453,2.496348 -0.68955,0.454918 0.04587,1.018997 -0.619654,1.533167 -0.267589,0.385593 0.271743,0.72361 -0.280159,1.143018 -0.46481,0.277709 0.195361,0.731506 -0.428191,1.046089 -0.636636,0.410085 0.175371,0.814868 -0.48875,1.335047 -0.386626,0.38495 -0.07207,0.532226 -0.02753,0.704099 -0.389348,0.504573 -0.666292,1.018715 -0.613536,1.537434 -0.163871,0.324136 -0.975057,1.263727 -0.310744,1.160695 -0.527251,0.539597 -0.654741,1.515934 -0.335211,1.394787 -0.310993,0.335441 -1.274696,1.364286 -0.841091,1.509394 0.925164,-0.371716 -0.513917,0.601725 -0.648401,0.914412 -0.725685,0.512287 -1.206508,1.166755 -2.094464,1.510613 0.19986,0.360755 2.041099,0.124196 1.060076,-0.09205 0.79329,-0.462107 1.465561,-1.180332 1.97029,-1.961115 0.454534,-0.732015 1.20336,-1.166378 1.614279,-1.906858 0.69307,-0.47112 1.367188,-0.952629 1.879144,-1.572794 -0.0722,0.710298 -0.530447,1.018932 -0.914491,1.636805 -0.365231,0.381813 -0.397811,0.569131 -0.565212,0.863205 -0.206848,0.143756 -0.453747,0.831681 -0.989734,0.760184 0.343928,0.09027 -0.02919,1.372119 -0.35662,0.769934 -0.251797,0.397553 -0.582918,0.929898 -0.847206,1.235071 0.672066,-0.425885 1.563592,-1.047494 1.640581,-1.852603 0.502373,-0.211015 0.786328,-1.270166 1.411194,-1.570354 0.294342,-0.904067 1.164403,-1.272307 1.621007,-2.061699 0.696983,-0.38775 1.21823,-1.05202 1.839388,-1.580108 0.59856,-0.415229 1.05331,-1.043248 1.58613,-1.207027 0.42555,-0.798712 1.14802,-1.373828 1.87977,-1.866012 0.6332,-0.510736 1.46231,-0.755575 2.00576,-1.399664 0.66241,-0.535062 1.26294,-1.173894 2.02718,-1.545968 0.75288,-0.511778 1.52695,-1.010146 2.38134,-1.348459 1.07294,-0.520351 2.18307,-1.064619 3.02364,-1.912953 -0.20738,0.957962 -1.2687,1.323127 -1.98925,1.841019 -0.88448,0.424395 -1.53363,1.175503 -2.15135,1.928197 -0.72544,0.683348 -1.37105,1.460711 -2.02656,2.222025 -0.53408,0.720638 -1.0346,1.443688 -1.45218,2.218367 -0.3429,0.239103 -0.50276,0.428635 -0.20003,0.584617 -0.27354,0.504714 -1.0246,0.680943 -0.7108,1.105219 -0.25629,0.485656 -0.76484,0.775662 -0.63554,1.207028 -0.28874,0.4871 -0.87784,0.74307 -0.56399,1.083279 -0.14695,0.596024 -1.03027,1.140173 -0.67166,1.496589 -0.15786,0.336656 -1.44407,1.098556 -0.43431,1.010732 -0.26883,0.508743 -1.74658,0.953858 -1.16038,1.485007 -0.16384,0.514871 -1.511018,0.776122 -0.90838,1.230193 0.22075,0.16121 -1.264957,0.983746 -0.735269,1.402711 -0.385843,0.262946 -0.766701,1.265363 -1.132872,1.085105 -0.03187,-0.286714 0.788644,-0.776751 0.299733,-0.607171 -0.396505,-0.106741 -1.431307,0.680328 -0.571325,0.53219 -0.341291,0.766204 -0.945448,1.344969 -1.72989,1.752625 -0.122847,0.706693 -1.378701,0.542508 -1.650983,0.887591 0.185547,-0.671653 -0.513242,-0.05866 -0.09053,0.287125 -0.01441,0.582751 0.946209,-0.0049 0.747499,-0.437089 0.649986,-0.100622 1.603881,0.41266 1.764758,-0.188979 0.639962,-0.04255 1.118308,-0.215222 1.220341,-0.827848 0.404061,-0.526057 0.602381,0.123031 0.871674,-0.575472 0.666966,-0.544896 1.181944,-1.32459 1.973964,-1.66667 0.24117,-0.46525 1.05441,-0.587226 0.51566,-6.25e-4 -0.31887,-0.164606 -0.20219,0.917561 -0.5909,0.316998 -0.10467,0.47736 -0.41052,1.105539 -0.8001,1.325899 0.12138,-0.439496 -0.19926,-0.899411 -0.19453,-0.174956 -0.0357,0.270649 -0.899701,1.255284 -0.231218,0.649231 0.291348,-0.377905 0.699298,-0.02659 0.786648,-0.648622 0.71252,-0.444846 0.96644,-1.308292 1.68462,-1.698373 0.60575,-0.514446 1.12042,-1.150771 1.68952,-1.674596 0.46811,-0.04669 0.86439,-0.876988 1.36531,-1.142409 0.58704,-0.59295 1.22956,-1.116143 1.62713,-1.902589 0.66745,-0.886723 -0.51012,1.065225 0.22816,0.223116 0.35113,-0.606053 0.98022,-0.708588 1.1708,-1.441726 0.64657,-0.277463 0.5046,-1.145362 1.20015,-1.277129 0.28525,-0.677051 1.01256,-0.838203 1.33964,-1.494154 0.48631,-0.01204 0.77533,-0.816793 1.27784,-1.048529 0.45663,-0.762772 1.09713,-1.35344 1.69685,-2.063528 0.7185,-0.610242 1.41993,-1.228873 2.17338,-1.80749 0.91449,-0.55749 1.93716,-1.132084 3.03954,-1.108881 0.48709,0.178298 -0.87037,0.03731 -1.08699,0.394419 -0.70668,0.397448 -1.51449,1.013829 -1.65098,1.819074 -0.57279,0.673517 -0.79066,1.578609 -1.39896,2.231779 -0.20354,0.861781 -0.88351,1.500516 -1.24481,2.324442 -0.3681,0.771111 -0.56744,1.632925 -1.18792,2.257991 -0.0391,0.452561 0.45465,-0.418488 0.17983,0.207266 -0.28666,0.441791 -0.6763,0.924106 -0.37497,1.20337 -0.68748,0.604602 -0.25668,1.449628 -1.14143,1.857481 0.53189,0.478706 -0.67968,0.964264 -0.62026,1.488667 0.46596,-0.04371 -0.51998,0.838444 -0.80255,0.972324 -0.32426,-0.0016 -0.31503,0.484411 0.0343,0.217632 -0.0511,0.588438 -1.22963,1.031195 -1.02766,1.366743 0.2118,0.389703 -1.30931,0.948769 -0.91878,1.51366 -0.3982,0.649631 -1.63375,0.670341 -1.52497,1.386253 -0.29237,0.223291 -1.60261,0.999189 -0.48814,0.878446 -0.77439,0.602064 -1.60696,1.134996 -2.61563,1.23141 -0.72451,0.339252 1.11757,-0.136138 1.30721,0.06279 -0.6474,0.145501 -1.37927,0.488116 -1.9397,0.687638 0.34912,0.480749 0.47124,1.066992 -0.31259,1.06133 -0.38431,0.05873 -1.96959,0.532524 -0.80194,0.450502 0.99245,0.203311 1.42788,-0.871962 2.27798,-0.977813 0.68587,0.01486 1.31468,-1.009655 1.74151,-0.321266 0.72517,-0.369356 1.34048,-1.035594 1.9501,-1.594127 0.62524,-0.652066 1.44604,-1.106931 2.00638,-1.842239 0.11832,-0.498795 0.78696,0.04456 0.50221,-0.484032 0.61236,0.155377 1.23649,-1.153174 1.53353,-0.891858 -0.29408,0.168624 -0.63069,0.503984 -0.0783,0.248722 0.56536,-0.366341 1.14099,-1.449512 1.56778,-1.130217 0.23803,-0.395368 0.86643,-0.250211 0.54441,-0.581567 0.23404,-0.261688 0.46556,-0.335426 0.43798,-0.05548 0.33046,-0.378202 0.92219,-0.595451 1.03133,-0.868696 0.50035,0.12683 1.06386,-0.888695 1.74518,-0.869301 0.75038,-0.618132 1.52844,-1.166639 2.15991,-1.894056 0.64817,-0.573224 1.42961,-0.963914 1.87242,-1.740434 0.67219,-0.278705 0.97911,-1.081106 1.6571,-1.32773 0.69973,-0.455898 1.4241,-0.888903 2.08406,-1.478303 0.88407,-0.733857 1.75812,-1.514678 2.7704,-2.065355 0.6566,-0.191298 -0.35435,0.171145 -0.14925,0.48098 -0.83372,0.727511 -1.57351,1.54873 -2.20213,2.462212 -0.43294,0.62746 -0.82417,1.29403 -1.25338,1.935512 -0.58656,0.560686 -0.79725,1.242777 -1.3598,1.823338 0.40049,0.396923 -0.99139,0.689614 -0.52424,1.087546 -0.64714,0.667331 -1.0147,1.399349 -1.66138,2.047067 0.75099,0.09686 -1.58489,1.389449 -0.31869,1.13753 -0.20192,0.525738 -1.568,1.000829 -1.08394,1.339314 -0.50283,0.529233 -1.19023,0.747714 -1.34879,1.32468 -0.63292,0.548317 -1.12516,1.261761 -1.93909,1.591079 -0.4803,0.489411 0.71599,0.08 -0.0404,0.495003 -0.33196,0.375512 -1.25023,0.507511 -1.26987,0.993054 1.00245,-0.375861 -0.83194,0.957799 -0.89799,0.429776 -0.60853,0.385369 0.35454,0.417938 -0.39087,0.726045 -0.34194,0.107353 -1.26684,0.894748 -0.31687,0.548039 -0.31815,0.558266 -1.14221,0.854821 -1.70908,1.212511 -0.16654,0.512598 0.89709,-0.578087 0.46733,0.190199 -0.66575,0.344062 -1.07624,0.913726 -1.77516,0.890638 -0.52732,0.281969 -0.28054,0.66942 0.2141,0.273716 0.45666,0.226509 -0.98438,0.861461 -1.11269,0.658986 -0.16591,-0.211643 -0.68104,0.371341 -0.91693,0.50232 0.009,0.527876 1.65145,-0.876047 1.43689,0.06949 -0.64432,0.412876 -1.02911,0.437861 -1.30049,1.189346 -0.12895,0.577569 0.61944,0.167194 0.58357,-0.08901 0.79672,-0.348008 1.33109,-1.137291 1.99598,-1.614248 0.38889,-0.829412 1.36385,-0.877253 1.77392,-1.711781 0.80103,-0.136396 1.08199,-1.392548 1.81982,-1.257625 0.46171,-0.886673 1.49976,-1.0061 2.11282,-1.744701 0.71944,-0.520241 1.49077,-0.688967 2.16908,-1.210685 0.72884,-0.320529 1.3889,-0.73135 2.03453,-1.291153 0.48968,-0.405712 1.07418,-0.447096 1.50723,-1.005857 0.77268,-0.329871 1.33519,-1.048183 2.05776,-1.438067 0.78016,-0.394461 1.37647,-1.174167 2.19846,-1.463672 0.82812,-0.521751 1.59798,-1.174723 2.54405,-1.501468 1.06989,-0.332913 2.1631,-0.770032 3.29952,-0.726653 0.32183,-0.01766 1.24759,0.462128 0.4025,0.301755 -0.97537,-0.03745 -2.00818,0.328256 -2.67986,1.030851 -0.79554,0.443091 -1.30445,1.181561 -2.00027,1.711172 -0.59023,0.745923 -1.13778,1.426277 -1.80941,2.092181 -0.5475,0.617482 -1.10147,1.250998 -1.74151,1.805662 -0.3069,0.259483 -0.50288,0.377988 -0.22694,0.501098 -0.14513,0.590563 -1.3386,0.512592 -0.80011,1.180812 -0.17903,0.524044 -1.03075,0.817152 -1.03193,1.232023 0.8489,-0.189882 -0.53993,0.688515 -0.79093,0.9516 -0.4073,-0.03334 -0.75573,0.47858 -0.20982,0.327361 -0.22471,0.534075 -1.94443,0.657162 -1.29558,0.954647 -0.18486,0.365976 -1.6937,0.66207 -0.95548,0.899783 0.17215,0.112272 -0.82235,0.892869 -1.27295,1.046088 -0.2726,0.329359 0.60591,0.04726 0.0165,0.391371 -0.30412,0.481575 -1.05687,0.536263 -1.28458,0.951601 0.54392,0.266544 -0.43033,0.507847 -0.5016,0.843089 -0.79298,0.293923 -0.93434,1.308128 -1.95377,1.402102 -0.70916,0.330407 0.78151,0.188814 -0.16821,0.490125 -0.22253,0.415085 -1.48239,0.556991 -1.13531,1.00037 0.90599,-0.111786 -1.09273,0.514051 -1.01176,0.896736 0.33159,0.06729 0.97157,-0.04919 0.27037,0.219458 -0.51849,0.524564 -1.40553,0.767087 -1.83204,1.205806 0.15243,0.329574 0.98008,0.03623 0.15231,0.329798 -1.19855,0.255599 -2.36444,0.696313 -3.6066,0.700442 -0.70556,-0.04822 -1.22982,0.716165 -0.86311,1.241167 -0.74454,-0.516983 0.41302,0.814078 0.23061,0.104237 -0.0436,-0.471448 -0.0423,-0.947773 0.51017,-0.513899 0.70324,-0.164771 1.79131,0.513712 1.89382,-0.149355 0.51164,-0.0475 1.11865,-0.520005 1.36226,-0.224337 -0.70481,0.645417 0.71165,-0.237192 0.94386,-0.359669 0.65088,-0.478976 1.2917,-1.0049 2.00515,-1.364307 0.78057,-0.521328 1.52902,-1.021553 2.30917,-1.555721 0.66868,-0.525654 1.33036,-0.773171 1.98253,-1.198494 0.31219,-0.400004 0.5416,-0.541753 0.99462,-0.41697 0.66022,-0.564682 1.56652,-0.83662 2.3575,-1.098516 0.67864,-0.625654 1.51379,-0.640936 2.23577,-1.122293 0.72947,0.282428 1.34253,-1.084049 1.79533,-0.519995 0.74187,-0.47347 1.6889,-0.708613 2.4046,-1.003419 0.56428,0.05579 1.07961,-0.506318 1.68034,-0.492563 0.66313,-0.271182 1.38549,-0.595194 2.10302,-0.538285 0.76789,-0.132798 1.53374,-0.381413 2.31713,-0.302975 0.89657,-0.147018 1.78967,0.02669 2.6927,0.0128 1.04782,0.215091 2.14446,0.02405 3.18269,0.34016 0.55635,-0.03538 1.73691,1.018973 0.64229,0.368818 -0.76872,-0.310146 -1.58508,-0.0089 -2.37401,0.0019 -0.70613,0.248401 -1.68197,0.52149 -2.34649,0.362717 -0.24296,0.201205 -1.04208,0.416606 -1.00869,0.178008 -0.76492,0.644431 -1.78684,0.86902 -2.58994,1.495979 -0.39854,0.214343 -1.28295,0.458405 -0.89431,0.716902 -0.5141,0.396155 -1.30525,0.464354 -1.42221,1.093029 -0.27809,0.240192 -1.71862,0.448823 -0.66309,0.511461 -0.0991,0.448323 -1.82053,0.553604 -1.38978,1.042435 -0.0486,0.223481 -1.14686,0.512938 -1.47237,0.705315 0.68961,0.288282 -0.74885,0.867657 -1.12736,0.789446 -0.4546,0.06112 0.40956,0.501767 -0.28689,0.499878 -0.20147,0.466277 -1.6021,0.142693 -1.05517,0.625461 0.6646,-0.02663 -0.68892,0.400472 -0.81357,0.662035 -0.45717,0.08236 -0.8847,0.117029 -0.69306,0.474276 -0.29816,0.423511 -1.57075,0.293208 -1.43382,0.693127 0.10249,0.46421 -1.24445,0.44299 -1.46747,0.744943 0.55859,0.558383 -1.74559,0.507323 -1.11758,1.029632 -0.14592,0.495758 -1.79487,0.597054 -1.27784,1.109486 -0.3886,0.45803 -1.50363,0.51976 -1.56411,1.034509 0.39336,0.414236 -2.05499,0.415691 -1.1286,0.998538 0.38055,0.115692 -0.84359,0.475627 -1.04723,0.712634 -0.81234,0.356302 -1.73879,0.199961 -2.58995,0.230433 0.88603,0.278205 1.8005,0.821212 2.7655,0.708365 0.77202,-0.283929 1.3846,-0.628069 2.03819,-0.892466 0.37184,-0.220853 0.87121,-0.980579 0.66186,-0.284079 0.74939,-0.447142 1.68566,-1.055381 2.36729,-1.305785 0.67317,-0.288652 1.39103,-0.725599 2.06265,-1.093638 0.45315,-0.440851 1.0688,-0.296195 1.35002,-0.884545 0.34324,0.163676 0.51442,-0.361716 0.8674,-0.09815 0.67396,-0.660976 1.45663,-0.711374 2.17275,-1.271646 0.77951,0.08886 1.26786,-0.97843 2.07795,-0.680933 0.63067,-0.802653 1.47084,-0.251151 2.01863,-1.168012 0.37471,0.483361 1.14499,-0.622897 1.80818,-0.672396 0.38852,-0.151033 0.62462,-0.683698 0.83008,-0.240798 0.5541,-0.09127 0.76312,-0.91541 1.20321,-0.521825 0.66243,-0.451118 1.59114,-0.775049 2.15441,-1.057671 0.5991,0.222476 1.16197,-0.951276 1.62223,-0.501711 0.66285,-0.586826 1.44884,-0.390266 2.25717,-0.604121 0.81987,-0.154296 1.63453,-0.211405 2.478,-0.170081 0.87824,0.262341 1.82094,0.370284 2.67804,0.743723 1.01928,0.313881 2.18131,0.480326 3.04321,1.083275 -1.14713,-0.08796 -2.27259,-0.512328 -3.44021,-0.523653 -0.76593,-0.165722 -1.44969,0.113322 -2.20396,0.05425 -0.77858,0.251019 -1.47586,0.481249 -2.25595,0.794324 -0.88746,0.324474 -1.56058,0.806003 -2.39604,1.235069 -0.38687,0.459177 -1.35069,0.386182 -1.13898,0.843088 -0.83359,0.347567 -1.39877,1.081395 -2.21986,1.436851 -0.72921,0.01561 0.0743,0.426828 -0.55665,0.623627 -0.29695,0.264289 -1.0801,0.156207 -0.70957,0.629727 -0.7548,0.471774 -1.32611,1.080158 -2.03696,1.568526 -0.43945,0.05643 -0.58149,0.147857 -0.36213,0.426727 -0.24933,0.364335 -1.89329,0.563561 -0.79522,0.770546 -0.42727,0.369868 -1.70694,0.414386 -1.60632,0.935752 -0.27823,0.434963 -1.18629,0.564727 -1.41486,0.794928 0.43215,0.236113 -0.76474,0.44122 -0.98913,0.646185 -0.19595,-0.02041 -0.77763,0.100954 -0.35845,0.241407 -0.5012,0.671141 -1.58261,0.298558 -1.81187,1.025363 -0.33931,0.261984 -1.75631,0.38762 -1.0619,0.666302 -0.7238,0.338538 -1.6434,0.325257 -2.00577,1.030851 -0.24882,0.233344 -1.52857,0.410784 -0.72487,0.623628 -0.5363,0.502292 -1.82027,0.4317 -1.99046,1.116807 0.48237,0.336024 -0.76077,0.537703 -1.03806,0.715069 -1.06816,0.04064 -2.13047,-0.106302 -3.1888,-0.207266 -1.21126,0.156562 -0.54908,1.317642 -0.1933,1.947703 0.26562,0.680806 -0.36315,-0.983553 0.32175,-1.01866 0.21614,-0.710831 1.22339,0.219453 1.77395,0.234091 0.72764,0.284893 1.64272,0.322214 2.04979,-0.301755 -0.4845,0.451209 0.83331,-0.165183 1.05642,-0.202392 0.83544,-0.497568 1.74165,-0.869796 2.61808,-1.275303 0.75096,-0.463823 1.6112,-0.693231 2.38624,-1.109486 0.98581,-0.420436 1.94339,-0.709957 2.92822,-1.10949 0.77768,-0.295853 1.51913,-0.381436 2.28592,-0.662037 0.87891,-0.386549 1.88952,-0.268858 2.72635,-0.731531 0.69769,-0.174632 1.46853,-0.416319 2.13728,-0.546212 0.78619,-0.06703 1.33123,-0.313218 2.09874,-0.302365 0.63403,-0.436397 0.73933,0.288868 1.4216,-0.196293 0.55526,-0.171171 1.28312,-0.450536 1.80083,-0.479153 0.60332,0.221951 1.23438,-0.440704 1.86387,-0.117654 0.81651,-0.293674 1.67273,-0.06919 2.52572,-0.226165 1.02716,-0.04982 2.05348,-0.141899 3.07684,-0.0701 1.54005,-0.04342 3.08162,-0.07837 4.6214,-0.128019 0.4316,0.20447 -0.88379,0.299942 -1.09065,0.401733 -0.88754,0.198325 -1.80046,0.161088 -2.70189,0.227386 -0.99505,0.196311 -2.00908,0.175761 -3.00407,0.348697 -0.98689,0.102858 -1.87741,0.308533 -2.823,0.548648 -0.85513,0.454849 -1.80899,0.781307 -2.57464,1.393565 -0.77736,0.450153 -1.58108,0.863422 -2.4621,1.068647 -0.27329,0.131514 0.34919,0.21828 -0.28504,0.425506 -0.79458,0.444241 -1.64594,0.766499 -2.50248,1.06133 -0.20142,0.368108 -1.54802,0.269666 -0.96831,0.59437 -0.72579,0.484785 -1.58686,0.714324 -2.20519,1.308222 -0.27162,0.325464 -1.24679,0.04435 -0.88452,0.476714 -0.42617,0.415591 -1.2398,0.308543 -1.5843,0.554744 1.02344,0.121804 -0.61103,0.411464 -0.93529,0.584616 -0.3282,-0.02092 -0.84135,-0.01161 -0.48325,0.385883 -0.35817,0.275725 -1.62725,0.186027 -1.49499,0.520607 0.4758,0.137722 -0.85504,0.366363 -1.07476,0.477322 -0.64815,0.08849 -0.2483,0.533503 0.18902,0.40844 -0.65184,0.42634 -1.62133,0.650677 -2.20642,0.991833 0.42864,0.09084 1.03874,-0.0146 0.29851,0.253598 -0.60414,0.240831 -1.31786,0.516105 -1.81858,0.819314 0.24466,0.410929 0.76483,0.17132 0.65391,-0.05912 0.22267,0.171475 1.35,-0.290213 0.97138,-0.04451 -0.78076,0.524556 -1.77176,0.539437 -2.61809,0.919291 -0.85395,0.288352 -2.02662,-0.258302 -2.66885,-0.09571 0.77402,0.407117 1.59508,0.924349 2.48718,0.947942 0.73719,-0.225053 1.57324,-0.270786 2.26207,-0.809561 0.73943,-0.307576 1.15681,-1.379598 1.73295,-1.60449 0.39846,0.156819 1.00833,-0.744322 1.59653,-0.638872 0.66689,-0.769728 1.65459,-0.537448 2.51472,-0.890029 0.93197,-0.205359 1.80282,-0.46063 2.67129,-0.821752 0.74566,-0.206224 1.51103,-0.486012 2.28409,-0.696174 0.86189,-0.340514 1.67785,-0.399776 2.51531,-0.958917 0.28409,0.663351 1.12305,-0.692791 1.62102,-0.163986 0.67272,-0.533372 1.30534,-0.494247 1.99414,-0.440136 0.82538,0.0024 1.66999,-0.804485 2.32324,-0.436481 0.52893,-0.267411 0.83096,-0.836552 1.36409,-0.59559 0.5548,-0.163226 0.98247,-0.677073 1.28457,-0.26274 0.81411,-0.484263 1.66426,-0.122004 2.51837,-0.363938 0.55689,0.151648 1.20727,-0.141293 1.75986,0.151185 0.89823,-0.112372 1.8073,0.0365 2.71473,0.177397 1.50743,0.28828 3.07822,0.615295 4.36388,1.500857 -0.33299,0.02272 -1.4773,-0.649391 -2.16909,-0.639481 -1.31697,-0.195558 -2.6428,0.121799 -3.95158,0.253598 -0.8354,0.1254 -1.75906,0.01944 -2.50677,0.400511 -0.83323,0.465524 -1.90537,0.591803 -2.62235,1.289937 -0.86594,0.379924 -1.6047,0.95117 -2.46944,1.330776 -0.31436,0.484713 -1.21812,0.41453 -1.42404,0.755306 0.67306,-0.0053 -0.69836,0.570061 -0.91082,0.642526 -0.67777,0.350175 -1.26151,0.881268 -2.00454,1.221049 -0.38539,0.391532 -1.44754,0.206049 -1.54638,0.548039 0.41438,0.307787 -1.21045,0.527607 -1.5213,0.882107 -0.83701,0.282334 -1.59967,0.706115 -2.42356,1.013778 -0.67398,0.516508 -1.54073,0.591028 -2.34526,0.774204 -0.11257,0.237059 0.56836,0.213606 -0.0324,0.310291 -0.44806,0.263015 -1.21091,0.353133 -1.49622,0.56328 0.94064,0.04031 -0.68707,0.356144 -0.931,0.600466 -0.34124,0.06112 -1.03709,0.06061 -0.30342,0.259693 -0.3906,0.503993 -1.78155,0.502673 -1.83021,0.864413 0.44462,-0.003 1.25188,-0.0381 0.36335,0.25055 -0.54209,0.33201 -1.92639,0.58097 -1.03682,1.36126 0.21076,-0.14009 0.2476,-1.01496 0.4184,-0.71263 -0.0232,0.7169 -0.73472,1.02071 -1.30904,1.28688 -0.40158,0.31011 -0.91092,0.0691 -1.36899,0.092 -0.97858,0.15365 -1.72537,-0.69589 -2.66089,-0.6474 -0.45386,0.39808 -0.62891,0.49426 -0.23062,0.99915 0.12921,0.45298 0.22191,0.75487 0.33827,0.1841 0.59628,-0.28655 -0.22107,-0.81524 -0.20675,-0.40173 -0.29478,-0.51942 0.80686,-0.12851 0.5022,-0.59681 0.85207,0.42001 1.76462,0.74854 2.66091,1.065 0.93061,0.14621 1.84064,-0.57891 2.47127,-1.19424 0.55989,-0.58456 1.35415,-0.9291 2.02105,-1.39296 0.38638,-0.26283 0.617,-0.79273 0.9928,-0.5212 0.71154,-0.593985 1.74528,-0.7145 2.33669,-1.431362 0.38443,0.305369 1.01305,-0.684341 1.63079,-0.594366 0.77572,-0.459504 1.66754,-0.690138 2.37707,-1.230193 0.75165,-0.128766 1.5728,-0.459107 2.29572,-0.814437 0.64898,-0.132595 1.26995,-0.339626 1.90972,-0.673009 0.75842,-0.03012 1.66988,-0.25654 2.38687,-0.544383 0.39648,-0.435252 0.86056,0.274188 1.24175,-0.362106 0.34462,-0.209586 0.67399,-0.718463 0.82824,-0.240797 0.4563,-0.449919 0.97139,-0.5621 1.51457,-0.621191 0.32101,-0.17182 0.94857,-0.937231 0.91022,-0.312729 0.55203,-0.215491 1.00067,-0.82757 1.48214,-0.583396 0.59396,-0.580549 1.46159,-0.904558 2.1905,-1.061942 0.52322,0.180527 1.03262,-0.719123 1.23563,-0.274322 0.68211,-0.523026 1.57773,-0.433103 2.39115,-0.772375 0.72504,-0.174125 1.63906,-0.63311 2.26819,-0.601686 -0.44403,0.933513 -1.39538,1.4653 -2.17644,2.063528 -0.35415,0.265842 -0.49126,0.649215 -0.98117,0.804075 -0.0419,0.58318 -0.88676,0.614901 -1.04662,1.164354 -0.35647,0.196077 -1.00097,0.16811 -0.78359,0.571204 -0.47368,0.30899 -1.1931,0.229121 -1.27845,0.751647 -0.57901,0.194632 -1.04853,0.369132 -1.22218,0.883933 -0.35003,0.177225 -1.45002,0.277197 -0.97076,0.687032 -0.53337,0.410984 -1.59373,0.387772 -1.44545,0.970498 -0.39638,0.164918 -1.77286,0.472097 -1.03807,0.696173 -0.47932,0.470886 -1.29754,0.432998 -1.76536,0.740065 0.57953,0.316399 -0.92566,0.496595 -1.2705,0.526085 9.4e-4,0.2581 0.67674,0.17182 0.0618,0.35967 -0.37087,0.19463 -1.78962,0.18997 -0.95364,0.61753 -0.45306,0.43134 -1.57065,0.11012 -1.77088,0.42795 1.16746,0.20934 -0.79269,0.53971 -1.15611,0.72116 -0.59058,0.20579 0.65576,0.4037 -0.23244,0.48038 -0.44097,0.12282 -2.00988,0.24667 -1.11331,0.62972 -0.49954,0.36078 -1.7193,0.26896 -1.85589,0.71995 1.06919,-0.0245 -1.01068,0.57496 -1.36777,0.5523 -0.68706,-0.025 -0.41811,0.21264 -0.25875,0.28896 -0.43044,0.36447 -1.47267,0.46579 -1.56595,0.9004 0.1501,0.50926 -1.86227,0.42005 -1.27601,0.81627 0.1812,0.32787 -1.83768,0.42497 -1.37204,0.88697 0.0938,0.26157 -1.24379,0.34139 -1.64854,0.6084 -0.71857,0.26235 1.12381,0.39889 0.18719,0.48524 -0.63793,0.52078 -1.8469,0.58238 -2.27798,0.92906 0.76289,0.43482 1.87446,0.84627 2.64011,0.13045 0.80602,-0.35411 1.47064,-0.90258 2.23697,-1.32347 0.74767,-0.40884 1.41208,-0.96741 2.22844,-1.22531 0.61013,-0.45901 1.30688,-0.24357 1.93236,-0.81931 0.79668,0.11948 1.30171,-0.72849 2.04002,-0.60291 0.73897,-0.24045 1.53197,-0.5159 2.26819,-0.60108 0.77873,-0.30485 1.58941,-0.5037 2.36667,-0.85406 0.86741,-0.0995 1.65502,-0.43888 2.4315,-0.67057 0.67445,-0.41644 1.56343,-0.45477 2.22905,-0.95221 0.55555,0.56707 1.33303,-0.94904 1.75557,-0.37857 0.57606,0.0757 1.00945,-0.84145 1.35126,-0.33528 0.60347,-0.22296 0.96528,-0.8727 1.57697,-0.56815 0.45749,-0.37729 0.80399,-0.56892 1.30047,-0.44563 0.79091,-0.40027 1.5634,-0.6562 2.38747,-0.977193 0.54256,-0.24595 0.89813,-0.536263 1.38795,-0.307245 0.72982,-0.409909 1.53136,-0.210397 2.32752,-0.571813 1.08256,-0.269694 2.17405,-0.512161 3.2365,-0.85528 -0.88068,0.686389 -1.74478,1.418111 -2.72268,1.955621 -0.64006,0.46911 -1.30848,1.09185 -2.13055,1.40027 -0.5347,0.60268 -1.55805,0.97855 -2.37034,1.26554 0.0296,0.64684 -1.13998,0.39477 -1.17324,1.03268 -0.97085,0.2297 -1.57778,1.17686 -2.63399,1.14607 0.31143,0.89222 -1.8748,0.51327 -1.38488,0.99428 -0.35247,0.52934 -1.24636,0.36591 -1.60205,0.63887 0.60755,0.37344 -0.85926,0.68347 -1.14755,0.86259 -0.50527,-0.0823 -0.31962,0.21249 -0.2086,0.24446 -0.44205,0.48498 -1.68388,0.36202 -1.83449,0.74494 0.57197,0.11407 -0.81767,0.45433 -1.09433,0.52853 -0.40043,0.0378 -0.95556,0.29365 -0.30096,0.36821 -0.57445,0.30123 -1.30776,0.57223 -1.85895,0.63216 0.81646,0.20632 -0.98567,0.76388 -1.41058,0.60717 -0.31121,0.29185 0.91435,0.19224 0.0477,0.42185 -0.51039,0.2514 -1.33261,0.26784 -1.69074,0.47916 0.88743,0.35753 -0.96032,0.38087 -1.37205,0.42429 -0.33407,-0.032 0.20634,0.49065 -0.44042,0.45538 -0.35009,0.13356 -1.6086,0.0856 -0.64656,0.3682 -0.50909,0.40326 -1.56924,0.40903 -1.89322,0.91747 0.95944,0.33159 -0.72676,0.15226 -1.02032,0.27981 -0.87576,0.0729 -0.0573,0.31494 0.0851,0.381 -0.7602,0.3727 -1.59395,0.54657 -2.39175,0.75225 0.0934,0.36132 1.13623,0.61684 0.26305,0.48343 -0.88445,0.11948 -1.70592,0.71819 -2.66764,0.39442 -0.73816,-0.36334 -2.29845,-0.0729 -1.60327,0.99305 0.24417,0.42504 -0.83212,0.25547 -0.0343,0.47793 0.85301,-0.0759 -0.41981,-1.47758 0.62517,-1.3198 0.0622,0.42377 -0.0588,1.2464 0.19635,0.35661 0.16452,-0.78486 0.88499,0.27621 1.40324,0.19387 0.75299,0.5592 1.54112,0.88083 2.42479,1.15521 0.96808,0.0645 1.54423,-0.92317 2.31895,-1.33931 0.65701,-0.68898 1.48044,-1.13085 2.29571,-1.61486 0.72967,-0.55103 1.5667,-1.12167 2.30795,-1.54962 0.75895,-0.38196 1.60868,-0.65627 2.43884,-0.97417 0.56068,-0.068 1.26249,-0.11613 1.89628,-0.48828 0.7204,0.22796 1.70729,-0.52483 2.5251,-0.71142 0.71568,0.0258 1.43278,-0.17702 2.10609,-0.35602 0.57088,-0.39155 1.22813,-0.10291 1.80268,-0.61814 0.40969,-0.19707 0.89299,0.30241 1.31761,-0.24018 0.68964,-0.17343 1.419,-0.24425 2.01005,-0.76263 0.27911,0.57017 1.12965,-0.64472 1.67667,-0.23714 0.75794,-0.53183 1.52653,-0.31259 2.30612,-0.83029 0.72138,0.0555 1.36453,-0.41194 1.9452,-0.28713 0.64937,-0.27315 1.27923,-0.0633 1.94949,-0.42245 0.75254,0.0133 1.59333,-0.20561 2.39664,-0.23592 0.8602,-0.11546 1.74525,-0.20718 2.60218,-0.12802 -0.66477,0.30595 -1.48045,0.55591 -2.20334,0.82725 -0.83052,0.41261 -1.61791,0.8493 -2.467,1.1168 -0.56482,0.40361 -1.33892,0.89265 -2.13483,1.19727 -0.92282,0.41385 -1.70998,1.03769 -2.71472,1.21374 -0.38338,0.12888 0.36766,0.20419 -0.21472,0.37368 -0.855,0.20514 -1.44383,0.8533 -2.33731,0.92844 -0.7175,0.0423 0.0562,0.42709 -0.69611,0.55109 -0.56398,0.26239 -1.2522,-0.0277 -1.49133,0.5968 -0.35667,0.38126 -1.39965,-0.088 -1.08699,0.56328 -0.5339,0.36779 -1.64306,0.21198 -1.7097,0.75653 -0.3923,0.35512 -1.46321,-0.0511 -1.30659,0.54743 -0.29626,0.4633 -1.55676,0.30891 -1.40569,0.75347 -0.10238,0.52137 -1.77056,0.36822 -1.31516,0.87479 -0.29947,0.25425 -1.97729,0.15929 -1.25644,0.53341 -0.52352,0.28803 -1.2734,0.40477 -1.71827,0.72362 0.18315,0.39519 -1.39576,0.37159 -1.59164,0.64617 0.87794,0.3916 -1.77202,0.25956 -1.01176,0.71874 0.18498,0.28522 -1.44774,0.44422 -1.56044,0.85223 0.56395,0.4249 -1.81884,0.45422 -1.19037,0.94001 0.16327,0.24891 -1.13929,0.44956 -1.52008,0.6974 -0.63808,0.11276 -0.24429,0.68602 0.21104,0.5584 -0.93772,0.1931 -1.69653,0.99787 -2.70005,0.79493 -0.63727,0.002 -1.93394,-0.94098 -1.9446,0.16337 0.9077,0.11288 -0.75292,0.80264 0.18535,0.87967 0.18724,-0.13632 -0.12871,0.91695 0.1309,0.19203 0.39873,-0.38784 0.3843,-1.7744 1.03439,-0.91624 0.86309,0.29879 1.64023,0.80592 2.44925,1.21738 0.97656,-0.48538 2.43794,0.52088 3.03465,-0.58643 0.50293,-0.89488 1.3116,-1.62731 2.29448,-1.9471 0.66438,-0.39939 1.36751,-0.8093 2.1587,-0.88516 0.75629,-0.41095 1.58658,-0.39098 2.41683,-0.55961 1.27956,-0.27602 2.60631,-0.50434 3.74484,-1.1857 0.975,-0.33295 1.95034,-0.63508 2.86275,-1.11375 0.84848,-0.38125 1.51866,-0.71025 2.3685,-0.96379 0.86968,-0.39072 1.71123,-0.81282 2.55998,-1.1985 0.77124,-0.34717 1.63465,-0.52921 2.45598,-0.73091 0.51278,-0.33318 0.87479,0.013 1.4589,-0.42307 0.90729,-0.26405 1.81927,-0.41393 2.75143,-0.59133 0.86425,-0.18512 1.73665,0.0879 2.60891,0.0183 -1.06529,0.33637 -2.15214,0.65174 -3.13742,1.17168 -0.88424,0.30106 -1.67216,0.82278 -2.52388,1.15398 -0.49938,0.61837 -1.37708,0.69973 -1.85773,1.28019 -0.83228,0.20449 -1.53924,0.82597 -2.29387,1.11924 -0.76402,0.41277 -1.57818,0.97593 -2.47863,1.18691 -0.88153,0.52129 -1.87561,0.88979 -2.86397,1.17105 -0.89057,0.42263 -1.75678,0.80919 -2.70678,1.10767 -0.0701,0.41049 -1.12937,0.74551 -1.70236,1.07352 -0.54225,0.67558 -1.55089,0.24054 -1.93481,1.11437 -0.91825,0.28076 -0.904,1.42234 -1.89689,1.62337 0.53876,0.64862 -1.34123,0.58637 -1.42955,1.17107 -0.1985,0.56478 -1.43198,0.35234 -1.70603,0.89003 0.48695,0.21547 -0.9079,0.36239 -1.16651,0.5974 -0.77399,0.33482 0.76175,0.62731 -0.0275,0.65656 -0.84327,0.13416 -1.64454,0.64777 -2.51471,0.37552 -0.82747,-0.15244 -1.87296,-0.83878 -2.39664,0.20666 0.14107,1.17867 0.60814,2.30473 0.97628,3.43516 -0.10184,-0.72293 -0.46182,-1.4619 -0.2037,-2.18302 -0.15938,-0.58781 1.02738,-1.75224 1.24053,-0.87113 0.36131,0.18035 1.1932,-0.26909 1.68217,0.12132 1.15102,0.0533 2.25989,-0.39424 3.3662,-0.66142 0.85162,-0.23798 1.69111,-0.52695 2.41866,-1.03147 0.62075,-0.45927 1.71061,-1.32266 2.21741,-1.34969 0.058,0.53711 1.22403,-0.45579 1.47053,0.20545 0.84501,-0.29451 1.43697,0.1992 2.2584,0.12253 0.60369,0.42498 1.54004,0.093 2.27553,0.2353 0.98102,-0.11563 1.94537,-0.38364 2.93311,-0.38954 0.42593,-0.15212 0.69376,-0.33487 0.94263,-0.007 0.82849,-0.33467 1.66265,-0.20997 2.49145,-0.57669 0.75569,0.087 1.47965,-0.23296 2.22047,-0.26823 0.35666,-0.0555 0.999,-0.64876 0.91022,-0.13045 0.80838,-0.29892 1.63852,-0.15545 2.42111,-0.50903 0.71111,-0.0561 1.4879,-0.47983 2.05654,-0.18287 0.26979,-0.0206 1.00867,-0.47232 0.80683,0.0106 0.79853,-0.38412 1.48431,-0.0455 2.32997,-0.1847 0.84162,-0.0233 1.68733,-0.0789 2.52755,-0.0159 -1.57004,0.51927 -3.16069,0.99555 -4.70582,1.5789 -0.89394,0.1566 -1.66923,0.60826 -2.59545,0.86382 -0.76955,0.21308 -1.51729,0.55869 -2.29143,0.87296 -0.92168,0.002 -1.57417,0.84394 -2.52938,0.6157 -0.47038,0.54865 -1.49029,0.10741 -1.88281,0.68581 -1.00987,-0.16719 -1.61518,0.69661 -2.63093,0.45416 -0.79187,0.38324 -1.71415,0.2327 -2.53489,0.56875 -0.85431,-0.31776 -1.60548,0.34501 -2.46454,0.18656 -0.86549,0.059 -1.66003,0.22563 -2.53673,0.39868 -0.87412,0.16078 -1.59801,0.47439 -2.11954,1.19057 0.16856,0.73397 -1.41608,0.55799 -0.97933,1.19545 0.61573,0.1606 -0.97525,0.4085 -1.23258,0.58643 -0.41598,0.0181 -0.81462,0.0638 -0.55175,0.406 -0.47621,0.30117 -1.84422,0.14987 -1.80207,0.69495 0.0597,0.55358 -1.14178,0.86542 -1.64119,0.94551 0.472,0.50019 1.09832,0.86174 1.74641,1.1101 0.34816,0.0641 0.71593,-0.14472 1.07169,-0.18471 0.69566,-0.13321 1.39221,-0.39532 2.09508,-0.38588 0.87122,-0.0172 1.77631,-0.35644 2.51776,-0.78761 0.35578,0.37753 1.16217,-0.73406 1.06191,-0.0914 0.57266,-0.0479 1.17484,-0.32789 1.4222,0.0165 0.72758,-0.049 1.60257,-0.0551 2.21069,-0.0682 0.57759,0.12205 1.14103,-0.007 1.7036,0.16215 0.7516,-0.10474 1.43693,0.28836 2.20577,-0.0987 0.69326,0.3013 1.59984,0.15901 2.33181,-0.16399 0.48631,0.58642 1.31302,-0.47663 1.70603,0.0658 0.82166,-0.42469 1.48602,-0.009 2.29633,-0.2536 0.65227,0.0675 1.42043,-0.20596 2.11648,-0.10121 0.5097,0.24844 1.26985,-0.41745 1.55618,-0.01 0.46494,-0.0558 1.1106,-0.53685 1.09616,-0.075 0.92028,-0.36264 1.77834,-0.43565 2.7447,-0.55902 0.43766,0.33757 1.2079,-0.33717 1.41058,0.028 0.79398,-0.34984 1.484,-0.0219 2.32875,-0.23287 0.63654,9.3e-4 1.61589,-0.17812 2.03023,-0.1085 -1.40937,0.61567 -2.87322,1.09362 -4.32655,1.58802 -0.61255,0.25753 -1.19569,0.16374 -1.60083,0.5962 -0.72619,0.29281 -1.48448,0.59611 -2.22414,0.65168 0.25239,0.81034 -1.41983,0.35017 -1.3855,1.01987 -0.62727,0.15908 -1.30517,-0.13536 -1.58125,0.42855 -0.47579,0.14214 -1.38689,-0.0965 -1.28579,0.38528 -0.64403,0.33886 -1.60082,-0.23667 -1.76966,0.44684 -0.99771,-0.21169 -1.67671,0.60116 -2.6615,0.40294 -0.37546,0.68044 -1.57354,0.13745 -1.84856,0.57549 -0.3734,0.35998 -1.13399,-0.21463 -1.33596,0.23774 -0.4792,0.57317 -1.36608,-0.18175 -1.85406,0.45172 -0.78074,-0.26428 -0.99241,0.63709 -1.80268,0.24933 -0.45806,-0.0884 0.0494,0.56501 -0.54503,0.40662 -0.44783,0.2076 -1.06855,-0.35583 -1.38184,0.0152 -0.26091,0.61952 -1.34068,-0.34819 -1.11023,0.46512 -0.47323,0.19407 -1.63271,-0.53648 -1.44789,0.19509 -0.76754,-0.44624 -1.08631,0.19124 -1.08394,0.31028 -0.39173,-0.17247 -1.63071,-0.62427 -1.40324,0.0921 -0.31874,0.1463 -1.37484,-0.17419 -1.20199,0.36332 0.22161,0.8362 -1.26396,0.71512 -1.74824,0.43588 -0.70639,-0.18002 -2.061,-1.57576 -2.33609,-0.24568 0.0533,0.79318 0.32184,1.60153 0.67838,2.32505 0.21064,1.07702 0.54844,2.1279 0.91266,3.16388 9.7e-4,-0.99294 -0.24714,-1.96962 -0.26549,-2.95539 0.27783,-0.59069 0.63409,-2.00924 1.29069,-1.84895 0.72418,0.51645 1.46713,1.16648 2.38442,1.35333 0.89855,0.0324 1.78589,0.18777 2.68842,0.27129 1.13746,0.0337 2.29015,-0.2137 3.33805,-0.62607 0.7456,-0.0186 1.48234,-0.29672 2.24678,-0.10238 0.89895,-0.0771 1.80424,-0.0921 2.70127,-0.28712 0.8568,-0.12759 1.64796,0.24636 2.53672,0.24872 0.92862,0.3415 1.93749,0.39283 2.94962,0.42917 0.89528,0.14854 1.7655,0.26602 2.64622,0.47732 0.69163,0.36005 1.43455,0.58248 2.15442,0.93819 0.76561,0.51281 1.67262,0.84083 2.33791,1.50756 0.85537,0.003 -0.58423,0.68865 -0.89981,0.24324 -0.35625,0.0116 -0.35269,-0.0209 -0.56216,-0.028 -0.0584,0.0728 -0.13324,0.15244 -0.304,0.2664 -0.96791,0.0874 -1.93857,0.27246 -2.91354,0.37308 -0.91845,0.19429 -1.98479,0.16018 -2.74715,0.75592 -0.8057,0.30171 -1.55072,0.66661 -2.31466,1.04243 -0.80637,0.46921 -1.77471,0.75484 -2.2841,1.56669 -0.69247,0.10998 -0.73144,0.88715 -1.40753,1.05158 -0.10184,0.58434 -0.88467,0.35671 -0.96587,0.82663 -0.35561,0.0396 -1.06629,0.13541 -0.63433,0.50658 -0.3221,0.21673 -1.18956,0.11751 -0.98178,0.62973 -0.9384,0.12838 -1.30538,0.59329 -2.10487,0.9906 0.57943,0.46629 -1.37855,0.3292 -0.9934,0.97904 -0.53824,0.30173 -1.33201,0.50426 -1.16223,1.05585 -0.80139,0.23965 -1.71556,0.38605 -2.43825,-0.15483 -0.45715,-0.23796 -1.69002,-1.46108 -1.24358,-0.19935 0.56602,1.92241 1.14446,3.84623 1.66872,5.77727 0.01,-0.53584 -0.0873,-1.14397 -0.0251,-1.71484 0.13515,-0.3129 -0.95133,-1.05244 -0.1731,-0.74311 1.60083,-1.81742 -0.49808,-1.92858 2.03329,-0.51878 0.46043,0.77201 1.47681,0.0512 2.31467,-0.33345 0.67663,-0.3337 0.60648,0.6713 1.38061,0.35235 0.74419,-0.003 1.27791,0.11346 1.99721,-0.36393 0.068,0.7918 0.80628,-0.57169 1.03071,0.2414 0.82707,-0.15738 1.30095,0.40087 2.08223,0.33162 0.49015,0.43463 1.48355,9.3e-4 1.94337,0.59133 0.60797,-0.12904 0.86686,0.42244 1.52498,0.33102 0.63257,0.27825 1.31034,-0.0782 1.91156,0.16215 0.77809,-0.26254 2.28391,0.0751 2.43518,-0.98573 0.11362,-0.91652 0.21811,-1.83066 0.40067,-2.72435 -0.10929,-2.09322 0.6535,-0.15268 0.0631,0.62424 -0.24464,0.79041 -0.26226,1.63604 -0.31256,2.46222 -0.30987,0.76567 -0.52779,1.57528 -0.85334,2.33723 -0.26045,0.88406 -0.98375,1.48151 -1.621,2.11474 -0.74013,0.10732 -0.94205,0.87856 -1.81614,0.70105 -0.34048,0.72889 -1.24148,0.0541 -1.49499,0.73092 -0.54316,0.009 -1.05475,-0.22079 -1.31822,0.19447 -0.35681,-0.0444 -1.08213,-0.40789 -0.92551,0.23287 -0.35041,0.14036 -1.37037,-0.53766 -1.15611,0.15361 -0.54879,-0.50536 -1.11153,-0.38759 -0.93345,-0.0359 -0.36105,-0.26353 -0.94271,-0.63836 -1.0399,-0.27737 -0.30437,-0.0911 -1.50529,-0.56801 -1.15488,-0.0969 -0.42841,0.15719 -1.97308,-0.0827 -1.22646,0.64435 -1.01111,-0.41777 0.10592,0.75163 0.24651,1.13083 0.42987,0.48474 1.53495,0.0293 1.76842,0.30053 -0.31697,0.5492 0.63421,1.22259 1.14633,0.61633 0.43958,-0.45454 0.86003,-0.97094 1.44852,-0.66692 0.71491,-0.2475 1.01633,0.28022 1.79044,-0.0622 0.15711,0.41612 1.16499,-0.19419 1.53414,0.20667 0.53676,-0.17833 1.03423,-0.20833 1.3225,0.0542 0.8077,-0.41452 1.44493,0.13251 2.2847,-0.26762 0.83334,-0.12243 1.58358,-0.23921 2.35444,-0.60656 0.79698,-0.38507 1.53009,-0.9957 1.80085,-1.86663 0.0797,-0.32618 0.23871,-1.45162 0.20308,-0.47549 0.003,0.94058 -0.72775,1.6376 -1.06008,2.47014 -0.43673,0.85278 -1.0783,1.56363 -1.61978,2.33541 -0.75141,0.54058 -1.25534,1.37209 -2.03513,1.86053 -0.21387,0.79337 -1.25917,0.67871 -1.57697,1.35577 -0.52212,-0.0332 -0.8108,0.063 -1.03622,0.45294 -0.86269,-0.0776 -1.08679,0.6156 -1.98374,0.37124 0.007,0.65275 -0.98555,0.0111 -1.14266,0.56024 -0.44434,-0.0846 -0.97794,-0.3452 -1.15488,0.0378 -0.40001,9.4e-4 -1.292,-0.41898 -1.44301,-0.0829 -0.36937,0.46249 -1.56399,-0.5333 -1.43138,0.34992 -0.37944,-0.20992 -1.17262,0.14271 -1.55922,-0.47367 -0.40392,-0.53672 -1.18849,-0.67188 -1.30354,-1.03573 -0.49666,0.23596 0.10332,1.02854 -0.21104,1.15461 0.48262,0.46559 1.1038,1.2914 0.84048,2.00683 -0.25139,-0.0586 -0.10184,-1.00773 -0.33583,-0.31273 -0.26664,0.75757 0.71702,0.22442 0.46307,1.04304 -0.0762,0.46015 0.0526,1.35959 0.082,0.36881 0.14073,-1.1327 0.60929,0.48815 0.24835,0.82724 0.0803,0.2751 0.31845,1.56843 0.47225,1.25031 -0.15525,-1.41592 -0.0881,-3.06289 1.04723,-4.0856 0.3149,-0.3355 0.27699,-0.99216 0.45938,-0.25908 0.51274,0.67897 1.11231,1.21521 1.70542,1.83186 0.57132,0.10495 1.09858,0.0584 1.58492,0.18778 0.85559,-0.43356 1.44873,0.0251 2.35017,-0.17802 0.61508,0.41166 1.51673,0.01 2.13911,0.35297 0.6435,0.003 1.32769,0.42873 2.02961,0.44136 0.20423,0.35536 0.82278,-0.15963 1.07415,0.27616 0.77398,-0.10581 1.5506,0.30391 2.30489,-0.0665 0.31567,0.27944 1.33152,-0.52727 1.02032,0.40783 -0.17885,0.87926 -0.31959,1.81844 -0.73159,2.5951 -0.25866,0.55979 -0.5003,1.04767 -0.87045,1.53988 -0.68381,0.0109 -0.71511,0.59703 -1.45891,0.61083 0.27169,0.7076 -1.50648,-0.18342 -0.8778,0.53219 -0.47666,-0.0362 -1.48413,-0.32473 -1.19648,0.16703 -0.80818,-0.38784 -1.097,0.21713 -1.11085,0.35175 -0.32341,-0.12493 -1.67323,-0.63849 -1.21545,0.078 -0.54668,-0.26373 -1.30845,-0.62214 -1.81124,-0.29078 -0.4353,-0.14606 -0.88552,-0.35814 -0.93712,0.11947 -0.64471,-0.17577 -1.45426,-0.12624 -1.56719,0.29261 -0.85368,-0.0141 -1.85251,-0.23472 -2.33302,-1.02597 -0.11845,-0.31718 -0.81678,-1.68224 -0.82152,-0.66508 -0.046,0.74985 0.75586,1.22607 0.20493,1.93307 0.29071,0.39658 1.12506,1.00617 1.04539,1.68924 -0.13471,0.89373 0.34623,1.73882 0.50037,2.58291 0.0718,0.69286 0.2139,1.7932 0.61048,2.18911 -0.10566,-1.33629 -0.18369,-2.7394 0.39577,-3.98868 0.17328,-0.41314 1.08764,-1.18962 1.27846,-0.93697 0.42616,0.65808 1.03251,1.18588 1.34818,1.89222 0.46711,0.80387 1.656,-0.0156 2.05165,0.80103 0.82697,-0.0654 1.6739,0.23513 2.44925,0.18959 0.40627,0.0598 0.85418,0.1397 1.16346,0.3676 0.80718,0.31303 1.64778,0.43139 2.53611,0.65228 0.5285,0.0213 0.80851,0.52188 1.34757,0.5017 0.17622,0.58774 1.1467,-0.30226 1.36776,0.37309 0.82918,0.0142 1.61885,0.13853 2.37157,0.42733 0.89238,-0.032 1.74107,0.30207 2.63888,0.1073 0.59429,-0.007 1.2687,-0.53106 1.54699,-0.76141 -0.47308,0.91779 -1.22437,1.65003 -1.9189,2.38846 -0.48424,0.35167 -0.93311,0.72993 -1.33107,1.10704 -0.11241,0.52282 -1.05546,0.12954 -0.94691,0.76507 -0.42544,0.0354 -0.80205,-0.0142 -0.93407,0.4255 -0.547,0.17329 -1.132,-0.0821 -1.41487,0.45477 -0.34087,0.012 -0.76571,-0.12268 -0.75055,0.28347 -0.45144,-0.0717 -1.24482,-0.27525 -0.8625,0.22617 -0.45458,-0.12799 -1.12452,-0.23463 -0.85026,0.23225 -0.37997,-0.12055 -1.39552,-0.5362 -1.42404,-0.1463 0.20503,0.42057 -0.8798,-0.084 -1.16529,-0.0635 -0.46211,0.49365 -1.27182,-0.44579 -1.72928,-0.13837 0.48952,0.64541 -0.87936,0.0392 -1.22401,0.0122 -0.65719,-0.24795 0.0874,0.78485 -0.49854,0.25299 -0.56715,-0.18894 -1.64827,-0.66142 -1.84183,0.0555 -1.00388,-0.14722 -1.66391,-0.79736 -2.24005,-1.59473 -0.2398,-0.64288 -0.89752,-0.39772 -0.47713,0.21701 -0.19449,0.48194 0.0229,1.67977 0.18596,1.74654 -0.29126,-0.37739 0.10047,-1.7391 0.24591,-0.68155 0.007,0.64107 0.42861,1.38573 0.78725,1.65814 -0.94533,-0.0353 0.36054,0.83973 0.57928,0.26336 -0.18965,0.6733 -0.37655,1.58973 -0.17127,2.35369 -9.7e-4,0.83279 0.35562,1.5685 0.42818,2.40918 0.32057,1.07712 0.12691,-0.62909 0.26793,-1.01317 0.14302,-0.97232 0.21832,-1.96124 0.6484,-2.8615 0.24187,-0.58459 1.11579,-1.00359 1.57697,-1.20094 0.46505,0.79825 1.21168,1.39939 1.33412,2.38235 0.29981,1.00205 1.58616,0.66509 2.38563,0.82298 0.91977,-0.0568 1.95154,-0.15039 2.80526,0.0976 0.85265,0.0218 1.8353,-0.49372 2.62603,-0.0829 0.90225,-0.0882 1.79763,0.11989 2.70494,-0.0963 0.65019,-0.0358 1.24874,0.0894 1.90178,-0.10789 0.34831,0.45184 1.06799,0.0815 1.5103,0.39746 0.84026,-0.22585 1.70001,-0.0869 2.5728,-0.14569 0.90139,-0.18515 1.81628,0.0824 2.71596,-0.21215 0.82688,-0.14611 1.60586,-0.49871 2.43273,-0.6285 -0.94991,0.63713 -2.19713,0.92258 -3.0585,1.74897 -0.82036,0.45984 -1.32674,1.33296 -2.24862,1.61912 -0.28734,0.62814 -1.15717,0.0665 -1.2864,0.77482 -0.75592,0.0657 -1.11357,0.79114 -1.84979,0.89978 -0.51356,0.76686 -1.469,0.20682 -1.955,0.84857 -0.56841,0.23978 -1.23743,-0.3246 -1.621,0.27919 -0.6305,-0.29973 -0.47522,0.69775 -1.22584,0.58462 -0.69857,-0.31756 -0.31387,0.61743 -1.04051,0.44624 -0.44948,0.15493 -1.12475,-0.58674 -1.10901,0.21642 -0.58539,0.41533 -1.43728,-0.27145 -1.65221,0.38038 -0.46635,0.15387 -1.47548,-0.51189 -1.10595,0.38101 -0.48986,-0.17999 -1.44837,-0.61877 -1.70787,-0.20788 0.31432,0.4949 0.27846,0.50776 -0.15844,0.21946 -0.45624,-0.21434 -1.1374,-0.17032 -1.55249,-0.10851 -0.0528,0.32083 0.21743,0.89651 -0.26241,0.69984 -0.23681,0.62772 -0.44257,1.06001 0.0624,1.66118 -0.64181,-0.70338 -1.68976,-0.74791 -2.3734,-1.37345 -0.10333,-0.29978 -1.14765,-1.72253 -0.66491,-0.69922 0.51978,0.46612 0.65951,1.90328 0.87473,2.04646 -0.0854,-0.3753 -0.38274,-1.52897 0.2043,-0.70349 0.10015,0.40706 0.17428,0.70991 0.30952,1.26007 h 52.10653 V 18.20381 Z m 75.842328,195.10973 c -0.0778,0.003 -0.14298,0.0788 -0.16576,0.28225 -0.0803,0.37431 -0.25055,0.98825 -0.54258,0.42246 -0.17198,0.16167 -0.066,0.67444 -0.0544,0.9766 h 0.98608 c -0.0667,-0.54464 -0.10555,-1.06254 -0.0147,-1.2558 0.36891,0.2068 0.0248,-0.43512 -0.20859,-0.42551 z" />
    <rect
       style="opacity:0.996;fill:none;fill-opacity:0.0843374;stroke:#000000;stroke-width:0.5;stroke-linecap:round;stroke-linejoin:round;stroke-miterlimit:4;stroke-dasharray:none;stroke-opacity:1"
       id="rect27"
       width="203.2"
       height="203.2"
       x="3.3833284"
       y="14.998826" />
  </g>
</svg>
