<?xml version="1.0" encoding="UTF-8" standalone="no"?>
<svg
   xmlns:dc="http://purl.org/dc/elements/1.1/"
   xmlns:cc="http://creativecommons.org/ns#"
   xmlns:rdf="http://www.w3.org/1999/02/22-rdf-syntax-ns#"
   xmlns:svg="http://www.w3.org/2000/svg"
   xmlns="http://www.w3.org/2000/svg"
   xmlns:sodipodi="http://sodipodi.sourceforge.net/DTD/sodipodi-0.dtd"
   xmlns:inkscape="http://www.inkscape.org/namespaces/inkscape"
   width="210mm"
   height="297mm"
   viewBox="0 0 210 297"
   version="1.1"
   id="svg8"
   inkscape:version="1.0.2-2 (e86c870879, 2021-01-15)"
   sodipodi:docname="swordfern.svg">
  <defs
     id="defs2" />
  <sodipodi:namedview
     id="base"
     pagecolor="#ffffff"
     bordercolor="#666666"
     borderopacity="1.0"
     inkscape:pageopacity="0.0"
     inkscape:pageshadow="2"
     inkscape:zoom="0.35"
     inkscape:cx="438.39758"
     inkscape:cy="719.65447"
     inkscape:document-units="mm"
     inkscape:current-layer="layer1"
     inkscape:document-rotation="0"
     showgrid="false"
     inkscape:window-width="1115"
     inkscape:window-height="704"
     inkscape:window-x="0"
     inkscape:window-y="0"
     inkscape:window-maximized="0" />
  <metadata
     id="metadata5">
    <rdf:RDF>
      <cc:Work
         rdf:about="">
        <dc:format>image/svg+xml</dc:format>
        <dc:type
           rdf:resource="http://purl.org/dc/dcmitype/StillImage" />
        <dc:title />
      </cc:Work>
    </rdf:RDF>
  </metadata>
  <g
     inkscape:label="Layer 1"
     inkscape:groupmode="layer"
     id="layer1">
    <path
       style="fill:none;stroke:#000000;stroke-width:0.352778;stroke-opacity:1"
       d="m 174.90905,30.433647 c 0.38567,-1.005029 0.20252,-1.39657 -0.32625,-0.69747 -0.28487,0.376633 -0.51795,0.813195 -0.51795,0.970139 0,0.504959 0.62302,0.303731 0.8442,-0.272669 z"
       id="path156" />
    <path
       style="fill:none;stroke:#000000;stroke-width:0.352778;stroke-opacity:1"
       d="m 168.42914,34.32009 c 0.43239,-1.137281 0.45236,-3.789782 0.0265,-3.526613 -0.17463,0.107921 -0.3175,0.733065 -0.3175,1.389203 0,0.656142 -0.17463,1.519273 -0.38806,1.918071 -0.48173,0.900123 -0.48702,1.12425 -0.0265,1.12425 0.19883,0 0.51633,-0.407208 0.70556,-0.904911 z"
       id="path154" />
    <path
       style="fill:none;stroke:#000000;stroke-width:0.352778;stroke-opacity:1"
       d="m 161.08465,40.524901 c 0.89514,-1.761984 0.33247,-2.075286 -0.64296,-0.358006 -0.96467,1.698329 -1.00587,1.871585 -0.39976,1.681078 0.24254,-0.07623 0.71176,-0.671611 1.04272,-1.323072 z"
       id="path152" />
    <path
       style="fill:none;stroke:#000000;stroke-width:0.352778;stroke-opacity:1"
       d="m 162.57352,44.981151 c 0.95701,0.02473 0.98425,-0.0085 0.37355,-0.455026 -0.78335,-0.572795 -2.07099,-0.622523 -3.01652,-0.116491 -1.12472,0.60193 -0.82351,1.136276 0.46416,0.823422 0.63059,-0.153208 1.61106,-0.266562 2.17881,-0.251905 z"
       id="path150" />
    <path
       style="fill:none;stroke:#000000;stroke-width:0.352778;stroke-opacity:1"
       d="m 153.83966,47.098467 c 0.28691,-0.551607 0.4541,-1.070479 0.37153,-1.15305 -0.19956,-0.199567 -2.72412,3.053372 -2.72412,3.510082 0,0.543684 1.76206,-1.221708 2.35259,-2.357032 z"
       id="path148" />
    <path
       style="fill:none;stroke:#000000;stroke-width:0.352778;stroke-opacity:1"
       d="m 112.61786,51.226285 c 0.36404,-0.650508 0.14744,-1.890173 -0.33026,-1.890173 -0.1714,0 -0.31164,0.304518 -0.31164,0.676702 0,0.372188 -0.0964,0.927813 -0.21413,1.234722 -0.28341,0.738558 0.44088,0.720577 0.85603,-0.02124 z"
       id="path146" />
    <path
       style="fill:none;stroke:#000000;stroke-width:0.352778;stroke-opacity:1"
       d="m 151.99127,51.981945 c 0.95516,-0.679097 2.01685,-1.234722 2.3593,-1.234722 0.83368,0 1.15187,-0.578337 0.46352,-0.842483 -0.70523,-0.270622 -2.07576,0.45109 -3.85618,2.030646 -1.81709,1.612088 -1.20724,1.639566 1.03336,0.04656 z"
       id="path144" />
    <path
       style="fill:none;stroke:#000000;stroke-width:0.352778;stroke-opacity:1"
       d="m 146.68352,54.273985 c 1.14799,-1.270681 1.47544,-1.762873 1.17284,-1.762873 -0.0566,0 -0.80404,0.714375 -1.66095,1.5875 -0.85691,0.873125 -1.38469,1.5875 -1.17284,1.5875 0.21185,0 0.95928,-0.635458 1.66095,-1.412127 z"
       id="path142" />
    <path
       style="fill:none;stroke:#000000;stroke-width:0.352778;stroke-opacity:1"
       d="m 144.49587,58.877643 c 1.01341,-0.767016 2.2347,-1.441704 2.71398,-1.499305 1.19146,-0.143189 1.42056,-0.98667 0.26799,-0.98667 -0.5547,0 -1.70186,0.673117 -3.02801,1.776751 -1.97401,1.642787 -2.40477,2.103804 -1.96575,2.103804 0.0931,0 0.99839,-0.62756 2.01179,-1.39458 z"
       id="path140" />
    <path
       style="fill:none;stroke:#000000;stroke-width:0.352778;stroke-opacity:1"
       d="m 140.81555,59.420187 c 0.63059,-0.577641 1.14652,-1.199592 1.14652,-1.382109 0,-0.369397 -3.62307,2.893755 -3.8439,3.462048 -0.1494,0.384461 0.83957,-0.378132 2.69738,-2.079939 z"
       id="path138" />
    <path
       style="fill:none;stroke:#000000;stroke-width:0.352778;stroke-opacity:1"
       d="m 115.76696,64.737632 c 0.28084,-0.61637 0.21458,-0.965532 -0.305,-1.607175 -0.36507,-0.450853 -0.66377,-1.110276 -0.66377,-1.465386 0,-0.355109 -0.13548,-0.729382 -0.30106,-0.831716 -0.16558,-0.102337 -0.29808,0.682043 -0.29444,1.743068 0.004,1.061025 0.12425,1.929134 0.26803,1.929134 0.14378,0 0.17777,0.31986 0.0755,0.710798 -0.25466,0.973829 0.73587,0.585371 1.22071,-0.478723 z"
       id="path136" />
    <path
       style="fill:none;stroke:#000000;stroke-width:0.352778;stroke-opacity:1"
       d="m 136.93741,64.98677 c 1.26273,-0.846751 2.51297,-1.539547 2.77832,-1.539547 0.26535,0 0.48246,-0.15875 0.48246,-0.352777 0,-0.739246 -1.22407,-0.29645 -3.32514,1.202841 -1.199,0.855592 -2.40979,1.838569 -2.69063,2.184386 -0.60862,0.749434 -0.521,0.701891 2.75499,-1.494903 z"
       id="path134" />
    <path
       style="fill:none;stroke:#000000;stroke-width:0.352778;stroke-opacity:1"
       d="m 126.00623,67.967189 c -0.21804,-0.654128 -0.97749,-0.762621 -0.97749,-0.13964 0,0.307209 0.25136,0.558563 0.55857,0.558563 0.30721,0 0.49572,-0.188517 0.41892,-0.418923 z"
       id="path132" />
    <path
       style="fill:none;stroke:#000000;stroke-width:0.352778;stroke-opacity:1"
       d="m 130.4881,70.352891 c 1.16906,-0.767895 1.90269,-1.453039 1.64709,-1.538242 -0.55088,-0.183624 -4.1412,2.217667 -4.42619,2.960346 -0.13517,0.352262 -0.059,0.430339 0.23569,0.241522 0.23949,-0.153458 1.38403,-0.902092 2.54341,-1.663626 z"
       id="path130" />
    <path
       style="fill:none;stroke:#000000;stroke-width:0.352778;stroke-opacity:1"
       d="m 109.50652,81.846345 c 0,-0.163957 -0.34442,-0.600519 -0.76538,-0.970139 -0.72304,-0.634873 -0.7523,-0.636301 -0.52916,-0.02582 0.12992,0.355417 0.23621,0.791979 0.23621,0.970139 0,0.178156 0.23812,0.323924 0.52916,0.323924 0.29105,0 0.52917,-0.134147 0.52917,-0.298101 z"
       id="path128" />
    <path
       style="fill:none;stroke:#000000;stroke-width:0.352778;stroke-opacity:1"
       d="m 96.797259,81.051727 c -0.2894,-1.074769 -0.4893,-1.358871 -0.70759,-1.00567 -0.17191,0.278158 -0.1689,0.575909 0.007,0.684576 0.17114,0.105769 0.38783,0.665585 0.48154,1.244032 0.2281,1.408116 0.25694,1.471069 0.45329,0.989753 0.0931,-0.228113 -0.0123,-1.088824 -0.23416,-1.912691 z"
       id="path126" />
    <path
       style="fill:none;stroke:#000000;stroke-width:0.352778;stroke-opacity:1"
       d="m 122.91208,86.730557 c 0,-0.194028 -0.22515,-0.352778 -0.50032,-0.352778 -0.27517,0 -0.79111,-0.09034 -1.14653,-0.200755 -0.35542,-0.110416 -0.24934,0.04271 0.23573,0.340275 1.04155,0.638941 1.41112,0.694793 1.41112,0.213258 z"
       id="path124" />
    <path
       style="fill:none;stroke:#000000;stroke-width:0.352778;stroke-opacity:1"
       d="m 114.84366,83.884 c 0.36304,-0.194296 0.66008,-0.510092 0.66008,-0.701766 0,-0.656259 -1.63655,0.723783 -3.68358,3.106226 -2.04697,2.382375 -2.04697,2.382375 0.15822,0.16559 1.21285,-1.219228 2.50223,-2.375754 2.86528,-2.57005 z"
       id="path122" />
    <path
       style="fill:none;stroke:#000000;stroke-width:0.352778;stroke-opacity:1"
       d="m 106.61588,89.36677 c -0.11406,-0.114067 -0.56604,0.317687 -1.00439,0.959447 -0.797,1.16684 -0.797,1.16684 0.20739,0.207391 0.55242,-0.527696 0.91106,-1.052774 0.797,-1.166838 z"
       id="path120" />
    <path
       style="fill:none;stroke:#000000;stroke-width:0.352778;stroke-opacity:1"
       d="m 101.51828,91.009537 c 0.57801,-0.227338 0.50559,-0.371363 -0.61736,-1.227882 -0.6997,-0.533686 -1.272181,-0.803508 -1.272181,-0.599606 0,0.203902 0.15875,0.37073 0.35278,0.37073 0.194031,0 0.352781,0.396875 0.352781,0.881945 0,0.928825 0.12705,0.990508 1.18398,0.574813 z"
       id="path118" />
    <path
       style="fill:none;stroke:#000000;stroke-width:0.352778;stroke-opacity:1"
       d="m 108.20419,90.647114 c 0.40362,-0.79991 -3.93574,3.869545 -4.39237,4.726495 -0.20677,0.38806 0.63276,-0.38949 1.86562,-1.727884 1.23287,-1.338393 2.36991,-2.687768 2.52675,-2.998611 z"
       id="path116" />
    <path
       style="fill:none;stroke:#000000;stroke-width:0.352778;stroke-opacity:1"
       d="m 138.03652,95.671749 c -0.26629,-0.3211 -1.00011,-0.79948 -1.6307,-1.06307 -0.63059,-0.26359 -1.14652,-0.62059 -1.14652,-0.793331 0,-0.780952 -6.40348,-4.343739 -7.9375,-4.416295 -0.19403,-0.0092 -1.12466,-0.533968 -2.06806,-1.166202 -1.84527,-1.236627 -2.18061,-1.342732 -2.51805,-0.796738 -0.11992,0.194028 0.004,0.352778 0.27527,0.352778 0.27132,0 0.99891,0.555625 1.61687,1.234722 0.63645,0.69941 1.464,1.236377 1.90877,1.238539 0.97323,0.0047 4.2067,0.966908 4.47113,1.330459 0.10704,0.147172 0.64014,0.463466 1.18465,0.702878 0.54452,0.239409 0.89234,0.593365 0.77293,0.786568 -0.1194,0.193202 0.0798,0.351278 0.44276,0.351278 0.36292,0 0.9676,0.285828 1.34373,0.635174 0.37614,0.34934 0.9617,0.74124 1.30125,0.87087 0.33955,0.12963 0.61736,0.47881 0.61736,0.77594 0,0.34779 0.32955,0.54024 0.92514,0.54024 0.82069,0 0.87048,-0.0659 0.44097,-0.58381 z"
       id="path114" />
    <path
       style="fill:none;stroke:#000000;stroke-width:0.352778;stroke-opacity:1"
       d="m 95.395409,100.35308 c 0,-0.0747 -0.38009,-0.384871 -0.84466,-0.689261 -0.79669,-0.52201 -0.83441,-0.5143 -0.66441,0.13582 0.14479,0.553661 1.50907,1.054001 1.50907,0.553441 z"
       id="path112" />
    <path
       style="fill:none;stroke:#000000;stroke-width:0.352778;stroke-opacity:1"
       d="m 117.26763,107.72526 c 0,-0.28786 -2.95691,-2.0809 -3.61102,-2.18969 -0.33683,-0.056 -1.40839,-0.6737 -2.38125,-1.37264 -0.97286,-0.69893 -1.76884,-1.17243 -1.76884,-1.05224 0,0.1202 -0.46837,-0.0237 -1.04081,-0.31968 -1.30657,-0.67565 -1.62518,-0.68437 -0.96728,-0.0265 0.28146,0.28147 0.93199,0.61723 1.44561,0.74614 0.51363,0.12891 1.0821,0.51135 1.26326,0.84986 0.18117,0.33851 1.16917,0.96668 2.19556,1.39593 1.02639,0.42924 2.50116,1.07861 3.27727,1.44302 1.62936,0.76505 1.5875,0.75119 1.5875,0.52578 z"
       id="path110" />
    <path
       style="fill:none;stroke:#000000;stroke-width:0.352778;stroke-opacity:1"
       d="m 88.83263,110.0545 c 0.59078,-0.23181 0.52523,-0.34749 -0.55963,-0.98757 -0.67583,-0.39875 -1.63947,-0.99409 -2.14141,-1.32298 -0.88464,-0.57964 -0.90679,-0.57564 -0.72215,0.13043 0.10477,0.40062 0.38461,0.7284 0.62188,0.7284 0.23727,0 0.61222,0.39688 0.83324,0.88195 0.41389,0.90839 0.81165,1.02354 1.96807,0.56977 z"
       id="path108" />
    <path
       style="fill:none;stroke:#000000;stroke-width:0.352778;stroke-opacity:1"
       d="m 81.57504,119.93747 c 0.34701,-0.22 0.16795,-0.48559 -0.69629,-1.03279 -0.63988,-0.40515 -1.19326,-0.706 -1.22973,-0.66857 -0.0365,0.0374 0.0176,0.50462 0.12006,1.0382 0.18891,0.98341 0.89304,1.24197 1.80596,0.66316 z"
       id="path106" />
    <path
       style="fill:none;stroke:#000000;stroke-width:0.352778;stroke-opacity:1"
       d="m 105.42654,124.25393 c -3.47725,-1.52636 -4.38272,-1.89282 -4.67691,-1.89282 -0.18092,0 -0.52512,-0.23637 -0.764881,-0.52528 -0.23978,-0.2889 -0.53953,-0.46126 -0.66613,-0.38302 -0.1266,0.0782 -1.09571,-0.0823 -2.15358,-0.35666 -2.22924,-0.57826 -4.944629,-0.65852 -4.944629,-0.14615 0,0.19403 0.3175,0.37262 0.70556,0.39688 0.793479,0.0496 1.010229,0.10026 1.763879,0.41236 0.29105,0.12053 1.64042,0.55226 2.99862,0.95941 1.35819,0.40715 2.713951,0.87069 3.012801,1.03009 0.29884,0.15939 1.52916,0.40422 2.73402,0.54406 1.20487,0.13984 2.19067,0.40679 2.19067,0.59322 0,0.18642 0.18808,0.22272 0.41794,0.0806 0.27139,-0.16772 0.0549,-0.41765 -0.61736,-0.71274 z"
       id="path104" />
    <path
       style="fill:none;stroke:#000000;stroke-width:0.352778;stroke-opacity:1"
       d="m 79.7113,135.50209 c 0.9511,-2.25964 1.27751,-2.84517 3.01257,-5.40407 0.41028,-0.6051 0.63697,-1.3354 0.51399,-1.65588 -0.17503,-0.45615 -0.36272,-0.33869 -0.91811,0.57458 -0.38395,0.63135 -0.61266,1.28616 -0.50824,1.45512 0.10442,0.16895 0.045,0.39674 -0.13214,0.50619 -0.67023,0.41423 -3.72603,6.90531 -3.2508,6.90531 0.15424,0 0.73147,-1.07157 1.28273,-2.38125 z"
       id="path102" />
    <path
       style="fill:none;stroke:#000000;stroke-width:0.352778;stroke-opacity:1"
       d="m 75.08151,140.45463 c 0.64629,-1.89673 0.16871,-1.65235 -0.66271,0.33912 -0.30377,0.72761 -0.40634,1.32292 -0.22795,1.32292 0.17839,0 0.57919,-0.74792 0.89066,-1.66204 z"
       id="path100" />
    <path
       style="fill:none;stroke:#000000;stroke-width:0.352778;stroke-opacity:1"
       d="m 70.83251,143.005 c 0.62557,-0.47373 0.6068,-0.51255 -0.35277,-0.72972 -0.55742,-0.12615 -1.62483,-0.38263 -2.37202,-0.56995 -1.54641,-0.38769 -2.17506,-0.12737 -0.88076,0.36472 0.47144,0.17924 1.06852,0.58056 1.32684,0.89181 0.57449,0.69222 1.40093,0.70787 2.27871,0.0431 z"
       id="path98" />
    <path
       style="fill:none;stroke:#000000;stroke-width:0.352778;stroke-opacity:1"
       d="m 76.34541,144.96687 c 0,-0.15574 0.51318,-1.37669 1.14039,-2.71321 0.62722,-1.33653 1.19607,-2.54911 1.26412,-2.69463 0.068,-0.14552 -0.11038,-0.26458 -0.39653,-0.26458 -0.54635,0 -1.6552,2.35415 -1.6552,3.5141 0,0.37267 -0.1398,0.76399 -0.31066,0.86959 -0.17086,0.1056 -0.38605,0.58641 -0.4782,1.06847 -0.0922,0.48207 -0.0317,0.79255 0.13427,0.68995 0.16599,-0.10259 0.30181,-0.31395 0.30181,-0.46969 z"
       id="path96" />
    <path
       style="fill:none;stroke:#000000;stroke-width:0.352778;stroke-opacity:1"
       d="m 106.50435,147.40258 c -0.12187,-0.19719 -0.36433,-0.27031 -0.5388,-0.16248 -0.17447,0.10783 -1.01658,-0.12254 -1.87135,-0.51193 -1.63342,-0.74411 -3.87943,-1.32502 -6.297781,-1.62887 -0.79425,-0.0998 -1.58448,-0.26821 -1.75607,-0.37426 -0.17159,-0.10605 -0.74408,-0.25552 -1.27221,-0.33216 -0.52813,-0.0766 -1.833349,-0.38879 -2.900509,-0.69365 -1.06715,-0.30487 -2.4959,-0.6251 -3.175,-0.71162 -0.67909,-0.0865 -1.75066,-0.2457 -2.38125,-0.35373 -1.41059,-0.24164 -3.61597,0.13923 -3.61597,0.62448 0,0.21269 0.4486,0.2679 1.10697,0.13622 0.77141,-0.15428 1.22591,-0.063 1.49931,0.30113 0.25268,0.33654 1.28584,0.59193 2.90255,0.7175 1.38063,0.10722 3.04645,0.34875 3.70184,0.53671 0.65539,0.18796 1.787979,0.34175 2.516859,0.34175 0.72889,0 1.32525,0.11906 1.32525,0.26458 0,0.14552 0.35719,0.28303 0.79375,0.30556 3.17838,0.16408 4.096611,0.28131 3.958151,0.50534 -0.0872,0.14113 0.27635,0.34285 0.80795,0.44825 0.53159,0.10541 1.52216,0.34506 2.20126,0.53257 1.69621,0.46835 3.26847,0.49701 2.99505,0.0546 z"
       id="path94" />
    <path
       style="fill:none;stroke:#000000;stroke-width:0.352778;stroke-opacity:1"
       d="m 75.58618,146.35 c 0,-0.29104 -0.21397,0.0265 -0.47549,0.70556 -0.26152,0.6791 -0.47549,1.47285 -0.47549,1.76389 0,0.29104 0.21397,-0.0265 0.47549,-0.70556 0.26152,-0.67909 0.47549,-1.47284 0.47549,-1.76389 z"
       id="path92" />
    <path
       style="fill:none;stroke:#000000;stroke-width:0.352778;stroke-opacity:1"
       d="m 87.10308,154.05437 c 0.16636,-0.16636 -3.69247,-0.67575 -5.28079,-0.6971 -0.84283,-0.0113 -0.47719,0.71471 0.41123,0.81659 1.59831,0.18328 4.64147,0.1086 4.86956,-0.11949 z"
       id="path90" />
    <path
       style="fill:none;stroke:#000000;stroke-width:0.352778;stroke-opacity:1"
       d="m 73.99717,152.7882 c 0.30048,-1.01865 0.47158,-1.85209 0.38022,-1.85209 -0.22619,0 -0.7088,1.32642 -1.02685,2.82223 -0.37762,1.77588 0.007,1.19931 0.64663,-0.97014 z"
       id="path88" />
    <path
       style="fill:none;stroke:#000000;stroke-width:0.352778;stroke-opacity:1"
       d="m 67.68307,154.7791 c 1.75329,-0.48678 1.19158,-0.84141 -1.85662,-1.17215 -1.22577,-0.133 -2.45609,-0.32908 -2.73402,-0.43573 -0.27795,-0.10666 -0.50535,-0.0142 -0.50535,0.20542 0,0.21963 0.47269,0.49387 1.05042,0.60942 0.57773,0.11555 1.23217,0.42908 1.45431,0.69673 0.48614,0.58577 0.78789,0.59698 2.59126,0.0963 z"
       id="path86" />
    <path
       style="fill:none;stroke:#000000;stroke-width:0.352778;stroke-opacity:1"
       d="m 71.53596,162.60718 c -0.22779,-0.25868 -0.39444,0.11615 -0.6143,1.38171 -0.21451,1.23473 -0.21451,1.23473 0.26462,0 0.26351,-0.67909 0.42087,-1.30087 0.34968,-1.38171 z"
       id="path84" />
    <path
       style="fill:none;stroke:#000000;stroke-width:0.352778;stroke-opacity:1"
       d="m 68.40308,163.8125 c 0.22148,-1.05833 0.22148,-1.05833 -0.31532,-0.17638 -0.59682,0.98056 -0.76566,2.11342 -0.23398,1.56986 0.1803,-0.18433 0.42748,-0.81139 0.5493,-1.39348 z"
       id="path82" />
    <path
       style="fill:none;stroke:#000000;stroke-width:0.352778;stroke-opacity:1"
       d="m 66.82041,166.10556 c 0,-0.19599 -0.94074,-0.35278 -2.11667,-0.35278 -1.17592,0 -2.11666,0.15679 -2.11666,0.35278 0,0.19599 0.94074,0.35278 2.11666,0.35278 1.17593,0 2.11667,-0.15679 2.11667,-0.35278 z"
       id="path80" />
    <path
       style="fill:none;stroke:#000000;stroke-width:0.352778;stroke-opacity:1"
       d="m 87.45722,175.30586 c 0.60188,-0.23491 0.53745,-0.29967 -0.44097,-0.44328 -1.09618,-0.16088 -1.41676,0.0267 -0.91065,0.53278 0.28036,0.28037 0.42918,0.27051 1.35162,-0.0895 z"
       id="path78" />
    <path
       style="fill:none;stroke:#000000;stroke-width:0.352778;stroke-opacity:1"
       d="m 95.862989,175.28206 c 0.16016,-0.14805 -0.18496,-0.33907 -0.76692,-0.42448 -0.8557,-0.12559 -1.0489,-0.0328 -1.00988,0.48516 0.0356,0.47271 0.2365,0.5839 0.76693,0.42449 0.39527,-0.1188 0.84971,-0.33712 1.00987,-0.48517 z"
       id="path76" />
    <path
       style="fill:none;stroke:#000000;stroke-width:0.352778;stroke-opacity:1"
       d="m 68.23152,175.65939 c 0,-0.17816 0.0923,-0.61472 0.20519,-0.97014 0.18776,-0.59133 0.1578,-0.58805 -0.35278,0.0386 -0.63896,0.78419 -0.71599,1.25549 -0.20519,1.25549 0.19403,0 0.35278,-0.14577 0.35278,-0.32393 z"
       id="path74" />
    <path
       style="fill:none;stroke:#000000;stroke-width:0.352778;stroke-opacity:1"
       d="m 76.69819,176.1601 c 1.06715,-0.12232 2.89278,-0.2848 4.05694,-0.36107 3.27619,-0.21465 4.36899,-0.36294 4.63505,-0.629 0.21594,-0.21594 -3.40694,-0.44412 -4.81144,-0.30304 -0.29104,0.0292 -1.40229,0.11962 -2.46944,0.20085 -1.87512,0.14274 -3.76864,0.49816 -4.32728,0.81224 -0.41743,0.23469 0.0612,0.79571 0.54622,0.6402 0.23632,-0.0758 1.3028,-0.23787 2.36995,-0.36018 z"
       id="path72" />
    <path
       style="fill:none;stroke:#000000;stroke-width:0.352778;stroke-opacity:1"
       d="m 65.90697,173.86665 c 0.17461,-0.66342 0.058,-0.57601 -0.47076,0.35278 -0.38659,0.6791 -0.69659,1.55222 -0.6889,1.94028 0.0106,0.53534 0.12419,0.45023 0.47077,-0.35278 0.25122,-0.58208 0.56123,-1.45521 0.68889,-1.94028 z"
       id="path70" />
    <path
       style="fill:none;stroke:#000000;stroke-width:0.352778;stroke-opacity:1"
       d="m 66.41804,181.62776 c 0,-0.80391 -0.0268,-0.81952 -0.30318,-0.17639 -0.16676,0.38806 -0.30319,1.10243 -0.30319,1.5875 0,0.80392 0.0268,0.81952 0.30319,0.17639 0.16675,-0.38805 0.30318,-1.10243 0.30318,-1.5875 z"
       id="path68" />
    <path
       style="fill:none;stroke:#000000;stroke-width:0.352778;stroke-opacity:1"
       d="m 66.27105,185.59651 c 0.17649,-0.57381 0.10048,-0.79375 -0.2743,-0.79375 -0.60302,0 -1.22718,1.62622 -1.00975,2.63087 0.13727,0.63423 0.18579,0.61984 0.59469,-0.17639 0.24488,-0.47684 0.55509,-1.22417 0.68936,-1.66073 z"
       id="path66" />
    <path
       style="fill:none;stroke:#000000;stroke-width:0.352778;stroke-opacity:1"
       d="m 63.00678,185.12841 c 0.88965,-3.82106 0.70778,-4.10848 -0.42928,-0.67843 -1.16301,3.50834 -1.18509,3.63202 -0.61458,3.44186 0.23879,-0.0796 0.70853,-1.32314 1.04386,-2.76343 z"
       id="path64" />
    <path
       style="fill:none;stroke:#000000;stroke-width:0.352778;stroke-opacity:1"
       d="m 61.69299,189.47707 c -0.28337,-1.26583 -0.99301,-0.96881 -0.73751,0.30868 0.12127,0.60634 0.23674,1.51915 0.2566,2.02847 0.0314,0.80542 0.0767,0.76521 0.34736,-0.30868 0.17118,-0.6791 0.23128,-1.59191 0.13355,-2.02847 z"
       id="path62" />
    <path
       style="fill:none;stroke:#000000;stroke-width:0.352778;stroke-opacity:1"
       d="m 64.17419,193.62221 c 0.27668,-2.44566 -0.34938,-1.67112 -0.71287,0.88194 -0.17552,1.2328 -0.13905,1.65767 0.12111,1.41111 0.20474,-0.19403 0.47103,-1.2259 0.59176,-2.29305 z"
       id="path60" />
    <path
       style="fill:none;stroke:#000000;stroke-width:0.352778;stroke-opacity:1"
       d="m 63.96414,197.85554 c -0.0226,-0.85903 -0.0354,-0.85445 -0.48965,0.17639 -0.25652,0.58208 -0.38253,1.19434 -0.28003,1.36058 0.28716,0.46571 0.7957,-0.54978 0.76968,-1.53697 z"
       id="path58" />
    <path
       style="fill:none;stroke:#000000;stroke-width:0.352778;stroke-opacity:1"
       d="m 60.59989,199.35485 c 0.54188,-2.83344 0.63373,-4.04603 0.2904,-3.83384 -0.34366,0.2124 -1.12543,3.1939 -1.12543,4.29217 0,0.90029 0.64265,0.54755 0.83503,-0.45833 z"
       id="path56" />
    <path
       style="fill:none;stroke:#000000;stroke-width:0.352778;stroke-opacity:1"
       d="m 60.47041,202.50908 c 0,-0.35097 -0.23396,-0.94629 -0.51992,-1.32292 -0.49325,-0.64966 -0.51717,-0.63049 -0.46623,0.37355 0.0295,0.58208 0.11411,1.17739 0.18796,1.32291 0.25904,0.51043 0.79819,0.25811 0.79819,-0.37354 z"
       id="path54" />
    <path
       style="fill:none;stroke:#000000;stroke-width:0.352778;stroke-opacity:1"
       d="m 63.09691,205.9161 c -0.2671,-1.18139 -0.2671,-1.18139 -0.56316,-0.12306 -0.35905,1.2835 -0.10202,2.23674 0.45336,1.68136 0.23169,-0.2317 0.274,-0.83205 0.1098,-1.5583 z"
       id="path52" />
    <path
       style="fill:none;stroke:#000000;stroke-width:0.352778;stroke-opacity:1"
       d="m 59.8912,210.64373 c 0.12027,-0.7276 0.1996,-2.27541 0.1763,-3.43958 -0.0424,-2.11667 -0.0424,-2.11667 -0.3117,-0.17639 -0.14812,1.06716 -0.38572,2.61497 -0.528,3.43959 -0.16119,0.93428 -0.12613,1.4993 0.093,1.4993 0.19344,0 0.45011,-0.59531 0.57037,-1.32292 z"
       id="path50" />
    <path
       style="fill:none;stroke:#000000;stroke-width:0.352778;stroke-opacity:1"
       d="m 80.72628,217.74974 c 0.77931,-0.29905 0.69748,-0.8442 -0.12672,-0.8442 -0.73632,0 -1.20218,0.46494 -0.83437,0.83274 0.27578,0.27578 0.27238,0.27574 0.96109,0.0115 z"
       id="path48" />
    <path
       style="fill:none;stroke:#000000;stroke-width:0.352778;stroke-opacity:1"
       d="m 62.93986,215.89896 c 0,-1.32974 0.0966,-3.43317 0.21457,-4.67431 0.1966,-2.06755 0.16995,-2.19666 -0.31797,-1.54111 -0.35453,0.47632 -0.61832,2.03882 -0.78913,4.6743 -0.22864,3.52777 -0.19402,3.95881 0.31797,3.95881 0.475,0 0.57456,-0.41894 0.57456,-2.41769 z"
       id="path46" />
    <path
       style="fill:none;stroke:#000000;stroke-width:0.352778;stroke-opacity:1"
       d="m 59.70814,218.03537 c 0.0658,-2.27064 0.005,-4.01442 -0.13579,-3.87505 -0.27085,0.26864 -0.36704,1.14202 -0.64773,5.88118 -0.13545,2.28681 -0.0799,2.86441 0.24428,2.54094 0.26104,-0.26045 0.46479,-1.97847 0.53924,-4.54707 z"
       id="path44" />
    <path
       style="fill:none;stroke:#000000;stroke-width:0.352778;stroke-opacity:1"
       d="m 59.41208,228.35 c 0,-3.16112 -0.13388,-5.09446 -0.35278,-5.09446 -0.19403,0 -0.37229,0.19844 -0.39614,0.44097 -0.14588,1.48351 -0.20375,9.66034 -0.07,9.88353 0.55373,0.92369 0.81887,-0.7697 0.81887,-5.23004 z"
       id="path42" />
    <path
       style="fill:none;stroke:#000000;stroke-width:0.352778;stroke-opacity:1"
       d="m 79.36155,236.30832 c 0.47543,0 0.86442,-0.14877 0.86442,-0.3306 0,-0.2855 -2.40978,-0.12159 -2.77761,0.18893 -0.0725,0.0612 -0.0221,0.3959 0.11192,0.74381 0.23105,0.59977 0.26166,0.60056 0.59027,0.0152 0.19062,-0.33955 0.73557,-0.61736 1.211,-0.61736 z"
       id="path40" />
    <path
       style="fill:none;stroke:#000000;stroke-width:0.352778;stroke-opacity:1"
       d="m 62.73827,238.13101 c -0.0139,-0.4204 -0.0536,-2.46298 -0.0882,-4.53908 -0.0745,-4.46527 -0.75896,-4.67687 -0.82945,-0.25643 -0.0762,4.77905 0.0195,5.86763 0.50187,5.70685 0.24254,-0.0808 0.42964,-0.49095 0.41578,-0.91134 z"
       id="path38" />
    <path
       style="fill:none;stroke:#000000;stroke-width:0.352778;stroke-opacity:1"
       d="m 59.76486,242.42313 c 0,-2.17792 -0.19618,-2.36048 -0.52583,-0.48934 -0.11572,0.65688 -0.29225,1.32674 -0.39228,1.48859 -0.22745,0.36803 0.14294,0.99983 0.58615,0.99983 0.18258,0 0.33196,-0.89959 0.33196,-1.99908 z"
       id="path36" />
    <path
       style="fill:none;stroke:#000000;stroke-width:0.352778;stroke-opacity:1"
       d="m 62.90469,242.9229 c -0.0254,-1.33893 -0.10284,-1.60899 -0.27941,-0.97472 -0.23331,0.83811 -0.10793,2.82681 0.17823,2.82681 0.075,0 0.12052,-0.83344 0.10118,-1.85209 z"
       id="path34" />
    <path
       style="fill:none;stroke:#000000;stroke-width:0.352778;stroke-opacity:1"
       d="m 63.46805,248.56735 c 0.23705,-0.68198 -0.30969,-2.78202 -0.69339,-2.66332 -0.32313,0.1 -0.35698,0.42884 -0.23784,2.31054 0.0537,0.84841 0.6769,1.08449 0.93123,0.35278 z"
       id="path32" />
    <path
       style="fill:none;stroke:#000000;stroke-width:0.352778;stroke-opacity:1"
       d="m 60.9377,257.33262 c 0.27407,-0.71419 -0.10267,-1.89427 -0.67485,-2.11384 -0.66919,-0.25679 -1.06205,1.40018 -0.49419,2.0844 0.54547,0.65725 0.92447,0.6668 1.16904,0.0295 z"
       id="path30" />
    <path
       style="fill:none;stroke:#000000;stroke-width:0.352778;stroke-opacity:1"
       d="m 65.19984,261.95804 c -0.086,-0.81644 -0.30274,-2.27819 -0.4816,-3.24833 -0.17887,-0.97014 -0.34383,-2.87514 -0.36657,-4.23334 -0.0228,-1.35819 -0.15762,-3.10444 -0.2997,-3.88055 -0.25834,-1.41111 -0.25834,-1.41111 -0.69175,-0.19324 -0.55837,1.56902 -0.17783,8.32287 0.50755,9.00826 0.30636,0.30636 0.44465,1.2396 0.40116,2.70723 -0.0758,2.55837 0.40252,3.88492 0.82765,2.29528 0.14281,-0.53398 0.18928,-1.63887 0.10326,-2.45531 z"
       id="path28" />
    <path
       style="fill:none;stroke:#000000;stroke-width:0.352778;stroke-opacity:1"
       d="m 79.72865,269.1683 c 1.14665,-0.55368 2.74067,-1.18941 3.54227,-1.41273 0.8016,-0.22333 1.65448,-0.64345 1.89528,-0.9336 0.24081,-0.29014 0.59232,-0.52754 0.78114,-0.52754 0.51421,0 2.39251,-1.40906 2.39251,-1.79481 0,-0.18461 -0.43656,-0.23807 -0.97013,-0.1188 -0.53358,0.11926 -1.40671,0.29914 -1.94028,0.39971 -0.53358,0.10058 -0.97014,0.30639 -0.97014,0.45736 0,0.15097 -0.43656,0.39783 -0.97014,0.54856 -0.53358,0.15074 -1.04951,0.298 -1.14653,0.32726 -0.097,0.0292 -1.10895,0.47876 -2.24875,0.9989 -1.13981,0.52014 -2.18676,0.94571 -2.32658,0.94571 -0.49533,0 -1.48752,1.37229 -1.25924,1.74166 0.3571,0.5778 0.96117,0.45932 3.22059,-0.63168 z"
       id="path26" />
    <path
       style="fill:none;stroke:#000000;stroke-width:0.352778;stroke-opacity:1"
       d="m 65.90472,268.30386 c -0.22875,-1.12613 -0.50944,-2.14104 -0.62375,-2.25535 -0.37964,-0.37964 -0.62086,0.84215 -0.51013,2.5838 0.0941,1.48054 0.20456,1.70248 0.79588,1.59951 0.58834,-0.10245 0.62055,-0.04 0.22511,0.43648 -0.27614,0.33274 -0.35252,0.80577 -0.19019,1.17789 0.52047,1.19309 0.74112,-1.38583 0.30308,-3.54233 z"
       id="path24" />
    <path
       style="fill:none;stroke:#000000;stroke-width:0.352778;stroke-opacity:1"
       d="m 62.78247,270.82756 c -0.2462,-2.49848 -1.08538,-4.48981 -1.65291,-3.92227 -0.63463,0.63463 0.88764,6.4447 1.68855,6.4447 0.1171,0 0.10106,-1.13509 -0.0356,-2.52243 z"
       id="path22" />
    <path
       style="fill:none;stroke:#000000;stroke-width:0.352778;stroke-opacity:1"
       d="m 84.71999,278.30523 c 0.53642,-0.85894 0.02,-1.24976 -0.95895,-0.72581 -0.73481,0.39325 -0.88738,0.77011 -0.47767,1.17982 0.42667,0.42667 0.99973,0.24557 1.43662,-0.45401 z"
       id="path20" />
    <path
       style="fill:none;stroke:#000000;stroke-width:0.352778;stroke-opacity:1"
       d="m 63.43263,278.57221 c -0.31639,-2.22361 -0.31639,-2.22361 -1.11014,-1.42986 -0.98259,0.98259 -0.99654,1.6915 -0.0634,3.2221 1.07914,1.77011 1.57309,1.01575 1.17355,-1.79224 z"
       id="path18" />
    <path
       style="fill:none;stroke:#000000;stroke-width:0.352778;stroke-opacity:1"
       d="m 68.4156,287.46021 c -0.26839,-1.84278 -0.63848,-4.54113 -0.82242,-5.99633 -0.18394,-1.45521 -0.57886,-3.20146 -0.8776,-3.88056 -0.54317,-1.23472 -0.54317,-1.23472 -0.57195,1.29352 -0.0158,1.39053 0.12087,2.58115 0.30377,2.64583 0.1829,0.0647 0.42646,1.66938 0.54125,3.566 0.11479,1.89663 0.3581,3.84131 0.54067,4.32153 0.18258,0.48022 0.23708,0.87312 0.12111,0.87312 -0.11597,0 -0.008,0.24485 0.24072,0.54412 0.84997,1.02415 1.01227,-0.0179 0.52445,-3.36723 z"
       id="path16" />
    <path
       style="fill:none;stroke:#000000;stroke-width:0.352778;stroke-opacity:1"
       d="m 65.75345,293.54651 c -0.008,-0.24354 -0.41211,-2.17353 -0.90492,-4.3211 -0.19585,-0.85346 -0.21821,-0.85973 -0.7027,-0.19715 -0.27523,0.37639 -0.50042,0.9683 -0.50042,1.31535 0,1.09283 1.11341,3.46749 1.62581,3.46749 0.26997,0 0.48698,-0.11906 0.48223,-0.26459 z"
       id="path14" />
    <path
       style="fill:none;stroke:#000000;stroke-width:0.352778;stroke-opacity:1"
       d="m 69.44709,296.8979 c -0.25867,-5.18977 -0.37966,-5.71111 -1.04392,-4.49791 -0.32319,0.59027 -0.42646,1.58194 -0.31224,2.99861 0.41343,5.12813 0.53932,5.82083 1.05785,5.82083 0.43352,0 0.48008,-0.67454 0.29831,-4.32153 z"
       id="path12" />
    <path
       style="fill:none;stroke:#000000;stroke-width:0.352778;stroke-opacity:1"
       d="m 65.60202,299.90006 c -0.14453,-0.37663 -0.33293,-0.44542 -0.57017,-0.20818 -0.23725,0.23725 -0.21262,0.69387 0.0745,1.38191 0.41374,0.99134 0.43385,0.99868 0.57017,0.20818 0.0777,-0.45068 0.0442,-1.07253 -0.0745,-1.38191 z"
       id="path10" />
    <path
       style="fill:none;stroke:#000000;stroke-width:0.352778;stroke-opacity:1"
       d="m 30.30791,310.91673 c -3.22333,-0.73343 -5.813,-1.77352 -5.8186,-2.33696 -0.005,-0.48374 5.1702,-2.38174 8.10008,-2.9708 0.67273,-0.13526 1.46648,-0.37303 1.76389,-0.52838 0.29741,-0.15536 1.41387,-0.53943 2.48102,-0.8535 1.06715,-0.31407 2.1784,-0.67149 2.46945,-0.79426 0.29104,-0.12278 0.76729,-0.2653 1.05833,-0.31672 0.81064,-0.14322 3.63846,-0.87782 4.23333,-1.09973 0.29104,-0.10856 0.83421,-0.25607 1.20704,-0.3278 0.37282,-0.0717 0.84907,-0.26489 1.05833,-0.42925 0.20926,-0.16436 1.25359,-0.62449 2.32074,-1.02253 4.36008,-1.62623 5.29167,-2.17255 5.29167,-3.10323 0,-0.72451 -0.10784,-0.82116 -0.61736,-0.55328 -0.33955,0.17852 -1.49049,0.44551 -2.55764,0.59332 -1.06715,0.1478 -2.33715,0.32822 -2.82222,0.40092 -0.48507,0.0727 -1.3582,0.19607 -1.94028,0.27417 -0.58208,0.0781 -1.45521,0.25067 -1.94028,0.38352 -1.43983,0.39434 -3.08898,0.52917 -8.1186,0.66374 -2.62197,0.0702 -5.32072,0.27769 -5.99722,0.46121 -1.6841,0.45684 -6.89878,0.28603 -11.989732,-0.39273 -0.62612,-0.0835 -0.707284,-0.30803 -0.457108,-1.2647 0.102641,-0.39251 0.366543,-0.71413 0.586447,-0.71473 0.219904,-7e-4 1.48118,-0.54576 2.80283,-1.21147 1.321654,-0.66571 2.909153,-1.30946 3.527773,-1.43057 1.07442,-0.21033 1.39733,-0.31944 3.41784,-1.15494 1.06134,-0.43888 4.90304,-1.59673 5.64444,-1.70118 1.60787,-0.22653 4.94753,-0.98157 6.17361,-1.39575 0.77611,-0.26218 2.76049,-0.7912 4.40972,-1.17561 4.29074,-1.00009 6.48725,-1.64798 7.7894,-2.29757 0.62614,-0.31236 1.42819,-0.56793 1.78232,-0.56793 0.65631,0 4.18662,-3.30368 4.18662,-3.91785 0,-0.66013 -1.02366,-0.70752 -4.28297,-0.19828 -1.81597,0.28372 -3.85738,0.53703 -4.53648,0.56289 -1.14393,0.0436 -2.58497,0.40108 -4.47165,1.10938 -1.04585,0.39263 -9.07087,0.15118 -11.12467,-0.33471 -0.91388,-0.21621 -2.5309,-0.79073 -3.59337,-1.27671 -1.06247,-0.48599 -2.02801,-0.88361 -2.14565,-0.88361 -0.11764,0 -0.40562,-0.15881 -0.63997,-0.3529 -0.23434,-0.1941 -0.82295,-0.66712 -1.30802,-1.05117 -1.48545,-1.17608 -0.68364,-1.3909 7.40833,-1.98482 1.64924,-0.12104 3.43351,-0.44315 3.96505,-0.7158 0.53155,-0.27265 1.0078,-0.46739 1.05834,-0.43277 0.25118,0.17209 3.01473,-0.52656 3.90604,-0.98747 0.55897,-0.28906 1.75508,-0.65893 2.65802,-0.82193 2.59884,-0.46917 3.68068,-0.72805 4.08395,-0.97728 0.20625,-0.12747 1.00786,-0.28252 1.78134,-0.34455 2.67645,-0.21465 5.05256,-1.77372 4.58001,-3.00516 -0.12663,-0.33 -0.73272,-0.43931 -2.02275,-0.36481 -1.01307,0.0585 -3.74694,0.19231 -6.07528,0.29736 -2.32833,0.10505 -4.78895,0.27852 -5.46805,0.3855 -1.71753,0.27056 -2.6296,0.27068 -5.46806,7.1e-4 -3.31556,-0.31532 -4.43694,-0.55584 -5.382,-1.15439 -0.43775,-0.27724 -1.62837,-0.66101 -2.64584,-0.85282 -1.85003,-0.34876 -5.55168,-2.04358 -5.55326,-2.5426 -3.5e-4,-0.14552 -0.238966,-0.26458 -0.530008,-0.26458 -0.291041,0 -0.529166,-0.15875 -0.529166,-0.35278 0,-0.19403 -0.243477,-0.35278 -0.541056,-0.35278 -0.683129,0 -2.633944,-1.96863 -2.633944,-2.658 0,-0.47838 1.01521,-0.71596 2.469444,-0.57791 7.21587,0.68501 15.94191,0.66111 17.99167,-0.0493 0.29104,-0.10087 0.76729,-0.18493 1.05833,-0.1868 0.99903,-0.006 10.40694,-0.76986 10.93611,-0.88745 2.25998,-0.50222 2.82222,-0.72404 2.82222,-1.11346 0,-0.60182 -1.77933,-0.8299 -4.7625,-0.61048 -2.61739,0.19252 -12.08827,0.23991 -15.34583,0.0768 -1.06715,-0.0534 -2.14255,-0.25456 -2.38978,-0.44695 -0.24722,-0.19238 -0.54226,-0.25701 -0.65563,-0.14364 -0.23598,0.23598 -5.39394,-1.52373 -8.164929,-2.78558 -1.023948,-0.46625 -2.016136,-0.84776 -2.204861,-0.84776 -0.188722,0 -0.343133,-0.15875 -0.343133,-0.35278 0,-0.19402 -0.322481,-0.35277 -0.716626,-0.35277 -0.394148,0 -0.808005,-0.23813 -0.919688,-0.52917 -0.111686,-0.29104 -0.424201,-0.52917 -0.694485,-0.52917 -0.270281,0 -0.491423,-0.15875 -0.491423,-0.35278 0,-0.19402 -0.299413,-0.35277 -0.66536,-0.35277 -0.680233,0 -2.072121,-2.319 -1.647031,-2.74409 0.306641,-0.30665 6.891813,-0.26693 7.956836,0.048 0.48507,0.14343 1.774,0.25705 2.86429,0.25249 1.09028,-0.005 3.06709,0.21867 4.3929,0.49607 1.47447,0.30849 2.56115,0.37936 2.79837,0.18249 0.2133,-0.17702 2.84024,-0.41157 5.83765,-0.52123 10.64903,-0.38959 12.35064,-0.66448 12.61515,-2.03794 0.0947,-0.49179 -0.13365,-0.61467 -1.14222,-0.61467 -0.69332,0 -1.26059,-0.17573 -1.26059,-0.39052 0,-0.21637 -0.25696,-0.29192 -0.57623,-0.1694 -0.31693,0.12161 -1.46786,0.0605 -2.55764,-0.13592 -1.08977,-0.19636 -3.818,-0.43454 -6.06272,-0.52928 -2.29762,-0.097 -4.74531,-0.40653 -5.60061,-0.70829 -0.8356,-0.29482 -2.66214,-0.53604 -4.05897,-0.53604 -2.70274,0 -6.11275,-0.95078 -9.28276,-2.58822 -0.918933,-0.47467 -2.305787,-1.12606 -3.081898,-1.44755 -0.776112,-0.32148 -1.686769,-0.73558 -2.023685,-0.9202 -0.336917,-0.18463 -0.868035,-0.33569 -1.180264,-0.33569 -0.799314,0 -2.616885,-1.35965 -2.616885,-1.95758 0,-0.27413 0.40609,-0.60035 0.90242,-0.72492 1.318412,-0.3309 7.460474,-0.3789 9.472813,-0.074 3.123209,0.47316 5.488749,0.59031 5.679739,0.28128 0.10319,-0.16696 0.62085,-0.26613 1.15035,-0.22037 0.5295,0.0458 1.61701,-0.0348 2.41669,-0.17896 0.79968,-0.1442 2.82776,-0.29245 4.50686,-0.32946 1.6791,-0.037 3.13159,-0.1946 3.22777,-0.35022 0.0962,-0.15561 0.52871,-0.19672 0.96119,-0.0913 0.43248,0.10538 1.10383,0.20493 1.49189,0.22123 0.38805,0.0163 0.80331,0.17303 0.92278,0.34829 0.11948,0.17526 0.83385,0.38885 1.5875,0.47465 0.75365,0.0858 1.68777,0.22549 2.07583,0.31043 1.10184,0.24119 3.35139,-0.22225 3.35139,-0.69042 0,-0.46922 -3.67485,-1.3407 -5.73264,-1.35949 -0.7276,-0.007 -1.32292,-0.10422 -1.32292,-0.21683 0,-0.21891 -0.93589,-0.27702 -5.60635,-0.3481 -2.95505,-0.045 -10.63069,-1.23549 -11.71826,-1.81754 -0.31585,-0.16904 -0.66216,-0.21947 -0.76957,-0.11206 -0.10741,0.10741 -2.231717,-0.45691 -4.720688,-1.25404 -4.286955,-1.37296 -5.476183,-1.80975 -6.901868,-2.53501 -0.336916,-0.17139 -0.784817,-0.31161 -0.995337,-0.31161 -0.21052,0 -0.60404,-0.19844 -0.874487,-0.44098 -1.08803,-0.97573 -1.5559264,-1.32291 -1.7828614,-1.32291 -0.278455,0 -1.555775,-1.42068 -1.555143,-1.72968 7.05e-4,-0.31461 11.1474074,-0.47678 13.4051244,-0.19502 0.679097,0.0848 5.36222,0.23118 10.40694,0.3254 9.99564,0.18669 12.39444,0.29716 15.36645,0.70766 1.616,0.2232 2.06586,0.16588 2.55764,-0.32591 0.32821,-0.3282 0.59675,-0.72676 0.59675,-0.88567 0,-0.36255 -4.82276,-1.64369 -7.40834,-1.96799 -1.06715,-0.13385 -2.18904,-0.37387 -2.49308,-0.53339 -0.30405,-0.15951 -1.4153,-0.38465 -2.46944,-0.5003 -2.9651,-0.32532 -3.18323,-0.36039 -5.53261,-0.88961 -1.21268,-0.27316 -2.20487,-0.60598 -2.20487,-0.73959 0,-0.13362 -0.55562,-0.34717 -1.23472,-0.47457 -0.6791,-0.1274 -1.23472,-0.36924 -1.23472,-0.53742 0,-0.16818 -0.65852,-0.41704 -1.46338,-0.55302 -0.80485,-0.13598 -1.99038,-0.46744 -2.6345,-0.73657 -0.64412,-0.26913 -1.5731,-0.48932 -2.0644,-0.48932 -0.491303,0 -0.893275,-0.15875 -0.893275,-0.35278 0,-0.19403 -0.319656,-0.35278 -0.710343,-0.35278 -0.390687,0 -0.986,-0.14023 -1.322917,-0.31162 -0.336916,-0.17139 -1.088823,-0.52757 -1.670907,-0.7915 -1.317995,-0.59763 -2.596014,-1.98596 -2.490424,-2.70539 0.09354,-0.63733 0.290551,-0.67573 5.136257,-1.00112 4.277469,-0.28725 4.477409,-0.28711 9.877779,0.007 2.23132,0.12134 5.26944,0.20958 6.75139,0.19609 2.88317,-0.0263 6.26849,0.4689 8.65458,1.2659 2.3021,0.76894 4.65625,0.99629 5.24624,0.50664 0.79486,-0.65968 0.62204,-0.94743 -0.72027,-1.19924 -0.6791,-0.1274 -1.23472,-0.3629 -1.23472,-0.52334 0,-0.16044 -0.59531,-0.39249 -1.32292,-0.51568 -0.7276,-0.12319 -2.03729,-0.56495 -2.91041,-0.9817 -0.87313,-0.41674 -1.98438,-0.82225 -2.46945,-0.90112 -0.48507,-0.0789 -0.93519,-0.29338 -1.00027,-0.4767 -0.0651,-0.18331 -0.25935,-0.24614 -0.43172,-0.13961 -0.45806,0.2831 -7.72583,-3.26906 -7.96529,-3.89308 -0.11176,-0.29124 -0.48896,-0.52953 -0.83823,-0.52953 -0.53065,0 -6.62726,-5.2611 -8.486273,-7.32326 -1.28567,-1.42618 -2.133554,-2.9587 -2.028362,-3.66623 0.09218,-0.62007 0.368987,-0.76643 1.52376,-0.80569 1.678985,-0.0571 3.505005,0.36727 4.133235,0.96056 0.74117,0.69992 2.14323,1.31772 3.32173,1.46366 0.60774,0.0753 2.19523,0.68583 3.52778,1.35681 2.48406,1.25083 6.03022,2.71723 6.88307,2.84628 0.26324,0.0398 0.63738,0.16508 0.83141,0.27832 0.42457,0.24779 2.18821,0.71647 3.20107,0.85067 0.4024,0.0533 1.3549,0.37218 2.11667,0.70859 1.62886,0.71934 1.6404,0.72318 3.63047,1.21084 0.84694,0.20754 1.81816,0.28903 2.15827,0.18108 0.34011,-0.10795 1.05313,-0.031 1.58449,0.17104 0.78554,0.29867 1.18332,0.23308 2.12826,-0.35093 2.11567,-1.30755 1.86305,-1.74457 -0.87572,-1.51496 -2.28802,0.19182 -2.46905,0.15171 -3.28407,-0.72772 -0.47441,-0.5119 -1.10914,-0.93073 -1.4105,-0.93073 -0.77716,0 -4.13367,-1.73379 -4.13367,-2.13523 0,-0.18382 -0.24636,-0.33422 -0.54747,-0.33422 -0.61668,0 -3.44602,-1.44474 -3.62706,-1.85208 -0.0647,-0.14552 -0.28885,-0.26458 -0.49816,-0.26458 -0.31828,0 -2.23875,-1.08352 -6.43585,-3.63109 -3.76073,-2.28269 -5.68291,-3.68023 -7.91354,-5.75361 -3.4908,-3.24471 -4.614026,-4.44819 -4.614026,-4.94368 0,-0.22704 -0.198438,-0.48916 -0.440973,-0.58249 -0.752725,-0.28964 -1.884066,-2.82956 -1.97437,-4.43257 -0.0811,-1.43967 -0.0392,-1.51508 0.723657,-1.30247 1.604165,0.44708 3.637622,1.40842 3.914072,1.85042 0.15517,0.24807 0.50335,0.45104 0.77375,0.45104 0.2704,0 0.74182,0.35719 1.0476,0.79375 0.30578,0.43657 0.59259,0.73064 0.63736,0.6535 0.0448,-0.0771 0.95453,0.26536 2.02168,0.76109 1.06715,0.49574 2.66838,1.22568 3.55828,1.6221 0.88991,0.39641 1.80574,0.94694 2.03518,1.22341 0.22944,0.27646 1.16821,0.69842 2.08616,0.9377 1.61945,0.42213 3.04633,0.97058 5.16278,1.98443 0.56338,0.26988 1.24866,0.49069 1.52284,0.49069 0.27418,0 1.00385,0.37427 1.62149,0.83172 0.61765,0.45744 1.59924,1.06973 2.18133,1.36065 0.58208,0.29092 1.7727,0.88902 2.64583,1.32912 0.87312,0.4401 1.86316,0.93905 2.20007,1.10879 0.33692,0.16973 0.88127,0.30861 1.20968,0.30861 0.32841,0 1.09966,0.18173 1.71389,0.40384 0.97854,0.35384 1.25249,0.30352 2.21276,-0.40644 1.7821,-1.31756 1.66442,-1.65014 -0.57817,-1.634 -2.2396,0.0161 -4.2643,-0.83941 -4.54725,-1.9214 -0.0971,-0.37144 -0.29079,-0.67533 -0.43034,-0.67533 -0.35358,0 -3.65877,-2.5487 -4.00303,-3.08681 -0.15516,-0.24253 -0.49569,-0.44097 -0.75672,-0.44097 -0.26104,0 -0.84846,-0.39414 -1.30539,-0.87585 -0.45693,-0.48172 -0.95122,-0.87859 -1.09842,-0.88195 -0.55068,-0.0126 -3.03542,-1.95976 -5.85986,-4.5922 -0.9368,-0.87313 -2.1439,-1.905 -2.68244,-2.29306 -0.53853,-0.38805 -1.08386,-0.78493 -1.21184,-0.88194 -0.49587,-0.37588 -2.85461,-3.43912 -2.85461,-3.7072 0,-0.15573 -0.41234,-0.82376 -0.91632,-1.48451 -0.50397,-0.66074 -0.95625,-1.3901 -1.00505,-1.62079 -0.11151,-0.52713 -0.47234,-1.52674 -1.04281,-2.88889 -0.40889,-0.97635 -0.4372,-3.64431 -0.0495,-4.66817 0.18721,-0.49445 2.16079,-0.22133 2.93773,0.40654 1.17842,0.95233 7.23399,7.15036 7.53721,7.71454 0.18643,0.34688 0.2401,0.94219 0.11927,1.32291 -0.17936,0.56509 -0.0534,0.69223 0.68601,0.69223 0.49814,0 0.90571,-0.17136 0.90571,-0.38081 0,-0.47945 1.98581,-0.0972 3.0744,0.59183 0.42974,0.272 0.97286,0.49454 1.20694,0.49454 0.23409,0 0.71701,0.26372 1.07318,0.58604 0.35616,0.32232 0.94891,0.75889 1.31723,0.97014 0.9775,0.56066 5.31929,3.79457 6.19928,4.61743 1.06397,0.99489 2.49714,1.69916 3.05738,1.50241 0.26167,-0.0919 0.87264,0.10435 1.35771,0.4361 0.78406,0.53625 1.01374,0.54828 2.06951,0.10834 0.65316,-0.27218 1.11138,-0.57105 1.01827,-0.66415 -0.0931,-0.0931 -1.09207,-0.31948 -2.21991,-0.50304 -1.12783,-0.18356 -2.14168,-0.4725 -2.25299,-0.64209 -0.11131,-0.16958 -0.55957,-0.49643 -0.99613,-0.72634 -0.43657,-0.2299 -0.79375,-0.62084 -0.79375,-0.86875 0,-0.24791 -0.4746,-0.90544 -1.05466,-1.46118 -0.58006,-0.55573 -0.98555,-1.07951 -0.9011,-1.16397 0.242,-0.242 -1.57247,-2.01344 -3.62015,-3.53428 -1.02946,-0.76459 -3.94792,-3.35481 -6.48546,-5.75605 -2.53755,-2.40124 -4.7125,-4.44526 -4.83323,-4.54228 -0.72006,-0.57859 -3.93716,-4.58828 -3.68961,-4.59861 0.16472,-0.007 -0.0974,-0.23937 -0.58246,-0.51667 -0.48507,-0.27729 -0.7548,-0.50979 -0.59941,-0.51666 0.1554,-0.007 -0.14126,-0.56813 -0.65923,-1.24722 -0.51797,-0.6791 -0.82411,-1.23473 -0.68031,-1.23473 0.1438,0 0.11321,-0.19843 -0.068,-0.44097 -0.18118,-0.24253 -0.29984,-0.63941 -0.26368,-0.88194 0.0362,-0.24254 0.0856,-0.66223 0.10984,-0.93264 0.051,-0.56923 1.76462,-0.28543 4.05517,0.67162 0.74627,0.31181 1.44128,0.48251 1.54446,0.37932 0.10319,-0.10318 0.76072,0.26551 1.46118,0.81933 0.70046,0.55381 2.06731,1.37416 3.03745,1.82298 0.97014,0.44884 1.84326,0.90518 1.94028,1.01411 0.36182,0.40624 3.00664,2.30844 3.21122,2.30954 0.11693,7.1e-4 0.90436,0.58956 1.74984,1.30872 0.84548,0.71916 1.61833,1.22646 1.71745,1.12734 0.0991,-0.0991 -0.0533,-0.3279 -0.33873,-0.50841 -0.28542,-0.1805 -0.41042,-0.33062 -0.27778,-0.3336 0.33908,-0.008 -4.37297,-4.59151 -4.71985,-4.59151 -0.1561,0 -0.28382,-0.23812 -0.28382,-0.52916 0,-0.29105 -0.13446,-0.52917 -0.2988,-0.52917 -0.16434,0 -0.66488,-0.3175 -1.11231,-0.70556 -0.44743,-0.38805 -0.68844,-0.70555 -0.53557,-0.70555 0.15287,0 -0.1487,-0.3356 -0.67015,-0.74577 -0.52146,-0.41018 -0.87341,-0.82047 -0.78212,-0.91177 0.0913,-0.0913 -0.0988,-0.47521 -0.42239,-0.85316 -0.32361,-0.37795 -0.57902,-0.80109 -0.56757,-0.94032 0.0115,-0.13923 -0.49327,-0.80877 -1.12159,-1.48787 -0.62833,-0.6791 -1.14786,-1.36022 -1.15451,-1.5136 -0.007,-0.15338 -0.64855,-0.85023 -1.42643,-1.54855 -0.77789,-0.69832 -1.32922,-1.40738 -1.2252,-1.5757 0.10403,-0.16831 -0.059,-0.40126 -0.36239,-0.51766 -0.30334,-0.11641 -0.55152,-0.44797 -0.55152,-0.7368 0,-0.28884 -0.32831,-0.98623 -0.72958,-1.54976 -0.40127,-0.56353 -0.61479,-1.0246 -0.47449,-1.0246 0.1403,0 0.004,-0.27781 -0.30362,-0.61736 -0.30729,-0.33955 -0.57653,-0.73368 -0.59831,-0.87586 -0.0218,-0.14217 -0.25781,-0.77717 -0.5245,-1.41111 -0.26668,-0.63394 -0.44592,-1.19176 -0.3983,-1.23961 0.23343,-0.23454 3.70611,1.039 4.08805,1.49922 0.24104,0.29043 0.61725,0.5308 0.83602,0.53415 0.21878,0.003 0.77163,0.40023 1.22856,0.88195 0.45693,0.48171 1.05224,0.87584 1.32291,0.87584 0.27068,0 0.49214,0.17727 0.49214,0.39393 0,0.21945 0.31064,0.31269 0.70136,0.21051 0.4031,-0.10541 1.07821,0.11302 1.5875,0.51363 0.48738,0.38337 0.88614,0.58473 0.88614,0.44746 0,-0.13726 0.33021,0.17023 0.73381,0.68332 0.40359,0.51308 0.86898,0.84933 1.03419,0.74723 0.16522,-0.10211 0.52622,0.13675 0.80222,0.5308 0.276,0.39405 1.23936,1.29107 2.1408,1.99337 0.90144,0.70231 1.63898,1.49381 1.63898,1.75889 0,0.26509 0.17559,0.48198 0.39021,0.48198 0.21461,0 1.04163,0.51593 1.83781,1.14652 0.79619,0.63059 1.54475,1.14653 1.66347,1.14653 0.36115,0 1.40018,1.15934 1.40018,1.5623 0,0.20789 0.21189,0.37798 0.47085,0.37798 0.61845,0 2.37813,1.98625 2.26392,2.55542 -0.0489,0.24375 0.17387,0.39999 0.49508,0.34719 0.32121,-0.0528 1.33934,0.6277 2.2625,1.51222 0.97779,0.93685 1.80926,1.47745 1.99174,1.29497 0.18248,-0.18248 -0.0674,-0.56268 -0.59863,-0.91074 -0.50153,-0.32861 -0.86687,-0.80438 -0.81186,-1.05726 0.055,-0.25288 -0.42263,-0.90049 -1.06142,-1.43913 -0.63878,-0.53864 -1.07748,-1.0633 -0.97487,-1.1659 0.1026,-0.10261 -0.32726,-0.56563 -0.95524,-1.02894 -0.62799,-0.46332 -1.11826,-0.90009 -1.08949,-0.97061 0.0288,-0.0705 -0.80091,-1.03773 -1.84374,-2.14935 -1.04282,-1.11162 -1.81105,-2.15865 -1.70718,-2.32673 0.10388,-0.16807 0.0515,-0.30559 -0.11652,-0.30559 -0.16796,0 -1.08964,-1.17954 -2.04818,-2.62121 -0.95854,-1.44167 -2.19085,-2.88589 -2.73847,-3.20937 -0.54762,-0.32349 -0.9158,-0.66803 -0.81819,-0.76564 0.30754,-0.30754 -6.30212,-5.84878 -9.18204,-7.6978 -1.51663,-0.97373 -2.80509,-2.01754 -2.86326,-2.31958 -0.10413,-0.54073 1.04173,-0.59308 7.7223,-0.35284 0.5065,0.0182 1.48577,0.41644 2.17617,0.88495 0.69039,0.46852 1.32317,0.78393 1.40617,0.70093 0.22438,-0.22438 2.81095,0.90327 3.52244,1.53565 0.33955,0.30179 0.61736,0.42984 0.61736,0.28455 0,-0.14528 0.8094,0.31734 1.79867,1.02806 0.98927,0.71072 2.01364,1.20972 2.27639,1.10889 0.26275,-0.10083 0.87186,0.28507 1.35356,0.85755 0.48171,0.57247 1.12421,1.04086 1.42778,1.04086 0.30356,0 0.55194,0.13035 0.55194,0.28967 0,0.36798 2.64215,3.08671 4.34491,4.47086 0.71475,0.581 1.29953,1.25568 1.29953,1.4993 0,0.24363 0.15875,0.44295 0.35278,0.44295 0.56901,0 0.40949,-0.53909 -0.44097,-1.49032 -1.84101,-2.05915 -3.68035,-4.82456 -3.52559,-5.30065 0.0473,-0.14552 -0.0679,-0.26458 -0.25602,-0.26458 -0.6046,0 -5.99499,-8.45422 -5.40548,-8.47789 0.15369,-0.006 0.0391,-0.20461 -0.25457,-0.44097 -0.73816,-0.59404 -1.95767,-2.53443 -1.36115,-2.16577 0.25909,0.16013 0.1168,-0.15923 -0.31619,-0.70969 -0.43299,-0.55046 -0.78725,-1.18599 -0.78725,-1.41228 0,-0.2263 -0.635,-1.38869 -1.41111,-2.5831 -0.77611,-1.19441 -1.41111,-2.34281 -1.41111,-2.552 0,-0.20919 -0.20436,-0.73195 -0.45413,-1.16169 -0.41317,-0.71087 -0.46596,-1.3471 -0.30525,-3.67904 0.0532,-0.77223 0.0786,-0.76825 2.24924,0.35278 1.20749,0.62359 2.51718,1.46685 2.91042,1.87391 0.39325,0.40704 0.88172,0.80392 1.08549,0.88194 0.75119,0.28761 4.36234,3.33405 4.55895,3.84602 0.11177,0.29104 0.91368,1.06364 1.78202,1.71689 0.86835,0.65326 1.57881,1.31976 1.57881,1.48113 0,0.16138 0.39688,0.72164 0.88194,1.24504 0.48507,0.5234 0.88195,1.16658 0.88195,1.42928 0,0.26271 0.14805,0.47766 0.329,0.47766 0.18096,0 0.43517,0.33447 0.56491,0.74327 0.24579,0.7744 0.73837,1.43151 2.36928,3.16063 0.53358,0.56571 0.97014,1.26814 0.97014,1.56094 0,0.29281 0.12559,0.53238 0.27908,0.53238 0.50265,0 2.19037,3.74867 2.19037,4.86512 0,0.59975 0.14366,1.17925 0.31925,1.28777 0.36992,0.22862 3.20852,-1.20796 3.20852,-1.6238 0,-0.1534 0.57939,-0.57614 1.28752,-0.93943 1.39799,-0.71722 1.35061,-0.80903 -0.75835,-1.46945 -2.74676,-0.86015 -4.90122,-2.73041 -4.86815,-4.226 0.007,-0.29702 -0.18097,-0.77817 -0.41675,-1.06921 -0.35757,-0.44138 -0.76838,-1.25779 -1.0651,-2.11667 -0.0335,-0.097 -0.17851,-0.4418 -0.32222,-0.7662 -0.14371,-0.32439 -0.29496,-0.80064 -0.33611,-1.05833 -0.0411,-0.25769 -0.35926,-0.8968 -0.7069,-1.42026 -0.34764,-0.52345 -0.66474,-1.1743 -0.70466,-1.44632 -0.0399,-0.27204 -0.31638,-0.87563 -0.61434,-1.34133 -1.0361,-1.61939 -1.14237,-1.84598 -0.75284,-1.60523 0.20686,0.12784 -0.39174,-0.91511 -1.33023,-2.31768 -0.93848,-1.40257 -1.69079,-2.63358 -1.6718,-2.73558 0.0726,-0.39009 -1.35371,-3.52949 -3.53033,-7.77018 -2.13154,-4.152871 -2.901,-6.350001 -2.22384,-6.350001 0.16325,0 0.2795,-0.19843 0.25832,-0.44097 -0.0212,-0.24253 0.17696,-1.10434 0.44028,-1.915124 0.47878,-1.474156 0.47878,-1.474156 1.56041,-0.705556 0.5949,0.422727 1.42891,1.165472 1.85336,1.65054 1.7342,1.98186 2.59553,2.82222 2.89264,2.82222 0.17241,0 1.00374,0.67469 1.8474,1.49931 0.84365,0.82462 1.66266,1.45962 1.82003,1.41111 0.15736,-0.0485 0.28611,0.0352 0.28611,0.185961 0,0.15079 0.47625,0.79559 1.05833,1.43289 0.58209,0.6373 1.05834,1.31704 1.05834,1.51055 0,0.1935 0.14583,0.26169 0.32407,0.15154 0.17824,-0.11016 0.42543,0.2612 0.54932,0.82525 0.1254,0.57097 0.51245,1.10064 0.87321,1.19498 0.37493,0.0981 0.75017,0.63474 0.8905,1.27368 0.13339,0.60732 0.36577,1.02806 0.51639,0.93497 0.31668,-0.19572 1.65648,2.34992 1.98896,3.77907 0.12414,0.53358 0.34798,0.97014 0.49744,0.97014 0.14945,0 0.469,0.47625 0.71011,1.05833 0.2411,0.58209 0.57786,1.05834 0.74835,1.05834 0.39692,0 0.39087,-0.21548 -0.0274,-0.97493 -0.26044,-0.4729 -1.35856,-3.94122 -1.59013,-5.0223 -0.0208,-0.097 -0.20863,-0.49389 -0.41745,-0.88194 -0.33812,-0.62835 -0.80208,-2.18608 -0.86637,-2.90883 -0.013,-0.1464 -0.18837,-0.46461 -0.38965,-0.70714 -0.2603,-0.31364 -0.23585,-0.44098 0.0847,-0.44098 0.34093,0 0.32511,-0.15031 -0.065,-0.61736 -0.72905,-0.87289 -1.40377,-2.55764 -1.02431,-2.55764 0.175,0 0.10365,-0.436561 -0.15856,-0.970131 -0.2622,-0.53358 -0.57065,-2.06191 -0.68545,-3.3963 -0.11479,-1.33438 -0.28409,-2.54812 -0.37623,-2.6972 -0.28486,-0.460912 -0.51525,-6.694657 -0.24745,-6.695402 0.13884,-3.52e-4 0.28792,-0.504348 0.33127,-1.119917 0.0433,-0.615566 0.2021,-1.210564 0.35278,-1.322215 0.30513,-0.226099 1.02992,-1.331789 1.40494,-2.143277 0.59407,-1.28549 0.97315,-1.33381 1.72574,-0.219974 0.4095,0.606054 0.96528,1.736919 1.23508,2.51303 0.2698,0.776111 0.57161,1.490486 0.67069,1.5875 0.76438,0.748414 3.52778,7.763097 3.52778,8.954985 0,0.31351 0.14024,0.57002 0.31163,0.57002 0.46946,0 0.75241,1.44682 0.40859,2.08926 -0.49368,0.92244 -0.004,2.51861 0.87643,2.853101 0.43934,0.16704 0.88742,0.5124 0.99572,0.76748 0.10831,0.25507 0.13595,0.0298 0.0614,-0.50055 -0.0745,-0.530381 -0.21279,-1.089361 -0.30724,-1.242181 -0.0944,-0.15282 -0.26837,-0.92581 -0.38648,-1.71776 -0.11812,-0.79195 -0.62304,-2.85235 -1.12204,-4.578658 -0.49899,-1.726315 -1.1467,-4.329378 -1.43935,-5.784586 -0.66746,-3.319064 -0.96777,-10.583334 -0.43751,-10.583334 0.2062,0 0.27605,-0.159967 0.15521,-0.355483 -0.12083,-0.195517 0.0144,-0.589555 0.30046,-0.875644 0.28609,-0.286089 0.58123,-0.703375 0.65588,-0.927301 0.19081,-0.572446 1.39214,0.220617 2.23591,1.47605 0.36413,0.541775 0.78739,0.907578 0.9406,0.812892 0.1532,-0.09468 0.27855,0.08198 0.27855,0.392585 0,0.310604 0.30478,0.891886 0.6773,1.291739 0.37252,0.399848 0.88343,1.425088 1.13535,2.278302 0.25193,0.853218 0.58214,1.551305 0.73381,1.551305 0.15167,0 0.27576,0.3175 0.27576,0.705556 0,0.388055 0.14154,0.705555 0.31453,0.705555 0.173,0 0.42086,0.423633 0.55081,0.941409 0.12996,0.517772 0.46467,1.26747 0.74381,1.665993 0.50569,0.721981 0.50752,0.721727 0.50752,-0.07079 0,-0.437462 -0.23813,-1.365296 -0.52917,-2.061856 -0.64234,-1.537335 -0.64974,-1.647161 -0.0882,-1.3098 0.33984,0.204163 0.34824,0.148255 0.0367,-0.243762 -0.22238,-0.279781 -0.48364,-1.064317 -0.58059,-1.743414 -0.0969,-0.679097 -0.37103,-2.663472 -0.60908,-4.409722 -0.23806,-1.74625 -0.63938,-3.968751 -0.89183,-4.938889 -0.47377,-1.820612 -0.6131,-6.520921 -0.21108,-7.120552 0.58683,-0.875266 1.56799,-0.81086 2.49971,0.164088 0.52188,0.5461 1.06378,1.223461 1.20423,1.505242 0.65396,1.312083 1.27658,2.243321 1.28601,1.923444 0.0113,-0.384129 0.91405,1.047305 1.26385,2.00407 0.11923,0.326126 0.43927,0.678332 0.71119,0.782677 0.27192,0.104344 0.49441,0.512201 0.49441,0.906349 0,0.394145 0.15875,0.716626 0.352769,0.716626 0.19403,0 0.35278,0.406245 0.35278,0.902765 0,0.512008 0.1527,0.808391 0.35278,0.684735 0.2087,-0.128986 0.35278,0.270718 0.35278,0.978719 0,0.828586 0.16279,1.196745 0.52916,1.196745 0.64176,0 0.64272,0.122728 -0.0112,-1.442353 -0.29722,-0.711334 -0.46391,-1.417084 -0.37044,-1.568334 0.0935,-0.151246 -0.13369,-1.490122 -0.50483,-2.975274 -0.37113,-1.485156 -0.7276,-3.094666 -0.792149,-3.576691 -0.0645,-0.482025 -0.22921,-0.988247 -0.36589,-1.124934 -0.39245,-0.392455 -0.28547,-6.862879 0.13873,-8.390735 0.443139,-1.596034 1.123489,-2.404424 1.791389,-2.128506 0.67547,0.279047 2.35098,2.798939 2.62162,3.942807 0.12719,0.537594 0.60729,1.482792 1.06688,2.100435 0.4596,0.617644 0.83563,1.292331 0.83563,1.499306 0,0.206974 0.15875,0.376315 0.35278,0.376315 0.19402,0 0.35277,0.225259 0.35277,0.500577 0,0.767768 1.181291,2.669682 1.659711,2.672193 0.23374,0.0011 0.52923,0.557855 0.65663,1.236952 0.1274,0.679097 0.37271,1.234722 0.54515,1.234722 0.17243,0 0.31351,0.542396 0.31351,1.205326 0,0.662926 0.16834,1.261434 0.37407,1.330011 0.20574,0.06858 0.38865,0.637434 0.40647,1.264122 0.0178,0.626686 0.14185,1.13943 0.27563,1.13943 0.13378,0 0.52912,0.944196 0.87852,2.098213 0.34941,1.154018 0.86118,2.184894 1.13726,2.290837 0.34741,0.133311 0.44841,0.0032 0.32803,-0.422519 -0.24131,-0.853387 -0.59511,-3.755174 -0.78745,-6.458511 -0.0888,-1.248787 -0.28825,-3.461145 -0.4431,-4.916353 -0.15485,-1.455208 -0.20788,-3.995208 -0.11784,-5.644445 0.09,-1.649236 0.14115,-4.189236 0.11356,-5.644444 -0.0276,-1.455209 0.0556,-2.883959 0.1848,-3.175 0.12923,-0.291042 0.27767,-0.926042 0.32989,-1.411111 0.15957,-1.4825 0.99193,-4.233334 1.28093,-4.233334 0.14991,0 0.27257,-0.32687 0.27257,-0.726376 0,-0.399507 0.15875,-0.628262 0.35278,-0.508346 0.19402,0.119916 0.35277,-0.02011 0.35277,-0.311139 0,-1.35435 2.68746,-1.054171 3.03719,0.339241 0.11787,0.469615 0.36654,0.853842 0.55261,0.853842 0.18606,0 0.23122,0.337379 0.10035,0.749734 -0.16013,0.504522 -0.11021,0.670783 0.15262,0.508346 0.21481,-0.132761 0.39057,-0.556447 0.39057,-0.941518 0,-0.385075 0.39687,-1.128145 0.88194,-1.651272 0.48507,-0.523123 0.88195,-0.776527 0.88195,-0.563114 0,0.213413 0.54373,0.964547 1.20829,1.669189 0.66456,0.704642 1.26931,1.560283 1.34387,1.90143 0.0746,0.341143 0.32458,0.580574 0.55559,0.532067 0.231,-0.04851 0.42001,0.229305 0.42001,0.617361 0,0.388055 0.15875,0.705555 0.35278,0.705555 0.19402,0 0.35277,0.3175 0.35277,0.705556 0,0.388055 0.15875,0.705555 0.35278,0.705555 0.19403,0 0.35278,0.3175 0.35278,0.705556 0,0.388056 0.1282,0.705556 0.28489,0.705556 0.31235,0 1.479,2.458832 1.479,3.117151 0,0.225845 0.15875,0.410626 0.35278,0.410626 0.19402,0 0.3552,0.436563 0.35818,0.970139 0.004,0.654872 0.10099,0.81939 0.29956,0.506251 0.16179,-0.255136 0.23836,-1.738133 0.17016,-3.295545 -0.0682,-1.557415 -0.0187,-3.001987 0.10993,-3.210161 0.12866,-0.208174 0.19846,-1.356681 0.15512,-2.552238 -0.0813,-2.243667 0.22211,-4.159631 0.62037,-3.916931 0.12482,0.07607 0.25689,-0.423276 0.29348,-1.109655 0.0366,-0.686379 0.23502,-1.416463 0.44097,-1.622411 0.20595,-0.205948 0.37445,-0.660199 0.37445,-1.009449 0,-0.34925 0.15875,-0.635 0.35278,-0.635 0.19402,0 0.35277,-0.167361 0.35277,-0.371909 0,-0.204551 0.47552,-0.879238 1.0567,-1.499305 0.58119,-0.620071 1.05744,-1.265898 1.05834,-1.435175 10e-4,-0.16928 0.23976,-0.110154 0.5308,0.131389 0.29104,0.241543 0.52916,0.657857 0.52916,0.925139 0,0.267285 0.14614,0.485972 0.32475,0.485972 0.37341,0 0.70294,1.310143 0.92478,3.676657 0.085,0.906484 0.31427,1.946695 0.50955,2.31158 0.19528,0.364885 0.25289,0.95274 0.12802,1.306347 -0.18191,0.515084 -0.13566,0.558338 0.2326,0.217544 0.32983,-0.30523 0.44054,-1.45518 0.39195,-4.071543 -0.0502,-2.70148 0.0822,-4.007996 0.51105,-5.042683 0.99126,-2.391897 1.16388,-2.441148 2.48623,-0.709323 0.65662,0.859945 1.19385,1.731811 1.19385,1.93748 0,0.205666 0.14712,0.373941 0.32694,0.373941 0.49797,0 1.33789,1.897874 1.83728,4.151461 0.4264,1.924195 1.06193,3.088132 1.46571,2.684353 0.10238,-0.10238 0.0252,-0.690132 -0.17145,-1.306117 -0.66371,-2.07875 -1.21094,-5.344929 -1.1194,-6.681329 0.10301,-1.504008 1.647,-4.584549 1.83193,-3.655029 0.0627,0.315331 0.27251,0.573328 0.46617,0.573328 0.54013,0 1.36004,0.941842 1.36004,1.562301 0,0.304902 0.15875,0.554365 0.35278,0.554365 0.19403,0 0.35278,0.3175 0.35278,0.705556 0,0.391975 0.23519,0.705556 0.52917,0.705556 0.29104,0 0.52916,0.238125 0.52916,0.529166 0,0.291042 0.15875,0.529167 0.35278,0.529167 0.19403,0 0.35278,0.379892 0.35278,0.844201 0,0.464312 0.23812,0.935577 0.52916,1.047263 0.29105,0.111682 0.52917,0.438697 0.52917,0.726697 0,0.644275 0.74189,2.320855 1.02677,2.320386 0.11437,-1.87e-4 0.20975,-1.882948 0.21194,-4.183913 0.002,-2.562895 0.15748,-4.373541 0.40023,-4.673963 0.21794,-0.269717 0.50863,-1.015715 0.64599,-1.65777 0.13735,-0.642059 0.7681,-1.685745 1.40166,-2.319306 1.07129,-1.071287 1.19866,-1.113046 1.81947,-0.596512 0.97295,0.809516 1.606,2.209885 1.70487,3.771329 0.0477,0.75361 0.27751,2.048548 0.51065,2.877643 0.23314,0.829095 0.31531,1.683128 0.1826,1.897853 -0.14475,0.23422 -0.0452,0.32162 0.2488,0.218472 0.26954,-0.09456 0.46803,-0.432654 0.44108,-0.751322 -0.027,-0.318664 0.0703,-0.579391 0.21601,-0.579391 0.14576,0 0.37097,-0.912813 0.50047,-2.028473 0.41015,-3.533362 1.02604,-6.414308 1.33098,-6.225843 0.16202,0.100136 0.29459,-0.224176 0.29459,-0.720697 0,-0.496521 0.14806,-0.902765 0.32901,-0.902765 0.18095,0 0.42977,-0.3175 0.55294,-0.705556 0.12316,-0.388055 0.39917,-0.705555 0.61335,-0.705555 0.21418,0 0.66068,-0.245484 0.99222,-0.545518 0.55193,-0.499498 0.62211,-0.468521 0.83187,0.367206 0.12599,0.501996 0.36576,0.828245 0.53283,0.724994 0.36381,-0.22485 0.86054,2.137995 0.5538,2.634318 -0.11788,0.190726 -0.0432,0.346777 0.166,0.346777 0.23522,0 0.29083,0.356539 0.14575,0.934562 -0.15731,0.62678 -0.10946,0.85725 0.14529,0.699801 0.20892,-0.129116 0.47957,-0.07342 0.60144,0.123772 0.43298,0.700582 0.8855,0.34296 0.8855,-0.699801 0,-0.582084 0.15875,-1.058334 0.35278,-1.058334 0.19403,0 0.35278,-0.15228 0.35278,-0.338398 0,-0.186122 0.42935,-1.049225 0.95412,-1.918007 0.85502,-1.415549 1.84015,-2.14654 2.69898,-2.002702 0.16595,0.0278 0.52313,-0.13323 0.79375,-0.357823 0.37413,-0.3105 0.49204,-0.307428 0.49204,0.01281 0,0.231645 0.23812,0.6593 0.52916,0.950341 0.29104,0.291042 0.52917,0.808867 0.52917,1.150726 0,1.026947 1.08037,0.717173 1.29825,-0.372251 0.10932,-0.546594 0.32676,-0.914707 0.48319,-0.818025 0.15643,0.09668 0.37337,-0.104439 0.48207,-0.446941 0.10871,-0.342501 0.71545,-0.831455 1.34832,-1.086562 0.63287,-0.255108 1.42633,-0.612186 1.76324,-0.793507 0.78961,-0.424946 0.85297,-0.416927 0.87938,0.111301 0.0121,0.242535 0.2459,1.055476 0.5195,1.806533 0.49745,1.365564 0.49745,1.365564 1.66674,0.297589 1.70541,-1.557651 2.6825,-1.637901 3.53934,-0.290685 0.69769,1.09698 0.69769,1.09698 0.92931,-0.04955 0.1274,-0.63059 0.44991,-1.146528 0.7167,-1.146528 0.26679,0 0.48507,-0.127289 0.48507,-0.28286 0,-0.155575 0.54132,-0.298207 1.20294,-0.316961 0.93769,-0.0266 1.24527,0.127766 1.3949,0.699954 0.18637,0.712675 0.21952,0.706494 1.13822,-0.212206 0.52045,-0.520443 1.24211,-0.94626 1.60371,-0.94626 0.3616,0 0.77651,-0.0094 0.92203,-0.02081 0.14553,-0.01146 0.36782,0.345737 0.49401,0.79375 0.16803,0.596607 0.23882,0.644871 0.26458,0.180365 0.0458,-0.826929 1.71519,-2.364405 2.56719,-2.364405 0.36582,0 0.76392,0.257475 0.88468,0.572167 0.18925,0.49318 0.30129,0.463814 0.81162,-0.212746 0.35626,-0.472313 1.04227,-0.820325 1.7225,-0.873838 0.7907,-0.0622 1.36926,-0.412609 1.92502,-1.165899 0.60653,-0.822117 0.93094,-1.000647 1.37089,-0.75444 0.43128,0.24136 0.75702,0.09283 1.29426,-0.590162 0.52117,-0.662552 0.91541,-0.850018 1.43847,-0.684004 0.42932,0.136264 0.72053,0.07085 0.72053,-0.16183 0,-0.214789 0.59532,-1.000615 1.32292,-1.746285 1.56163,-1.600412 2.4295,-2.80537 3.57693,-4.966296 0.46362,-0.873126 1.05894,-1.9006374 1.32294,-2.2833584 0.53114,-0.770008 0.48205,-0.91076 0.58104,1.6659964 0.0167,0.436563 -0.17008,1.163342 -0.41522,1.615066 -0.24514,0.451725 -0.36482,1.032122 -0.26595,1.28977 0.0989,0.257651 -0.12703,0.7461 -0.502,1.085444 -0.37497,0.339344 -0.68177,0.883472 -0.68177,1.209171 0,0.325699 -0.635,1.280008 -1.41111,2.120688 -0.77611,0.84068 -1.41519,1.621155 -1.42017,1.734394 -0.0179,0.40726 -3.36158,3.413484 -4.22427,3.797966 -0.48507,0.216186 -2.01475,1.354141 -3.39928,2.528793 -1.38453,1.174651 -2.97203,2.248669 -3.52778,2.386707 -0.55574,0.138039 -1.54384,0.472539 -2.19576,0.743335 -1.08855,0.452159 -1.13396,0.529907 -0.55622,0.952359 0.56379,0.412256 0.41219,0.54211 -1.46052,1.250992 -1.14928,0.435046 -2.68492,0.874522 -3.41253,0.976616 -0.7276,0.102097 -1.32291,0.288819 -1.32291,0.414937 0,0.126122 0.71437,0.440242 1.5875,0.698045 0.87312,0.257803 1.5875,0.597348 1.5875,0.754542 0,0.404972 -1.61502,0.705238 -3.88056,0.72148 -1.06715,0.0077 -2.37684,0.09673 -2.91041,0.197958 -1.05884,0.200875 -1.35176,1.186152 -0.35278,1.186596 0.69767,3.14e-4 3.26319,2.151814 3.26319,2.736582 0,0.702402 -3.44063,1.552177 -6.28454,1.552177 -3.13575,0 -4.26728,0.386214 -2.87573,0.981537 1.25068,0.535051 2.23822,1.188776 2.56322,1.69679 0.15516,0.242535 0.44542,0.440973 0.64502,0.440973 0.1996,0 0.97877,0.640993 1.7315,1.424432 1.30514,1.358395 1.34111,1.456527 0.77588,2.116666 -0.32599,0.380736 -0.79555,0.692242 -1.04347,0.692242 -0.24792,0 -0.45077,0.15875 -0.45077,0.352778 0,0.194028 -0.19843,0.353039 -0.44097,0.353356 -0.24253,3.21e-4 -1.03821,0.635321 -1.76816,1.411111 -0.85803,0.911906 -1.63746,1.410533 -2.20486,1.410533 -0.48272,0 -0.87767,0.15875 -0.87767,0.352778 0,0.194028 -0.33276,0.352778 -0.73946,0.352778 -0.4067,0 -1.59733,0.249392 -2.64584,0.554203 -1.28858,0.3746 -2.93558,0.517507 -5.08219,0.440972 -1.74669,-0.06228 -3.17039,-0.03387 -3.16377,0.06316 0.0321,0.470867 0.96033,1.335765 1.67801,1.563546 0.44207,0.140307 1.20807,0.6298 1.70221,1.087762 0.49415,0.457959 1.36216,0.934502 1.92891,1.058979 0.56676,0.124482 1.03046,0.451842 1.03046,0.727467 0,0.275622 0.22114,0.501135 0.49142,0.501135 0.27029,0 0.5828,0.238125 0.69449,0.529167 0.11168,0.291041 0.44616,0.529166 0.7433,0.529166 0.29713,0 0.83108,0.277813 1.18655,0.617361 0.35547,0.339549 1.22859,1.119752 1.94028,1.733787 0.71168,0.614031 1.29396,1.193814 1.29396,1.288404 0,0.09459 -0.48794,0.342078 -1.08431,0.549977 -1.3767,0.479919 -4.12858,-0.01619 -7.55874,-1.362699 -1.77572,-0.697054 -6.59531,-1.747877 -8.29028,-1.807538 -0.29104,-0.01023 -0.92604,-0.155762 -1.41111,-0.323367 -0.48507,-0.167608 -1.80796,-0.377268 -2.93976,-0.465907 -1.88134,-0.147344 -1.9948,-0.117023 -1.32292,0.353579 0.40419,0.283108 0.7349,0.720323 0.7349,0.971585 0,0.803413 1.96362,2.545084 3.6527,3.239827 0.89997,0.370177 1.63692,0.792109 1.63764,0.93763 7.1e-4,0.145521 0.3982,0.264584 0.88327,0.264584 0.48507,0 0.88194,0.139491 0.88194,0.309978 0,0.170487 0.46485,0.502522 1.03299,0.737856 0.56814,0.235331 1.11878,0.651464 1.22365,0.924744 0.10487,0.273275 0.52252,0.496866 0.92811,0.496866 0.4056,0 0.63915,0.159046 0.51901,0.353438 -0.12014,0.194391 0.14831,0.496418 0.59655,0.671173 0.44823,0.174752 1.3595,0.809456 2.02504,1.410448 0.66554,0.600996 1.37991,1.094684 1.5875,1.097086 0.47858,0.0055 1.99521,2.317204 1.70842,2.603991 -0.72099,0.720996 -6.36697,-0.412814 -9.42333,-1.892371 -0.81347,-0.393792 -1.67336,-0.715987 -1.91087,-0.715987 -0.23751,0 -1.04575,-0.313196 -1.79609,-0.695992 -1.3114,-0.669022 -3.35566,-1.4726 -5.39386,-2.120265 -0.57291,-0.182051 -1.04749,-0.173909 -1.16734,0.02004 -0.11109,0.179733 0.006,0.326983 0.25982,0.327219 0.25399,2.36e-4 0.88502,0.357424 1.40229,0.79375 0.51728,0.436326 1.27316,1.071132 1.67973,1.410681 0.40658,0.339548 1.05491,0.617361 1.44075,0.617361 0.38584,0 0.70152,0.235101 0.70152,0.522446 0,0.287345 0.39578,0.621778 0.87951,0.743186 0.48373,0.121409 0.80142,0.347095 0.70598,0.501523 -0.0954,0.154432 0.30252,0.446737 0.88438,0.649574 0.58185,0.202833 1.05791,0.539203 1.05791,0.747483 0,0.20828 0.39688,0.55952 0.88195,0.780531 0.48507,0.221016 0.88194,0.540459 0.88194,0.709884 0,0.169422 0.51594,0.806271 1.14653,1.415218 1.19606,1.155012 2.37493,2.736095 2.37892,3.190572 0.004,0.404145 -2.47011,0.311365 -4.05462,-0.152079 -0.77611,-0.226999 -1.56986,-0.433624 -1.76389,-0.459165 -0.47344,-0.06233 -1.61475,-0.506251 -2.42122,-0.941769 -0.36154,-0.195238 -0.91716,-0.415434 -1.23472,-0.48932 -1.26874,-0.295201 -3.55724,-1.227685 -4.68095,-1.907322 -0.65346,-0.395224 -1.42623,-0.809445 -1.71727,-0.920492 -0.29104,-0.111047 -1.00542,-0.412563 -1.5875,-0.670027 -0.58208,-0.257468 -1.93146,-0.819422 -2.99861,-1.248784 -1.06716,-0.429363 -2.09109,-0.922966 -2.27542,-1.096892 -0.18433,-0.173944 -0.7107,-0.316248 -1.16972,-0.316248 -0.45902,0 -1.16183,-0.17514 -1.56181,-0.389202 -0.55388,-0.296425 -0.79503,-0.279495 -1.01167,0.07103 -0.19141,0.309718 0.054,0.666059 0.75042,1.089572 0.56918,0.346135 1.03486,0.755615 1.03486,0.909955 0,0.154344 0.49076,0.465861 1.09057,0.692267 0.59982,0.226405 0.99806,0.561343 0.88498,0.744311 -0.11308,0.182965 0.16764,0.577219 0.62382,0.876117 0.45618,0.298901 1.05013,0.753625 1.31989,1.010493 0.26975,0.256872 1.39841,1.084591 2.50812,1.83938 1.10971,0.754786 1.93378,1.508054 1.83126,1.673927 -0.10251,0.165876 -0.0271,0.30159 0.16758,0.30159 0.19468,0 0.95811,0.554866 1.69651,1.233036 0.73841,0.678169 1.47098,1.233794 1.62796,1.234722 0.15697,0.0011 0.19435,0.149006 0.0831,0.329064 -0.11129,0.180061 0.15716,0.440249 0.59654,0.578196 0.43938,0.13795 1.14749,0.585942 1.57358,0.995539 1.8344,1.763391 2.44625,2.271469 3.20392,2.660523 0.442,0.226959 0.71026,0.563735 0.59613,0.748393 -0.11412,0.184654 0.20849,0.493892 0.71691,0.687193 0.50842,0.193302 0.83638,0.493868 0.72881,0.667929 -0.10758,0.17406 0.0416,0.4075 0.33155,0.518756 0.28992,0.111255 0.52714,0.445389 0.52714,0.742523 0,0.297131 0.14023,0.540237 0.31163,0.540237 0.1714,0 0.39322,0.311979 0.49293,0.693282 0.12442,0.475792 -0.0333,0.761411 -0.5029,0.910442 -0.73974,0.234781 -3.43152,-0.115803 -4.00583,-0.521733 -0.19403,-0.137139 -1.06715,-0.466789 -1.94028,-0.732554 -0.87312,-0.265765 -1.90063,-0.691236 -2.28335,-0.94549 -0.38272,-0.254254 -0.95343,-0.46228 -1.26824,-0.46228 -0.31482,0 -0.85633,-0.313757 -1.20338,-0.697237 -0.34704,-0.38348 -0.78028,-0.604972 -0.96273,-0.492207 -0.18246,0.112766 -0.71687,-0.156774 -1.18758,-0.598981 -0.4707,-0.442203 -0.85583,-0.67812 -0.85583,-0.524256 0,0.153868 -0.54503,-0.135961 -1.21118,-0.644059 -0.66615,-0.508099 -1.35083,-0.923816 -1.5215,-0.923816 -0.17067,0 -0.765,-0.474596 -1.32074,-1.054654 -0.55573,-0.580058 -1.08282,-0.982253 -1.17131,-0.893762 -0.1564,0.156404 -2.70152,-1.493147 -4.12388,-2.672779 -1.01316,-0.840267 -5.35818,-3.076413 -6.69487,-3.445492 -1.10143,-0.30412 -1.12384,-0.288795 -0.74806,0.511753 0.21305,0.453895 0.73914,1.013989 1.16909,1.244657 0.42994,0.230663 0.71264,0.531142 0.62823,0.66772 -0.0844,0.136581 0.22508,0.603962 0.68775,1.03862 0.46267,0.434657 0.93963,1.182381 1.05991,1.661601 0.22111,0.880981 2.50002,2.212661 3.81454,2.229033 0.8605,0.01072 1.99953,0.6925 3.31046,1.981514 0.61071,0.600502 1.84102,1.520007 2.73403,2.043342 0.893,0.523339 1.62364,1.103581 1.62364,1.289428 0,0.18585 0.22661,0.337908 0.50357,0.337908 0.27695,0 0.79892,0.375493 1.15992,0.834432 0.361,0.45894 1.00752,0.945886 1.43672,1.082106 0.42919,0.13622 0.78035,0.39165 0.78035,0.56762 0,0.17597 0.48144,0.56891 1.06987,0.8732 0.58842,0.30429 0.98085,0.69727 0.87206,0.8733 -0.10879,0.17603 0.13616,0.49879 0.54434,0.71724 1.14033,0.61028 3.51095,3.320701 3.51095,4.014201 0,0.11557 -0.75475,0.21013 -1.67722,0.21013 -1.7937,0 -6.17505,-1.417781 -7.17339,-2.321261 -0.44519,-0.4029 -0.67192,-0.43758 -0.86095,-0.13173 -0.26157,0.42324 0.38992,1.02671 1.11896,1.03648 0.22177,0.003 0.4946,0.243521 0.60629,0.534561 0.11168,0.29104 0.38546,0.52917 0.60841,0.52917 0.22294,0 1.02207,0.61672 1.77585,1.3705 1.37049,1.37049 1.37049,1.37049 0.22308,1.91068 -0.81629,0.38429 -1.96187,0.50596 -3.96964,0.4216 -3.20911,-0.13484 -4.59461,-0.41326 -5.73264,-1.152 -0.43656,-0.28339 -0.79375,-0.41355 -0.79375,-0.28924 0,0.12431 -0.43941,-10e-4 -0.97647,-0.27893 -0.53706,-0.27773 -1.4111,-0.42187 -1.94231,-0.32033 -0.54587,0.10435 -1.21,-0.018 -1.52738,-0.28141 -0.30885,-0.25632 -0.89494,-0.51692 -1.30242,-0.57911 -0.40748,-0.0622 -1.027,-0.372 -1.3767,-0.68848 -0.34971,-0.31647 -0.63583,-0.46756 -0.63583,-0.33574 0,0.13181 -0.7528,-0.16108 -1.67289,-0.650881 -0.92009,-0.4898 -1.85315,-0.89055 -2.07347,-0.89055 -0.22032,0 -0.59676,-0.23638 -0.83653,-0.52528 -0.23977,-0.28891 -0.57167,-0.4414 -0.73757,-0.33887 -0.16589,0.10253 -1.01232,-0.13734 -1.88095,-0.53305 -0.86863,-0.39571 -1.70569,-0.71947 -1.86014,-0.71947 -0.15444,0 -1.42278,-0.56425 -2.81851,-1.2539 -2.80213,-1.38455 -4.18877,-1.75812 -4.52237,-1.21835 -0.12087,0.19557 -0.0614,0.35559 0.13206,0.35559 0.1935,0 0.87029,0.47354 1.50397,1.05232 0.63368,0.57878 1.67535,1.3006 2.31483,1.60405 0.63947,0.30345 1.16268,0.6734 1.16268,0.82211 0,0.14871 0.54843,0.48557 1.21873,0.74857 0.6703,0.26301 1.158,0.57645 1.08377,0.69655 -0.0742,0.12009 0.32986,0.424101 0.89794,0.675561 0.56809,0.25146 1.0329,0.68202 1.0329,0.9568 0,0.27477 0.21352,0.49959 0.47448,0.49959 0.53876,0 1.73661,1.19909 1.46709,1.46861 -0.0971,0.0971 0.22001,0.3889 0.70479,0.64835 0.48478,0.25944 0.88141,0.59142 0.88141,0.73774 0,0.3748 2.03918,2.37067 2.88412,2.82287 0.38725,0.20725 0.61213,0.46878 0.49973,0.58118 -0.1124,0.1124 0.11213,0.42604 0.49895,0.69698 0.38682,0.27094 0.70331,0.72174 0.70331,1.00178 0,0.28004 0.20711,0.50916 0.46023,0.50916 0.25313,0 1.06683,0.55562 1.80823,1.23472 0.7414,0.6791 1.20899,1.23577 1.03908,1.23705 -0.16991,0.001 0.12892,0.29104 0.66406,0.64391 0.53514,0.35288 0.86587,0.74871 0.73495,0.87962 -0.13092,0.13092 -0.05,0.23803 0.17978,0.23803 0.57932,0 2.87478,2.41852 2.87478,3.0289 0,0.27438 0.19844,0.51253 0.44098,0.5292 0.24253,0.0167 0.005,0.16153 -0.5277,0.32188 -1.42567,0.4291 -3.34016,0.0882 -5.68438,-1.01225 -0.80346,-0.37717 -1.81803,-0.79052 -2.25459,-0.91857 -0.43656,-0.12805 -0.79375,-0.38087 -0.79375,-0.56182 0,-0.18095 -0.29806,-0.329 -0.66236,-0.329 -0.3643,0 -0.85998,-0.23813 -1.10153,-0.52917 -0.24154,-0.29104 -0.67463,-0.52917 -0.96241,-0.52917 -0.28778,0 -0.99489,-0.39687 -1.57137,-0.88194 -0.57647,-0.48507 -1.31376,-0.88116 -1.63843,-0.88019 -0.42581,0.001 -0.2954,0.24346 0.46805,0.86925 0.58208,0.47713 0.9339,0.87322 0.78182,0.8802 -0.15208,0.007 0.36386,0.60146 1.14653,1.32108 0.78267,0.71962 1.42303,1.49394 1.42303,1.7207 0,0.22676 0.23638,0.60847 0.52529,0.84823 0.2889,0.23978 0.4494,0.55873 0.35666,0.70878 -0.0927,0.15006 0.0678,0.46901 0.35666,0.70878 0.2889,0.23977 0.52626,0.61495 0.52746,0.83372 0.001,0.21878 0.2303,0.83511 0.50912,1.36961 0.4847,0.92919 0.473,0.96418 -0.26676,0.79742 -0.42554,-0.0959 -1.17058,-0.24126 -1.65565,-0.32297 -1.28031,-0.21567 -2.20846,-0.59893 -2.91041,-1.2018 -0.33955,-0.29162 -0.61737,-0.39857 -0.61737,-0.23766 0,0.16091 -0.39687,-0.0803 -0.88194,-0.53598 -0.48507,-0.45571 -0.88194,-0.70324 -0.88194,-0.55009 0,0.15315 -0.39688,0.0184 -0.88195,-0.29942 -0.48507,-0.31783 -0.88194,-0.50676 -0.88194,-0.41983 0,0.20651 -5.67727,-2.56219 -6.2974,-3.07113 -0.26211,-0.21511 -0.73157,-0.42854 -1.04325,-0.47428 -0.31167,-0.0457 -0.89097,-0.24209 -1.28732,-0.43633 -3.80506,-1.86468 -8.16963,-3.56837 -9.14157,-3.56837 -0.44555,0 -0.91916,-0.10907 -1.05246,-0.24237 -0.13331,-0.13331 -0.51696,-0.2699 -0.85255,-0.30355 -0.3356,-0.0337 -1.20742,-0.18073 -1.937401,-0.32686 -1.14008,-0.22823 -1.29625,-0.185 -1.10761,0.30659 0.12078,0.31476 0.59897,0.66749 1.06264,0.78387 0.46367,0.11637 0.843031,0.37164 0.843031,0.56727 0,0.19562 0.3175,0.27265 0.70555,0.17117 0.38806,-0.10148 0.70556,-0.0406 0.70556,0.13524 0,0.17586 0.39687,0.31975 0.88194,0.31975 0.48507,0 0.88195,0.16571 0.88195,0.36825 0,0.20253 0.19844,0.34247 0.44097,0.31097 0.93046,-0.12082 1.64275,0.0434 2.09147,0.48221 0.25639,0.25073 0.98211,0.66686 1.6127,0.92474 0.63059,0.25788 1.14652,0.60837 1.14652,0.77885 0,0.17049 0.23813,0.30998 0.52917,0.30998 0.29104,0 0.8118,0.27781 1.15725,0.61736 0.34544,0.33955 1.0544,0.83973 1.57546,1.1115 0.52106,0.27178 0.86405,0.62897 0.76221,0.79375 -0.10184,0.16479 0.0502,0.29961 0.33775,0.29961 0.28761,0 0.99458,0.39688 1.57105,0.88195 0.57647,0.48507 1.20667,0.88194 1.40044,0.88194 0.19376,0 0.44367,0.23813 0.55536,0.52917 0.11168,0.29104 0.39325,0.52917 0.6257,0.52917 0.23246,0 0.83275,0.38717 1.334,0.86037 3.4031,3.21279 4.88585,4.74891 4.73221,4.90256 -0.0974,0.0974 0.15841,0.3567 0.56851,0.57618 0.41011,0.21949 0.65953,0.53842 0.55426,0.70874 -0.10526,0.17033 0.12842,0.41118 0.51929,0.53524 0.39087,0.12406 0.71068,0.3888 0.71068,0.58831 0,0.1995 0.3155,0.80581 0.7011,1.34735 0.70111,0.98462 0.70111,0.98462 -0.0882,1.19617 -1.35383,0.36286 -2.59227,0.24389 -4.00941,-0.38516 -0.7513,-0.3335 -1.53268,-0.61407 -1.73639,-0.6235 -0.20372,-0.009 -1.17012,-0.53031 -2.14756,-1.15753 -0.97743,-0.62722 -1.91225,-1.1404 -2.07737,-1.1404 -0.44207,0 0.91596,1.15651 2.03768,1.73531 0.53358,0.27532 0.97014,0.61529 0.97014,0.7555 0,0.14021 0.39687,0.35453 0.88194,0.47628 0.48507,0.12174 0.88195,0.4218 0.88195,0.66678 0,0.24499 0.71437,0.65636 1.5875,0.91416 0.87312,0.25781 1.59222,0.64965 1.59799,0.87077 0.006,0.22112 0.95099,0.94053 2.10049,1.59871 2.09001,1.19666 2.09001,1.19666 1.20334,1.89412 -1.21769,0.95784 -6.56007,1.02533 -9.13516,0.11541 -0.97014,-0.34281 -3.10827,-1.01536 -4.75141,-1.49457 -1.64315,-0.47921 -3.15127,-0.99968 -3.35139,-1.15659 -0.66065,-0.51801 -4.36768,-1.55683 -6.89025,-1.93087 -0.48507,-0.0719 -1.6757,-0.30961 -2.64583,-0.52819 -0.970141,-0.21859 -2.195671,-0.46677 -2.723391,-0.55152 -0.52773,-0.0847 -1.32148,-0.34781 -1.76389,-0.58458 -0.44242,-0.23678 -0.84637,-0.39011 -0.89768,-0.34074 -0.0513,0.0494 -0.68631,-0.01 -1.41111,-0.13087 -0.7248,-0.12135 -2.415179,-0.24237 -3.756399,-0.26893 -2.16231,-0.0428 -2.46898,0.0339 -2.70694,0.67715 -0.24659,0.6666 -0.0989,0.74462 1.82122,0.96185 1.14927,0.13003 2.08957,0.36961 2.08957,0.53241 0,0.1628 0.54408,0.39807 1.20905,0.52282 0.664979,0.12475 1.260289,0.37167 1.322919,0.54872 0.0626,0.17705 1.09872,0.35656 2.30243,0.39891 1.20371,0.0424 2.39434,0.20754 2.64583,0.36708 0.2515,0.15954 0.29852,0.30221 0.1045,0.31705 -0.19403,0.0149 0.83784,0.38141 2.293051,0.81462 1.45521,0.43321 2.61257,0.95986 2.57191,1.17035 -0.0407,0.21048 0.55465,0.48321 1.32292,0.60606 0.76826,0.12285 1.39684,0.38024 1.39684,0.57197 0,0.19173 0.21998,0.34861 0.48884,0.34861 0.26886,0 0.94355,0.23715 1.4993,0.52699 0.55576,0.28985 1.28828,0.52797 1.62783,0.52917 0.33955,0.001 0.61736,0.14831 0.61736,0.32692 0,0.17861 0.47625,0.42935 1.05833,0.5572 0.58209,0.12784 1.05834,0.37556 1.05834,0.55047 0,0.17491 0.39687,0.41764 0.88194,0.53938 0.48507,0.12175 0.88195,0.3629 0.88195,0.53589 0,0.17299 0.32248,0.31453 0.71662,0.31453 0.39415,0 0.80801,0.23813 0.91969,0.52917 0.11169,0.29104 0.50856,0.52917 0.88194,0.52917 0.37339,0 0.77027,0.23812 0.88195,0.52916 0.11169,0.29105 0.42576,0.52917 0.69794,0.52917 0.27218,0 0.76673,0.3175 1.09899,0.70556 0.33226,0.38805 0.80696,0.70555 1.05488,0.70555 0.24792,0 0.45076,0.15875 0.45076,0.35278 0,0.19403 0.23262,0.35278 0.51692,0.35278 0.2843,0 1.23919,0.45805 2.12198,1.0179 1.60507,1.0179 1.60507,1.0179 0.10044,1.62653 -1.7338,0.70134 -5.75921,0.94331 -6.79628,0.40854 -0.38806,-0.2001 -0.94368,-0.3967 -1.23472,-0.43688 -0.7445,-0.10277 -4.18722,-1.39406 -4.46961,-1.67644 -0.12875,-0.12875 -0.75389,-0.2341 -1.3892,-0.2341 -0.63531,0 -1.24006,-0.13746 -1.3439,-0.30546 -0.2104,-0.34044 -1.96951,-0.0997 -1.96951,0.26957 0,0.12905 0.73923,0.45291 1.64275,0.71969 0.90351,0.26677 1.93539,0.77768 2.29305,1.13534 0.35767,0.35767 0.87145,0.65031 1.14173,0.65031 0.27028,0 0.5828,0.23812 0.69449,0.52916 0.11168,0.29105 0.44616,0.52917 0.74329,0.52917 0.29714,0 0.54024,0.15875 0.54024,0.35278 0,0.19403 0.24946,0.35278 0.55437,0.35278 0.3049,0 0.75765,0.19843 1.00612,0.44097 0.24846,0.24253 1.19921,1.06071 2.11278,1.81817 1.52148,1.26149 1.61366,1.4245 1.09725,1.94028 -0.44666,0.4461 -1.3122,0.55742 -4.16645,0.53587 -1.99625,-0.0151 -3.9411,-0.20894 -4.36163,-0.43476 -1.46863,-0.78865 -11.898261,-2.11835 -12.242801,-1.56087 -0.10459,0.16922 0.27771,0.239 0.84955,0.15508 0.57184,-0.0839 1.0397,-0.0104 1.0397,0.16327 0,0.17373 0.405291,0.34942 0.900651,0.39042 0.49535,0.041 1.19903,0.23423 1.56373,0.42941 0.3647,0.19518 1.89599,0.43643 3.40286,0.5361 1.50688,0.0997 2.85093,0.36108 2.98678,0.58089 0.13584,0.2198 0.50114,0.30212 0.81177,0.18292 0.31062,-0.1192 0.56477,-0.0599 0.56477,0.13171 0,0.19549 0.38709,0.25127 0.88194,0.12707 0.48507,-0.12175 0.88194,-0.0707 0.88194,0.11353 0,0.18419 0.86193,0.52778 1.9154,0.76353 1.05346,0.23575 2.65352,0.78488 3.55568,1.22028 1.64028,0.79164 1.64028,0.79164 0.28946,1.47958 -0.74295,0.37836 -1.45213,0.82734 -1.57596,0.99772 -0.12382,0.17037 -0.36366,0.22416 -0.53297,0.11953 -0.40309,-0.24913 -5.50522,0.95086 -5.22678,1.22931 0.39176,0.39175 -3.81337,0.53023 -12.183161,0.40119 -4.55965,-0.0703 -8.687149,-0.12278 -9.172219,-0.11664 -0.48507,0.006 -1.99319,-0.15132 -3.35139,-0.34991 -1.95298,-0.28557 -2.87181,-0.25286 -4.39332,0.15636 -1.05813,0.28459 -1.99602,0.4453 -2.0842,0.35711 -0.0882,-0.0882 -0.37534,0.0181 -0.63812,0.23619 -0.79657,0.66109 0.10468,1.4566 1.06684,0.94167 0.87745,-0.4696 2.78702,-0.6099 3.06228,-0.225 0.26173,0.36597 2.37893,0.40831 6.46156,0.12922 1.91126,-0.13065 3.39502,-0.10783 3.29723,0.0507 -0.0978,0.15854 1.830949,0.32559 4.286079,0.37122 5.626891,0.10459 6.051371,0.13279 6.051371,0.4021 0,0.12127 0.59532,0.23713 1.32292,0.25747 2.65118,0.0741 5.02683,0.32069 5.02695,0.52176 7e-5,0.11327 0.7542,0.21389 1.67583,0.2236 2.90998,0.0306 4.11224,0.15656 5.27965,0.55297 0.87876,0.2984 1.04796,0.48953 0.75055,0.84788 -0.21118,0.25445 -0.29049,0.46264 -0.17626,0.46264 0.11423,0 -0.25785,0.47625 -0.82686,1.05834 -0.56901,0.58208 -1.27803,1.05833 -1.57561,1.05833 -0.29758,0 -0.54106,0.23812 -0.54106,0.52917 0,0.29104 -0.30813,0.52916 -0.68473,0.52916 -0.37661,0 -0.7914,0.17258 -0.92176,0.38351 -0.13036,0.21093 -0.529,0.30716 -0.88585,0.21384 -0.35686,-0.0933 -0.70448,-0.003 -0.77249,0.20132 -0.068,0.20405 -0.63411,0.35649 -1.25799,0.33874 -0.62387,-0.0177 -1.05297,0.0994 -0.95355,0.26025 0.15837,0.25623 -1.16182,0.55995 -3.54886,0.81643 -0.40422,0.0434 -0.73495,0.28423 -0.73495,0.53512 0,0.28341 0.21152,0.364 0.55856,0.21281 0.71179,-0.31009 10.46467,-0.43164 13.25857,-0.16523 2.11666,0.20182 2.11666,0.20182 1.0996,1.08377 -0.55939,0.48507 -1.22274,1.08038 -1.47411,1.32291 -0.25137,0.24254 -0.70651,0.44098 -1.0114,0.44098 -0.30491,0 -0.55437,0.15875 -0.55437,0.35277 0,0.19403 -0.39687,0.35278 -0.88194,0.35278 -0.53208,0 -0.88195,0.20135 -0.88195,0.50755 0,0.33109 -0.55193,0.59032 -1.5875,0.74561 -0.87312,0.13094 -1.5875,0.37879 -1.5875,0.55079 0,0.17199 -0.39687,0.31272 -0.88194,0.31272 -0.48507,0 -0.88195,0.13825 -0.88195,0.30721 0,0.16896 -0.9525,0.41497 -2.11666,0.54668 -1.16417,0.13171 -2.11667,0.39035 -2.11667,0.57474 0,0.18439 -0.27781,0.33765 -0.61736,0.34057 -0.97217,0.008 -3.29549,0.90313 -3.03123,1.1674 0.22686,0.22685 -1.283111,0.39562 -2.295841,0.2566 -0.26201,-0.036 -0.3717,0.10398 -0.24377,0.31098 0.12794,0.20701 0.10419,0.3798 -0.0528,0.38399 -0.15698,0.004 -1.63478,0.21048 -3.28402,0.4584 -1.64924,0.24793 -4.424899,0.42501 -6.168129,0.39351 -1.74324,-0.0315 -3.6196,0.0718 -4.16969,0.22957 -0.55008,0.15776 -2.37817,0.31563 -4.06242,0.35082 -1.68424,0.0352 -3.14632,0.19428 -3.24907,0.35354 -0.10275,0.15926 -1.33306,0.32895 -2.73403,0.37709 -1.40097,0.0481 -2.54721,0.19893 -2.54721,0.33509 0,0.13616 -0.48816,0.41774 -1.0848,0.62573 -1.43247,0.49936 -1.00843,1.26686 0.51022,0.92348 1.69336,-0.3829 14.33291,-0.55101 14.33291,-0.19064 0,0.17328 0.43656,0.0981 0.97014,-0.16705 1.24078,-0.6166 3.86982,-1.20905 4.14484,-0.93403 0.35382,0.35383 3.457189,1.08533 4.674599,1.10186 0.63059,0.009 1.14653,0.14338 1.14653,0.29959 0,0.15621 1.86531,0.28472 4.145141,0.28559 4.02907,0.001 6.79097,0.50569 6.79097,1.23964 0,0.18888 -0.54689,0.57192 -1.21531,0.85121 -0.66842,0.27928 -1.58123,0.86649 -2.02847,1.30491 -0.44724,0.43842 -1.28941,1.035 -1.8715,1.32574 -0.58208,0.29073 -1.13771,0.60823 -1.23472,0.70555 -0.87253,0.87531 -3.368321,1.44259 -7.850171,1.78432 -5.435309,0.41441 -6.972529,0.67945 -7.076209,1.22 -0.0753,0.39282 -0.16436,0.3843 6.871199,0.65779 5.57171,0.21658 8.055181,0.82226 8.055181,1.96452 0,1.34852 -4.986561,4.56613 -7.122931,4.59611 -0.3281,0.005 -0.69465,0.16713 -0.81457,0.36116 -0.11992,0.19402 -0.694279,0.35277 -1.276359,0.35277 -0.58208,0 -0.96943,0.14385 -0.86077,0.31966 0.10865,0.17582 0.53114,0.23243 0.93887,0.1258 0.40772,-0.10662 0.854399,-0.0109 0.992619,0.21277 0.18507,0.29945 0.75674,0.31064 2.16875,0.0425 2.27301,-0.4317 3.1251,-0.29471 6.856331,1.10231 4.47325,1.67484 5.11904,2.01005 4.91198,2.54964 -0.282,0.73487 -1.55042,1.20197 -4.98596,1.83612 -1.70556,0.31483 -3.418521,0.77228 -3.806571,1.01657 -0.81737,0.51455 -2.10781,0.86812 -4.58611,1.25656 -0.970139,0.15205 -3.351389,0.76158 -5.291669,1.35449 -1.94028,0.59293 -4.2388,1.17988 -5.10782,1.30435 -1.87227,0.26817 -2.12412,0.39629 -2.12412,1.08053 0,0.43438 0.555,0.48405 3.43958,0.30779 1.89177,-0.11559 4.55083,-0.46789 5.90903,-0.78289 1.35819,-0.31499 2.593039,-0.54073 2.744109,-0.50163 0.15107,0.0391 0.94482,-0.26016 1.76389,-0.665 1.54418,-0.76324 1.911,-0.86639 4.37238,-1.22959 0.809621,-0.11946 2.397121,-0.50696 3.527771,-0.86109 2.57112,-0.80531 2.95872,-0.50026 1.94455,1.5304 -0.42392,0.84882 -0.77076,1.70448 -0.77076,1.90147 0,0.65561 -3.03256,3.53449 -4.52545,4.29611 -0.809471,0.41296 -1.471771,0.89502 -1.471771,1.07125 0,0.49727 1.05155,1.42914 1.612701,1.42914 1.10965,0 0.22862,2.31445 -1.509861,3.9664 -0.87733,0.83366 -4.86721,3.44193 -5.26513,3.44193 -0.0759,0 -1.286939,0.54308 -2.691289,1.20684 -1.40435,0.66376 -3.26774,1.3172 -4.14086,1.45208 -1.9391,0.29955 -2.82223,0.73439 -2.82223,1.38962 0,0.76032 0.44236,0.87691 1.95975,0.51652 0.76541,-0.18179 2.26477,-0.4236 3.33192,-0.53736 1.06715,-0.11377 2.4959,-0.36157 3.175,-0.55067 0.6791,-0.1891 1.710969,-0.42237 2.293059,-0.51838 0.58208,-0.096 1.53458,-0.32008 2.11666,-0.49792 1.48092,-0.45247 4.877371,-0.65639 6.251531,-0.37534 0.69837,0.14283 1.19975,0.48085 1.27235,0.85779 0.17675,0.91779 -2.07239,2.85991 -4.988811,4.30783 -1.39429,0.69222 -3.40819,1.71882 -4.47535,2.28133 -3.357559,1.76984 -5.980869,2.81488 -7.066009,2.81488 -0.81269,0 -1.04787,0.15836 -1.04787,0.70556 0,0.38805 0.19843,0.7246 0.44097,0.74788 1.51867,0.14577 4.91774,-0.0853 5.71525,-0.38849 0.519899,-0.19767 1.534609,-0.35939 2.254909,-0.35939 0.72031,0 1.67744,-0.25761 2.12695,-0.57246 1.07423,-0.75242 5.135341,-1.09234 5.860481,-0.49053 1.20124,0.99695 0.0516,2.92555 -2.73785,4.5928 -1.013461,0.60576 -2.367811,1.4785 -3.009671,1.93943 -0.64185,0.46092 -1.91185,1.10099 -2.82222,1.42238 -2.934289,1.03588 -5.985459,2.32109 -6.630949,2.79309 -0.59565,0.43555 -0.59668,0.49188 -0.0196,1.06902 0.44683,0.44683 0.92362,0.55026 1.78859,0.38799 0.64865,-0.12169 1.56448,-0.0748 2.0352,0.10414 0.51106,0.19431 1.08491,0.1972 1.42444,0.007 0.312729,-0.17501 1.415619,-0.40456 2.450879,-0.51011 1.03526,-0.10554 2.06132,-0.25158 2.28014,-0.32453 0.34609,-0.11537 4.268391,0.30985 5.775751,0.62615 1.25106,0.26251 2.11667,0.66921 2.11667,0.99447 0,0.19241 0.15875,0.25171 0.35278,0.1318 0.65242,-0.40322 0.36013,0.76594 -0.35278,1.41111 -0.38805,0.35119 -0.70555,1.059 -0.70555,1.57291 0,2.41377 -4.67952,8.47157 -7.658671,9.91442 -0.58499,0.28331 -1.87601,1.21974 -2.86894,2.08095 -0.99292,0.8612 -3.045529,2.21635 -4.561339,3.01143 -3.54218,1.85795 -4.44488,2.502 -4.15781,2.9665 0.22469,0.36356 2.03742,0.24572 3.54815,-0.23064 0.38805,-0.12236 0.8643,-0.25834 1.05833,-0.30218 0.19403,-0.0438 1.30528,-0.31726 2.46944,-0.60759 1.164169,-0.29033 2.523319,-0.61686 3.020349,-0.72563 0.49702,-0.10876 1.36024,-0.59007 1.91827,-1.06957 0.55803,-0.4795 1.11509,-0.8097 1.23791,-0.73379 0.12283,0.0759 0.68836,-0.14366 1.256731,-0.48792 1.13601,-0.68808 5.25927,-1.60944 5.7753,-1.29052 0.17855,0.11035 0.41295,0.0577 0.52089,-0.11692 0.24828,-0.40172 2.59165,0.63908 2.82849,1.25626 0.2988,0.77868 -0.12701,1.38054 -1.84989,2.61467 -0.9104,0.65214 -2.81437,2.25878 -4.23105,3.5703 -2.04552,1.89371 -3.497981,2.83329 -7.055551,4.5642 -5.223929,2.54166 -7.223849,3.73127 -6.968199,4.14491 0.22124,0.35798 3.55818,0.17007 6.076299,-0.34217 1.0032,-0.20407 2.92216,-0.91204 4.26436,-1.57327 1.342211,-0.66122 3.140781,-1.30404 3.996841,-1.42848 0.85606,-0.12444 2.28675,-0.4323 3.17932,-0.68415 2.39665,-0.67625 2.724,-0.27352 1.54238,1.89752 -0.88133,1.61929 -3.44932,4.35602 -6.34023,6.75683 -0.58208,0.4834 -1.28359,1.31403 -1.55891,1.84584 -0.27532,0.53181 -0.779081,0.96692 -1.119461,0.96692 -0.34039,0 -1.09145,0.39765 -1.66905,0.88366 -1.55746,1.31053 -5.561529,3.17851 -8.237189,3.84283 -1.29474,0.32146 -3.19974,0.87488 -4.23334,1.22982 -1.03359,0.35494 -2.80519,0.76054 -3.93687,0.90132 -1.13169,0.14079 -2.95731,0.57086 -4.05695,0.95572 -1.09963,0.38485 -3.15027,0.79158 -4.55697,0.90383 -2.55764,0.20411 -2.55764,0.20411 -2.55764,-0.88432 0,-0.59864 -0.14212,-1.17627 -0.31582,-1.28362 -0.34953,-0.21604 -0.74251,0.58658 -0.74251,1.51648 0,0.64238 -1.68797,1.24625 -4.58611,1.6407 -2.96226,0.40317 -6.5191,1.29236 -8.57812,2.14448 -1.12845,0.467 -2.24763,0.8491 -2.48708,0.8491 -0.23945,0 -0.62076,0.1854 -0.84736,0.412 -0.4667,0.4667 -2.8091,1.39186 -3.60966,1.42569 -0.29105,0.0123 -0.70436,0.15963 -0.91849,0.32737 -0.21412,0.16779 -0.76974,0.29789 -1.23472,0.28921 -0.46497,-0.009 -1.40103,0.0602 -2.08013,0.15321 -6.82895,0.93508 -10.29186,0.9434 -14.2875,0.0342 z"
       id="path863" />
  </g>
</svg>
